<svg width="990" height="50" viewBox="0 0 990 50" version="1.1" xmlns="http://www.w3.org/2000/svg" xmlns:xlink="http://www.w3.org/1999/xlink" xmlns:figma="http://www.figma.com/figma/ns"><title>Fact nav</title><desc>Created using Figma</desc><g id="Canvas" transform="translate(-5982 -2205)" figma:type="canvas"><g id="Fact nav" style="mix-blend-mode:normal;" figma:type="frame"><g id="Line 2" style="mix-blend-mode:normal;" figma:type="line"><use xlink:href="#path0_stroke" transform="translate(5982 2230)" fill="#000000" fill-opacity="0.25" style="mix-blend-mode:normal;"/></g><g id="Rectangle 4" style="mix-blend-mode:normal;" figma:type="rounded-rectangle"><use xlink:href="#path1_fill" transform="translate(6035 2205)" fill="#EAEAEA" style="mix-blend-mode:normal;"/></g></g></g><defs><path id="path0_stroke" d="M 0.43934 -2.56066C -0.146447 -1.97487 -0.146447 -1.02513 0.43934 -0.43934L 9.98528 9.1066C 10.5711 9.69239 11.5208 9.69239 12.1066 9.1066C 12.6924 8.52081 12.6924 7.57107 12.1066 6.98528L 3.62132 -1.5L 12.1066 -9.98528C 12.6924 -10.5711 12.6924 -11.5208 12.1066 -12.1066C 11.5208 -12.6924 10.5711 -12.6924 9.98528 -12.1066L 0.43934 -2.56066ZM 989.561 -0.43934C 990.146 -1.02513 990.146 -1.97487 989.561 -2.56066L 980.015 -12.1066C 979.429 -12.6924 978.479 -12.6924 977.893 -12.1066C 977.308 -11.5208 977.308 -10.5711 977.893 -9.98528L 986.379 -1.5L 977.893 6.98528C 977.308 7.57107 977.308 8.52081 977.893 9.1066C 978.479 9.69239 979.429 9.69239 980.015 9.1066L 989.561 -0.43934ZM 1.5 0L 988.5 0L 988.5 -3L 1.5 -3L 1.5 0Z"/><path id="path1_fill" d="M 0 0L 885 0L 885 50L 0 50L 0 0Z"/></defs></svg>