<svg width="8" height="14" viewBox="0 0 8 14" version="1.1" xmlns="http://www.w3.org/2000/svg" xmlns:xlink="http://www.w3.org/1999/xlink" xmlns:figma="http://www.figma.com/figma/ns"><title>Arrow</title><desc>Created using Figma</desc><g id="Canvas" transform="translate(-7522 3689)" figma:type="canvas"><g id="Arrow" style="mix-blend-mode:normal;" figma:type="vector"><use xlink:href="#path0_stroke" transform="matrix(-1.83697e-16 -1 1 -1.83697e-16 7526 -3675)" fill="#FFFFFF" style="mix-blend-mode:normal;"/></g></g><defs><path id="path0_stroke" d="M 13.3536 0.353553C 13.5488 0.158291 13.5488 -0.158291 13.3536 -0.353553L 10.1716 -3.53553C 9.97631 -3.7308 9.65973 -3.7308 9.46447 -3.53553C 9.2692 -3.34027 9.2692 -3.02369 9.46447 -2.82843L 12.2929 0L 9.46447 2.82843C 9.2692 3.02369 9.2692 3.34027 9.46447 3.53553C 9.65973 3.7308 9.97631 3.7308 10.1716 3.53553L 13.3536 0.353553ZM 0 0.5L 13 0.5L 13 -0.5L 0 -0.5L 0 0.5Z"/></defs></svg>