<?xml version="1.0" encoding="utf-8"?>
<!-- Generator: Adobe Illustrator 21.0.0, SVG Export Plug-In . SVG Version: 6.00 Build 0)  -->
<svg version="1.1" id="Layer_1" xmlns="http://www.w3.org/2000/svg" xmlns:xlink="http://www.w3.org/1999/xlink" x="0px" y="0px"
	 viewBox="0 0 360.3 92.7" style="enable-background:new 0 0 360.3 92.7;" xml:space="preserve">
<style type="text/css">
	.st0{fill:#FFFFFF;stroke:#000000;stroke-width:0.72;stroke-linecap:round;stroke-linejoin:round;}
	.st1{fill:#FFFFFF;}
	.st2{fill:#FFFFFF;stroke:#000000;stroke-width:0.24;stroke-linecap:round;stroke-linejoin:round;}
</style>
<line class="st0" x1="0.3" y1="18.2" x2="125" y2="18.2"/>
<line class="st0" x1="29.1" y1="-0.5" x2="29.1" y2="93.3"/>
<path class="st0" d="M91.1,0.1c1.6,5.7,2.5,11.8,2.5,18C93.6,54,64.7,83,29.1,83c-10.4,0-20.2-2.5-28.8-6.8"/>
<path class="st0" d="M88.4,0.1c1.7,5.7,2.6,11.7,2.6,18c0,34.5-27.8,62.3-61.9,62.3c-10.4,0-20.2-2.6-28.8-7.1"/>
<polyline class="st0" points="36.6,0.1 29.1,18.1 29.1,0.1 "/>
<polyline class="st0" points="29.1,0.1 29.1,18.1 21.7,0.1 "/>
<polyline class="st0" points="57,0.1 51.3,9 29.1,18.1 47.1,0.1 "/>
<polyline class="st0" points="47.1,0.1 29.1,18.1 36.6,0.1 "/>
<polygon class="st0" points="93.5,18.2 51.2,27.5 29.1,18.1 "/>
<polygon class="st0" points="29.1,18.1 51.3,9 93.5,18.2 "/>
<polygon class="st0" points="74.5,64 38.2,40.5 29.1,18.1 "/>
<polygon class="st0" points="29.1,18.1 51.3,27.5 74.5,64 "/>
<polygon class="st0" points="29.1,83 19.8,40.4 29.1,18.1 "/>
<polygon class="st0" points="29.1,18.1 38.3,40.6 29.1,83 "/>
<polyline class="st0" points="0.3,37.7 6.9,27.4 29.1,18.1 0.3,47 "/>
<polyline class="st0" points="0.3,47 29.1,18.1 19.8,40.5 0.3,53.1 "/>
<polyline class="st0" points="0.3,18.1 29.1,18.1 6.8,27.4 0.3,25.9 "/>
<polyline class="st0" points="20.8,0.1 28.1,18.1 10.3,0.1 "/>
<polyline class="st0" points="0.3,10.4 7,8.9 29.1,18.1 0.3,18.1 "/>
<polyline class="st0" points="10.8,0.1 28.4,17.6 6.3,8.1 1,0.1 "/>
<polyline class="st0" points="56.8,0.1 51.4,8.4 29.9,17.3 37,0.1 "/>
<polyline class="st0" points="36.1,0.1 29.1,17 22,0.1 "/>
<polyline class="st0" points="21,0.1 28.2,17.4 6.8,8.5 1.3,0.1 "/>
<polyline class="st0" points="0.3,10.7 6.5,9.4 27.8,18.1 6.8,27.2 0.3,25.8 "/>
<polyline class="st0" points="0.3,38.3 7,28 28.1,19 19.4,40.6 0.3,53.1 "/>
<polygon class="st0" points="29,83 20.3,40.9 29.1,19.4 37.9,40.9 "/>
<polygon class="st0" points="75,64.4 38.8,40.5 30,19.2 51.4,28 "/>
<polygon class="st0" points="93.5,18.2 51.7,27.2 30.2,18.2 51.7,9.3 "/>
<g>
	<polygon class="st1" points="170.2,85 169.4,85 168.5,85 168.2,85 167.9,85 167.9,69.5 174.4,69.5 174.4,71.6 170.2,71.6 
		170.2,75.7 174.4,75.7 174.4,77.9 170.2,77.9 	"/>
	<path class="st1" d="M180.8,77.6V77c0-0.7-0.1-1.3-0.3-1.7c-0.1-0.4-0.5-0.6-1.2-0.6c-0.6,0-1,0.2-1.2,0.7c-0.2,0.4-0.3,1-0.3,1.8
		v0.5v2.5v0.6c0,0.7,0.1,1.3,0.2,1.7c0.2,0.4,0.6,0.6,1.2,0.6c0.7,0,1.1-0.2,1.2-0.8c0.1-0.5,0.2-1.2,0.2-2.2V77.6z M175.6,77.9
		c0-1.8,0.2-3.1,0.7-4c0.5-0.9,1.5-1.4,3-1.4c1.5,0,2.6,0.5,3,1.3c0.5,0.9,0.7,2.2,0.7,4v1.8c0,2.2-0.3,3.7-0.9,4.3
		c-0.6,0.7-1.5,1-2.8,1c-1.5,0-2.5-0.5-3-1.4c-0.5-0.9-0.7-2.3-0.7-4V77.9z"/>
	<path class="st1" d="M186.9,72.8v7.7v0.3c0,0.5,0,0.9,0.1,1.3c0.1,0.4,0.2,0.6,0.5,0.7c0.2,0.1,0.5,0.2,0.7,0.2
		c0.3,0,0.6-0.1,0.8-0.2c0.3-0.1,0.4-0.4,0.5-0.9c0.1-0.5,0.1-0.9,0.1-1.4v-7.7h2.2v12.1h-2.2v-0.4V84c-0.2,0.4-0.5,0.7-0.9,0.8
		c-0.4,0.2-0.8,0.3-1.3,0.3c-0.6,0-1.1-0.2-1.6-0.5c-0.5-0.3-0.8-0.8-1-1.4c0-0.3-0.1-0.6-0.1-0.9c0-0.4-0.1-0.7-0.1-1.1v-8.4H186.9
		z"/>
	<path class="st1" d="M196.8,84.9h-2.3V72.8h2.2l0,1.1c0.1-0.4,0.3-0.7,0.4-0.9c0.2-0.1,0.6-0.2,1.2-0.2h1.2v2h-2.7V84.9z"/>
	<path class="st1" d="M213.1,74.2h-2.3c0-0.3,0-0.5-0.1-0.7c0-0.2-0.1-0.5-0.2-0.7c-0.2-0.5-0.4-0.8-0.8-1c-0.2-0.1-0.4-0.2-0.5-0.2
		c-0.1-0.1-0.3-0.1-0.4-0.1c-0.2,0-0.5,0.1-0.7,0.2c-0.2,0.2-0.5,0.4-0.6,0.6c-0.1,0.3-0.2,0.6-0.2,0.9c0,0.5,0.1,0.9,0.4,1.3
		c0.3,0.4,0.8,0.7,1.5,1.2l0.8,0.5c1.4,0.9,2.3,1.6,2.8,2.3c0.5,0.6,0.7,1.5,0.7,2.7c0,0.6-0.2,1.3-0.5,1.9
		c-0.3,0.7-0.9,1.2-1.5,1.5c-0.7,0.3-1.4,0.5-2.2,0.5c-0.5,0-1,0-1.4-0.2c-0.5-0.1-1-0.4-1.5-0.7c-0.6-0.4-1-1-1.3-1.8
		c-0.3-0.8-0.4-1.7-0.4-2.6h2.3c0,0.2,0,0.5,0.1,0.7c0,0.3,0.1,0.6,0.2,0.9c0.1,0.6,0.4,1,0.8,1.2c0.4,0.2,0.8,0.3,1.2,0.3
		c0.4,0,0.7-0.1,1-0.3c0.3-0.2,0.5-0.4,0.7-0.7c0.2-0.3,0.2-0.6,0.2-1c0-0.7-0.1-1.2-0.4-1.4c-0.3-0.3-0.9-0.7-1.7-1.2l-0.8-0.6
		c-1.3-0.9-2.1-1.6-2.6-2.2c-0.4-0.6-0.6-1.5-0.6-2.6c0-0.6,0.2-1.3,0.5-1.9c0.3-0.6,0.8-1.1,1.5-1.5c0.7-0.4,1.3-0.5,2-0.5
		c0.7,0,1.4,0.2,2.1,0.6c0.7,0.4,1.2,1,1.6,1.9C212.9,72.5,213.1,73.4,213.1,74.2z"/>
	<path class="st1" d="M215.6,70.6h2.3v2.2h1.7v2h-1.7v6.5c0,0.8,0.1,1.4,0.2,1.9c0.1,0.4,0.4,1,0.9,1.7h-2.5c-0.3-0.5-0.6-1-0.7-1.5
		c0-0.2-0.1-0.4-0.1-0.7c0-0.3-0.1-0.6-0.1-0.9v-7h-1.3v-2h1.3V70.6z"/>
	<path class="st1" d="M225.8,79c-0.9,0.6-1.5,1.1-1.7,1.4c-0.2,0.3-0.4,0.6-0.4,1v0.2c0,0.3,0.1,0.6,0.1,0.8
		c0.1,0.2,0.2,0.4,0.4,0.5c0.2,0.1,0.4,0.2,0.7,0.2c0.2,0,0.5-0.1,0.8-0.2c0.3-0.1,0.5-0.5,0.6-0.9c0.1-0.4,0.1-1,0.1-1.5v-0.5v-1.3
		L225.8,79z M229.2,84.9h-2.1l-0.1-0.5l-0.1-0.8c-0.3,0.5-0.6,0.9-0.9,1.1c-0.3,0.2-0.7,0.3-1.2,0.3c-0.5,0-0.9-0.1-1.3-0.2
		c-0.4-0.1-0.8-0.4-1.1-0.8c-0.3-0.4-0.5-0.8-0.6-1.2c-0.1-0.4-0.2-0.9-0.2-1.4c0-0.4,0.1-0.9,0.2-1.5c0.1-0.5,0.4-1,0.9-1.3
		c0.2-0.2,0.5-0.3,0.7-0.5c0.3-0.2,0.6-0.3,0.9-0.5l1.7-0.8c0.4-0.3,0.7-0.6,0.7-1c0-0.3,0-0.5-0.1-0.7c-0.1-0.2-0.2-0.4-0.5-0.5
		c-0.2-0.1-0.5-0.2-0.8-0.2c-0.2,0-0.4,0-0.6,0.1c-0.3,0.1-0.5,0.3-0.7,0.6c-0.2,0.3-0.3,0.7-0.3,1.3h-2c0.2-1.2,0.4-2,0.6-2.5
		c0.3-0.5,0.6-0.8,1-1c0.2-0.1,0.3-0.1,0.5-0.2c0.2,0,0.4-0.1,0.6-0.1l1.1-0.1c0.4,0,0.8,0,1.2,0.1c0.4,0.1,0.7,0.2,1.1,0.5
		c0.4,0.3,0.7,0.8,0.8,1.4c0.2,0.7,0.2,1.4,0.2,2.3v5.9C228.8,83.7,228.9,84.4,229.2,84.9z"/>
	<path class="st1" d="M233.1,84.9h-2.3V72.8h2.2l0,1.1c0.1-0.4,0.2-0.7,0.4-0.9c0.2-0.1,0.6-0.2,1.2-0.2h1.1v2h-2.7V84.9z"/>
	<path class="st1" d="M249.8,74.4h-2.3c-0.1-0.9-0.2-1.6-0.2-1.9c-0.1-0.4-0.3-0.6-0.7-0.8c-0.4-0.2-0.8-0.3-1.1-0.3
		c-0.5,0-0.9,0.1-1.2,0.3c-0.3,0.2-0.5,0.5-0.7,0.9c-0.1,0.4-0.2,0.9-0.2,1.4v0.4v5.4c0,0.6,0,1.2,0.1,1.6c0.1,0.5,0.3,0.8,0.7,1.1
		c0.4,0.2,0.8,0.4,1.4,0.4h0.4l0.4-0.1c0.6-0.2,0.9-0.6,1-1.1c0.1-0.5,0.1-1,0.1-1.3v-1h2.3v0.6c0,0.5,0,1-0.1,1.4
		c0,0.4-0.1,0.8-0.3,1.2c-0.2,0.7-0.6,1.2-1.1,1.5c-0.6,0.4-1.1,0.6-1.5,0.7c-0.4,0.1-0.9,0.2-1.4,0.2c-0.9,0-1.7-0.2-2.3-0.5
		c-0.6-0.3-1.1-0.8-1.5-1.5c-0.4-0.6-0.5-1.6-0.5-2.8v-5.9c0-1.1,0.1-2,0.2-2.6c0.2-0.6,0.5-1.2,1.1-1.6c0.6-0.4,1.1-0.7,1.6-0.8
		c0.5-0.1,1-0.2,1.5-0.2c0.3,0,0.6,0,0.9,0.1c0.3,0,0.6,0.1,0.9,0.2c0.6,0.2,1.1,0.5,1.6,1c0.5,0.5,0.7,1.1,0.7,1.8l0.1,0.9V74.4z"
		/>
	<path class="st1" d="M256,84.9v-7.5v-0.9c0-0.2,0-0.4,0-0.5c0-0.2,0-0.4-0.1-0.7c0-0.3-0.2-0.5-0.5-0.6c-0.3-0.1-0.5-0.2-0.7-0.2
		c-0.3,0-0.5,0.1-0.8,0.2c-0.2,0.1-0.4,0.4-0.5,0.8c-0.1,0.4-0.1,0.9-0.1,1.4v0.4v7.5h-2.3V69.4h2.3v4.3c0.3-0.4,0.5-0.7,0.8-0.9
		c0.2-0.1,0.5-0.2,0.7-0.3l0.7-0.1h0.4c0.1,0,0.3,0.1,0.4,0.1c0.1,0,0.4,0.1,0.8,0.3c0.4,0.2,0.6,0.5,0.8,1c0.2,0.5,0.3,1.2,0.3,1.9
		v0.6v8.5L256,84.9z"/>
	<path class="st1" d="M264.8,79c-0.9,0.6-1.5,1.1-1.7,1.4c-0.2,0.3-0.4,0.6-0.4,1v0.2c0,0.3,0,0.6,0.1,0.8c0.1,0.2,0.2,0.4,0.4,0.5
		c0.2,0.1,0.4,0.2,0.7,0.2c0.2,0,0.5-0.1,0.8-0.2c0.3-0.1,0.5-0.5,0.6-0.9c0.1-0.4,0.1-1,0.1-1.5v-0.5v-1.3L264.8,79z M268.1,84.9
		H266l-0.1-0.5l-0.1-0.8c-0.3,0.5-0.6,0.9-0.9,1.1c-0.3,0.2-0.7,0.3-1.2,0.3c-0.5,0-0.9-0.1-1.3-0.2c-0.4-0.1-0.8-0.4-1-0.8
		c-0.3-0.4-0.5-0.8-0.6-1.2c-0.1-0.4-0.2-0.9-0.2-1.4c0-0.4,0.1-0.9,0.2-1.5c0.1-0.5,0.4-1,0.9-1.3c0.2-0.2,0.4-0.3,0.7-0.5
		c0.3-0.2,0.6-0.3,0.9-0.5l1.7-0.8c0.4-0.3,0.7-0.6,0.7-1c0-0.3,0-0.5-0.1-0.7c-0.1-0.2-0.2-0.4-0.5-0.5c-0.2-0.1-0.5-0.2-0.8-0.2
		c-0.1,0-0.4,0-0.6,0.1c-0.3,0.1-0.5,0.3-0.7,0.6c-0.2,0.3-0.3,0.7-0.3,1.3h-2c0.2-1.2,0.4-2,0.6-2.5c0.3-0.5,0.6-0.8,1-1
		c0.2-0.1,0.4-0.1,0.5-0.2c0.2,0,0.4-0.1,0.6-0.1l1.1-0.1c0.4,0,0.8,0,1.2,0.1c0.4,0.1,0.7,0.2,1.1,0.5c0.4,0.3,0.7,0.8,0.8,1.4
		c0.2,0.7,0.2,1.4,0.2,2.3v5.9C267.8,83.7,267.9,84.4,268.1,84.9z"/>
	<path class="st1" d="M272.1,84.9h-2.3V72.8h2.2l0,1.1c0.1-0.4,0.2-0.7,0.4-0.9c0.2-0.1,0.6-0.2,1.2-0.2h1.2v2h-2.7V84.9z"/>
	<path class="st1" d="M277,69.3c0.4,0,0.7,0.1,1,0.4c0.3,0.2,0.4,0.6,0.4,0.9c0,0.4-0.1,0.7-0.4,1c-0.2,0.3-0.6,0.4-1,0.4
		c-0.4,0-0.7-0.1-1-0.4c-0.3-0.3-0.4-0.6-0.4-1c0-0.4,0.1-0.7,0.4-1C276.3,69.4,276.7,69.3,277,69.3z M275.9,72.8h2.3v12.1h-2.3
		V72.8z"/>
	<path class="st1" d="M281.1,70.6h2.3v2.2h1.7v2h-1.7v6.5c0,0.8,0.1,1.4,0.2,1.9c0.1,0.4,0.4,1,0.9,1.7h-2.5c-0.3-0.5-0.6-1-0.7-1.5
		c-0.1-0.2-0.1-0.4-0.1-0.7c0-0.3-0.1-0.6-0.1-0.9v-7h-1.3v-2h1.3V70.6z"/>
	<path class="st1" d="M288.1,72.8l1.5,7.7l1.6-7.7h2.2l-2.8,12.5c-0.3,1.4-0.8,2.2-1.4,2.5c-0.6,0.3-1.6,0.5-3,0.5v-2h0.5l0.8-0.1
		c0.2,0,0.4-0.1,0.6-0.3c0.2-0.2,0.3-0.5,0.3-0.9c0-0.2,0-0.4-0.1-0.7l-0.1-0.7l-2.4-10.9H288.1z"/>
</g>
<polygon class="st1" points="202.4,14.4 196.2,18.9 198.6,26.2 192.4,21.7 186.2,26.2 188.6,18.9 182.4,14.4 190.1,14.4 192.4,7 
	194.8,14.4 "/>
<polygon class="st1" points="227.5,14.4 221.3,18.9 223.7,26.2 217.5,21.7 211.3,26.2 213.6,18.9 207.4,14.4 215.1,14.4 217.5,7 
	219.8,14.4 "/>
<polygon class="st1" points="253.3,14.4 247.1,18.9 249.5,26.2 243.3,21.7 237.1,26.2 239.4,18.9 233.2,14.4 240.9,14.4 243.3,7 
	245.6,14.4 "/>
<polygon class="st1" points="278.2,14.4 272.1,18.9 274.4,26.2 268.2,21.7 262,26.2 264.4,18.9 258.2,14.4 265.9,14.4 268.2,7 
	270.6,14.4 "/>
<line class="st2" x1="108.8" y1="34.3" x2="351" y2="34.3"/>
<line class="st2" x1="108.8" y1="63" x2="351" y2="63"/>
<g>
	<path class="st1" d="M121.6,45.5h-3.9c-0.1-1.2-0.2-2-0.4-2.4c-0.1-0.4-0.4-0.6-0.9-0.8c-0.5-0.2-1-0.3-1.5-0.3
		c-0.6,0-1.1,0.1-1.6,0.3c-0.4,0.2-0.7,0.6-0.9,1c-0.1,0.5-0.2,1-0.2,1.6v0.4v6.3c0,0.7,0,1.3,0.2,1.8c0.1,0.5,0.4,0.9,0.9,1.2
		c0.5,0.3,1.1,0.4,1.8,0.4h0.5l0.5-0.1c0.8-0.2,1.2-0.7,1.3-1.2c0.1-0.6,0.2-1.1,0.2-1.4v-1.4h4v1c0,0.6,0,1.2-0.1,1.7
		c-0.1,0.5-0.2,0.9-0.4,1.2c-0.3,1-0.9,1.8-1.8,2.2c-0.9,0.5-1.6,0.7-2.3,0.9c-0.7,0.1-1.4,0.2-2.1,0.2c-1.4,0-2.6-0.2-3.5-0.6
		c-0.9-0.4-1.7-1-2.3-1.8c-0.6-0.8-0.9-1.9-0.9-3.4v-7c0-1.3,0.1-2.3,0.4-3.1c0.2-0.8,0.8-1.4,1.7-1.9c0.9-0.5,1.7-0.8,2.4-1
		c0.7-0.1,1.5-0.2,2.3-0.2c0.5,0,1,0,1.4,0.1c0.4,0,0.9,0.1,1.4,0.3c0.9,0.2,1.7,0.6,2.5,1.2c0.8,0.6,1.1,1.4,1.1,2.2l0.1,1V45.5z"
		/>
	<polygon class="st1" points="125.4,39.2 129.3,39.2 129.3,46.4 134.4,46.4 134.4,39.2 138.3,39.2 138.3,57.8 134.4,57.8 
		134.4,49.5 129.3,49.5 129.3,57.8 125.4,57.8 	"/>
	<path class="st1" d="M146.2,50.3h2.8l-1.5-7.9L146.2,50.3z M144.7,39.2h5.9l4.2,18.6h-4l-1.1-4.5h-3.9l-1,4.5h-4L144.7,39.2z"/>
	<path class="st1" d="M161.5,47.3h2.5c0.4,0,0.7-0.1,1-0.2c0.3-0.1,0.6-0.4,0.9-0.9c0.2-0.3,0.3-0.8,0.3-1.3c0-0.7-0.2-1.3-0.5-1.6
		c-0.3-0.4-0.8-0.6-1.4-0.8c-0.3-0.1-0.7-0.1-1.1-0.2c-0.4,0-0.8-0.1-1.1-0.1h-0.6h-0.1V47.3z M164,50.4h-2.4v7.4h-3.9V39.2h4.3
		c1.8,0,3.3,0.1,4.5,0.4c1.2,0.2,2.1,0.8,2.6,1.5c0.3,0.4,0.5,0.8,0.7,1.1c0.2,0.3,0.3,0.6,0.4,1c0.1,0.3,0.2,0.6,0.2,0.9
		c0,0.3,0.1,0.6,0.1,0.9c0,0.6-0.1,1.2-0.3,1.7c-0.2,0.5-0.5,1-0.9,1.4l-0.4,0.6c-0.1,0.1-0.2,0.2-0.5,0.3c0.7,0.5,1.2,1.1,1.4,1.8
		c0.2,0.7,0.4,1.6,0.4,2.7v2.1c0,0.7,0.1,1.5,0.3,2.3h-4.3c-0.1-0.3-0.1-0.7-0.2-1.1c-0.1-0.4-0.1-0.8-0.1-1l-0.1-2.1
		c0-0.9-0.1-1.7-0.4-2.3C165.1,50.7,164.6,50.4,164,50.4z"/>
	<rect x="174.3" y="39.2" class="st1" width="3.9" height="18.6"/>
	<polygon class="st1" points="181,42.3 181,39.2 193.2,39.2 193.2,42.3 189.1,42.3 189.1,57.9 185.2,57.9 185.2,42.3 	"/>
	<polygon class="st1" points="195.5,39.2 199.7,39.2 202.8,46.8 205.8,39.2 210,39.2 204.7,51.2 204.7,57.8 200.8,57.8 200.8,51.2 	
		"/>
	<polygon class="st1" points="224.6,45.6 224.6,57.8 220.6,57.8 220.6,39.2 225,39.2 230.4,51.4 230.4,39.2 234.3,39.2 234.3,57.8 
		230,57.8 	"/>
	<path class="st1" d="M242.5,50.3h2.8l-1.5-7.9L242.5,50.3z M241,39.2h5.9l4.2,18.6H247l-1.1-4.5h-3.9l-1,4.5h-4L241,39.2z"/>
	<polygon class="st1" points="252,39.2 256.3,39.2 259.3,53.2 262.3,39.2 266.5,39.2 262,57.8 256.7,57.8 	"/>
	<rect x="269.2" y="39.2" class="st1" width="3.9" height="18.6"/>
	<path class="st1" d="M286,50.4h-3.1v-3h6.8v10.5l-2.8-1.7c-0.2,0.4-0.6,0.8-1.1,1.2c-0.6,0.4-1.2,0.6-1.8,0.7l-1.1,0.1
		c-0.6,0-1.1,0-1.6-0.1c-0.4-0.1-1.1-0.4-2-0.7c-0.9-0.4-1.5-1-2-1.9c-0.4-0.9-0.6-1.9-0.6-3.1v-7c0-1.3,0.1-2.3,0.4-3.1
		c0.2-0.8,0.8-1.4,1.6-1.9c0.9-0.5,1.7-0.8,2.5-1c0.3-0.1,0.7-0.1,1.1-0.2s0.8-0.1,1.1-0.1c0.9,0,2,0.2,3.4,0.6
		c1.3,0.4,2.2,1.1,2.6,2.1c0.2,0.5,0.3,0.9,0.4,1.3c0.1,0.3,0.1,0.6,0.1,0.9l0.1,1.7H286c0-0.9-0.1-1.7-0.2-2.2
		c-0.2-0.5-0.5-0.9-1-1c-0.5-0.2-1-0.3-1.5-0.3c-0.6,0-1.2,0.1-1.6,0.3c-0.4,0.2-0.7,0.6-0.9,1c-0.2,0.5-0.2,1-0.2,1.7v0.4v6.3
		c0,0.8,0,1.4,0.2,1.9c0.1,0.5,0.4,0.9,0.9,1.1c0.5,0.3,1.1,0.4,1.8,0.4c0.4,0,0.8-0.1,1.4-0.3c0.5-0.2,0.9-0.5,1-1.1
		c0.1-0.6,0.2-1.1,0.2-1.5v-1.1V50.4z"/>
	<path class="st1" d="M298.2,50.3h2.8l-1.5-7.9L298.2,50.3z M296.6,39.2h5.9l4.2,18.6h-4.1l-1.1-4.5h-3.9l-1,4.5h-4L296.6,39.2z"/>
	<polygon class="st1" points="307.2,42.3 307.2,39.2 319.4,39.2 319.4,42.3 315.4,42.3 315.4,57.9 311.4,57.9 311.4,42.3 	"/>
	<path class="st1" d="M331.4,44.8c0-1-0.2-1.7-0.6-2.1c-0.4-0.4-1.1-0.7-2.1-0.7c-1.1,0-1.8,0.2-2.1,0.7c-0.4,0.4-0.5,1.1-0.5,2.1
		v7.4c0,1,0.2,1.7,0.5,2.2c0.4,0.4,1.1,0.6,2.1,0.6c1,0,1.7-0.2,2.1-0.7c0.4-0.5,0.6-1.2,0.6-2.1V44.8z M335.3,51.4
		c0,2.1-0.4,3.7-1.3,4.9c-0.9,1.2-2.7,1.8-5.3,1.8c-2.7,0-4.5-0.6-5.3-1.8c-0.9-1.2-1.3-2.8-1.3-4.9v-5.8c0-2.6,0.6-4.4,1.8-5.3
		c1.2-0.9,2.8-1.3,4.9-1.3c2.6,0,4.4,0.6,5.3,1.8c0.9,1.2,1.4,2.8,1.4,4.9V51.4z"/>
	<path class="st1" d="M342.9,47.3h2.5c0.4,0,0.7-0.1,1-0.2c0.3-0.1,0.6-0.4,0.8-0.9c0.2-0.3,0.3-0.8,0.3-1.3c0-0.7-0.1-1.3-0.5-1.6
		c-0.3-0.4-0.8-0.6-1.4-0.8c-0.3-0.1-0.7-0.1-1.1-0.2c-0.4,0-0.8-0.1-1.1-0.1H343h-0.1V47.3z M345.4,50.4h-2.4v7.4H339V39.2h4.3
		c1.8,0,3.4,0.1,4.5,0.4c1.2,0.2,2.1,0.8,2.6,1.5c0.3,0.4,0.5,0.8,0.7,1.1c0.2,0.3,0.3,0.6,0.4,1c0.1,0.3,0.1,0.6,0.2,0.9
		c0,0.3,0.1,0.6,0.1,0.9c0,0.6-0.1,1.2-0.3,1.7c-0.2,0.5-0.5,1-0.9,1.4l-0.4,0.6c-0.1,0.1-0.2,0.2-0.5,0.3c0.7,0.5,1.1,1.1,1.4,1.8
		c0.2,0.7,0.4,1.6,0.4,2.7v2.1c0,0.7,0.1,1.5,0.3,2.3h-4.3c-0.1-0.3-0.1-0.7-0.2-1.1c-0.1-0.4-0.1-0.8-0.1-1l-0.1-2.1
		c0-0.9-0.1-1.7-0.4-2.3C346.5,50.7,346,50.4,345.4,50.4z"/>
</g>
<rect x="0.2" y="0.1" class="st2" width="360" height="92.4"/>
</svg>
