<?xml version="1.0" encoding="UTF-8" standalone="no"?>
<!-- Created with Inkscape (http://www.inkscape.org/) -->

<svg
   xmlns:dc="http://purl.org/dc/elements/1.1/"
   xmlns:cc="http://creativecommons.org/ns#"
   xmlns:rdf="http://www.w3.org/1999/02/22-rdf-syntax-ns#"
   xmlns:svg="http://www.w3.org/2000/svg"
   xmlns="http://www.w3.org/2000/svg"
   xmlns:sodipodi="http://sodipodi.sourceforge.net/DTD/sodipodi-0.dtd"
   xmlns:inkscape="http://www.inkscape.org/namespaces/inkscape"
   width="94.402mm"
   height="28.508194mm"
   viewBox="0 0 334.49528 101.01328"
   id="svg2"
   version="1.1"
   inkscape:version="0.91 r13725"
   sodipodi:docname="signauture.svg">
  <defs
     id="defs4" />
  <sodipodi:namedview
     id="base"
     pagecolor="#ffffff"
     bordercolor="#666666"
     borderopacity="1.0"
     inkscape:pageopacity="0.0"
     inkscape:pageshadow="2"
     inkscape:zoom="2.8"
     inkscape:cx="180.31207"
     inkscape:cy="72.359205"
     inkscape:document-units="px"
     inkscape:current-layer="layer1"
     showgrid="false"
     inkscape:window-width="1280"
     inkscape:window-height="962"
     inkscape:window-x="-8"
     inkscape:window-y="-8"
     inkscape:window-maximized="1"
     fit-margin-top="0"
     fit-margin-left="0"
     fit-margin-right="0"
     fit-margin-bottom="0" />
  <metadata
     id="metadata7">
    <rdf:RDF>
      <cc:Work
         rdf:about="">
        <dc:format>image/svg+xml</dc:format>
        <dc:type
           rdf:resource="http://purl.org/dc/dcmitype/StillImage" />
        <dc:title></dc:title>
      </cc:Work>
    </rdf:RDF>
  </metadata>
  <g
     inkscape:label="Layer 1"
     inkscape:groupmode="layer"
     id="layer1"
     transform="translate(-469.07609,-930.47714)">
    <path
       style="fill:#000000"
       d="m 469.77352,1029.6259 c -2.58047,-3.1093 2.08009,-8.0387 12.64837,-13.378 13.39176,-6.7657 21.4491,-8.4393 40.63061,-8.4393 l 16.45583,0 -4.75339,-14.68749 c -2.61436,-8.07813 -6.05953,-18.90625 -7.65595,-24.0625 -2.31126,-7.46516 -3.44251,-9.45205 -5.55305,-9.75321 -2.05408,-0.2931 -3.07714,0.69135 -4.5466,4.375 -2.07566,5.20328 -5.7364,22.1922 -6.27649,29.12821 -0.36572,4.6968 -2.43943,5.94706 -3.21181,1.93643 -0.77346,-4.01628 4.95662,-28.90241 7.8373,-34.03792 3.24922,-5.7925 7.38272,-6.37484 10.98662,-1.54782 1.32458,1.77413 4.04402,9.36788 6.0432,16.875 1.99919,7.50712 5.43546,18.34026 7.63616,24.0736 3.78024,9.8485 4.17891,10.3856 7.21669,9.7224 39.70865,-8.6687 57.12128,-9.0069 80.55706,-1.5646 l 9.26326,2.9416 0.74629,-4.5118 c 0.41046,-2.4816 0.75248,-13.19018 0.76005,-23.79697 l 0.0138,-19.28508 -6.31106,9.28508 c -3.47108,5.10679 -7.7212,10.5507 -9.4447,12.09758 -6.34393,5.69378 -11.18394,1.89375 -9.08436,-7.1324 0.56676,-2.43656 1.02742,-4.9926 1.02368,-5.6801 -0.004,-0.6875 -4.66967,3.67187 -10.36873,9.6875 -5.69907,6.01562 -10.96617,10.9375 -11.70465,10.9375 -2.11642,0 -2.75299,-3.05791 -1.65243,-7.93768 l 1.01289,-4.49103 -7.04782,6.05677 c -3.8763,3.33122 -8.17282,6.61417 -9.54782,7.29544 -3.0263,1.49945 -5.625,0.74864 -5.625,-1.62514 0,-1.20613 -1.82953,-0.58057 -5.9375,2.03017 -3.73797,2.3756 -6.91439,3.53054 -8.57456,3.11769 -1.67673,-0.41697 -3.45432,0.24727 -4.88124,1.824 -2.3348,2.57997 -8.1067,3.43347 -8.1067,1.19887 0,-0.70455 1.38328,-1.80689 3.07394,-2.44968 1.69067,-0.64279 4.57792,-3.44137 6.41611,-6.21906 4.10205,-6.19862 7.43282,-6.85221 6.31002,-1.23821 -0.87563,4.37814 -0.41311,4.24735 7.5353,-2.13099 6.2271,-4.99704 7.91463,-5.22223 7.91463,-1.05615 0,1.71875 0.42187,3.10632 0.9375,3.08349 0.51562,-0.0228 4.85034,-3.40604 9.63271,-7.51826 4.78236,-4.11222 9.28236,-7.26741 10,-7.01154 0.71764,0.25587 1.19815,2.79681 1.0678,5.64655 l -0.23699,5.18133 10.06057,-10.62828 c 5.5333,-5.84556 10.80987,-10.62829 11.72571,-10.62829 2.67001,0 3.25776,2.11007 1.994,7.15866 -2.47339,9.8809 -2.69746,11.59134 -1.51848,11.59134 2.06518,0 8.67832,-7.71553 14.73177,-17.1875 5.78587,-9.0533 8.1669,-10.81122 9.59667,-7.08527 0.41732,1.08748 0.74532,11.35311 0.72892,22.8125 -0.0285,19.88326 -1.01837,29.25846 -3.33383,31.57396 -0.58189,0.5818 -6.39124,-0.703 -12.90966,-2.8553 -10.32393,-3.4088 -14.05658,-3.9857 -28.95624,-4.4754 -15.0345,-0.4941 -19.08835,-0.1565 -33.4965,2.7901 -19.04318,3.8943 -27.91708,6.7492 -37.11603,11.9408 -7.54391,4.2575 -7.90792,4.3523 -7.90792,2.0598 0,-1.8222 9.54177,-7.4304 17.08558,-10.0421 4.62723,-1.602 4.49196,-1.6447 -7.46584,-2.3582 -20.36419,-1.2149 -35.26491,1.9545 -48.05582,10.2217 -6.18334,3.9965 -7.49788,5.4184 -6.94912,7.5169 0.79593,3.0436 -1.12451,3.4124 -3.41271,0.6553 z m 275.52532,-26.2262 c -1.73742,-1.7375 -3.82122,-3.0771 -4.63069,-2.9769 -3.96836,0.4908 -5.67037,-0.4207 -7.06296,-3.78268 l -1.51954,-3.66849 -4.69929,2.44941 c -5.12083,2.66913 -8.81493,2.12072 -8.81493,-1.30862 0,-2.94521 6.41136,-11.6084 11.01931,-14.88955 7.64373,-5.44281 7.1008,-2.39151 -1.01931,5.7286 -8.5488,8.5488 -8.56814,12.30352 -0.031,6.00496 4.78011,-3.52665 7.12938,-2.65544 7.76924,2.88115 0.2718,2.35183 1.11091,3.34603 2.82407,3.34603 2.09291,0 2.6417,-1.41327 3.88311,-10 3.13323,-21.67224 10.89529,-41.7106 20.10638,-51.90617 4.899,-5.4226 6.74576,-5.99264 9.73385,-3.00454 2.60084,2.60083 2.63436,17.38584 0.0622,27.46059 -3.29765,12.9167 -8.50906,21.85506 -18.19351,31.20461 l -8.93179,8.62292 2.90445,2.35188 c 4.41916,3.5784 16.12295,0.5671 16.12295,-4.14818 0,-2.92486 11.92921,-16.20611 14.55633,-16.20611 2.47865,0 2.09488,1.9952 -1.59468,8.29098 l -3.28836,5.61115 5.92316,-3.75635 c 7.66503,-4.86102 12.8099,-6.02515 15.35963,-3.47542 1.7396,1.7396 1.73446,2.22766 -0.0521,4.95428 -1.08997,1.66352 -2.90446,3.94726 -4.03217,5.07497 -2.51227,2.51228 -2.27247,2.52188 4.37818,0.17539 6.05168,-2.13515 7.5,-2.30056 7.5,-0.85651 0,2.9387 -15.1804,7.3347 -20.61678,5.9703 -4.30804,-1.0813 -3.92494,-2.4503 1.20475,-4.3052 2.38587,-0.86274 5.57912,-3.31169 7.09612,-5.44212 l 2.75817,-3.87349 -3.65863,0.89883 c -2.01224,0.49435 -7.26295,3.23542 -11.66824,6.09126 -15.183,9.84272 -27.61439,12.25652 -33.38797,6.48302 z m 10.81949,-17.75425 c 7.12777,-8.01452 12.25349,-19.30096 14.46147,-31.8431 1.74609,-9.91837 1.38639,-19.74374 -0.7228,-19.74374 -2.26531,0 -9.93887,10.17783 -13.74837,18.23516 -4.64291,9.82005 -10.0372,29.68834 -10.0372,36.9691 0,4.40875 0.23071,4.76022 2.37234,3.61406 1.30479,-0.6983 4.75833,-3.95247 7.67456,-7.23148 z m -63.5986,7.75634 c -1.39125,-1.76869 -3.13583,-7.0263 -3.96744,-11.95662 -0.81635,-4.8399 -1.65537,-8.62246 -1.86449,-8.40569 -0.20911,0.21677 -2.86489,3.76913 -5.90174,7.89413 -5.81114,7.89337 -10.72269,11.46498 -14.02407,10.19813 -3.04033,-1.16669 -4.62537,-6.85627 -3.68108,-13.21346 l 0.85182,-5.73467 -6.11815,7.77156 c -3.36499,4.27436 -6.55768,7.78999 -7.09488,7.8125 -2.49953,0.10477 -2.11886,-4.24632 0.84388,-9.64545 1.79231,-3.26624 6.357,-11.98549 10.14375,-19.37611 3.78674,-7.39063 7.44279,-13.4375 8.12454,-13.4375 1.88561,0 1.497,5.97363 -1.26044,19.375 -3.24836,15.78731 -3.32618,23.125 -0.24521,23.125 2.6362,0 8.23741,-5.67729 13.87405,-14.0625 2.1952,-3.26563 4.50695,-5.9375 5.13723,-5.9375 1.82677,0 3.33485,3.87145 4.22098,10.83576 1.18671,9.32661 3.13269,14.16424 5.69769,14.16424 1.20458,0 4.47247,-1.6533 7.26197,-3.674 9.59323,-6.9493 16.55329,-27.2623 16.55329,-48.31096 0,-5.09577 0.50233,-9.26504 1.11626,-9.26504 5.20849,0 1.92755,31.49103 -4.7535,45.625 -4.01282,8.48925 -10.0825,15.1938 -16.01011,17.68472 -5.42682,2.28047 -6.03586,2.18016 -8.90435,-1.46654 z m -28.86215,-27.91191 c 6.20947,-13.03309 3.55854,-10.98917 -3.54005,2.72945 -4.42158,8.54507 -5.54035,11.4846 -3.41178,8.96428 1.74192,-2.0625 4.87024,-7.32468 6.95183,-11.69373 z m -118.00282,-4.7646 c -1.14529,-1.14529 -1.05383,-5.41667 0.11599,-5.41667 1.39606,0 4.03151,4.6025 3.14378,5.49024 -0.99174,0.99174 -2.22223,0.96397 -3.25977,-0.0736 z m 150.00001,-11.25 c -1.29672,-1.29672 -0.9798,-5.41667 0.41666,-5.41667 0.6875,0 1.25,1.40625 1.25,3.125 0,3.27257 -0.28874,3.66959 -1.66666,2.29167 z"
       id="path3347"
       inkscape:connector-curvature="0" />
  </g>
</svg>
