<?xml version="1.0" encoding="utf-8"?>
<!-- Generator: Adobe Illustrator 21.0.0, SVG Export Plug-In . SVG Version: 6.00 Build 0)  -->
<svg version="1.1" id="Layer_1" xmlns="http://www.w3.org/2000/svg" xmlns:xlink="http://www.w3.org/1999/xlink" x="0px" y="0px"
	 viewBox="0 0 176.2 34" style="enable-background:new 0 0 176.2 34;" xml:space="preserve">
<style type="text/css">
	.st0{fill:none;stroke:#000000;stroke-miterlimit:10;}
	.st1{fill:none;stroke:#000000;stroke-linecap:round;stroke-linejoin:round;stroke-miterlimit:10;}
</style>
<g>
	<path class="st0" d="M2.6,8C2,9,2.4,10.2,2.7,11.2c2,7,2.6,14.4,1.7,21.7"/>
	<path class="st0" d="M66.4,4.2C67.2,4.9,68,4.4,68,5.1"/>
	<path class="st1" d="M99.3,31.5c2.1-2.4,2.8-5.6,2.8-8.8c-0.1-3.1,0-6.2-0.3-9.4c-0.3-3.6-0.8-8.4-1-12.2
		c1.6,6.6,1.5,14.2,3.1,20.8c0.1,0.4,0.2,0.8,0.6,0.8c0.4,0.1,0.7-0.4,0.9-0.8c1.8-4.8,4.3-9.9,6.1-14.7c1.2,6.4-2.1,12.2,0.1,18.4
		c0.1,0.4,0.4,0.9,0.8,0.9c0.4,0,0.7-0.2,0.9-0.5c0.7-0.8,4.8-4.8,6.4-6.5c1.6-1.7,3-3.7,2.9-6c-3.5,2.1-5.7,6.3-5.3,10.4
		c0,0.5,0.3,1.1,0.8,1.1c0.2,0,0.4-0.2,0.5-0.4c0.9-1.1,1.7-2.4,2.1-3.7c-0.2,1.6,0.7,3,1.5,4.4c0.6,1,1.5,2.1,2.7,1.9
		c0.7-0.1,1.2-0.6,1.7-1.1c2.4-2.6,4.8-5.2,6.2-8.5c1.3-3.2,1.4-7.2-0.7-10c-1.6,2.7-1.8,6-1.6,9.1c0.2,3.1,0.8,6.2,0.8,9.4
		c2.4-3.6,3.1-8.4,6.5-11.1c0.1,1.6-0.3,3.1-0.3,4.7c-0.1,1.6,0.2,3.3,1.4,4.3c1.4,1.3,3.7,1,5.3-0.1c1.6-1.1,2.5-2.9,3.2-4.6
		c0.6-1.4,1.1-2.8,1-4.3c0-0.5-0.3-1.1-0.8-1c-0.2,0-0.3,0.2-0.5,0.3c-1.7,1.7-2.5,4.1-3.1,6.4c-0.3,1.3-0.4,3.1,0.9,3.6
		c0.7,0.3,2.7,0.5,3.3,0c2.5-1.9,4.6-4.3,6.2-7c-0.2,3-0.7,6-1.6,8.9c0.1-4.2,2.4-8.3,5.9-10.5c0.6-0.4,1.4-0.8,2.1-0.4
		c0.3,0.1,0.5,0.3,0.6,0.6c1,1.4,0.6,3.6-0.8,4.5c-1.4,0.9-3.6,0.4-4.5-1.1c-0.4,2.2,1.2,4.2,2.8,5.7c2.2,2.1,4.8,4.1,7.9,4.7
		s6.6-0.5,8-3.3"/>
	<path class="st1" d="M15.8,9.3c-3.8,1.5-6.9,4.2-10,6.9c-1.9,1.6-3.9,3.7-3.6,6.2c0.2,1.5,1.3,2.8,2.7,3.4c1.4,0.7,3.6,1.5,5.1,1.4
		c5-0.3,9.3-4.2,11-8.9"/>
	<path class="st1" d="M21,18.3c0,0.1,0.5-2,0.4-2.1c0-0.1,0-0.2,0.1-0.3c0.3-0.5,0.3-1.1,0-1.5s-0.8-0.8-1.3-0.8
		c-1-0.1-1.8,0.8-2.4,1.7c-1.2,1.8-2.2,3.7-2.9,5.6c-0.2,0.6-0.2,1.3-0.3,1.9c-0.1,1.3,1.6,1.8,2.1,1.7"/>
	<path class="st1" d="M20.9,19.1c-0.4,1.9,0,5.7,1.1,7.3c0.5,0.8,1.4,1.6,2.3,1.6c1.6,0.1,2.6-1.5,3.4-2.8C30.3,20,32.1,14.6,33.2,9
		c0.1-0.8,0.1-1.8-0.7-1.9c-1.6,5.8-0.5,12,0.7,17.9"/>
	<path class="st1" d="M25.1,20c3.5,2.1,8.3,1.5,11.5-1s5-6.7,5-10.8c0-0.5,0-1-0.3-1.3c-0.3-0.4-0.8-0.6-1.2-0.3
		c-0.2,0.1-0.3,0.3-0.4,0.4c-1.4,2.5-0.8,5.5-0.6,8.4c0.3,3,0.2,6-0.2,9c0.8,0.1,1.3-0.8,1.5-1.5c1-2.7,2-5.4,3-8.1
		c-0.3,0.6-0.4,1.3-0.4,1.9c-0.1,1.5-0.1,3.1,0.4,4.5c0.5,1.4,1.7,2.7,3.2,3c1.6,0.3,3.2-0.6,4.4-1.7c2.3-2,3.8-5.2,2.8-8
		c-0.1-0.4-0.4-0.7-0.8-0.8c-0.2,0-0.4,0.1-0.5,0.2c-1.3,0.8-2.7,1.7-3.3,3.2c-0.5,1.4-0.2,2.9,0.2,4.3c0.3,0.9,0.6,1.8,1.4,2.3
		c1.2,0.8,2.9,0.3,3.9-0.7c1-1,1.4-2.4,1.9-3.8c0.5-1.7,1-3.3,1.5-5c0.4,0.7,1.2,1.1,1.6,1.7c1,1.6-0.7,3.6-0.8,5.5
		c-0.1,1.9,1.7,3.6,3.6,3.8s3.8-0.9,5-2.4c1.2-1.5,1.8-3.4,2.2-5.3c-0.1,2.6-0.5,5.2-1.2,7.7"/>
	<path class="st1" d="M68.8,23.7c0.5-1.7,3.2-5,4.7-5.8c0.2,2.6-0.1,5.2-0.7,7.7c-0.1-0.6,0.4-1.2,1.1-1.4c0.6-0.1,1.3,0.1,1.9,0.2
		c1.7,0.4,3.5,0.3,5.2,0.3c1.1,0,2.3-0.1,3.3-0.7c1.9-1.1,2.3-3.7,2.5-5.9c0.1-0.9,0.1-2-0.6-2.7c-0.7-0.6-1.7-0.5-2.5-0.1
		c-1.8,0.9-2.6,3.4-1.7,5.2c0.7,1.3,2,2.1,3.2,2.8c1.2,0.7,2.3,1.4,3.6,1.7c1.3,0.4,2.7,0.4,3.9-0.3"/>
</g>
</svg>
