<?xml version="1.0" encoding="utf-8"?>
<!-- Generator: Adobe Illustrator 21.0.0, SVG Export Plug-In . SVG Version: 6.00 Build 0)  -->
<svg version="1.1" id="Layer_1" xmlns="http://www.w3.org/2000/svg" xmlns:xlink="http://www.w3.org/1999/xlink" x="0px" y="0px"
	 width="500px" height="366px" viewBox="0 0 500 366" style="enable-background:new 0 0 500 366;" xml:space="preserve">
<style type="text/css">
	.st0{fill:url(#SVGID_1_);}
	.st1{fill:url(#SVGID_2_);}
	.st2{fill:url(#SVGID_3_);}
	.st3{fill:url(#SVGID_4_);}
	.st4{fill:url(#SVGID_5_);}
	.st5{fill:url(#SVGID_6_);}
	.st6{fill:url(#SVGID_7_);}
	.st7{fill:url(#SVGID_8_);}
	.st8{fill:url(#SVGID_9_);}
	.st9{fill:url(#SVGID_10_);}
	.st10{fill:url(#SVGID_11_);}
	.st11{fill:url(#SVGID_12_);}
	.st12{fill:url(#SVGID_13_);}
	.st13{fill:url(#SVGID_14_);}
	.st14{fill:url(#SVGID_15_);}
	.st15{fill:url(#SVGID_16_);}
	.st16{fill:url(#SVGID_17_);}
	.st17{fill:url(#SVGID_18_);}
	.st18{fill:url(#SVGID_19_);}
	.st19{fill:#FFFFFF;}
</style>
<g>
	<g>
		
			<linearGradient id="SVGID_1_" gradientUnits="userSpaceOnUse" x1="3.0254" y1="306.5121" x2="498" y2="306.5121" gradientTransform="matrix(1 0 0 1 0 -1)">
			<stop  offset="0" style="stop-color:#FFFFFF"/>
			<stop  offset="1" style="stop-color:#000000"/>
		</linearGradient>
		<path class="st0" d="M29,281.6l10.5-34.1h13.8l10.4,34.1l11.8-34.1h14.3l-20.7,59.2h-9.8l-13-41.2l-12.9,41.2h-9.8L3,247.5h14.3
			L29,281.6z"/>
		
			<linearGradient id="SVGID_2_" gradientUnits="userSpaceOnUse" x1="3.0254" y1="306.5121" x2="498" y2="306.5121" gradientTransform="matrix(1 0 0 1 0 -1)">
			<stop  offset="0" style="stop-color:#FFFFFF"/>
			<stop  offset="1" style="stop-color:#000000"/>
		</linearGradient>
		<path class="st1" d="M96.9,247.5h13.2v59.2H96.9V247.5z"/>
		
			<linearGradient id="SVGID_3_" gradientUnits="userSpaceOnUse" x1="3.0254" y1="306.5121" x2="498" y2="306.5121" gradientTransform="matrix(1 0 0 1 0 -1)">
			<stop  offset="0" style="stop-color:#FFFFFF"/>
			<stop  offset="1" style="stop-color:#000000"/>
		</linearGradient>
		<path class="st2" d="M124.7,247.5h13.2v24.3l22.4-24.3h16.3l-23.6,26.2c2,2.8,5.8,8.1,11.3,15.8c5.5,7.7,9.6,13.5,12.3,17.2h-15.4
			l-17.4-23.4l-5.9,6.6v16.8h-13.2V247.5z"/>
		
			<linearGradient id="SVGID_4_" gradientUnits="userSpaceOnUse" x1="3.0254" y1="306.5121" x2="498" y2="306.5121" gradientTransform="matrix(1 0 0 1 0 -1)">
			<stop  offset="0" style="stop-color:#FFFFFF"/>
			<stop  offset="1" style="stop-color:#000000"/>
		</linearGradient>
		<path class="st3" d="M184.8,247.5H198v59.2h-13.2V247.5z"/>
		
			<linearGradient id="SVGID_5_" gradientUnits="userSpaceOnUse" x1="3.0254" y1="306.5121" x2="498" y2="306.5121" gradientTransform="matrix(1 0 0 1 0 -1)">
			<stop  offset="0" style="stop-color:#FFFFFF"/>
			<stop  offset="1" style="stop-color:#000000"/>
		</linearGradient>
		<path class="st4" d="M265.6,269.5l-16,32.4h-7.9l-15.9-32.4v37.3h-13.2v-59.2h17.9l15.2,32.5l15.3-32.5h17.8v59.2h-13.2V269.5z"/>
		
			<linearGradient id="SVGID_6_" gradientUnits="userSpaceOnUse" x1="3.0254" y1="306.5121" x2="498" y2="306.5121" gradientTransform="matrix(1 0 0 1 0 -1)">
			<stop  offset="0" style="stop-color:#FFFFFF"/>
			<stop  offset="1" style="stop-color:#000000"/>
		</linearGradient>
		<path class="st5" d="M336.1,247.5v11.8h-29.5v12.2h26.5v11.3h-26.5v12.3H337v11.7h-43.6v-59.2H336.1z"/>
		
			<linearGradient id="SVGID_7_" gradientUnits="userSpaceOnUse" x1="3.0254" y1="306.5121" x2="498" y2="306.5121" gradientTransform="matrix(1 0 0 1 0 -1)">
			<stop  offset="0" style="stop-color:#FFFFFF"/>
			<stop  offset="1" style="stop-color:#000000"/>
		</linearGradient>
		<path class="st6" d="M394.1,255.3c5.6,5.2,8.5,12.4,8.5,21.6c0,9.2-2.8,16.5-8.3,21.9c-5.5,5.4-13.9,8-25.2,8h-20.2v-59.2h20.9
			C380.3,247.5,388.4,250.1,394.1,255.3z M384.4,290.5c3.2-3,4.9-7.5,4.9-13.3c0-5.8-1.6-10.3-4.9-13.4c-3.2-3.1-8.2-4.7-15-4.7H362
			v36h8.4C376.5,295.1,381.1,293.5,384.4,290.5z"/>
		
			<linearGradient id="SVGID_8_" gradientUnits="userSpaceOnUse" x1="3.0254" y1="306.5121" x2="498" y2="306.5121" gradientTransform="matrix(1 0 0 1 0 -1)">
			<stop  offset="0" style="stop-color:#FFFFFF"/>
			<stop  offset="1" style="stop-color:#000000"/>
		</linearGradient>
		<path class="st7" d="M414,247.5h13.2v59.2H414V247.5z"/>
		
			<linearGradient id="SVGID_9_" gradientUnits="userSpaceOnUse" x1="3.0254" y1="306.5121" x2="498" y2="306.5121" gradientTransform="matrix(1 0 0 1 0 -1)">
			<stop  offset="0" style="stop-color:#FFFFFF"/>
			<stop  offset="1" style="stop-color:#000000"/>
		</linearGradient>
		<path class="st8" d="M483.9,306.8l-5.5-12.8h-24.8l-5.5,12.8H434l25.6-59.2h12.8l25.6,59.2H483.9z M466.1,265.2l-7.5,17.2h14.8
			L466.1,265.2z"/>
		
			<linearGradient id="SVGID_10_" gradientUnits="userSpaceOnUse" x1="3.0254" y1="306.5121" x2="498" y2="306.5121" gradientTransform="matrix(1 0 0 1 0 -1)">
			<stop  offset="0" style="stop-color:#FFFFFF"/>
			<stop  offset="1" style="stop-color:#000000"/>
		</linearGradient>
		<path class="st9" d="M61.1,342.4v6.8H72v3.8H61.1v10.2h-4.2v-24.7h16.4l0,3.9H61.1z"/>
		
			<linearGradient id="SVGID_11_" gradientUnits="userSpaceOnUse" x1="3.0254" y1="306.5121" x2="498" y2="306.5121" gradientTransform="matrix(1 0 0 1 0 -1)">
			<stop  offset="0" style="stop-color:#FFFFFF"/>
			<stop  offset="1" style="stop-color:#000000"/>
		</linearGradient>
		<path class="st10" d="M114.8,359.8c-2.5,2.4-5.6,3.7-9.2,3.7c-3.7,0-6.8-1.2-9.2-3.7c-2.5-2.4-3.7-5.5-3.7-9.1
			c0-3.6,1.2-6.7,3.7-9.1c2.5-2.4,5.6-3.7,9.2-3.7c3.7,0,6.8,1.2,9.2,3.7c2.5,2.4,3.7,5.5,3.7,9.1
			C118.5,354.4,117.3,357.4,114.8,359.8z M111.7,344.4c-1.7-1.7-3.7-2.6-6.2-2.6c-2.4,0-4.5,0.9-6.2,2.6c-1.7,1.7-2.5,3.9-2.5,6.3
			c0,2.5,0.8,4.6,2.5,6.3c1.7,1.7,3.7,2.6,6.2,2.6c2.4,0,4.5-0.9,6.2-2.6c1.7-1.7,2.5-3.9,2.5-6.3
			C114.2,348.2,113.4,346.1,111.7,344.4z"/>
		
			<linearGradient id="SVGID_12_" gradientUnits="userSpaceOnUse" x1="3.0254" y1="306.5121" x2="498" y2="306.5121" gradientTransform="matrix(1 0 0 1 0 -1)">
			<stop  offset="0" style="stop-color:#FFFFFF"/>
			<stop  offset="1" style="stop-color:#000000"/>
		</linearGradient>
		<path class="st11" d="M145.2,357.6c1.1,1.3,2.7,2,4.6,2c1.9,0,3.5-0.7,4.6-2c1.1-1.3,1.7-3.1,1.7-5.4v-13.7h4.2v13.8
			c0,3.6-1,6.3-2.9,8.2c-2,1.9-4.5,2.9-7.5,2.9c-3.1,0-5.6-1-7.5-2.9c-2-1.9-2.9-4.7-2.9-8.2v-13.8h4.2v13.7
			C143.5,354.5,144.1,356.3,145.2,357.6z"/>
		
			<linearGradient id="SVGID_13_" gradientUnits="userSpaceOnUse" x1="3.0254" y1="306.5121" x2="498" y2="306.5121" gradientTransform="matrix(1 0 0 1 0 -1)">
			<stop  offset="0" style="stop-color:#FFFFFF"/>
			<stop  offset="1" style="stop-color:#000000"/>
		</linearGradient>
		<path class="st12" d="M201.1,338.6h4.2v24.7h-4.5l-14-18v18h-4.2v-24.7h4.2l14.3,18.4V338.6z"/>
		
			<linearGradient id="SVGID_14_" gradientUnits="userSpaceOnUse" x1="3.0254" y1="306.5121" x2="498" y2="306.5121" gradientTransform="matrix(1 0 0 1 0 -1)">
			<stop  offset="0" style="stop-color:#FFFFFF"/>
			<stop  offset="1" style="stop-color:#000000"/>
		</linearGradient>
		<path class="st13" d="M246.7,341.8c2.4,2.2,3.6,5.1,3.6,9c0,3.8-1.2,6.9-3.5,9.1c-2.3,2.2-5.8,3.4-10.6,3.4H228v-24.7h8.5
			C240.9,338.6,244.3,339.6,246.7,341.8z M246.1,350.9c0-5.6-3.2-8.5-9.7-8.5h-4.2v16.9h4.6c3,0,5.3-0.7,6.9-2.1
			C245.3,355.8,246.1,353.7,246.1,350.9z"/>
		
			<linearGradient id="SVGID_15_" gradientUnits="userSpaceOnUse" x1="3.0254" y1="306.5121" x2="498" y2="306.5121" gradientTransform="matrix(1 0 0 1 0 -1)">
			<stop  offset="0" style="stop-color:#FFFFFF"/>
			<stop  offset="1" style="stop-color:#000000"/>
		</linearGradient>
		<path class="st14" d="M275,357.6l-2.5,5.6h-4.4l10.9-24.7h4.4l10.9,24.7h-4.4l-2.5-5.6H275z M285.7,353.8l-4.5-10.2l-4.5,10.2
			H285.7z"/>
		
			<linearGradient id="SVGID_16_" gradientUnits="userSpaceOnUse" x1="3.0254" y1="306.5121" x2="498" y2="306.5121" gradientTransform="matrix(1 0 0 1 0 -1)">
			<stop  offset="0" style="stop-color:#FFFFFF"/>
			<stop  offset="1" style="stop-color:#000000"/>
		</linearGradient>
		<path class="st15" d="M321,342.4v20.9h-4.2v-20.9h-7.5v-3.8h19.1v3.8H321z"/>
		
			<linearGradient id="SVGID_17_" gradientUnits="userSpaceOnUse" x1="3.0254" y1="306.5121" x2="498" y2="306.5121" gradientTransform="matrix(1 0 0 1 0 -1)">
			<stop  offset="0" style="stop-color:#FFFFFF"/>
			<stop  offset="1" style="stop-color:#000000"/>
		</linearGradient>
		<path class="st16" d="M348.9,338.6h4.2v24.7h-4.2V338.6z"/>
		
			<linearGradient id="SVGID_18_" gradientUnits="userSpaceOnUse" x1="3.0254" y1="306.5121" x2="498" y2="306.5121" gradientTransform="matrix(1 0 0 1 0 -1)">
			<stop  offset="0" style="stop-color:#FFFFFF"/>
			<stop  offset="1" style="stop-color:#000000"/>
		</linearGradient>
		<path class="st17" d="M396.4,359.8c-2.5,2.4-5.6,3.7-9.2,3.7c-3.7,0-6.8-1.2-9.2-3.7c-2.5-2.4-3.7-5.5-3.7-9.1
			c0-3.6,1.2-6.7,3.7-9.1c2.5-2.4,5.6-3.7,9.2-3.7c3.7,0,6.8,1.2,9.2,3.7c2.5,2.4,3.7,5.5,3.7,9.1
			C400.1,354.4,398.9,357.4,396.4,359.8z M393.3,344.4c-1.7-1.7-3.7-2.6-6.2-2.6c-2.4,0-4.5,0.9-6.2,2.6c-1.7,1.7-2.5,3.9-2.5,6.3
			c0,2.5,0.8,4.6,2.5,6.3c1.7,1.7,3.7,2.6,6.2,2.6c2.4,0,4.5-0.9,6.2-2.6c1.7-1.7,2.5-3.9,2.5-6.3
			C395.9,348.2,395,346.1,393.3,344.4z"/>
		
			<linearGradient id="SVGID_19_" gradientUnits="userSpaceOnUse" x1="3.0254" y1="306.5121" x2="498" y2="306.5121" gradientTransform="matrix(1 0 0 1 0 -1)">
			<stop  offset="0" style="stop-color:#FFFFFF"/>
			<stop  offset="1" style="stop-color:#000000"/>
		</linearGradient>
		<path class="st18" d="M439.8,338.6h4.2v24.7h-4.5l-14-18v18h-4.2v-24.7h4.2l14.3,18.4V338.6z"/>
	</g>
	<g>
		<path d="M29,281.6l10.5-34.1h13.8l10.4,34.1l11.8-34.1h14.3l-20.7,59.2h-9.8l-13-41.2l-12.9,41.2h-9.8L3,247.5h14.3L29,281.6z"/>
		<path d="M96.9,247.5h13.2v59.2H96.9V247.5z"/>
		<path d="M124.7,247.5h13.2v24.3l22.4-24.3h16.3l-23.6,26.2c2,2.8,5.8,8.1,11.3,15.8c5.5,7.7,9.6,13.5,12.3,17.2h-15.4l-17.4-23.4
			l-5.9,6.6v16.8h-13.2V247.5z"/>
		<path d="M184.8,247.5H198v59.2h-13.2V247.5z"/>
		<path d="M265.6,269.5l-16,32.4h-7.9l-15.9-32.4v37.3h-13.2v-59.2h17.9l15.2,32.5l15.3-32.5h17.8v59.2h-13.2V269.5z"/>
		<path d="M336.1,247.5v11.8h-29.5v12.2h26.5v11.3h-26.5v12.3H337v11.7h-43.6v-59.2H336.1z"/>
		<path d="M394.1,255.3c5.6,5.2,8.5,12.4,8.5,21.6c0,9.2-2.8,16.5-8.3,21.9c-5.5,5.4-13.9,8-25.2,8h-20.2v-59.2h20.9
			C380.3,247.5,388.4,250.1,394.1,255.3z M384.4,290.5c3.2-3,4.9-7.5,4.9-13.3c0-5.8-1.6-10.3-4.9-13.4c-3.2-3.1-8.2-4.7-15-4.7H362
			v36h8.4C376.5,295.1,381.1,293.5,384.4,290.5z"/>
		<path d="M414,247.5h13.2v59.2H414V247.5z"/>
		<path d="M483.9,306.8l-5.5-12.8h-24.8l-5.5,12.8H434l25.6-59.2h12.8l25.6,59.2H483.9z M466.1,265.2l-7.5,17.2h14.8L466.1,265.2z"
			/>
		<path d="M61.1,342.4v6.8H72v3.8H61.1v10.2h-4.2v-24.7h16.4l0,3.9H61.1z"/>
		<path d="M114.8,359.8c-2.5,2.4-5.6,3.7-9.2,3.7c-3.7,0-6.8-1.2-9.2-3.7c-2.5-2.4-3.7-5.5-3.7-9.1c0-3.6,1.2-6.7,3.7-9.1
			c2.5-2.4,5.6-3.7,9.2-3.7c3.7,0,6.8,1.2,9.2,3.7c2.5,2.4,3.7,5.5,3.7,9.1C118.5,354.4,117.3,357.4,114.8,359.8z M111.7,344.4
			c-1.7-1.7-3.7-2.6-6.2-2.6c-2.4,0-4.5,0.9-6.2,2.6c-1.7,1.7-2.5,3.9-2.5,6.3c0,2.5,0.8,4.6,2.5,6.3c1.7,1.7,3.7,2.6,6.2,2.6
			c2.4,0,4.5-0.9,6.2-2.6c1.7-1.7,2.5-3.9,2.5-6.3C114.2,348.2,113.4,346.1,111.7,344.4z"/>
		<path d="M145.2,357.6c1.1,1.3,2.7,2,4.6,2c1.9,0,3.5-0.7,4.6-2c1.1-1.3,1.7-3.1,1.7-5.4v-13.7h4.2v13.8c0,3.6-1,6.3-2.9,8.2
			c-2,1.9-4.5,2.9-7.5,2.9c-3.1,0-5.6-1-7.5-2.9c-2-1.9-2.9-4.7-2.9-8.2v-13.8h4.2v13.7C143.5,354.5,144.1,356.3,145.2,357.6z"/>
		<path d="M201.1,338.6h4.2v24.7h-4.5l-14-18v18h-4.2v-24.7h4.2l14.3,18.4V338.6z"/>
		<path d="M246.7,341.8c2.4,2.2,3.6,5.1,3.6,9c0,3.8-1.2,6.9-3.5,9.1c-2.3,2.2-5.8,3.4-10.6,3.4H228v-24.7h8.5
			C240.9,338.6,244.3,339.6,246.7,341.8z M246.1,350.9c0-5.6-3.2-8.5-9.7-8.5h-4.2v16.9h4.6c3,0,5.3-0.7,6.9-2.1
			C245.3,355.8,246.1,353.7,246.1,350.9z"/>
		<path d="M275,357.6l-2.5,5.6h-4.4l10.9-24.7h4.4l10.9,24.7h-4.4l-2.5-5.6H275z M285.7,353.8l-4.5-10.2l-4.5,10.2H285.7z"/>
		<path d="M321,342.4v20.9h-4.2v-20.9h-7.5v-3.8h19.1v3.8H321z"/>
		<path d="M348.9,338.6h4.2v24.7h-4.2V338.6z"/>
		<path d="M396.4,359.8c-2.5,2.4-5.6,3.7-9.2,3.7c-3.7,0-6.8-1.2-9.2-3.7c-2.5-2.4-3.7-5.5-3.7-9.1c0-3.6,1.2-6.7,3.7-9.1
			c2.5-2.4,5.6-3.7,9.2-3.7c3.7,0,6.8,1.2,9.2,3.7c2.5,2.4,3.7,5.5,3.7,9.1C400.1,354.4,398.9,357.4,396.4,359.8z M393.3,344.4
			c-1.7-1.7-3.7-2.6-6.2-2.6c-2.4,0-4.5,0.9-6.2,2.6c-1.7,1.7-2.5,3.9-2.5,6.3c0,2.5,0.8,4.6,2.5,6.3c1.7,1.7,3.7,2.6,6.2,2.6
			c2.4,0,4.5-0.9,6.2-2.6c1.7-1.7,2.5-3.9,2.5-6.3C395.9,348.2,395,346.1,393.3,344.4z"/>
		<path d="M439.8,338.6h4.2v24.7h-4.5l-14-18v18h-4.2v-24.7h4.2l14.3,18.4V338.6z"/>
	</g>
</g>
<g>
	<path class="st19" d="M259.6,173.9c31.7-4.5,56.1-31.7,56.1-64.6c0-20-9-37.9-23.2-49.9l-32.9,32.9V173.9z"/>
	<path class="st19" d="M241.2,173.9V92.3l-32.9-32.9c-14.2,12-23.2,29.9-23.2,49.9C185.1,142.2,209.5,169.4,241.2,173.9z"/>
	<path class="st19" d="M307.2,52.5c15.2,15.2,23.5,35.3,23.5,56.7s-8.3,41.6-23.5,56.7c-15.2,15.2-35.3,23.5-56.7,23.5
		s-41.6-8.3-56.7-23.5s-23.5-35.3-23.5-56.7c0-21.4,8.3-41.6,23.5-56.7c1.3-1.3,2.6-2.5,4-3.7l-18.3-18.3c-1.4,1.2-2.7,2.5-4,3.8
		c-9.7,9.7-17.4,21.1-22.7,33.7c-5.5,13.1-8.3,27-8.3,41.3c0,14.3,2.8,28.2,8.3,41.3c5.3,12.6,13,24,22.7,33.7
		c9.7,9.7,21.1,17.4,33.7,22.7c13.1,5.5,27,8.3,41.3,8.3c14.3,0,28.2-2.8,41.3-8.3c12.6-5.3,24-13,33.7-22.7
		c9.7-9.7,17.4-21.1,22.7-33.7c5.5-13.1,8.3-27,8.3-41.3c0-14.3-2.8-28.2-8.3-41.3c-5.3-12.6-13-24-22.7-33.7
		c-1.3-1.3-2.6-2.6-4-3.8l-18.3,18.3C304.5,50,305.9,51.2,307.2,52.5z"/>
	<circle id="red_circle_52_" class="st19" cx="250.4" cy="35.6" r="33.1"/>
</g>
<g>
	<path d="M259.6,173.9c31.7-4.5,56.1-31.7,56.1-64.6c0-20-9-37.9-23.2-49.9l-32.9,32.9V173.9z"/>
	<path d="M241.2,173.9V92.3l-32.9-32.9c-14.2,12-23.2,29.9-23.2,49.9C185.1,142.2,209.5,169.4,241.2,173.9z"/>
	<path d="M307.2,52.5c15.2,15.2,23.5,35.3,23.5,56.7s-8.3,41.6-23.5,56.7c-15.2,15.2-35.3,23.5-56.7,23.5s-41.6-8.3-56.7-23.5
		s-23.5-35.3-23.5-56.7c0-21.4,8.3-41.6,23.5-56.7c1.3-1.3,2.6-2.5,4-3.7l-18.3-18.3c-1.4,1.2-2.7,2.5-4,3.8
		c-9.7,9.7-17.4,21.1-22.7,33.7c-5.5,13.1-8.3,27-8.3,41.3c0,14.3,2.8,28.2,8.3,41.3c5.3,12.6,13,24,22.7,33.7
		c9.7,9.7,21.1,17.4,33.7,22.7c13.1,5.5,27,8.3,41.3,8.3c14.3,0,28.2-2.8,41.3-8.3c12.6-5.3,24-13,33.7-22.7
		c9.7-9.7,17.4-21.1,22.7-33.7c5.5-13.1,8.3-27,8.3-41.3c0-14.3-2.8-28.2-8.3-41.3c-5.3-12.6-13-24-22.7-33.7
		c-1.3-1.3-2.6-2.6-4-3.8l-18.3,18.3C304.5,50,305.9,51.2,307.2,52.5z"/>
	<circle id="red_circle_46_" cx="250.4" cy="35.6" r="33.1"/>
</g>
</svg>
