<?xml version="1.0" encoding="utf-8"?>
<!-- Generator: Adobe Illustrator 21.0.0, SVG Export Plug-In . SVG Version: 6.00 Build 0)  -->
<svg version="1.1" id="Layer_1" xmlns="http://www.w3.org/2000/svg" xmlns:xlink="http://www.w3.org/1999/xlink" x="0px" y="0px"
	 width="100px" height="100px" viewBox="0 0 100 100" style="enable-background:new 0 0 100 100;" xml:space="preserve">
<style type="text/css">
	.st0{fill:#FFFFFF;}
</style>
<g>
	<path class="st0" d="M54,79.9c14.6-2.1,25.8-14.6,25.8-29.8c0-9.2-4.1-17.5-10.7-23L54,42.3V79.9z"/>
	<path class="st0" d="M45.5,79.9V42.3L30.3,27.2c-6.5,5.5-10.7,13.8-10.7,23C19.7,65.3,30.9,77.8,45.5,79.9z"/>
	<path class="st0" d="M75.9,24c7,7,10.8,16.3,10.8,26.1s-3.8,19.1-10.8,26.1c-7,7-16.3,10.8-26.1,10.8s-19.1-3.8-26.1-10.8
		S12.8,60,12.8,50.1c0-9.9,3.8-19.1,10.8-26.1c0.6-0.6,1.2-1.2,1.8-1.7L17,13.8c-0.6,0.6-1.2,1.1-1.8,1.7c-4.5,4.5-8,9.7-10.5,15.5
		c-2.5,6-3.8,12.4-3.8,19c0,6.6,1.3,13,3.8,19c2.5,5.8,6,11,10.5,15.5c4.5,4.5,9.7,8,15.5,10.5c6,2.5,12.4,3.8,19,3.8
		c6.6,0,13-1.3,19-3.8c5.8-2.5,11-6,15.5-10.5c4.5-4.5,8-9.7,10.5-15.5c2.5-6,3.8-12.4,3.8-19c0-6.6-1.3-13-3.8-19
		c-2.5-5.8-6-11-10.5-15.5c-0.6-0.6-1.2-1.2-1.8-1.7L74,22.3C74.7,22.8,75.3,23.4,75.9,24z"/>
	<circle id="red_circle_52_" class="st0" cx="49.7" cy="16.2" r="15.2"/>
</g>
<g>
	<path class="st0" d="M54,79.9c14.6-2.1,25.8-14.6,25.8-29.8c0-9.2-4.1-17.5-10.7-23L54,42.3V79.9z"/>
	<path class="st0" d="M45.5,79.9V42.3L30.3,27.2c-6.5,5.5-10.7,13.8-10.7,23C19.7,65.3,30.9,77.8,45.5,79.9z"/>
	<path class="st0" d="M75.9,24c7,7,10.8,16.3,10.8,26.1s-3.8,19.1-10.8,26.1c-7,7-16.3,10.8-26.1,10.8s-19.1-3.8-26.1-10.8
		S12.8,60,12.8,50.1c0-9.9,3.8-19.1,10.8-26.1c0.6-0.6,1.2-1.2,1.8-1.7L17,13.8c-0.6,0.6-1.2,1.1-1.8,1.7c-4.5,4.5-8,9.7-10.5,15.5
		c-2.5,6-3.8,12.4-3.8,19c0,6.6,1.3,13,3.8,19c2.5,5.8,6,11,10.5,15.5c4.5,4.5,9.7,8,15.5,10.5c6,2.5,12.4,3.8,19,3.8
		c6.6,0,13-1.3,19-3.8c5.8-2.5,11-6,15.5-10.5c4.5-4.5,8-9.7,10.5-15.5c2.5-6,3.8-12.4,3.8-19c0-6.6-1.3-13-3.8-19
		c-2.5-5.8-6-11-10.5-15.5c-0.6-0.6-1.2-1.2-1.8-1.7L74,22.3C74.7,22.8,75.3,23.4,75.9,24z"/>
	<circle id="red_circle_46_" class="st0" cx="49.7" cy="16.2" r="15.2"/>
</g>
</svg>
