<?xml version="1.0" encoding="utf-8"?>
<!-- Generator: Adobe Illustrator 21.0.0, SVG Export Plug-In . SVG Version: 6.00 Build 0)  -->
<svg version="1.1" id="Layer_1" xmlns="http://www.w3.org/2000/svg" xmlns:xlink="http://www.w3.org/1999/xlink" x="0px" y="0px"
	 width="500px" height="115px" viewBox="0 0 500 115" style="enable-background:new 0 0 500 115;" xml:space="preserve">
<g>
	<path d="M150.2,48l7.8-25.3h10.2l7.7,25.3l8.7-25.3h10.6l-15.3,43.9h-7.3L163,36.1l-9.6,30.5h-7.3l-15.3-43.9h10.6L150.2,48z"/>
	<path d="M200.5,22.7h9.8v43.9h-9.8V22.7z"/>
	<path d="M221.1,22.7h9.8v18l16.6-18h12.1l-17.5,19.4c1.5,2.1,4.3,6,8.4,11.7c4.1,5.7,7.1,10,9.1,12.8h-11.4l-12.9-17.3l-4.4,4.9
		v12.4h-9.8V22.7z"/>
	<path d="M265.7,22.7h9.8v43.9h-9.8V22.7z"/>
	<path d="M325.7,39l-11.9,24h-5.8l-11.8-24v27.6h-9.8V22.7h13.3l11.3,24.1l11.4-24.1h13.2v43.9h-9.8V39z"/>
	<path d="M377.9,22.7v8.7h-21.9v9h19.7v8.4h-19.7V58h22.6v8.7h-32.4V22.7H377.9z"/>
	<path d="M420.9,28.5c4.2,3.8,6.3,9.2,6.3,16c0,6.8-2,12.2-6.1,16.2c-4.1,4-10.3,6-18.7,6h-15V22.7h15.5
		C410.7,22.7,416.7,24.7,420.9,28.5z M413.7,54.6c2.4-2.3,3.6-5.6,3.6-9.9s-1.2-7.6-3.6-10c-2.4-2.3-6.1-3.5-11.1-3.5h-5.5V58h6.2
		C407.9,58,411.3,56.9,413.7,54.6z"/>
	<path d="M435.7,22.7h9.8v43.9h-9.8V22.7z"/>
	<path d="M487.6,66.7l-4.1-9.5h-18.4l-4.1,9.5h-10.4l19-43.9h9.5l19,43.9H487.6z M474.3,35.8l-5.5,12.8h11L474.3,35.8z"/>
</g>
<g>
	<path d="M148.8,86.6v5.3h8.5v3h-8.5v7.9h-3.2V83.6h12.8l0,3H148.8z"/>
	<path d="M194.7,100.1c-1.9,1.9-4.3,2.8-7.2,2.8c-2.9,0-5.3-0.9-7.2-2.8s-2.9-4.3-2.9-7.1s1-5.2,2.9-7.1s4.3-2.8,7.2-2.8
		c2.9,0,5.3,0.9,7.2,2.8s2.9,4.3,2.9,7.1S196.6,98.2,194.7,100.1z M192.3,88.1c-1.3-1.4-2.9-2-4.8-2c-1.9,0-3.5,0.7-4.8,2
		c-1.3,1.4-2,3-2,4.9c0,1.9,0.7,3.6,2,4.9c1.3,1.4,2.9,2,4.8,2c1.9,0,3.5-0.7,4.8-2c1.3-1.4,2-3,2-4.9
		C194.3,91.1,193.6,89.4,192.3,88.1z"/>
	<path d="M222.5,98.4c0.9,1,2.1,1.5,3.6,1.5s2.7-0.5,3.6-1.5s1.3-2.4,1.3-4.2V83.6h3.2v10.8c0,2.8-0.8,4.9-2.3,6.4
		c-1.5,1.5-3.5,2.2-5.9,2.2c-2.4,0-4.3-0.7-5.9-2.2c-1.5-1.5-2.3-3.6-2.3-6.4V83.6h3.2v10.6C221.2,96,221.6,97.3,222.5,98.4z"/>
	<path d="M270.2,83.6h3.2v19.2h-3.5l-10.9-14v14h-3.2V83.6h3.2l11.2,14.3V83.6z"/>
	<path d="M309.8,86.1c1.9,1.7,2.8,4,2.8,7c0,3-0.9,5.4-2.7,7.1c-1.8,1.7-4.5,2.6-8.2,2.6h-6.4V83.6h6.6
		C305.3,83.6,308,84.4,309.8,86.1z M309.3,93.1c0-4.4-2.5-6.6-7.6-6.6h-3.2v13.2h3.6c2.3,0,4.1-0.6,5.3-1.7
		C308.7,96.9,309.3,95.3,309.3,93.1z"/>
	<path d="M336,98.4l-1.9,4.4h-3.5l8.5-19.2h3.5l8.5,19.2h-3.5l-1.9-4.4H336z M344.3,95.4l-3.5-7.9l-3.5,7.9H344.3z"/>
	<path d="M375.9,86.5v16.2h-3.2V86.5h-5.8v-3h14.9v3H375.9z"/>
	<path d="M401.7,83.6h3.2v19.2h-3.2V83.6z"/>
	<path d="M442.9,100.1c-1.9,1.9-4.3,2.8-7.2,2.8c-2.9,0-5.3-0.9-7.2-2.8s-2.9-4.3-2.9-7.1s1-5.2,2.9-7.1s4.3-2.8,7.2-2.8
		c2.9,0,5.3,0.9,7.2,2.8s2.9,4.3,2.9,7.1S444.8,98.2,442.9,100.1z M440.5,88.1c-1.3-1.4-2.9-2-4.8-2s-3.5,0.7-4.8,2
		c-1.3,1.4-2,3-2,4.9c0,1.9,0.7,3.6,2,4.9c1.3,1.4,2.9,2,4.8,2s3.5-0.7,4.8-2c1.3-1.4,2-3,2-4.9C442.5,91.1,441.8,89.4,440.5,88.1z"
		/>
	<path d="M480.8,83.6h3.2v19.2h-3.5l-10.9-14v14h-3.2V83.6h3.2l11.2,14.3V83.6z"/>
</g>
<g>
	<path d="M61.9,91.2c16.5-2.3,29.3-16.5,29.3-33.7c0-10.4-4.7-19.8-12.1-26L61.9,48.6V91.2z"/>
	<path d="M52.3,91.2V48.6L35.1,31.4C27.7,37.7,23,47,23,57.4C23,74.6,35.7,88.8,52.3,91.2z"/>
	<path d="M86.7,27.8c7.9,7.9,12.3,18.4,12.3,29.6S94.6,79.1,86.7,87C78.8,95,68.3,99.3,57.1,99.3S35.4,95,27.5,87
		S15.2,68.6,15.2,57.4c0-11.2,4.4-21.7,12.3-29.6c0.7-0.7,1.4-1.3,2.1-2L20,16.3c-0.7,0.6-1.4,1.3-2.1,2c-5.1,5.1-9.1,11-11.9,17.6
		C3.2,42.7,1.7,50,1.7,57.4C1.7,64.9,3.2,72.2,6,79c2.8,6.6,6.8,12.5,11.9,17.6c5.1,5.1,11,9.1,17.6,11.9c6.8,2.9,14.1,4.4,21.6,4.4
		c7.5,0,14.7-1.5,21.6-4.4c6.6-2.8,12.5-6.8,17.6-11.9c5.1-5.1,9.1-11,11.9-17.6c2.9-6.8,4.4-14.1,4.4-21.6c0-7.5-1.5-14.7-4.4-21.6
		c-2.8-6.6-6.8-12.5-11.9-17.6c-0.7-0.7-1.4-1.3-2.1-2l-9.6,9.6C85.3,26.5,86,27.1,86.7,27.8z"/>
	<circle id="red_circle_3_" cx="57.1" cy="19" r="17.3"/>
</g>
</svg>
