<svg xmlns="http://www.w3.org/2000/svg" viewBox="0 0 2890.56 2200" class="bricks__svg">
<g class="brick-group-1">
<path class="small-rect" d="M34.6,27.8h24.2v96.7H34.6V27.8z M83,27.8h24.2v96.7H83V27.8z M131.3,27.8h24.2v96.7h-24.2V27.8z M179.6,27.8h24.2v96.7
h-24.2V27.8z M228,27.8h24.2v96.7H228L228,27.8z M276.3,27.8h24.2v96.7h-24.2V27.8z M324.6,27.8h24.2v96.7h-24.2V27.8z M421.3,27.8
h24.2v96.7h-24.2V27.8z M469.6,27.8h24.2v96.7h-24.2V27.8z M518,27.8h24.2v96.7H518V27.8z M566.3,27.8h24.2v96.7h-24.2V27.8z
M614.7,27.8h24.2v96.7h-24.2V27.8z M663,27.8h24.2v96.7H663V27.8z M711.3,27.8h24.2v96.7h-24.2V27.8z M759.7,27.8h24.2v96.7h-24.2
V27.8z M808,27.8h24.2v96.7H808V27.8z M856.3,27.8h24.2v96.7h-24.2V27.8z M904.7,27.8h24.2v96.7h-24.2V27.8z M953,27.8h24.2v96.7
H953V27.8z M1001.3,27.8h24.2v96.7h-24.2V27.8z M1049.7,27.8h24.2v96.7h-24.2V27.8z M1098,27.8h24.2v96.7H1098V27.8z M1146.4,27.8
h24.2v96.7h-24.2V27.8z M1194.7,27.8h24.2v96.7h-24.2V27.8z M1243,27.8h24.2v96.7H1243V27.8z M1291.4,27.8h24.2v96.7h-24.2V27.8z
M1339.7,27.8h24.2v96.7h-24.2V27.8z M1388,27.8h24.2v96.7H1388V27.8z M1436.4,27.8h24.2v96.7h-24.2V27.8z M1484.7,27.8h24.2v96.7
h-24.2V27.8z M1533,27.8h24.2v96.7H1533V27.8z M1581.4,27.8h24.2v96.7h-24.2V27.8z M1629.7,27.8h24.2v96.7h-24.2V27.8z
M1678.1,27.8h24.2v96.7h-24.2V27.8z M1726.4,27.8h24.2v96.7h-24.2V27.8z M1774.7,27.8h24.2v96.7h-24.2V27.8z M1823.1,27.8h24.2
v96.7h-24.2V27.8z M1871.4,27.8h24.2v96.7h-24.2V27.8z M1919.7,27.8h24.2v96.7h-24.2V27.8z M1968.1,27.8h24.2v96.7h-24.2V27.8z
M2016.4,27.8h24.2v96.7h-24.2V27.8z M2064.8,27.8h24.2v96.7h-24.2V27.8z M2113.1,27.8h24.2v96.7h-24.2V27.8z M2161.4,27.8h24.2
v96.7h-24.2V27.8z M2209.8,27.8h24.2v96.7h-24.2V27.8z M2258.1,27.8h24.2v96.7h-24.2V27.8z M2306.4,27.8h24.2v96.7h-24.2V27.8z
M2354.8,27.8h24.2v96.7h-24.2V27.8z M2403.1,27.8h24.2v96.7h-24.2V27.8z M2451.4,27.8h24.2v96.7h-24.2V27.8z M2499.8,27.8h24.2
v96.7h-24.2V27.8z M2548.1,27.8h24.2v96.7h-24.2V27.8z M2596.5,27.8h24.2v96.7h-24.2V27.8z M2644.8,27.8h24.2v96.7h-24.2V27.8z
M2693.1,27.8h24.2v96.7h-24.2V27.8z M2741.5,27.8h24.2v96.7h-24.2V27.8z M2789.8,27.8h24.2v96.7h-24.2V27.8z M2838.1,27.8h24.2
v96.7h-24.2V27.8z M373,27.8h24.2v96.7H373V27.8z"/>
</g>
<g class="brick-group-1">
<path class="small-rect" d="M34.6,148.6h24.2v96.7H34.6V148.6z M83,148.6h24.2v96.7H83V148.6z M131.3,148.6h24.2v96.7h-24.2V148.6z M179.6,148.6h24.2
v96.7h-24.2V148.6z M228,148.6h24.2v96.7H228L228,148.6z M276.3,148.6h24.2v96.7h-24.2V148.6z M324.6,148.6h24.2v96.7h-24.2V148.6z
M421.3,148.6h24.2v96.7h-24.2V148.6z M469.6,148.6h24.2v96.7h-24.2V148.6z M518,148.6h24.2v96.7H518V148.6z M566.3,148.6h24.2
v96.7h-24.2V148.6z M614.7,148.6h24.2v96.7h-24.2V148.6z M663,148.6h24.2v96.7H663V148.6z M711.3,148.6h24.2v96.7h-24.2V148.6z
M759.7,148.6h24.2v96.7h-24.2V148.6z M808,148.6h24.2v96.7H808V148.6z M856.3,148.6h24.2v96.7h-24.2V148.6z M904.7,148.6h24.2
v96.7h-24.2V148.6z M953,148.6h24.2v96.7H953V148.6z M1001.3,148.6h24.2v96.7h-24.2V148.6z M1049.7,148.6h24.2v96.7h-24.2V148.6z
M1098,148.6h24.2v96.7H1098V148.6z M1146.4,148.6h24.2v96.7h-24.2V148.6z M1194.7,148.6h24.2v96.7h-24.2V148.6z M1243,148.6h24.2
v96.7H1243V148.6z M1291.4,148.6h24.2v96.7h-24.2V148.6z M1339.7,148.6h24.2v96.7h-24.2V148.6z M1388,148.6h24.2v96.7H1388V148.6z
M1436.4,148.6h24.2v96.7h-24.2V148.6z M1484.7,148.6h24.2v96.7h-24.2V148.6z M1533,148.6h24.2v96.7H1533V148.6z M1581.4,148.6
h24.2v96.7h-24.2V148.6z M1629.7,148.6h24.2v96.7h-24.2V148.6z M1678.1,148.6h24.2v96.7h-24.2V148.6z M1726.4,148.6h24.2v96.7
h-24.2V148.6z M1774.7,148.6h24.2v96.7h-24.2V148.6z M1823.1,148.6h24.2v96.7h-24.2V148.6z M1871.4,148.6h24.2v96.7h-24.2V148.6z
M1919.7,148.6h24.2v96.7h-24.2V148.6z M1968.1,148.6h24.2v96.7h-24.2V148.6z M2016.4,148.6h24.2v96.7h-24.2V148.6z M2064.8,148.6
h24.2v96.7h-24.2V148.6z M2113.1,148.6h24.2v96.7h-24.2V148.6z M2161.4,148.6h24.2v96.7h-24.2V148.6z M2209.8,148.6h24.2v96.7
h-24.2V148.6z M2258.1,148.6h24.2v96.7h-24.2V148.6z M2306.4,148.6h24.2v96.7h-24.2V148.6z M2354.8,148.6h24.2v96.7h-24.2V148.6z
M2403.1,148.6h24.2v96.7h-24.2V148.6z M2451.4,148.6h24.2v96.7h-24.2V148.6z M2499.8,148.6h24.2v96.7h-24.2V148.6z M2548.1,148.6
h24.2v96.7h-24.2V148.6z M2596.5,148.6h24.2v96.7h-24.2V148.6z M2644.8,148.6h24.2v96.7h-24.2V148.6z M2693.1,148.6h24.2v96.7
h-24.2V148.6z M2741.5,148.6h24.2v96.7h-24.2V148.6z M2789.8,148.6h24.2v96.7h-24.2V148.6z M2838.1,148.6h24.2v96.7h-24.2V148.6z
M373,148.6h24.2v96.7H373V148.6z"/>
</g>
<g class="brick-group-2 billions-letter-group">
<path fill="#fff" class="billions-item" d="M0,0h802.5v259H0V0z"/>
<path class="billions-letter billions-item" d="M123.1,247.3h45.5l24.3-218H163l-17.8,173.2L128.1,29.3h-33l-16.5,172l-18.4-172H26.9l24.3,218h47l12.5-116.2
C110.7,131.2,123.1,247.3,123.1,247.3z M246,60.4h59.2V29.3h-93.4v218h93.4v-31.1H246v-63.9h47v-31.1h-47L246,60.4L246,60.4z
M450.7,29.3h-50.1l-34.9,218h31.5l5.9-39.5h42.1l5.8,39.5h34.6L450.7,29.3z M423.9,67.9l16.4,110.3h-32.9L423.9,67.9z
M609.8,247.3c-3.4-8.1-3.7-15.9-3.7-26.4v-33.7c0-22.7-5.6-39.3-22.7-46.4c15.3-7.2,22.4-21.8,22.4-44.2V79.5
c0-33.7-15.3-50.2-50.8-50.2h-51.7v218h34.3v-88.7h11.8c15.6,0,22.4,7.5,22.4,27.7v34.3c0,17.8,1.3,21.1,3.1,26.8L609.8,247.3z
M554,60.4c12.1,0,17.4,6.9,17.4,22.4v21.5c0,17.4-7.8,23-20.6,23h-13.4v-67L554,60.4z M664.5,60.4h59.2V29.3h-93.4v218h93.4v-31.1
h-59.2v-63.9h47v-31.1h-47V60.4z"/>
</g>
<g class="brick-group-1">
<path class="small-rect" d="M34.6,269.5h24.2v96.7H34.6V269.5z M83,269.5h24.2v96.7H83V269.5z M131.3,269.5h24.2v96.7h-24.2V269.5z M179.6,269.5h24.2
v96.7h-24.2V269.5z M228,269.5h24.2v96.7H228L228,269.5z M276.3,269.5h24.2v96.7h-24.2V269.5z M324.6,269.5h24.2v96.7h-24.2V269.5z
M421.3,269.5h24.2v96.7h-24.2V269.5z M469.6,269.5h24.2v96.7h-24.2V269.5z M518,269.5h24.2v96.7H518V269.5z M566.3,269.5h24.2
v96.7h-24.2V269.5z M614.7,269.5h24.2v96.7h-24.2V269.5z M663,269.5h24.2v96.7H663V269.5z M711.3,269.5h24.2v96.7h-24.2V269.5z
M759.7,269.5h24.2v96.7h-24.2V269.5z M808,269.5h24.2v96.7H808V269.5z M856.3,269.5h24.2v96.7h-24.2V269.5z M904.7,269.5h24.2
v96.7h-24.2V269.5z M953,269.5h24.2v96.7H953V269.5z M1001.3,269.5h24.2v96.7h-24.2V269.5z M1049.7,269.5h24.2v96.7h-24.2V269.5z
M1098,269.5h24.2v96.7H1098V269.5z M1146.4,269.5h24.2v96.7h-24.2V269.5z M1194.7,269.5h24.2v96.7h-24.2V269.5z M1243,269.5h24.2
v96.7H1243V269.5z M1291.4,269.5h24.2v96.7h-24.2V269.5z M1339.7,269.5h24.2v96.7h-24.2V269.5z M1388,269.5h24.2v96.7H1388V269.5z
M1436.4,269.5h24.2v96.7h-24.2V269.5z M1484.7,269.5h24.2v96.7h-24.2V269.5z M1533,269.5h24.2v96.7H1533V269.5z M1581.4,269.5
h24.2v96.7h-24.2V269.5z M1629.7,269.5h24.2v96.7h-24.2V269.5z M1678.1,269.5h24.2v96.7h-24.2V269.5z M1726.4,269.5h24.2v96.7
h-24.2V269.5z M1774.7,269.5h24.2v96.7h-24.2V269.5z M1823.1,269.5h24.2v96.7h-24.2V269.5z M1871.4,269.5h24.2v96.7h-24.2V269.5z
M1919.7,269.5h24.2v96.7h-24.2V269.5z M1968.1,269.5h24.2v96.7h-24.2V269.5z M2016.4,269.5h24.2v96.7h-24.2V269.5z M2064.8,269.5
h24.2v96.7h-24.2V269.5z M2113.1,269.5h24.2v96.7h-24.2V269.5z M2161.4,269.5h24.2v96.7h-24.2V269.5z M2209.8,269.5h24.2v96.7
h-24.2V269.5z M2258.1,269.5h24.2v96.7h-24.2V269.5z M2306.4,269.5h24.2v96.7h-24.2V269.5z M2354.8,269.5h24.2v96.7h-24.2V269.5z
M2403.1,269.5h24.2v96.7h-24.2V269.5z M2451.4,269.5h24.2v96.7h-24.2V269.5z M2499.8,269.5h24.2v96.7h-24.2V269.5z M2548.1,269.5
h24.2v96.7h-24.2V269.5z M2596.5,269.5h24.2v96.7h-24.2V269.5z M2644.8,269.5h24.2v96.7h-24.2V269.5z M2693.1,269.5h24.2v96.7
h-24.2V269.5z M2741.5,269.5h24.2v96.7h-24.2V269.5z M2789.8,269.5h24.2v96.7h-24.2V269.5z M2838.1,269.5h24.2v96.7h-24.2V269.5z
M373,269.5h24.2v96.7H373V269.5z"/>
</g>
<g class="brick-group-1">
<path class="small-rect" d="M34.6,390.3h24.2V487H34.6V390.3z M83,390.3h24.2V487H83V390.3z M131.3,390.3h24.2V487h-24.2V390.3z M179.6,390.3h24.2V487
h-24.2V390.3z M228,390.3h24.2V487H228L228,390.3z M276.3,390.3h24.2V487h-24.2V390.3z M324.6,390.3h24.2V487h-24.2V390.3z
M421.3,390.3h24.2V487h-24.2V390.3z M469.6,390.3h24.2V487h-24.2V390.3z M518,390.3h24.2V487H518V390.3z M566.3,390.3h24.2V487
h-24.2V390.3z M614.7,390.3h24.2V487h-24.2V390.3z M663,390.3h24.2V487H663V390.3z M711.3,390.3h24.2V487h-24.2V390.3z
M759.7,390.3h24.2V487h-24.2V390.3z M808,390.3h24.2V487H808V390.3z M856.3,390.3h24.2V487h-24.2V390.3z M904.7,390.3h24.2V487
h-24.2V390.3z M953,390.3h24.2V487H953V390.3z M1001.3,390.3h24.2V487h-24.2V390.3z M1049.7,390.3h24.2V487h-24.2V390.3z
M1098,390.3h24.2V487H1098V390.3z M1146.4,390.3h24.2V487h-24.2V390.3z M1194.7,390.3h24.2V487h-24.2V390.3z M1243,390.3h24.2V487
H1243V390.3z M1291.4,390.3h24.2V487h-24.2V390.3z M1339.7,390.3h24.2V487h-24.2V390.3z M1388,390.3h24.2V487H1388V390.3z
M1436.4,390.3h24.2V487h-24.2V390.3z M1484.7,390.3h24.2V487h-24.2V390.3z M1533,390.3h24.2V487H1533V390.3z M1581.4,390.3h24.2
V487h-24.2V390.3z M1629.7,390.3h24.2V487h-24.2V390.3z M1678.1,390.3h24.2V487h-24.2V390.3z M1726.4,390.3h24.2V487h-24.2V390.3z
M1774.7,390.3h24.2V487h-24.2V390.3z M1823.1,390.3h24.2V487h-24.2V390.3z M1871.4,390.3h24.2V487h-24.2V390.3z M1919.7,390.3
h24.2V487h-24.2V390.3z M1968.1,390.3h24.2V487h-24.2V390.3z M2016.4,390.3h24.2V487h-24.2V390.3z M2064.8,390.3h24.2V487h-24.2
V390.3z M2113.1,390.3h24.2V487h-24.2V390.3z M2161.4,390.3h24.2V487h-24.2V390.3z M2209.8,390.3h24.2V487h-24.2V390.3z
M2258.1,390.3h24.2V487h-24.2V390.3z M2306.4,390.3h24.2V487h-24.2V390.3z M2354.8,390.3h24.2V487h-24.2V390.3z M2403.1,390.3
h24.2V487h-24.2V390.3z M2451.4,390.3h24.2V487h-24.2V390.3z M2499.8,390.3h24.2V487h-24.2V390.3z M2548.1,390.3h24.2V487h-24.2
V390.3z M2596.5,390.3h24.2V487h-24.2V390.3z M2644.8,390.3h24.2V487h-24.2V390.3z M2693.1,390.3h24.2V487h-24.2V390.3z
M2741.5,390.3h24.2V487h-24.2V390.3z M2789.8,390.3h24.2V487h-24.2V390.3z M2838.1,390.3h24.2V487h-24.2V390.3z M373,390.3h24.2
V487H373V390.3z"/>
</g>
<g class="brick-group-1">
<path class="small-rect" d="M34.6,511.1h24.2v96.7H34.6V511.1z M83,511.1h24.2v96.7H83V511.1z M131.3,511.1h24.2v96.7h-24.2V511.1z M179.6,511.1h24.2
v96.7h-24.2V511.1z M228,511.1h24.2v96.7H228L228,511.1z M276.3,511.1h24.2v96.7h-24.2V511.1z M324.6,511.1h24.2v96.7h-24.2V511.1z
M421.3,511.1h24.2v96.7h-24.2V511.1z M469.6,511.1h24.2v96.7h-24.2V511.1z M518,511.1h24.2v96.7H518V511.1z M566.3,511.1h24.2
v96.7h-24.2V511.1z M614.7,511.1h24.2v96.7h-24.2V511.1z M663,511.1h24.2v96.7H663V511.1z M711.3,511.1h24.2v96.7h-24.2V511.1z
M759.7,511.1h24.2v96.7h-24.2V511.1z M808,511.1h24.2v96.7H808V511.1z M856.3,511.1h24.2v96.7h-24.2V511.1z M904.7,511.1h24.2
v96.7h-24.2V511.1z M953,511.1h24.2v96.7H953V511.1z M1001.3,511.1h24.2v96.7h-24.2V511.1z M1049.7,511.1h24.2v96.7h-24.2V511.1z
M1098,511.1h24.2v96.7H1098V511.1z M1146.4,511.1h24.2v96.7h-24.2V511.1z M1194.7,511.1h24.2v96.7h-24.2V511.1z M1243,511.1h24.2
v96.7H1243V511.1z M1291.4,511.1h24.2v96.7h-24.2V511.1z M1339.7,511.1h24.2v96.7h-24.2V511.1z M1388,511.1h24.2v96.7H1388V511.1z
M1436.4,511.1h24.2v96.7h-24.2V511.1z M1484.7,511.1h24.2v96.7h-24.2V511.1z M1533,511.1h24.2v96.7H1533V511.1z M1581.4,511.1
h24.2v96.7h-24.2V511.1z M1629.7,511.1h24.2v96.7h-24.2V511.1z M1678.1,511.1h24.2v96.7h-24.2V511.1z M1726.4,511.1h24.2v96.7
h-24.2V511.1z M1774.7,511.1h24.2v96.7h-24.2V511.1z M1823.1,511.1h24.2v96.7h-24.2V511.1z M1871.4,511.1h24.2v96.7h-24.2V511.1z
M1919.7,511.1h24.2v96.7h-24.2V511.1z M1968.1,511.1h24.2v96.7h-24.2V511.1z M2016.4,511.1h24.2v96.7h-24.2V511.1z M2064.8,511.1
h24.2v96.7h-24.2V511.1z M2113.1,511.1h24.2v96.7h-24.2V511.1z M2161.4,511.1h24.2v96.7h-24.2V511.1z M2209.8,511.1h24.2v96.7
h-24.2V511.1z M2258.1,511.1h24.2v96.7h-24.2V511.1z M2306.4,511.1h24.2v96.7h-24.2V511.1z M2354.8,511.1h24.2v96.7h-24.2V511.1z
M2403.1,511.1h24.2v96.7h-24.2V511.1z M2451.4,511.1h24.2v96.7h-24.2V511.1z M2499.8,511.1h24.2v96.7h-24.2V511.1z M2548.1,511.1
h24.2v96.7h-24.2V511.1z M2596.5,511.1h24.2v96.7h-24.2V511.1z M2644.8,511.1h24.2v96.7h-24.2V511.1z M2693.1,511.1h24.2v96.7
h-24.2V511.1z M2741.5,511.1h24.2v96.7h-24.2V511.1z M2789.8,511.1h24.2v96.7h-24.2V511.1z M2838.1,511.1h24.2v96.7h-24.2V511.1z
M373,511.1h24.2v96.7H373V511.1z"/>
</g>
<g class="brick-group-3 billions-letter-group">
<path fill="#fff" class="billions-item" d="M8.7,366.1h1846.5V632H8.7V366.1z"/>
<path class="billions-letter billions-item" d="M86.4,390.5H34.6v218h53.9c34.3,0,52-18.1,52-51.7v-17.8c0-23-7.2-39.6-25.5-46.7c15.3-7.2,22.1-21.5,22.1-43.9v-7.8
C137.1,407,121.9,390.5,86.4,390.5L86.4,390.5z M84.2,510.4c15.6,0,22.1,6.2,22.1,26.4v19c0,16.2-6.2,21.5-17.8,21.5H68.9v-67
L84.2,510.4z M85.4,421.6c12.1,0,17.4,6.9,17.4,22.4v12.1c0,17.4-7.8,23-20.6,23H68.9v-57.6L85.4,421.6z M162.9,390.5h34.3v218
h-34.3V390.5z M223.8,608.5h90.6v-31.1h-56.4V390.5h-34.3V608.5z M331.2,608.5h90.6v-31.1h-56.4V390.5h-34.3V608.5z M438.9,390.5
h34.3v218h-34.3V390.5z M531.3,440.6c0-15.6,6.9-21.5,17.8-21.5c10.9,0,17.8,5.9,17.8,21.5v117.8c0,15.6-6.9,21.5-17.8,21.5
c-10.9,0-17.8-5.9-17.8-21.5V440.6z M497,556.2c0,34.9,18.4,54.8,52,54.8s52-19.9,52-54.8V442.8c0-34.9-18.4-54.8-52-54.8
s-52,19.9-52,54.8V556.2z M698.1,608.5h35.2v-218h-30.5V521l-35.2-130.5h-43v218h30.8V450.6L698.1,608.5z M755.7,442.8
c0,62.3,67,70.7,67,115.6c0,15.6-6.9,21.1-17.8,21.1c-10.9,0-17.8-5.6-17.8-21.1v-15.6h-32.4v13.4c0,34.9,17.4,54.8,51.1,54.8
c33.7,0,51.1-19.9,51.1-54.8c0-62.3-67-70.7-67-115.6c0-15.6,6.2-21.5,17.1-21.5c10.9,0,17.1,5.9,17.1,21.5v9.1h32.4v-6.9
c0-34.9-17.1-54.8-50.5-54.8S755.7,407.9,755.7,442.8z M956.3,440.6c0-15.6,6.9-21.5,17.8-21.5s17.7,5.9,17.7,21.5v117.8
c0,15.6-6.9,21.5-17.8,21.5s-17.8-5.9-17.8-21.5L956.3,440.6z M922,556.2c0,34.9,18.4,54.8,52,54.8s52-19.9,52-54.8V442.8
c0-34.9-18.4-54.8-52-54.8s-52,19.9-52,54.8V556.2z M1084.2,421.6h56.4v-31.1H1050v218h34.3v-90h44.2v-31.1h-44.2V421.6z
M1203.9,389v166c0,34.9,17.4,54.8,51.1,54.8s51.1-19.9,51.1-54.8V389h-32.4v168.2c0,15.6-6.9,21.1-17.8,21.1
c-10.9,0-17.8-5.6-17.8-21.1V389H1203.9z M1326.8,442.8c0,62.3,67,70.7,67,115.6c0,15.6-6.9,21.1-17.8,21.1
c-10.9,0-17.8-5.6-17.8-21.1v-15.6h-32.4v13.4c0,34.9,17.4,54.8,51.1,54.8c33.7,0,51.1-19.9,51.1-54.8c0-62.3-67-70.7-67-115.6
c0-15.6,6.2-21.5,17.1-21.5s17.1,5.9,17.1,21.5v9.1h32.4v-6.9c0-34.9-17.1-54.8-50.5-54.8S1326.8,407.9,1326.8,442.8L1326.8,442.8z
M1484,421.6h59.2v-31.1h-93.4v218h93.4v-31.1H1484v-63.9h47v-31.1h-47V421.6z M1672.7,608.5c-3.4-8.1-3.7-15.9-3.7-26.4v-33.7
c0-22.7-5.6-39.3-22.7-46.4c15.3-7.2,22.4-21.8,22.4-44.2v-17.2c0-33.6-15.3-50.1-50.8-50.1h-51.7v218h34.3v-88.8h11.8
c15.6,0,22.4,7.5,22.4,27.7v34.3c0,17.8,1.3,21.1,3.1,26.8H1672.7z M1616.9,421.6c12.2,0,17.4,6.9,17.4,22.4v21.5
c0,17.4-7.8,23-20.6,23h-13.4v-67L1616.9,421.6z M1688.8,442.8c0,62.3,67,70.7,67,115.6c0,15.6-6.9,21.1-17.8,21.1
c-10.9,0-17.8-5.6-17.8-21.1v-15.6h-32.4v13.4c0,34.9,17.4,54.8,51.1,54.8c33.7,0,51.1-19.9,51.1-54.8c0-62.3-67-70.7-67-115.6
c0-15.6,6.2-21.5,17.1-21.5s17.1,5.9,17.1,21.5v9.1h32.4v-6.9c0-34.9-17.1-54.8-50.5-54.8S1688.8,407.9,1688.8,442.8L1688.8,442.8z
"/>
</g>
<g class="brick-group-1">
<path class="small-rect" d="M34.6,632h24.2v96.7H34.6V632z M83,632h24.2v96.7H83V632z M131.3,632h24.2v96.7h-24.2V632z M179.6,632h24.2v96.7h-24.2V632
z M228,632h24.2v96.7H228L228,632z M276.3,632h24.2v96.7h-24.2V632z M324.6,632h24.2v96.7h-24.2V632z M421.3,632h24.2v96.7h-24.2
V632z M469.6,632h24.2v96.7h-24.2V632z M518,632h24.2v96.7H518V632z M566.3,632h24.2v96.7h-24.2V632z M614.7,632h24.2v96.7h-24.2
V632z M663,632h24.2v96.7H663V632z M711.3,632h24.2v96.7h-24.2V632z M759.7,632h24.2v96.7h-24.2V632z M808,632h24.2v96.7H808V632z
M856.3,632h24.2v96.7h-24.2V632z M904.7,632h24.2v96.7h-24.2V632z M953,632h24.2v96.7H953V632z M1001.3,632h24.2v96.7h-24.2V632z
M1049.7,632h24.2v96.7h-24.2V632z M1098,632h24.2v96.7H1098V632z M1146.4,632h24.2v96.7h-24.2V632z M1194.7,632h24.2v96.7h-24.2
V632z M1243,632h24.2v96.7H1243V632z M1291.4,632h24.2v96.7h-24.2V632z M1339.7,632h24.2v96.7h-24.2V632z M1388,632h24.2v96.7H1388
V632z M1436.4,632h24.2v96.7h-24.2V632z M1484.7,632h24.2v96.7h-24.2V632z M1533,632h24.2v96.7H1533V632z M1581.4,632h24.2v96.7
h-24.2V632z M1629.7,632h24.2v96.7h-24.2V632z M1678.1,632h24.2v96.7h-24.2V632z M1726.4,632h24.2v96.7h-24.2V632z M1774.7,632
h24.2v96.7h-24.2V632z M1823.1,632h24.2v96.7h-24.2V632z M1871.4,632h24.2v96.7h-24.2V632z M1919.7,632h24.2v96.7h-24.2V632z
M1968.1,632h24.2v96.7h-24.2V632z M2016.4,632h24.2v96.7h-24.2V632z M2064.8,632h24.2v96.7h-24.2V632z M2113.1,632h24.2v96.7
h-24.2V632z M2161.4,632h24.2v96.7h-24.2V632z M2209.8,632h24.2v96.7h-24.2V632z M2258.1,632h24.2v96.7h-24.2V632z M2306.4,632
h24.2v96.7h-24.2V632z M2354.8,632h24.2v96.7h-24.2V632z M2403.1,632h24.2v96.7h-24.2V632z M2451.4,632h24.2v96.7h-24.2V632z
M2499.8,632h24.2v96.7h-24.2V632z M2548.1,632h24.2v96.7h-24.2V632z M2596.5,632h24.2v96.7h-24.2V632z M2644.8,632h24.2v96.7
h-24.2V632z M2693.1,632h24.2v96.7h-24.2V632z M2741.5,632h24.2v96.7h-24.2V632z M2789.8,632h24.2v96.7h-24.2V632z M2838.1,632
h24.2v96.7h-24.2V632z M373,632h24.2v96.7H373V632z M34.6,752.8h24.2v96.7H34.6V752.8z M83,752.8h24.2v96.7H83V752.8z M131.3,752.8
h24.2v96.7h-24.2V752.8z M179.6,752.8h24.2v96.7h-24.2V752.8z M228,752.8h24.2v96.7H228L228,752.8z M276.3,752.8h24.2v96.7h-24.2
V752.8z M324.6,752.8h24.2v96.7h-24.2V752.8z M421.3,752.8h24.2v96.7h-24.2V752.8z M469.6,752.8h24.2v96.7h-24.2V752.8z M518,752.8
h24.2v96.7H518V752.8z M566.3,752.8h24.2v96.7h-24.2V752.8z M614.7,752.8h24.2v96.7h-24.2V752.8z M663,752.8h24.2v96.7H663V752.8z
M711.3,752.8h24.2v96.7h-24.2V752.8z M759.7,752.8h24.2v96.7h-24.2V752.8z M808,752.8h24.2v96.7H808V752.8z M856.3,752.8h24.2
v96.7h-24.2V752.8z M904.7,752.8h24.2v96.7h-24.2V752.8z M953,752.8h24.2v96.7H953V752.8z M1001.3,752.8h24.2v96.7h-24.2V752.8z
M1049.7,752.8h24.2v96.7h-24.2V752.8z M1098,752.8h24.2v96.7H1098V752.8z M1146.4,752.8h24.2v96.7h-24.2V752.8z M1194.7,752.8
h24.2v96.7h-24.2V752.8z M1243,752.8h24.2v96.7H1243V752.8z M1291.4,752.8h24.2v96.7h-24.2V752.8z M1339.7,752.8h24.2v96.7h-24.2
V752.8z M1388,752.8h24.2v96.7H1388V752.8z M1436.4,752.8h24.2v96.7h-24.2V752.8z M1484.7,752.8h24.2v96.7h-24.2V752.8z
M1533,752.8h24.2v96.7H1533V752.8z M1581.4,752.8h24.2v96.7h-24.2V752.8z M1629.7,752.8h24.2v96.7h-24.2V752.8z M1678.1,752.8
h24.2v96.7h-24.2V752.8z M1726.4,752.8h24.2v96.7h-24.2V752.8z M1774.7,752.8h24.2v96.7h-24.2V752.8z M1823.1,752.8h24.2v96.7
h-24.2V752.8z M1871.4,752.8h24.2v96.7h-24.2V752.8z M1919.7,752.8h24.2v96.7h-24.2V752.8z M1968.1,752.8h24.2v96.7h-24.2V752.8z
M2016.4,752.8h24.2v96.7h-24.2V752.8z M2064.8,752.8h24.2v96.7h-24.2V752.8z M2113.1,752.8h24.2v96.7h-24.2V752.8z M2161.4,752.8
h24.2v96.7h-24.2V752.8z M2209.8,752.8h24.2v96.7h-24.2V752.8z M2258.1,752.8h24.2v96.7h-24.2V752.8z M2306.4,752.8h24.2v96.7
h-24.2V752.8z M2354.8,752.8h24.2v96.7h-24.2V752.8z M2403.1,752.8h24.2v96.7h-24.2V752.8z M2451.4,752.8h24.2v96.7h-24.2V752.8z
M2499.8,752.8h24.2v96.7h-24.2V752.8z M2548.1,752.8h24.2v96.7h-24.2V752.8z M2596.5,752.8h24.2v96.7h-24.2V752.8z M2644.8,752.8
h24.2v96.7h-24.2V752.8z M2693.1,752.8h24.2v96.7h-24.2V752.8z M2741.5,752.8h24.2v96.7h-24.2V752.8z M2789.8,752.8h24.2v96.7
h-24.2V752.8z M2838.1,752.8h24.2v96.7h-24.2V752.8z M373,752.8h24.2v96.7H373V752.8z M34.6,873.7h24.2v96.7H34.6V873.7z M83,873.7
h24.2v96.7H83V873.7z M131.3,873.7h24.2v96.7h-24.2V873.7z M179.6,873.7h24.2v96.7h-24.2V873.7z M228,873.7h24.2v96.7H228
L228,873.7z M276.3,873.7h24.2v96.7h-24.2V873.7z M324.6,873.7h24.2v96.7h-24.2V873.7z M421.3,873.7h24.2v96.7h-24.2V873.7z
M469.6,873.7h24.2v96.7h-24.2V873.7z M518,873.7h24.2v96.7H518V873.7z M566.3,873.7h24.2v96.7h-24.2V873.7z M614.7,873.7h24.2
v96.7h-24.2V873.7z M663,873.7h24.2v96.7H663V873.7z M711.3,873.7h24.2v96.7h-24.2V873.7z M759.7,873.7h24.2v96.7h-24.2V873.7z
M808,873.7h24.2v96.7H808V873.7z M856.3,873.7h24.2v96.7h-24.2V873.7z M904.7,873.7h24.2v96.7h-24.2V873.7z M953,873.7h24.2v96.7
H953V873.7z M1001.3,873.7h24.2v96.7h-24.2V873.7z M1049.7,873.7h24.2v96.7h-24.2V873.7z M1098,873.7h24.2v96.7H1098V873.7z
M1146.4,873.7h24.2v96.7h-24.2V873.7z M1194.7,873.7h24.2v96.7h-24.2V873.7z M1243,873.7h24.2v96.7H1243V873.7z M1291.4,873.7
h24.2v96.7h-24.2V873.7z M1339.7,873.7h24.2v96.7h-24.2V873.7z M1388,873.7h24.2v96.7H1388V873.7z M1436.4,873.7h24.2v96.7h-24.2
V873.7z M1484.7,873.7h24.2v96.7h-24.2V873.7z M1533,873.7h24.2v96.7H1533V873.7z M1581.4,873.7h24.2v96.7h-24.2V873.7z
M1629.7,873.7h24.2v96.7h-24.2V873.7z M1678.1,873.7h24.2v96.7h-24.2V873.7z M1726.4,873.7h24.2v96.7h-24.2V873.7z M1774.7,873.7
h24.2v96.7h-24.2V873.7z M1823.1,873.7h24.2v96.7h-24.2V873.7z M1871.4,873.7h24.2v96.7h-24.2V873.7z M1919.7,873.7h24.2v96.7
h-24.2V873.7z M1968.1,873.7h24.2v96.7h-24.2V873.7z M2016.4,873.7h24.2v96.7h-24.2V873.7z M2064.8,873.7h24.2v96.7h-24.2V873.7z
M2113.1,873.7h24.2v96.7h-24.2V873.7z M2161.4,873.7h24.2v96.7h-24.2V873.7z M2209.8,873.7h24.2v96.7h-24.2V873.7z M2258.1,873.7
h24.2v96.7h-24.2V873.7z M2306.4,873.7h24.2v96.7h-24.2V873.7z M2354.8,873.7h24.2v96.7h-24.2V873.7z M2403.1,873.7h24.2v96.7
h-24.2V873.7z M2451.4,873.7h24.2v96.7h-24.2V873.7z M2499.8,873.7h24.2v96.7h-24.2V873.7z M2548.1,873.7h24.2v96.7h-24.2V873.7z
M2596.5,873.7h24.2v96.7h-24.2V873.7z M2644.8,873.7h24.2v96.7h-24.2V873.7z M2693.1,873.7h24.2v96.7h-24.2V873.7z M2741.5,873.7
h24.2v96.7h-24.2V873.7z M2789.8,873.7h24.2v96.7h-24.2V873.7z M2838.1,873.7h24.2v96.7h-24.2V873.7z M373,873.7h24.2v96.7H373
V873.7z"/>
</g>
<g class="brick-group-4 billions-letter-group">
<path fill="#fff" class="billions-item" d="M10.5,728.6h2041.2v286.7H10.5V728.6z"/>
<path class="billions-letter billions-item" d="M82,752.9H34.3v218h29.9V816.8L89.8,971h32.4l23.7-156.4V971h32.4v-218h-47.7l-23.4,154.8L82,752.9L82,752.9z M204.9,752.9
h34.3v218h-34.3L204.9,752.9z M265.9,971h90.6v-31.1h-56.4V752.9h-34.3V971z M373.2,971h90.6v-31.1h-56.4V752.9h-34.3V971z
M480.9,752.9h34.3v218h-34.3V752.9z M573.4,803.1c0-15.6,6.9-21.5,17.8-21.5c10.9,0,17.8,5.9,17.8,21.5v117.8
c0,15.6-6.9,21.5-17.8,21.5c-10.9,0-17.8-5.9-17.8-21.5V803.1z M539,918.6c0,34.9,18.4,54.8,52,54.8s52-19.9,52-54.8V805.3
c0-34.9-18.4-54.8-52-54.8s-52,19.9-52,54.8V918.6z M740.2,971h35.2v-218h-30.5v130.5l-35.2-130.5h-43v218h30.8V813.1L740.2,971
L740.2,971z M797.8,805.3c0,62.3,67,70.7,67,115.6c0,15.6-6.9,21.1-17.8,21.1c-10.9,0-17.8-5.6-17.8-21.1v-15.6h-32.4v13.3
c0,34.9,17.4,54.8,51.1,54.8s51.1-19.9,51.1-54.8c0-62.3-67-70.7-67-115.6c0-15.6,6.2-21.5,17.1-21.5s17.1,5.9,17.1,21.5v9h32.4
v-6.8c0-34.9-17.1-54.8-50.5-54.8C814.9,750.4,797.8,770.4,797.8,805.3L797.8,805.3z M998.4,803.1c0-15.6,6.9-21.5,17.8-21.5
c10.9,0,17.8,5.9,17.8,21.5v117.8c0,15.6-6.9,21.5-17.8,21.5c-10.9,0-17.8-5.9-17.8-21.5V803.1z M964.1,918.6
c0,34.9,18.4,54.8,52,54.8c33.7,0,52-19.9,52-54.8V805.3c0-34.9-18.4-54.8-52-54.8c-33.7,0-52,19.9-52,54.8V918.6z M1126.3,784.1
h56.4v-31.1H1092v218h34.3v-90h44.2v-31.1h-44.2V784.1z M1247.5,971h54.2c34.3,0,51.1-19,51.1-53.9V806.8
c0-34.9-16.8-53.9-51.1-53.9h-54.2V971z M1301,784.1c10.9,0,17.4,5.6,17.4,21.1v113.4c0,15.6-6.5,21.1-17.4,21.1h-19.4V784
L1301,784.1z M1407.8,803.1c0-15.6,6.9-21.5,17.8-21.5c10.9,0,17.8,5.9,17.8,21.5v117.8c0,15.6-6.9,21.5-17.8,21.5
c-10.9,0-17.8-5.9-17.8-21.5V803.1z M1373.5,918.6c0,34.9,18.4,54.8,52,54.8s52-19.9,52-54.8V805.3c0-34.9-18.4-54.8-52-54.8
s-52,19.9-52,54.8V918.6z M1575,971h35.2v-218h-30.5v130.5l-35.2-130.5h-43v218h30.8V813.1L1575,971L1575,971z M1668,803.1
c0-15.6,6.9-21.5,17.8-21.5c10.9,0,17.8,5.9,17.8,21.5v117.8c0,15.6-6.9,21.5-17.8,21.5c-10.9,0-17.8-5.9-17.8-21.5L1668,803.1z
M1633.7,918.6c0,34.9,18.4,54.8,52,54.8s52-19.9,52-54.8V805.3c0-34.9-18.4-54.8-52-54.8s-52,19.9-52,54.8V918.6z M1868.2,971
c-3.4-8.1-3.7-15.9-3.7-26.4v-33.7c0-22.8-5.6-39.3-22.7-46.4c15.3-7.2,22.4-21.8,22.4-44.2v-17.1c0-33.7-15.3-50.1-50.8-50.1
h-51.6v218h34.3v-88.8h11.8c15.6,0,22.4,7.5,22.4,27.7v34.3c0,17.7,1.3,21.1,3.1,26.8H1868.2z M1812.4,784.1
c12.1,0,17.4,6.8,17.4,22.4V828c0,17.4-7.8,23-20.6,23h-13.4v-67H1812.4z M1884.6,805.3c0,62.3,67,70.7,67,115.6
c0,15.6-6.9,21.1-17.8,21.1c-10.9,0-17.8-5.6-17.8-21.1v-15.6h-32.4v13.3c0,34.9,17.4,54.8,51.1,54.8c33.7,0,51.1-19.9,51.1-54.8
c0-62.3-67-70.7-67-115.6c0-15.6,6.2-21.5,17.1-21.5s17.1,5.9,17.1,21.5v9h32.3v-6.8c0-34.9-17.1-54.8-50.5-54.8
C1901.7,750.4,1884.6,770.4,1884.6,805.3z"/>
</g>
<g class="brick-group-1">
<path class="small-rect" d="M34.6,994.5h24.2v96.7H34.6V994.5z M83,994.5h24.2v96.7H83V994.5z M131.3,994.5h24.2v96.7h-24.2V994.5z M179.6,994.5h24.2
v96.7h-24.2V994.5z M228,994.5h24.2v96.7H228L228,994.5z M276.3,994.5h24.2v96.7h-24.2V994.5z M324.6,994.5h24.2v96.7h-24.2V994.5z
M421.3,994.5h24.2v96.7h-24.2V994.5z M469.6,994.5h24.2v96.7h-24.2V994.5z M518,994.5h24.2v96.7H518V994.5z M566.3,994.5h24.2
v96.7h-24.2V994.5z M614.7,994.5h24.2v96.7h-24.2V994.5z M663,994.5h24.2v96.7H663V994.5z M711.3,994.5h24.2v96.7h-24.2V994.5z
M759.7,994.5h24.2v96.7h-24.2V994.5z M808,994.5h24.2v96.7H808V994.5z M856.3,994.5h24.2v96.7h-24.2V994.5z M904.7,994.5h24.2
v96.7h-24.2V994.5z M953,994.5h24.2v96.7H953V994.5z M1001.3,994.5h24.2v96.7h-24.2V994.5z M1049.7,994.5h24.2v96.7h-24.2V994.5z
M1098,994.5h24.2v96.7H1098V994.5z M1146.4,994.5h24.2v96.7h-24.2V994.5z M1194.7,994.5h24.2v96.7h-24.2V994.5z M1243,994.5h24.2
v96.7H1243V994.5z M1291.4,994.5h24.2v96.7h-24.2V994.5z M1339.7,994.5h24.2v96.7h-24.2V994.5z M1388,994.5h24.2v96.7H1388V994.5z
M1436.4,994.5h24.2v96.7h-24.2V994.5z M1484.7,994.5h24.2v96.7h-24.2V994.5z M1533,994.5h24.2v96.7H1533V994.5z M1581.4,994.5
h24.2v96.7h-24.2V994.5z M1629.7,994.5h24.2v96.7h-24.2V994.5z M1678.1,994.5h24.2v96.7h-24.2V994.5z M1726.4,994.5h24.2v96.7
h-24.2V994.5z M1774.7,994.5h24.2v96.7h-24.2V994.5z M1823.1,994.5h24.2v96.7h-24.2V994.5z M1871.4,994.5h24.2v96.7h-24.2V994.5z
M1919.7,994.5h24.2v96.7h-24.2V994.5z M1968.1,994.5h24.2v96.7h-24.2V994.5z M2016.4,994.5h24.2v96.7h-24.2V994.5z M2064.8,994.5
h24.2v96.7h-24.2V994.5z M2113.1,994.5h24.2v96.7h-24.2V994.5z M2161.4,994.5h24.2v96.7h-24.2V994.5z M2209.8,994.5h24.2v96.7
h-24.2V994.5z M2258.1,994.5h24.2v96.7h-24.2V994.5z M2306.4,994.5h24.2v96.7h-24.2V994.5z M2354.8,994.5h24.2v96.7h-24.2V994.5z
M2403.1,994.5h24.2v96.7h-24.2V994.5z M2451.4,994.5h24.2v96.7h-24.2V994.5z M2499.8,994.5h24.2v96.7h-24.2V994.5z M2548.1,994.5
h24.2v96.7h-24.2V994.5z M2596.5,994.5h24.2v96.7h-24.2V994.5z M2644.8,994.5h24.2v96.7h-24.2V994.5z M2693.1,994.5h24.2v96.7
h-24.2V994.5z M2741.5,994.5h24.2v96.7h-24.2V994.5z M2789.8,994.5h24.2v96.7h-24.2V994.5z M2838.1,994.5h24.2v96.7h-24.2V994.5z
M373,994.5h24.2v96.7H373V994.5z M34.6,1115.3h24.2v96.7H34.6V1115.3z M83,1115.3h24.2v96.7H83V1115.3z M131.3,1115.3h24.2v96.7
h-24.2V1115.3z M179.6,1115.3h24.2v96.7h-24.2V1115.3z M228,1115.3h24.2v96.7H228L228,1115.3z M276.3,1115.3h24.2v96.7h-24.2
V1115.3z M324.6,1115.3h24.2v96.7h-24.2V1115.3z M421.3,1115.3h24.2v96.7h-24.2V1115.3z M469.6,1115.3h24.2v96.7h-24.2V1115.3z
M518,1115.3h24.2v96.7H518V1115.3z M566.3,1115.3h24.2v96.7h-24.2V1115.3z M614.7,1115.3h24.2v96.7h-24.2V1115.3z M663,1115.3
h24.2v96.7H663V1115.3z M711.3,1115.3h24.2v96.7h-24.2V1115.3z M759.7,1115.3h24.2v96.7h-24.2V1115.3z M808,1115.3h24.2v96.7H808
V1115.3z M856.3,1115.3h24.2v96.7h-24.2V1115.3z M904.7,1115.3h24.2v96.7h-24.2V1115.3z M953,1115.3h24.2v96.7H953V1115.3z
M1001.3,1115.3h24.2v96.7h-24.2V1115.3z M1049.7,1115.3h24.2v96.7h-24.2V1115.3z M1098,1115.3h24.2v96.7H1098V1115.3z
M1146.4,1115.3h24.2v96.7h-24.2V1115.3z M1194.7,1115.3h24.2v96.7h-24.2V1115.3z M1243,1115.3h24.2v96.7H1243V1115.3z
M1291.4,1115.3h24.2v96.7h-24.2V1115.3z M1339.7,1115.3h24.2v96.7h-24.2V1115.3z M1388,1115.3h24.2v96.7H1388V1115.3z
M1436.4,1115.3h24.2v96.7h-24.2V1115.3z M1484.7,1115.3h24.2v96.7h-24.2V1115.3z M1533,1115.3h24.2v96.7H1533V1115.3z
M1581.4,1115.3h24.2v96.7h-24.2V1115.3z M1629.7,1115.3h24.2v96.7h-24.2V1115.3z M1678.1,1115.3h24.2v96.7h-24.2V1115.3z
M1726.4,1115.3h24.2v96.7h-24.2V1115.3z M1774.7,1115.3h24.2v96.7h-24.2V1115.3z M1823.1,1115.3h24.2v96.7h-24.2V1115.3z
M1871.4,1115.3h24.2v96.7h-24.2V1115.3z M1919.7,1115.3h24.2v96.7h-24.2V1115.3z M1968.1,1115.3h24.2v96.7h-24.2V1115.3z
M2016.4,1115.3h24.2v96.7h-24.2V1115.3z M2064.8,1115.3h24.2v96.7h-24.2V1115.3z M2113.1,1115.3h24.2v96.7h-24.2V1115.3z
M2161.4,1115.3h24.2v96.7h-24.2V1115.3z M2209.8,1115.3h24.2v96.7h-24.2V1115.3z M2258.1,1115.3h24.2v96.7h-24.2V1115.3z
M2306.4,1115.3h24.2v96.7h-24.2V1115.3z M2354.8,1115.3h24.2v96.7h-24.2V1115.3z M2403.1,1115.3h24.2v96.7h-24.2V1115.3z
M2451.4,1115.3h24.2v96.7h-24.2V1115.3z M2499.8,1115.3h24.2v96.7h-24.2V1115.3z M2548.1,1115.3h24.2v96.7h-24.2V1115.3z
M2596.5,1115.3h24.2v96.7h-24.2V1115.3z M2644.8,1115.3h24.2v96.7h-24.2V1115.3z M2693.1,1115.3h24.2v96.7h-24.2V1115.3z
M2741.5,1115.3h24.2v96.7h-24.2V1115.3z M2789.8,1115.3h24.2v96.7h-24.2V1115.3z M2838.1,1115.3h24.2v96.7h-24.2V1115.3z
M373,1115.3h24.2v96.7H373V1115.3z M34.6,1236.2h24.2v96.7H34.6V1236.2z M83,1236.2h24.2v96.7H83V1236.2z M131.3,1236.2h24.2v96.7
h-24.2V1236.2z M179.6,1236.2h24.2v96.7h-24.2V1236.2z M228,1236.2h24.2v96.7H228L228,1236.2z M276.3,1236.2h24.2v96.7h-24.2
V1236.2z M324.6,1236.2h24.2v96.7h-24.2V1236.2z M421.3,1236.2h24.2v96.7h-24.2V1236.2z M469.6,1236.2h24.2v96.7h-24.2V1236.2z
M518,1236.2h24.2v96.7H518V1236.2z M566.3,1236.2h24.2v96.7h-24.2V1236.2z M614.7,1236.2h24.2v96.7h-24.2V1236.2z M663,1236.2
h24.2v96.7H663V1236.2z M711.3,1236.2h24.2v96.7h-24.2V1236.2z M759.7,1236.2h24.2v96.7h-24.2V1236.2z M808,1236.2h24.2v96.7H808
V1236.2z M856.3,1236.2h24.2v96.7h-24.2V1236.2z M904.7,1236.2h24.2v96.7h-24.2V1236.2z M953,1236.2h24.2v96.7H953V1236.2z
M1001.3,1236.2h24.2v96.7h-24.2V1236.2z M1049.7,1236.2h24.2v96.7h-24.2V1236.2z M1098,1236.2h24.2v96.7H1098V1236.2z
M1146.4,1236.2h24.2v96.7h-24.2V1236.2z M1194.7,1236.2h24.2v96.7h-24.2V1236.2z M1243,1236.2h24.2v96.7H1243V1236.2z
M1291.4,1236.2h24.2v96.7h-24.2V1236.2z M1339.7,1236.2h24.2v96.7h-24.2V1236.2z M1388,1236.2h24.2v96.7H1388V1236.2z
M1436.4,1236.2h24.2v96.7h-24.2V1236.2z M1484.7,1236.2h24.2v96.7h-24.2V1236.2z M1533,1236.2h24.2v96.7H1533V1236.2z
M1581.4,1236.2h24.2v96.7h-24.2V1236.2z M1629.7,1236.2h24.2v96.7h-24.2V1236.2z M1678.1,1236.2h24.2v96.7h-24.2V1236.2z
M1726.4,1236.2h24.2v96.7h-24.2V1236.2z M1774.7,1236.2h24.2v96.7h-24.2V1236.2z M1823.1,1236.2h24.2v96.7h-24.2V1236.2z
M1871.4,1236.2h24.2v96.7h-24.2V1236.2z M1919.7,1236.2h24.2v96.7h-24.2V1236.2z M1968.1,1236.2h24.2v96.7h-24.2V1236.2z
M2016.4,1236.2h24.2v96.7h-24.2V1236.2z M2064.8,1236.2h24.2v96.7h-24.2V1236.2z M2113.1,1236.2h24.2v96.7h-24.2V1236.2z
M2161.4,1236.2h24.2v96.7h-24.2V1236.2z M2209.8,1236.2h24.2v96.7h-24.2V1236.2z M2258.1,1236.2h24.2v96.7h-24.2V1236.2z
M2306.4,1236.2h24.2v96.7h-24.2V1236.2z M2354.8,1236.2h24.2v96.7h-24.2V1236.2z M2403.1,1236.2h24.2v96.7h-24.2V1236.2z
M2451.4,1236.2h24.2v96.7h-24.2V1236.2z M2499.8,1236.2h24.2v96.7h-24.2V1236.2z M2548.1,1236.2h24.2v96.7h-24.2V1236.2z
M2596.5,1236.2h24.2v96.7h-24.2V1236.2z M2644.8,1236.2h24.2v96.7h-24.2V1236.2z M2693.1,1236.2h24.2v96.7h-24.2V1236.2z
M2741.5,1236.2h24.2v96.7h-24.2V1236.2z M2789.8,1236.2h24.2v96.7h-24.2V1236.2z M2838.1,1236.2h24.2v96.7h-24.2V1236.2z
M373,1236.2h24.2v96.7H373V1236.2z"/>
</g>
<g class="brick-group-5 billions-letter-group">
<path fill="#fff" class="billions-item" d="M0,1091.2h2730V1346H0V1091.2z"/>
<path class="billions-letter billions-item" d="M24.7,1143.9h35.8v186.9h34.3v-186.9h35.8v-31.1H24.7V1143.9z M181.6,1237.4h38.9v93.4h34.9v-218h-34.9v93.4h-38.9v-93.4
h-34.3v218h34.3C181.6,1330.8,181.6,1237.4,181.6,1237.4z M313.5,1162.9c0-15.6,6.9-21.5,17.8-21.5s17.8,5.9,17.8,21.5v117.7
c0,15.6-6.9,21.5-17.8,21.5s-17.8-5.9-17.8-21.5V1162.9z M279.3,1278.5c0,34.9,18.4,54.8,52,54.8s52-19.9,52-54.8v-113.4
c0-34.9-18.4-54.8-52-54.8s-52,19.9-52,54.8V1278.5z M405.6,1111.4v166c0,34.9,17.4,54.8,51.1,54.8s51.1-19.9,51.1-54.8v-166h-32.4
v168.2c0,15.6-6.9,21.1-17.8,21.1s-17.8-5.6-17.8-21.1v-168.2H405.6z M528.9,1165.1c0,62.3,67,70.7,67,115.5
c0,15.6-6.9,21.1-17.8,21.1c-10.9,0-17.8-5.6-17.8-21.1v-15.6H528v13.4c0,34.9,17.4,54.8,51.1,54.8c33.7,0,51.1-19.9,51.1-54.8
c0-62.3-67-70.7-67-115.5c0-15.6,6.2-21.5,17.1-21.5c10.9,0,17.1,5.9,17.1,21.5v9h32.4v-6.8c0-34.9-17.1-54.8-50.5-54.8
C546.1,1110.4,528.9,1130.2,528.9,1165.1z M727.5,1112.8h-50.1l-34.9,218H674l6-39.6H722l5.9,39.6h34.5L727.5,1112.8z
M700.8,1151.4l16.5,110.3h-33L700.8,1151.4z M853.3,1330.8h35.2v-218h-30.5v130.5l-35.2-130.5h-43v218h30.9v-157.9L853.3,1330.8
L853.3,1330.8z M915.2,1330.8h54.2c34.3,0,51.1-19,51.1-53.9v-110.3c0-34.9-16.8-53.9-51.1-53.9h-54.2V1330.8z M968.8,1143.9
c10.9,0,17.4,5.6,17.4,21.1v113.5c0,15.6-6.5,21.1-17.4,21.1h-19.2v-155.7H968.8z M1039.7,1165.1c0,62.3,67,70.7,67,115.5
c0,15.6-6.9,21.1-17.8,21.1c-10.9,0-17.8-5.6-17.8-21.1v-15.6h-32.4v13.4c0,34.9,17.4,54.8,51.1,54.8c33.7,0,51.1-19.9,51.1-54.8
c0-62.3-67-70.7-67-115.5c0-15.6,6.2-21.5,17.1-21.5s17.1,5.9,17.1,21.5v9h32.4v-6.8c0-34.9-17.1-54.8-50.5-54.8
S1039.7,1130.2,1039.7,1165.1L1039.7,1165.1z M1240.2,1162.9c0-15.6,6.9-21.5,17.8-21.5c10.9,0,17.8,5.9,17.8,21.5v117.7
c0,15.6-6.9,21.5-17.8,21.5c-10.9,0-17.8-5.9-17.8-21.5V1162.9z M1206,1278.5c0,34.9,18.4,54.8,52,54.8c33.6,0,52-19.9,52-54.8
v-113.4c0-34.9-18.4-54.8-52-54.8s-52,19.9-52,54.8V1278.5z M1368.2,1143.9h56.4v-31.1H1334v218h34.3v-90h44.2v-31.1h-44.2V1143.9
L1368.2,1143.9z M1514.9,1112.8h-34.6l33.6,218h51.1l33.7-218h-31.5l-26.2,177.8L1514.9,1112.8L1514.9,1112.8z M1647.9,1162.9
c0-15.6,6.9-21.5,17.8-21.5s17.8,5.9,17.8,21.5v117.7c0,15.6-6.9,21.5-17.8,21.5s-17.8-5.9-17.8-21.5V1162.9z M1613.6,1278.5
c0,34.9,18.4,54.8,52,54.8s52.1-20,52.1-54.8v-113.4c0-34.9-18.4-54.8-52-54.8s-52,19.9-52,54.8L1613.6,1278.5z M1741.5,1330.8
h90.6v-31.1h-56.4v-186.9h-34.3L1741.5,1330.8L1741.5,1330.8z M1847.3,1111.4v166c0,34.9,17.4,54.8,51.1,54.8
c33.7,0,51.1-19.9,51.1-54.8v-166h-32.4v168.2c0,15.6-6.9,21.1-17.8,21.1c-10.9,0-17.8-5.6-17.8-21.1v-168.2H1847.3z
M2048.2,1330.8h35.2v-218h-30.5v130.5l-35.2-130.5h-43v218h30.8v-157.9L2048.2,1330.8z M2099.8,1143.9h35.8v186.9h34.3v-186.9
h35.8v-31.1h-105.9V1143.9L2099.8,1143.9z M2256.7,1143.9h59.2v-31.1h-93.4v218h93.4v-31.1h-59.2v-63.9h47v-31.1h-47V1143.9z
M2373.1,1143.9h59.2v-31.1h-93.4v218h93.4v-31.1h-59.2v-63.9h47v-31.1h-47V1143.9z M2562.1,1330.8c-3.4-8.1-3.7-15.9-3.7-26.4
v-33.7c0-22.7-5.6-39.2-22.7-46.4c15.3-7.2,22.4-21.8,22.4-44.2V1163c0-33.7-15.3-50.1-50.8-50.1h-51.7v218h34.3V1242h11.8
c15.6,0,22.4,7.5,22.4,27.7v34.3c0,17.8,1.3,21.1,3.1,26.8H2562.1z M2506.3,1143.9c12.1,0,17.4,6.8,17.4,22.4v21.5
c0,17.4-7.8,23-20.6,23h-13.4v-67H2506.3z M2578.2,1165.1c0,62.3,67,70.7,67,115.5c0,15.6-6.9,21.1-17.8,21.1s-17.8-5.6-17.8-21.1
v-15.6h-32.4v13.4c0,34.9,17.4,54.8,51.1,54.8s51.1-19.9,51.1-54.8c0-62.3-67-70.7-67-115.5c0-15.6,6.2-21.5,17.1-21.5
s17.1,5.9,17.1,21.5v9h32.4v-6.8c0-34.9-17.1-54.8-50.5-54.8C2595.3,1110.4,2578.2,1130.2,2578.2,1165.1z"/>
</g>
<g class="brick-group-1">
<path class="small-rect" d="M34.6,1357h24.2v96.7H34.6V1357z M83,1357h24.2v96.7H83V1357z M131.3,1357h24.2v96.7h-24.2V1357z M179.6,1357h24.2v96.7
h-24.2V1357z M228,1357h24.2v96.7H228L228,1357z M276.3,1357h24.2v96.7h-24.2V1357z M324.6,1357h24.2v96.7h-24.2V1357z M421.3,1357
h24.2v96.7h-24.2V1357z M469.6,1357h24.2v96.7h-24.2V1357z M518,1357h24.2v96.7H518V1357z M566.3,1357h24.2v96.7h-24.2V1357z
M614.7,1357h24.2v96.7h-24.2V1357z M663,1357h24.2v96.7H663V1357z M711.3,1357h24.2v96.7h-24.2V1357z M759.7,1357h24.2v96.7h-24.2
V1357z M808,1357h24.2v96.7H808V1357z M856.3,1357h24.2v96.7h-24.2V1357z M904.7,1357h24.2v96.7h-24.2V1357z M953,1357h24.2v96.7
H953V1357z M1001.3,1357h24.2v96.7h-24.2V1357z M1049.7,1357h24.2v96.7h-24.2V1357z M1098,1357h24.2v96.7H1098V1357z M1146.4,1357
h24.2v96.7h-24.2V1357z M1194.7,1357h24.2v96.7h-24.2V1357z M1243,1357h24.2v96.7H1243V1357z M1291.4,1357h24.2v96.7h-24.2V1357z
M1339.7,1357h24.2v96.7h-24.2V1357z M1388,1357h24.2v96.7H1388V1357z M1436.4,1357h24.2v96.7h-24.2V1357z M1484.7,1357h24.2v96.7
h-24.2V1357z M1533,1357h24.2v96.7H1533V1357z M1581.4,1357h24.2v96.7h-24.2V1357z M1629.7,1357h24.2v96.7h-24.2V1357z
M1678.1,1357h24.2v96.7h-24.2V1357z M1726.4,1357h24.2v96.7h-24.2V1357z M1774.7,1357h24.2v96.7h-24.2V1357z M1823.1,1357h24.2
v96.7h-24.2V1357z M1871.4,1357h24.2v96.7h-24.2V1357z M1919.7,1357h24.2v96.7h-24.2V1357z M1968.1,1357h24.2v96.7h-24.2V1357z
M2016.4,1357h24.2v96.7h-24.2V1357z M2064.8,1357h24.2v96.7h-24.2V1357z M2113.1,1357h24.2v96.7h-24.2V1357z M2161.4,1357h24.2
v96.7h-24.2V1357z M2209.8,1357h24.2v96.7h-24.2V1357z M2258.1,1357h24.2v96.7h-24.2V1357z M2306.4,1357h24.2v96.7h-24.2V1357z
M2354.8,1357h24.2v96.7h-24.2V1357z M2403.1,1357h24.2v96.7h-24.2V1357z M2451.4,1357h24.2v96.7h-24.2V1357z M2499.8,1357h24.2
v96.7h-24.2V1357z M2548.1,1357h24.2v96.7h-24.2V1357z M2596.5,1357h24.2v96.7h-24.2V1357z M2644.8,1357h24.2v96.7h-24.2V1357z
M2693.1,1357h24.2v96.7h-24.2V1357z M2741.5,1357h24.2v96.7h-24.2V1357z M2789.8,1357h24.2v96.7h-24.2V1357z M2838.1,1357h24.2
v96.7h-24.2V1357z M373,1357h24.2v96.7H373V1357z M34.6,1477.8h24.2v96.7H34.6V1477.8z M83,1477.8h24.2v96.7H83V1477.8z
M131.3,1477.8h24.2v96.7h-24.2V1477.8z M179.6,1477.8h24.2v96.7h-24.2V1477.8z M228,1477.8h24.2v96.7H228L228,1477.8z
M276.3,1477.8h24.2v96.7h-24.2V1477.8z M324.6,1477.8h24.2v96.7h-24.2V1477.8z M421.3,1477.8h24.2v96.7h-24.2V1477.8z
M469.6,1477.8h24.2v96.7h-24.2V1477.8z M518,1477.8h24.2v96.7H518V1477.8z M566.3,1477.8h24.2v96.7h-24.2V1477.8z M614.7,1477.8
h24.2v96.7h-24.2V1477.8z M663,1477.8h24.2v96.7H663V1477.8z M711.3,1477.8h24.2v96.7h-24.2V1477.8z M759.7,1477.8h24.2v96.7h-24.2
V1477.8z M808,1477.8h24.2v96.7H808V1477.8z M856.3,1477.8h24.2v96.7h-24.2V1477.8z M904.7,1477.8h24.2v96.7h-24.2V1477.8z
M953,1477.8h24.2v96.7H953V1477.8z M1001.3,1477.8h24.2v96.7h-24.2V1477.8z M1049.7,1477.8h24.2v96.7h-24.2V1477.8z M1098,1477.8
h24.2v96.7H1098V1477.8z M1146.4,1477.8h24.2v96.7h-24.2V1477.8z M1194.7,1477.8h24.2v96.7h-24.2V1477.8z M1243,1477.8h24.2v96.7
H1243V1477.8z M1291.4,1477.8h24.2v96.7h-24.2V1477.8z M1339.7,1477.8h24.2v96.7h-24.2V1477.8z M1388,1477.8h24.2v96.7H1388V1477.8
z M1436.4,1477.8h24.2v96.7h-24.2V1477.8z M1484.7,1477.8h24.2v96.7h-24.2V1477.8z M1533,1477.8h24.2v96.7H1533V1477.8z
M1581.4,1477.8h24.2v96.7h-24.2V1477.8z M1629.7,1477.8h24.2v96.7h-24.2V1477.8z M1678.1,1477.8h24.2v96.7h-24.2V1477.8z
M1726.4,1477.8h24.2v96.7h-24.2V1477.8z M1774.7,1477.8h24.2v96.7h-24.2V1477.8z M1823.1,1477.8h24.2v96.7h-24.2V1477.8z
M1871.4,1477.8h24.2v96.7h-24.2V1477.8z M1919.7,1477.8h24.2v96.7h-24.2V1477.8z M1968.1,1477.8h24.2v96.7h-24.2V1477.8z
M2016.4,1477.8h24.2v96.7h-24.2V1477.8z M2064.8,1477.8h24.2v96.7h-24.2V1477.8z M2113.1,1477.8h24.2v96.7h-24.2V1477.8z
M2161.4,1477.8h24.2v96.7h-24.2V1477.8z M2209.8,1477.8h24.2v96.7h-24.2V1477.8z M2258.1,1477.8h24.2v96.7h-24.2V1477.8z
M2306.4,1477.8h24.2v96.7h-24.2V1477.8z M2354.8,1477.8h24.2v96.7h-24.2V1477.8z M2403.1,1477.8h24.2v96.7h-24.2V1477.8z
M2451.4,1477.8h24.2v96.7h-24.2V1477.8z M2499.8,1477.8h24.2v96.7h-24.2V1477.8z M2548.1,1477.8h24.2v96.7h-24.2V1477.8z
M2596.5,1477.8h24.2v96.7h-24.2V1477.8z M2644.8,1477.8h24.2v96.7h-24.2V1477.8z M2693.1,1477.8h24.2v96.7h-24.2V1477.8z
M2741.5,1477.8h24.2v96.7h-24.2V1477.8z M2789.8,1477.8h24.2v96.7h-24.2V1477.8z M2838.1,1477.8h24.2v96.7h-24.2V1477.8z
M373,1477.8h24.2v96.7H373V1477.8z M34.6,1598.7h24.2v96.7H34.6V1598.7z M83,1598.7h24.2v96.7H83V1598.7z M131.3,1598.7h24.2v96.7
h-24.2V1598.7z M179.6,1598.7h24.2v96.7h-24.2V1598.7z M228,1598.7h24.2v96.7H228L228,1598.7z M276.3,1598.7h24.2v96.7h-24.2
V1598.7z M324.6,1598.7h24.2v96.7h-24.2V1598.7z M421.3,1598.7h24.2v96.7h-24.2V1598.7z M469.6,1598.7h24.2v96.7h-24.2V1598.7z
M518,1598.7h24.2v96.7H518V1598.7z M566.3,1598.7h24.2v96.7h-24.2V1598.7z M614.7,1598.7h24.2v96.7h-24.2V1598.7z M663,1598.7
h24.2v96.7H663V1598.7z M711.3,1598.7h24.2v96.7h-24.2V1598.7z M759.7,1598.7h24.2v96.7h-24.2V1598.7z M808,1598.7h24.2v96.7H808
V1598.7z M856.3,1598.7h24.2v96.7h-24.2V1598.7z M904.7,1598.7h24.2v96.7h-24.2V1598.7z M953,1598.7h24.2v96.7H953V1598.7z
M1001.3,1598.7h24.2v96.7h-24.2V1598.7z M1049.7,1598.7h24.2v96.7h-24.2V1598.7z M1098,1598.7h24.2v96.7H1098V1598.7z
M1146.4,1598.7h24.2v96.7h-24.2V1598.7z M1194.7,1598.7h24.2v96.7h-24.2V1598.7z M1243,1598.7h24.2v96.7H1243V1598.7z
M1291.4,1598.7h24.2v96.7h-24.2V1598.7z M1339.7,1598.7h24.2v96.7h-24.2V1598.7z M1388,1598.7h24.2v96.7H1388V1598.7z
M1436.4,1598.7h24.2v96.7h-24.2V1598.7z M1484.7,1598.7h24.2v96.7h-24.2V1598.7z M1533,1598.7h24.2v96.7H1533V1598.7z
M1581.4,1598.7h24.2v96.7h-24.2V1598.7z M1629.7,1598.7h24.2v96.7h-24.2V1598.7z M1678.1,1598.7h24.2v96.7h-24.2V1598.7z
M1726.4,1598.7h24.2v96.7h-24.2V1598.7z M1774.7,1598.7h24.2v96.7h-24.2V1598.7z M1823.1,1598.7h24.2v96.7h-24.2V1598.7z
M1871.4,1598.7h24.2v96.7h-24.2V1598.7z M1919.7,1598.7h24.2v96.7h-24.2V1598.7z M1968.1,1598.7h24.2v96.7h-24.2V1598.7z
M2016.4,1598.7h24.2v96.7h-24.2V1598.7z M2064.8,1598.7h24.2v96.7h-24.2V1598.7z M2113.1,1598.7h24.2v96.7h-24.2V1598.7z
M2161.4,1598.7h24.2v96.7h-24.2V1598.7z M2209.8,1598.7h24.2v96.7h-24.2V1598.7z M2258.1,1598.7h24.2v96.7h-24.2V1598.7z
M2306.4,1598.7h24.2v96.7h-24.2V1598.7z M2354.8,1598.7h24.2v96.7h-24.2V1598.7z M2403.1,1598.7h24.2v96.7h-24.2V1598.7z
M2451.4,1598.7h24.2v96.7h-24.2V1598.7z M2499.8,1598.7h24.2v96.7h-24.2V1598.7z M2548.1,1598.7h24.2v96.7h-24.2V1598.7z
M2596.5,1598.7h24.2v96.7h-24.2V1598.7z M2644.8,1598.7h24.2v96.7h-24.2V1598.7z M2693.1,1598.7h24.2v96.7h-24.2V1598.7z
M2741.5,1598.7h24.2v96.7h-24.2V1598.7z M2789.8,1598.7h24.2v96.7h-24.2V1598.7z M2838.1,1598.7h24.2v96.7h-24.2V1598.7z
M373,1598.7h24.2v96.7H373V1598.7z M34.6,1719.5h24.2v96.7H34.6V1719.5z M83,1719.5h24.2v96.7H83V1719.5z M131.3,1719.5h24.2v96.7
h-24.2V1719.5z M179.6,1719.5h24.2v96.7h-24.2V1719.5z M228,1719.5h24.2v96.7H228L228,1719.5z M276.3,1719.5h24.2v96.7h-24.2
V1719.5z M324.6,1719.5h24.2v96.7h-24.2V1719.5z M421.3,1719.5h24.2v96.7h-24.2V1719.5z M469.6,1719.5h24.2v96.7h-24.2V1719.5z
M518,1719.5h24.2v96.7H518V1719.5z M566.3,1719.5h24.2v96.7h-24.2V1719.5z M614.7,1719.5h24.2v96.7h-24.2V1719.5z M663,1719.5
h24.2v96.7H663V1719.5z M711.3,1719.5h24.2v96.7h-24.2V1719.5z M759.7,1719.5h24.2v96.7h-24.2V1719.5z M808,1719.5h24.2v96.7H808
V1719.5z M856.3,1719.5h24.2v96.7h-24.2V1719.5z M904.7,1719.5h24.2v96.7h-24.2V1719.5z M953,1719.5h24.2v96.7H953V1719.5z
M1001.3,1719.5h24.2v96.7h-24.2V1719.5z M1049.7,1719.5h24.2v96.7h-24.2V1719.5z M1098,1719.5h24.2v96.7H1098V1719.5z
M1146.4,1719.5h24.2v96.7h-24.2V1719.5z M1194.7,1719.5h24.2v96.7h-24.2V1719.5z M1243,1719.5h24.2v96.7H1243V1719.5z
M1291.4,1719.5h24.2v96.7h-24.2V1719.5z M1339.7,1719.5h24.2v96.7h-24.2V1719.5z M1388,1719.5h24.2v96.7H1388V1719.5z
M1436.4,1719.5h24.2v96.7h-24.2V1719.5z M1484.7,1719.5h24.2v96.7h-24.2V1719.5z M1533,1719.5h24.2v96.7H1533V1719.5z
M1581.4,1719.5h24.2v96.7h-24.2V1719.5z M1629.7,1719.5h24.2v96.7h-24.2V1719.5z M1678.1,1719.5h24.2v96.7h-24.2V1719.5z
M1726.4,1719.5h24.2v96.7h-24.2V1719.5z M1774.7,1719.5h24.2v96.7h-24.2V1719.5z M1823.1,1719.5h24.2v96.7h-24.2V1719.5z
M1871.4,1719.5h24.2v96.7h-24.2V1719.5z M1919.7,1719.5h24.2v96.7h-24.2V1719.5z M1968.1,1719.5h24.2v96.7h-24.2V1719.5z
M2016.4,1719.5h24.2v96.7h-24.2V1719.5z M2064.8,1719.5h24.2v96.7h-24.2V1719.5z M2113.1,1719.5h24.2v96.7h-24.2V1719.5z
M2161.4,1719.5h24.2v96.7h-24.2V1719.5z M2209.8,1719.5h24.2v96.7h-24.2V1719.5z M2258.1,1719.5h24.2v96.7h-24.2V1719.5z
M2306.4,1719.5h24.2v96.7h-24.2V1719.5z M2354.8,1719.5h24.2v96.7h-24.2V1719.5z M2403.1,1719.5h24.2v96.7h-24.2V1719.5z
M2451.4,1719.5h24.2v96.7h-24.2V1719.5z M2499.8,1719.5h24.2v96.7h-24.2V1719.5z M2548.1,1719.5h24.2v96.7h-24.2V1719.5z
M2596.5,1719.5h24.2v96.7h-24.2V1719.5z M2644.8,1719.5h24.2v96.7h-24.2V1719.5z M2693.1,1719.5h24.2v96.7h-24.2V1719.5z
M2741.5,1719.5h24.2v96.7h-24.2V1719.5z M2789.8,1719.5h24.2v96.7h-24.2V1719.5z M2838.1,1719.5h24.2v96.7h-24.2V1719.5z
M373,1719.5h24.2v96.7H373V1719.5z M34.6,1840.4h24.2v96.7H34.6V1840.4z M83,1840.4h24.2v96.7H83V1840.4z M131.3,1840.4h24.2v96.7
h-24.2V1840.4z M179.6,1840.4h24.2v96.7h-24.2V1840.4z M228,1840.4h24.2v96.7H228L228,1840.4z M276.3,1840.4h24.2v96.7h-24.2
V1840.4z M324.6,1840.4h24.2v96.7h-24.2V1840.4z M421.3,1840.4h24.2v96.7h-24.2V1840.4z M469.6,1840.4h24.2v96.7h-24.2V1840.4z
M518,1840.4h24.2v96.7H518V1840.4z M566.3,1840.4h24.2v96.7h-24.2V1840.4z M614.7,1840.4h24.2v96.7h-24.2V1840.4z M663,1840.4
h24.2v96.7H663V1840.4z M711.3,1840.4h24.2v96.7h-24.2V1840.4z M759.7,1840.4h24.2v96.7h-24.2V1840.4z M808,1840.4h24.2v96.7H808
V1840.4z M856.3,1840.4h24.2v96.7h-24.2V1840.4z M904.7,1840.4h24.2v96.7h-24.2V1840.4z M953,1840.4h24.2v96.7H953V1840.4z
M1001.3,1840.4h24.2v96.7h-24.2V1840.4z M1049.7,1840.4h24.2v96.7h-24.2V1840.4z M1098,1840.4h24.2v96.7H1098V1840.4z
M1146.4,1840.4h24.2v96.7h-24.2V1840.4z M1194.7,1840.4h24.2v96.7h-24.2V1840.4z M1243,1840.4h24.2v96.7H1243V1840.4z
M1291.4,1840.4h24.2v96.7h-24.2V1840.4z M1339.7,1840.4h24.2v96.7h-24.2V1840.4z M1388,1840.4h24.2v96.7H1388V1840.4z
M1436.4,1840.4h24.2v96.7h-24.2V1840.4z M1484.7,1840.4h24.2v96.7h-24.2V1840.4z M1533,1840.4h24.2v96.7H1533V1840.4z
M1581.4,1840.4h24.2v96.7h-24.2V1840.4z M1629.7,1840.4h24.2v96.7h-24.2V1840.4z M1678.1,1840.4h24.2v96.7h-24.2V1840.4z
M1726.4,1840.4h24.2v96.7h-24.2V1840.4z M1774.7,1840.4h24.2v96.7h-24.2V1840.4z M1823.1,1840.4h24.2v96.7h-24.2V1840.4z
M1871.4,1840.4h24.2v96.7h-24.2V1840.4z M1919.7,1840.4h24.2v96.7h-24.2V1840.4z M1968.1,1840.4h24.2v96.7h-24.2V1840.4z
M2016.4,1840.4h24.2v96.7h-24.2V1840.4z M2064.8,1840.4h24.2v96.7h-24.2V1840.4z M2113.1,1840.4h24.2v96.7h-24.2V1840.4z
M2161.4,1840.4h24.2v96.7h-24.2V1840.4z M2209.8,1840.4h24.2v96.7h-24.2V1840.4z M2258.1,1840.4h24.2v96.7h-24.2V1840.4z
M2306.4,1840.4h24.2v96.7h-24.2V1840.4z M2354.8,1840.4h24.2v96.7h-24.2V1840.4z M2403.1,1840.4h24.2v96.7h-24.2V1840.4z
M2451.4,1840.4h24.2v96.7h-24.2V1840.4z M2499.8,1840.4h24.2v96.7h-24.2V1840.4z M2548.1,1840.4h24.2v96.7h-24.2V1840.4z
M2596.5,1840.4h24.2v96.7h-24.2V1840.4z M2644.8,1840.4h24.2v96.7h-24.2V1840.4z M2693.1,1840.4h24.2v96.7h-24.2V1840.4z
M2741.5,1840.4h24.2v96.7h-24.2V1840.4z M2789.8,1840.4h24.2v96.7h-24.2V1840.4z M2838.1,1840.4h24.2v96.7h-24.2V1840.4z
M373,1840.4h24.2v96.7H373V1840.4z M34.6,1961.2h24.2v96.7H34.6V1961.2z M83,1961.2h24.2v96.7H83V1961.2z M131.3,1961.2h24.2v96.7
h-24.2V1961.2z M179.6,1961.2h24.2v96.7h-24.2V1961.2z M228,1961.2h24.2v96.7H228L228,1961.2z M276.3,1961.2h24.2v96.7h-24.2
V1961.2z M324.6,1961.2h24.2v96.7h-24.2V1961.2z M421.3,1961.2h24.2v96.7h-24.2V1961.2z M469.6,1961.2h24.2v96.7h-24.2V1961.2z
M518,1961.2h24.2v96.7H518V1961.2z M566.3,1961.2h24.2v96.7h-24.2V1961.2z M614.7,1961.2h24.2v96.7h-24.2V1961.2z M663,1961.2
h24.2v96.7H663V1961.2z M711.3,1961.2h24.2v96.7h-24.2V1961.2z M759.7,1961.2h24.2v96.7h-24.2V1961.2z M808,1961.2h24.2v96.7H808
V1961.2z M856.3,1961.2h24.2v96.7h-24.2V1961.2z M904.7,1961.2h24.2v96.7h-24.2V1961.2z M953,1961.2h24.2v96.7H953V1961.2z
M1001.3,1961.2h24.2v96.7h-24.2V1961.2z M1049.7,1961.2h24.2v96.7h-24.2V1961.2z M1098,1961.2h24.2v96.7H1098V1961.2z
M1146.4,1961.2h24.2v96.7h-24.2V1961.2z M1194.7,1961.2h24.2v96.7h-24.2V1961.2z M1243,1961.2h24.2v96.7H1243V1961.2z
M1291.4,1961.2h24.2v96.7h-24.2V1961.2z M1339.7,1961.2h24.2v96.7h-24.2V1961.2z M1388,1961.2h24.2v96.7H1388V1961.2z
M1436.4,1961.2h24.2v96.7h-24.2V1961.2z M1484.7,1961.2h24.2v96.7h-24.2V1961.2z M1533,1961.2h24.2v96.7H1533V1961.2z
M1581.4,1961.2h24.2v96.7h-24.2V1961.2z M1629.7,1961.2h24.2v96.7h-24.2V1961.2z M1678.1,1961.2h24.2v96.7h-24.2V1961.2z
M1726.4,1961.2h24.2v96.7h-24.2V1961.2z M1774.7,1961.2h24.2v96.7h-24.2V1961.2z M1823.1,1961.2h24.2v96.7h-24.2V1961.2z
M1871.4,1961.2h24.2v96.7h-24.2V1961.2z M1919.7,1961.2h24.2v96.7h-24.2V1961.2z M1968.1,1961.2h24.2v96.7h-24.2V1961.2z
M2016.4,1961.2h24.2v96.7h-24.2V1961.2z M2064.8,1961.2h24.2v96.7h-24.2V1961.2z M2113.1,1961.2h24.2v96.7h-24.2V1961.2z
M2161.4,1961.2h24.2v96.7h-24.2V1961.2z M2209.8,1961.2h24.2v96.7h-24.2V1961.2z M2258.1,1961.2h24.2v96.7h-24.2V1961.2z
M2306.4,1961.2h24.2v96.7h-24.2V1961.2z M2354.8,1961.2h24.2v96.7h-24.2V1961.2z M2403.1,1961.2h24.2v96.7h-24.2V1961.2z
M2451.4,1961.2h24.2v96.7h-24.2V1961.2z M2499.8,1961.2h24.2v96.7h-24.2V1961.2z M2548.1,1961.2h24.2v96.7h-24.2V1961.2z
M2596.5,1961.2h24.2v96.7h-24.2V1961.2z M2644.8,1961.2h24.2v96.7h-24.2V1961.2z M2693.1,1961.2h24.2v96.7h-24.2V1961.2z
M2741.5,1961.2h24.2v96.7h-24.2V1961.2z M2789.8,1961.2h24.2v96.7h-24.2V1961.2z M2838.1,1961.2h24.2v96.7h-24.2V1961.2z
M373,1961.2h24.2v96.7H373V1961.2z"/>
</g>
<g class="brick-group-6 billions-letter-group">
<path fill="#fff" class="billions-item" d="M0,1462h2393v257.5H0V1462z"/>
<path fill="#fff" class="billions-item" d="M0,1678.7h1473.3v282.6H0V1678.7z"/>
<path class="billions-letter billions-item" d="M67.7,1598.3h37.8v90.8h33.9v-211.9h-33.9v90.8H67.7v-90.8H34.4v211.9h33.3V1598.3z M163.8,1475.8v161.3
c0,33.9,16.9,53.3,49.6,53.3s49.6-19.4,49.6-53.3v-161.3h-31.5v163.5c0,15.1-6.7,20.5-17.3,20.5c-10.6,0-17.3-5.4-17.3-20.5v-163.5
H163.8z M358.6,1689.1h34.2v-211.9h-29.7V1604L329,1477.2h-41.8v211.9h30v-153.5L358.6,1689.1L358.6,1689.1z M418.5,1689.1h52.7
c33.3,0,49.6-18.5,49.6-52.4v-107.1c0-33.9-16.3-52.4-49.6-52.4h-52.7V1689.1z M470.5,1507.5c10.6,0,16.9,5.4,16.9,20.5v110.2
c0,15.1-6.4,20.5-16.9,20.5h-18.8v-151.3L470.5,1507.5z M647.5,1689.1c-3.3-7.9-3.6-15.4-3.6-25.7v-32.7c0-22.1-5.4-38.1-22.1-45.1
c14.8-7,21.8-21.2,21.8-43V1526c0-32.7-14.8-48.8-49.3-48.8H544v211.8h33.3v-86.2h11.5c15.1,0,21.8,7.3,21.8,26.9v33.3
c0,17.3,1.2,20.5,3,26H647.5z M593.3,1507.5c11.8,0,16.9,6.7,16.9,21.8v20.9c0,16.9-7.6,22.4-20,22.4h-13v-65.1L593.3,1507.5z
M700.7,1507.5h57.5v-30.3h-90.8v211.9h90.8v-30.3h-57.5v-62h45.7v-30.3h-45.7V1507.5L700.7,1507.5z M780.5,1689.1h52.7
c33.3,0,49.6-18.5,49.6-52.4v-107.1c0-33.9-16.3-52.4-49.6-52.4h-52.7V1689.1z M832.6,1507.5c10.6,0,16.9,5.4,16.9,20.5v110.2
c0,15.1-6.4,20.5-16.9,20.5h-18.8v-151.3L832.6,1507.5z M901.8,1528c0,60.5,65.1,68.7,65.1,112.3c0,15.1-6.7,20.5-17.3,20.5
c-10.6,0-17.3-5.4-17.3-20.5v-15.1h-31.4v13c0,33.9,16.9,53.3,49.6,53.3c32.7,0,49.6-19.4,49.6-53.3c0-60.5-65.1-68.7-65.1-112.3
c0-15.1,6.1-20.9,16.6-20.9s16.6,5.8,16.6,20.9v8.8h31.5v-6.7c0-33.9-16.6-53.2-49-53.2S901.8,1494.1,901.8,1528L901.8,1528z
M1096.7,1526c0-15.1,6.7-20.9,17.3-20.9s17.3,5.8,17.3,20.9v114.5c0,15.1-6.7,20.9-17.3,20.9s-17.3-5.8-17.3-20.9V1526z
M1063.4,1638.2c0,33.9,17.9,53.3,50.5,53.3c32.7,0,50.6-19.4,50.6-53.3V1528c0-33.9-17.9-53.2-50.6-53.2s-50.5,19.3-50.5,53.2
V1638.2z M1221,1507.5h54.8v-30.3h-88.1v211.9h33.3v-87.4h43v-30.3h-43V1507.5z M1412.6,1477.2h-48.7l-33.9,211.9h30.6l5.8-38.4
h40.9l5.8,38.4h33.6L1412.6,1477.2z M1386.6,1514.7l16,107.2h-32.1L1386.6,1514.7z M1496.9,1507.5h54.8v-30.3h-88.1v211.9h33.3
v-87.4h43v-30.3h-43V1507.5z M1603.1,1507.5h54.8v-30.3h-88.1v211.9h33.3v-87.4h43v-30.3h-43V1507.5z M1675.6,1477.2h33.3v211.9
h-33.3V1477.2z M1734.9,1689.1h88.1v-30.3h-54.8v-181.6h-33.3V1689.1z M1839.5,1477.2h33.3v211.9h-33.3V1477.2z M1972.6,1477.2
h-48.7l-33.9,211.9h30.6l5.8-38.4h40.9l5.8,38.4h33.6L1972.6,1477.2z M1946.6,1514.7l16,107.2h-32.1L1946.6,1514.7z M2013.9,1507.5
h34.8v181.6h33.3v-181.6h34.8v-30.3h-102.9L2013.9,1507.5L2013.9,1507.5z M2166.4,1507.5h57.5v-30.3h-90.8v211.9h90.8v-30.3h-57.5
v-62h45.7v-30.3h-45.7V1507.5L2166.4,1507.5z M2242.3,1528c0,60.5,65.1,68.7,65.1,112.3c0,15.1-6.7,20.5-17.3,20.5
s-17.3-5.4-17.3-20.5v-15.1h-31.5v13c0,33.9,16.9,53.3,49.6,53.3s49.6-19.4,49.6-53.3c0-60.5-65.1-68.7-65.1-112.3
c0-15.1,6.1-20.9,16.6-20.9s16.6,5.8,16.6,20.9v8.8h31.5v-6.7c0-33.9-16.6-53.2-49-53.2C2258.9,1474.8,2242.3,1494.1,2242.3,1528
L2242.3,1528z M108.2,1723.7H59.5l-33.9,211.9h30.6l5.8-38.4h40.8l5.7,38.4h33.7L108.2,1723.7z M82.2,1761.2l16,107.1h-32
L82.2,1761.2z M230.4,1935.6h34.2v-211.9h-29.7v126.8l-34.2-126.8H159v211.9h30v-153.5L230.4,1935.6L230.4,1935.6z M290.2,1935.6
h52.7c33.3,0,49.6-18.5,49.6-52.4v-107.1c0-33.9-16.3-52.4-49.6-52.4h-52.7V1935.6z M342.3,1754c10.6,0,16.9,5.4,16.9,20.5v110.2
c0,15.1-6.4,20.5-16.9,20.5h-18.8V1754H342.3z M509.7,1723.7h-49v211.9h33.3V1856h15.7c33.3,0,49.6-18.5,49.6-52.4v-27.5
C559.3,1742.2,543,1723.7,509.7,1723.7z M509.7,1754c10.6,0,16.3,4.9,16.3,20v31.8c0,15.1-5.8,20-16.3,20h-15.7V1754L509.7,1754z
M648.2,1723.7h-48.7l-33.9,211.9h30.6l5.8-38.4h40.9l5.8,38.4h33.6L648.2,1723.7z M622.2,1761.2l16,107.2h-32.1L622.2,1761.2z
M802.8,1935.6c-3.3-7.9-3.6-15.4-3.6-25.7v-32.7c0-22.1-5.4-38.1-22.1-45.1c14.8-7,21.8-21.2,21.8-43v-16.7
c0-32.7-14.8-48.7-49.3-48.7h-50.2v211.9h33.3v-86.3h11.5c15.1,0,21.8,7.3,21.8,26.9v33.3c0,17.3,1.2,20.5,3,26L802.8,1935.6z
M748.6,1754c11.8,0,16.9,6.7,16.9,21.8v20.9c0,16.9-7.6,22.4-20,22.4h-13V1754L748.6,1754z M813,1754h34.8v181.6h33.3V1754h34.8
v-30.3H813L813,1754L813,1754z M1003.6,1935.6h34.2v-211.9h-29.7v126.8l-34.2-126.8h-41.8v211.9h30v-153.5L1003.6,1935.6
L1003.6,1935.6z M1096.7,1754h57.5v-30.3h-90.8v211.9h90.8v-30.3h-57.5v-62h45.7V1813h-45.7V1754z M1280,1935.6
c-3.3-7.9-3.6-15.4-3.6-25.7v-32.7c0-22.1-5.4-38.1-22.1-45.1c14.8-7,21.8-21.2,21.8-43v-16.7c0-32.7-14.8-48.7-49.3-48.7h-50.2
v211.9h33.3v-86.3h11.5c15.1,0,21.8,7.3,21.8,26.9v33.3c0,17.3,1.2,20.5,3,26L1280,1935.6z M1225.8,1754c11.8,0,16.9,6.7,16.9,21.8
v20.9c0,16.9-7.6,22.4-20,22.4h-13V1754L1225.8,1754z M1295.7,1774.6c0,60.5,65.1,68.7,65.1,112.3c0,15.1-6.7,20.5-17.3,20.5
s-17.3-5.4-17.3-20.5v-15.1h-31.4v13c0,33.9,16.9,53.3,49.6,53.3s49.6-19.4,49.6-53.3c0-60.5-65.1-68.7-65.1-112.3
c0-15.1,6.1-20.9,16.6-20.9s16.6,5.8,16.6,20.9v8.8h31.5v-6.7c0-33.9-16.6-53.3-49-53.3S1295.7,1740.7,1295.7,1774.6L1295.7,1774.6
z"/>
</g>
<g class="brick-group-1">
<path class="small-rect" d="M34.6,2082.1h24.2v96.7H34.6V2082.1z M83,2082.1h24.2v96.7H83V2082.1z M131.3,2082.1h24.2v96.7h-24.2V2082.1z
M179.6,2082.1h24.2v96.7h-24.2V2082.1z M228,2082.1h24.2v96.7H228L228,2082.1z M276.3,2082.1h24.2v96.7h-24.2V2082.1z
M324.6,2082.1h24.2v96.7h-24.2V2082.1z M421.3,2082.1h24.2v96.7h-24.2V2082.1z M469.6,2082.1h24.2v96.7h-24.2V2082.1z M518,2082.1
h24.2v96.7H518V2082.1z M566.3,2082.1h24.2v96.7h-24.2V2082.1z M614.7,2082.1h24.2v96.7h-24.2V2082.1z M663,2082.1h24.2v96.7H663
V2082.1z M711.3,2082.1h24.2v96.7h-24.2V2082.1z M759.7,2082.1h24.2v96.7h-24.2V2082.1z M808,2082.1h24.2v96.7H808V2082.1z
M856.3,2082.1h24.2v96.7h-24.2V2082.1z M904.7,2082.1h24.2v96.7h-24.2V2082.1z M953,2082.1h24.2v96.7H953V2082.1z M1001.3,2082.1
h24.2v96.7h-24.2V2082.1z M1049.7,2082.1h24.2v96.7h-24.2V2082.1z M1098,2082.1h24.2v96.7H1098V2082.1z M1146.4,2082.1h24.2v96.7
h-24.2V2082.1z M1194.7,2082.1h24.2v96.7h-24.2V2082.1z M1243,2082.1h24.2v96.7H1243V2082.1z M1291.4,2082.1h24.2v96.7h-24.2
V2082.1z M1339.7,2082.1h24.2v96.7h-24.2V2082.1z M1388,2082.1h24.2v96.7H1388V2082.1z M1436.4,2082.1h24.2v96.7h-24.2V2082.1z
M1484.7,2082.1h24.2v96.7h-24.2V2082.1z M1533,2082.1h24.2v96.7H1533V2082.1z M1581.4,2082.1h24.2v96.7h-24.2V2082.1z
M1629.7,2082.1h24.2v96.7h-24.2V2082.1z M1678.1,2082.1h24.2v96.7h-24.2V2082.1z M1726.4,2082.1h24.2v96.7h-24.2V2082.1z
M1774.7,2082.1h24.2v96.7h-24.2V2082.1z M1823.1,2082.1h24.2v96.7h-24.2V2082.1z M1871.4,2082.1h24.2v96.7h-24.2V2082.1z
M1919.7,2082.1h24.2v96.7h-24.2V2082.1z M1968.1,2082.1h24.2v96.7h-24.2V2082.1z M2016.4,2082.1h24.2v96.7h-24.2V2082.1z
M2064.8,2082.1h24.2v96.7h-24.2V2082.1z M2113.1,2082.1h24.2v96.7h-24.2V2082.1z M2161.4,2082.1h24.2v96.7h-24.2V2082.1z
M2209.8,2082.1h24.2v96.7h-24.2V2082.1z M2258.1,2082.1h24.2v96.7h-24.2V2082.1z M2306.4,2082.1h24.2v96.7h-24.2V2082.1z
M2354.8,2082.1h24.2v96.7h-24.2V2082.1z M2403.1,2082.1h24.2v96.7h-24.2V2082.1z M2451.4,2082.1h24.2v96.7h-24.2V2082.1z
M2499.8,2082.1h24.2v96.7h-24.2V2082.1z M2548.1,2082.1h24.2v96.7h-24.2V2082.1z M2596.5,2082.1h24.2v96.7h-24.2V2082.1z
M2644.8,2082.1h24.2v96.7h-24.2V2082.1z M2693.1,2082.1h24.2v96.7h-24.2V2082.1z M2741.5,2082.1h24.2v96.7h-24.2V2082.1z
M2789.8,2082.1h24.2v96.7h-24.2V2082.1z M2838.1,2082.1h24.2v96.7h-24.2V2082.1z M373,2082.1h24.2v96.7H373V2082.1z M34.6,2202.9
h24.2v96.7H34.6V2202.9z M83,2202.9h24.2v96.7H83V2202.9z M131.3,2202.9h24.2v96.7h-24.2V2202.9z M179.6,2202.9h24.2v96.7h-24.2
V2202.9z M228,2202.9h24.2v96.7H228L228,2202.9z M276.3,2202.9h24.2v96.7h-24.2V2202.9z M324.6,2202.9h24.2v96.7h-24.2V2202.9z
M421.3,2202.9h24.2v96.7h-24.2V2202.9z M469.6,2202.9h24.2v96.7h-24.2V2202.9z M518,2202.9h24.2v96.7H518V2202.9z M566.3,2202.9
h24.2v96.7h-24.2V2202.9z M614.7,2202.9h24.2v96.7h-24.2V2202.9z M663,2202.9h24.2v96.7H663V2202.9z M711.3,2202.9h24.2v96.7h-24.2
V2202.9z M759.7,2202.9h24.2v96.7h-24.2V2202.9z M808,2202.9h24.2v96.7H808V2202.9z M856.3,2202.9h24.2v96.7h-24.2V2202.9z
M904.7,2202.9h24.2v96.7h-24.2V2202.9z M953,2202.9h24.2v96.7H953V2202.9z M1001.3,2202.9h24.2v96.7h-24.2V2202.9z M1049.7,2202.9
h24.2v96.7h-24.2V2202.9z M1098,2202.9h24.2v96.7H1098V2202.9z M1146.4,2202.9h24.2v96.7h-24.2V2202.9z M1194.7,2202.9h24.2v96.7
h-24.2V2202.9z M1243,2202.9h24.2v96.7H1243V2202.9z M1291.4,2202.9h24.2v96.7h-24.2V2202.9z M1339.7,2202.9h24.2v96.7h-24.2
V2202.9z M1388,2202.9h24.2v96.7H1388V2202.9z M1436.4,2202.9h24.2v96.7h-24.2V2202.9z M1484.7,2202.9h24.2v96.7h-24.2V2202.9z
M1533,2202.9h24.2v96.7H1533V2202.9z M1581.4,2202.9h24.2v96.7h-24.2V2202.9z M1629.7,2202.9h24.2v96.7h-24.2V2202.9z
M1678.1,2202.9h24.2v96.7h-24.2V2202.9z M1726.4,2202.9h24.2v96.7h-24.2V2202.9z M1774.7,2202.9h24.2v96.7h-24.2V2202.9z
M1823.1,2202.9h24.2v96.7h-24.2V2202.9z M1871.4,2202.9h24.2v96.7h-24.2V2202.9z M1919.7,2202.9h24.2v96.7h-24.2V2202.9z
M1968.1,2202.9h24.2v96.7h-24.2V2202.9z M2016.4,2202.9h24.2v96.7h-24.2V2202.9z M2064.8,2202.9h24.2v96.7h-24.2V2202.9z
M2113.1,2202.9h24.2v96.7h-24.2V2202.9z M2161.4,2202.9h24.2v96.7h-24.2V2202.9z M2209.8,2202.9h24.2v96.7h-24.2V2202.9z
M2258.1,2202.9h24.2v96.7h-24.2V2202.9z M2306.4,2202.9h24.2v96.7h-24.2V2202.9z M2354.8,2202.9h24.2v96.7h-24.2V2202.9z
M2403.1,2202.9h24.2v96.7h-24.2V2202.9z M2451.4,2202.9h24.2v96.7h-24.2V2202.9z M2499.8,2202.9h24.2v96.7h-24.2V2202.9z
M2548.1,2202.9h24.2v96.7h-24.2V2202.9z M2596.5,2202.9h24.2v96.7h-24.2V2202.9z M2644.8,2202.9h24.2v96.7h-24.2V2202.9z
M2693.1,2202.9h24.2v96.7h-24.2V2202.9z M2741.5,2202.9h24.2v96.7h-24.2V2202.9z M2789.8,2202.9h24.2v96.7h-24.2V2202.9z
M2838.1,2202.9h24.2v96.7h-24.2V2202.9z M373,2202.9h24.2v96.7H373V2202.9z M34.6,2323.8h24.2v96.7H34.6V2323.8z M83,2323.8h24.2
v96.7H83V2323.8z M131.3,2323.8h24.2v96.7h-24.2V2323.8z M179.6,2323.8h24.2v96.7h-24.2V2323.8z M228,2323.8h24.2v96.7H228
L228,2323.8z M276.3,2323.8h24.2v96.7h-24.2V2323.8z M324.6,2323.8h24.2v96.7h-24.2V2323.8z M421.3,2323.8h24.2v96.7h-24.2V2323.8z
M469.6,2323.8h24.2v96.7h-24.2V2323.8z M518,2323.8h24.2v96.7H518V2323.8z M566.3,2323.8h24.2v96.7h-24.2V2323.8z M614.7,2323.8
h24.2v96.7h-24.2V2323.8z M663,2323.8h24.2v96.7H663V2323.8z M711.3,2323.8h24.2v96.7h-24.2V2323.8z M759.7,2323.8h24.2v96.7h-24.2
V2323.8z M808,2323.8h24.2v96.7H808V2323.8z M856.3,2323.8h24.2v96.7h-24.2V2323.8z M904.7,2323.8h24.2v96.7h-24.2V2323.8z
M953,2323.8h24.2v96.7H953V2323.8z M1001.3,2323.8h24.2v96.7h-24.2V2323.8z M1049.7,2323.8h24.2v96.7h-24.2V2323.8z M1098,2323.8
h24.2v96.7H1098V2323.8z M1146.4,2323.8h24.2v96.7h-24.2V2323.8z M1194.7,2323.8h24.2v96.7h-24.2V2323.8z M1243,2323.8h24.2v96.7
H1243V2323.8z M1291.4,2323.8h24.2v96.7h-24.2V2323.8z M1339.7,2323.8h24.2v96.7h-24.2V2323.8z M1388,2323.8h24.2v96.7H1388V2323.8
z M1436.4,2323.8h24.2v96.7h-24.2V2323.8z M1484.7,2323.8h24.2v96.7h-24.2V2323.8z M1533,2323.8h24.2v96.7H1533V2323.8z
M1581.4,2323.8h24.2v96.7h-24.2V2323.8z M1629.7,2323.8h24.2v96.7h-24.2V2323.8z M1678.1,2323.8h24.2v96.7h-24.2V2323.8z
M1726.4,2323.8h24.2v96.7h-24.2V2323.8z M1774.7,2323.8h24.2v96.7h-24.2V2323.8z M1823.1,2323.8h24.2v96.7h-24.2V2323.8z
M1871.4,2323.8h24.2v96.7h-24.2V2323.8z M1919.7,2323.8h24.2v96.7h-24.2V2323.8z M1968.1,2323.8h24.2v96.7h-24.2V2323.8z
M2016.4,2323.8h24.2v96.7h-24.2V2323.8z M2064.8,2323.8h24.2v96.7h-24.2V2323.8z M2113.1,2323.8h24.2v96.7h-24.2V2323.8z
M2161.4,2323.8h24.2v96.7h-24.2V2323.8z M2209.8,2323.8h24.2v96.7h-24.2V2323.8z M2258.1,2323.8h24.2v96.7h-24.2V2323.8z
M2306.4,2323.8h24.2v96.7h-24.2V2323.8z M2354.8,2323.8h24.2v96.7h-24.2V2323.8z M2403.1,2323.8h24.2v96.7h-24.2V2323.8z
M2451.4,2323.8h24.2v96.7h-24.2V2323.8z M2499.8,2323.8h24.2v96.7h-24.2V2323.8z M2548.1,2323.8h24.2v96.7h-24.2V2323.8z
M2596.5,2323.8h24.2v96.7h-24.2V2323.8z M2644.8,2323.8h24.2v96.7h-24.2V2323.8z M2693.1,2323.8h24.2v96.7h-24.2V2323.8z
M2741.5,2323.8h24.2v96.7h-24.2V2323.8z M2789.8,2323.8h24.2v96.7h-24.2V2323.8z M2838.1,2323.8h24.2v96.7h-24.2V2323.8z
M373,2323.8h24.2v96.7H373V2323.8z M34.6,2444.6h24.2v96.7H34.6V2444.6z M83,2444.6h24.2v96.7H83V2444.6z M131.3,2444.6h24.2v96.7
h-24.2V2444.6z M179.6,2444.6h24.2v96.7h-24.2V2444.6z M228,2444.6h24.2v96.7H228L228,2444.6z M276.3,2444.6h24.2v96.7h-24.2
V2444.6z M324.6,2444.6h24.2v96.7h-24.2V2444.6z M421.3,2444.6h24.2v96.7h-24.2V2444.6z M469.6,2444.6h24.2v96.7h-24.2V2444.6z
M518,2444.6h24.2v96.7H518V2444.6z M566.3,2444.6h24.2v96.7h-24.2V2444.6z M614.7,2444.6h24.2v96.7h-24.2V2444.6z M663,2444.6
h24.2v96.7H663V2444.6z M711.3,2444.6h24.2v96.7h-24.2V2444.6z M759.7,2444.6h24.2v96.7h-24.2V2444.6z M808,2444.6h24.2v96.7H808
V2444.6z M856.3,2444.6h24.2v96.7h-24.2V2444.6z M904.7,2444.6h24.2v96.7h-24.2V2444.6z M953,2444.6h24.2v96.7H953V2444.6z
M1001.3,2444.6h24.2v96.7h-24.2V2444.6z M1049.7,2444.6h24.2v96.7h-24.2V2444.6z M1098,2444.6h24.2v96.7H1098V2444.6z
M1146.4,2444.6h24.2v96.7h-24.2V2444.6z M1194.7,2444.6h24.2v96.7h-24.2V2444.6z M1243,2444.6h24.2v96.7H1243V2444.6z
M1291.4,2444.6h24.2v96.7h-24.2V2444.6z M1339.7,2444.6h24.2v96.7h-24.2V2444.6z M1388,2444.6h24.2v96.7H1388V2444.6z
M1436.4,2444.6h24.2v96.7h-24.2V2444.6z M1484.7,2444.6h24.2v96.7h-24.2V2444.6z M1533,2444.6h24.2v96.7H1533V2444.6z
M1581.4,2444.6h24.2v96.7h-24.2V2444.6z M1629.7,2444.6h24.2v96.7h-24.2V2444.6z M1678.1,2444.6h24.2v96.7h-24.2V2444.6z
M1726.4,2444.6h24.2v96.7h-24.2V2444.6z M1774.7,2444.6h24.2v96.7h-24.2V2444.6z M1823.1,2444.6h24.2v96.7h-24.2V2444.6z
M1871.4,2444.6h24.2v96.7h-24.2V2444.6z M1919.7,2444.6h24.2v96.7h-24.2V2444.6z M1968.1,2444.6h24.2v96.7h-24.2V2444.6z
M2016.4,2444.6h24.2v96.7h-24.2V2444.6z M2064.8,2444.6h24.2v96.7h-24.2V2444.6z M2113.1,2444.6h24.2v96.7h-24.2V2444.6z
M2161.4,2444.6h24.2v96.7h-24.2V2444.6z M2209.8,2444.6h24.2v96.7h-24.2V2444.6z M2258.1,2444.6h24.2v96.7h-24.2V2444.6z
M2306.4,2444.6h24.2v96.7h-24.2V2444.6z M2354.8,2444.6h24.2v96.7h-24.2V2444.6z M2403.1,2444.6h24.2v96.7h-24.2V2444.6z
M2451.4,2444.6h24.2v96.7h-24.2V2444.6z M2499.8,2444.6h24.2v96.7h-24.2V2444.6z M2548.1,2444.6h24.2v96.7h-24.2V2444.6z
M2596.5,2444.6h24.2v96.7h-24.2V2444.6z M2644.8,2444.6h24.2v96.7h-24.2V2444.6z M2693.1,2444.6h24.2v96.7h-24.2V2444.6z
M2741.5,2444.6h24.2v96.7h-24.2V2444.6z M2789.8,2444.6h24.2v96.7h-24.2V2444.6z M2838.1,2444.6h24.2v96.7h-24.2V2444.6z
M373,2444.6h24.2v96.7H373V2444.6z M34.6,2565.4h24.2v96.7H34.6V2565.4z M83,2565.4h24.2v96.7H83V2565.4z M131.3,2565.4h24.2v96.7
h-24.2V2565.4z M179.6,2565.4h24.2v96.7h-24.2V2565.4z M228,2565.4h24.2v96.7H228L228,2565.4z M276.3,2565.4h24.2v96.7h-24.2
V2565.4z M324.6,2565.4h24.2v96.7h-24.2V2565.4z M421.3,2565.4h24.2v96.7h-24.2V2565.4z M469.6,2565.4h24.2v96.7h-24.2V2565.4z
M518,2565.4h24.2v96.7H518V2565.4z M566.3,2565.4h24.2v96.7h-24.2V2565.4z M614.7,2565.4h24.2v96.7h-24.2V2565.4z M663,2565.4
h24.2v96.7H663V2565.4z M711.3,2565.4h24.2v96.7h-24.2V2565.4z M759.7,2565.4h24.2v96.7h-24.2V2565.4z M808,2565.4h24.2v96.7H808
V2565.4z M856.3,2565.4h24.2v96.7h-24.2V2565.4z M904.7,2565.4h24.2v96.7h-24.2V2565.4z M953,2565.4h24.2v96.7H953V2565.4z
M1001.3,2565.4h24.2v96.7h-24.2V2565.4z M1049.7,2565.4h24.2v96.7h-24.2V2565.4z M1098,2565.4h24.2v96.7H1098V2565.4z
M1146.4,2565.4h24.2v96.7h-24.2V2565.4z M1194.7,2565.4h24.2v96.7h-24.2V2565.4z M1243,2565.4h24.2v96.7H1243V2565.4z
M1291.4,2565.4h24.2v96.7h-24.2V2565.4z M1339.7,2565.4h24.2v96.7h-24.2V2565.4z M1388,2565.4h24.2v96.7H1388V2565.4z
M1436.4,2565.4h24.2v96.7h-24.2V2565.4z M1484.7,2565.4h24.2v96.7h-24.2V2565.4z M1533,2565.4h24.2v96.7H1533V2565.4z
M1581.4,2565.4h24.2v96.7h-24.2V2565.4z M1629.7,2565.4h24.2v96.7h-24.2V2565.4z M1678.1,2565.4h24.2v96.7h-24.2V2565.4z
M1726.4,2565.4h24.2v96.7h-24.2V2565.4z M1774.7,2565.4h24.2v96.7h-24.2V2565.4z M1823.1,2565.4h24.2v96.7h-24.2V2565.4z
M1871.4,2565.4h24.2v96.7h-24.2V2565.4z M1919.7,2565.4h24.2v96.7h-24.2V2565.4z M1968.1,2565.4h24.2v96.7h-24.2V2565.4z
M2016.4,2565.4h24.2v96.7h-24.2V2565.4z M2064.8,2565.4h24.2v96.7h-24.2V2565.4z M2113.1,2565.4h24.2v96.7h-24.2V2565.4z
M2161.4,2565.4h24.2v96.7h-24.2V2565.4z M2209.8,2565.4h24.2v96.7h-24.2V2565.4z M2258.1,2565.4h24.2v96.7h-24.2V2565.4z
M2306.4,2565.4h24.2v96.7h-24.2V2565.4z M2354.8,2565.4h24.2v96.7h-24.2V2565.4z M2403.1,2565.4h24.2v96.7h-24.2V2565.4z
M2451.4,2565.4h24.2v96.7h-24.2V2565.4z M2499.8,2565.4h24.2v96.7h-24.2V2565.4z M2548.1,2565.4h24.2v96.7h-24.2V2565.4z
M2596.5,2565.4h24.2v96.7h-24.2V2565.4z M2644.8,2565.4h24.2v96.7h-24.2V2565.4z M2693.1,2565.4h24.2v96.7h-24.2V2565.4z
M2741.5,2565.4h24.2v96.7h-24.2V2565.4z M2789.8,2565.4h24.2v96.7h-24.2V2565.4z M2838.1,2565.4h24.2v96.7h-24.2V2565.4z
M373,2565.4h24.2v96.7H373V2565.4z M34.6,2686.3h24.2v96.7H34.6V2686.3z M83,2686.3h24.2v96.7H83V2686.3z M131.3,2686.3h24.2v96.7
h-24.2V2686.3z M179.6,2686.3h24.2v96.7h-24.2V2686.3z M228,2686.3h24.2v96.7H228L228,2686.3z M276.3,2686.3h24.2v96.7h-24.2
V2686.3z M324.6,2686.3h24.2v96.7h-24.2V2686.3z M421.3,2686.3h24.2v96.7h-24.2V2686.3z M469.6,2686.3h24.2v96.7h-24.2V2686.3z
M518,2686.3h24.2v96.7H518V2686.3z M566.3,2686.3h24.2v96.7h-24.2V2686.3z M614.7,2686.3h24.2v96.7h-24.2V2686.3z M663,2686.3
h24.2v96.7H663V2686.3z M711.3,2686.3h24.2v96.7h-24.2V2686.3z M759.7,2686.3h24.2v96.7h-24.2V2686.3z M808,2686.3h24.2v96.7H808
V2686.3z M856.3,2686.3h24.2v96.7h-24.2V2686.3z M904.7,2686.3h24.2v96.7h-24.2V2686.3z M953,2686.3h24.2v96.7H953V2686.3z
M1001.3,2686.3h24.2v96.7h-24.2V2686.3z M1049.7,2686.3h24.2v96.7h-24.2V2686.3z M1098,2686.3h24.2v96.7H1098V2686.3z
M1146.4,2686.3h24.2v96.7h-24.2V2686.3z M1194.7,2686.3h24.2v96.7h-24.2V2686.3z M1243,2686.3h24.2v96.7H1243V2686.3z
M1291.4,2686.3h24.2v96.7h-24.2V2686.3z M1339.7,2686.3h24.2v96.7h-24.2V2686.3z M1388,2686.3h24.2v96.7H1388V2686.3z
M1436.4,2686.3h24.2v96.7h-24.2V2686.3z M1484.7,2686.3h24.2v96.7h-24.2V2686.3z M1533,2686.3h24.2v96.7H1533V2686.3z
M1581.4,2686.3h24.2v96.7h-24.2V2686.3z M1629.7,2686.3h24.2v96.7h-24.2V2686.3z M1678.1,2686.3h24.2v96.7h-24.2V2686.3z
M1726.4,2686.3h24.2v96.7h-24.2V2686.3z M1774.7,2686.3h24.2v96.7h-24.2V2686.3z M1823.1,2686.3h24.2v96.7h-24.2V2686.3z
M1871.4,2686.3h24.2v96.7h-24.2V2686.3z M1919.7,2686.3h24.2v96.7h-24.2V2686.3z M1968.1,2686.3h24.2v96.7h-24.2V2686.3z
M2016.4,2686.3h24.2v96.7h-24.2V2686.3z M2064.8,2686.3h24.2v96.7h-24.2V2686.3z M2113.1,2686.3h24.2v96.7h-24.2V2686.3z
M2161.4,2686.3h24.2v96.7h-24.2V2686.3z M2209.8,2686.3h24.2v96.7h-24.2V2686.3z M2258.1,2686.3h24.2v96.7h-24.2V2686.3z
M2306.4,2686.3h24.2v96.7h-24.2V2686.3z M2354.8,2686.3h24.2v96.7h-24.2V2686.3z M2403.1,2686.3h24.2v96.7h-24.2V2686.3z
M2451.4,2686.3h24.2v96.7h-24.2V2686.3z M2499.8,2686.3h24.2v96.7h-24.2V2686.3z M2548.1,2686.3h24.2v96.7h-24.2V2686.3z
M2596.5,2686.3h24.2v96.7h-24.2V2686.3z M2644.8,2686.3h24.2v96.7h-24.2V2686.3z M2693.1,2686.3h24.2v96.7h-24.2V2686.3z
M2741.5,2686.3h24.2v96.7h-24.2V2686.3z M2789.8,2686.3h24.2v96.7h-24.2V2686.3z M2838.1,2686.3h24.2v96.7h-24.2V2686.3z
M373,2686.3h24.2v96.7H373V2686.3z M34.6,2807.1h24.2v96.7H34.6V2807.1z M83,2807.1h24.2v96.7H83V2807.1z M131.3,2807.1h24.2v96.7
h-24.2V2807.1z M179.6,2807.1h24.2v96.7h-24.2V2807.1z M228,2807.1h24.2v96.7H228L228,2807.1z M276.3,2807.1h24.2v96.7h-24.2
V2807.1z M324.6,2807.1h24.2v96.7h-24.2V2807.1z M421.3,2807.1h24.2v96.7h-24.2V2807.1z M469.6,2807.1h24.2v96.7h-24.2V2807.1z
M518,2807.1h24.2v96.7H518V2807.1z M566.3,2807.1h24.2v96.7h-24.2V2807.1z M614.7,2807.1h24.2v96.7h-24.2V2807.1z M663,2807.1
h24.2v96.7H663V2807.1z M711.3,2807.1h24.2v96.7h-24.2V2807.1z M759.7,2807.1h24.2v96.7h-24.2V2807.1z M808,2807.1h24.2v96.7H808
V2807.1z M856.3,2807.1h24.2v96.7h-24.2V2807.1z M904.7,2807.1h24.2v96.7h-24.2V2807.1z M953,2807.1h24.2v96.7H953V2807.1z
M1001.3,2807.1h24.2v96.7h-24.2V2807.1z M1049.7,2807.1h24.2v96.7h-24.2V2807.1z M1098,2807.1h24.2v96.7H1098V2807.1z
M1146.4,2807.1h24.2v96.7h-24.2V2807.1z M1194.7,2807.1h24.2v96.7h-24.2V2807.1z M1243,2807.1h24.2v96.7H1243V2807.1z
M1291.4,2807.1h24.2v96.7h-24.2V2807.1z M1339.7,2807.1h24.2v96.7h-24.2V2807.1z M1388,2807.1h24.2v96.7H1388V2807.1z
M1436.4,2807.1h24.2v96.7h-24.2V2807.1z M1484.7,2807.1h24.2v96.7h-24.2V2807.1z M1533,2807.1h24.2v96.7H1533V2807.1z
M1581.4,2807.1h24.2v96.7h-24.2V2807.1z M1629.7,2807.1h24.2v96.7h-24.2V2807.1z M1678.1,2807.1h24.2v96.7h-24.2V2807.1z
M1726.4,2807.1h24.2v96.7h-24.2V2807.1z M1774.7,2807.1h24.2v96.7h-24.2V2807.1z M1823.1,2807.1h24.2v96.7h-24.2V2807.1z
M1871.4,2807.1h24.2v96.7h-24.2V2807.1z M1919.7,2807.1h24.2v96.7h-24.2V2807.1z M1968.1,2807.1h24.2v96.7h-24.2V2807.1z
M2016.4,2807.1h24.2v96.7h-24.2V2807.1z M2064.8,2807.1h24.2v96.7h-24.2V2807.1z M2113.1,2807.1h24.2v96.7h-24.2V2807.1z
M2161.4,2807.1h24.2v96.7h-24.2V2807.1z M2209.8,2807.1h24.2v96.7h-24.2V2807.1z M2258.1,2807.1h24.2v96.7h-24.2V2807.1z
M2306.4,2807.1h24.2v96.7h-24.2V2807.1z M2354.8,2807.1h24.2v96.7h-24.2V2807.1z M2403.1,2807.1h24.2v96.7h-24.2V2807.1z
M2451.4,2807.1h24.2v96.7h-24.2V2807.1z M2499.8,2807.1h24.2v96.7h-24.2V2807.1z M2548.1,2807.1h24.2v96.7h-24.2V2807.1z
M2596.5,2807.1h24.2v96.7h-24.2V2807.1z M2644.8,2807.1h24.2v96.7h-24.2V2807.1z M2693.1,2807.1h24.2v96.7h-24.2V2807.1z
M2741.5,2807.1h24.2v96.7h-24.2V2807.1z M2789.8,2807.1h24.2v96.7h-24.2V2807.1z M2838.1,2807.1h24.2v96.7h-24.2V2807.1z
M373,2807.1h24.2v96.7H373V2807.1z M34.6,2927.9h24.2v96.7H34.6V2927.9z M83,2927.9h24.2v96.7H83V2927.9z M131.3,2927.9h24.2v96.7
h-24.2V2927.9z M179.6,2927.9h24.2v96.7h-24.2V2927.9z M228,2927.9h24.2v96.7H228L228,2927.9z M276.3,2927.9h24.2v96.7h-24.2
V2927.9z M324.6,2927.9h24.2v96.7h-24.2V2927.9z M421.3,2927.9h24.2v96.7h-24.2V2927.9z M469.6,2927.9h24.2v96.7h-24.2V2927.9z
M518,2927.9h24.2v96.7H518V2927.9z M566.3,2927.9h24.2v96.7h-24.2V2927.9z M614.7,2927.9h24.2v96.7h-24.2V2927.9z M663,2927.9
h24.2v96.7H663V2927.9z M711.3,2927.9h24.2v96.7h-24.2V2927.9z M759.7,2927.9h24.2v96.7h-24.2V2927.9z M808,2927.9h24.2v96.7H808
V2927.9z M856.3,2927.9h24.2v96.7h-24.2V2927.9z M904.7,2927.9h24.2v96.7h-24.2V2927.9z M953,2927.9h24.2v96.7H953V2927.9z
M1001.3,2927.9h24.2v96.7h-24.2V2927.9z M1049.7,2927.9h24.2v96.7h-24.2V2927.9z M1098,2927.9h24.2v96.7H1098V2927.9z
M1146.4,2927.9h24.2v96.7h-24.2V2927.9z M1194.7,2927.9h24.2v96.7h-24.2V2927.9z M1243,2927.9h24.2v96.7H1243V2927.9z
M1291.4,2927.9h24.2v96.7h-24.2V2927.9z M1339.7,2927.9h24.2v96.7h-24.2V2927.9z M1388,2927.9h24.2v96.7H1388V2927.9z
M1436.4,2927.9h24.2v96.7h-24.2V2927.9z M1484.7,2927.9h24.2v96.7h-24.2V2927.9z M1533,2927.9h24.2v96.7H1533V2927.9z
M1581.4,2927.9h24.2v96.7h-24.2V2927.9z M1629.7,2927.9h24.2v96.7h-24.2V2927.9z M1678.1,2927.9h24.2v96.7h-24.2V2927.9z
M1726.4,2927.9h24.2v96.7h-24.2V2927.9z M1774.7,2927.9h24.2v96.7h-24.2V2927.9z M1823.1,2927.9h24.2v96.7h-24.2V2927.9z
M1871.4,2927.9h24.2v96.7h-24.2V2927.9z M1919.7,2927.9h24.2v96.7h-24.2V2927.9z M1968.1,2927.9h24.2v96.7h-24.2V2927.9z
M2016.4,2927.9h24.2v96.7h-24.2V2927.9z M2064.8,2927.9h24.2v96.7h-24.2V2927.9z M2113.1,2927.9h24.2v96.7h-24.2V2927.9z
M2161.4,2927.9h24.2v96.7h-24.2V2927.9z M2209.8,2927.9h24.2v96.7h-24.2V2927.9z M2258.1,2927.9h24.2v96.7h-24.2V2927.9z
M2306.4,2927.9h24.2v96.7h-24.2V2927.9z M2354.8,2927.9h24.2v96.7h-24.2V2927.9z M2403.1,2927.9h24.2v96.7h-24.2V2927.9z
M2451.4,2927.9h24.2v96.7h-24.2V2927.9z M2499.8,2927.9h24.2v96.7h-24.2V2927.9z M2548.1,2927.9h24.2v96.7h-24.2V2927.9z
M2596.5,2927.9h24.2v96.7h-24.2V2927.9z M2644.8,2927.9h24.2v96.7h-24.2V2927.9z M2693.1,2927.9h24.2v96.7h-24.2V2927.9z
M2741.5,2927.9h24.2v96.7h-24.2V2927.9z M2789.8,2927.9h24.2v96.7h-24.2V2927.9z M2838.1,2927.9h24.2v96.7h-24.2V2927.9z
M373,2927.9h24.2v96.7H373V2927.9z M34.6,3048.8h24.2v96.7H34.6V3048.8z M83,3048.8h24.2v96.7H83V3048.8z M131.3,3048.8h24.2v96.7
h-24.2V3048.8z M179.6,3048.8h24.2v96.7h-24.2V3048.8z M228,3048.8h24.2v96.7H228L228,3048.8z M276.3,3048.8h24.2v96.7h-24.2
V3048.8z M324.6,3048.8h24.2v96.7h-24.2V3048.8z M421.3,3048.8h24.2v96.7h-24.2V3048.8z M469.6,3048.8h24.2v96.7h-24.2V3048.8z
M518,3048.8h24.2v96.7H518V3048.8z M566.3,3048.8h24.2v96.7h-24.2V3048.8z M614.7,3048.8h24.2v96.7h-24.2V3048.8z M663,3048.8
h24.2v96.7H663V3048.8z M711.3,3048.8h24.2v96.7h-24.2V3048.8z M759.7,3048.8h24.2v96.7h-24.2V3048.8z M808,3048.8h24.2v96.7H808
V3048.8z M856.3,3048.8h24.2v96.7h-24.2V3048.8z M904.7,3048.8h24.2v96.7h-24.2V3048.8z M953,3048.8h24.2v96.7H953V3048.8z
M1001.3,3048.8h24.2v96.7h-24.2V3048.8z M1049.7,3048.8h24.2v96.7h-24.2V3048.8z M1098,3048.8h24.2v96.7H1098V3048.8z
M1146.4,3048.8h24.2v96.7h-24.2V3048.8z M1194.7,3048.8h24.2v96.7h-24.2V3048.8z M1243,3048.8h24.2v96.7H1243V3048.8z
M1291.4,3048.8h24.2v96.7h-24.2V3048.8z M1339.7,3048.8h24.2v96.7h-24.2V3048.8z M1388,3048.8h24.2v96.7H1388V3048.8z
M1436.4,3048.8h24.2v96.7h-24.2V3048.8z M1484.7,3048.8h24.2v96.7h-24.2V3048.8z M1533,3048.8h24.2v96.7H1533V3048.8z
M1581.4,3048.8h24.2v96.7h-24.2V3048.8z M1629.7,3048.8h24.2v96.7h-24.2V3048.8z M1678.1,3048.8h24.2v96.7h-24.2V3048.8z
M1726.4,3048.8h24.2v96.7h-24.2V3048.8z M1774.7,3048.8h24.2v96.7h-24.2V3048.8z M1823.1,3048.8h24.2v96.7h-24.2V3048.8z
M1871.4,3048.8h24.2v96.7h-24.2V3048.8z M1919.7,3048.8h24.2v96.7h-24.2V3048.8z M1968.1,3048.8h24.2v96.7h-24.2V3048.8z
M2016.4,3048.8h24.2v96.7h-24.2V3048.8z M2064.8,3048.8h24.2v96.7h-24.2V3048.8z M2113.1,3048.8h24.2v96.7h-24.2V3048.8z
M2161.4,3048.8h24.2v96.7h-24.2V3048.8z M2209.8,3048.8h24.2v96.7h-24.2V3048.8z M2258.1,3048.8h24.2v96.7h-24.2V3048.8z
M2306.4,3048.8h24.2v96.7h-24.2V3048.8z M2354.8,3048.8h24.2v96.7h-24.2V3048.8z M2403.1,3048.8h24.2v96.7h-24.2V3048.8z
M2451.4,3048.8h24.2v96.7h-24.2V3048.8z M2499.8,3048.8h24.2v96.7h-24.2V3048.8z M2548.1,3048.8h24.2v96.7h-24.2V3048.8z
M2596.5,3048.8h24.2v96.7h-24.2V3048.8z M2644.8,3048.8h24.2v96.7h-24.2V3048.8z M2693.1,3048.8h24.2v96.7h-24.2V3048.8z
M2741.5,3048.8h24.2v96.7h-24.2V3048.8z M2789.8,3048.8h24.2v96.7h-24.2V3048.8z M2838.1,3048.8h24.2v96.7h-24.2V3048.8z
M373,3048.8h24.2v96.7H373V3048.8z M34.6,3169.6h24.2v96.7H34.6V3169.6z M83,3169.6h24.2v96.7H83V3169.6z M131.3,3169.6h24.2v96.7
h-24.2V3169.6z M179.6,3169.6h24.2v96.7h-24.2V3169.6z M228,3169.6h24.2v96.7H228L228,3169.6z M276.3,3169.6h24.2v96.7h-24.2
V3169.6z M324.6,3169.6h24.2v96.7h-24.2V3169.6z M421.3,3169.6h24.2v96.7h-24.2V3169.6z M469.6,3169.6h24.2v96.7h-24.2V3169.6z
M518,3169.6h24.2v96.7H518V3169.6z M566.3,3169.6h24.2v96.7h-24.2V3169.6z M614.7,3169.6h24.2v96.7h-24.2V3169.6z M663,3169.6
h24.2v96.7H663V3169.6z M711.3,3169.6h24.2v96.7h-24.2V3169.6z M759.7,3169.6h24.2v96.7h-24.2V3169.6z M808,3169.6h24.2v96.7H808
V3169.6z M856.3,3169.6h24.2v96.7h-24.2V3169.6z M904.7,3169.6h24.2v96.7h-24.2V3169.6z M953,3169.6h24.2v96.7H953V3169.6z
M1001.3,3169.6h24.2v96.7h-24.2V3169.6z M1049.7,3169.6h24.2v96.7h-24.2V3169.6z M1098,3169.6h24.2v96.7H1098V3169.6z
M1146.4,3169.6h24.2v96.7h-24.2V3169.6z M1194.7,3169.6h24.2v96.7h-24.2V3169.6z M1243,3169.6h24.2v96.7H1243V3169.6z
M1291.4,3169.6h24.2v96.7h-24.2V3169.6z M1339.7,3169.6h24.2v96.7h-24.2V3169.6z M1388,3169.6h24.2v96.7H1388V3169.6z
M1436.4,3169.6h24.2v96.7h-24.2V3169.6z M1484.7,3169.6h24.2v96.7h-24.2V3169.6z M1533,3169.6h24.2v96.7H1533V3169.6z
M1581.4,3169.6h24.2v96.7h-24.2V3169.6z M1629.7,3169.6h24.2v96.7h-24.2V3169.6z M1678.1,3169.6h24.2v96.7h-24.2V3169.6z
M1726.4,3169.6h24.2v96.7h-24.2V3169.6z M1774.7,3169.6h24.2v96.7h-24.2V3169.6z M1823.1,3169.6h24.2v96.7h-24.2V3169.6z
M1871.4,3169.6h24.2v96.7h-24.2V3169.6z M1919.7,3169.6h24.2v96.7h-24.2V3169.6z M1968.1,3169.6h24.2v96.7h-24.2V3169.6z
M2016.4,3169.6h24.2v96.7h-24.2V3169.6z M2064.8,3169.6h24.2v96.7h-24.2V3169.6z M2113.1,3169.6h24.2v96.7h-24.2V3169.6z
M2161.4,3169.6h24.2v96.7h-24.2V3169.6z M2209.8,3169.6h24.2v96.7h-24.2V3169.6z M2258.1,3169.6h24.2v96.7h-24.2V3169.6z
M2306.4,3169.6h24.2v96.7h-24.2V3169.6z M2354.8,3169.6h24.2v96.7h-24.2V3169.6z M2403.1,3169.6h24.2v96.7h-24.2V3169.6z
M2451.4,3169.6h24.2v96.7h-24.2V3169.6z M2499.8,3169.6h24.2v96.7h-24.2V3169.6z M2548.1,3169.6h24.2v96.7h-24.2V3169.6z
M2596.5,3169.6h24.2v96.7h-24.2V3169.6z M2644.8,3169.6h24.2v96.7h-24.2V3169.6z M2693.1,3169.6h24.2v96.7h-24.2V3169.6z
M2741.5,3169.6h24.2v96.7h-24.2V3169.6z M2789.8,3169.6h24.2v96.7h-24.2V3169.6z M2838.1,3169.6h24.2v96.7h-24.2V3169.6z
M373,3169.6h24.2v96.7H373V3169.6z M34.6,3290.5h24.2v96.7H34.6V3290.5z M83,3290.5h24.2v96.7H83V3290.5z M131.3,3290.5h24.2v96.7
h-24.2V3290.5z M179.6,3290.5h24.2v96.7h-24.2V3290.5z M228,3290.5h24.2v96.7H228L228,3290.5z M276.3,3290.5h24.2v96.7h-24.2
V3290.5z M324.6,3290.5h24.2v96.7h-24.2V3290.5z M421.3,3290.5h24.2v96.7h-24.2V3290.5z M469.6,3290.5h24.2v96.7h-24.2V3290.5z
M518,3290.5h24.2v96.7H518V3290.5z M566.3,3290.5h24.2v96.7h-24.2V3290.5z M614.7,3290.5h24.2v96.7h-24.2V3290.5z M663,3290.5
h24.2v96.7H663V3290.5z M711.3,3290.5h24.2v96.7h-24.2V3290.5z M759.7,3290.5h24.2v96.7h-24.2V3290.5z M808,3290.5h24.2v96.7H808
V3290.5z M856.3,3290.5h24.2v96.7h-24.2V3290.5z M904.7,3290.5h24.2v96.7h-24.2V3290.5z M953,3290.5h24.2v96.7H953V3290.5z
M1001.3,3290.5h24.2v96.7h-24.2V3290.5z M1049.7,3290.5h24.2v96.7h-24.2V3290.5z M1098,3290.5h24.2v96.7H1098V3290.5z
M1146.4,3290.5h24.2v96.7h-24.2V3290.5z M1194.7,3290.5h24.2v96.7h-24.2V3290.5z M1243,3290.5h24.2v96.7H1243V3290.5z
M1291.4,3290.5h24.2v96.7h-24.2V3290.5z M1339.7,3290.5h24.2v96.7h-24.2V3290.5z M1388,3290.5h24.2v96.7H1388V3290.5z
M1436.4,3290.5h24.2v96.7h-24.2V3290.5z M1484.7,3290.5h24.2v96.7h-24.2V3290.5z M1533,3290.5h24.2v96.7H1533V3290.5z
M1581.4,3290.5h24.2v96.7h-24.2V3290.5z M1629.7,3290.5h24.2v96.7h-24.2V3290.5z M1678.1,3290.5h24.2v96.7h-24.2V3290.5z
M1726.4,3290.5h24.2v96.7h-24.2V3290.5z M1774.7,3290.5h24.2v96.7h-24.2V3290.5z M1823.1,3290.5h24.2v96.7h-24.2V3290.5z
M1871.4,3290.5h24.2v96.7h-24.2V3290.5z M1919.7,3290.5h24.2v96.7h-24.2V3290.5z M1968.1,3290.5h24.2v96.7h-24.2V3290.5z
M2016.4,3290.5h24.2v96.7h-24.2V3290.5z M2064.8,3290.5h24.2v96.7h-24.2V3290.5z M2113.1,3290.5h24.2v96.7h-24.2V3290.5z
M2161.4,3290.5h24.2v96.7h-24.2V3290.5z M2209.8,3290.5h24.2v96.7h-24.2V3290.5z M2258.1,3290.5h24.2v96.7h-24.2V3290.5z
M2306.4,3290.5h24.2v96.7h-24.2V3290.5z M2354.8,3290.5h24.2v96.7h-24.2V3290.5z M2403.1,3290.5h24.2v96.7h-24.2V3290.5z
M2451.4,3290.5h24.2v96.7h-24.2V3290.5z M2499.8,3290.5h24.2v96.7h-24.2V3290.5z M2548.1,3290.5h24.2v96.7h-24.2V3290.5z
M2596.5,3290.5h24.2v96.7h-24.2V3290.5z M2644.8,3290.5h24.2v96.7h-24.2V3290.5z M2693.1,3290.5h24.2v96.7h-24.2V3290.5z
M2741.5,3290.5h24.2v96.7h-24.2V3290.5z M2789.8,3290.5h24.2v96.7h-24.2V3290.5z M2838.1,3290.5h24.2v96.7h-24.2V3290.5z
M373,3290.5h24.2v96.7H373V3290.5z M34.6,3411.3h24.2v96.7H34.6V3411.3z M83,3411.3h24.2v96.7H83V3411.3z M131.3,3411.3h24.2v96.7
h-24.2V3411.3z M179.6,3411.3h24.2v96.7h-24.2V3411.3z M228,3411.3h24.2v96.7H228L228,3411.3z M276.3,3411.3h24.2v96.7h-24.2
V3411.3z M324.6,3411.3h24.2v96.7h-24.2V3411.3z M421.3,3411.3h24.2v96.7h-24.2V3411.3z M469.6,3411.3h24.2v96.7h-24.2V3411.3z
M518,3411.3h24.2v96.7H518V3411.3z M566.3,3411.3h24.2v96.7h-24.2V3411.3z M614.7,3411.3h24.2v96.7h-24.2V3411.3z M663,3411.3
h24.2v96.7H663V3411.3z M711.3,3411.3h24.2v96.7h-24.2V3411.3z M759.7,3411.3h24.2v96.7h-24.2V3411.3z M808,3411.3h24.2v96.7H808
V3411.3z M856.3,3411.3h24.2v96.7h-24.2V3411.3z M904.7,3411.3h24.2v96.7h-24.2V3411.3z M953,3411.3h24.2v96.7H953V3411.3z
M1001.3,3411.3h24.2v96.7h-24.2V3411.3z M1049.7,3411.3h24.2v96.7h-24.2V3411.3z M1098,3411.3h24.2v96.7H1098V3411.3z
M1146.4,3411.3h24.2v96.7h-24.2V3411.3z M1194.7,3411.3h24.2v96.7h-24.2V3411.3z M1243,3411.3h24.2v96.7H1243V3411.3z
M1291.4,3411.3h24.2v96.7h-24.2V3411.3z M1339.7,3411.3h24.2v96.7h-24.2V3411.3z M1388,3411.3h24.2v96.7H1388V3411.3z
M1436.4,3411.3h24.2v96.7h-24.2V3411.3z M1484.7,3411.3h24.2v96.7h-24.2V3411.3z M1533,3411.3h24.2v96.7H1533V3411.3z
M1581.4,3411.3h24.2v96.7h-24.2V3411.3z M1629.7,3411.3h24.2v96.7h-24.2V3411.3z M1678.1,3411.3h24.2v96.7h-24.2V3411.3z
M1726.4,3411.3h24.2v96.7h-24.2V3411.3z M1774.7,3411.3h24.2v96.7h-24.2V3411.3z M1823.1,3411.3h24.2v96.7h-24.2V3411.3z
M1871.4,3411.3h24.2v96.7h-24.2V3411.3z M1919.7,3411.3h24.2v96.7h-24.2V3411.3z M1968.1,3411.3h24.2v96.7h-24.2V3411.3z
M2016.4,3411.3h24.2v96.7h-24.2V3411.3z M2064.8,3411.3h24.2v96.7h-24.2V3411.3z M2113.1,3411.3h24.2v96.7h-24.2V3411.3z
M2161.4,3411.3h24.2v96.7h-24.2V3411.3z M2209.8,3411.3h24.2v96.7h-24.2V3411.3z M2258.1,3411.3h24.2v96.7h-24.2V3411.3z
M2306.4,3411.3h24.2v96.7h-24.2V3411.3z M2354.8,3411.3h24.2v96.7h-24.2V3411.3z M2403.1,3411.3h24.2v96.7h-24.2V3411.3z
M2451.4,3411.3h24.2v96.7h-24.2V3411.3z M2499.8,3411.3h24.2v96.7h-24.2V3411.3z M2548.1,3411.3h24.2v96.7h-24.2V3411.3z
M2596.5,3411.3h24.2v96.7h-24.2V3411.3z M2644.8,3411.3h24.2v96.7h-24.2V3411.3z M2693.1,3411.3h24.2v96.7h-24.2V3411.3z
M2741.5,3411.3h24.2v96.7h-24.2V3411.3z M2789.8,3411.3h24.2v96.7h-24.2V3411.3z M2838.1,3411.3h24.2v96.7h-24.2V3411.3z
M373,3411.3h24.2v96.7H373V3411.3z M34.6,3532.2h24.2v96.7H34.6V3532.2z M83,3532.2h24.2v96.7H83V3532.2z M131.3,3532.2h24.2v96.7
h-24.2V3532.2z M179.6,3532.2h24.2v96.7h-24.2V3532.2z M228,3532.2h24.2v96.7H228L228,3532.2z M276.3,3532.2h24.2v96.7h-24.2
V3532.2z M324.6,3532.2h24.2v96.7h-24.2V3532.2z M421.3,3532.2h24.2v96.7h-24.2V3532.2z M469.6,3532.2h24.2v96.7h-24.2V3532.2z
M518,3532.2h24.2v96.7H518V3532.2z M566.3,3532.2h24.2v96.7h-24.2V3532.2z M614.7,3532.2h24.2v96.7h-24.2V3532.2z M663,3532.2
h24.2v96.7H663V3532.2z M711.3,3532.2h24.2v96.7h-24.2V3532.2z M759.7,3532.2h24.2v96.7h-24.2V3532.2z M808,3532.2h24.2v96.7H808
V3532.2z M856.3,3532.2h24.2v96.7h-24.2V3532.2z M904.7,3532.2h24.2v96.7h-24.2V3532.2z M953,3532.2h24.2v96.7H953V3532.2z
M1001.3,3532.2h24.2v96.7h-24.2V3532.2z M1049.7,3532.2h24.2v96.7h-24.2V3532.2z M1098,3532.2h24.2v96.7H1098V3532.2z
M1146.4,3532.2h24.2v96.7h-24.2V3532.2z M1194.7,3532.2h24.2v96.7h-24.2V3532.2z M1243,3532.2h24.2v96.7H1243V3532.2z
M1291.4,3532.2h24.2v96.7h-24.2V3532.2z M1339.7,3532.2h24.2v96.7h-24.2V3532.2z M1388,3532.2h24.2v96.7H1388V3532.2z
M1436.4,3532.2h24.2v96.7h-24.2V3532.2z M1484.7,3532.2h24.2v96.7h-24.2V3532.2z M1533,3532.2h24.2v96.7H1533V3532.2z
M1581.4,3532.2h24.2v96.7h-24.2V3532.2z M1629.7,3532.2h24.2v96.7h-24.2V3532.2z M1678.1,3532.2h24.2v96.7h-24.2V3532.2z
M1726.4,3532.2h24.2v96.7h-24.2V3532.2z M1774.7,3532.2h24.2v96.7h-24.2V3532.2z M1823.1,3532.2h24.2v96.7h-24.2V3532.2z
M1871.4,3532.2h24.2v96.7h-24.2V3532.2z M1919.7,3532.2h24.2v96.7h-24.2V3532.2z M1968.1,3532.2h24.2v96.7h-24.2V3532.2z
M2016.4,3532.2h24.2v96.7h-24.2V3532.2z M2064.8,3532.2h24.2v96.7h-24.2V3532.2z M2113.1,3532.2h24.2v96.7h-24.2V3532.2z
M2161.4,3532.2h24.2v96.7h-24.2V3532.2z M2209.8,3532.2h24.2v96.7h-24.2V3532.2z M2258.1,3532.2h24.2v96.7h-24.2V3532.2z
M2306.4,3532.2h24.2v96.7h-24.2V3532.2z M2354.8,3532.2h24.2v96.7h-24.2V3532.2z M2403.1,3532.2h24.2v96.7h-24.2V3532.2z
M2451.4,3532.2h24.2v96.7h-24.2V3532.2z M2499.8,3532.2h24.2v96.7h-24.2V3532.2z M2548.1,3532.2h24.2v96.7h-24.2V3532.2z
M2596.5,3532.2h24.2v96.7h-24.2V3532.2z M2644.8,3532.2h24.2v96.7h-24.2V3532.2z M2693.1,3532.2h24.2v96.7h-24.2V3532.2z
M2741.5,3532.2h24.2v96.7h-24.2V3532.2z M2789.8,3532.2h24.2v96.7h-24.2V3532.2z M2838.1,3532.2h24.2v96.7h-24.2V3532.2z
M373,3532.2h24.2v96.7H373V3532.2z M34.6,3653h24.2v96.7H34.6V3653z M83,3653h24.2v96.7H83V3653z M131.3,3653h24.2v96.7h-24.2
V3653z M179.6,3653h24.2v96.7h-24.2V3653z M228,3653h24.2v96.7H228L228,3653z M276.3,3653h24.2v96.7h-24.2V3653z M324.6,3653h24.2
v96.7h-24.2V3653z M421.3,3653h24.2v96.7h-24.2V3653z M469.6,3653h24.2v96.7h-24.2V3653z M518,3653h24.2v96.7H518V3653z
M566.3,3653h24.2v96.7h-24.2V3653z M614.7,3653h24.2v96.7h-24.2V3653z M663,3653h24.2v96.7H663V3653z M711.3,3653h24.2v96.7h-24.2
V3653z M759.7,3653h24.2v96.7h-24.2V3653z M808,3653h24.2v96.7H808V3653z M856.3,3653h24.2v96.7h-24.2V3653z M904.7,3653h24.2v96.7
h-24.2V3653z M953,3653h24.2v96.7H953V3653z M1001.3,3653h24.2v96.7h-24.2V3653z M1049.7,3653h24.2v96.7h-24.2V3653z M1098,3653
h24.2v96.7H1098V3653z M1146.4,3653h24.2v96.7h-24.2V3653z M1194.7,3653h24.2v96.7h-24.2V3653z M1243,3653h24.2v96.7H1243V3653z
M1291.4,3653h24.2v96.7h-24.2V3653z M1339.7,3653h24.2v96.7h-24.2V3653z M1388,3653h24.2v96.7H1388V3653z M1436.4,3653h24.2v96.7
h-24.2V3653z M1484.7,3653h24.2v96.7h-24.2V3653z M1533,3653h24.2v96.7H1533V3653z M1581.4,3653h24.2v96.7h-24.2V3653z
M1629.7,3653h24.2v96.7h-24.2V3653z M1678.1,3653h24.2v96.7h-24.2V3653z M1726.4,3653h24.2v96.7h-24.2V3653z M1774.7,3653h24.2
v96.7h-24.2V3653z M1823.1,3653h24.2v96.7h-24.2V3653z M1871.4,3653h24.2v96.7h-24.2V3653z M1919.7,3653h24.2v96.7h-24.2V3653z
M1968.1,3653h24.2v96.7h-24.2V3653z M2016.4,3653h24.2v96.7h-24.2V3653z M2064.8,3653h24.2v96.7h-24.2V3653z M2113.1,3653h24.2
v96.7h-24.2V3653z M2161.4,3653h24.2v96.7h-24.2V3653z M2209.8,3653h24.2v96.7h-24.2V3653z M2258.1,3653h24.2v96.7h-24.2V3653z
M2306.4,3653h24.2v96.7h-24.2V3653z M2354.8,3653h24.2v96.7h-24.2V3653z M2403.1,3653h24.2v96.7h-24.2V3653z M2451.4,3653h24.2
v96.7h-24.2V3653z M2499.8,3653h24.2v96.7h-24.2V3653z M2548.1,3653h24.2v96.7h-24.2V3653z M2596.5,3653h24.2v96.7h-24.2V3653z
M2644.8,3653h24.2v96.7h-24.2V3653z M2693.1,3653h24.2v96.7h-24.2V3653z M2741.5,3653h24.2v96.7h-24.2V3653z M2789.8,3653h24.2
v96.7h-24.2V3653z M2838.1,3653h24.2v96.7h-24.2V3653z M373,3653h24.2v96.7H373V3653z M34.6,3773.8h24.2v96.7H34.6V3773.8z
M83,3773.8h24.2v96.7H83V3773.8z M131.3,3773.8h24.2v96.7h-24.2V3773.8z M179.6,3773.8h24.2v96.7h-24.2V3773.8z M228,3773.8h24.2
v96.7H228L228,3773.8z M276.3,3773.8h24.2v96.7h-24.2V3773.8z M324.6,3773.8h24.2v96.7h-24.2V3773.8z M421.3,3773.8h24.2v96.7
h-24.2V3773.8z M469.6,3773.8h24.2v96.7h-24.2V3773.8z M518,3773.8h24.2v96.7H518V3773.8z M566.3,3773.8h24.2v96.7h-24.2V3773.8z
M614.7,3773.8h24.2v96.7h-24.2V3773.8z M663,3773.8h24.2v96.7H663V3773.8z M711.3,3773.8h24.2v96.7h-24.2V3773.8z M759.7,3773.8
h24.2v96.7h-24.2V3773.8z M808,3773.8h24.2v96.7H808V3773.8z M856.3,3773.8h24.2v96.7h-24.2V3773.8z M904.7,3773.8h24.2v96.7h-24.2
V3773.8z M953,3773.8h24.2v96.7H953V3773.8z M1001.3,3773.8h24.2v96.7h-24.2V3773.8z M1049.7,3773.8h24.2v96.7h-24.2V3773.8z
M1098,3773.8h24.2v96.7H1098V3773.8z M1146.4,3773.8h24.2v96.7h-24.2V3773.8z M1194.7,3773.8h24.2v96.7h-24.2V3773.8z
M1243,3773.8h24.2v96.7H1243V3773.8z M1291.4,3773.8h24.2v96.7h-24.2V3773.8z M1339.7,3773.8h24.2v96.7h-24.2V3773.8z
M1388,3773.8h24.2v96.7H1388V3773.8z M1436.4,3773.8h24.2v96.7h-24.2V3773.8z M1484.7,3773.8h24.2v96.7h-24.2V3773.8z
M1533,3773.8h24.2v96.7H1533V3773.8z M1581.4,3773.8h24.2v96.7h-24.2V3773.8z M1629.7,3773.8h24.2v96.7h-24.2V3773.8z
M1678.1,3773.8h24.2v96.7h-24.2V3773.8z M1726.4,3773.8h24.2v96.7h-24.2V3773.8z M1774.7,3773.8h24.2v96.7h-24.2V3773.8z
M1823.1,3773.8h24.2v96.7h-24.2V3773.8z M1871.4,3773.8h24.2v96.7h-24.2V3773.8z M1919.7,3773.8h24.2v96.7h-24.2V3773.8z
M1968.1,3773.8h24.2v96.7h-24.2V3773.8z M2016.4,3773.8h24.2v96.7h-24.2V3773.8z M2064.8,3773.8h24.2v96.7h-24.2V3773.8z
M2113.1,3773.8h24.2v96.7h-24.2V3773.8z M2161.4,3773.8h24.2v96.7h-24.2V3773.8z M2209.8,3773.8h24.2v96.7h-24.2V3773.8z
M2258.1,3773.8h24.2v96.7h-24.2V3773.8z M2306.4,3773.8h24.2v96.7h-24.2V3773.8z M2354.8,3773.8h24.2v96.7h-24.2V3773.8z
M2403.1,3773.8h24.2v96.7h-24.2V3773.8z M2451.4,3773.8h24.2v96.7h-24.2V3773.8z M2499.8,3773.8h24.2v96.7h-24.2V3773.8z
M2548.1,3773.8h24.2v96.7h-24.2V3773.8z M2596.5,3773.8h24.2v96.7h-24.2V3773.8z M2644.8,3773.8h24.2v96.7h-24.2V3773.8z
M2693.1,3773.8h24.2v96.7h-24.2V3773.8z M2741.5,3773.8h24.2v96.7h-24.2V3773.8z M2789.8,3773.8h24.2v96.7h-24.2V3773.8z
M2838.1,3773.8h24.2v96.7h-24.2V3773.8z M373,3773.8h24.2v96.7H373V3773.8z"/>
</g>
<g class="brick-group-7 billions-letter-group">
<path fill="#fff" class="billions-item" d="M2013.1,3624.1h877.4V3900h-877.4V3624.1z"/>
<path class="billions-letter billions-item" d="M2124.4,3651.7h-50.1l-34.9,218h31.4l5.9-39.5h42.1l5.9,39.5h34.6L2124.4,3651.7z M2097.6,3690.3l16.5,110.3h-33
L2097.6,3690.3z M2253.6,3869.7h35.2v-218h-30.5v130.5l-35.2-130.5h-43v218h30.8v-157.9L2253.6,3869.7z M2318.8,3869.7h54.2
c34.3,0,51.1-19,51.1-53.9v-110.3c0-34.9-16.8-53.9-51.1-53.9h-54.2V3869.7z M2372.3,3682.8c10.9,0,17.4,5.6,17.4,21.1v113.4
c0,15.6-6.6,21.1-17.4,21.1h-19.4v-155.7L2372.3,3682.8z M2528,3869.7h34.3v-72.2l43.3-145.8h-32.7l-26.2,99.4l-26.1-99.4h-35.8
l43.3,145.8L2528,3869.7L2528,3869.7z M2649.9,3701.8c0-15.6,6.9-21.5,17.8-21.5s17.8,5.9,17.8,21.5v117.7
c0,15.6-6.8,21.5-17.8,21.5c-10.9,0-17.8-5.9-17.8-21.5V3701.8z M2615.6,3817.4c0,34.9,18.4,54.8,52,54.8c33.6,0,52-19.9,52-54.8
V3704c0-34.9-18.4-54.8-52-54.8s-52,19.9-52,54.8V3817.4z M2745.5,3651.7v166c0,34.9,17.4,54.8,51.1,54.8s51.1-19.9,51.1-54.8v-166
h-32.4v168.2c0,15.6-6.8,21.1-17.8,21.1c-10.9,0-17.8-5.6-17.8-21.1v-168.2H2745.5z"/>
</g>
</svg>
