<?xml version="1.0" encoding="UTF-8" standalone="no"?>
<!DOCTYPE svg PUBLIC "-//W3C//DTD SVG 1.1//EN" "http://www.w3.org/Graphics/SVG/1.1/DTD/svg11.dtd">
<svg width="100%" height="100%" viewBox="0 0 701 1100" version="1.1" xmlns="http://www.w3.org/2000/svg" xmlns:xlink="http://www.w3.org/1999/xlink" xml:space="preserve" style="fill-rule:evenodd;clip-rule:evenodd;stroke-linejoin:round;stroke-miterlimit:1.41421;">
    <g transform="matrix(1,0,0,1,-26.4358,-3917.13)">
        <g transform="matrix(2,0,0,2,0,0)">
            <path d="M126.589,2405.91C126.589,2349.28 172.493,2303.38 229.117,2303.38C285.741,2303.38 331.646,2349.28 331.646,2405.91C331.646,2462.53 285.741,2508.43 229.117,2508.43C172.493,2508.43 126.589,2462.53 126.589,2405.91" style="fill-rule:nonzero;"/>
        </g>
        <g transform="matrix(2,0,0,2,0,0)">
            <path d="M13.218,2218.95C13.218,2149.07 69.866,2092.42 139.746,2092.42C209.624,2092.42 266.272,2149.07 266.272,2218.95C266.272,2288.83 209.624,2345.47 139.746,2345.47C69.866,2345.47 13.218,2288.83 13.218,2218.95" style="fill-rule:nonzero;"/>
        </g>
        <g transform="matrix(2,0,0,2,0,0)">
            <path d="M248.9,1958.57C198.941,1958.57 158.442,1999.07 158.442,2049.03C158.442,2098.98 198.941,2139.48 248.9,2139.48C298.857,2139.48 339.357,2098.98 339.357,2049.03C339.357,1999.07 298.857,1958.57 248.9,1958.57" style="fill:white;fill-rule:nonzero;"/>
        </g>
        <g transform="matrix(2,0,0,2,0,0)">
            <path d="M361.048,2150.07C366.309,2128.65 362.912,2106.47 351.485,2087.6L332.944,2098.83C341.372,2112.74 343.877,2129.11 339.997,2144.91C336.541,2158.97 328.38,2171.09 316.809,2179.52L302.085,2155.21L288.77,2209.46L343.011,2222.79L328.073,2198.12C344.582,2186.65 356.21,2169.77 361.048,2150.07" style="fill-rule:nonzero;"/>
        </g>
        <g transform="matrix(2,0,0,2,0,0)">
            <path d="M55.079,2008.73L55.079,2024.72C55.079,2028.08 56.759,2030 59.999,2030C63.239,2030 64.919,2028.08 64.919,2024.72L64.919,2008.73L61.799,2008.73L61.799,2024.93C61.799,2026.43 61.139,2026.97 60.089,2026.97C59.039,2026.97 58.379,2026.43 58.379,2024.93L58.379,2008.73L55.079,2008.73Z" style="fill:white;fill-rule:nonzero;"/>
            <path d="M68.249,2013.77C68.249,2019.77 74.699,2020.58 74.699,2024.9C74.699,2026.4 74.039,2026.94 72.989,2026.94C71.939,2026.94 71.279,2026.4 71.279,2024.9L71.279,2023.4L68.159,2023.4L68.159,2024.69C68.159,2028.05 69.839,2029.97 73.079,2029.97C76.319,2029.97 77.999,2028.05 77.999,2024.69C77.999,2018.69 71.549,2017.88 71.549,2013.56C71.549,2012.06 72.149,2011.49 73.199,2011.49C74.249,2011.49 74.849,2012.06 74.849,2013.56L74.849,2014.43L77.969,2014.43L77.969,2013.77C77.969,2010.41 76.319,2008.49 73.109,2008.49C69.899,2008.49 68.249,2010.41 68.249,2013.77Z" style="fill:white;fill-rule:nonzero;"/>
            <path d="M84.689,2011.73L90.389,2011.73L90.389,2008.73L81.389,2008.73L81.389,2029.73L90.389,2029.73L90.389,2026.73L84.689,2026.73L84.689,2020.58L89.219,2020.58L89.219,2017.58L84.689,2017.58L84.689,2011.73Z" style="fill:white;fill-rule:nonzero;"/>
            <path d="M104.189,2029.73C103.859,2028.95 103.829,2028.2 103.829,2027.18L103.829,2023.94C103.829,2021.75 103.289,2020.16 101.639,2019.47C103.109,2018.78 103.799,2017.37 103.799,2015.21L103.799,2013.56C103.799,2010.32 102.329,2008.73 98.909,2008.73L93.929,2008.73L93.929,2029.73L97.229,2029.73L97.229,2021.18L98.369,2021.18C99.869,2021.18 100.529,2021.9 100.529,2023.85L100.529,2027.15C100.529,2028.86 100.649,2029.19 100.829,2029.73L104.189,2029.73ZM98.819,2011.73C99.989,2011.73 100.499,2012.39 100.499,2013.89L100.499,2015.96C100.499,2017.64 99.749,2018.18 98.519,2018.18L97.229,2018.18L97.229,2011.73L98.819,2011.73Z" style="fill:white;fill-rule:nonzero;"/>
            <path d="M107.069,2013.77C107.069,2019.77 113.519,2020.58 113.519,2024.9C113.519,2026.4 112.859,2026.94 111.809,2026.94C110.759,2026.94 110.099,2026.4 110.099,2024.9L110.099,2023.4L106.979,2023.4L106.979,2024.69C106.979,2028.05 108.659,2029.97 111.899,2029.97C115.139,2029.97 116.819,2028.05 116.819,2024.69C116.819,2018.69 110.369,2017.88 110.369,2013.56C110.369,2012.06 110.969,2011.49 112.019,2011.49C113.069,2011.49 113.669,2012.06 113.669,2013.56L113.669,2014.43L116.789,2014.43L116.789,2013.77C116.789,2010.41 115.139,2008.49 111.929,2008.49C108.719,2008.49 107.069,2010.41 107.069,2013.77Z" style="fill:white;fill-rule:nonzero;"/>
        </g>
        <g transform="matrix(2,0,0,2,0,0)">
            <path d="M78.891,2210.97L75.561,2210.97L78.801,2231.97L83.721,2231.97L86.961,2210.97L83.931,2210.97L81.411,2228.11L78.891,2210.97Z" style="fill:white;fill-rule:nonzero;"/>
            <path d="M92.991,2215.8C92.991,2214.3 93.651,2213.74 94.701,2213.74C95.751,2213.74 96.411,2214.3 96.411,2215.8L96.411,2227.14C96.411,2228.64 95.751,2229.22 94.701,2229.22C93.651,2229.22 92.991,2228.64 92.991,2227.14L92.991,2215.8ZM89.691,2226.93C89.691,2230.3 91.461,2232.22 94.701,2232.22C97.941,2232.22 99.711,2230.3 99.711,2226.93L99.711,2216.01C99.711,2212.66 97.941,2210.74 94.701,2210.74C91.461,2210.74 89.691,2212.66 89.691,2216.01L89.691,2226.93Z" style="fill:white;fill-rule:nonzero;"/>
            <path d="M103.341,2231.97L112.071,2231.97L112.071,2228.97L106.641,2228.97L106.641,2210.97L103.341,2210.97L103.341,2231.97Z" style="fill:white;fill-rule:nonzero;"/>
            <path d="M114.861,2210.97L114.861,2226.97C114.861,2230.33 116.541,2232.24 119.781,2232.24C123.021,2232.24 124.701,2230.33 124.701,2226.97L124.701,2210.97L121.581,2210.97L121.581,2227.18C121.581,2228.68 120.921,2229.22 119.871,2229.22C118.821,2229.22 118.161,2228.68 118.161,2227.18L118.161,2210.97L114.861,2210.97Z" style="fill:white;fill-rule:nonzero;"/>
            <path d="M135.501,2231.97L138.891,2231.97L138.891,2210.97L135.951,2210.97L135.951,2223.55L132.561,2210.97L128.421,2210.97L128.421,2231.97L131.391,2231.97L131.391,2216.76L135.501,2231.97Z" style="fill:white;fill-rule:nonzero;"/>
            <path d="M141.801,2213.97L145.251,2213.97L145.251,2231.97L148.551,2231.97L148.551,2213.97L152.001,2213.97L152.001,2210.97L141.801,2210.97L141.801,2213.97Z" style="fill:white;fill-rule:nonzero;"/>
            <path d="M158.241,2213.97L163.941,2213.97L163.941,2210.97L154.941,2210.97L154.941,2231.97L163.941,2231.97L163.941,2228.97L158.241,2228.97L158.241,2222.83L162.771,2222.83L162.771,2219.83L158.241,2219.83L158.241,2213.97Z" style="fill:white;fill-rule:nonzero;"/>
            <path d="M170.781,2213.97L176.481,2213.97L176.481,2210.97L167.481,2210.97L167.481,2231.97L176.481,2231.97L176.481,2228.97L170.781,2228.97L170.781,2222.83L175.311,2222.83L175.311,2219.83L170.781,2219.83L170.781,2213.97Z" style="fill:white;fill-rule:nonzero;"/>
            <path d="M190.281,2231.97C189.951,2231.2 189.921,2230.45 189.921,2229.43L189.921,2226.18C189.921,2223.99 189.381,2222.41 187.731,2221.72C189.201,2221.03 189.891,2219.62 189.891,2217.45L189.891,2215.8C189.891,2212.57 188.421,2210.97 185.001,2210.97L180.021,2210.97L180.021,2231.97L183.321,2231.97L183.321,2223.43L184.461,2223.43C185.961,2223.43 186.621,2224.14 186.621,2226.1L186.621,2229.39C186.621,2231.11 186.741,2231.43 186.921,2231.97L190.281,2231.97ZM184.911,2213.97C186.081,2213.97 186.591,2214.64 186.591,2216.14L186.591,2218.2C186.591,2219.89 185.841,2220.43 184.611,2220.43L183.321,2220.43L183.321,2213.97L184.911,2213.97Z" style="fill:white;fill-rule:nonzero;"/>
            <path d="M193.161,2216.01C193.161,2222.01 199.611,2222.83 199.611,2227.14C199.611,2228.64 198.951,2229.18 197.901,2229.18C196.851,2229.18 196.191,2228.64 196.191,2227.14L196.191,2225.64L193.071,2225.64L193.071,2226.93C193.071,2230.3 194.751,2232.22 197.991,2232.22C201.231,2232.22 202.911,2230.3 202.911,2226.93C202.911,2220.93 196.461,2220.12 196.461,2215.8C196.461,2214.3 197.061,2213.74 198.111,2213.74C199.161,2213.74 199.761,2214.3 199.761,2215.8L199.761,2216.68L202.881,2216.68L202.881,2216.01C202.881,2212.66 201.231,2210.74 198.021,2210.74C194.811,2210.74 193.161,2212.66 193.161,2216.01Z" style="fill:white;fill-rule:nonzero;"/>
        </g>
        <g transform="matrix(2,0,0,2,0,0)">
            <path d="M188.601,2414.71L193.821,2414.71C197.121,2414.71 198.741,2412.88 198.741,2409.52L198.741,2398.9C198.741,2395.54 197.121,2393.71 193.821,2393.71L188.601,2393.71L188.601,2414.71ZM193.761,2396.71C194.811,2396.71 195.441,2397.25 195.441,2398.75L195.441,2409.67C195.441,2411.17 194.811,2411.71 193.761,2411.71L191.901,2411.71L191.901,2396.71L193.761,2396.71Z" style="fill:white;fill-rule:nonzero;"/>
            <path d="M205.371,2398.54C205.371,2397.04 206.031,2396.47 207.081,2396.47C208.131,2396.47 208.791,2397.04 208.791,2398.54L208.791,2409.88C208.791,2411.38 208.131,2411.95 207.081,2411.95C206.031,2411.95 205.371,2411.38 205.371,2409.88L205.371,2398.54ZM202.071,2409.67C202.071,2413.03 203.841,2414.95 207.081,2414.95C210.321,2414.95 212.091,2413.03 212.091,2409.67L212.091,2398.75C212.091,2395.39 210.321,2393.47 207.081,2393.47C203.841,2393.47 202.071,2395.39 202.071,2398.75L202.071,2409.67Z" style="fill:white;fill-rule:nonzero;"/>
            <path d="M222.771,2414.71L226.161,2414.71L226.161,2393.71L223.221,2393.71L223.221,2406.28L219.831,2393.71L215.691,2393.71L215.691,2414.71L218.661,2414.71L218.661,2399.5L222.771,2414.71Z" style="fill:white;fill-rule:nonzero;"/>
            <path d="M233.061,2398.54C233.061,2397.04 233.721,2396.47 234.771,2396.47C235.821,2396.47 236.481,2397.04 236.481,2398.54L236.481,2409.88C236.481,2411.38 235.821,2411.95 234.771,2411.95C233.721,2411.95 233.061,2411.38 233.061,2409.88L233.061,2398.54ZM229.761,2409.67C229.761,2413.03 231.531,2414.95 234.771,2414.95C238.011,2414.95 239.781,2413.03 239.781,2409.67L239.781,2398.75C239.781,2395.39 238.011,2393.47 234.771,2393.47C231.531,2393.47 229.761,2395.39 229.761,2398.75L229.761,2409.67Z" style="fill:white;fill-rule:nonzero;"/>
            <path d="M253.671,2414.71C253.341,2413.93 253.311,2413.18 253.311,2412.16L253.311,2408.92C253.311,2406.73 252.771,2405.14 251.121,2404.45C252.591,2403.76 253.281,2402.35 253.281,2400.19L253.281,2398.54C253.281,2395.3 251.811,2393.71 248.391,2393.71L243.411,2393.71L243.411,2414.71L246.711,2414.71L246.711,2406.16L247.851,2406.16C249.351,2406.16 250.011,2406.88 250.011,2408.83L250.011,2412.13C250.011,2413.84 250.131,2414.17 250.311,2414.71L253.671,2414.71ZM248.301,2396.71C249.471,2396.71 249.981,2397.37 249.981,2398.87L249.981,2400.94C249.981,2402.62 249.231,2403.16 248.001,2403.16L246.711,2403.16L246.711,2396.71L248.301,2396.71Z" style="fill:white;fill-rule:nonzero;"/>
            <path d="M256.551,2398.75C256.551,2404.75 263.001,2405.56 263.001,2409.88C263.001,2411.38 262.341,2411.92 261.291,2411.92C260.241,2411.92 259.581,2411.38 259.581,2409.88L259.581,2408.38L256.461,2408.38L256.461,2409.67C256.461,2413.03 258.141,2414.95 261.381,2414.95C264.621,2414.95 266.301,2413.03 266.301,2409.67C266.301,2403.67 259.851,2402.86 259.851,2398.54C259.851,2397.04 260.451,2396.47 261.501,2396.47C262.551,2396.47 263.151,2397.04 263.151,2398.54L263.151,2399.41L266.271,2399.41L266.271,2398.75C266.271,2395.39 264.621,2393.47 261.411,2393.47C258.201,2393.47 256.551,2395.39 256.551,2398.75Z" style="fill:white;fill-rule:nonzero;"/>
        </g>
        <g transform="matrix(2,0,0,2,0,0)">
            <g>
                <path d="M203.504,2040.37L207.884,2040.37L210.224,2019.37L207.344,2019.37L205.634,2036.05L203.984,2019.37L200.804,2019.37L199.214,2035.93L197.444,2019.37L194.234,2019.37L196.574,2040.37L201.104,2040.37L202.304,2029.18L203.504,2040.37Z" style="fill-rule:nonzero;"/>
                <rect x="213.374" y="2019.37" width="3.3" height="21" style="fill-rule:nonzero;"/>
                <path d="M228.104,2040.37L231.494,2040.37L226.904,2028.73L231.494,2019.37L228.194,2019.37L223.874,2028.52L223.874,2019.37L220.574,2019.37L220.574,2040.37L223.874,2040.37L223.874,2033.92L224.894,2032L228.104,2040.37Z" style="fill-rule:nonzero;"/>
                <rect x="234.494" y="2019.37" width="3.3" height="21" style="fill-rule:nonzero;"/>
                <path d="M246.254,2019.37L241.664,2019.37L241.664,2040.37L244.544,2040.37L244.544,2025.52L247.004,2040.37L250.124,2040.37L252.404,2025.31L252.404,2040.37L255.524,2040.37L255.524,2019.37L250.934,2019.37L248.684,2034.28L246.254,2019.37Z" style="fill-rule:nonzero;"/>
                <path d="M262.724,2022.37L268.424,2022.37L268.424,2019.37L259.424,2019.37L259.424,2040.37L268.424,2040.37L268.424,2037.37L262.724,2037.37L262.724,2031.22L267.254,2031.22L267.254,2028.22L262.724,2028.22L262.724,2022.37Z" style="fill-rule:nonzero;"/>
                <path d="M271.964,2040.37L277.184,2040.37C280.484,2040.37 282.104,2038.54 282.104,2035.18L282.104,2024.56C282.104,2021.2 280.484,2019.37 277.184,2019.37L271.964,2019.37L271.964,2040.37ZM277.124,2022.37C278.174,2022.37 278.804,2022.91 278.804,2024.41L278.804,2035.33C278.804,2036.83 278.174,2037.37 277.124,2037.37L275.264,2037.37L275.264,2022.37L277.124,2022.37Z" style="fill-rule:nonzero;"/>
                <rect x="285.704" y="2019.37" width="3.3" height="21" style="fill-rule:nonzero;"/>
                <path d="M300.224,2019.37L295.394,2019.37L292.034,2040.37L295.064,2040.37L295.634,2036.56L299.684,2036.56L300.254,2040.37L303.584,2040.37L300.224,2019.37ZM297.644,2023.09L299.234,2033.71L296.054,2033.71L297.644,2023.09Z" style="fill-rule:nonzero;"/>
                <path d="M190.364,2052.76L195.794,2052.76L195.794,2049.76L187.064,2049.76L187.064,2070.76L190.364,2070.76L190.364,2062.09L194.624,2062.09L194.624,2059.09L190.364,2059.09L190.364,2052.76Z" style="fill-rule:nonzero;"/>
                <path d="M201.914,2054.59C201.914,2053.09 202.574,2052.52 203.624,2052.52C204.674,2052.52 205.334,2053.09 205.334,2054.59L205.334,2065.93C205.334,2067.43 204.674,2068 203.624,2068C202.574,2068 201.914,2067.43 201.914,2065.93L201.914,2054.59ZM198.614,2065.72C198.614,2069.08 200.384,2071 203.624,2071C206.864,2071 208.634,2069.08 208.634,2065.72L208.634,2054.8C208.634,2051.44 206.864,2049.52 203.624,2049.52C200.384,2049.52 198.614,2051.44 198.614,2054.8L198.614,2065.72Z" style="fill-rule:nonzero;"/>
                <path d="M212.114,2049.76L212.114,2065.75C212.114,2069.11 213.794,2071.03 217.034,2071.03C220.274,2071.03 221.954,2069.11 221.954,2065.75L221.954,2049.76L218.834,2049.76L218.834,2065.96C218.834,2067.46 218.174,2068 217.124,2068C216.074,2068 215.414,2067.46 215.414,2065.96L215.414,2049.76L212.114,2049.76Z" style="fill-rule:nonzero;"/>
                <path d="M232.754,2070.76L236.144,2070.76L236.144,2049.76L233.204,2049.76L233.204,2062.33L229.814,2049.76L225.674,2049.76L225.674,2070.76L228.644,2070.76L228.644,2055.55L232.754,2070.76Z" style="fill-rule:nonzero;"/>
                <path d="M240.014,2070.76L245.234,2070.76C248.534,2070.76 250.154,2068.93 250.154,2065.57L250.154,2054.95C250.154,2051.59 248.534,2049.76 245.234,2049.76L240.014,2049.76L240.014,2070.76ZM245.174,2052.76C246.224,2052.76 246.854,2053.3 246.854,2054.8L246.854,2065.72C246.854,2067.22 246.224,2067.76 245.174,2067.76L243.314,2067.76L243.314,2052.76L245.174,2052.76Z" style="fill-rule:nonzero;"/>
                <path d="M261.044,2049.76L256.214,2049.76L252.854,2070.76L255.884,2070.76L256.454,2066.95L260.504,2066.95L261.074,2070.76L264.404,2070.76L261.044,2049.76ZM258.464,2053.48L260.054,2064.1L256.874,2064.1L258.464,2053.48Z" style="fill-rule:nonzero;"/>
                <path d="M266.474,2052.76L269.924,2052.76L269.924,2070.76L273.224,2070.76L273.224,2052.76L276.674,2052.76L276.674,2049.76L266.474,2049.76L266.474,2052.76Z" style="fill-rule:nonzero;"/>
                <rect x="279.614" y="2049.76" width="3.3" height="21" style="fill-rule:nonzero;"/>
                <path d="M289.844,2054.59C289.844,2053.09 290.504,2052.52 291.554,2052.52C292.604,2052.52 293.264,2053.09 293.264,2054.59L293.264,2065.93C293.264,2067.43 292.604,2068 291.554,2068C290.504,2068 289.844,2067.43 289.844,2065.93L289.844,2054.59ZM286.544,2065.72C286.544,2069.08 288.314,2071 291.554,2071C294.794,2071 296.564,2069.08 296.564,2065.72L296.564,2054.8C296.564,2051.44 294.794,2049.52 291.554,2049.52C288.314,2049.52 286.544,2051.44 286.544,2054.8L286.544,2065.72Z" style="fill-rule:nonzero;"/>
                <path d="M307.244,2070.76L310.634,2070.76L310.634,2049.76L307.694,2049.76L307.694,2062.33L304.304,2049.76L300.164,2049.76L300.164,2070.76L303.134,2070.76L303.134,2055.55L307.244,2070.76Z" style="fill-rule:nonzero;"/>
            </g>
        </g>
    </g>
</svg>
