<?xml version="1.0" encoding="UTF-8" standalone="no"?>
<!DOCTYPE svg PUBLIC "-//W3C//DTD SVG 1.1//EN" "http://www.w3.org/Graphics/SVG/1.1/DTD/svg11.dtd">
<svg width="100%" height="100%" viewBox="0 0 781 2607" version="1.1" xmlns="http://www.w3.org/2000/svg" xmlns:xlink="http://www.w3.org/1999/xlink" xml:space="preserve" style="fill-rule:evenodd;clip-rule:evenodd;stroke-miterlimit:10;">
    <g transform="matrix(1,0,0,1,-48.1363,-3819.74)">
        <g transform="matrix(2,0,0,2,0,0)">
            <g>
                <g>
                    <g>
                        <path d="M34.219,2641.03L138.128,2641.03" style="fill:none;stroke:#231F20;stroke-width:2.02px;"/>
                        <path d="M34.219,2671.16L138.128,2671.16" style="fill:none;stroke:#231F20;stroke-width:2.02px;"/>
                        <path d="M34.219,2701.3L138.128,2701.3" style="fill:none;stroke:#231F20;stroke-width:2.02px;"/>
                        <path d="M34.219,2731.43L138.128,2731.43" style="fill:none;stroke:#231F20;stroke-width:2.02px;"/>
                        <path d="M34.219,2761.57L138.128,2761.57" style="fill:none;stroke:#231F20;stroke-width:2.02px;"/>
                        <path d="M34.219,2791.7L138.128,2791.7" style="fill:none;stroke:#231F20;stroke-width:2.02px;"/>
                        <path d="M34.219,2821.84L138.128,2821.84" style="fill:none;stroke:#231F20;stroke-width:2.02px;"/>
                        <path d="M34.219,2851.97L138.128,2851.97" style="fill:none;stroke:#231F20;stroke-width:2.02px;"/>
                        <path d="M34.219,2882.1L138.128,2882.1" style="fill:none;stroke:#231F20;stroke-width:2.02px;"/>
                        <path d="M34.219,2912.24L138.128,2912.24" style="fill:none;stroke:#231F20;stroke-width:2.02px;"/>
                        <path d="M34.219,2942.37L138.128,2942.37" style="fill:none;stroke:#231F20;stroke-width:2.02px;"/>
                        <path d="M34.219,2972.51L138.128,2972.51" style="fill:none;stroke:#231F20;stroke-width:2.02px;"/>
                        <path d="M34.219,3002.64L138.128,3002.64" style="fill:none;stroke:#231F20;stroke-width:2.02px;"/>
                        <path d="M34.219,3032.78L138.128,3032.78" style="fill:none;stroke:#231F20;stroke-width:2.02px;"/>
                        <path d="M34.219,3062.91L138.128,3062.91" style="fill:none;stroke:#231F20;stroke-width:2.02px;"/>
                        <path d="M34.219,2641.03L238.19,1920.02" style="fill:none;stroke:#231F20;stroke-width:2.02px;"/>
                        <path d="M34.219,2671.16L238.19,1920.02" style="fill:none;stroke:#231F20;stroke-width:2.02px;"/>
                        <path d="M34.219,2701.3L238.19,1920.02" style="fill:none;stroke:#231F20;stroke-width:2.02px;"/>
                        <path d="M34.219,2731.43L238.19,1920.02" style="fill:none;stroke:#231F20;stroke-width:2.02px;"/>
                        <path d="M34.219,2761.57L238.19,1920.02" style="fill:none;stroke:#231F20;stroke-width:2.02px;"/>
                        <path d="M34.219,2791.7L238.19,1920.02" style="fill:none;stroke:#231F20;stroke-width:2.02px;"/>
                        <path d="M34.219,2821.84L238.19,1920.02" style="fill:none;stroke:#231F20;stroke-width:2.02px;"/>
                        <path d="M34.219,2851.97L238.19,1920.02" style="fill:none;stroke:#231F20;stroke-width:2.02px;"/>
                        <path d="M34.219,2882.1L238.19,1920.02" style="fill:none;stroke:#231F20;stroke-width:2.02px;"/>
                        <path d="M34.219,2912.24L238.19,1920.02" style="fill:none;stroke:#231F20;stroke-width:2.02px;"/>
                        <path d="M34.219,2942.37L238.19,1920.02" style="fill:none;stroke:#231F20;stroke-width:2.02px;"/>
                        <path d="M34.219,2972.51L238.19,1920.02" style="fill:none;stroke:#231F20;stroke-width:2.02px;"/>
                        <path d="M34.219,3002.64L238.19,1920.02" style="fill:none;stroke:#231F20;stroke-width:2.02px;"/>
                        <path d="M34.219,3032.78L238.19,1920.02" style="fill:none;stroke:#231F20;stroke-width:2.02px;"/>
                        <path d="M34.219,3062.91L238.19,1920.02" style="fill:none;stroke:#231F20;stroke-width:2.02px;"/>
                    </g>
                    <g>
                        <path d="M161.481,2644.09L163.478,2637.62L166.102,2637.62L168.083,2644.09L170.321,2637.62L173.043,2637.62L169.114,2648.88L167.246,2648.88L164.782,2641.05L162.334,2648.88L160.467,2648.88L156.537,2637.62L159.259,2637.62L161.481,2644.09Z" style="fill:rgb(35,31,32);fill-rule:nonzero;"/>
                        <path d="M178.953,2648.88L176.538,2648.88L176.538,2640.21L178.953,2640.21L178.953,2648.88ZM176.328,2638.1C176.328,2637.71 176.465,2637.37 176.739,2637.1C177.013,2636.82 177.348,2636.69 177.745,2636.69C178.142,2636.69 178.478,2636.82 178.752,2637.1C179.025,2637.37 179.162,2637.71 179.162,2638.1C179.162,2638.5 179.025,2638.84 178.752,2639.11C178.478,2639.38 178.142,2639.52 177.745,2639.52C177.348,2639.52 177.013,2639.38 176.739,2639.11C176.465,2638.84 176.328,2638.5 176.328,2638.1Z" style="fill:rgb(35,31,32);fill-rule:nonzero;"/>
                        <path d="M185.405,2648.88L182.989,2648.88L182.989,2636.93L185.405,2636.93L185.405,2643.06L188.094,2640.2L191.137,2640.2L187.836,2643.71L191.266,2648.88L188.4,2648.88L186.194,2645.56L185.405,2646.38L185.405,2648.88Z" style="fill:rgb(35,31,32);fill-rule:nonzero;"/>
                        <path d="M196.936,2648.88L194.52,2648.88L194.52,2640.21L196.936,2640.21L196.936,2648.88ZM194.311,2638.1C194.311,2637.71 194.448,2637.37 194.722,2637.1C194.995,2636.82 195.331,2636.69 195.728,2636.69C196.125,2636.69 196.461,2636.82 196.735,2637.1C197.008,2637.37 197.145,2637.71 197.145,2638.1C197.145,2638.5 197.008,2638.84 196.735,2639.11C196.461,2639.38 196.125,2639.52 195.728,2639.52C195.331,2639.52 194.995,2639.38 194.722,2639.11C194.448,2638.84 194.311,2638.5 194.311,2638.1Z" style="fill:rgb(35,31,32);fill-rule:nonzero;"/>
                        <path d="M208.71,2641.33C209.499,2642.18 209.893,2643.24 209.893,2644.51C209.893,2645.79 209.499,2646.86 208.71,2647.72C207.921,2648.58 206.997,2649.01 205.94,2649.01C204.883,2649.01 204.032,2648.58 203.388,2647.73L203.388,2652L200.972,2652L200.972,2640.21L203.388,2640.21L203.388,2641.18C204.128,2640.44 205.003,2640.07 206.012,2640.07C207.022,2640.07 207.921,2640.49 208.71,2641.33ZM203.943,2646.28C204.335,2646.72 204.81,2646.95 205.368,2646.95C205.927,2646.95 206.415,2646.72 206.834,2646.28C207.252,2645.83 207.462,2645.26 207.462,2644.56C207.462,2643.86 207.258,2643.28 206.85,2642.81C206.442,2642.33 205.953,2642.1 205.384,2642.1C204.816,2642.1 204.335,2642.33 203.943,2642.8C203.551,2643.26 203.356,2643.85 203.356,2644.55C203.356,2645.26 203.551,2645.83 203.943,2646.28Z" style="fill:rgb(35,31,32);fill-rule:nonzero;"/>
                        <path d="M220.3,2647.62C219.324,2648.54 218.178,2649.01 216.863,2649.01C215.547,2649.01 214.461,2648.6 213.602,2647.79C212.743,2646.98 212.314,2645.89 212.314,2644.53C212.314,2643.17 212.751,2642.08 213.626,2641.28C214.501,2640.47 215.534,2640.07 216.726,2640.07C217.917,2640.07 218.929,2640.43 219.761,2641.15C220.593,2641.87 221.009,2642.86 221.009,2644.11L221.009,2645.4L214.697,2645.4C214.772,2645.87 215.019,2646.26 215.437,2646.56C215.856,2646.86 216.328,2647.01 216.854,2647.01C217.703,2647.01 218.4,2646.72 218.948,2646.16L220.3,2647.62ZM217.982,2642.48C217.649,2642.2 217.244,2642.07 216.766,2642.07C216.288,2642.07 215.851,2642.21 215.454,2642.5C215.056,2642.79 214.826,2643.18 214.761,2643.68L218.561,2643.68C218.508,2643.16 218.314,2642.76 217.982,2642.48Z" style="fill:rgb(35,31,32);fill-rule:nonzero;"/>
                        <path d="M223.973,2647.7C223.167,2646.83 222.765,2645.75 222.765,2644.47C222.765,2643.18 223.157,2642.12 223.94,2641.3C224.724,2640.48 225.642,2640.07 226.694,2640.07C227.746,2640.07 228.605,2640.44 229.27,2641.18L229.27,2636.93L231.686,2636.93L231.686,2648.88L229.27,2648.88L229.27,2647.73C228.594,2648.58 227.743,2649.01 226.718,2649.01C225.693,2649.01 224.778,2648.57 223.973,2647.7ZM225.824,2646.28C226.243,2646.72 226.731,2646.95 227.29,2646.95C227.848,2646.95 228.323,2646.72 228.715,2646.28C229.107,2645.83 229.303,2645.26 229.303,2644.55C229.303,2643.85 229.107,2643.26 228.715,2642.8C228.323,2642.33 227.843,2642.1 227.274,2642.1C226.705,2642.1 226.216,2642.33 225.808,2642.81C225.4,2643.28 225.196,2643.86 225.196,2644.56C225.196,2645.26 225.406,2645.83 225.824,2646.28Z" style="fill:rgb(35,31,32);fill-rule:nonzero;"/>
                        <path d="M237.488,2648.88L235.072,2648.88L235.072,2640.21L237.488,2640.21L237.488,2648.88ZM234.863,2638.1C234.863,2637.71 235,2637.37 235.274,2637.1C235.547,2636.82 235.883,2636.69 236.28,2636.69C236.677,2636.69 237.013,2636.82 237.286,2637.1C237.56,2637.37 237.697,2637.71 237.697,2638.1C237.697,2638.5 237.56,2638.84 237.286,2639.11C237.013,2639.38 236.677,2639.52 236.28,2639.52C235.883,2639.52 235.547,2639.38 235.274,2639.11C235,2638.84 234.863,2638.5 234.863,2638.1Z" style="fill:rgb(35,31,32);fill-rule:nonzero;"/>
                        <path d="M248.233,2648.88L245.963,2648.88L245.963,2647.83C245.34,2648.61 244.57,2649.01 243.652,2649.01C242.734,2649.01 241.964,2648.74 241.341,2648.21C240.719,2647.68 240.407,2646.97 240.407,2646.08C240.407,2645.2 240.729,2644.53 241.373,2644.09C242.017,2643.65 242.898,2643.43 244.014,2643.43L245.818,2643.43L245.818,2643.39C245.818,2642.46 245.329,2642 244.352,2642C243.934,2642 243.491,2642.08 243.024,2642.25C242.557,2642.42 242.162,2642.62 241.84,2642.87L240.761,2641.31C241.899,2640.48 243.198,2640.07 244.658,2640.07C245.71,2640.07 246.569,2640.33 247.235,2640.86C247.9,2641.38 248.233,2642.22 248.233,2643.35L248.233,2648.88ZM245.802,2645.58L245.802,2645.16L244.288,2645.16C243.322,2645.16 242.839,2645.46 242.839,2646.06C242.839,2646.37 242.954,2646.61 243.185,2646.78C243.416,2646.94 243.746,2647.03 244.175,2647.03C244.605,2647.03 244.983,2646.89 245.31,2646.63C245.638,2646.37 245.802,2646.02 245.802,2645.58Z" style="fill:rgb(35,31,32);fill-rule:nonzero;"/>
                        <path d="M161.481,2674.16L163.478,2667.68L166.102,2667.68L168.083,2674.16L170.321,2667.68L173.043,2667.68L169.114,2678.94L167.246,2678.94L164.782,2671.11L162.334,2678.94L160.467,2678.94L156.537,2667.68L159.259,2667.68L161.481,2674.16Z" style="fill:rgb(35,31,32);fill-rule:nonzero;"/>
                        <path d="M178.953,2678.94L176.538,2678.94L176.538,2670.28L178.953,2670.28L178.953,2678.94ZM176.328,2668.17C176.328,2667.77 176.465,2667.43 176.739,2667.16C177.013,2666.89 177.348,2666.75 177.745,2666.75C178.142,2666.75 178.478,2666.89 178.752,2667.16C179.025,2667.43 179.162,2667.77 179.162,2668.17C179.162,2668.57 179.025,2668.9 178.752,2669.17C178.478,2669.45 178.142,2669.59 177.745,2669.59C177.348,2669.59 177.013,2669.45 176.739,2669.17C176.465,2668.9 176.328,2668.57 176.328,2668.17Z" style="fill:rgb(35,31,32);fill-rule:nonzero;"/>
                        <path d="M185.405,2678.94L182.989,2678.94L182.989,2666.99L185.405,2666.99L185.405,2673.13L188.094,2670.26L191.137,2670.26L187.836,2673.77L191.266,2678.94L188.4,2678.94L186.194,2675.62L185.405,2676.44L185.405,2678.94Z" style="fill:rgb(35,31,32);fill-rule:nonzero;"/>
                        <path d="M197.403,2672.02L197.403,2675.9C197.403,2676.23 197.489,2676.49 197.66,2676.68C197.832,2676.87 198.036,2676.96 198.272,2676.96C198.723,2676.96 199.104,2676.76 199.416,2676.35L200.317,2678.04C199.566,2678.73 198.774,2679.07 197.942,2679.07C197.11,2679.07 196.407,2678.8 195.833,2678.25C195.258,2677.7 194.971,2676.95 194.971,2676.01L194.971,2672.02L193.957,2672.02L193.957,2670.28L194.971,2670.28L194.971,2667.68L197.403,2667.68L197.403,2670.28L199.496,2670.28L199.496,2672.02L197.403,2672.02Z" style="fill:rgb(35,31,32);fill-rule:nonzero;"/>
                        <path d="M205.371,2678.94L202.956,2678.94L202.956,2670.28L205.371,2670.28L205.371,2678.94ZM202.746,2668.17C202.746,2667.77 202.883,2667.43 203.157,2667.16C203.431,2666.89 203.766,2666.75 204.163,2666.75C204.56,2666.75 204.896,2666.89 205.17,2667.16C205.443,2667.43 205.58,2667.77 205.58,2668.17C205.58,2668.57 205.443,2668.9 205.17,2669.17C204.896,2669.45 204.56,2669.59 204.163,2669.59C203.766,2669.59 203.431,2669.45 203.157,2669.17C202.883,2668.9 202.746,2668.57 202.746,2668.17Z" style="fill:rgb(35,31,32);fill-rule:nonzero;"/>
                        <path d="M211.944,2676.34C212.346,2676.78 212.861,2677.01 213.489,2677.01C214.117,2677.01 214.633,2676.78 215.035,2676.34C215.438,2675.89 215.639,2675.32 215.639,2674.61C215.639,2673.9 215.438,2673.32 215.035,2672.87C214.633,2672.42 214.117,2672.19 213.489,2672.19C212.861,2672.19 212.346,2672.42 211.944,2672.87C211.541,2673.32 211.34,2673.9 211.34,2674.61C211.34,2675.32 211.541,2675.89 211.944,2676.34ZM216.766,2677.78C215.897,2678.64 214.804,2679.07 213.489,2679.07C212.174,2679.07 211.082,2678.64 210.213,2677.78C209.343,2676.92 208.908,2675.87 208.908,2674.61C208.908,2673.35 209.343,2672.29 210.213,2671.43C211.082,2670.56 212.174,2670.13 213.489,2670.13C214.804,2670.13 215.897,2670.56 216.766,2671.43C217.636,2672.29 218.071,2673.35 218.071,2674.61C218.071,2675.87 217.636,2676.92 216.766,2677.78Z" style="fill:rgb(35,31,32);fill-rule:nonzero;"/>
                        <path d="M223.473,2674.11L223.473,2678.94L221.058,2678.94L221.058,2670.28L223.473,2670.28L223.473,2671.24C224.203,2670.5 225.025,2670.13 225.937,2670.13C226.85,2670.13 227.614,2670.45 228.232,2671.1C228.849,2671.74 229.158,2672.6 229.158,2673.68L229.158,2678.94L226.742,2678.94L226.742,2674.05C226.742,2672.71 226.254,2672.05 225.277,2672.05C224.794,2672.05 224.372,2672.22 224.013,2672.57C223.653,2672.92 223.473,2673.43 223.473,2674.11Z" style="fill:rgb(35,31,32);fill-rule:nonzero;"/>
                        <path d="M240.656,2678.94L238.386,2678.94L238.386,2677.89C237.763,2678.68 236.993,2679.07 236.075,2679.07C235.157,2679.07 234.387,2678.8 233.764,2678.27C233.142,2677.74 232.831,2677.03 232.831,2676.15C232.831,2675.26 233.153,2674.6 233.797,2674.16C234.441,2673.72 235.321,2673.5 236.437,2673.5L238.241,2673.5L238.241,2673.45C238.241,2672.53 237.753,2672.07 236.776,2672.07C236.357,2672.07 235.914,2672.15 235.447,2672.31C234.98,2672.48 234.586,2672.69 234.264,2672.93L233.185,2671.37C234.323,2670.55 235.622,2670.13 237.082,2670.13C238.134,2670.13 238.992,2670.39 239.658,2670.92C240.324,2671.45 240.656,2672.28 240.656,2673.42L240.656,2678.94ZM238.225,2675.64L238.225,2675.22L236.711,2675.22C235.745,2675.22 235.262,2675.52 235.262,2676.12C235.262,2676.43 235.377,2676.67 235.608,2676.84C235.839,2677.01 236.169,2677.09 236.599,2677.09C237.028,2677.09 237.406,2676.96 237.734,2676.69C238.061,2676.43 238.225,2676.08 238.225,2675.64Z" style="fill:rgb(35,31,32);fill-rule:nonzero;"/>
                        <path d="M248.919,2672.4C248.2,2672.4 247.663,2672.66 247.309,2673.17C246.955,2673.68 246.778,2674.35 246.778,2675.19L246.778,2678.94L244.362,2678.94L244.362,2670.28L246.778,2670.28L246.778,2671.42C247.089,2671.07 247.478,2670.77 247.945,2670.52C248.412,2670.27 248.887,2670.14 249.37,2670.13L249.386,2672.4L248.919,2672.4Z" style="fill:rgb(35,31,32);fill-rule:nonzero;"/>
                        <path d="M254.028,2682.35C253.18,2682.35 252.38,2682.01 251.629,2681.32L252.724,2679.54C253.132,2679.93 253.55,2680.13 253.98,2680.13C254.205,2680.13 254.398,2680.02 254.559,2679.8C254.72,2679.58 254.801,2679.35 254.801,2679.1C254.801,2678.85 253.685,2675.91 251.452,2670.28L254.028,2670.28L256.137,2675.67L258.247,2670.28L260.823,2670.28L256.798,2680.49C256.561,2681.08 256.194,2681.53 255.695,2681.86C255.195,2682.19 254.64,2682.35 254.028,2682.35Z" style="fill:rgb(35,31,32);fill-rule:nonzero;"/>
                        <path d="M161.481,2704.22L163.478,2697.75L166.102,2697.75L168.083,2704.22L170.321,2697.75L173.043,2697.75L169.114,2709L167.246,2709L164.782,2701.18L162.334,2709L160.467,2709L156.537,2697.75L159.259,2697.75L161.481,2704.22Z" style="fill:rgb(35,31,32);fill-rule:nonzero;"/>
                        <path d="M178.953,2709L176.538,2709L176.538,2700.34L178.953,2700.34L178.953,2709ZM176.328,2698.23C176.328,2697.83 176.465,2697.5 176.739,2697.22C177.013,2696.95 177.348,2696.81 177.745,2696.81C178.142,2696.81 178.478,2696.95 178.752,2697.22C179.025,2697.5 179.162,2697.83 179.162,2698.23C179.162,2698.63 179.025,2698.96 178.752,2699.24C178.478,2699.51 178.142,2699.65 177.745,2699.65C177.348,2699.65 177.013,2699.51 176.739,2699.24C176.465,2698.96 176.328,2698.63 176.328,2698.23Z" style="fill:rgb(35,31,32);fill-rule:nonzero;"/>
                        <path d="M185.355,2709L182.939,2709L182.939,2697.06L185.355,2697.06L185.355,2703.19L188.044,2700.32L191.087,2700.32L187.786,2703.84L191.216,2709L188.35,2709L186.144,2705.69L185.355,2706.51L185.355,2709Z" style="fill:rgb(35,31,32);fill-rule:nonzero;"/>
                        <path d="M196.936,2709L194.52,2709L194.52,2700.34L196.936,2700.34L196.936,2709ZM194.311,2698.23C194.311,2697.83 194.448,2697.5 194.722,2697.22C194.995,2696.95 195.331,2696.81 195.728,2696.81C196.125,2696.81 196.461,2696.95 196.735,2697.22C197.008,2697.5 197.145,2697.83 197.145,2698.23C197.145,2698.63 197.008,2698.96 196.735,2699.24C196.461,2699.51 196.125,2699.65 195.728,2699.65C195.331,2699.65 194.995,2699.51 194.722,2699.24C194.448,2698.96 194.311,2698.63 194.311,2698.23Z" style="fill:rgb(35,31,32);fill-rule:nonzero;"/>
                        <path d="M201.679,2707.89C200.853,2707.05 200.439,2705.98 200.439,2704.68C200.439,2703.38 200.842,2702.3 201.647,2701.46C202.452,2700.62 203.348,2700.2 204.336,2700.2C205.324,2700.2 206.188,2700.57 206.929,2701.31L206.929,2700.34L209.36,2700.34L209.36,2712.13L206.929,2712.13L206.929,2708.31C206.242,2708.86 205.458,2709.13 204.578,2709.13C203.472,2709.13 202.506,2708.72 201.679,2707.89ZM203.499,2706.4C203.917,2706.85 204.406,2707.07 204.964,2707.07C205.522,2707.07 205.995,2706.85 206.381,2706.4C206.768,2705.96 206.961,2705.38 206.961,2704.68C206.961,2703.98 206.768,2703.39 206.381,2702.93C205.995,2702.46 205.517,2702.22 204.948,2702.22C204.379,2702.22 203.891,2702.46 203.483,2702.93C203.075,2703.39 202.871,2703.98 202.871,2704.68C202.871,2705.38 203.08,2705.96 203.499,2706.4Z" style="fill:rgb(35,31,32);fill-rule:nonzero;"/>
                        <path d="M218.934,2705.01L218.934,2700.34L221.366,2700.34L221.366,2709L218.934,2709L218.934,2707.86C218.333,2708.71 217.557,2709.13 216.607,2709.13C215.657,2709.13 214.86,2708.84 214.216,2708.24C213.572,2707.64 213.25,2706.76 213.25,2705.59L213.25,2700.34L215.682,2700.34L215.682,2705.06C215.682,2706.39 216.17,2707.05 217.147,2707.05C217.63,2707.05 218.049,2706.88 218.403,2706.53C218.757,2706.18 218.934,2705.68 218.934,2705.01Z" style="fill:rgb(35,31,32);fill-rule:nonzero;"/>
                        <path d="M228.038,2706.4C228.441,2706.85 228.956,2707.07 229.584,2707.07C230.212,2707.07 230.727,2706.85 231.13,2706.4C231.533,2705.96 231.734,2705.38 231.734,2704.67C231.734,2703.96 231.533,2703.38 231.13,2702.93C230.727,2702.48 230.212,2702.26 229.584,2702.26C228.956,2702.26 228.441,2702.48 228.038,2702.93C227.636,2703.38 227.435,2703.96 227.435,2704.67C227.435,2705.38 227.636,2705.96 228.038,2706.4ZM232.861,2707.84C231.992,2708.7 230.899,2709.13 229.584,2709.13C228.269,2709.13 227.177,2708.7 226.307,2707.84C225.438,2706.99 225.003,2705.93 225.003,2704.67C225.003,2703.42 225.438,2702.36 226.307,2701.49C227.177,2700.63 228.269,2700.2 229.584,2700.2C230.899,2700.2 231.992,2700.63 232.861,2701.49C233.731,2702.36 234.165,2703.42 234.165,2704.67C234.165,2705.93 233.731,2706.99 232.861,2707.84Z" style="fill:rgb(35,31,32);fill-rule:nonzero;"/>
                        <path d="M239.624,2702.08L239.624,2705.96C239.624,2706.29 239.71,2706.55 239.882,2706.74C240.053,2706.93 240.257,2707.02 240.494,2707.02C240.944,2707.02 241.326,2706.82 241.637,2706.41L242.539,2708.1C241.787,2708.79 240.995,2709.13 240.164,2709.13C239.332,2709.13 238.628,2708.86 238.054,2708.31C237.48,2707.76 237.193,2707.02 237.193,2706.07L237.193,2702.08L236.178,2702.08L236.178,2700.34L237.193,2700.34L237.193,2697.75L239.624,2697.75L239.624,2700.34L241.717,2700.34L241.717,2702.08L239.624,2702.08Z" style="fill:rgb(35,31,32);fill-rule:nonzero;"/>
                        <path d="M252.631,2707.75C251.654,2708.67 250.508,2709.13 249.193,2709.13C247.878,2709.13 246.791,2708.73 245.932,2707.92C245.073,2707.11 244.644,2706.02 244.644,2704.66C244.644,2703.29 245.081,2702.21 245.956,2701.4C246.831,2700.6 247.864,2700.2 249.056,2700.2C250.247,2700.2 251.259,2700.55 252.091,2701.27C252.923,2701.99 253.339,2702.98 253.339,2704.24L253.339,2705.53L247.027,2705.53C247.102,2706 247.349,2706.38 247.768,2706.68C248.186,2706.99 248.659,2707.14 249.185,2707.14C250.033,2707.14 250.731,2706.85 251.278,2706.28L252.631,2707.75ZM250.312,2702.61C249.979,2702.33 249.574,2702.19 249.096,2702.19C248.618,2702.19 248.181,2702.34 247.784,2702.63C247.387,2702.92 247.156,2703.31 247.091,2703.8L250.892,2703.8C250.838,2703.29 250.645,2702.89 250.312,2702.61Z" style="fill:rgb(35,31,32);fill-rule:nonzero;"/>
                        <path d="M161.481,2734.28L163.478,2727.81L166.102,2727.81L168.083,2734.28L170.321,2727.81L173.043,2727.81L169.114,2739.07L167.246,2739.07L164.782,2731.24L162.334,2739.07L160.467,2739.07L156.537,2727.81L159.259,2727.81L161.481,2734.28Z" style="fill:rgb(35,31,32);fill-rule:nonzero;"/>
                        <path d="M178.953,2739.07L176.538,2739.07L176.538,2730.4L178.953,2730.4L178.953,2739.07ZM176.328,2728.29C176.328,2727.9 176.465,2727.56 176.739,2727.29C177.013,2727.01 177.348,2726.88 177.745,2726.88C178.142,2726.88 178.478,2727.01 178.752,2727.29C179.025,2727.56 179.162,2727.9 179.162,2728.29C179.162,2728.69 179.025,2729.03 178.752,2729.3C178.478,2729.58 178.142,2729.71 177.745,2729.71C177.348,2729.71 177.013,2729.58 176.739,2729.3C176.465,2729.03 176.328,2728.69 176.328,2728.29Z" style="fill:rgb(35,31,32);fill-rule:nonzero;"/>
                        <path d="M185.355,2739.07L182.939,2739.07L182.939,2727.12L185.355,2727.12L185.355,2733.25L188.044,2730.39L191.087,2730.39L187.786,2733.9L191.216,2739.07L188.35,2739.07L186.144,2735.75L185.355,2736.57L185.355,2739.07Z" style="fill:rgb(35,31,32);fill-rule:nonzero;"/>
                        <path d="M196.936,2739.07L194.52,2739.07L194.52,2730.4L196.936,2730.4L196.936,2739.07ZM194.311,2728.29C194.311,2727.9 194.448,2727.56 194.722,2727.29C194.995,2727.01 195.331,2726.88 195.728,2726.88C196.125,2726.88 196.461,2727.01 196.735,2727.29C197.008,2727.56 197.145,2727.9 197.145,2728.29C197.145,2728.69 197.008,2729.03 196.735,2729.3C196.461,2729.58 196.125,2729.71 195.728,2729.71C195.331,2729.71 194.995,2729.58 194.722,2729.3C194.448,2729.03 194.311,2728.69 194.311,2728.29Z" style="fill:rgb(35,31,32);fill-rule:nonzero;"/>
                        <path d="M208.668,2731.49C209.451,2732.31 209.843,2733.37 209.843,2734.66C209.843,2735.94 209.441,2737.02 208.635,2737.89C207.83,2738.76 206.915,2739.2 205.89,2739.2C204.865,2739.2 204.014,2738.77 203.338,2737.92L203.338,2739.07L200.922,2739.07L200.922,2727.12L203.338,2727.12L203.338,2731.37C204.003,2730.63 204.862,2730.26 205.914,2730.26C206.966,2730.26 207.884,2730.67 208.668,2731.49ZM203.893,2736.47C204.285,2736.91 204.76,2737.14 205.318,2737.14C205.877,2737.14 206.365,2736.91 206.784,2736.47C207.202,2736.02 207.412,2735.45 207.412,2734.75C207.412,2734.05 207.208,2733.47 206.8,2733C206.392,2732.52 205.903,2732.29 205.334,2732.29C204.766,2732.29 204.285,2732.52 203.893,2732.99C203.501,2733.45 203.306,2734.04 203.306,2734.74C203.306,2735.45 203.501,2736.02 203.893,2736.47Z" style="fill:rgb(35,31,32);fill-rule:nonzero;"/>
                        <path d="M215.883,2736.47C216.285,2736.91 216.801,2737.14 217.429,2737.14C218.057,2737.14 218.572,2736.91 218.974,2736.47C219.377,2736.02 219.578,2735.44 219.578,2734.74C219.578,2734.03 219.377,2733.45 218.974,2733C218.572,2732.55 218.057,2732.32 217.429,2732.32C216.801,2732.32 216.285,2732.55 215.883,2733C215.48,2733.45 215.279,2734.03 215.279,2734.74C215.279,2735.44 215.48,2736.02 215.883,2736.47ZM220.705,2737.91C219.836,2738.77 218.744,2739.2 217.429,2739.2C216.114,2739.2 215.021,2738.77 214.152,2737.91C213.282,2737.05 212.847,2735.99 212.847,2734.74C212.847,2733.48 213.282,2732.42 214.152,2731.55C215.021,2730.69 216.114,2730.26 217.429,2730.26C218.744,2730.26 219.836,2730.69 220.705,2731.55C221.575,2732.42 222.01,2733.48 222.01,2734.74C222.01,2735.99 221.575,2737.05 220.705,2737.91Z" style="fill:rgb(35,31,32);fill-rule:nonzero;"/>
                        <path d="M227.633,2736.47C228.036,2736.91 228.551,2737.14 229.179,2737.14C229.807,2737.14 230.322,2736.91 230.725,2736.47C231.128,2736.02 231.329,2735.44 231.329,2734.74C231.329,2734.03 231.128,2733.45 230.725,2733C230.322,2732.55 229.807,2732.32 229.179,2732.32C228.551,2732.32 228.036,2732.55 227.633,2733C227.231,2733.45 227.029,2734.03 227.029,2734.74C227.029,2735.44 227.231,2736.02 227.633,2736.47ZM232.456,2737.91C231.586,2738.77 230.494,2739.2 229.179,2739.2C227.864,2739.2 226.772,2738.77 225.902,2737.91C225.033,2737.05 224.598,2735.99 224.598,2734.74C224.598,2733.48 225.033,2732.42 225.902,2731.55C226.772,2730.69 227.864,2730.26 229.179,2730.26C230.494,2730.26 231.586,2730.69 232.456,2731.55C233.326,2732.42 233.76,2733.48 233.76,2734.74C233.76,2735.99 233.326,2737.05 232.456,2737.91Z" style="fill:rgb(35,31,32);fill-rule:nonzero;"/>
                        <path d="M239.163,2739.07L236.748,2739.07L236.748,2727.12L239.163,2727.12L239.163,2733.25L241.852,2730.39L244.896,2730.39L241.595,2733.9L245.024,2739.07L242.158,2739.07L239.952,2735.75L239.163,2736.57L239.163,2739.07Z" style="fill:rgb(35,31,32);fill-rule:nonzero;"/>
                        <path d="M253.081,2738.42C252.453,2738.94 251.656,2739.2 250.69,2739.2C250.046,2739.2 249.375,2739.08 248.677,2738.85C247.979,2738.62 247.351,2738.28 246.793,2737.83L247.856,2736.31C248.758,2737.01 249.718,2737.36 250.738,2737.36C251.049,2737.36 251.296,2737.3 251.479,2737.18C251.661,2737.05 251.753,2736.89 251.753,2736.68C251.753,2736.48 251.626,2736.29 251.374,2736.12C251.122,2735.95 250.757,2735.79 250.279,2735.64C249.802,2735.49 249.437,2735.36 249.184,2735.25C248.932,2735.14 248.645,2734.99 248.323,2734.78C247.668,2734.38 247.341,2733.77 247.341,2732.97C247.341,2732.17 247.663,2731.52 248.307,2731.02C248.951,2730.51 249.783,2730.26 250.803,2730.26C251.822,2730.26 252.842,2730.6 253.862,2731.29L252.96,2732.9C252.209,2732.38 251.46,2732.13 250.714,2732.13C249.968,2732.13 249.595,2732.33 249.595,2732.74C249.595,2732.96 249.713,2733.14 249.949,2733.27C250.185,2733.4 250.577,2733.55 251.125,2733.72C251.672,2733.89 252.061,2734.02 252.292,2734.12C252.523,2734.21 252.799,2734.35 253.121,2734.54C253.722,2734.91 254.023,2735.52 254.023,2736.37C254.023,2737.22 253.709,2737.91 253.081,2738.42Z" style="fill:rgb(35,31,32);fill-rule:nonzero;"/>
                        <path d="M161.481,2764.35L163.478,2757.88L166.102,2757.88L168.083,2764.35L170.321,2757.88L173.043,2757.88L169.114,2769.13L167.246,2769.13L164.782,2761.3L162.334,2769.13L160.467,2769.13L156.537,2757.88L159.259,2757.88L161.481,2764.35Z" style="fill:rgb(35,31,32);fill-rule:nonzero;"/>
                        <path d="M178.953,2769.13L176.538,2769.13L176.538,2760.47L178.953,2760.47L178.953,2769.13ZM176.328,2758.36C176.328,2757.96 176.465,2757.62 176.739,2757.35C177.013,2757.08 177.348,2756.94 177.745,2756.94C178.142,2756.94 178.478,2757.08 178.752,2757.35C179.025,2757.62 179.162,2757.96 179.162,2758.36C179.162,2758.76 179.025,2759.09 178.752,2759.36C178.478,2759.64 178.142,2759.78 177.745,2759.78C177.348,2759.78 177.013,2759.64 176.739,2759.36C176.465,2759.09 176.328,2758.76 176.328,2758.36Z" style="fill:rgb(35,31,32);fill-rule:nonzero;"/>
                        <path d="M185.355,2769.13L182.939,2769.13L182.939,2757.18L185.355,2757.18L185.355,2763.32L188.044,2760.45L191.087,2760.45L187.786,2763.96L191.216,2769.13L188.35,2769.13L186.144,2765.81L185.355,2766.63L185.355,2769.13Z" style="fill:rgb(35,31,32);fill-rule:nonzero;"/>
                        <path d="M196.936,2769.13L194.52,2769.13L194.52,2760.47L196.936,2760.47L196.936,2769.13ZM194.311,2758.36C194.311,2757.96 194.448,2757.62 194.722,2757.35C194.995,2757.08 195.331,2756.94 195.728,2756.94C196.125,2756.94 196.461,2757.08 196.735,2757.35C197.008,2757.62 197.145,2757.96 197.145,2758.36C197.145,2758.76 197.008,2759.09 196.735,2759.36C196.461,2759.64 196.125,2759.78 195.728,2759.78C195.331,2759.78 194.995,2759.64 194.722,2759.36C194.448,2759.09 194.311,2758.76 194.311,2758.36Z" style="fill:rgb(35,31,32);fill-rule:nonzero;"/>
                        <path d="M206.502,2768.49C205.874,2769 205.077,2769.26 204.111,2769.26C203.467,2769.26 202.796,2769.14 202.098,2768.91C201.4,2768.68 200.772,2768.34 200.214,2767.89L201.277,2766.38C202.178,2767.08 203.139,2767.42 204.159,2767.42C204.47,2767.42 204.717,2767.36 204.9,2767.24C205.082,2767.12 205.173,2766.95 205.173,2766.75C205.173,2766.54 205.047,2766.36 204.795,2766.18C204.543,2766.01 204.178,2765.85 203.7,2765.7C203.222,2765.55 202.857,2765.42 202.605,2765.31C202.353,2765.21 202.066,2765.05 201.744,2764.85C201.089,2764.44 200.761,2763.84 200.761,2763.04C200.761,2762.24 201.083,2761.58 201.727,2761.08C202.372,2760.58 203.204,2760.32 204.223,2760.32C205.243,2760.32 206.263,2760.67 207.283,2761.35L206.381,2762.96C205.63,2762.45 204.881,2762.19 204.135,2762.19C203.389,2762.19 203.016,2762.39 203.016,2762.8C203.016,2763.03 203.134,2763.2 203.37,2763.33C203.606,2763.46 203.998,2763.61 204.545,2763.78C205.093,2763.96 205.482,2764.09 205.713,2764.18C205.944,2764.27 206.22,2764.41 206.542,2764.61C207.143,2764.97 207.444,2765.58 207.444,2766.43C207.444,2767.29 207.13,2767.97 206.502,2768.49Z" style="fill:rgb(35,31,32);fill-rule:nonzero;"/>
                        <path d="M213.182,2766.53C213.584,2766.97 214.1,2767.2 214.728,2767.2C215.356,2767.2 215.871,2766.97 216.273,2766.53C216.676,2766.08 216.877,2765.51 216.877,2764.8C216.877,2764.09 216.676,2763.51 216.273,2763.06C215.871,2762.61 215.356,2762.38 214.728,2762.38C214.1,2762.38 213.584,2762.61 213.182,2763.06C212.779,2763.51 212.578,2764.09 212.578,2764.8C212.578,2765.51 212.779,2766.08 213.182,2766.53ZM218.005,2767.97C217.135,2768.83 216.043,2769.26 214.728,2769.26C213.413,2769.26 212.32,2768.83 211.451,2767.97C210.581,2767.11 210.146,2766.05 210.146,2764.8C210.146,2763.54 210.581,2762.48 211.451,2761.62C212.32,2760.75 213.413,2760.32 214.728,2760.32C216.043,2760.32 217.135,2760.75 218.005,2761.62C218.874,2762.48 219.309,2763.54 219.309,2764.8C219.309,2766.05 218.874,2767.11 218.005,2767.97Z" style="fill:rgb(35,31,32);fill-rule:nonzero;"/>
                        <path d="M227.884,2765.14L227.884,2760.47L230.315,2760.47L230.315,2769.13L227.884,2769.13L227.884,2767.99C227.283,2768.84 226.507,2769.26 225.557,2769.26C224.607,2769.26 223.81,2768.96 223.166,2768.37C222.522,2767.77 222.2,2766.89 222.2,2765.72L222.2,2760.47L224.631,2760.47L224.631,2765.18C224.631,2766.52 225.119,2767.18 226.096,2767.18C226.579,2767.18 226.998,2767.01 227.352,2766.66C227.707,2766.31 227.884,2765.8 227.884,2765.14Z" style="fill:rgb(35,31,32);fill-rule:nonzero;"/>
                        <path d="M238.959,2762.59C238.24,2762.59 237.703,2762.85 237.349,2763.36C236.994,2763.87 236.817,2764.54 236.817,2765.38L236.817,2769.13L234.402,2769.13L234.402,2760.47L236.817,2760.47L236.817,2761.61C237.128,2761.26 237.518,2760.96 237.985,2760.71C238.452,2760.46 238.927,2760.33 239.41,2760.32L239.426,2762.59L238.959,2762.59Z" style="fill:rgb(35,31,32);fill-rule:nonzero;"/>
                        <path d="M246.874,2767.12C247.679,2767.12 248.404,2766.72 249.048,2765.91L250.481,2767.52C249.365,2768.68 248.157,2769.26 246.858,2769.26C245.559,2769.26 244.462,2768.85 243.565,2768.03C242.669,2767.21 242.221,2766.13 242.221,2764.81C242.221,2763.48 242.674,2762.4 243.581,2761.57C244.489,2760.74 245.565,2760.32 246.81,2760.32C247.433,2760.32 248.063,2760.45 248.702,2760.71C249.341,2760.97 249.902,2761.35 250.385,2761.85L249.129,2763.49C248.85,2763.16 248.509,2762.9 248.106,2762.72C247.704,2762.54 247.304,2762.45 246.907,2762.45C246.273,2762.45 245.728,2762.65 245.272,2763.07C244.816,2763.48 244.588,2764.05 244.588,2764.79C244.588,2765.53 244.816,2766.1 245.272,2766.51C245.728,2766.91 246.262,2767.12 246.874,2767.12Z" style="fill:rgb(35,31,32);fill-rule:nonzero;"/>
                        <path d="M260.645,2767.87C259.668,2768.8 258.522,2769.26 257.207,2769.26C255.892,2769.26 254.806,2768.85 253.947,2768.04C253.088,2767.23 252.659,2766.15 252.659,2764.78C252.659,2763.42 253.096,2762.34 253.971,2761.53C254.846,2760.72 255.879,2760.32 257.071,2760.32C258.262,2760.32 259.274,2760.68 260.106,2761.4C260.938,2762.12 261.354,2763.11 261.354,2764.36L261.354,2765.65L255.042,2765.65C255.117,2766.12 255.364,2766.51 255.782,2766.81C256.201,2767.11 256.673,2767.26 257.199,2767.26C258.047,2767.26 258.745,2766.98 259.293,2766.41L260.645,2767.87ZM258.327,2762.74C257.994,2762.46 257.589,2762.32 257.111,2762.32C256.633,2762.32 256.196,2762.46 255.798,2762.75C255.401,2763.04 255.17,2763.43 255.106,2763.93L258.906,2763.93C258.853,2763.41 258.659,2763.02 258.327,2762.74Z" style="fill:rgb(35,31,32);fill-rule:nonzero;"/>
                        <path d="M161.481,2794.41L163.478,2787.94L166.102,2787.94L168.083,2794.41L170.321,2787.94L173.043,2787.94L169.114,2799.19L167.246,2799.19L164.782,2791.37L162.334,2799.19L160.467,2799.19L156.537,2787.94L159.259,2787.94L161.481,2794.41Z" style="fill:rgb(35,31,32);fill-rule:nonzero;"/>
                        <path d="M178.953,2799.19L176.538,2799.19L176.538,2790.53L178.953,2790.53L178.953,2799.19ZM176.328,2788.42C176.328,2788.02 176.465,2787.69 176.739,2787.41C177.013,2787.14 177.348,2787 177.745,2787C178.142,2787 178.478,2787.14 178.752,2787.41C179.025,2787.69 179.162,2788.02 179.162,2788.42C179.162,2788.82 179.025,2789.15 178.752,2789.43C178.478,2789.7 178.142,2789.84 177.745,2789.84C177.348,2789.84 177.013,2789.7 176.739,2789.43C176.465,2789.15 176.328,2788.82 176.328,2788.42Z" style="fill:rgb(35,31,32);fill-rule:nonzero;"/>
                        <path d="M185.355,2799.19L182.939,2799.19L182.939,2787.25L185.355,2787.25L185.355,2793.38L188.044,2790.51L191.087,2790.51L187.786,2794.03L191.216,2799.19L188.35,2799.19L186.144,2795.88L185.355,2796.7L185.355,2799.19Z" style="fill:rgb(35,31,32);fill-rule:nonzero;"/>
                        <path d="M196.936,2799.19L194.52,2799.19L194.52,2790.53L196.936,2790.53L196.936,2799.19ZM194.311,2788.42C194.311,2788.02 194.448,2787.69 194.722,2787.41C194.995,2787.14 195.331,2787 195.728,2787C196.125,2787 196.461,2787.14 196.735,2787.41C197.008,2787.69 197.145,2788.02 197.145,2788.42C197.145,2788.82 197.008,2789.15 196.735,2789.43C196.461,2789.7 196.125,2789.84 195.728,2789.84C195.331,2789.84 194.995,2789.7 194.722,2789.43C194.448,2789.15 194.311,2788.82 194.311,2788.42Z" style="fill:rgb(35,31,32);fill-rule:nonzero;"/>
                        <path d="M206.502,2798.55C205.874,2799.07 205.077,2799.32 204.111,2799.32C203.467,2799.32 202.796,2799.21 202.098,2798.98C201.4,2798.75 200.772,2798.41 200.214,2797.95L201.277,2796.44C202.178,2797.14 203.139,2797.49 204.159,2797.49C204.47,2797.49 204.717,2797.43 204.9,2797.3C205.082,2797.18 205.173,2797.01 205.173,2796.81C205.173,2796.61 205.047,2796.42 204.795,2796.25C204.543,2796.08 204.178,2795.91 203.7,2795.76C203.222,2795.61 202.857,2795.49 202.605,2795.38C202.353,2795.27 202.066,2795.11 201.744,2794.91C201.089,2794.5 200.761,2793.9 200.761,2793.1C200.761,2792.3 201.083,2791.65 201.727,2791.14C202.372,2790.64 203.204,2790.39 204.223,2790.39C205.243,2790.39 206.263,2790.73 207.283,2791.42L206.381,2793.03C205.63,2792.51 204.881,2792.25 204.135,2792.25C203.389,2792.25 203.016,2792.46 203.016,2792.87C203.016,2793.09 203.134,2793.27 203.37,2793.4C203.606,2793.53 203.998,2793.68 204.545,2793.85C205.093,2794.02 205.482,2794.15 205.713,2794.24C205.944,2794.33 206.22,2794.48 206.542,2794.67C207.143,2795.03 207.444,2795.64 207.444,2796.5C207.444,2797.35 207.13,2798.03 206.502,2798.55Z" style="fill:rgb(35,31,32);fill-rule:nonzero;"/>
                        <path d="M218.383,2791.65C219.172,2792.49 219.566,2793.55 219.566,2794.83C219.566,2796.11 219.172,2797.18 218.383,2798.03C217.594,2798.89 216.671,2799.32 215.613,2799.32C214.556,2799.32 213.705,2798.9 213.061,2798.05L213.061,2802.32L210.646,2802.32L210.646,2790.53L213.061,2790.53L213.061,2791.5C213.802,2790.76 214.677,2790.39 215.686,2790.39C216.695,2790.39 217.594,2790.81 218.383,2791.65ZM213.617,2796.59C214.008,2797.04 214.483,2797.26 215.042,2797.26C215.6,2797.26 216.088,2797.04 216.507,2796.59C216.926,2796.15 217.135,2795.58 217.135,2794.88C217.135,2794.18 216.931,2793.6 216.523,2793.12C216.115,2792.65 215.627,2792.41 215.058,2792.41C214.489,2792.41 214.008,2792.65 213.617,2793.12C213.225,2793.58 213.029,2794.17 213.029,2794.87C213.029,2795.57 213.225,2796.15 213.617,2796.59Z" style="fill:rgb(35,31,32);fill-rule:nonzero;"/>
                        <path d="M230.574,2797.94C229.597,2798.86 228.451,2799.32 227.136,2799.32C225.821,2799.32 224.734,2798.92 223.875,2798.11C223.016,2797.3 222.587,2796.21 222.587,2794.85C222.587,2793.48 223.024,2792.4 223.899,2791.59C224.774,2790.79 225.807,2790.39 226.999,2790.39C228.191,2790.39 229.202,2790.74 230.034,2791.47C230.866,2792.18 231.282,2793.17 231.282,2794.43L231.282,2795.72L224.97,2795.72C225.045,2796.19 225.292,2796.57 225.711,2796.88C226.129,2797.18 226.602,2797.33 227.128,2797.33C227.976,2797.33 228.674,2797.04 229.221,2796.47L230.574,2797.94ZM228.255,2792.8C227.922,2792.52 227.517,2792.38 227.039,2792.38C226.561,2792.38 226.124,2792.53 225.727,2792.82C225.33,2793.11 225.099,2793.5 225.034,2793.99L228.835,2793.99C228.781,2793.48 228.588,2793.08 228.255,2792.8Z" style="fill:rgb(35,31,32);fill-rule:nonzero;"/>
                        <path d="M238.276,2797.18C239.081,2797.18 239.805,2796.78 240.45,2795.97L241.883,2797.58C240.766,2798.74 239.559,2799.32 238.26,2799.32C236.961,2799.32 235.863,2798.91 234.967,2798.09C234.07,2797.27 233.622,2796.2 233.622,2794.87C233.622,2793.54 234.076,2792.47 234.983,2791.63C235.89,2790.8 236.966,2790.39 238.211,2790.39C238.834,2790.39 239.465,2790.51 240.103,2790.77C240.742,2791.03 241.303,2791.41 241.786,2791.91L240.53,2793.56C240.251,2793.22 239.91,2792.97 239.508,2792.78C239.105,2792.6 238.705,2792.51 238.308,2792.51C237.675,2792.51 237.13,2792.72 236.674,2793.13C236.217,2793.54 235.989,2794.12 235.989,2794.85C235.989,2795.59 236.217,2796.16 236.674,2796.57C237.13,2796.98 237.664,2797.18 238.276,2797.18Z" style="fill:rgb(35,31,32);fill-rule:nonzero;"/>
                        <path d="M247.008,2799.19L244.593,2799.19L244.593,2790.53L247.008,2790.53L247.008,2799.19ZM244.384,2788.42C244.384,2788.02 244.52,2787.69 244.794,2787.41C245.068,2787.14 245.403,2787 245.801,2787C246.198,2787 246.533,2787.14 246.807,2787.41C247.081,2787.69 247.218,2788.02 247.218,2788.42C247.218,2788.82 247.081,2789.15 246.807,2789.43C246.533,2789.7 246.198,2789.84 245.801,2789.84C245.403,2789.84 245.068,2789.7 244.794,2789.43C244.52,2789.15 244.384,2788.82 244.384,2788.42Z" style="fill:rgb(35,31,32);fill-rule:nonzero;"/>
                        <path d="M258.499,2797.94C257.522,2798.86 256.376,2799.32 255.061,2799.32C253.746,2799.32 252.659,2798.92 251.8,2798.11C250.941,2797.3 250.512,2796.21 250.512,2794.85C250.512,2793.48 250.949,2792.4 251.824,2791.59C252.699,2790.79 253.732,2790.39 254.924,2790.39C256.115,2790.39 257.127,2790.74 257.959,2791.47C258.791,2792.18 259.207,2793.17 259.207,2794.43L259.207,2795.72L252.895,2795.72C252.97,2796.19 253.217,2796.57 253.636,2796.88C254.054,2797.18 254.527,2797.33 255.053,2797.33C255.901,2797.33 256.599,2797.04 257.146,2796.47L258.499,2797.94ZM256.18,2792.8C255.847,2792.52 255.442,2792.38 254.964,2792.38C254.486,2792.38 254.049,2792.53 253.652,2792.82C253.255,2793.11 253.024,2793.5 252.959,2793.99L256.76,2793.99C256.706,2793.48 256.513,2793.08 256.18,2792.8Z" style="fill:rgb(35,31,32);fill-rule:nonzero;"/>
                        <path d="M267.726,2798.55C267.098,2799.07 266.301,2799.32 265.335,2799.32C264.69,2799.32 264.019,2799.21 263.322,2798.98C262.624,2798.75 261.996,2798.41 261.438,2797.95L262.5,2796.44C263.402,2797.14 264.363,2797.49 265.383,2797.49C265.694,2797.49 265.941,2797.43 266.124,2797.3C266.306,2797.18 266.397,2797.01 266.397,2796.81C266.397,2796.61 266.271,2796.42 266.019,2796.25C265.767,2796.08 265.402,2795.91 264.924,2795.76C264.446,2795.61 264.081,2795.49 263.829,2795.38C263.577,2795.27 263.289,2795.11 262.967,2794.91C262.313,2794.5 261.985,2793.9 261.985,2793.1C261.985,2792.3 262.307,2791.65 262.951,2791.14C263.595,2790.64 264.427,2790.39 265.447,2790.39C266.467,2790.39 267.487,2790.73 268.507,2791.42L267.605,2793.03C266.854,2792.51 266.105,2792.25 265.359,2792.25C264.613,2792.25 264.24,2792.46 264.24,2792.87C264.24,2793.09 264.358,2793.27 264.594,2793.4C264.83,2793.53 265.222,2793.68 265.769,2793.85C266.317,2794.02 266.706,2794.15 266.937,2794.24C267.168,2794.33 267.444,2794.48 267.766,2794.67C268.367,2795.03 268.668,2795.64 268.668,2796.5C268.668,2797.35 268.354,2798.03 267.726,2798.55Z" style="fill:rgb(35,31,32);fill-rule:nonzero;"/>
                        <path d="M161.481,2824.47L163.478,2818L166.102,2818L168.083,2824.47L170.321,2818L173.043,2818L169.114,2829.26L167.246,2829.26L164.782,2821.43L162.334,2829.26L160.467,2829.26L156.537,2818L159.259,2818L161.481,2824.47Z" style="fill:rgb(35,31,32);fill-rule:nonzero;"/>
                        <path d="M178.953,2829.26L176.538,2829.26L176.538,2820.59L178.953,2820.59L178.953,2829.26ZM176.328,2818.49C176.328,2818.09 176.465,2817.75 176.739,2817.48C177.013,2817.2 177.348,2817.07 177.745,2817.07C178.142,2817.07 178.478,2817.2 178.752,2817.48C179.025,2817.75 179.162,2818.09 179.162,2818.49C179.162,2818.88 179.025,2819.22 178.752,2819.49C178.478,2819.76 178.142,2819.9 177.745,2819.9C177.348,2819.9 177.013,2819.76 176.739,2819.49C176.465,2819.22 176.328,2818.88 176.328,2818.49Z" style="fill:rgb(35,31,32);fill-rule:nonzero;"/>
                        <path d="M185.355,2829.26L182.939,2829.26L182.939,2817.31L185.355,2817.31L185.355,2823.44L188.044,2820.58L191.087,2820.58L187.786,2824.09L191.216,2829.26L188.35,2829.26L186.144,2825.94L185.355,2826.76L185.355,2829.26Z" style="fill:rgb(35,31,32);fill-rule:nonzero;"/>
                        <path d="M196.936,2829.26L194.52,2829.26L194.52,2820.59L196.936,2820.59L196.936,2829.26ZM194.311,2818.49C194.311,2818.09 194.448,2817.75 194.722,2817.48C194.995,2817.2 195.331,2817.07 195.728,2817.07C196.125,2817.07 196.461,2817.2 196.735,2817.48C197.008,2817.75 197.145,2818.09 197.145,2818.49C197.145,2818.88 197.008,2819.22 196.735,2819.49C196.461,2819.76 196.125,2819.9 195.728,2819.9C195.331,2819.9 194.995,2819.76 194.722,2819.49C194.448,2819.22 194.311,2818.88 194.311,2818.49Z" style="fill:rgb(35,31,32);fill-rule:nonzero;"/>
                        <path d="M203.338,2824.43L203.338,2829.26L200.922,2829.26L200.922,2820.59L203.338,2820.59L203.338,2821.56C204.068,2820.82 204.889,2820.45 205.801,2820.45C206.714,2820.45 207.479,2820.77 208.096,2821.41C208.713,2822.06 209.022,2822.92 209.022,2823.99L209.022,2829.26L206.607,2829.26L206.607,2824.36C206.607,2823.03 206.118,2822.37 205.141,2822.37C204.658,2822.37 204.237,2822.54 203.877,2822.89C203.518,2823.24 203.338,2823.75 203.338,2824.43Z" style="fill:rgb(35,31,32);fill-rule:nonzero;"/>
                        <path d="M220.716,2828C219.739,2828.92 218.593,2829.39 217.278,2829.39C215.963,2829.39 214.876,2828.98 214.017,2828.17C213.158,2827.36 212.729,2826.27 212.729,2824.91C212.729,2823.55 213.166,2822.46 214.041,2821.66C214.916,2820.85 215.949,2820.45 217.141,2820.45C218.332,2820.45 219.344,2820.81 220.176,2821.53C221.008,2822.25 221.424,2823.24 221.424,2824.49L221.424,2825.78L215.112,2825.78C215.187,2826.25 215.434,2826.64 215.853,2826.94C216.271,2827.24 216.744,2827.39 217.27,2827.39C218.118,2827.39 218.816,2827.11 219.363,2826.54L220.716,2828ZM218.397,2822.86C218.064,2822.59 217.659,2822.45 217.181,2822.45C216.703,2822.45 216.266,2822.59 215.869,2822.88C215.472,2823.17 215.241,2823.56 215.176,2824.06L218.977,2824.06C218.923,2823.54 218.73,2823.14 218.397,2822.86Z" style="fill:rgb(35,31,32);fill-rule:nonzero;"/>
                        <path d="M228.841,2829.26L226.346,2829.26L223.399,2820.59L225.895,2820.59L227.585,2825.83L229.276,2820.59L231.611,2820.59L233.302,2825.83L234.993,2820.59L237.505,2820.59L234.558,2829.26L232.046,2829.26L230.452,2824.54L228.841,2829.26Z" style="fill:rgb(35,31,32);fill-rule:nonzero;"/>
                        <path d="M246.008,2828.61C245.38,2829.13 244.583,2829.39 243.617,2829.39C242.973,2829.39 242.302,2829.27 241.604,2829.04C240.906,2828.81 240.278,2828.47 239.72,2828.02L240.783,2826.5C241.684,2827.2 242.645,2827.55 243.665,2827.55C243.976,2827.55 244.223,2827.49 244.406,2827.37C244.588,2827.24 244.679,2827.08 244.679,2826.87C244.679,2826.67 244.553,2826.48 244.301,2826.31C244.049,2826.14 243.684,2825.98 243.206,2825.83C242.728,2825.68 242.363,2825.55 242.111,2825.44C241.859,2825.33 241.572,2825.18 241.25,2824.97C240.595,2824.57 240.267,2823.96 240.267,2823.16C240.267,2822.36 240.589,2821.71 241.233,2821.21C241.878,2820.7 242.71,2820.45 243.729,2820.45C244.749,2820.45 245.769,2820.79 246.789,2821.48L245.887,2823.09C245.136,2822.58 244.387,2822.32 243.641,2822.32C242.895,2822.32 242.522,2822.52 242.522,2822.93C242.522,2823.15 242.64,2823.33 242.876,2823.46C243.112,2823.59 243.504,2823.74 244.051,2823.91C244.599,2824.08 244.988,2824.21 245.219,2824.31C245.45,2824.4 245.726,2824.54 246.048,2824.73C246.649,2825.1 246.95,2825.71 246.95,2826.56C246.95,2827.41 246.636,2828.1 246.008,2828.61Z" style="fill:rgb(35,31,32);fill-rule:nonzero;"/>
                        <path d="M161.481,2854.54L163.478,2848.07L166.102,2848.07L168.083,2854.54L170.321,2848.07L173.043,2848.07L169.114,2859.32L167.246,2859.32L164.782,2851.49L162.334,2859.32L160.467,2859.32L156.537,2848.07L159.259,2848.07L161.481,2854.54Z" style="fill:rgb(35,31,32);fill-rule:nonzero;"/>
                        <path d="M178.953,2859.32L176.538,2859.32L176.538,2850.66L178.953,2850.66L178.953,2859.32ZM176.328,2848.55C176.328,2848.15 176.465,2847.82 176.739,2847.54C177.013,2847.27 177.348,2847.13 177.745,2847.13C178.142,2847.13 178.478,2847.27 178.752,2847.54C179.025,2847.82 179.162,2848.15 179.162,2848.55C179.162,2848.95 179.025,2849.28 178.752,2849.55C178.478,2849.83 178.142,2849.97 177.745,2849.97C177.348,2849.97 177.013,2849.83 176.739,2849.55C176.465,2849.28 176.328,2848.95 176.328,2848.55Z" style="fill:rgb(35,31,32);fill-rule:nonzero;"/>
                        <path d="M185.355,2859.32L182.939,2859.32L182.939,2847.37L185.355,2847.37L185.355,2853.51L188.044,2850.64L191.087,2850.64L187.786,2854.15L191.216,2859.32L188.35,2859.32L186.144,2856L185.355,2856.83L185.355,2859.32Z" style="fill:rgb(35,31,32);fill-rule:nonzero;"/>
                        <path d="M196.936,2859.32L194.52,2859.32L194.52,2850.66L196.936,2850.66L196.936,2859.32ZM194.311,2848.55C194.311,2848.15 194.448,2847.82 194.722,2847.54C194.995,2847.27 195.331,2847.13 195.728,2847.13C196.125,2847.13 196.461,2847.27 196.735,2847.54C197.008,2847.82 197.145,2848.15 197.145,2848.55C197.145,2848.95 197.008,2849.28 196.735,2849.55C196.461,2849.83 196.125,2849.97 195.728,2849.97C195.331,2849.97 194.995,2849.83 194.722,2849.55C194.448,2849.28 194.311,2848.95 194.311,2848.55Z" style="fill:rgb(35,31,32);fill-rule:nonzero;"/>
                        <path d="M203.257,2859.32L199.827,2850.64L202.339,2850.64L204.497,2856.1L206.655,2850.64L209.167,2850.64L205.737,2859.32L203.257,2859.32Z" style="fill:rgb(35,31,32);fill-rule:nonzero;"/>
                        <path d="M219.062,2858.06C218.085,2858.99 216.939,2859.45 215.624,2859.45C214.309,2859.45 213.222,2859.04 212.364,2858.23C211.505,2857.42 211.075,2856.34 211.075,2854.97C211.075,2853.61 211.513,2852.53 212.388,2851.72C213.263,2850.91 214.296,2850.51 215.487,2850.51C216.679,2850.51 217.691,2850.87 218.523,2851.59C219.355,2852.31 219.771,2853.3 219.771,2854.55L219.771,2855.84L213.459,2855.84C213.534,2856.32 213.781,2856.7 214.199,2857C214.618,2857.3 215.09,2857.45 215.616,2857.45C216.464,2857.45 217.162,2857.17 217.71,2856.6L219.062,2858.06ZM216.743,2852.93C216.411,2852.65 216.005,2852.51 215.528,2852.51C215.05,2852.51 214.613,2852.65 214.215,2852.94C213.818,2853.23 213.587,2853.63 213.523,2854.12L217.323,2854.12C217.269,2853.6 217.076,2853.21 216.743,2852.93Z" style="fill:rgb(35,31,32);fill-rule:nonzero;"/>
                        <path d="M227.267,2852.78C226.548,2852.78 226.011,2853.04 225.657,2853.55C225.302,2854.06 225.125,2854.73 225.125,2855.57L225.125,2859.32L222.71,2859.32L222.71,2850.66L225.125,2850.66L225.125,2851.8C225.436,2851.45 225.826,2851.15 226.293,2850.9C226.76,2850.65 227.235,2850.52 227.718,2850.51L227.734,2852.78L227.267,2852.78Z" style="fill:rgb(35,31,32);fill-rule:nonzero;"/>
                        <path d="M236.543,2858.68C235.915,2859.19 235.118,2859.45 234.152,2859.45C233.508,2859.45 232.837,2859.33 232.139,2859.1C231.441,2858.87 230.813,2858.53 230.255,2858.08L231.318,2856.57C232.219,2857.26 233.18,2857.61 234.2,2857.61C234.511,2857.61 234.758,2857.55 234.941,2857.43C235.123,2857.3 235.215,2857.14 235.215,2856.94C235.215,2856.73 235.088,2856.55 234.836,2856.37C234.584,2856.2 234.219,2856.04 233.741,2855.89C233.263,2855.74 232.898,2855.61 232.646,2855.5C232.394,2855.4 232.107,2855.24 231.785,2855.04C231.13,2854.63 230.802,2854.03 230.802,2853.23C230.802,2852.43 231.125,2851.77 231.769,2851.27C232.413,2850.76 233.245,2850.51 234.265,2850.51C235.284,2850.51 236.304,2850.86 237.324,2851.54L236.422,2853.15C235.671,2852.64 234.922,2852.38 234.176,2852.38C233.43,2852.38 233.057,2852.58 233.057,2852.99C233.057,2853.22 233.175,2853.39 233.411,2853.52C233.647,2853.65 234.039,2853.8 234.587,2853.97C235.134,2854.15 235.523,2854.28 235.754,2854.37C235.985,2854.46 236.261,2854.6 236.583,2854.8C237.184,2855.16 237.485,2855.77 237.485,2856.62C237.485,2857.48 237.171,2858.16 236.543,2858.68Z" style="fill:rgb(35,31,32);fill-rule:nonzero;"/>
                        <path d="M243.052,2859.32L240.637,2859.32L240.637,2850.66L243.052,2850.66L243.052,2859.32ZM240.427,2848.55C240.427,2848.15 240.564,2847.82 240.838,2847.54C241.112,2847.27 241.447,2847.13 241.844,2847.13C242.242,2847.13 242.577,2847.27 242.851,2847.54C243.125,2847.82 243.262,2848.15 243.262,2848.55C243.262,2848.95 243.125,2849.28 242.851,2849.55C242.577,2849.83 242.242,2849.97 241.844,2849.97C241.447,2849.97 241.112,2849.83 240.838,2849.55C240.564,2849.28 240.427,2848.95 240.427,2848.55Z" style="fill:rgb(35,31,32);fill-rule:nonzero;"/>
                        <path d="M249.921,2852.4L249.921,2856.28C249.921,2856.61 250.007,2856.87 250.179,2857.06C250.35,2857.25 250.554,2857.34 250.791,2857.34C251.241,2857.34 251.623,2857.14 251.934,2856.73L252.836,2858.42C252.084,2859.11 251.292,2859.45 250.461,2859.45C249.629,2859.45 248.925,2859.18 248.351,2858.63C247.777,2858.08 247.49,2857.33 247.49,2856.39L247.49,2852.4L246.475,2852.4L246.475,2850.66L247.49,2850.66L247.49,2848.07L249.921,2848.07L249.921,2850.66L252.014,2850.66L252.014,2852.4L249.921,2852.4Z" style="fill:rgb(35,31,32);fill-rule:nonzero;"/>
                        <path d="M257.021,2862.73C256.173,2862.73 255.374,2862.39 254.622,2861.7L255.717,2859.92C256.125,2860.31 256.544,2860.51 256.973,2860.51C257.198,2860.51 257.392,2860.4 257.553,2860.18C257.714,2859.96 257.794,2859.73 257.794,2859.48C257.794,2859.24 256.678,2856.29 254.445,2850.66L257.021,2850.66L259.131,2856.05L261.24,2850.66L263.817,2850.66L259.791,2860.87C259.555,2861.46 259.187,2861.92 258.688,2862.24C258.189,2862.57 257.633,2862.73 257.021,2862.73Z" style="fill:rgb(35,31,32);fill-rule:nonzero;"/>
                        <path d="M161.481,2884.6L163.478,2878.13L166.102,2878.13L168.083,2884.6L170.321,2878.13L173.043,2878.13L169.114,2889.38L167.246,2889.38L164.782,2881.56L162.334,2889.38L160.467,2889.38L156.537,2878.13L159.259,2878.13L161.481,2884.6Z" style="fill:rgb(35,31,32);fill-rule:nonzero;"/>
                        <path d="M178.953,2889.38L176.538,2889.38L176.538,2880.72L178.953,2880.72L178.953,2889.38ZM176.328,2878.61C176.328,2878.21 176.465,2877.88 176.739,2877.61C177.013,2877.33 177.348,2877.19 177.745,2877.19C178.142,2877.19 178.478,2877.33 178.752,2877.61C179.025,2877.88 179.162,2878.21 179.162,2878.61C179.162,2879.01 179.025,2879.34 178.752,2879.62C178.478,2879.89 178.142,2880.03 177.745,2880.03C177.348,2880.03 177.013,2879.89 176.739,2879.62C176.465,2879.34 176.328,2879.01 176.328,2878.61Z" style="fill:rgb(35,31,32);fill-rule:nonzero;"/>
                        <path d="M185.405,2889.38L182.989,2889.38L182.989,2877.44L185.405,2877.44L185.405,2883.57L188.094,2880.7L191.137,2880.7L187.836,2884.22L191.266,2889.38L188.4,2889.38L186.194,2886.07L185.405,2886.89L185.405,2889.38Z" style="fill:rgb(35,31,32);fill-rule:nonzero;"/>
                        <path d="M196.936,2889.38L194.52,2889.38L194.52,2880.72L196.936,2880.72L196.936,2889.38ZM194.311,2878.61C194.311,2878.21 194.448,2877.88 194.722,2877.61C194.995,2877.33 195.331,2877.19 195.728,2877.19C196.125,2877.19 196.461,2877.33 196.735,2877.61C197.008,2877.88 197.145,2878.21 197.145,2878.61C197.145,2879.01 197.008,2879.34 196.735,2879.62C196.461,2879.89 196.125,2880.03 195.728,2880.03C195.331,2880.03 194.995,2879.89 194.722,2879.62C194.448,2879.34 194.311,2879.01 194.311,2878.61Z" style="fill:rgb(35,31,32);fill-rule:nonzero;"/>
                        <path d="M203.307,2889.38L199.877,2880.7L202.389,2880.7L204.547,2886.16L206.705,2880.7L209.217,2880.7L205.787,2889.38L203.307,2889.38Z" style="fill:rgb(35,31,32);fill-rule:nonzero;"/>
                        <path d="M213.501,2886.78C213.904,2887.23 214.419,2887.45 215.047,2887.45C215.675,2887.45 216.19,2887.23 216.593,2886.78C216.996,2886.34 217.197,2885.76 217.197,2885.05C217.197,2884.34 216.996,2883.76 216.593,2883.31C216.19,2882.86 215.675,2882.64 215.047,2882.64C214.419,2882.64 213.904,2882.86 213.501,2883.31C213.099,2883.76 212.898,2884.34 212.898,2885.05C212.898,2885.76 213.099,2886.34 213.501,2886.78ZM218.324,2888.22C217.455,2889.08 216.362,2889.51 215.047,2889.51C213.732,2889.51 212.64,2889.08 211.77,2888.22C210.901,2887.37 210.466,2886.31 210.466,2885.05C210.466,2883.8 210.901,2882.74 211.77,2881.87C212.64,2881.01 213.732,2880.58 215.047,2880.58C216.362,2880.58 217.455,2881.01 218.324,2881.87C219.194,2882.74 219.628,2883.8 219.628,2885.05C219.628,2886.31 219.194,2887.37 218.324,2888.22Z" style="fill:rgb(35,31,32);fill-rule:nonzero;"/>
                        <path d="M223.354,2892.8C222.506,2892.8 221.706,2892.45 220.955,2891.77L222.05,2889.98C222.458,2890.38 222.876,2890.58 223.306,2890.58C223.531,2890.58 223.724,2890.47 223.885,2890.24C224.046,2890.03 224.127,2889.79 224.127,2889.55C224.127,2889.3 223.01,2886.36 220.778,2880.72L223.354,2880.72L225.463,2886.12L227.573,2880.72L230.149,2880.72L226.124,2890.93C225.887,2891.52 225.52,2891.98 225.021,2892.31C224.521,2892.63 223.966,2892.8 223.354,2892.8Z" style="fill:rgb(35,31,32);fill-rule:nonzero;"/>
                        <path d="M238.337,2889.38L236.066,2889.38L236.066,2888.34C235.444,2889.12 234.674,2889.51 233.756,2889.51C232.838,2889.51 232.068,2889.25 231.445,2888.72C230.822,2888.18 230.511,2887.48 230.511,2886.59C230.511,2885.7 230.833,2885.04 231.477,2884.6C232.121,2884.16 233.002,2883.94 234.118,2883.94L235.922,2883.94L235.922,2883.89C235.922,2882.97 235.433,2882.51 234.456,2882.51C234.038,2882.51 233.595,2882.59 233.128,2882.76C232.661,2882.92 232.266,2883.13 231.944,2883.38L230.865,2881.82C232.003,2880.99 233.302,2880.58 234.762,2880.58C235.814,2880.58 236.673,2880.84 237.339,2881.37C238.004,2881.89 238.337,2882.72 238.337,2883.86L238.337,2889.38ZM235.905,2886.08L235.905,2885.66L234.392,2885.66C233.426,2885.66 232.943,2885.97 232.943,2886.57C232.943,2886.88 233.058,2887.12 233.289,2887.28C233.52,2887.45 233.85,2887.53 234.279,2887.53C234.708,2887.53 235.087,2887.4 235.414,2887.14C235.742,2886.88 235.905,2886.52 235.905,2886.08Z" style="fill:rgb(35,31,32);fill-rule:nonzero;"/>
                        <path d="M246.934,2883.23C246.547,2882.84 246.07,2882.64 245.501,2882.64C244.932,2882.64 244.441,2882.84 244.027,2883.23C243.614,2883.63 243.407,2884.17 243.407,2884.86C243.407,2885.55 243.609,2886.1 244.011,2886.53C244.414,2886.95 244.905,2887.16 245.485,2887.16C246.064,2887.16 246.547,2886.95 246.934,2886.53C247.32,2886.12 247.514,2885.56 247.514,2884.87C247.514,2884.18 247.32,2883.63 246.934,2883.23ZM247.852,2887.92C247.09,2888.77 246.142,2889.19 245.01,2889.19C243.877,2889.19 242.922,2888.81 242.143,2888.04C241.365,2887.27 240.976,2886.25 240.976,2884.96C240.976,2883.68 241.376,2882.63 242.176,2881.81C242.975,2880.99 243.891,2880.58 244.921,2880.58C245.952,2880.58 246.805,2881 247.481,2881.85L247.481,2880.7L249.897,2880.7L249.897,2888.26C249.897,2889.03 249.763,2889.72 249.494,2890.32C249.226,2890.92 248.866,2891.39 248.415,2891.74C247.524,2892.44 246.472,2892.8 245.259,2892.8C244.615,2892.8 243.958,2892.69 243.287,2892.48C242.616,2892.27 242.028,2891.98 241.523,2891.59L242.457,2889.77C243.252,2890.37 244.092,2890.67 244.977,2890.67C245.863,2890.67 246.564,2890.45 247.079,2890.01C247.594,2889.57 247.852,2888.87 247.852,2887.92Z" style="fill:rgb(35,31,32);fill-rule:nonzero;"/>
                        <path d="M261.287,2888.13C260.31,2889.05 259.164,2889.51 257.849,2889.51C256.534,2889.51 255.447,2889.11 254.588,2888.3C253.73,2887.49 253.3,2886.4 253.3,2885.04C253.3,2883.67 253.738,2882.59 254.613,2881.78C255.487,2880.98 256.521,2880.58 257.712,2880.58C258.904,2880.58 259.916,2880.93 260.748,2881.66C261.58,2882.37 261.996,2883.36 261.996,2884.62L261.996,2885.91L255.683,2885.91C255.759,2886.38 256.005,2886.76 256.424,2887.07C256.843,2887.37 257.315,2887.52 257.841,2887.52C258.689,2887.52 259.387,2887.23 259.934,2886.66L261.287,2888.13ZM258.968,2882.99C258.636,2882.71 258.23,2882.57 257.753,2882.57C257.275,2882.57 256.837,2882.72 256.44,2883.01C256.043,2883.3 255.812,2883.69 255.748,2884.18L259.548,2884.18C259.494,2883.67 259.301,2883.27 258.968,2882.99Z" style="fill:rgb(35,31,32);fill-rule:nonzero;"/>
                        <path d="M163.14,2917.22C164.374,2917.22 165.383,2916.74 166.167,2915.76L167.777,2917.42C166.5,2918.86 164.994,2919.58 163.26,2919.58C161.527,2919.58 160.099,2919.03 158.977,2917.93C157.855,2916.84 157.294,2915.46 157.294,2913.79C157.294,2912.12 157.866,2910.72 159.009,2909.61C160.153,2908.49 161.551,2907.93 163.204,2907.93C165.05,2907.93 166.596,2908.64 167.841,2910.04L166.28,2911.82C165.485,2910.83 164.497,2910.33 163.317,2910.33C162.372,2910.33 161.564,2910.64 160.893,2911.26C160.222,2911.88 159.887,2912.71 159.887,2913.76C159.887,2914.8 160.203,2915.64 160.837,2916.28C161.47,2916.91 162.238,2917.22 163.14,2917.22Z" style="fill:rgb(35,31,32);fill-rule:nonzero;"/>
                        <path d="M172.814,2916.85C173.217,2917.29 173.732,2917.51 174.36,2917.51C174.988,2917.51 175.503,2917.29 175.906,2916.85C176.308,2916.4 176.51,2915.82 176.51,2915.12C176.51,2914.41 176.308,2913.83 175.906,2913.38C175.503,2912.93 174.988,2912.7 174.36,2912.7C173.732,2912.7 173.217,2912.93 172.814,2913.38C172.412,2913.83 172.21,2914.41 172.21,2915.12C172.21,2915.82 172.412,2916.4 172.814,2916.85ZM177.637,2918.29C176.767,2919.15 175.675,2919.58 174.36,2919.58C173.045,2919.58 171.953,2919.15 171.083,2918.29C170.214,2917.43 169.779,2916.37 169.779,2915.12C169.779,2913.86 170.214,2912.8 171.083,2911.93C171.953,2911.07 173.045,2910.64 174.36,2910.64C175.675,2910.64 176.767,2911.07 177.637,2911.93C178.506,2912.8 178.941,2913.86 178.941,2915.12C178.941,2916.37 178.506,2917.43 177.637,2918.29Z" style="fill:rgb(35,31,32);fill-rule:nonzero;"/>
                        <path d="M189.933,2914.78L189.933,2919.45L187.502,2919.45L187.502,2914.71C187.502,2914.03 187.397,2913.52 187.188,2913.2C186.978,2912.88 186.64,2912.72 186.173,2912.72C185.706,2912.72 185.293,2912.89 184.933,2913.24C184.574,2913.59 184.394,2914.1 184.394,2914.78L184.394,2919.45L181.978,2919.45L181.978,2910.78L184.394,2910.78L184.394,2911.77C185.059,2911.01 185.822,2910.64 186.68,2910.64C187.228,2910.64 187.724,2910.8 188.17,2911.12C188.615,2911.44 188.951,2911.84 189.176,2912.3C189.509,2911.77 189.957,2911.36 190.521,2911.07C191.084,2910.78 191.651,2910.64 192.22,2910.64C193.239,2910.64 194.061,2910.94 194.683,2911.55C195.306,2912.16 195.617,2913.03 195.617,2914.18L195.617,2919.45L193.186,2919.45L193.186,2914.71C193.186,2913.38 192.697,2912.72 191.72,2912.72C191.237,2912.72 190.819,2912.89 190.464,2913.24C190.11,2913.59 189.933,2914.1 189.933,2914.78Z" style="fill:rgb(35,31,32);fill-rule:nonzero;"/>
                        <path d="M208.012,2914.78L208.012,2919.45L205.58,2919.45L205.58,2914.71C205.58,2914.03 205.476,2913.52 205.266,2913.2C205.057,2912.88 204.719,2912.72 204.252,2912.72C203.785,2912.72 203.372,2912.89 203.012,2913.24C202.652,2913.59 202.473,2914.1 202.473,2914.78L202.473,2919.45L200.057,2919.45L200.057,2910.78L202.473,2910.78L202.473,2911.77C203.138,2911.01 203.9,2910.64 204.759,2910.64C205.307,2910.64 205.803,2910.8 206.249,2911.12C206.694,2911.44 207.03,2911.84 207.255,2912.3C207.588,2911.77 208.036,2911.36 208.6,2911.07C209.163,2910.78 209.729,2910.64 210.298,2910.64C211.318,2910.64 212.139,2910.94 212.762,2911.55C213.385,2912.16 213.696,2913.03 213.696,2914.18L213.696,2919.45L211.265,2919.45L211.265,2914.71C211.265,2913.38 210.776,2912.72 209.799,2912.72C209.316,2912.72 208.898,2912.89 208.543,2913.24C208.189,2913.59 208.012,2914.1 208.012,2914.78Z" style="fill:rgb(35,31,32);fill-rule:nonzero;"/>
                        <path d="M220.722,2916.85C221.125,2917.29 221.64,2917.51 222.268,2917.51C222.896,2917.51 223.411,2917.29 223.814,2916.85C224.216,2916.4 224.418,2915.82 224.418,2915.12C224.418,2914.41 224.216,2913.83 223.814,2913.38C223.411,2912.93 222.896,2912.7 222.268,2912.7C221.64,2912.7 221.125,2912.93 220.722,2913.38C220.32,2913.83 220.118,2914.41 220.118,2915.12C220.118,2915.82 220.32,2916.4 220.722,2916.85ZM225.545,2918.29C224.675,2919.15 223.583,2919.58 222.268,2919.58C220.953,2919.58 219.861,2919.15 218.991,2918.29C218.122,2917.43 217.687,2916.37 217.687,2915.12C217.687,2913.86 218.122,2912.8 218.991,2911.93C219.861,2911.07 220.953,2910.64 222.268,2910.64C223.583,2910.64 224.675,2911.07 225.545,2911.93C226.414,2912.8 226.849,2913.86 226.849,2915.12C226.849,2916.37 226.414,2917.43 225.545,2918.29Z" style="fill:rgb(35,31,32);fill-rule:nonzero;"/>
                        <path d="M232.302,2914.62L232.302,2919.45L229.887,2919.45L229.887,2910.78L232.302,2910.78L232.302,2911.75C233.032,2911.01 233.853,2910.64 234.766,2910.64C235.678,2910.64 236.443,2910.96 237.06,2911.61C237.677,2912.25 237.986,2913.11 237.986,2914.18L237.986,2919.45L235.571,2919.45L235.571,2914.55C235.571,2913.22 235.082,2912.55 234.105,2912.55C233.622,2912.55 233.201,2912.73 232.841,2913.08C232.482,2913.43 232.302,2913.94 232.302,2914.62Z" style="fill:rgb(35,31,32);fill-rule:nonzero;"/>
                        <path d="M247.656,2918.8C247.028,2919.32 246.23,2919.58 245.264,2919.58C244.62,2919.58 243.949,2919.46 243.251,2919.23C242.554,2919 241.926,2918.66 241.368,2918.21L242.43,2916.69C243.332,2917.39 244.293,2917.74 245.313,2917.74C245.624,2917.74 245.871,2917.68 246.053,2917.55C246.236,2917.43 246.327,2917.27 246.327,2917.06C246.327,2916.86 246.201,2916.67 245.949,2916.5C245.696,2916.33 245.331,2916.17 244.854,2916.02C244.376,2915.87 244.011,2915.74 243.759,2915.63C243.506,2915.52 243.219,2915.37 242.897,2915.16C242.242,2914.76 241.915,2914.15 241.915,2913.35C241.915,2912.55 242.237,2911.9 242.881,2911.4C243.525,2910.89 244.357,2910.64 245.377,2910.64C246.397,2910.64 247.417,2910.98 248.437,2911.67L247.535,2913.28C246.783,2912.76 246.035,2912.51 245.288,2912.51C244.542,2912.51 244.169,2912.71 244.169,2913.12C244.169,2913.34 244.287,2913.52 244.524,2913.65C244.76,2913.78 245.152,2913.93 245.699,2914.1C246.247,2914.27 246.636,2914.4 246.867,2914.5C247.097,2914.59 247.374,2914.73 247.696,2914.92C248.297,2915.29 248.598,2915.9 248.598,2916.75C248.598,2917.6 248.284,2918.29 247.656,2918.8Z" style="fill:rgb(35,31,32);fill-rule:nonzero;"/>
                        <path d="M161.481,2944.73L163.478,2938.26L166.102,2938.26L168.083,2944.73L170.321,2938.26L173.043,2938.26L169.114,2949.51L167.246,2949.51L164.782,2941.68L162.334,2949.51L160.467,2949.51L156.537,2938.26L159.259,2938.26L161.481,2944.73Z" style="fill:rgb(35,31,32);fill-rule:nonzero;"/>
                        <path d="M178.953,2949.51L176.538,2949.51L176.538,2940.85L178.953,2940.85L178.953,2949.51ZM176.328,2938.74C176.328,2938.34 176.465,2938.01 176.739,2937.73C177.013,2937.46 177.348,2937.32 177.745,2937.32C178.142,2937.32 178.478,2937.46 178.752,2937.73C179.025,2938.01 179.162,2938.34 179.162,2938.74C179.162,2939.14 179.025,2939.47 178.752,2939.74C178.478,2940.02 178.142,2940.16 177.745,2940.16C177.348,2940.16 177.013,2940.02 176.739,2939.74C176.465,2939.47 176.328,2939.14 176.328,2938.74Z" style="fill:rgb(35,31,32);fill-rule:nonzero;"/>
                        <path d="M185.405,2949.51L182.989,2949.51L182.989,2937.56L185.405,2937.56L185.405,2943.7L188.094,2940.83L191.137,2940.83L187.836,2944.34L191.266,2949.51L188.4,2949.51L186.194,2946.19L185.405,2947.01L185.405,2949.51Z" style="fill:rgb(35,31,32);fill-rule:nonzero;"/>
                        <path d="M196.936,2949.51L194.52,2949.51L194.52,2940.85L196.936,2940.85L196.936,2949.51ZM194.311,2938.74C194.311,2938.34 194.448,2938.01 194.722,2937.73C194.995,2937.46 195.331,2937.32 195.728,2937.32C196.125,2937.32 196.461,2937.46 196.735,2937.73C197.008,2938.01 197.145,2938.34 197.145,2938.74C197.145,2939.14 197.008,2939.47 196.735,2939.74C196.461,2940.02 196.125,2940.16 195.728,2940.16C195.331,2940.16 194.995,2940.02 194.722,2939.74C194.448,2939.47 194.311,2939.14 194.311,2938.74Z" style="fill:rgb(35,31,32);fill-rule:nonzero;"/>
                        <path d="M201.697,2948.34C200.892,2947.47 200.489,2946.39 200.489,2945.1C200.489,2943.81 200.881,2942.76 201.665,2941.93C202.448,2941.11 203.366,2940.7 204.418,2940.7C205.47,2940.7 206.329,2941.07 206.995,2941.81L206.995,2937.56L209.41,2937.56L209.41,2949.51L206.995,2949.51L206.995,2948.37C206.318,2949.22 205.468,2949.64 204.442,2949.64C203.417,2949.64 202.502,2949.2 201.697,2948.34ZM203.549,2946.91C203.967,2947.36 204.456,2947.58 205.014,2947.58C205.572,2947.58 206.047,2947.36 206.439,2946.91C206.831,2946.47 207.027,2945.89 207.027,2945.19C207.027,2944.48 206.831,2943.9 206.439,2943.43C206.047,2942.97 205.567,2942.73 204.998,2942.73C204.429,2942.73 203.941,2942.97 203.533,2943.44C203.125,2943.91 202.921,2944.5 202.921,2945.2C202.921,2945.89 203.13,2946.47 203.549,2946.91Z" style="fill:rgb(35,31,32);fill-rule:nonzero;"/>
                        <path d="M220.155,2949.51L217.885,2949.51L217.885,2948.46C217.262,2949.25 216.492,2949.64 215.574,2949.64C214.656,2949.64 213.886,2949.37 213.264,2948.84C212.641,2948.31 212.33,2947.6 212.33,2946.72C212.33,2945.83 212.652,2945.17 213.296,2944.73C213.94,2944.29 214.82,2944.07 215.937,2944.07L217.74,2944.07L217.74,2944.02C217.74,2943.1 217.252,2942.64 216.275,2942.64C215.856,2942.64 215.413,2942.72 214.946,2942.88C214.479,2943.05 214.085,2943.26 213.763,2943.5L212.684,2941.94C213.822,2941.12 215.121,2940.7 216.581,2940.7C217.633,2940.7 218.492,2940.97 219.157,2941.49C219.823,2942.02 220.155,2942.85 220.155,2943.99L220.155,2949.51ZM217.724,2946.21L217.724,2945.79L216.21,2945.79C215.244,2945.79 214.761,2946.09 214.761,2946.69C214.761,2947 214.877,2947.24 215.107,2947.41C215.338,2947.58 215.668,2947.66 216.098,2947.66C216.527,2947.66 216.905,2947.53 217.233,2947.26C217.56,2947 217.724,2946.65 217.724,2946.21Z" style="fill:rgb(35,31,32);fill-rule:nonzero;"/>
                        <path d="M225.697,2942.59L225.697,2946.47C225.697,2946.8 225.783,2947.06 225.955,2947.25C226.127,2947.44 226.331,2947.53 226.567,2947.53C227.018,2947.53 227.399,2947.33 227.71,2946.92L228.612,2948.61C227.86,2949.3 227.069,2949.64 226.237,2949.64C225.405,2949.64 224.702,2949.37 224.127,2948.82C223.553,2948.27 223.266,2947.53 223.266,2946.58L223.266,2942.59L222.251,2942.59L222.251,2940.85L223.266,2940.85L223.266,2938.26L225.697,2938.26L225.697,2940.85L227.791,2940.85L227.791,2942.59L225.697,2942.59Z" style="fill:rgb(35,31,32);fill-rule:nonzero;"/>
                        <path d="M237.559,2949.51L235.288,2949.51L235.288,2948.46C234.666,2949.25 233.896,2949.64 232.978,2949.64C232.06,2949.64 231.29,2949.37 230.667,2948.84C230.044,2948.31 229.733,2947.6 229.733,2946.72C229.733,2945.83 230.055,2945.17 230.699,2944.73C231.343,2944.29 232.224,2944.07 233.34,2944.07L235.143,2944.07L235.143,2944.02C235.143,2943.1 234.655,2942.64 233.678,2942.64C233.259,2942.64 232.817,2942.72 232.35,2942.88C231.883,2943.05 231.488,2943.26 231.166,2943.5L230.087,2941.94C231.225,2941.12 232.524,2940.7 233.984,2940.7C235.036,2940.7 235.895,2940.97 236.56,2941.49C237.226,2942.02 237.559,2942.85 237.559,2943.99L237.559,2949.51ZM235.127,2946.21L235.127,2945.79L233.614,2945.79C232.648,2945.79 232.165,2946.09 232.165,2946.69C232.165,2947 232.28,2947.24 232.511,2947.41C232.742,2947.58 233.072,2947.66 233.501,2947.66C233.93,2947.66 234.309,2947.53 234.636,2947.26C234.964,2947 235.127,2946.65 235.127,2946.21Z" style="fill:rgb(35,31,32);fill-rule:nonzero;"/>
                        <path d="M168.051,2972.49L165.007,2978.64L163.51,2978.64L160.483,2972.49L160.483,2979.57L157.971,2979.57L157.971,2968.32L161.368,2968.32L164.267,2974.5L167.181,2968.32L170.563,2968.32L170.563,2979.57L168.051,2979.57L168.051,2972.49Z" style="fill:rgb(35,31,32);fill-rule:nonzero;"/>
                        <path d="M181.295,2978.32C180.318,2979.24 179.172,2979.7 177.857,2979.7C176.542,2979.7 175.455,2979.3 174.596,2978.49C173.737,2977.68 173.308,2976.59 173.308,2975.23C173.308,2973.86 173.745,2972.78 174.62,2971.97C175.495,2971.17 176.528,2970.77 177.72,2970.77C178.911,2970.77 179.923,2971.12 180.755,2971.85C181.587,2972.56 182.003,2973.55 182.003,2974.81L182.003,2976.1L175.691,2976.1C175.766,2976.57 176.013,2976.95 176.432,2977.26C176.85,2977.56 177.323,2977.71 177.849,2977.71C178.697,2977.71 179.395,2977.42 179.942,2976.85L181.295,2978.32ZM178.976,2973.18C178.643,2972.9 178.238,2972.76 177.76,2972.76C177.282,2972.76 176.845,2972.91 176.448,2973.2C176.051,2973.49 175.82,2973.88 175.755,2974.37L179.556,2974.37C179.502,2973.86 179.309,2973.46 178.976,2973.18Z" style="fill:rgb(35,31,32);fill-rule:nonzero;"/>
                        <path d="M185.617,2978.4C184.812,2977.53 184.409,2976.45 184.409,2975.16C184.409,2973.87 184.801,2972.82 185.585,2972C186.368,2971.18 187.286,2970.77 188.338,2970.77C189.39,2970.77 190.249,2971.14 190.915,2971.88L190.915,2967.63L193.33,2967.63L193.33,2979.57L190.915,2979.57L190.915,2978.43C190.238,2979.28 189.387,2979.7 188.362,2979.7C187.337,2979.7 186.422,2979.27 185.617,2978.4ZM187.469,2976.97C187.887,2977.42 188.376,2977.64 188.934,2977.64C189.492,2977.64 189.967,2977.42 190.359,2976.97C190.751,2976.53 190.947,2975.95 190.947,2975.25C190.947,2974.55 190.751,2973.96 190.359,2973.49C189.967,2973.03 189.487,2972.8 188.918,2972.8C188.349,2972.8 187.86,2973.03 187.453,2973.5C187.045,2973.98 186.841,2974.56 186.841,2975.26C186.841,2975.96 187.05,2976.53 187.469,2976.97Z" style="fill:rgb(35,31,32);fill-rule:nonzero;"/>
                        <path d="M199.732,2979.57L197.316,2979.57L197.316,2970.91L199.732,2970.91L199.732,2979.57ZM197.107,2968.8C197.107,2968.4 197.244,2968.07 197.518,2967.8C197.791,2967.52 198.127,2967.38 198.524,2967.38C198.921,2967.38 199.257,2967.52 199.531,2967.8C199.804,2968.07 199.941,2968.4 199.941,2968.8C199.941,2969.2 199.804,2969.53 199.531,2969.81C199.257,2970.08 198.921,2970.22 198.524,2970.22C198.127,2970.22 197.791,2970.08 197.518,2969.81C197.244,2969.53 197.107,2969.2 197.107,2968.8Z" style="fill:rgb(35,31,32);fill-rule:nonzero;"/>
                        <path d="M211.077,2979.57L208.807,2979.57L208.807,2978.53C208.184,2979.31 207.414,2979.7 206.496,2979.7C205.578,2979.7 204.808,2979.44 204.185,2978.91C203.563,2978.37 203.251,2977.67 203.251,2976.78C203.251,2975.89 203.573,2975.23 204.218,2974.79C204.862,2974.35 205.742,2974.13 206.858,2974.13L208.662,2974.13L208.662,2974.08C208.662,2973.16 208.173,2972.7 207.197,2972.7C206.778,2972.7 206.335,2972.78 205.868,2972.95C205.401,2973.11 205.007,2973.32 204.685,2973.57L203.606,2972.01C204.744,2971.18 206.043,2970.77 207.502,2970.77C208.555,2970.77 209.413,2971.03 210.079,2971.55C210.744,2972.08 211.077,2972.91 211.077,2974.05L211.077,2979.57ZM208.646,2976.27L208.646,2975.85L207.132,2975.85C206.166,2975.85 205.683,2976.16 205.683,2976.76C205.683,2977.07 205.798,2977.31 206.029,2977.47C206.26,2977.64 206.59,2977.72 207.019,2977.72C207.449,2977.72 207.827,2977.59 208.155,2977.33C208.482,2977.07 208.646,2976.71 208.646,2976.27Z" style="fill:rgb(35,31,32);fill-rule:nonzero;"/>
                        <path d="M217.718,2974.79L219.715,2968.32L222.34,2968.32L224.32,2974.79L226.558,2968.32L229.28,2968.32L225.351,2979.57L223.483,2979.57L221.019,2971.75L218.572,2979.57L216.704,2979.57L212.775,2968.32L215.496,2968.32L217.718,2974.79Z" style="fill:rgb(35,31,32);fill-rule:nonzero;"/>
                        <path d="M235.19,2979.57L232.775,2979.57L232.775,2970.91L235.19,2970.91L235.19,2979.57ZM232.565,2968.8C232.565,2968.4 232.702,2968.07 232.976,2967.8C233.25,2967.52 233.585,2967.38 233.982,2967.38C234.38,2967.38 234.715,2967.52 234.989,2967.8C235.263,2968.07 235.399,2968.4 235.399,2968.8C235.399,2969.2 235.263,2969.53 234.989,2969.81C234.715,2970.08 234.38,2970.22 233.982,2970.22C233.585,2970.22 233.25,2970.08 232.976,2969.81C232.702,2969.53 232.565,2969.2 232.565,2968.8Z" style="fill:rgb(35,31,32);fill-rule:nonzero;"/>
                        <path d="M241.592,2979.57L239.177,2979.57L239.177,2967.63L241.592,2967.63L241.592,2973.76L244.281,2970.89L247.325,2970.89L244.024,2974.41L247.453,2979.57L244.587,2979.57L242.381,2976.26L241.592,2977.08L241.592,2979.57Z" style="fill:rgb(35,31,32);fill-rule:nonzero;"/>
                        <path d="M253.173,2979.57L250.758,2979.57L250.758,2970.91L253.173,2970.91L253.173,2979.57ZM250.548,2968.8C250.548,2968.4 250.685,2968.07 250.959,2967.8C251.233,2967.52 251.568,2967.38 251.965,2967.38C252.363,2967.38 252.698,2967.52 252.972,2967.8C253.246,2968.07 253.382,2968.4 253.382,2968.8C253.382,2969.2 253.246,2969.53 252.972,2969.81C252.698,2970.08 252.363,2970.22 251.965,2970.22C251.568,2970.22 251.233,2970.08 250.959,2969.81C250.685,2969.53 250.548,2969.2 250.548,2968.8Z" style="fill:rgb(35,31,32);fill-rule:nonzero;"/>
                        <path d="M168.051,3002.55L165.007,3008.7L163.51,3008.7L160.483,3002.55L160.483,3009.64L157.971,3009.64L157.971,2998.38L161.368,2998.38L164.267,3004.57L167.181,2998.38L170.563,2998.38L170.563,3009.64L168.051,3009.64L168.051,3002.55Z" style="fill:rgb(35,31,32);fill-rule:nonzero;"/>
                        <path d="M181.295,3008.38C180.318,3009.3 179.172,3009.77 177.857,3009.77C176.542,3009.77 175.455,3009.36 174.596,3008.55C173.737,3007.74 173.308,3006.65 173.308,3005.29C173.308,3003.93 173.745,3002.84 174.62,3002.04C175.495,3001.23 176.528,3000.83 177.72,3000.83C178.911,3000.83 179.923,3001.19 180.755,3001.91C181.587,3002.63 182.003,3003.62 182.003,3004.87L182.003,3006.16L175.691,3006.16C175.766,3006.63 176.013,3007.02 176.432,3007.32C176.85,3007.62 177.323,3007.77 177.849,3007.77C178.697,3007.77 179.395,3007.49 179.942,3006.92L181.295,3008.38ZM178.976,3003.24C178.643,3002.97 178.238,3002.83 177.76,3002.83C177.282,3002.83 176.845,3002.97 176.448,3003.26C176.051,3003.55 175.82,3003.94 175.755,3004.44L179.556,3004.44C179.502,3003.92 179.309,3003.52 178.976,3003.24Z" style="fill:rgb(35,31,32);fill-rule:nonzero;"/>
                        <path d="M187.778,3002.71L187.778,3006.59C187.778,3006.93 187.864,3007.19 188.036,3007.38C188.207,3007.56 188.411,3007.66 188.647,3007.66C189.098,3007.66 189.479,3007.45 189.791,3007.05L190.692,3008.74C189.941,3009.42 189.149,3009.77 188.317,3009.77C187.485,3009.77 186.782,3009.49 186.208,3008.95C185.634,3008.4 185.346,3007.65 185.346,3006.71L185.346,3002.71L184.332,3002.71L184.332,3000.97L185.346,3000.97L185.346,2998.38L187.778,2998.38L187.778,3000.97L189.871,3000.97L189.871,3002.71L187.778,3002.71Z" style="fill:rgb(35,31,32);fill-rule:nonzero;"/>
                        <path d="M199.64,3009.64L197.369,3009.64L197.369,3008.59C196.746,3009.37 195.976,3009.77 195.058,3009.77C194.141,3009.77 193.37,3009.5 192.748,3008.97C192.125,3008.44 191.814,3007.73 191.814,3006.84C191.814,3005.96 192.136,3005.3 192.78,3004.86C193.424,3004.41 194.304,3004.2 195.421,3004.2L197.224,3004.2L197.224,3004.15C197.224,3003.22 196.736,3002.76 195.759,3002.76C195.34,3002.76 194.897,3002.85 194.43,3003.01C193.963,3003.18 193.569,3003.38 193.247,3003.63L192.168,3002.07C193.306,3001.24 194.605,3000.83 196.065,3000.83C197.117,3000.83 197.976,3001.09 198.641,3001.62C199.307,3002.14 199.64,3002.98 199.64,3004.11L199.64,3009.64ZM197.208,3006.34L197.208,3005.92L195.694,3005.92C194.728,3005.92 194.245,3006.22 194.245,3006.82C194.245,3007.13 194.361,3007.37 194.591,3007.54C194.822,3007.7 195.152,3007.79 195.582,3007.79C196.011,3007.79 196.39,3007.65 196.717,3007.39C197.044,3007.13 197.208,3006.78 197.208,3006.34Z" style="fill:rgb(35,31,32);fill-rule:nonzero;"/>
                        <rect x="203.281" y="3003.73" width="5.732" height="2.142" style="fill:rgb(35,31,32);fill-rule:nonzero;"/>
                        <path d="M214.548,3004.86L216.545,2998.38L219.169,2998.38L221.15,3004.86L223.388,2998.38L226.109,2998.38L222.18,3009.64L220.313,3009.64L217.849,3001.81L215.401,3009.64L213.533,3009.64L209.604,2998.38L212.326,2998.38L214.548,3004.86Z" style="fill:rgb(35,31,32);fill-rule:nonzero;"/>
                        <path d="M232.02,3009.64L229.604,3009.64L229.604,3000.97L232.02,3000.97L232.02,3009.64ZM229.395,2998.87C229.395,2998.47 229.532,2998.13 229.806,2997.86C230.079,2997.59 230.415,2997.45 230.812,2997.45C231.209,2997.45 231.545,2997.59 231.818,2997.86C232.092,2998.13 232.229,2998.47 232.229,2998.87C232.229,2999.26 232.092,2999.6 231.818,2999.87C231.545,3000.14 231.209,3000.28 230.812,3000.28C230.415,3000.28 230.079,3000.14 229.806,2999.87C229.532,2999.6 229.395,2999.26 229.395,2998.87Z" style="fill:rgb(35,31,32);fill-rule:nonzero;"/>
                        <path d="M238.472,3009.64L236.056,3009.64L236.056,2997.69L238.472,2997.69L238.472,3003.82L241.161,3000.96L244.204,3000.96L240.903,3004.47L244.333,3009.64L241.467,3009.64L239.261,3006.32L238.472,3007.14L238.472,3009.64Z" style="fill:rgb(35,31,32);fill-rule:nonzero;"/>
                        <path d="M250.003,3009.64L247.587,3009.64L247.587,3000.97L250.003,3000.97L250.003,3009.64ZM247.378,2998.87C247.378,2998.47 247.515,2998.13 247.789,2997.86C248.062,2997.59 248.398,2997.45 248.795,2997.45C249.192,2997.45 249.528,2997.59 249.801,2997.86C250.075,2998.13 250.212,2998.47 250.212,2998.87C250.212,2999.26 250.075,2999.6 249.801,2999.87C249.528,3000.14 249.192,3000.28 248.795,3000.28C248.398,3000.28 248.062,3000.14 247.789,2999.87C247.515,2999.6 247.378,2999.26 247.378,2998.87Z" style="fill:rgb(35,31,32);fill-rule:nonzero;"/>
                        <rect x="157.971" y="3028.45" width="2.512" height="11.256" style="fill:rgb(35,31,32);fill-rule:nonzero;"/>
                        <path d="M166.696,3034.87L166.696,3039.7L164.28,3039.7L164.28,3031.04L166.696,3031.04L166.696,3032C167.426,3031.26 168.247,3030.89 169.159,3030.89C170.072,3030.89 170.837,3031.22 171.454,3031.86C172.071,3032.5 172.38,3033.36 172.38,3034.43L172.38,3039.7L169.964,3039.7L169.964,3034.81C169.964,3033.47 169.476,3032.81 168.499,3032.81C168.016,3032.81 167.595,3032.98 167.235,3033.33C166.875,3033.68 166.696,3034.19 166.696,3034.87Z" style="fill:rgb(35,31,32);fill-rule:nonzero;"/>
                        <path d="M180.674,3037.69C181.479,3037.69 182.204,3037.28 182.848,3036.48L184.281,3038.09C183.165,3039.25 181.957,3039.83 180.658,3039.83C179.359,3039.83 178.261,3039.42 177.365,3038.6C176.469,3037.78 176.021,3036.7 176.021,3035.38C176.021,3034.05 176.474,3032.97 177.381,3032.14C178.288,3031.31 179.364,3030.89 180.61,3030.89C181.232,3030.89 181.863,3031.02 182.502,3031.28C183.14,3031.54 183.701,3031.92 184.184,3032.42L182.928,3034.07C182.649,3033.73 182.309,3033.47 181.906,3033.29C181.503,3033.11 181.104,3033.02 180.706,3033.02C180.073,3033.02 179.528,3033.22 179.072,3033.64C178.616,3034.05 178.388,3034.63 178.388,3035.36C178.388,3036.1 178.616,3036.67 179.072,3037.08C179.528,3037.48 180.062,3037.69 180.674,3037.69Z" style="fill:rgb(35,31,32);fill-rule:nonzero;"/>
                        <path d="M192.579,3035.71L192.579,3031.04L195.01,3031.04L195.01,3039.7L192.579,3039.7L192.579,3038.56C191.978,3039.41 191.202,3039.83 190.252,3039.83C189.302,3039.83 188.505,3039.53 187.861,3038.94C187.217,3038.34 186.895,3037.46 186.895,3036.29L186.895,3031.04L189.326,3031.04L189.326,3035.76C189.326,3037.09 189.815,3037.75 190.792,3037.75C191.275,3037.75 191.693,3037.58 192.048,3037.23C192.402,3036.88 192.579,3036.37 192.579,3035.71Z" style="fill:rgb(35,31,32);fill-rule:nonzero;"/>
                        <path d="M206.792,3032.12C207.576,3032.95 207.968,3034 207.968,3035.29C207.968,3036.58 207.565,3037.66 206.76,3038.53C205.955,3039.39 205.04,3039.83 204.015,3039.83C202.989,3039.83 202.139,3039.41 201.462,3038.56L201.462,3039.7L199.047,3039.7L199.047,3027.75L201.462,3027.75L201.462,3032C202.128,3031.26 202.987,3030.89 204.039,3030.89C205.091,3030.89 206.009,3031.3 206.792,3032.12ZM202.018,3037.1C202.41,3037.55 202.885,3037.77 203.443,3037.77C204.001,3037.77 204.49,3037.55 204.908,3037.1C205.327,3036.66 205.536,3036.08 205.536,3035.39C205.536,3034.69 205.332,3034.1 204.924,3033.63C204.516,3033.16 204.028,3032.92 203.459,3032.92C202.89,3032.92 202.41,3033.16 202.018,3033.62C201.626,3034.09 201.43,3034.67 201.43,3035.38C201.43,3036.08 201.626,3036.66 202.018,3037.1Z" style="fill:rgb(35,31,32);fill-rule:nonzero;"/>
                        <path d="M218.88,3039.7L216.61,3039.7L216.61,3038.65C215.987,3039.44 215.217,3039.83 214.299,3039.83C213.381,3039.83 212.611,3039.56 211.988,3039.03C211.366,3038.5 211.054,3037.79 211.054,3036.91C211.054,3036.02 211.376,3035.36 212.02,3034.92C212.664,3034.48 213.545,3034.26 214.661,3034.26L216.465,3034.26L216.465,3034.21C216.465,3033.29 215.976,3032.83 214.999,3032.83C214.581,3032.83 214.138,3032.91 213.671,3033.07C213.204,3033.24 212.809,3033.45 212.487,3033.69L211.408,3032.13C212.546,3031.31 213.845,3030.89 215.305,3030.89C216.357,3030.89 217.216,3031.16 217.882,3031.68C218.547,3032.21 218.88,3033.04 218.88,3034.18L218.88,3039.7ZM216.449,3036.4L216.449,3035.98L214.935,3035.98C213.969,3035.98 213.486,3036.28 213.486,3036.88C213.486,3037.19 213.601,3037.43 213.832,3037.6C214.063,3037.77 214.393,3037.85 214.822,3037.85C215.252,3037.85 215.63,3037.72 215.957,3037.45C216.285,3037.19 216.449,3036.84 216.449,3036.4Z" style="fill:rgb(35,31,32);fill-rule:nonzero;"/>
                        <path d="M224.422,3032.78L224.422,3036.66C224.422,3036.99 224.508,3037.25 224.679,3037.44C224.851,3037.63 225.055,3037.72 225.291,3037.72C225.742,3037.72 226.123,3037.52 226.435,3037.11L227.336,3038.8C226.585,3039.49 225.793,3039.83 224.961,3039.83C224.129,3039.83 223.426,3039.56 222.852,3039.01C222.278,3038.46 221.99,3037.72 221.99,3036.77L221.99,3032.78L220.976,3032.78L220.976,3031.04L221.99,3031.04L221.99,3028.45L224.422,3028.45L224.422,3031.04L226.515,3031.04L226.515,3032.78L224.422,3032.78Z" style="fill:rgb(35,31,32);fill-rule:nonzero;"/>
                        <path d="M232.014,3037.1C232.417,3037.55 232.932,3037.77 233.56,3037.77C234.188,3037.77 234.703,3037.55 235.106,3037.1C235.508,3036.66 235.71,3036.08 235.71,3035.37C235.71,3034.66 235.508,3034.08 235.106,3033.63C234.703,3033.18 234.188,3032.95 233.56,3032.95C232.932,3032.95 232.417,3033.18 232.014,3033.63C231.612,3034.08 231.41,3034.66 231.41,3035.37C231.41,3036.08 231.612,3036.66 232.014,3037.1ZM236.837,3038.54C235.967,3039.4 234.875,3039.83 233.56,3039.83C232.245,3039.83 231.153,3039.4 230.283,3038.54C229.414,3037.68 228.979,3036.62 228.979,3035.37C228.979,3034.11 229.414,3033.05 230.283,3032.19C231.153,3031.33 232.245,3030.89 233.56,3030.89C234.875,3030.89 235.967,3031.33 236.837,3032.19C237.706,3033.05 238.141,3034.11 238.141,3035.37C238.141,3036.62 237.706,3037.68 236.837,3038.54Z" style="fill:rgb(35,31,32);fill-rule:nonzero;"/>
                        <path d="M245.735,3033.16C245.016,3033.16 244.479,3033.42 244.125,3033.93C243.771,3034.44 243.594,3035.11 243.594,3035.95L243.594,3039.7L241.178,3039.7L241.178,3031.04L243.594,3031.04L243.594,3032.18C243.905,3031.83 244.294,3031.53 244.761,3031.28C245.228,3031.03 245.703,3030.9 246.186,3030.89L246.202,3033.16L245.735,3033.16Z" style="fill:rgb(35,31,32);fill-rule:nonzero;"/>
                        <path d="M163.14,3067.54C164.374,3067.54 165.383,3067.05 166.167,3066.08L167.777,3067.74C166.5,3069.17 164.994,3069.89 163.26,3069.89C161.527,3069.89 160.099,3069.35 158.977,3068.25C157.855,3067.16 157.294,3065.77 157.294,3064.1C157.294,3062.43 157.866,3061.04 159.009,3059.93C160.153,3058.81 161.551,3058.25 163.204,3058.25C165.05,3058.25 166.596,3058.95 167.841,3060.36L166.28,3062.13C165.485,3061.14 164.497,3060.65 163.317,3060.65C162.372,3060.65 161.564,3060.96 160.893,3061.58C160.222,3062.19 159.887,3063.03 159.887,3064.07C159.887,3065.12 160.203,3065.96 160.837,3066.59C161.47,3067.22 162.238,3067.54 163.14,3067.54Z" style="fill:rgb(35,31,32);fill-rule:nonzero;"/>
                        <rect x="170.266" y="3057.82" width="2.415" height="11.948" style="fill:rgb(35,31,32);fill-rule:nonzero;"/>
                        <path d="M179.404,3067.16C179.807,3067.61 180.322,3067.83 180.95,3067.83C181.578,3067.83 182.093,3067.61 182.496,3067.16C182.898,3066.72 183.1,3066.14 183.1,3065.43C183.1,3064.72 182.898,3064.14 182.496,3063.69C182.093,3063.24 181.578,3063.02 180.95,3063.02C180.322,3063.02 179.807,3063.24 179.404,3063.69C179.002,3064.14 178.8,3064.72 178.8,3065.43C178.8,3066.14 179.002,3066.72 179.404,3067.16ZM184.227,3068.61C183.357,3069.46 182.265,3069.89 180.95,3069.89C179.635,3069.89 178.543,3069.46 177.673,3068.61C176.804,3067.75 176.369,3066.69 176.369,3065.43C176.369,3064.18 176.804,3063.12 177.673,3062.25C178.543,3061.39 179.635,3060.96 180.95,3060.96C182.265,3060.96 183.357,3061.39 184.227,3062.25C185.096,3063.12 185.531,3064.18 185.531,3065.43C185.531,3066.69 185.096,3067.75 184.227,3068.61Z" style="fill:rgb(35,31,32);fill-rule:nonzero;"/>
                        <path d="M194.106,3065.77L194.106,3061.1L196.538,3061.1L196.538,3069.76L194.106,3069.76L194.106,3068.62C193.505,3069.47 192.729,3069.89 191.779,3069.89C190.829,3069.89 190.032,3069.6 189.388,3069C188.744,3068.4 188.422,3067.52 188.422,3066.35L188.422,3061.1L190.853,3061.1L190.853,3065.82C190.853,3067.15 191.342,3067.82 192.319,3067.82C192.802,3067.82 193.22,3067.64 193.575,3067.29C193.929,3066.94 194.106,3066.44 194.106,3065.77Z" style="fill:rgb(35,31,32);fill-rule:nonzero;"/>
                        <path d="M201.349,3068.59C200.544,3067.72 200.141,3066.64 200.141,3065.35C200.141,3064.06 200.533,3063.01 201.317,3062.19C202.1,3061.37 203.018,3060.96 204.07,3060.96C205.122,3060.96 205.981,3061.33 206.646,3062.07L206.646,3057.82L209.062,3057.82L209.062,3069.76L206.646,3069.76L206.646,3068.62C205.97,3069.47 205.119,3069.89 204.094,3069.89C203.069,3069.89 202.154,3069.46 201.349,3068.59ZM203.201,3067.16C203.619,3067.61 204.108,3067.83 204.666,3067.83C205.224,3067.83 205.699,3067.61 206.091,3067.16C206.483,3066.72 206.679,3066.14 206.679,3065.44C206.679,3064.74 206.483,3064.15 206.091,3063.68C205.699,3063.22 205.219,3062.99 204.65,3062.99C204.081,3062.99 203.592,3063.22 203.184,3063.69C202.777,3064.17 202.573,3064.75 202.573,3065.45C202.573,3066.15 202.782,3066.72 203.201,3067.16Z" style="fill:rgb(35,31,32);fill-rule:nonzero;"/>
                        <path d="M221.067,3060.76C220.825,3060.95 220.704,3061.22 220.704,3061.54C220.704,3061.87 220.852,3062.13 221.147,3062.33C221.442,3062.52 222.124,3062.75 223.192,3063.01C224.26,3063.27 225.089,3063.67 225.68,3064.19C226.27,3064.72 226.566,3065.49 226.566,3066.49C226.566,3067.5 226.187,3068.32 225.43,3068.95C224.673,3069.58 223.678,3069.89 222.443,3069.89C220.661,3069.89 219.056,3069.23 217.629,3067.91L219.126,3066.08C220.339,3067.14 221.461,3067.67 222.492,3067.67C222.953,3067.67 223.315,3067.57 223.578,3067.37C223.842,3067.17 223.973,3066.91 223.973,3066.57C223.973,3066.23 223.833,3065.96 223.554,3065.76C223.275,3065.56 222.722,3065.36 221.896,3065.16C220.586,3064.85 219.628,3064.44 219.021,3063.94C218.415,3063.44 218.112,3062.66 218.112,3061.59C218.112,3060.52 218.495,3059.7 219.263,3059.12C220.031,3058.54 220.989,3058.25 222.137,3058.25C222.889,3058.25 223.64,3058.38 224.392,3058.64C225.143,3058.89 225.798,3059.26 226.356,3059.73L225.084,3061.57C224.107,3060.83 223.098,3060.46 222.057,3060.46C221.638,3060.46 221.308,3060.56 221.067,3060.76Z" style="fill:rgb(35,31,32);fill-rule:nonzero;"/>
                        <path d="M237.569,3068.51C236.592,3069.43 235.447,3069.89 234.131,3069.89C232.816,3069.89 231.73,3069.49 230.871,3068.68C230.012,3067.87 229.583,3066.78 229.583,3065.42C229.583,3064.05 230.02,3062.97 230.895,3062.16C231.77,3061.36 232.803,3060.96 233.995,3060.96C235.186,3060.96 236.198,3061.32 237.03,3062.03C237.862,3062.75 238.278,3063.74 238.278,3065L238.278,3066.29L231.966,3066.29C232.041,3066.76 232.288,3067.14 232.706,3067.45C233.125,3067.75 233.597,3067.9 234.123,3067.9C234.971,3067.9 235.669,3067.61 236.217,3067.04L237.569,3068.51ZM235.251,3063.37C234.918,3063.09 234.513,3062.95 234.035,3062.95C233.557,3062.95 233.12,3063.1 232.723,3063.39C232.325,3063.68 232.095,3064.07 232.03,3064.56L235.83,3064.56C235.777,3064.05 235.583,3063.65 235.251,3063.37Z" style="fill:rgb(35,31,32);fill-rule:nonzero;"/>
                        <path d="M245.774,3063.23C245.055,3063.23 244.518,3063.48 244.164,3063.99C243.809,3064.5 243.632,3065.18 243.632,3066.01L243.632,3069.76L241.217,3069.76L241.217,3061.1L243.632,3061.1L243.632,3062.24C243.944,3061.89 244.333,3061.59 244.8,3061.34C245.267,3061.1 245.742,3060.97 246.225,3060.96L246.241,3063.23L245.774,3063.23Z" style="fill:rgb(35,31,32);fill-rule:nonzero;"/>
                        <path d="M251.87,3069.76L248.44,3061.09L250.952,3061.09L253.11,3066.54L255.268,3061.09L257.78,3061.09L254.35,3069.76L251.87,3069.76Z" style="fill:rgb(35,31,32);fill-rule:nonzero;"/>
                        <path d="M262.487,3069.76L260.071,3069.76L260.071,3061.1L262.487,3061.1L262.487,3069.76ZM259.862,3058.99C259.862,3058.59 259.999,3058.26 260.272,3057.99C260.546,3057.71 260.882,3057.57 261.279,3057.57C261.676,3057.57 262.011,3057.71 262.285,3057.99C262.559,3058.26 262.696,3058.59 262.696,3058.99C262.696,3059.39 262.559,3059.72 262.285,3060C262.011,3060.27 261.676,3060.41 261.279,3060.41C260.882,3060.41 260.546,3060.27 260.272,3060C259.999,3059.72 259.862,3059.39 259.862,3058.99Z" style="fill:rgb(35,31,32);fill-rule:nonzero;"/>
                        <path d="M270.628,3067.75C271.433,3067.75 272.157,3067.35 272.801,3066.54L274.234,3068.15C273.118,3069.31 271.91,3069.89 270.611,3069.89C269.312,3069.89 268.215,3069.48 267.318,3068.66C266.422,3067.84 265.974,3066.77 265.974,3065.44C265.974,3064.12 266.427,3063.04 267.335,3062.2C268.242,3061.37 269.318,3060.96 270.563,3060.96C271.186,3060.96 271.816,3061.09 272.455,3061.34C273.094,3061.6 273.655,3061.98 274.138,3062.49L272.882,3064.13C272.603,3063.8 272.262,3063.54 271.859,3063.36C271.457,3063.17 271.057,3063.08 270.66,3063.08C270.026,3063.08 269.482,3063.29 269.025,3063.7C268.569,3064.12 268.341,3064.69 268.341,3065.42C268.341,3066.16 268.569,3066.73 269.025,3067.14C269.482,3067.55 270.016,3067.75 270.628,3067.75Z" style="fill:rgb(35,31,32);fill-rule:nonzero;"/>
                        <path d="M284.448,3068.51C283.472,3069.43 282.326,3069.89 281.011,3069.89C279.696,3069.89 278.609,3069.49 277.75,3068.68C276.891,3067.87 276.462,3066.78 276.462,3065.42C276.462,3064.05 276.899,3062.97 277.774,3062.16C278.649,3061.36 279.682,3060.96 280.874,3060.96C282.065,3060.96 283.077,3061.32 283.909,3062.03C284.741,3062.75 285.157,3063.74 285.157,3065L285.157,3066.29L278.845,3066.29C278.92,3066.76 279.167,3067.14 279.586,3067.45C280.004,3067.75 280.477,3067.9 281.003,3067.9C281.851,3067.9 282.548,3067.61 283.096,3067.04L284.448,3068.51ZM282.13,3063.37C281.797,3063.09 281.392,3062.95 280.914,3062.95C280.436,3062.95 279.999,3063.1 279.602,3063.39C279.204,3063.68 278.974,3064.07 278.909,3064.56L282.709,3064.56C282.656,3064.05 282.463,3063.65 282.13,3063.37Z" style="fill:rgb(35,31,32);fill-rule:nonzero;"/>
                        <path d="M293.676,3069.12C293.048,3069.64 292.251,3069.89 291.284,3069.89C290.64,3069.89 289.969,3069.78 289.272,3069.55C288.574,3069.32 287.946,3068.97 287.388,3068.52L288.45,3067.01C289.352,3067.71 290.313,3068.06 291.333,3068.06C291.644,3068.06 291.891,3067.99 292.073,3067.87C292.256,3067.75 292.347,3067.59 292.347,3067.38C292.347,3067.18 292.221,3066.99 291.969,3066.82C291.716,3066.65 291.351,3066.49 290.874,3066.33C290.396,3066.18 290.031,3066.06 289.779,3065.95C289.527,3065.84 289.239,3065.68 288.917,3065.48C288.262,3065.07 287.935,3064.47 287.935,3063.67C287.935,3062.87 288.257,3062.22 288.901,3061.71C289.545,3061.21 290.377,3060.96 291.397,3060.96C292.417,3060.96 293.437,3061.3 294.457,3061.99L293.555,3063.6C292.803,3063.08 292.055,3062.82 291.309,3062.82C290.562,3062.82 290.189,3063.03 290.189,3063.44C290.189,3063.66 290.307,3063.84 290.544,3063.97C290.78,3064.1 291.172,3064.25 291.719,3064.42C292.267,3064.59 292.656,3064.72 292.887,3064.81C293.117,3064.9 293.394,3065.05 293.716,3065.24C294.317,3065.6 294.618,3066.21 294.618,3067.07C294.618,3067.92 294.304,3068.61 293.676,3069.12Z" style="fill:rgb(35,31,32);fill-rule:nonzero;"/>
                    </g>
                </g>
                <g>
                    <path d="M55.079,3115.73L55.079,3131.72C55.079,3135.08 56.759,3137 59.999,3137C63.239,3137 64.919,3135.08 64.919,3131.72L64.919,3115.73L61.799,3115.73L61.799,3131.93C61.799,3133.43 61.139,3133.97 60.089,3133.97C59.039,3133.97 58.379,3133.43 58.379,3131.93L58.379,3115.73L55.079,3115.73Z" style="fill-rule:nonzero;"/>
                    <path d="M68.249,3120.77C68.249,3126.77 74.699,3127.58 74.699,3131.9C74.699,3133.4 74.039,3133.94 72.989,3133.94C71.939,3133.94 71.279,3133.4 71.279,3131.9L71.279,3130.4L68.159,3130.4L68.159,3131.69C68.159,3135.05 69.839,3136.97 73.079,3136.97C76.319,3136.97 77.999,3135.05 77.999,3131.69C77.999,3125.69 71.549,3124.88 71.549,3120.56C71.549,3119.06 72.149,3118.49 73.199,3118.49C74.249,3118.49 74.849,3119.06 74.849,3120.56L74.849,3121.43L77.969,3121.43L77.969,3120.77C77.969,3117.41 76.319,3115.49 73.109,3115.49C69.899,3115.49 68.249,3117.41 68.249,3120.77Z" style="fill-rule:nonzero;"/>
                    <path d="M84.689,3118.73L90.389,3118.73L90.389,3115.73L81.389,3115.73L81.389,3136.73L90.389,3136.73L90.389,3133.73L84.689,3133.73L84.689,3127.58L89.219,3127.58L89.219,3124.58L84.689,3124.58L84.689,3118.73Z" style="fill-rule:nonzero;"/>
                    <path d="M104.189,3136.73C103.859,3135.95 103.829,3135.2 103.829,3134.18L103.829,3130.94C103.829,3128.75 103.289,3127.16 101.639,3126.47C103.109,3125.78 103.799,3124.37 103.799,3122.21L103.799,3120.56C103.799,3117.32 102.329,3115.73 98.909,3115.73L93.929,3115.73L93.929,3136.73L97.229,3136.73L97.229,3128.18L98.369,3128.18C99.869,3128.18 100.529,3128.9 100.529,3130.85L100.529,3134.15C100.529,3135.86 100.649,3136.19 100.829,3136.73L104.189,3136.73ZM98.819,3118.73C99.989,3118.73 100.499,3119.39 100.499,3120.89L100.499,3122.96C100.499,3124.64 99.749,3125.18 98.519,3125.18L97.229,3125.18L97.229,3118.73L98.819,3118.73Z" style="fill-rule:nonzero;"/>
                    <path d="M107.069,3120.77C107.069,3126.77 113.519,3127.58 113.519,3131.9C113.519,3133.4 112.859,3133.94 111.809,3133.94C110.759,3133.94 110.099,3133.4 110.099,3131.9L110.099,3130.4L106.979,3130.4L106.979,3131.69C106.979,3135.05 108.659,3136.97 111.899,3136.97C115.139,3136.97 116.819,3135.05 116.819,3131.69C116.819,3125.69 110.369,3124.88 110.369,3120.56C110.369,3119.06 110.969,3118.49 112.019,3118.49C113.069,3118.49 113.669,3119.06 113.669,3120.56L113.669,3121.43L116.789,3121.43L116.789,3120.77C116.789,3117.41 115.139,3115.49 111.929,3115.49C108.719,3115.49 107.069,3117.41 107.069,3120.77Z" style="fill-rule:nonzero;"/>
                    <g>
                        <path d="M337.608,3136.42L174.089,3136.42L174.089,3119.42L320.608,3119.42L320.608,2623.14L284.134,2623.14L284.134,2606.14L337.608,2606.14L337.608,3136.42Z"/>
                        <path d="M178.242,3096.94L178.242,3158.89L147.271,3127.92L178.242,3096.94Z" style="fill-rule:nonzero;"/>
                    </g>
                </g>
            </g>
        </g>
    </g>
</svg>
