<svg viewBox="0 0 5698 5709" version="1.1" xmlns="http://www.w3.org/2000/svg" xmlns:xlink="http://www.w3.org/1999/xlink" xml:space="preserve" style="fill-rule: evenodd; clip-rule: evenodd; stroke-linecap: round; stroke-miterlimit: 10; opacity: 0.75;">
  <g transform="matrix(1,0,0,1,130.837,-11457.7)">
    <g transform="matrix(2,0,0,2,0,0)">
      <path class="burst" d="M54.395,7156L2743.18,7156" style="fill: none; stroke: rgb(27, 27, 26); stroke-width: 1.76px; stroke-dasharray: 36.03px, 36.03px, 18.02px, 9.01px, 9.01px, 27.02px; stroke-dashoffset: 0px;" stroke-dasharray="2688.784912109375"></path>
      <path d="M2756.69,7156L2774.32,7156M-40.771,7402.29L-32.089,7400.76" style="fill:none;stroke:rgb(27,27,26);stroke-width:1.76px;"></path>
      <path d="M46.729,7386.86L2733.58,6913.1" style="fill:none;stroke:rgb(27,27,26);stroke-width:1.76px;stroke-dasharray:17.79,26.68,5.34,17.79,8.89,21.34;"></path>
      <path d="M2744.08,6911.24L2752.78,6909.71M23.216,7641.1L39.784,7635.06" style="fill:none;stroke:rgb(27,27,26);stroke-width:1.76px;"></path>
      <path d="M132.891,7601.17L2659.51,6681.56" style="fill:none;stroke:rgb(27,27,26);stroke-width:1.76px;stroke-dasharray:36.03,36.03,18.02,9.01,9.01,27.02;"></path>
      <path d="M2672.22,6676.94L2688.78,6670.91M127.7,7865.16L135.334,7860.75" style="fill:none;stroke:rgb(27,27,26);stroke-width:1.76px;"></path>
      <path d="M201.776,7822.39L2575.12,6452.14" style="fill:none;stroke:rgb(27,27,26);stroke-width:1.76px;stroke-dasharray:17.84,12.49,21.41,17.84,21.41,3.57;"></path>
      <path class="burst" d="M2576.67,6451.25L2584.3,6446.84M269.505,8067.67L270.855,8066.54" style="fill: none; stroke: rgb(27, 27, 26); stroke-width: 1.76px; stroke-dashoffset: 0px;" stroke-dasharray="10.573404312133789"></path>
      <path d="M323.855,8022.07L2439.79,6246.6" style="fill:none;stroke:rgb(27,27,26);stroke-width:1.76px;stroke-dasharray:3.55,10.64,8.87,35.48,10.64,3.55;"></path>
      <path d="M2441.15,6245.46L2442.49,6244.32M444.322,8242.49L445.454,8241.15" style="fill:none;stroke:rgb(27,27,26);stroke-width:1.76px;"></path>
      <path d="M519.16,8153.3L2263.71,6074.24" style="fill:none;stroke:rgb(27,27,26);stroke-width:1.76px;stroke-dasharray:3.53,35.28,8.82,35.28,26.46,8.82;"></path>
      <path class="burst" d="M2266.55,6070.86L2267.67,6069.51M646.841,8384.31L652.129,8375.14" style="fill: none; stroke: rgb(27, 27, 26); stroke-width: 1.76px; stroke-dashoffset: 0px;" stroke-dasharray="12.339502334594727"></path>
      <path d="M685.817,8316.8L2058.99,5938.4" style="fill:none;stroke:rgb(27,27,26);stroke-width:1.76px;stroke-dasharray:21.28,17.73,10.64,8.86,26.59,3.55;"></path>
      <path d="M2059.87,5936.86L2065.16,5927.7M870.906,8488.78L871.51,8487.12" style="fill:none;stroke:rgb(27,27,26);stroke-width:1.76px;"></path>
      <path d="M895.173,8422.12L1839.88,5826.54" style="fill:none;stroke:rgb(27,27,26);stroke-width:1.76px;stroke-dasharray:3.55,10.64,8.87,35.48,10.64,3.55;"></path>
      <path class="burst" d="M1840.49,5824.87L1841.1,5823.22M1109.71,8552.78L1112.16,8538.88" style="fill: none; stroke: rgb(27, 27, 26); stroke-width: 1.76px; stroke-dashoffset: 0px;" stroke-dasharray="15.873714447021484"></path>
      <path d="M1124.21,8470.57L1599.22,5776.62" style="fill:none;stroke:rgb(27,27,26);stroke-width:1.76px;stroke-dasharray:28.46,14.23,14.23,12.45,21.34,7.11;"></path>
      <path d="M1599.84,5773.12L1602.29,5759.23M1356,8574.32L1356,8563.74" style="fill:none;stroke:rgb(27,27,26);stroke-width:1.76px;"></path>
      <path d="M1356,8496.36L1356,5750.03" style="fill:none;stroke:rgb(27,27,26);stroke-width:1.76px;stroke-dasharray:21.28,17.73,10.64,8.86,26.59,3.55;"></path>
      <path class="burst" d="M1356,5748.26L1356,5737.68M1602.29,8552.78L1600.45,8542.36" style="fill: none; stroke: rgb(27, 27, 26); stroke-width: 1.76px; stroke-dashoffset: 0px;" stroke-dasharray="21.160737991333008"></path>
      <path d="M1588.75,8476L1111.86,5771.39" style="fill:none;stroke:rgb(27,27,26);stroke-width:1.76px;stroke-dasharray:21.28,17.73,10.64,8.86,26.59,3.55;"></path>
      <path d="M1111.55,5769.65L1109.71,5759.23M1841.1,8488.78L1835.06,8472.23" style="fill:none;stroke:rgb(27,27,26);stroke-width:1.76px;"></path>
      <path class="burst" d="M1801.17,8379.1L881.557,5852.48" style="fill: none; stroke: rgb(27, 27, 26); stroke-width: 1.76px; stroke-dasharray: 36.03px, 36.03px, 18.02px, 9.01px, 9.01px, 27.02px; stroke-dashoffset: 0px;" stroke-dasharray="2688.77197265625"></path>
      <path d="M876.936,5839.78L870.906,5823.22M2065.16,8384.31L2060.75,8376.67" style="fill:none;stroke:rgb(27,27,26);stroke-width:1.76px;"></path>
      <path d="M2020.73,8307.35L656.582,5944.58" style="fill:none;stroke:rgb(27,27,26);stroke-width:1.76px;stroke-dasharray:17.79,26.68,5.34,17.79,8.89,21.34;"></path>
      <path class="burst" d="M651.248,5935.34L646.84,5927.7M2267.67,8242.49L2266.54,8241.15" style="fill: none; stroke: rgb(27, 27, 26); stroke-width: 1.76px; stroke-dashoffset: 0px;" stroke-dasharray="10.572769165039062"></path>
      <path d="M2222.07,8188.14L446.597,6072.21" style="fill:none;stroke:rgb(27,27,26);stroke-width:1.76px;stroke-dasharray:3.55,10.64,8.87,35.48,10.64,3.55;"></path>
      <path d="M445.455,6070.86L444.321,6069.51M2442.49,8067.67L2431.68,8058.61" style="fill:none;stroke:rgb(27,27,26);stroke-width:1.76px;"></path>
      <path d="M2378.55,8014.03L283.033,6255.68" style="fill:none;stroke:rgb(27,27,26);stroke-width:1.76px;stroke-dasharray:28.46,14.23,14.23,12.45,21.34,7.11;"></path>
      <path class="burst" d="M280.31,6253.39L269.504,6244.32M2584.3,7865.16L2582.77,7864.28" style="fill: none; stroke: rgb(27, 27, 26); stroke-width: 1.76px; stroke-dashoffset: 0px;" stroke-dasharray="15.873392105102539"></path>
      <path d="M2522.85,7829.69L130.763,6448.61" style="fill:none;stroke:rgb(27,27,26);stroke-width:1.76px;stroke-dasharray:3.55,10.64,8.87,35.48,10.64,3.55;"></path>
      <path d="M129.228,6447.72L127.702,6446.84M2688.78,7641.1L2680.49,7638.09" style="fill:none;stroke:rgb(27,27,26);stroke-width:1.76px;"></path>
      <path class="burst" d="M2605.28,7610.71L41.528,6677.57" style="fill: none; stroke: rgb(27, 27, 26); stroke-width: 1.76px; stroke-dasharray: 17.79px, 26.68px, 5.34px, 17.79px, 8.89px, 21.34px; stroke-dashoffset: 0px;" stroke-dasharray="2728.29150390625"></path>
      <path d="M31.5,6673.92L23.216,6670.91M2752.78,7402.29L2751.03,7401.98" style="fill:none;stroke:rgb(27,27,26);stroke-width:1.76px;"></path>
      <path d="M2682.91,7389.97L-37.288,6910.32" style="fill:none;stroke:rgb(27,27,26);stroke-width:1.76px;stroke-dasharray:3.55,10.64,8.87,35.48,10.64,3.55;"></path>
      <path class="burst" d="M27.964,7043.6L2758.7,7274.72" style="fill: none; stroke: rgb(27, 27, 26); stroke-width: 1.76px; stroke-dasharray: 17.84px, 12.49px, 21.41px, 17.84px, 21.41px, 3.57px; stroke-dashoffset: 0px;" stroke-dasharray="2740.4990234375"></path>
      <path d="M2760.48,7274.87L2769.26,7275.61M-56.565,7283.61L-46.031,7282.66" style="fill:none;stroke:rgb(27,27,26);stroke-width:1.76px;"></path>
      <path d="M21.069,7276.6L2756.26,7029.5" style="fill:none;stroke:rgb(27,27,26);stroke-width:1.76px;stroke-dasharray:21.28,17.73,10.64,8.86,26.59,3.55;"></path>
      <path class="burst" d="M2758.03,7029.34L2768.57,7028.39M-12.945,7526.97L-2.735,7524.2" style="fill: none; stroke: rgb(27, 27, 26); stroke-width: 1.76px; stroke-dashoffset: 0px;" stroke-dasharray="21.161827087402344"></path>
      <path d="M86.249,7500.08L2701.89,6791.28" style="fill:none;stroke:rgb(27,27,26);stroke-width:1.76px;stroke-dasharray:21.28,10.64,10.64,17.73,26.59,26.59;"></path>
      <path d="M2714.73,6787.8L2724.94,6785.04M72.27,7759.05L73.864,7758.29" style="fill:none;stroke:rgb(27,27,26);stroke-width:1.76px;"></path>
      <path class="burst" d="M105.798,7743.3L173.656,7711.41" style="fill: none; stroke: rgb(27, 27, 26); stroke-width: 1.76px; stroke-dasharray: 8.82px, 35.28px, 26.46px, 8.82px; stroke-dashoffset: 0px;" stroke-dasharray="74.97772216796875"></path>
      <path d="M177.65,7709.54L2634.14,6555.58" style="fill:none;stroke:rgb(27,27,26);stroke-width:1.76px;stroke-dasharray:3.53,35.28,8.82,35.28,26.46,8.82;"></path>
      <path d="M2638.13,6553.71L2639.73,6552.96M196.488,7972.81L203.696,7967.73" style="fill:none;stroke:rgb(27,27,26);stroke-width:1.76px;"></path>
      <path class="burst" d="M269.126,7921.63L2499.58,6350.42" style="fill: none; stroke: rgb(27, 27, 26); stroke-width: 1.76px; stroke-dasharray: 17.79px, 26.68px, 5.34px, 17.79px, 8.89px, 21.34px; stroke-dashoffset: 0px;" stroke-dasharray="2728.301025390625"></path>
      <path d="M2508.3,6344.28L2515.51,6339.2M355.94,8161.75L365.884,8151.73" style="fill:none;stroke:rgb(27,27,26);stroke-width:1.76px;"></path>
      <path d="M432.97,8084.26L2343.62,6162.76" style="fill:none;stroke:rgb(27,27,26);stroke-width:1.76px;stroke-dasharray:28.19,26.43,14.1,12.33,35.24,7.05;"></path>
      <path class="burst" d="M2346.11,6160.26L2356.05,6150.26M545.778,8320.12L551.822,8311.44" style="fill: none; stroke: rgb(27, 27, 26); stroke-width: 1.76px; stroke-dashoffset: 0px;" stroke-dasharray="24.676450729370117"></path>
      <path d="M590.307,8256.14L2159.16,6002.02" style="fill:none;stroke:rgb(27,27,26);stroke-width:1.76px;stroke-dasharray:21.28,17.73,10.64,8.86,26.59,3.55;"></path>
      <path d="M2160.18,6000.57L2166.21,5991.88M760.234,8443.12L764.676,8433.53" style="fill:none;stroke:rgb(27,27,26);stroke-width:1.76px;"></path>
      <path class="burst" d="M803.404,8349.86L1941.73,5890.54" style="fill: none; stroke: rgb(27, 27, 26); stroke-width: 1.76px; stroke-dasharray: 21.28px, 10.64px, 10.64px, 17.73px, 26.59px, 26.59px; stroke-dashoffset: 0px;" stroke-dasharray="2709.989501953125"></path>
      <path d="M1947.32,5878.48L1951.76,5868.88M992.792,8527.02L995.05,8518.5" style="fill:none;stroke:rgb(27,27,26);stroke-width:1.76px;"></path>
      <path d="M1014.7,8444.33L1716.49,5795.22" style="fill:none;stroke:rgb(27,27,26);stroke-width:1.76px;stroke-dasharray:17.84,12.49,21.41,17.84,21.41,3.57;"></path>
      <path class="burst" d="M1716.95,5793.5L1719.21,5784.98M1236.38,8569.26L1236.54,8567.51" style="fill: none; stroke: rgb(27, 27, 26); stroke-width: 1.76px; stroke-dashoffset: 0px;" stroke-dasharray="10.57197093963623"></path>
      <path d="M1246.2,8453.26L1475.09,5748.89" style="fill:none;stroke:rgb(27,27,26);stroke-width:1.76px;stroke-dasharray:3.53,35.28,8.82,35.28,26.46,8.82;"></path>
      <path d="M1475.46,5744.49L1475.62,5742.73M1483.61,8568.57L1482.66,8558.03" style="fill:none;stroke:rgb(27,27,26);stroke-width:1.76px;"></path>
      <path class="burst" d="M1476.6,8490.93L1229.5,5755.74" style="fill: none; stroke: rgb(27, 27, 26); stroke-width: 1.76px; stroke-dasharray: 21.28px, 17.73px, 10.64px, 8.86px, 26.59px, 3.55px; stroke-dashoffset: 0px;" stroke-dasharray="2746.328369140625"></path>
      <path d="M1229.34,5753.97L1228.39,5743.44M1726.97,8524.94L1726.51,8523.25" style="fill:none;stroke:rgb(27,27,26);stroke-width:1.76px;"></path>
      <path d="M1696.51,8412.57L986.651,5793.01" style="fill:none;stroke:rgb(27,27,26);stroke-width:1.76px;stroke-dasharray:3.53,35.28,8.82,35.28,26.46,8.82;"></path>
      <path class="burst" d="M985.497,5788.76L985.035,5787.05M1959.05,8439.73L1955.29,8431.75" style="fill: none; stroke: rgb(27, 27, 26); stroke-width: 1.76px; stroke-dashoffset: 0px;" stroke-dasharray="10.593162536621094"></path>
      <path d="M1922.67,8362.32L757.463,5881.86" style="fill:none;stroke:rgb(27,27,26);stroke-width:1.76px;stroke-dasharray:17.84,12.49,21.41,17.84,21.41,3.57;"></path>
      <path d="M756.705,5880.25L752.957,5872.27M2172.81,8315.51L2166.71,8306.86" style="fill:none;stroke:rgb(27,27,26);stroke-width:1.76px;"></path>
      <path class="burst" d="M2113.61,8231.49L552.95,6016.01" style="fill: none; stroke: rgb(27, 27, 26); stroke-width: 1.76px; stroke-dasharray: 21.28px, 10.64px, 10.64px, 17.73px, 26.59px, 26.59px; stroke-dashoffset: 0px;" stroke-dasharray="2709.984130859375"></path>
      <path d="M545.291,6005.14L539.199,5996.49M2361.74,8156.05L2360.49,8154.82" style="fill:none;stroke:rgb(27,27,26);stroke-width:1.76px;"></path>
      <path d="M2279.18,8073.97L354.639,6160.29" style="fill:none;stroke:rgb(27,27,26);stroke-width:1.76px;stroke-dasharray:3.53,35.28,8.82,35.28,26.46,8.82;"></path>
      <path d="M351.513,6157.18L350.263,6155.94M2520.12,7966.21L2511.44,7960.19" style="fill:none;stroke:rgb(27,27,26);stroke-width:1.76px;"></path>
      <path class="burst" d="M2456.14,7921.7L202.022,6352.83" style="fill: none; stroke: rgb(27, 27, 26); stroke-width: 1.76px; stroke-dasharray: 21.28px, 17.73px, 10.64px, 8.86px, 26.59px, 3.55px; stroke-dashoffset: 0px;" stroke-dasharray="2746.34326171875"></path>
      <path d="M200.565,6351.82L191.885,6345.78M2643.12,7751.77L2633.53,7747.32" style="fill:none;stroke:rgb(27,27,26);stroke-width:1.76px;"></path>
      <path d="M2549.86,7708.59L90.542,6570.26" style="fill:none;stroke:rgb(27,27,26);stroke-width:1.76px;stroke-dasharray:21.28,10.64,10.64,17.73,26.59,26.59;"></path>
      <path class="burst" d="M78.475,6564.68L68.875,6560.24M2727.02,7519.21L2709.99,7514.7" style="fill: none; stroke: rgb(27, 27, 26); stroke-width: 1.76px; stroke-dashoffset: 0px;" stroke-dasharray="28.194042205810547"></path>
      <path d="M2614.2,7489.32L15.079,6800.77" style="fill:none;stroke:rgb(27,27,26);stroke-width:1.76px;stroke-dasharray:36.03,36.03,18.02,9.01,9.01,27.02;"></path>
      <path d="M2.018,6797.31L-15.024,6792.79M923.522,7156L1736.35,7156M992.792,7220.04L1769.9,7083.02M924.06,7313.21L1708.95,7027.54M921.968,7406.59L1695.59,6959.94M1069.15,7396.69L1652.29,6907.39M1064.63,7503.24L1580.64,6888.28M1133.07,7542.13L1534.59,6846.67M1220.2,7529.12L1485.48,6800.27M1293.98,7507.75L1418.02,6804.25M1356,7513.18L1356,6681.34M1418.02,7507.75L1290.69,6785.62M1478.16,7491.64L1233.84,6820.36M1568.41,7523.92L1162.22,6820.36M1607.85,7456.14L1057.51,6800.27M1687.29,7433.98L1050.32,6899.5M1665.33,7334.59L1031.86,6968.86M1691.64,7278.16L1011.25,7030.52M1771.25,7229.22L985.616,7090.69M1000.09,7125.88L1711.91,7186.12M883.598,7198.68L1711.73,7123.86M946.658,7266.93L1700.75,7062.58M1032.71,7307.87L1778.71,6957.43M1064,7361.7L1657.99,6943.27M1055.67,7458.03L1607.85,6902.72M1156.6,7442.49L1603.11,6800.95M1205.97,7480.14L1563.13,6708.5M1242.51,7584.39L1447.47,6810.73M1316.99,7616.93L1392.26,6727.61M1399.76,7640.42L1323.86,6800.27M1452.79,7513.18L1229.96,6690.88M1544.11,7556.43L1183.94,6789.72M1561.7,7448.01L1150.3,6864M1609.28,7407.85L1082.38,6883.93M1657.99,7366.19L1000.09,6908.29M1680.14,7306.03L1000.09,6991.26M1728.01,7254.55L977.036,7055.61" style="fill:none;stroke:rgb(27,27,26);stroke-width:1.76px;"></path>
    </g>
  </g>
</svg>