<?xml version="1.0" encoding="UTF-8" standalone="no"?>
<!DOCTYPE svg PUBLIC "-//W3C//DTD SVG 1.1//EN" "http://www.w3.org/Graphics/SVG/1.1/DTD/svg11.dtd">
<svg width="100%" height="100%" viewBox="0 0 815 3035" version="1.1" xmlns="http://www.w3.org/2000/svg" xmlns:xlink="http://www.w3.org/1999/xlink" xml:space="preserve" style="fill-rule:evenodd;clip-rule:evenodd;stroke-linejoin:round;stroke-miterlimit:1.41421;">
    <g transform="matrix(1,0,0,1,37.3172,-14016.2)">
        <g transform="matrix(2,0,0,2,0,0)">
            <g>
                <path d="M257.564,7858.88C257.564,7864.93 252.662,7869.83 246.616,7869.83C240.569,7869.83 235.663,7864.93 235.663,7858.88C235.663,7852.84 240.569,7847.93 246.616,7847.93C252.662,7847.93 257.564,7852.84 257.564,7858.88"/>
                <path d="M288.925,7858.88C288.925,7864.93 284.023,7869.83 277.975,7869.83C271.926,7869.83 267.028,7864.93 267.028,7858.88C267.028,7852.84 271.926,7847.93 277.975,7847.93C284.023,7847.93 288.925,7852.84 288.925,7858.88"/>
                <path d="M131.741,7858.88C131.741,7864.93 126.842,7869.83 120.794,7869.83C114.742,7869.83 109.844,7864.93 109.844,7858.88C109.844,7852.84 114.742,7847.93 120.794,7847.93C126.842,7847.93 131.741,7852.84 131.741,7858.88"/>
                <path d="M162.836,7858.88C162.836,7864.93 157.932,7869.83 151.888,7869.83C145.837,7869.83 140.936,7864.93 140.936,7858.88C140.936,7852.84 145.837,7847.93 151.888,7847.93C157.932,7847.93 162.836,7852.84 162.836,7858.88"/>
                <path d="M69.379,7858.88C69.379,7864.93 64.472,7869.83 58.426,7869.83C52.38,7869.83 47.476,7864.93 47.476,7858.88C47.476,7852.84 52.38,7847.93 58.426,7847.93C64.472,7847.93 69.379,7852.84 69.379,7858.88"/>
                <path d="M100.469,7858.88C100.469,7864.93 95.565,7869.83 89.516,7869.83C83.472,7869.83 78.569,7864.93 78.569,7858.88C78.569,7852.84 83.472,7847.93 89.516,7847.93C95.565,7847.93 100.469,7852.84 100.469,7858.88"/>
                <path d="M71.659,7891.23C71.659,7897.28 66.76,7902.17 60.709,7902.17C54.664,7902.17 49.762,7897.28 49.762,7891.23C49.762,7885.18 54.664,7880.28 60.709,7880.28C66.76,7880.28 71.659,7885.18 71.659,7891.23"/>
                <path d="M102.751,7891.23C102.751,7897.28 97.851,7902.17 91.8,7902.17C85.752,7902.17 80.856,7897.28 80.856,7891.23C80.856,7885.18 85.752,7880.28 91.8,7880.28C97.851,7880.28 102.751,7885.18 102.751,7891.23"/>
                <path d="M134.114,7891.23C134.114,7897.28 129.209,7902.17 123.163,7902.17C117.119,7902.17 112.211,7897.28 112.211,7891.23C112.211,7885.18 117.119,7880.28 123.163,7880.28C129.209,7880.28 134.114,7885.18 134.114,7891.23"/>
                <path d="M9.296,7891.23C9.296,7897.28 4.389,7902.17 -1.657,7902.17C-7.706,7902.17 -12.605,7897.28 -12.605,7891.23C-12.605,7885.18 -7.706,7880.28 -1.657,7880.28C4.389,7880.28 9.296,7885.18 9.296,7891.23"/>
                <path d="M71.659,7923.77C71.659,7929.82 66.76,7934.72 60.709,7934.72C54.664,7934.72 49.762,7929.82 49.762,7923.77C49.762,7917.73 54.664,7912.82 60.709,7912.82C66.76,7912.82 71.659,7917.73 71.659,7923.77"/>
                <path d="M9.296,7923.77C9.296,7929.82 4.389,7934.72 -1.657,7934.72C-7.706,7934.72 -12.605,7929.82 -12.605,7923.77C-12.605,7917.73 -7.706,7912.82 -1.657,7912.82C4.389,7912.82 9.296,7917.73 9.296,7923.77"/>
                <path d="M40.385,7923.77C40.385,7929.82 35.481,7934.72 29.438,7934.72C23.387,7934.72 18.488,7929.82 18.488,7923.77C18.488,7917.73 23.387,7912.82 29.438,7912.82C35.481,7912.82 40.385,7917.73 40.385,7923.77"/>
                <path d="M9.296,7953.49C9.296,7959.54 4.389,7964.44 -1.657,7964.44C-7.706,7964.44 -12.605,7959.54 -12.605,7953.49C-12.605,7947.45 -7.706,7942.54 -1.657,7942.54C4.389,7942.54 9.296,7947.45 9.296,7953.49"/>
                <path d="M226.469,7797.16C226.469,7803.21 221.572,7808.11 215.525,7808.11C209.476,7808.11 204.574,7803.21 204.574,7797.16C204.574,7791.11 209.476,7786.22 215.525,7786.22C221.572,7786.22 226.469,7791.11 226.469,7797.16"/>
                <path d="M226.469,7828.79C226.469,7834.84 221.572,7839.74 215.525,7839.74C209.476,7839.74 204.574,7834.84 204.574,7828.79C204.574,7822.75 209.476,7817.84 215.525,7817.84C221.572,7817.84 226.469,7822.75 226.469,7828.79"/>
                <path d="M257.564,7797.16C257.564,7803.21 252.662,7808.11 246.616,7808.11C240.569,7808.11 235.663,7803.21 235.663,7797.16C235.663,7791.11 240.569,7786.22 246.616,7786.22C252.662,7786.22 257.564,7791.11 257.564,7797.16"/>
                <path d="M257.564,7828.79C257.564,7834.84 252.662,7839.74 246.616,7839.74C240.569,7839.74 235.663,7834.84 235.663,7828.79C235.663,7822.75 240.569,7817.84 246.616,7817.84C252.662,7817.84 257.564,7822.75 257.564,7828.79"/>
                <path d="M288.925,7797.16C288.925,7803.21 284.023,7808.11 277.975,7808.11C271.926,7808.11 267.028,7803.21 267.028,7797.16C267.028,7791.11 271.926,7786.22 277.975,7786.22C284.023,7786.22 288.925,7791.11 288.925,7797.16"/>
                <path d="M288.925,7828.79C288.925,7834.84 284.023,7839.74 277.975,7839.74C271.926,7839.74 267.028,7834.84 267.028,7828.79C267.028,7822.75 271.926,7817.84 277.975,7817.84C284.023,7817.84 288.925,7822.75 288.925,7828.79"/>
                <path d="M320.557,7797.16C320.557,7803.21 315.653,7808.11 309.607,7808.11C303.564,7808.11 298.657,7803.21 298.657,7797.16C298.657,7791.11 303.564,7786.22 309.607,7786.22C315.653,7786.22 320.557,7791.11 320.557,7797.16"/>
                <path d="M320.557,7828.79C320.557,7834.84 315.653,7839.74 309.607,7839.74C303.564,7839.74 298.657,7834.84 298.657,7828.79C298.657,7822.75 303.564,7817.84 309.607,7817.84C315.653,7817.84 320.557,7822.75 320.557,7828.79"/>
                <path d="M351.646,7797.16C351.646,7803.21 346.745,7808.11 340.703,7808.11C334.657,7808.11 329.746,7803.21 329.746,7797.16C329.746,7791.11 334.657,7786.22 340.703,7786.22C346.745,7786.22 351.646,7791.11 351.646,7797.16"/>
                <path d="M131.741,7797.16C131.741,7803.21 126.842,7808.11 120.794,7808.11C114.742,7808.11 109.844,7803.21 109.844,7797.16C109.844,7791.11 114.742,7786.22 120.794,7786.22C126.842,7786.22 131.741,7791.11 131.741,7797.16"/>
                <path d="M131.741,7828.79C131.741,7834.84 126.842,7839.74 120.794,7839.74C114.742,7839.74 109.844,7834.84 109.844,7828.79C109.844,7822.75 114.742,7817.84 120.794,7817.84C126.842,7817.84 131.741,7822.75 131.741,7828.79"/>
                <path d="M162.836,7797.16C162.836,7803.21 157.932,7808.11 151.888,7808.11C145.837,7808.11 140.936,7803.21 140.936,7797.16C140.936,7791.11 145.837,7786.22 151.888,7786.22C157.932,7786.22 162.836,7791.11 162.836,7797.16"/>
                <path d="M131.741,7764.21C131.741,7770.26 126.842,7775.15 120.794,7775.15C114.742,7775.15 109.844,7770.26 109.844,7764.21C109.844,7758.16 114.742,7753.26 120.794,7753.26C126.842,7753.26 131.741,7758.16 131.741,7764.21"/>
                <path d="M162.836,7764.21C162.836,7770.26 157.932,7775.15 151.888,7775.15C145.837,7775.15 140.936,7770.26 140.936,7764.21C140.936,7758.16 145.837,7753.26 151.888,7753.26C157.932,7753.26 162.836,7758.16 162.836,7764.21"/>
                <path d="M162.836,7828.79C162.836,7834.84 157.932,7839.74 151.888,7839.74C145.837,7839.74 140.936,7834.84 140.936,7828.79C140.936,7822.75 145.837,7817.84 151.888,7817.84C157.932,7817.84 162.836,7822.75 162.836,7828.79"/>
                <path d="M194.192,7797.16C194.192,7803.21 189.293,7808.11 183.244,7808.11C177.202,7808.11 172.298,7803.21 172.298,7797.16C172.298,7791.11 177.202,7786.22 183.244,7786.22C189.293,7786.22 194.192,7791.11 194.192,7797.16"/>
                <path d="M194.192,7828.79C194.192,7834.84 189.293,7839.74 183.244,7839.74C177.202,7839.74 172.298,7834.84 172.298,7828.79C172.298,7822.75 177.202,7817.84 183.244,7817.84C189.293,7817.84 194.192,7822.75 194.192,7828.79"/>
                <path d="M37.74,7797.16C37.74,7803.21 32.844,7808.11 26.796,7808.11C20.745,7808.11 15.846,7803.21 15.846,7797.16C15.846,7791.11 20.745,7786.22 26.796,7786.22C32.844,7786.22 37.74,7791.11 37.74,7797.16"/>
                <path d="M37.74,7828.79C37.74,7834.84 32.844,7839.74 26.796,7839.74C20.745,7839.74 15.846,7834.84 15.846,7828.79C15.846,7822.75 20.745,7817.84 26.796,7817.84C32.844,7817.84 37.74,7822.75 37.74,7828.79"/>
                <path d="M100.469,7797.16C100.469,7803.21 95.565,7808.11 89.516,7808.11C83.472,7808.11 78.569,7803.21 78.569,7797.16C78.569,7791.11 83.472,7786.22 89.516,7786.22C95.565,7786.22 100.469,7791.11 100.469,7797.16"/>
                <path d="M100.469,7828.79C100.469,7834.84 95.565,7839.74 89.516,7839.74C83.472,7839.74 78.569,7834.84 78.569,7828.79C78.569,7822.75 83.472,7817.84 89.516,7817.84C95.565,7817.84 100.469,7822.75 100.469,7828.79"/>
                <path d="M382.926,7732.58C382.926,7738.62 378.016,7743.53 371.976,7743.53C365.925,7743.53 361.023,7738.62 361.023,7732.58C361.023,7726.53 365.925,7721.62 371.976,7721.62C378.016,7721.62 382.926,7726.53 382.926,7732.58"/>
                <path d="M382.926,7764.2C382.926,7770.25 378.016,7775.16 371.976,7775.16C365.925,7775.16 361.023,7770.25 361.023,7764.2C361.023,7758.15 365.925,7753.26 371.976,7753.26C378.016,7753.26 382.926,7758.15 382.926,7764.2"/>
                <path d="M226.469,7732.58C226.469,7738.62 221.572,7743.53 215.525,7743.53C209.476,7743.53 204.574,7738.62 204.574,7732.58C204.574,7726.53 209.476,7721.62 215.525,7721.62C221.572,7721.62 226.469,7726.53 226.469,7732.58"/>
                <path d="M226.469,7764.2C226.469,7770.25 221.572,7775.16 215.525,7775.16C209.476,7775.16 204.574,7770.25 204.574,7764.2C204.574,7758.15 209.476,7753.26 215.525,7753.26C221.572,7753.26 226.469,7758.15 226.469,7764.2"/>
                <path d="M257.564,7732.58C257.564,7738.62 252.662,7743.53 246.616,7743.53C240.569,7743.53 235.663,7738.62 235.663,7732.58C235.663,7726.53 240.569,7721.62 246.616,7721.62C252.662,7721.62 257.564,7726.53 257.564,7732.58"/>
                <path d="M257.564,7764.2C257.564,7770.25 252.662,7775.16 246.616,7775.16C240.569,7775.16 235.663,7770.25 235.663,7764.2C235.663,7758.15 240.569,7753.26 246.616,7753.26C252.662,7753.26 257.564,7758.15 257.564,7764.2"/>
                <path d="M288.925,7732.58C288.925,7738.62 284.023,7743.53 277.975,7743.53C271.926,7743.53 267.028,7738.62 267.028,7732.58C267.028,7726.53 271.926,7721.62 277.975,7721.62C284.023,7721.62 288.925,7726.53 288.925,7732.58"/>
                <path d="M288.925,7764.2C288.925,7770.25 284.023,7775.16 277.975,7775.16C271.926,7775.16 267.028,7770.25 267.028,7764.2C267.028,7758.15 271.926,7753.26 277.975,7753.26C284.023,7753.26 288.925,7758.15 288.925,7764.2"/>
                <path d="M320.557,7732.58C320.557,7738.62 315.653,7743.53 309.607,7743.53C303.564,7743.53 298.657,7738.62 298.657,7732.58C298.657,7726.53 303.564,7721.62 309.607,7721.62C315.653,7721.62 320.557,7726.53 320.557,7732.58"/>
                <path d="M320.557,7764.2C320.557,7770.25 315.653,7775.16 309.607,7775.16C303.564,7775.16 298.657,7770.25 298.657,7764.2C298.657,7758.15 303.564,7753.26 309.607,7753.26C315.653,7753.26 320.557,7758.15 320.557,7764.2"/>
                <path d="M351.646,7732.58C351.646,7738.62 346.745,7743.53 340.703,7743.53C334.657,7743.53 329.746,7738.62 329.746,7732.58C329.746,7726.53 334.657,7721.62 340.703,7721.62C346.745,7721.62 351.646,7726.53 351.646,7732.58"/>
                <path d="M351.646,7764.2C351.646,7770.25 346.745,7775.16 340.703,7775.16C334.657,7775.16 329.746,7770.25 329.746,7764.2C329.746,7758.15 334.657,7753.26 340.703,7753.26C346.745,7753.26 351.646,7758.15 351.646,7764.2"/>
                <path d="M194.192,7764.2C194.192,7770.25 189.293,7775.16 183.244,7775.16C177.202,7775.16 172.298,7770.25 172.298,7764.2C172.298,7758.15 177.202,7753.26 183.244,7753.26C189.293,7753.26 194.192,7758.15 194.192,7764.2"/>
                <path d="M382.926,7702.79C382.926,7708.84 378.016,7713.74 371.976,7713.74C365.925,7713.74 361.023,7708.84 361.023,7702.79C361.023,7696.75 365.925,7691.84 371.976,7691.84C378.016,7691.84 382.926,7696.75 382.926,7702.79"/>
                <path d="M226.469,7702.79C226.469,7708.84 221.572,7713.74 215.525,7713.74C209.476,7713.74 204.574,7708.84 204.574,7702.79C204.574,7696.75 209.476,7691.84 215.525,7691.84C221.572,7691.84 226.469,7696.75 226.469,7702.79"/>
                <path d="M257.564,7702.79C257.564,7708.84 252.662,7713.74 246.616,7713.74C240.569,7713.74 235.663,7708.84 235.663,7702.79C235.663,7696.75 240.569,7691.84 246.616,7691.84C252.662,7691.84 257.564,7696.75 257.564,7702.79"/>
                <path d="M288.925,7702.79C288.925,7708.84 284.023,7713.74 277.975,7713.74C271.926,7713.74 267.028,7708.84 267.028,7702.79C267.028,7696.75 271.926,7691.84 277.975,7691.84C284.023,7691.84 288.925,7696.75 288.925,7702.79"/>
                <path d="M320.557,7702.79C320.557,7708.84 315.653,7713.74 309.607,7713.74C303.564,7713.74 298.657,7708.84 298.657,7702.79C298.657,7696.75 303.564,7691.84 309.607,7691.84C315.653,7691.84 320.557,7696.75 320.557,7702.79"/>
                <path d="M351.646,7702.79C351.646,7708.84 346.745,7713.74 340.703,7713.74C334.657,7713.74 329.746,7708.84 329.746,7702.79C329.746,7696.75 334.657,7691.84 340.703,7691.84C346.745,7691.84 351.646,7696.75 351.646,7702.79"/>
                <path d="M262.071,8485.32C262.071,8491.38 257.171,8496.28 251.12,8496.28C245.072,8496.28 240.176,8491.38 240.176,8485.32C240.176,8479.29 245.072,8474.38 251.12,8474.38C257.171,8474.38 262.071,8479.29 262.071,8485.32"/>
                <path d="M230.981,8514.39C230.981,8520.43 226.079,8525.32 220.035,8525.32C213.982,8525.32 209.087,8520.43 209.087,8514.39C209.087,8508.33 213.982,8503.43 220.035,8503.43C226.079,8503.43 230.981,8508.33 230.981,8514.39"/>
                <path d="M168.613,8514.39C168.613,8520.43 163.712,8525.32 157.663,8525.32C151.618,8525.32 146.711,8520.43 146.711,8514.39C146.711,8508.33 151.618,8503.43 157.663,8503.43C163.712,8503.43 168.613,8508.33 168.613,8514.39"/>
                <path d="M199.705,8514.39C199.705,8520.43 194.798,8525.32 188.752,8525.32C182.71,8525.32 177.805,8520.43 177.805,8514.39C177.805,8508.33 182.71,8503.43 188.752,8503.43C194.798,8503.43 199.705,8508.33 199.705,8514.39"/>
                <path d="M230.981,8485.66C230.981,8491.71 226.079,8496.61 220.035,8496.61C213.982,8496.61 209.087,8491.71 209.087,8485.66C209.087,8479.61 213.982,8474.72 220.035,8474.72C226.079,8474.72 230.981,8479.61 230.981,8485.66"/>
                <path d="M168.613,8485.66C168.613,8491.71 163.712,8496.61 157.663,8496.61C151.618,8496.61 146.711,8491.71 146.711,8485.66C146.711,8479.61 151.618,8474.72 157.663,8474.72C163.712,8474.72 168.613,8479.61 168.613,8485.66"/>
                <path d="M139.908,8485.66C139.908,8491.71 135.003,8496.61 128.955,8496.61C122.909,8496.61 118.007,8491.71 118.007,8485.66C118.007,8479.61 122.909,8474.72 128.955,8474.72C135.003,8474.72 139.908,8479.61 139.908,8485.66"/>
                <path d="M199.705,8485.66C199.705,8491.71 194.798,8496.61 188.752,8496.61C182.71,8496.61 177.805,8491.71 177.805,8485.66C177.805,8479.61 182.71,8474.72 188.752,8474.72C194.798,8474.72 199.705,8479.61 199.705,8485.66"/>
                <path d="M262.071,8452.31C262.071,8458.36 257.171,8463.27 251.12,8463.27C245.072,8463.27 240.176,8458.36 240.176,8452.31C240.176,8446.26 245.072,8441.37 251.12,8441.37C257.171,8441.37 262.071,8446.26 262.071,8452.31"/>
                <path d="M293.645,8452.31C293.645,8458.36 288.746,8463.27 282.701,8463.27C276.65,8463.27 271.748,8458.36 271.748,8452.31C271.748,8446.26 276.65,8441.37 282.701,8441.37C288.746,8441.37 293.645,8446.26 293.645,8452.31"/>
                <path d="M262.071,8422.17C262.071,8428.22 257.171,8433.11 251.12,8433.11C245.072,8433.11 240.176,8428.22 240.176,8422.17C240.176,8416.13 245.072,8411.22 251.12,8411.22C257.171,8411.22 262.071,8416.13 262.071,8422.17"/>
                <path d="M293.645,8422.17C293.645,8428.22 288.746,8433.11 282.701,8433.11C276.65,8433.11 271.748,8428.22 271.748,8422.17C271.748,8416.13 276.65,8411.22 282.701,8411.22C288.746,8411.22 293.645,8416.13 293.645,8422.17"/>
                <path d="M323.553,8422.17C323.553,8428.22 318.646,8433.11 312.603,8433.11C306.56,8433.11 301.656,8428.22 301.656,8422.17C301.656,8416.13 306.56,8411.22 312.603,8411.22C318.646,8411.22 323.553,8416.13 323.553,8422.17"/>
                <path d="M355.133,8422.17C355.133,8428.22 350.223,8433.11 344.18,8433.11C338.134,8433.11 333.232,8428.22 333.232,8422.17C333.232,8416.13 338.134,8411.22 344.18,8411.22C350.223,8411.22 355.133,8416.13 355.133,8422.17"/>
                <path d="M262.071,8392.03C262.071,8398.08 257.171,8402.97 251.12,8402.97C245.072,8402.97 240.176,8398.08 240.176,8392.03C240.176,8385.98 245.072,8381.07 251.12,8381.07C257.171,8381.07 262.071,8385.98 262.071,8392.03"/>
                <path d="M293.645,8392.03C293.645,8398.08 288.746,8402.97 282.701,8402.97C276.65,8402.97 271.748,8398.08 271.748,8392.03C271.748,8385.98 276.65,8381.07 282.701,8381.07C288.746,8381.07 293.645,8385.98 293.645,8392.03"/>
                <path d="M323.553,8392.03C323.553,8398.08 318.646,8402.97 312.603,8402.97C306.56,8402.97 301.656,8398.08 301.656,8392.03C301.656,8385.98 306.56,8381.07 312.603,8381.07C318.646,8381.07 323.553,8385.98 323.553,8392.03"/>
                <path d="M355.133,8392.03C355.133,8398.08 350.223,8402.97 344.18,8402.97C338.134,8402.97 333.232,8398.08 333.232,8392.03C333.232,8385.98 338.134,8381.07 344.18,8381.07C350.223,8381.07 355.133,8385.98 355.133,8392.03"/>
                <path d="M262.071,8361.89C262.071,8367.94 257.171,8372.83 251.12,8372.83C245.072,8372.83 240.176,8367.94 240.176,8361.89C240.176,8355.84 245.072,8350.94 251.12,8350.94C257.171,8350.94 262.071,8355.84 262.071,8361.89"/>
                <path d="M230.492,8361.89C230.492,8367.94 225.591,8372.83 219.542,8372.83C213.5,8372.83 208.592,8367.94 208.592,8361.89C208.592,8355.84 213.5,8350.94 219.542,8350.94C225.591,8350.94 230.492,8355.84 230.492,8361.89"/>
                <path d="M200.115,8267.15C200.115,8273.2 195.204,8278.11 189.161,8278.11C183.116,8278.11 178.218,8273.2 178.218,8267.15C178.218,8261.1 183.116,8256.2 189.161,8256.2C195.204,8256.2 200.115,8261.1 200.115,8267.15"/>
                <path d="M168.534,8267.15C168.534,8273.2 163.634,8278.11 157.586,8278.11C151.537,8278.11 146.637,8273.2 146.637,8267.15C146.637,8261.1 151.537,8256.2 157.586,8256.2C163.634,8256.2 168.534,8261.1 168.534,8267.15"/>
                <path d="M385.262,8076.44C385.262,8082.48 380.374,8087.39 374.323,8087.39C368.272,8087.39 363.373,8082.48 363.373,8076.44C363.373,8070.39 368.272,8065.49 374.323,8065.49C380.374,8065.49 385.262,8070.39 385.262,8076.44"/>
                <path d="M356.562,8076.44C356.562,8082.48 351.655,8087.39 345.618,8087.39C339.567,8087.39 334.662,8082.48 334.662,8076.44C334.662,8070.39 339.567,8065.49 345.618,8065.49C351.655,8065.49 356.562,8070.39 356.562,8076.44"/>
                <path d="M262.071,8297.3C262.071,8303.34 257.171,8308.25 251.12,8308.25C245.072,8308.25 240.176,8303.34 240.176,8297.3C240.176,8291.25 245.072,8286.35 251.12,8286.35C257.171,8286.35 262.071,8291.25 262.071,8297.3"/>
                <path d="M230.492,8297.3C230.492,8303.34 225.591,8308.25 219.542,8308.25C213.5,8308.25 208.592,8303.34 208.592,8297.3C208.592,8291.25 213.5,8286.35 219.542,8286.35C225.591,8286.35 230.492,8291.25 230.492,8297.3"/>
                <path d="M167.34,8297.3C167.34,8303.34 162.436,8308.25 156.392,8308.25C150.345,8308.25 145.437,8303.34 145.437,8297.3C145.437,8291.25 150.345,8286.35 156.392,8286.35C162.436,8286.35 167.34,8291.25 167.34,8297.3"/>
                <path d="M293.645,8361.89C293.645,8367.94 288.746,8372.83 282.701,8372.83C276.65,8372.83 271.748,8367.94 271.748,8361.89C271.748,8355.84 276.65,8350.94 282.701,8350.94C288.746,8350.94 293.645,8355.84 293.645,8361.89"/>
                <path d="M323.553,8361.89C323.553,8367.94 318.646,8372.83 312.603,8372.83C306.56,8372.83 301.656,8367.94 301.656,8361.89C301.656,8355.84 306.56,8350.94 312.603,8350.94C318.646,8350.94 323.553,8355.84 323.553,8361.89"/>
                <path d="M355.133,8361.89C355.133,8367.94 350.223,8372.83 344.18,8372.83C338.134,8372.83 333.232,8367.94 333.232,8361.89C333.232,8355.84 338.134,8350.94 344.18,8350.94C350.223,8350.94 355.133,8355.84 355.133,8361.89"/>
                <path d="M293.645,8330.31C293.645,8336.36 288.746,8341.26 282.701,8341.26C276.65,8341.26 271.748,8336.36 271.748,8330.31C271.748,8324.26 276.65,8319.35 282.701,8319.35C288.746,8319.35 293.645,8324.26 293.645,8330.31"/>
                <path d="M233.128,8235.58C233.128,8241.63 228.222,8246.52 222.181,8246.52C216.133,8246.52 211.228,8241.63 211.228,8235.58C211.228,8229.53 216.133,8224.64 222.181,8224.64C228.222,8224.64 233.128,8229.53 233.128,8235.58"/>
                <path d="M261.832,8267.15C261.832,8273.2 256.93,8278.11 250.882,8278.11C244.837,8278.11 239.931,8273.2 239.931,8267.15C239.931,8261.1 244.837,8256.2 250.882,8256.2C256.93,8256.2 261.832,8261.1 261.832,8267.15"/>
                <path d="M323.553,8330.31C323.553,8336.36 318.646,8341.26 312.603,8341.26C306.56,8341.26 301.656,8336.36 301.656,8330.31C301.656,8324.26 306.56,8319.35 312.603,8319.35C318.646,8319.35 323.553,8324.26 323.553,8330.31"/>
                <path d="M355.133,8330.31C355.133,8336.36 350.223,8341.26 344.18,8341.26C338.134,8341.26 333.232,8336.36 333.232,8330.31C333.232,8324.26 338.134,8319.35 344.18,8319.35C350.223,8319.35 355.133,8324.26 355.133,8330.31"/>
                <path d="M230.981,8452.65C230.981,8458.7 226.079,8463.61 220.035,8463.61C213.982,8463.61 209.087,8458.7 209.087,8452.65C209.087,8446.6 213.982,8441.71 220.035,8441.71C226.079,8441.71 230.981,8446.6 230.981,8452.65"/>
                <path d="M168.613,8452.65C168.613,8458.7 163.712,8463.61 157.663,8463.61C151.618,8463.61 146.711,8458.7 146.711,8452.65C146.711,8446.6 151.618,8441.71 157.663,8441.71C163.712,8441.71 168.613,8446.6 168.613,8452.65"/>
                <path d="M199.705,8452.65C199.705,8458.7 194.798,8463.61 188.752,8463.61C182.71,8463.61 177.805,8458.7 177.805,8452.65C177.805,8446.6 182.71,8441.71 188.752,8441.71C194.798,8441.71 199.705,8446.6 199.705,8452.65"/>
                <path d="M168.613,8422.7C168.613,8428.75 163.712,8433.65 157.663,8433.65C151.618,8433.65 146.711,8428.75 146.711,8422.7C146.711,8416.66 151.618,8411.76 157.663,8411.76C163.712,8411.76 168.613,8416.66 168.613,8422.7"/>
                <path d="M199.705,8422.7C199.705,8428.75 194.798,8433.65 188.752,8433.65C182.71,8433.65 177.805,8428.75 177.805,8422.7C177.805,8416.66 182.71,8411.76 188.752,8411.76C194.798,8411.76 199.705,8416.66 199.705,8422.7"/>
                <path d="M386.705,8485.32C386.705,8491.38 381.806,8496.28 375.766,8496.28C369.715,8496.28 364.805,8491.38 364.805,8485.32C364.805,8479.29 369.715,8474.38 375.766,8474.38C381.806,8474.38 386.705,8479.29 386.705,8485.32"/>
                <path d="M388.621,8234.98C388.621,8241.02 383.722,8245.93 377.672,8245.93C371.631,8245.93 366.732,8241.02 366.732,8234.98C366.732,8228.94 371.631,8224.03 377.672,8224.03C383.722,8224.03 388.621,8228.94 388.621,8234.98"/>
                <path d="M388.137,8391.08C388.137,8397.12 383.238,8402.02 377.198,8402.02C371.147,8402.02 366.237,8397.12 366.237,8391.08C366.237,8385.03 371.147,8380.12 377.198,8380.12C383.238,8380.12 388.137,8385.03 388.137,8391.08"/>
                <path d="M388.137,8326.49C388.137,8332.52 383.238,8337.43 377.198,8337.43C371.147,8337.43 366.237,8332.52 366.237,8326.49C366.237,8320.43 371.147,8315.53 377.198,8315.53C383.238,8315.53 388.137,8320.43 388.137,8326.49"/>
                <path d="M388.137,8358.11C388.137,8364.16 383.238,8369.06 377.198,8369.06C371.147,8369.06 366.237,8364.16 366.237,8358.11C366.237,8352.06 371.147,8347.16 377.198,8347.16C383.238,8347.16 388.137,8352.06 388.137,8358.11"/>
                <path d="M388.137,8296.7C388.137,8302.75 383.238,8307.65 377.198,8307.65C371.147,8307.65 366.237,8302.75 366.237,8296.7C366.237,8290.65 371.147,8285.76 377.198,8285.76C383.238,8285.76 388.137,8290.65 388.137,8296.7"/>
                <path d="M357.044,8296.7C357.044,8302.75 352.145,8307.65 346.101,8307.65C340.054,8307.65 335.15,8302.75 335.15,8296.7C335.15,8290.65 340.054,8285.76 346.101,8285.76C352.145,8285.76 357.044,8290.65 357.044,8296.7"/>
                <path d="M324.988,8296.7C324.988,8302.75 320.083,8307.65 314.035,8307.65C307.991,8307.65 303.087,8302.75 303.087,8296.7C303.087,8290.65 307.991,8285.76 314.035,8285.76C320.083,8285.76 324.988,8290.65 324.988,8296.7"/>
                <path d="M388.137,8265.13C388.137,8271.17 383.238,8276.07 377.198,8276.07C371.147,8276.07 366.237,8271.17 366.237,8265.13C366.237,8259.08 371.147,8254.17 377.198,8254.17C383.238,8254.17 388.137,8259.08 388.137,8265.13"/>
                <path d="M352.057,8143.39C352.057,8149.43 347.155,8154.34 341.109,8154.34C335.062,8154.34 330.162,8149.43 330.162,8143.39C330.162,8137.34 335.062,8132.43 341.109,8132.43C347.155,8132.43 352.057,8137.34 352.057,8143.39"/>
                <path d="M351.571,8173.52C351.571,8179.58 346.674,8184.47 340.629,8184.47C334.578,8184.47 329.677,8179.58 329.677,8173.52C329.677,8167.48 334.578,8162.58 340.629,8162.58C346.674,8162.58 351.571,8167.48 351.571,8173.52"/>
                <path d="M320.304,8143.39C320.304,8149.43 315.399,8154.34 309.351,8154.34C303.313,8154.34 298.407,8149.43 298.407,8143.39C298.407,8137.34 303.313,8132.43 309.351,8132.43C315.399,8132.43 320.304,8137.34 320.304,8143.39"/>
                <path d="M319.824,8173.52C319.824,8179.58 314.917,8184.47 308.874,8184.47C302.825,8184.47 297.918,8179.58 297.918,8173.52C297.918,8167.48 302.825,8162.58 308.874,8162.58C314.917,8162.58 319.824,8167.48 319.824,8173.52"/>
                <path d="M351.707,7645.09C351.707,7651.14 346.805,7656.04 340.756,7656.04C334.705,7656.04 329.81,7651.14 329.81,7645.09C329.81,7639.04 334.705,7634.14 340.756,7634.14C346.805,7634.14 351.707,7639.04 351.707,7645.09"/>
                <path d="M382.793,7645.09C382.793,7651.14 377.894,7656.04 371.849,7656.04C365.798,7656.04 360.899,7651.14 360.899,7645.09C360.899,7639.04 365.798,7634.14 371.849,7634.14C377.894,7634.14 382.793,7639.04 382.793,7645.09"/>
                <path d="M256.974,7645.09C256.974,7651.14 252.072,7656.04 246.029,7656.04C239.975,7656.04 235.08,7651.14 235.08,7645.09C235.08,7639.04 239.975,7634.14 246.029,7634.14C252.072,7634.14 256.974,7639.04 256.974,7645.09"/>
                <path d="M288.063,7645.09C288.063,7651.14 283.163,7656.04 277.112,7656.04C271.064,7656.04 266.168,7651.14 266.168,7645.09C266.168,7639.04 271.064,7634.14 277.112,7634.14C283.163,7634.14 288.063,7639.04 288.063,7645.09"/>
                <path d="M319.424,7645.09C319.424,7651.14 314.524,7656.04 308.474,7656.04C302.427,7656.04 297.523,7651.14 297.523,7645.09C297.523,7639.04 302.427,7634.14 308.474,7634.14C314.524,7634.14 319.424,7639.04 319.424,7645.09"/>
                <path d="M224.413,7614.95C224.413,7621 219.511,7625.89 213.462,7625.89C207.411,7625.89 202.516,7621 202.516,7614.95C202.516,7608.89 207.411,7603.99 213.462,7603.99C219.511,7603.99 224.413,7608.89 224.413,7614.95"/>
                <path d="M382.793,7614.95C382.793,7621 377.894,7625.89 371.849,7625.89C365.798,7625.89 360.899,7621 360.899,7614.95C360.899,7608.89 365.798,7603.99 371.849,7603.99C377.894,7603.99 382.793,7608.89 382.793,7614.95"/>
                <path d="M160.77,7614.95C160.77,7621 155.87,7625.89 149.819,7625.89C143.771,7625.89 138.875,7621 138.875,7614.95C138.875,7608.89 143.771,7603.99 149.819,7603.99C155.87,7603.99 160.77,7608.89 160.77,7614.95"/>
                <path d="M192.131,7614.95C192.131,7621 187.231,7625.89 181.181,7625.89C175.134,7625.89 170.23,7621 170.23,7614.95C170.23,7608.89 175.134,7603.99 181.181,7603.99C187.231,7603.99 192.131,7608.89 192.131,7614.95"/>
                <path d="M194.605,7645.09C194.605,7651.14 189.704,7656.04 183.655,7656.04C177.61,7656.04 172.703,7651.14 172.703,7645.09C172.703,7639.04 177.61,7634.14 183.655,7634.14C189.704,7634.14 194.605,7639.04 194.605,7645.09"/>
                <path d="M225.698,7645.09C225.698,7651.14 220.791,7656.04 214.745,7656.04C208.703,7656.04 203.798,7651.14 203.798,7645.09C203.798,7639.04 208.703,7634.14 214.745,7634.14C220.791,7634.14 225.698,7639.04 225.698,7645.09"/>
                <path d="M3.85,7548.53C3.85,7554.58 -1.057,7559.49 -7.101,7559.49C-13.152,7559.49 -18.051,7554.58 -18.051,7548.53C-18.051,7542.49 -13.152,7537.59 -7.101,7537.59C-1.057,7537.59 3.85,7542.49 3.85,7548.53"/>
                <path d="M36.41,7580.38C36.41,7586.44 31.508,7591.33 25.463,7591.33C19.412,7591.33 14.519,7586.44 14.519,7580.38C14.519,7574.33 19.412,7569.44 25.463,7569.44C31.508,7569.44 36.41,7574.33 36.41,7580.38"/>
                <path d="M3.85,7517.36C3.85,7523.41 -1.057,7528.32 -7.101,7528.32C-13.152,7528.32 -18.051,7523.41 -18.051,7517.36C-18.051,7511.32 -13.152,7506.42 -7.101,7506.42C-1.057,7506.42 3.85,7511.32 3.85,7517.36"/>
                <path d="M35.208,7517.36C35.208,7523.41 30.309,7528.32 24.258,7528.32C18.215,7528.32 13.308,7523.41 13.308,7517.36C13.308,7511.32 18.215,7506.42 24.258,7506.42C30.309,7506.42 35.208,7511.32 35.208,7517.36"/>
                <path d="M3.235,7485.74C3.235,7491.77 -1.664,7496.68 -7.706,7496.68C-13.752,7496.68 -18.659,7491.77 -18.659,7485.74C-18.659,7479.7 -13.752,7474.79 -7.706,7474.79C-1.664,7474.79 3.235,7479.7 3.235,7485.74"/>
                <path d="M34.871,7485.74C34.871,7491.77 29.966,7496.68 23.92,7496.68C17.876,7496.68 12.97,7491.77 12.97,7485.74C12.97,7479.7 17.876,7474.79 23.92,7474.79C29.966,7474.79 34.871,7479.7 34.871,7485.74"/>
                <path d="M3.235,7424.01C3.235,7430.06 -1.664,7434.96 -7.706,7434.96C-13.752,7434.96 -18.659,7430.06 -18.659,7424.01C-18.659,7417.98 -13.752,7413.07 -7.706,7413.07C-1.664,7413.07 3.235,7417.98 3.235,7424.01"/>
                <path d="M3.235,7455.65C3.235,7461.7 -1.664,7466.6 -7.706,7466.6C-13.752,7466.6 -18.659,7461.7 -18.659,7455.65C-18.659,7449.6 -13.752,7444.69 -7.706,7444.69C-1.664,7444.69 3.235,7449.6 3.235,7455.65"/>
                <path d="M3.235,7359.43C3.235,7365.47 -1.664,7370.38 -7.706,7370.38C-13.752,7370.38 -18.659,7365.47 -18.659,7359.43C-18.659,7353.38 -13.752,7348.48 -7.706,7348.48C-1.664,7348.48 3.235,7353.38 3.235,7359.43"/>
                <path d="M3.235,7391.06C3.235,7397.11 -1.664,7402.01 -7.706,7402.01C-13.752,7402.01 -18.659,7397.11 -18.659,7391.06C-18.659,7385.01 -13.752,7380.11 -7.706,7380.11C-1.664,7380.11 3.235,7385.01 3.235,7391.06"/>
                <path d="M34.871,7359.43C34.871,7365.47 29.966,7370.38 23.92,7370.38C17.876,7370.38 12.97,7365.47 12.97,7359.43C12.97,7353.38 17.876,7348.48 23.92,7348.48C29.966,7348.48 34.871,7353.38 34.871,7359.43"/>
                <path d="M34.871,7391.06C34.871,7397.11 29.966,7402.01 23.92,7402.01C17.876,7402.01 12.97,7397.11 12.97,7391.06C12.97,7385.01 17.876,7380.11 23.92,7380.11C29.966,7380.11 34.871,7385.01 34.871,7391.06"/>
                <path d="M65.966,7359.43C65.966,7365.47 61.062,7370.38 55.013,7370.38C48.967,7370.38 44.065,7365.47 44.065,7359.43C44.065,7353.38 48.967,7348.48 55.013,7348.48C61.062,7348.48 65.966,7353.38 65.966,7359.43"/>
                <path d="M65.966,7391.06C65.966,7397.11 61.062,7402.01 55.013,7402.01C48.967,7402.01 44.065,7397.11 44.065,7391.06C44.065,7385.01 48.967,7380.11 55.013,7380.11C61.062,7380.11 65.966,7385.01 65.966,7391.06"/>
                <path d="M129.68,7613.12C129.68,7619.17 124.778,7624.07 118.736,7624.07C112.685,7624.07 107.786,7619.17 107.786,7613.12C107.786,7607.08 112.685,7602.18 118.736,7602.18C124.778,7602.18 129.68,7607.08 129.68,7613.12"/>
                <path d="M129.68,7644.76C129.68,7650.81 124.778,7655.7 118.736,7655.7C112.685,7655.7 107.786,7650.81 107.786,7644.76C107.786,7638.71 112.685,7633.8 118.736,7633.8C124.778,7633.8 129.68,7638.71 129.68,7644.76"/>
                <path d="M160.77,7644.76C160.77,7650.81 155.87,7655.7 149.828,7655.7C143.773,7655.7 138.875,7650.81 138.875,7644.76C138.875,7638.71 143.773,7633.8 149.828,7633.8C155.87,7633.8 160.77,7638.71 160.77,7644.76"/>
                <path d="M98.054,7359.43C98.054,7365.47 93.147,7370.38 87.101,7370.38C81.055,7370.38 76.156,7365.47 76.156,7359.43C76.156,7353.38 81.055,7348.48 87.101,7348.48C93.147,7348.48 98.054,7353.38 98.054,7359.43"/>
                <path d="M98.054,7391.06C98.054,7397.11 93.147,7402.01 87.101,7402.01C81.055,7402.01 76.156,7397.11 76.156,7391.06C76.156,7385.01 81.055,7380.11 87.101,7380.11C93.147,7380.11 98.054,7385.01 98.054,7391.06"/>
                <path d="M129.68,7548.54C129.68,7554.58 124.778,7559.49 118.736,7559.49C112.685,7559.49 107.786,7554.58 107.786,7548.54C107.786,7542.49 112.685,7537.59 118.736,7537.59C124.778,7537.59 129.68,7542.49 129.68,7548.54"/>
                <path d="M129.68,7580.17C129.68,7586.22 124.778,7591.12 118.736,7591.12C112.685,7591.12 107.786,7586.22 107.786,7580.17C107.786,7574.12 112.685,7569.22 118.736,7569.22C124.778,7569.22 129.68,7574.12 129.68,7580.17"/>
                <path d="M160.77,7548.54C160.77,7554.58 155.87,7559.49 149.828,7559.49C143.773,7559.49 138.875,7554.58 138.875,7548.54C138.875,7542.49 143.773,7537.59 149.828,7537.59C155.87,7537.59 160.77,7542.49 160.77,7548.54"/>
                <path d="M3.235,7329.34C3.235,7335.39 -1.664,7340.28 -7.706,7340.28C-13.752,7340.28 -18.659,7335.39 -18.659,7329.34C-18.659,7323.3 -13.752,7318.4 -7.706,7318.4C-1.664,7318.4 3.235,7323.3 3.235,7329.34"/>
                <path d="M34.871,7329.34C34.871,7335.39 29.966,7340.28 23.92,7340.28C17.876,7340.28 12.97,7335.39 12.97,7329.34C12.97,7323.3 17.876,7318.4 23.92,7318.4C29.966,7318.4 34.871,7323.3 34.871,7329.34"/>
                <path d="M65.966,7329.34C65.966,7335.39 61.062,7340.28 55.013,7340.28C48.967,7340.28 44.065,7335.39 44.065,7329.34C44.065,7323.3 48.967,7318.4 55.013,7318.4C61.062,7318.4 65.966,7323.3 65.966,7329.34"/>
                <path d="M98.054,7329.34C98.054,7335.39 93.147,7340.28 87.101,7340.28C81.055,7340.28 76.156,7335.39 76.156,7329.34C76.156,7323.3 81.055,7318.4 87.101,7318.4C93.147,7318.4 98.054,7323.3 98.054,7329.34"/>
                <path d="M3.235,7298.21C3.235,7304.25 -1.664,7309.16 -7.706,7309.16C-13.752,7309.16 -18.659,7304.25 -18.659,7298.21C-18.659,7292.16 -13.752,7287.26 -7.706,7287.26C-1.664,7287.26 3.235,7292.16 3.235,7298.21"/>
                <path d="M34.871,7298.21C34.871,7304.25 29.966,7309.16 23.92,7309.16C17.876,7309.16 12.97,7304.25 12.97,7298.21C12.97,7292.16 17.876,7287.26 23.92,7287.26C29.966,7287.26 34.871,7292.16 34.871,7298.21"/>
                <path d="M65.966,7298.21C65.966,7304.25 61.062,7309.16 55.013,7309.16C48.967,7309.16 44.065,7304.25 44.065,7298.21C44.065,7292.16 48.967,7287.26 55.013,7287.26C61.062,7287.26 65.966,7292.16 65.966,7298.21"/>
                <path d="M98.054,7298.21C98.054,7304.25 93.147,7309.16 87.101,7309.16C81.055,7309.16 76.156,7304.25 76.156,7298.21C76.156,7292.16 81.055,7287.26 87.101,7287.26C93.147,7287.26 98.054,7292.16 98.054,7298.21"/>
                <path d="M3.235,7268.49C3.235,7274.54 -1.664,7279.44 -7.706,7279.44C-13.752,7279.44 -18.659,7274.54 -18.659,7268.49C-18.659,7262.44 -13.752,7257.54 -7.706,7257.54C-1.664,7257.54 3.235,7262.44 3.235,7268.49"/>
                <path d="M34.871,7268.49C34.871,7274.54 29.966,7279.44 23.92,7279.44C17.876,7279.44 12.97,7274.54 12.97,7268.49C12.97,7262.44 17.876,7257.54 23.92,7257.54C29.966,7257.54 34.871,7262.44 34.871,7268.49"/>
                <path d="M160.77,7580.17C160.77,7586.22 155.87,7591.12 149.828,7591.12C143.773,7591.12 138.875,7586.22 138.875,7580.17C138.875,7574.12 143.773,7569.22 149.828,7569.22C155.87,7569.22 160.77,7574.12 160.77,7580.17"/>
                <path d="M102.357,7614.95C102.357,7621 97.457,7625.89 91.406,7625.89C85.358,7625.89 80.462,7621 80.462,7614.95C80.462,7608.89 85.358,7603.99 91.406,7603.99C97.457,7603.99 102.357,7608.89 102.357,7614.95"/>
                <path d="M71.267,7613.12C71.267,7619.17 66.365,7624.07 60.323,7624.07C54.272,7624.07 49.373,7619.17 49.373,7613.12C49.373,7607.08 54.272,7602.18 60.323,7602.18C66.365,7602.18 71.267,7607.08 71.267,7613.12"/>
                <path d="M71.267,7644.76C71.267,7650.81 66.365,7655.7 60.323,7655.7C54.272,7655.7 49.373,7650.81 49.373,7644.76C49.373,7638.71 54.272,7633.8 60.323,7633.8C66.365,7633.8 71.267,7638.71 71.267,7644.76"/>
                <path d="M102.357,7644.76C102.357,7650.81 97.457,7655.7 91.415,7655.7C85.362,7655.7 80.462,7650.81 80.462,7644.76C80.462,7638.71 85.362,7633.8 91.415,7633.8C97.457,7633.8 102.357,7638.71 102.357,7644.76"/>
                <path d="M351.707,7675.05C351.707,7681.1 346.805,7685.99 340.756,7685.99C334.705,7685.99 329.81,7681.1 329.81,7675.05C329.81,7669 334.705,7664.09 340.756,7664.09C346.805,7664.09 351.707,7669 351.707,7675.05"/>
                <path d="M382.793,7675.05C382.793,7681.1 377.894,7685.99 371.849,7685.99C365.798,7685.99 360.899,7681.1 360.899,7675.05C360.899,7669 365.798,7664.09 371.849,7664.09C377.894,7664.09 382.793,7669 382.793,7675.05"/>
                <path d="M256.974,7675.05C256.974,7681.1 252.072,7685.99 246.029,7685.99C239.975,7685.99 235.08,7681.1 235.08,7675.05C235.08,7669 239.975,7664.09 246.029,7664.09C252.072,7664.09 256.974,7669 256.974,7675.05"/>
                <path d="M288.063,7675.05C288.063,7681.1 283.163,7685.99 277.112,7685.99C271.064,7685.99 266.168,7681.1 266.168,7675.05C266.168,7669 271.064,7664.09 277.112,7664.09C283.163,7664.09 288.063,7669 288.063,7675.05"/>
                <path d="M319.424,7675.05C319.424,7681.1 314.524,7685.99 308.474,7685.99C302.427,7685.99 297.523,7681.1 297.523,7675.05C297.523,7669 302.427,7664.09 308.474,7664.09C314.524,7664.09 319.424,7669 319.424,7675.05"/>
                <path d="M194.605,7675.05C194.605,7681.1 189.704,7685.99 183.655,7685.99C177.61,7685.99 172.703,7681.1 172.703,7675.05C172.703,7669 177.61,7664.09 183.655,7664.09C189.704,7664.09 194.605,7669 194.605,7675.05"/>
                <path d="M225.698,7675.05C225.698,7681.1 220.791,7685.99 214.745,7685.99C208.703,7685.99 203.798,7681.1 203.798,7675.05C203.798,7669 208.703,7664.09 214.745,7664.09C220.791,7664.09 225.698,7669 225.698,7675.05"/>
                <path d="M129.68,7674.72C129.68,7680.77 124.778,7685.66 118.736,7685.66C112.685,7685.66 107.786,7680.77 107.786,7674.72C107.786,7668.66 112.685,7663.76 118.736,7663.76C124.778,7663.76 129.68,7668.66 129.68,7674.72"/>
                <path d="M160.77,7674.72C160.77,7680.77 155.87,7685.66 149.828,7685.66C143.773,7685.66 138.875,7680.77 138.875,7674.72C138.875,7668.66 143.773,7663.76 149.828,7663.76C155.87,7663.76 160.77,7668.66 160.77,7674.72"/>
                <path d="M71.267,7674.72C71.267,7680.77 66.365,7685.66 60.323,7685.66C54.272,7685.66 49.373,7680.77 49.373,7674.72C49.373,7668.66 54.272,7663.76 60.323,7663.76C66.365,7663.76 71.267,7668.66 71.267,7674.72"/>
                <path d="M102.357,7674.72C102.357,7680.77 97.457,7685.66 91.415,7685.66C85.362,7685.66 80.462,7680.77 80.462,7674.72C80.462,7668.66 85.362,7663.76 91.415,7663.76C97.457,7663.76 102.357,7668.66 102.357,7674.72"/>
                <path d="M102.357,7580.17C102.357,7586.22 97.457,7591.12 91.415,7591.12C85.362,7591.12 80.462,7586.22 80.462,7580.17C80.462,7574.12 85.362,7569.22 91.415,7569.22C97.457,7569.22 102.357,7574.12 102.357,7580.17"/>
                <path d="M66.133,7113.62C66.133,7119.67 61.226,7124.56 55.18,7124.56C49.138,7124.56 44.233,7119.67 44.233,7113.62C44.233,7107.57 49.138,7102.67 55.18,7102.67C61.226,7102.67 66.133,7107.57 66.133,7113.62"/>
                <path d="M97.76,7113.62C97.76,7119.67 92.856,7124.56 86.81,7124.56C80.768,7124.56 75.866,7119.67 75.866,7113.62C75.866,7107.57 80.768,7102.67 86.81,7102.67C92.856,7102.67 97.76,7107.57 97.76,7113.62"/>
                <path d="M97.76,7143.52C97.76,7149.56 92.856,7154.46 86.81,7154.46C80.768,7154.46 75.866,7149.56 75.866,7143.52C75.866,7137.46 80.768,7132.57 86.81,7132.57C92.856,7132.57 97.76,7137.46 97.76,7143.52"/>
                <path d="M128.849,7113.62C128.849,7119.67 123.947,7124.56 117.894,7124.56C111.857,7124.56 106.955,7119.67 106.955,7113.62C106.955,7107.57 111.857,7102.67 117.894,7102.67C123.947,7102.67 128.849,7107.57 128.849,7113.62"/>
                <path d="M128.849,7081.98C128.849,7088.03 123.947,7092.93 117.894,7092.93C111.857,7092.93 106.955,7088.03 106.955,7081.98C106.955,7075.94 111.857,7071.03 117.894,7071.03C123.947,7071.03 128.849,7075.94 128.849,7081.98"/>
                <path d="M160.942,7081.98C160.942,7088.03 156.038,7092.93 149.992,7092.93C143.941,7092.93 139.037,7088.03 139.037,7081.98C139.037,7075.94 143.941,7071.03 149.992,7071.03C156.038,7071.03 160.942,7075.94 160.942,7081.98"/>
                <path d="M128.849,7051.53C128.849,7057.58 123.947,7062.48 117.894,7062.48C111.857,7062.48 106.955,7057.58 106.955,7051.53C106.955,7045.48 111.857,7040.58 117.894,7040.58C123.947,7040.58 128.849,7045.48 128.849,7051.53"/>
                <path d="M160.942,7051.53C160.942,7057.58 156.038,7062.48 149.992,7062.48C143.941,7062.48 139.037,7057.58 139.037,7051.53C139.037,7045.48 143.941,7040.58 149.992,7040.58C156.038,7040.58 160.942,7045.48 160.942,7051.53"/>
                <path d="M97.76,7051.53C97.76,7057.58 92.856,7062.48 86.81,7062.48C80.768,7062.48 75.866,7057.58 75.866,7051.53C75.866,7045.48 80.768,7040.58 86.81,7040.58C92.856,7040.58 97.76,7045.48 97.76,7051.53"/>
                <path d="M99.133,7019.03C99.133,7025.07 94.229,7029.97 88.183,7029.97C82.138,7029.97 77.237,7025.07 77.237,7019.03C77.237,7012.98 82.138,7008.08 88.183,7008.08C94.229,7008.08 99.133,7012.98 99.133,7019.03"/>
                <path d="M36.413,7019.03C36.413,7025.07 31.508,7029.97 25.463,7029.97C19.414,7029.97 14.518,7025.07 14.518,7019.03C14.518,7012.98 19.414,7008.08 25.463,7008.08C31.508,7008.08 36.413,7012.98 36.413,7019.03"/>
                <path d="M68.042,7019.03C68.042,7025.07 63.141,7029.97 57.098,7029.97C51.049,7029.97 46.148,7025.07 46.148,7019.03C46.148,7012.98 51.049,7008.08 57.098,7008.08C63.141,7008.08 68.042,7012.98 68.042,7019.03"/>
            </g>
        </g>
    </g>
</svg>
