<?xml version="1.0" encoding="UTF-8" standalone="no"?>
<!DOCTYPE svg PUBLIC "-//W3C//DTD SVG 1.1//EN" "http://www.w3.org/Graphics/SVG/1.1/DTD/svg11.dtd">
<svg width="100%" height="100%" viewBox="0 0 1426 798" version="1.1" xmlns="http://www.w3.org/2000/svg" xmlns:xlink="http://www.w3.org/1999/xlink" xml:space="preserve" xmlns:serif="http://www.serif.com/" style="fill-rule:evenodd;clip-rule:evenodd;stroke-linejoin:round;stroke-miterlimit:1.41421;">
    <g transform="matrix(1,0,0,1,-2399.82,-5778.4)">
        <g transform="matrix(1,0,0,1,2160,0)">
            <g transform="matrix(1,0,0,1,484.487,5778.4)">
                <path d="M0,73.401C20.27,73.401 36.7,56.967 36.7,36.7C36.7,16.434 20.27,0 0,0C-20.27,0 -36.701,16.434 -36.701,36.7C-36.701,56.967 -20.27,73.401 0,73.401" style="fill:rgb(35,31,32);fill-rule:nonzero;"/>
            </g>
        </g>
        <g transform="matrix(1,0,0,1,2160,0)">
            <g transform="matrix(1,0,0,1,588.472,5778.4)">
                <path d="M0,73.401C20.27,73.401 36.701,56.967 36.701,36.7C36.701,16.434 20.27,0 0,0C-20.27,0 -36.7,16.434 -36.7,36.7C-36.7,56.967 -20.27,73.401 0,73.401" style="fill:rgb(0,155,223);fill-rule:nonzero;"/>
            </g>
        </g>
        <g transform="matrix(1,0,0,1,2160,0)">
            <g transform="matrix(1,0,0,1,692.456,5778.4)">
                <path d="M0,73.401C20.27,73.401 36.701,56.967 36.701,36.7C36.701,16.434 20.27,0 0,0C-20.27,0 -36.7,16.434 -36.7,36.7C-36.7,56.967 -20.27,73.401 0,73.401" style="fill:rgb(35,31,32);fill-rule:nonzero;"/>
            </g>
        </g>
        <g transform="matrix(1,0,0,1,2160,0)">
            <g transform="matrix(1,0,0,1,796.441,5778.4)">
                <path d="M0,73.401C20.27,73.401 36.701,56.967 36.701,36.7C36.701,16.434 20.27,0 0,0C-20.27,0 -36.7,16.434 -36.7,36.7C-36.7,56.967 -20.27,73.401 0,73.401" style="fill:rgb(35,31,32);fill-rule:nonzero;"/>
            </g>
        </g>
        <g transform="matrix(1,0,0,1,2160,0)">
            <g transform="matrix(1,0,0,1,900.426,5778.4)">
                <path d="M0,73.401C20.27,73.401 36.7,56.967 36.7,36.7C36.7,16.434 20.27,0 0,0C-20.27,0 -36.701,16.434 -36.701,36.7C-36.701,56.967 -20.27,73.401 0,73.401" style="fill:rgb(35,31,32);fill-rule:nonzero;"/>
            </g>
        </g>
        <g transform="matrix(1,0,0,1,2160,0)">
            <g transform="matrix(1,0,0,1,1004.41,5778.4)">
                <path d="M0,73.401C20.27,73.401 36.7,56.967 36.7,36.7C36.7,16.434 20.27,0 0,0C-20.27,0 -36.701,16.434 -36.701,36.7C-36.701,56.967 -20.27,73.401 0,73.401" style="fill:rgb(35,31,32);fill-rule:nonzero;"/>
            </g>
        </g>
        <g transform="matrix(1,0,0,1,2160,0)">
            <g transform="matrix(1,0,0,1,1108.4,5778.4)">
                <path d="M0,73.401C20.27,73.401 36.701,56.967 36.701,36.7C36.701,16.434 20.27,0 0,0C-20.27,0 -36.7,16.434 -36.7,36.7C-36.7,56.967 -20.27,73.401 0,73.401" style="fill:rgb(35,31,32);fill-rule:nonzero;"/>
            </g>
        </g>
        <g transform="matrix(1,0,0,1,2160,0)">
            <g transform="matrix(1,0,0,1,484.487,5881.9)">
                <path d="M0,73.401C20.27,73.401 36.7,56.967 36.7,36.7C36.7,16.434 20.27,0 0,0C-20.27,0 -36.701,16.434 -36.701,36.7C-36.701,56.967 -20.27,73.401 0,73.401" style="fill:rgb(35,31,32);fill-rule:nonzero;"/>
            </g>
        </g>
        <g transform="matrix(1,0,0,1,2160,0)">
            <g transform="matrix(1,0,0,1,588.472,5881.9)">
                <path d="M0,73.401C20.27,73.401 36.701,56.967 36.701,36.7C36.701,16.434 20.27,0 0,0C-20.27,0 -36.7,16.434 -36.7,36.7C-36.7,56.967 -20.27,73.401 0,73.401" style="fill:rgb(35,31,32);fill-rule:nonzero;"/>
            </g>
        </g>
        <g transform="matrix(1,0,0,1,2160,0)">
            <g transform="matrix(1,0,0,1,692.456,5881.9)">
                <path d="M0,73.401C20.27,73.401 36.701,56.967 36.701,36.7C36.701,16.434 20.27,0 0,0C-20.27,0 -36.7,16.434 -36.7,36.7C-36.7,56.967 -20.27,73.401 0,73.401" style="fill:rgb(35,31,32);fill-rule:nonzero;"/>
            </g>
        </g>
        <g transform="matrix(1,0,0,1,2160,0)">
            <g transform="matrix(1,0,0,1,796.441,5881.9)">
                <path d="M0,73.401C20.27,73.401 36.701,56.967 36.701,36.7C36.701,16.434 20.27,0 0,0C-20.27,0 -36.7,16.434 -36.7,36.7C-36.7,56.967 -20.27,73.401 0,73.401" style="fill:rgb(0,155,223);fill-rule:nonzero;"/>
            </g>
        </g>
        <g transform="matrix(1,0,0,1,2160,0)">
            <g transform="matrix(1,0,0,1,900.426,5881.9)">
                <path d="M0,73.401C20.27,73.401 36.7,56.967 36.7,36.7C36.7,16.434 20.27,0 0,0C-20.27,0 -36.701,16.434 -36.701,36.7C-36.701,56.967 -20.27,73.401 0,73.401" style="fill:rgb(35,31,32);fill-rule:nonzero;"/>
            </g>
        </g>
        <g transform="matrix(1,0,0,1,2160,0)">
            <g transform="matrix(1,0,0,1,1004.41,5881.9)">
                <path d="M0,73.401C20.27,73.401 36.7,56.967 36.7,36.7C36.7,16.434 20.27,0 0,0C-20.27,0 -36.701,16.434 -36.701,36.7C-36.701,56.967 -20.27,73.401 0,73.401" style="fill:rgb(35,31,32);fill-rule:nonzero;"/>
            </g>
        </g>
        <g transform="matrix(1,0,0,1,2160,0)">
            <g transform="matrix(1,0,0,1,1108.4,5881.9)">
                <path d="M0,73.401C20.27,73.401 36.701,56.967 36.701,36.7C36.701,16.434 20.27,0 0,0C-20.27,0 -36.7,16.434 -36.7,36.7C-36.7,56.967 -20.27,73.401 0,73.401" style="fill:rgb(35,31,32);fill-rule:nonzero;"/>
            </g>
        </g>
        <g transform="matrix(1,0,0,1,2160,0)">
            <g transform="matrix(1,0,0,1,276.517,5985.4)">
                <path d="M0,73.401C20.27,73.401 36.701,56.967 36.701,36.7C36.701,16.434 20.27,0 0,0C-20.27,0 -36.7,16.434 -36.7,36.7C-36.7,56.967 -20.27,73.401 0,73.401" style="fill:rgb(35,31,32);fill-rule:nonzero;"/>
            </g>
        </g>
        <g transform="matrix(1,0,0,1,2160,0)">
            <g transform="matrix(1,0,0,1,380.502,5985.4)">
                <path d="M0,73.401C20.27,73.401 36.7,56.967 36.7,36.7C36.7,16.434 20.27,0 0,0C-20.27,0 -36.701,16.434 -36.701,36.7C-36.701,56.967 -20.27,73.401 0,73.401" style="fill:rgb(35,31,32);fill-rule:nonzero;"/>
            </g>
        </g>
        <g transform="matrix(1,0,0,1,2160,0)">
            <g transform="matrix(1,0,0,1,484.487,5985.4)">
                <path d="M0,73.401C20.27,73.401 36.7,56.967 36.7,36.7C36.7,16.434 20.27,0 0,0C-20.27,0 -36.701,16.434 -36.701,36.7C-36.701,56.967 -20.27,73.401 0,73.401" style="fill:rgb(35,31,32);fill-rule:nonzero;"/>
            </g>
        </g>
        <g transform="matrix(1,0,0,1,2160,0)">
            <g transform="matrix(1,0,0,1,588.472,5985.4)">
                <path d="M0,73.401C20.27,73.401 36.701,56.967 36.701,36.7C36.701,16.434 20.27,0 0,0C-20.27,0 -36.7,16.434 -36.7,36.7C-36.7,56.967 -20.27,73.401 0,73.401" style="fill:rgb(35,31,32);fill-rule:nonzero;"/>
            </g>
        </g>
        <g transform="matrix(1,0,0,1,2160,0)">
            <g transform="matrix(1,0,0,1,692.456,5985.4)">
                <path d="M0,73.401C20.27,73.401 36.701,56.967 36.701,36.7C36.701,16.434 20.27,0 0,0C-20.27,0 -36.7,16.434 -36.7,36.7C-36.7,56.967 -20.27,73.401 0,73.401" style="fill:rgb(35,31,32);fill-rule:nonzero;"/>
            </g>
        </g>
        <g transform="matrix(1,0,0,1,2160,0)">
            <g transform="matrix(1,0,0,1,796.441,5985.4)">
                <path d="M0,73.401C20.27,73.401 36.701,56.967 36.701,36.7C36.701,16.434 20.27,0 0,0C-20.27,0 -36.7,16.434 -36.7,36.7C-36.7,56.967 -20.27,73.401 0,73.401" style="fill:rgb(35,31,32);fill-rule:nonzero;"/>
            </g>
        </g>
        <g transform="matrix(1,0,0,1,2160,0)">
            <g transform="matrix(1,0,0,1,900.426,5985.4)">
                <path d="M0,73.401C20.27,73.401 36.7,56.967 36.7,36.7C36.7,16.434 20.27,0 0,0C-20.27,0 -36.701,16.434 -36.701,36.7C-36.701,56.967 -20.27,73.401 0,73.401" style="fill:rgb(35,31,32);fill-rule:nonzero;"/>
            </g>
        </g>
        <g transform="matrix(1,0,0,1,2160,0)">
            <g transform="matrix(1,0,0,1,1004.41,5985.4)">
                <path d="M0,73.401C20.27,73.401 36.7,56.967 36.7,36.7C36.7,16.434 20.27,0 0,0C-20.27,0 -36.701,16.434 -36.701,36.7C-36.701,56.967 -20.27,73.401 0,73.401" style="fill:rgb(35,31,32);fill-rule:nonzero;"/>
            </g>
        </g>
        <g transform="matrix(1,0,0,1,2160,0)">
            <g transform="matrix(1,0,0,1,1108.4,5985.4)">
                <path d="M0,73.401C20.27,73.401 36.701,56.967 36.701,36.7C36.701,16.434 20.27,0 0,0C-20.27,0 -36.7,16.434 -36.7,36.7C-36.7,56.967 -20.27,73.401 0,73.401" style="fill:rgb(35,31,32);fill-rule:nonzero;"/>
            </g>
        </g>
        <g transform="matrix(1,0,0,1,2160,0)">
            <g transform="matrix(1,0,0,1,276.517,6088.9)">
                <path d="M0,73.401C20.27,73.401 36.701,56.967 36.701,36.7C36.701,16.433 20.27,0 0,0C-20.27,0 -36.7,16.433 -36.7,36.7C-36.7,56.967 -20.27,73.401 0,73.401" style="fill:rgb(35,31,32);fill-rule:nonzero;"/>
            </g>
        </g>
        <g transform="matrix(1,0,0,1,2160,0)">
            <g transform="matrix(1,0,0,1,380.502,6088.9)">
                <path d="M0,73.401C20.27,73.401 36.7,56.967 36.7,36.7C36.7,16.433 20.27,0 0,0C-20.27,0 -36.701,16.433 -36.701,36.7C-36.701,56.967 -20.27,73.401 0,73.401" style="fill:rgb(0,155,223);fill-rule:nonzero;"/>
            </g>
        </g>
        <g transform="matrix(1,0,0,1,2160,0)">
            <g transform="matrix(1,0,0,1,484.487,6088.9)">
                <path d="M0,73.401C20.27,73.401 36.7,56.967 36.7,36.7C36.7,16.433 20.27,0 0,0C-20.27,0 -36.701,16.433 -36.701,36.7C-36.701,56.967 -20.27,73.401 0,73.401" style="fill:rgb(35,31,32);fill-rule:nonzero;"/>
            </g>
        </g>
        <g transform="matrix(1,0,0,1,2160,0)">
            <g transform="matrix(1,0,0,1,588.472,6088.9)">
                <path d="M0,73.401C20.27,73.401 36.701,56.967 36.701,36.7C36.701,16.433 20.27,0 0,0C-20.27,0 -36.7,16.433 -36.7,36.7C-36.7,56.967 -20.27,73.401 0,73.401" style="fill:rgb(35,31,32);fill-rule:nonzero;"/>
            </g>
        </g>
        <g transform="matrix(1,0,0,1,2160,0)">
            <g transform="matrix(1,0,0,1,692.456,6088.9)">
                <path d="M0,73.401C20.27,73.401 36.701,56.967 36.701,36.7C36.701,16.433 20.27,0 0,0C-20.27,0 -36.7,16.433 -36.7,36.7C-36.7,56.967 -20.27,73.401 0,73.401" style="fill:rgb(35,31,32);fill-rule:nonzero;"/>
            </g>
        </g>
        <g transform="matrix(1,0,0,1,2160,0)">
            <g transform="matrix(1,0,0,1,796.441,6088.9)">
                <path d="M0,73.401C20.27,73.401 36.701,56.967 36.701,36.7C36.701,16.433 20.27,0 0,0C-20.27,0 -36.7,16.433 -36.7,36.7C-36.7,56.967 -20.27,73.401 0,73.401" style="fill:rgb(35,31,32);fill-rule:nonzero;"/>
            </g>
        </g>
        <g transform="matrix(1,0,0,1,2160,0)">
            <g transform="matrix(1,0,0,1,900.426,6088.9)">
                <path d="M0,73.401C20.27,73.401 36.7,56.967 36.7,36.7C36.7,16.433 20.27,0 0,0C-20.27,0 -36.701,16.433 -36.701,36.7C-36.701,56.967 -20.27,73.401 0,73.401" style="fill:rgb(35,31,32);fill-rule:nonzero;"/>
            </g>
        </g>
        <g transform="matrix(1,0,0,1,2160,0)">
            <g transform="matrix(1,0,0,1,1004.41,6088.9)">
                <path d="M0,73.401C20.27,73.401 36.7,56.967 36.7,36.7C36.7,16.433 20.27,0 0,0C-20.27,0 -36.701,16.433 -36.701,36.7C-36.701,56.967 -20.27,73.401 0,73.401" style="fill:rgb(35,31,32);fill-rule:nonzero;"/>
            </g>
        </g>
        <g transform="matrix(1,0,0,1,2160,0)">
            <g transform="matrix(1,0,0,1,1108.4,6088.9)">
                <path d="M0,73.401C20.27,73.401 36.701,56.967 36.701,36.7C36.701,16.433 20.27,0 0,0C-20.27,0 -36.7,16.433 -36.7,36.7C-36.7,56.967 -20.27,73.401 0,73.401" style="fill:rgb(35,31,32);fill-rule:nonzero;"/>
            </g>
        </g>
        <g transform="matrix(1,0,0,1,2160,0)">
            <g transform="matrix(1,0,0,1,276.517,6192.4)">
                <path d="M0,73.401C20.27,73.401 36.701,56.967 36.701,36.7C36.701,16.433 20.27,0 0,0C-20.27,0 -36.7,16.433 -36.7,36.7C-36.7,56.967 -20.27,73.401 0,73.401" style="fill:rgb(35,31,32);fill-rule:nonzero;"/>
            </g>
        </g>
        <g transform="matrix(1,0,0,1,2160,0)">
            <g transform="matrix(1,0,0,1,380.502,6192.4)">
                <path d="M0,73.401C20.27,73.401 36.7,56.967 36.7,36.7C36.7,16.433 20.27,0 0,0C-20.27,0 -36.701,16.433 -36.701,36.7C-36.701,56.967 -20.27,73.401 0,73.401" style="fill:rgb(35,31,32);fill-rule:nonzero;"/>
            </g>
        </g>
        <g transform="matrix(1,0,0,1,2160,0)">
            <g transform="matrix(1,0,0,1,484.487,6192.4)">
                <path d="M0,73.401C20.27,73.401 36.7,56.967 36.7,36.7C36.7,16.433 20.27,0 0,0C-20.27,0 -36.701,16.433 -36.701,36.7C-36.701,56.967 -20.27,73.401 0,73.401" style="fill:rgb(35,31,32);fill-rule:nonzero;"/>
            </g>
        </g>
        <g transform="matrix(1,0,0,1,2160,0)">
            <g transform="matrix(1,0,0,1,588.472,6192.4)">
                <path d="M0,73.401C20.27,73.401 36.701,56.967 36.701,36.7C36.701,16.433 20.27,0 0,0C-20.27,0 -36.7,16.433 -36.7,36.7C-36.7,56.967 -20.27,73.401 0,73.401" style="fill:rgb(35,31,32);fill-rule:nonzero;"/>
            </g>
        </g>
        <g transform="matrix(1,0,0,1,2160,0)">
            <g transform="matrix(1,0,0,1,692.456,6192.4)">
                <path d="M0,73.401C20.27,73.401 36.701,56.967 36.701,36.7C36.701,16.433 20.27,0 0,0C-20.27,0 -36.7,16.433 -36.7,36.7C-36.7,56.967 -20.27,73.401 0,73.401" style="fill:rgb(35,31,32);fill-rule:nonzero;"/>
            </g>
        </g>
        <g transform="matrix(1,0,0,1,2160,0)">
            <g transform="matrix(1,0,0,1,796.441,6192.4)">
                <path d="M0,73.401C20.27,73.401 36.701,56.967 36.701,36.7C36.701,16.433 20.27,0 0,0C-20.27,0 -36.7,16.433 -36.7,36.7C-36.7,56.967 -20.27,73.401 0,73.401" style="fill:rgb(35,31,32);fill-rule:nonzero;"/>
            </g>
        </g>
        <g transform="matrix(1,0,0,1,2160,0)">
            <g transform="matrix(1,0,0,1,900.426,6192.4)">
                <path d="M0,73.401C20.27,73.401 36.7,56.967 36.7,36.7C36.7,16.433 20.27,0 0,0C-20.27,0 -36.701,16.433 -36.701,36.7C-36.701,56.967 -20.27,73.401 0,73.401" style="fill:rgb(35,31,32);fill-rule:nonzero;"/>
            </g>
        </g>
        <g transform="matrix(1,0,0,1,2160,0)">
            <g transform="matrix(1,0,0,1,1004.41,6192.4)">
                <path d="M0,73.401C20.27,73.401 36.7,56.967 36.7,36.7C36.7,16.433 20.27,0 0,0C-20.27,0 -36.701,16.433 -36.701,36.7C-36.701,56.967 -20.27,73.401 0,73.401" style="fill:rgb(35,31,32);fill-rule:nonzero;"/>
            </g>
        </g>
        <g transform="matrix(1,0,0,1,2160,0)">
            <g transform="matrix(1,0,0,1,1108.4,6192.4)">
                <path d="M0,73.401C20.27,73.401 36.701,56.967 36.701,36.7C36.701,16.433 20.27,0 0,0C-20.27,0 -36.7,16.433 -36.7,36.7C-36.7,56.967 -20.27,73.401 0,73.401" style="fill:rgb(0,155,223);fill-rule:nonzero;"/>
            </g>
        </g>
        <g transform="matrix(1,0,0,1,2160,0)">
            <g transform="matrix(1,0,0,1,276.517,6295.89)">
                <path d="M0,73.401C20.27,73.401 36.701,56.967 36.701,36.701C36.701,16.434 20.27,0 0,0C-20.27,0 -36.7,16.434 -36.7,36.701C-36.7,56.967 -20.27,73.401 0,73.401" style="fill:rgb(0,155,223);fill-rule:nonzero;"/>
            </g>
        </g>
        <g transform="matrix(1,0,0,1,2160,0)">
            <g transform="matrix(1,0,0,1,380.502,6295.89)">
                <path d="M0,73.401C20.27,73.401 36.7,56.967 36.7,36.701C36.7,16.434 20.27,0 0,0C-20.27,0 -36.701,16.434 -36.701,36.701C-36.701,56.967 -20.27,73.401 0,73.401" style="fill:rgb(35,31,32);fill-rule:nonzero;"/>
            </g>
        </g>
        <g transform="matrix(1,0,0,1,2160,0)">
            <g transform="matrix(1,0,0,1,484.487,6295.89)">
                <path d="M0,73.401C20.27,73.401 36.7,56.967 36.7,36.701C36.7,16.434 20.27,0 0,0C-20.27,0 -36.701,16.434 -36.701,36.701C-36.701,56.967 -20.27,73.401 0,73.401" style="fill:rgb(35,31,32);fill-rule:nonzero;"/>
            </g>
        </g>
        <g transform="matrix(1,0,0,1,2160,0)">
            <g transform="matrix(1,0,0,1,588.472,6295.89)">
                <path d="M0,73.401C20.27,73.401 36.701,56.967 36.701,36.701C36.701,16.434 20.27,0 0,0C-20.27,0 -36.7,16.434 -36.7,36.701C-36.7,56.967 -20.27,73.401 0,73.401" style="fill:rgb(35,31,32);fill-rule:nonzero;"/>
            </g>
        </g>
        <g transform="matrix(1,0,0,1,2160,0)">
            <g transform="matrix(1,0,0,1,692.456,6295.89)">
                <path d="M0,73.401C20.27,73.401 36.701,56.967 36.701,36.701C36.701,16.434 20.27,0 0,0C-20.27,0 -36.7,16.434 -36.7,36.701C-36.7,56.967 -20.27,73.401 0,73.401" style="fill:rgb(35,31,32);fill-rule:nonzero;"/>
            </g>
        </g>
        <g transform="matrix(1,0,0,1,2160,0)">
            <g transform="matrix(1,0,0,1,796.441,6295.89)">
                <path d="M0,73.401C20.27,73.401 36.701,56.967 36.701,36.701C36.701,16.434 20.27,0 0,0C-20.27,0 -36.7,16.434 -36.7,36.701C-36.7,56.967 -20.27,73.401 0,73.401" style="fill:rgb(35,31,32);fill-rule:nonzero;"/>
            </g>
        </g>
        <g transform="matrix(1,0,0,1,2160,0)">
            <g transform="matrix(1,0,0,1,900.426,6295.89)">
                <path d="M0,73.401C20.27,73.401 36.7,56.967 36.7,36.701C36.7,16.434 20.27,0 0,0C-20.27,0 -36.701,16.434 -36.701,36.701C-36.701,56.967 -20.27,73.401 0,73.401" style="fill:rgb(35,31,32);fill-rule:nonzero;"/>
            </g>
        </g>
        <g transform="matrix(1,0,0,1,2160,0)">
            <g transform="matrix(1,0,0,1,1004.41,6295.89)">
                <path d="M0,73.401C20.27,73.401 36.7,56.967 36.7,36.701C36.7,16.434 20.27,0 0,0C-20.27,0 -36.701,16.434 -36.701,36.701C-36.701,56.967 -20.27,73.401 0,73.401" style="fill:rgb(35,31,32);fill-rule:nonzero;"/>
            </g>
        </g>
        <g transform="matrix(1,0,0,1,2160,0)">
            <g transform="matrix(1,0,0,1,276.517,6399.39)">
                <path d="M0,73.401C20.27,73.401 36.701,56.967 36.701,36.701C36.701,16.434 20.27,0 0,0C-20.27,0 -36.7,16.434 -36.7,36.701C-36.7,56.967 -20.27,73.401 0,73.401" style="fill:rgb(35,31,32);fill-rule:nonzero;"/>
            </g>
        </g>
        <g transform="matrix(1,0,0,1,2160,0)">
            <g transform="matrix(1,0,0,1,380.502,6399.39)">
                <path d="M0,73.401C20.27,73.401 36.7,56.967 36.7,36.701C36.7,16.434 20.27,0 0,0C-20.27,0 -36.701,16.434 -36.701,36.701C-36.701,56.967 -20.27,73.401 0,73.401" style="fill:rgb(0,155,223);fill-rule:nonzero;"/>
            </g>
        </g>
        <g transform="matrix(1,0,0,1,2160,0)">
            <g transform="matrix(1,0,0,1,484.487,6399.39)">
                <path d="M0,73.401C20.27,73.401 36.7,56.967 36.7,36.701C36.7,16.434 20.27,0 0,0C-20.27,0 -36.701,16.434 -36.701,36.701C-36.701,56.967 -20.27,73.401 0,73.401" style="fill:rgb(35,31,32);fill-rule:nonzero;"/>
            </g>
        </g>
        <g transform="matrix(1,0,0,1,2160,0)">
            <g transform="matrix(1,0,0,1,588.472,6399.39)">
                <path d="M0,73.401C20.27,73.401 36.701,56.967 36.701,36.701C36.701,16.434 20.27,0 0,0C-20.27,0 -36.7,16.434 -36.7,36.701C-36.7,56.967 -20.27,73.401 0,73.401" style="fill:rgb(35,31,32);fill-rule:nonzero;"/>
            </g>
        </g>
        <g transform="matrix(1,0,0,1,2160,0)">
            <g transform="matrix(1,0,0,1,692.456,6399.39)">
                <path d="M0,73.401C20.27,73.401 36.701,56.967 36.701,36.701C36.701,16.434 20.27,0 0,0C-20.27,0 -36.7,16.434 -36.7,36.701C-36.7,56.967 -20.27,73.401 0,73.401" style="fill:rgb(35,31,32);fill-rule:nonzero;"/>
            </g>
        </g>
        <g transform="matrix(1,0,0,1,2160,0)">
            <g transform="matrix(1,0,0,1,796.441,6399.39)">
                <path d="M0,73.401C20.27,73.401 36.701,56.967 36.701,36.701C36.701,16.434 20.27,0 0,0C-20.27,0 -36.7,16.434 -36.7,36.701C-36.7,56.967 -20.27,73.401 0,73.401" style="fill:rgb(35,31,32);fill-rule:nonzero;"/>
            </g>
        </g>
        <g transform="matrix(1,0,0,1,2160,0)">
            <g transform="matrix(1,0,0,1,900.426,6399.39)">
                <path d="M0,73.401C20.27,73.401 36.7,56.967 36.7,36.701C36.7,16.434 20.27,0 0,0C-20.27,0 -36.701,16.434 -36.701,36.701C-36.701,56.967 -20.27,73.401 0,73.401" style="fill:rgb(35,31,32);fill-rule:nonzero;"/>
            </g>
        </g>
        <g transform="matrix(1,0,0,1,2160,0)">
            <g transform="matrix(1,0,0,1,276.517,6502.89)">
                <path d="M0,73.401C20.27,73.401 36.701,56.967 36.701,36.7C36.701,16.434 20.27,0 0,0C-20.27,0 -36.7,16.434 -36.7,36.7C-36.7,56.967 -20.27,73.401 0,73.401" style="fill:rgb(35,31,32);fill-rule:nonzero;"/>
            </g>
        </g>
        <g transform="matrix(1,0,0,1,2160,0)">
            <g transform="matrix(1,0,0,1,380.502,6502.89)">
                <path d="M0,73.401C20.27,73.401 36.7,56.967 36.7,36.7C36.7,16.434 20.27,0 0,0C-20.27,0 -36.701,16.434 -36.701,36.7C-36.701,56.967 -20.27,73.401 0,73.401" style="fill:rgb(35,31,32);fill-rule:nonzero;"/>
            </g>
        </g>
        <g transform="matrix(1,0,0,1,2160,0)">
            <g transform="matrix(1,0,0,1,484.487,6502.89)">
                <path d="M0,73.401C20.27,73.401 36.7,56.967 36.7,36.7C36.7,16.434 20.27,0 0,0C-20.27,0 -36.701,16.434 -36.701,36.7C-36.701,56.967 -20.27,73.401 0,73.401" style="fill:rgb(35,31,32);fill-rule:nonzero;"/>
            </g>
        </g>
        <g transform="matrix(1,0,0,1,2160,0)">
            <g transform="matrix(1,0,0,1,588.472,6502.89)">
                <path d="M0,73.401C20.27,73.401 36.701,56.967 36.701,36.7C36.701,16.434 20.27,0 0,0C-20.27,0 -36.7,16.434 -36.7,36.7C-36.7,56.967 -20.27,73.401 0,73.401" style="fill:rgb(35,31,32);fill-rule:nonzero;"/>
            </g>
        </g>
        <g transform="matrix(1,0,0,1,2160,0)">
            <g transform="matrix(1,0,0,1,692.456,6502.89)">
                <path d="M0,73.401C20.27,73.401 36.701,56.967 36.701,36.7C36.701,16.434 20.27,0 0,0C-20.27,0 -36.7,16.434 -36.7,36.7C-36.7,56.967 -20.27,73.401 0,73.401" style="fill:rgb(35,31,32);fill-rule:nonzero;"/>
            </g>
        </g>
        <g transform="matrix(1,0,0,1,2160,0)">
            <g transform="matrix(1,0,0,1,796.441,6502.89)">
                <path d="M0,73.401C20.27,73.401 36.701,56.967 36.701,36.7C36.701,16.434 20.27,0 0,0C-20.27,0 -36.7,16.434 -36.7,36.7C-36.7,56.967 -20.27,73.401 0,73.401" style="fill:rgb(35,31,32);fill-rule:nonzero;"/>
            </g>
        </g>
        <g transform="matrix(1,0,0,1,2160,0)">
            <g transform="matrix(1,0,0,1,1004.41,6399.39)">
                <path d="M0,73.401C20.27,73.401 36.7,56.967 36.7,36.701C36.7,16.434 20.27,0 0,0C-20.27,0 -36.701,16.434 -36.701,36.701C-36.701,56.967 -20.27,73.401 0,73.401" style="fill:rgb(35,31,32);fill-rule:nonzero;"/>
            </g>
        </g>
        <g transform="matrix(1,0,0,1,2160,0)">
            <g transform="matrix(1,0,0,1,1108.4,6295.89)">
                <path d="M0,73.401C20.27,73.401 36.701,56.967 36.701,36.701C36.701,16.434 20.27,0 0,0C-20.27,0 -36.7,16.434 -36.7,36.701C-36.7,56.967 -20.27,73.401 0,73.401" style="fill:rgb(35,31,32);fill-rule:nonzero;"/>
            </g>
        </g>
        <g transform="matrix(1,0,0,1,2160,0)">
            <g transform="matrix(1,0,0,1,1212.38,5778.4)">
                <path d="M0,73.401C20.27,73.401 36.701,56.967 36.701,36.7C36.701,16.434 20.27,0 0,0C-20.27,0 -36.7,16.434 -36.7,36.7C-36.7,56.967 -20.27,73.401 0,73.401" style="fill:rgb(35,31,32);fill-rule:nonzero;"/>
            </g>
        </g>
        <g transform="matrix(1,0,0,1,2160,0)">
            <g transform="matrix(1,0,0,1,1316.37,5778.4)">
                <path d="M0,73.401C20.27,73.401 36.701,56.967 36.701,36.7C36.701,16.434 20.27,0 0,0C-20.27,0 -36.701,16.434 -36.701,36.7C-36.701,56.967 -20.27,73.401 0,73.401" style="fill:rgb(35,31,32);fill-rule:nonzero;"/>
            </g>
        </g>
        <g transform="matrix(1,0,0,1,2160,0)">
            <g transform="matrix(1,0,0,1,1420.35,5778.4)">
                <path d="M0,73.401C20.27,73.401 36.701,56.967 36.701,36.7C36.701,16.434 20.27,0 0,0C-20.27,0 -36.701,16.434 -36.701,36.7C-36.701,56.967 -20.27,73.401 0,73.401" style="fill:rgb(35,31,32);fill-rule:nonzero;"/>
            </g>
        </g>
        <g transform="matrix(1,0,0,1,2160,0)">
            <g transform="matrix(1,0,0,1,1524.34,5778.4)">
                <path d="M0,73.401C20.27,73.401 36.701,56.967 36.701,36.7C36.701,16.434 20.27,0 0,0C-20.27,0 -36.701,16.434 -36.701,36.7C-36.701,56.967 -20.27,73.401 0,73.401" style="fill:rgb(35,31,32);fill-rule:nonzero;"/>
            </g>
        </g>
        <g transform="matrix(1,0,0,1,2160,0)">
            <g transform="matrix(1,0,0,1,1628.32,5778.4)">
                <path d="M0,73.401C20.27,73.401 36.701,56.967 36.701,36.7C36.701,16.434 20.27,0 0,0C-20.27,0 -36.701,16.434 -36.701,36.7C-36.701,56.967 -20.27,73.401 0,73.401" style="fill:rgb(0,155,223);fill-rule:nonzero;"/>
            </g>
        </g>
        <g transform="matrix(1,0,0,1,2160,0)">
            <g transform="matrix(1,0,0,1,1212.38,5881.9)">
                <path d="M0,73.401C20.27,73.401 36.701,56.967 36.701,36.7C36.701,16.434 20.27,0 0,0C-20.27,0 -36.7,16.434 -36.7,36.7C-36.7,56.967 -20.27,73.401 0,73.401" style="fill:rgb(35,31,32);fill-rule:nonzero;"/>
            </g>
        </g>
        <g transform="matrix(1,0,0,1,2160,0)">
            <g transform="matrix(1,0,0,1,1316.37,5881.9)">
                <path d="M0,73.401C20.27,73.401 36.701,56.967 36.701,36.7C36.701,16.434 20.27,0 0,0C-20.27,0 -36.701,16.434 -36.701,36.7C-36.701,56.967 -20.27,73.401 0,73.401" style="fill:rgb(35,31,32);fill-rule:nonzero;"/>
            </g>
        </g>
        <g transform="matrix(1,0,0,1,2160,0)">
            <g transform="matrix(1,0,0,1,1420.35,5881.9)">
                <path d="M0,73.401C20.27,73.401 36.701,56.967 36.701,36.7C36.701,16.434 20.27,0 0,0C-20.27,0 -36.701,16.434 -36.701,36.7C-36.701,56.967 -20.27,73.401 0,73.401" style="fill:rgb(35,31,32);fill-rule:nonzero;"/>
            </g>
        </g>
        <g transform="matrix(1,0,0,1,2160,0)">
            <g transform="matrix(1,0,0,1,1524.34,5881.9)">
                <path d="M0,73.401C20.27,73.401 36.701,56.967 36.701,36.7C36.701,16.434 20.27,0 0,0C-20.27,0 -36.701,16.434 -36.701,36.7C-36.701,56.967 -20.27,73.401 0,73.401" style="fill:rgb(35,31,32);fill-rule:nonzero;"/>
            </g>
        </g>
        <g transform="matrix(1,0,0,1,2160,0)">
            <g transform="matrix(1,0,0,1,1628.32,5881.9)">
                <path d="M0,73.401C20.27,73.401 36.701,56.967 36.701,36.7C36.701,16.434 20.27,0 0,0C-20.27,0 -36.701,16.434 -36.701,36.7C-36.701,56.967 -20.27,73.401 0,73.401" style="fill:rgb(35,31,32);fill-rule:nonzero;"/>
            </g>
        </g>
        <g transform="matrix(1,0,0,1,2160,0)">
            <g transform="matrix(1,0,0,1,1212.38,5985.4)">
                <path d="M0,73.401C20.27,73.401 36.701,56.967 36.701,36.7C36.701,16.434 20.27,0 0,0C-20.27,0 -36.7,16.434 -36.7,36.7C-36.7,56.967 -20.27,73.401 0,73.401" style="fill:rgb(35,31,32);fill-rule:nonzero;"/>
            </g>
        </g>
        <g transform="matrix(1,0,0,1,2160,0)">
            <g transform="matrix(1,0,0,1,1316.37,5985.4)">
                <path d="M0,73.401C20.27,73.401 36.701,56.967 36.701,36.7C36.701,16.434 20.27,0 0,0C-20.27,0 -36.701,16.434 -36.701,36.7C-36.701,56.967 -20.27,73.401 0,73.401" style="fill:rgb(35,31,32);fill-rule:nonzero;"/>
            </g>
        </g>
        <g transform="matrix(1,0,0,1,2160,0)">
            <g transform="matrix(1,0,0,1,1420.35,5985.4)">
                <path d="M0,73.401C20.27,73.401 36.701,56.967 36.701,36.7C36.701,16.434 20.27,0 0,0C-20.27,0 -36.701,16.434 -36.701,36.7C-36.701,56.967 -20.27,73.401 0,73.401" style="fill:rgb(0,155,223);fill-rule:nonzero;"/>
            </g>
        </g>
        <g transform="matrix(1,0,0,1,2160,0)">
            <g transform="matrix(1,0,0,1,1524.34,5985.4)">
                <path d="M0,73.401C20.27,73.401 36.701,56.967 36.701,36.7C36.701,16.434 20.27,0 0,0C-20.27,0 -36.701,16.434 -36.701,36.7C-36.701,56.967 -20.27,73.401 0,73.401" style="fill:rgb(35,31,32);fill-rule:nonzero;"/>
            </g>
        </g>
        <g transform="matrix(1,0,0,1,2160,0)">
            <g transform="matrix(1,0,0,1,1628.32,5985.4)">
                <path d="M0,73.401C20.27,73.401 36.701,56.967 36.701,36.7C36.701,16.434 20.27,0 0,0C-20.27,0 -36.701,16.434 -36.701,36.7C-36.701,56.967 -20.27,73.401 0,73.401" style="fill:rgb(35,31,32);fill-rule:nonzero;"/>
            </g>
        </g>
        <g transform="matrix(1,0,0,1,2160,0)">
            <g transform="matrix(1,0,0,1,1212.38,6088.9)">
                <path d="M0,73.401C20.27,73.401 36.701,56.967 36.701,36.7C36.701,16.433 20.27,0 0,0C-20.27,0 -36.7,16.433 -36.7,36.7C-36.7,56.967 -20.27,73.401 0,73.401" style="fill:rgb(35,31,32);fill-rule:nonzero;"/>
            </g>
        </g>
        <g transform="matrix(1,0,0,1,2160,0)">
            <g transform="matrix(1,0,0,1,1316.37,6088.9)">
                <path d="M0,73.401C20.27,73.401 36.701,56.967 36.701,36.7C36.701,16.433 20.27,0 0,0C-20.27,0 -36.701,16.433 -36.701,36.7C-36.701,56.967 -20.27,73.401 0,73.401" style="fill:rgb(35,31,32);fill-rule:nonzero;"/>
            </g>
        </g>
        <g transform="matrix(1,0,0,1,2160,0)">
            <g transform="matrix(1,0,0,1,1420.35,6088.9)">
                <path d="M0,73.401C20.27,73.401 36.701,56.967 36.701,36.7C36.701,16.433 20.27,0 0,0C-20.27,0 -36.701,16.433 -36.701,36.7C-36.701,56.967 -20.27,73.401 0,73.401" style="fill:rgb(35,31,32);fill-rule:nonzero;"/>
            </g>
        </g>
        <g transform="matrix(1,0,0,1,2160,0)">
            <g transform="matrix(1,0,0,1,1524.34,6088.9)">
                <path d="M0,73.401C20.27,73.401 36.701,56.967 36.701,36.7C36.701,16.433 20.27,0 0,0C-20.27,0 -36.701,16.433 -36.701,36.7C-36.701,56.967 -20.27,73.401 0,73.401" style="fill:rgb(35,31,32);fill-rule:nonzero;"/>
            </g>
        </g>
        <g transform="matrix(1,0,0,1,2160,0)">
            <g transform="matrix(1,0,0,1,1628.32,6088.9)">
                <path d="M0,73.401C20.27,73.401 36.701,56.967 36.701,36.7C36.701,16.433 20.27,0 0,0C-20.27,0 -36.701,16.433 -36.701,36.7C-36.701,56.967 -20.27,73.401 0,73.401" style="fill:rgb(35,31,32);fill-rule:nonzero;"/>
            </g>
        </g>
        <g transform="matrix(1,0,0,1,2160,0)">
            <g transform="matrix(1,0,0,1,1212.38,6192.4)">
                <path d="M0,73.401C20.27,73.401 36.701,56.967 36.701,36.7C36.701,16.433 20.27,0 0,0C-20.27,0 -36.7,16.433 -36.7,36.7C-36.7,56.967 -20.27,73.401 0,73.401" style="fill:rgb(35,31,32);fill-rule:nonzero;"/>
            </g>
        </g>
        <g transform="matrix(1,0,0,1,2160,0)">
            <g transform="matrix(1,0,0,1,1212.38,6295.89)">
                <path d="M0,73.401C20.27,73.401 36.701,56.967 36.701,36.701C36.701,16.434 20.27,0 0,0C-20.27,0 -36.7,16.434 -36.7,36.701C-36.7,56.967 -20.27,73.401 0,73.401" style="fill:rgb(35,31,32);fill-rule:nonzero;"/>
            </g>
        </g>
        <g transform="matrix(1,0,0,1,2160,0)">
            <g transform="matrix(1,0,0,1,1316.37,6192.4)">
                <path d="M0,73.401C20.27,73.401 36.701,56.967 36.701,36.7C36.701,16.433 20.27,0 0,0C-20.27,0 -36.701,16.433 -36.701,36.7C-36.701,56.967 -20.27,73.401 0,73.401" style="fill:rgb(35,31,32);fill-rule:nonzero;"/>
            </g>
        </g>
        <g transform="matrix(1,0,0,1,2160,0)">
            <g transform="matrix(1,0,0,1,1316.37,6295.89)">
                <path d="M0,73.401C20.27,73.401 36.701,56.967 36.701,36.701C36.701,16.434 20.27,0 0,0C-20.27,0 -36.701,16.434 -36.701,36.701C-36.701,56.967 -20.27,73.401 0,73.401" style="fill:rgb(35,31,32);fill-rule:nonzero;"/>
            </g>
        </g>
        <g transform="matrix(1,0,0,1,2160,0)">
            <g transform="matrix(1,0,0,1,1420.35,6192.4)">
                <path d="M0,73.401C20.27,73.401 36.701,56.967 36.701,36.7C36.701,16.433 20.27,0 0,0C-20.27,0 -36.701,16.433 -36.701,36.7C-36.701,56.967 -20.27,73.401 0,73.401" style="fill:rgb(35,31,32);fill-rule:nonzero;"/>
            </g>
        </g>
        <g transform="matrix(1,0,0,1,2160,0)">
            <g transform="matrix(1,0,0,1,1420.35,6295.89)">
                <path d="M0,73.401C20.27,73.401 36.701,56.967 36.701,36.701C36.701,16.434 20.27,0 0,0C-20.27,0 -36.701,16.434 -36.701,36.701C-36.701,56.967 -20.27,73.401 0,73.401" style="fill:rgb(35,31,32);fill-rule:nonzero;"/>
            </g>
        </g>
        <g transform="matrix(1,0,0,1,2160,0)">
            <g transform="matrix(1,0,0,1,1524.34,6192.4)">
                <path d="M0,73.401C20.27,73.401 36.701,56.967 36.701,36.7C36.701,16.433 20.27,0 0,0C-20.27,0 -36.701,16.433 -36.701,36.7C-36.701,56.967 -20.27,73.401 0,73.401" style="fill:rgb(0,155,223);fill-rule:nonzero;"/>
            </g>
        </g>
        <g transform="matrix(1,0,0,1,2160,0)">
            <g transform="matrix(1,0,0,1,1524.34,6295.89)">
                <path d="M0,73.401C20.27,73.401 36.701,56.967 36.701,36.701C36.701,16.434 20.27,0 0,0C-20.27,0 -36.701,16.434 -36.701,36.701C-36.701,56.967 -20.27,73.401 0,73.401" style="fill:rgb(35,31,32);fill-rule:nonzero;"/>
            </g>
        </g>
        <g transform="matrix(1,0,0,1,2160,0)">
            <g transform="matrix(1,0,0,1,1628.32,6192.4)">
                <path d="M0,73.401C20.27,73.401 36.701,56.967 36.701,36.7C36.701,16.433 20.27,0 0,0C-20.27,0 -36.701,16.433 -36.701,36.7C-36.701,56.967 -20.27,73.401 0,73.401" style="fill:rgb(35,31,32);fill-rule:nonzero;"/>
            </g>
        </g>
        <g transform="matrix(1,0,0,1,2160,0)">
            <g transform="matrix(1,0,0,1,1628.32,6295.89)">
                <path d="M0,73.401C20.27,73.401 36.701,56.967 36.701,36.701C36.701,16.434 20.27,0 0,0C-20.27,0 -36.701,16.434 -36.701,36.701C-36.701,56.967 -20.27,73.401 0,73.401" style="fill:rgb(35,31,32);fill-rule:nonzero;"/>
            </g>
        </g>
        <g transform="matrix(1,0,0,1,2160,0)">
            <g transform="matrix(1,0,0,1,1108.4,6399.39)">
                <path d="M0,73.401C20.27,73.401 36.701,56.967 36.701,36.701C36.701,16.434 20.27,0 0,0C-20.27,0 -36.7,16.434 -36.7,36.701C-36.7,56.967 -20.27,73.401 0,73.401" style="fill:rgb(35,31,32);fill-rule:nonzero;"/>
            </g>
        </g>
        <g transform="matrix(1,0,0,1,2160,0)">
            <g transform="matrix(1,0,0,1,1212.38,6399.39)">
                <path d="M0,73.401C20.27,73.401 36.701,56.967 36.701,36.701C36.701,16.434 20.27,0 0,0C-20.27,0 -36.7,16.434 -36.7,36.701C-36.7,56.967 -20.27,73.401 0,73.401" style="fill:rgb(35,31,32);fill-rule:nonzero;"/>
            </g>
        </g>
        <g transform="matrix(1,0,0,1,2160,0)">
            <g transform="matrix(1,0,0,1,1316.37,6399.39)">
                <path d="M0,73.401C20.27,73.401 36.701,56.967 36.701,36.701C36.701,16.434 20.27,0 0,0C-20.27,0 -36.701,16.434 -36.701,36.701C-36.701,56.967 -20.27,73.401 0,73.401" style="fill:rgb(35,31,32);fill-rule:nonzero;"/>
            </g>
        </g>
        <g transform="matrix(1,0,0,1,2160,0)">
            <g transform="matrix(1,0,0,1,1420.35,6399.39)">
                <path d="M0,73.401C20.27,73.401 36.701,56.967 36.701,36.701C36.701,16.434 20.27,0 0,0C-20.27,0 -36.701,16.434 -36.701,36.701C-36.701,56.967 -20.27,73.401 0,73.401" style="fill:rgb(35,31,32);fill-rule:nonzero;"/>
            </g>
        </g>
        <g transform="matrix(1,0,0,1,2160,0)">
            <g transform="matrix(1,0,0,1,1524.34,6399.39)">
                <path d="M0,73.401C20.27,73.401 36.701,56.967 36.701,36.701C36.701,16.434 20.27,0 0,0C-20.27,0 -36.701,16.434 -36.701,36.701C-36.701,56.967 -20.27,73.401 0,73.401" style="fill:rgb(35,31,32);fill-rule:nonzero;"/>
            </g>
        </g>
        <g transform="matrix(1,0,0,1,2160,0)">
            <g transform="matrix(1,0,0,1,1628.32,6399.39)">
                <path d="M0,73.401C20.27,73.401 36.701,56.967 36.701,36.701C36.701,16.434 20.27,0 0,0C-20.27,0 -36.701,16.434 -36.701,36.701C-36.701,56.967 -20.27,73.401 0,73.401" style="fill:rgb(35,31,32);fill-rule:nonzero;"/>
            </g>
        </g>
        <g transform="matrix(1,0,0,1,2160,0)">
            <g>
                <path d="M320.135,5830.27C320.135,5805.49 307.081,5791.33 283.185,5791.33C259.288,5791.33 246.234,5805.49 246.234,5830.27L246.234,5858.59C246.234,5881.38 255.306,5893.99 273.228,5893.99C284.07,5893.99 291.593,5889.13 295.797,5880.28L295.797,5908.6C295.797,5923.42 290.929,5927.63 282.3,5927.63C274.555,5927.63 269.688,5923.42 269.688,5912.36L269.688,5906.83L246.677,5906.83L246.677,5910.81C246.677,5935.59 259.067,5949.75 282.963,5949.75C308.187,5949.75 320.135,5935.59 320.135,5909.48L320.135,5830.27ZM283.185,5871.87C275.44,5871.87 270.573,5867.66 270.573,5856.6L270.573,5828.72C270.573,5817.66 275.44,5813.68 283.185,5813.68C290.929,5813.68 295.797,5817.66 295.797,5828.72L295.797,5856.6C295.797,5867.66 290.929,5871.87 283.185,5871.87Z" style="fill:rgb(0,155,223);fill-rule:nonzero;"/>
                <path d="M364.19,5951.3L384.103,5951.3L384.103,5940.02C401.804,5936.7 410.876,5923.2 410.876,5901.96L410.876,5885.81L387.865,5885.81L387.865,5903.51C387.865,5914.57 382.997,5918.56 375.253,5918.56C367.509,5918.56 362.641,5914.57 362.641,5903.51L362.641,5837.57C362.641,5826.51 367.509,5822.31 375.253,5822.31C382.997,5822.31 387.865,5826.51 387.865,5837.57L387.865,5849.74L410.876,5849.74L410.876,5839.12C410.876,5817.88 401.804,5804.61 384.103,5801.07L384.103,5789.78L364.19,5789.78L364.19,5801.29C347.153,5805.05 338.302,5818.32 338.302,5839.12L338.302,5901.96C338.302,5922.98 347.153,5936.26 364.19,5939.8L364.19,5951.3Z" style="fill:rgb(0,155,223);fill-rule:nonzero;"/>
            </g>
        </g>
        <g transform="matrix(1,0,0,1,2160,0)">
            <g>
                <path d="M896.861,6556.07C898.778,6558.19 901.232,6559.25 904.223,6559.25C907.214,6559.25 909.669,6558.19 911.586,6556.07C913.503,6553.95 914.462,6551.2 914.462,6547.83C914.462,6544.45 913.503,6541.69 911.586,6539.54C909.669,6537.4 907.214,6536.32 904.223,6536.32C901.232,6536.32 898.778,6537.4 896.861,6539.54C894.943,6541.69 893.985,6544.45 893.985,6547.83C893.985,6551.2 894.943,6553.95 896.861,6556.07ZM919.83,6562.94C915.689,6567.03 910.487,6569.07 904.223,6569.07C897.96,6569.07 892.758,6567.03 888.616,6562.94C884.475,6558.85 882.404,6553.81 882.404,6547.83C882.404,6541.85 884.475,6536.8 888.616,6532.68C892.758,6528.56 897.96,6526.51 904.223,6526.51C910.487,6526.51 915.689,6528.56 919.83,6532.68C923.972,6536.8 926.043,6541.85 926.043,6547.83C926.043,6553.81 923.972,6558.85 919.83,6562.94Z" style="fill:rgb(10,172,237);fill-rule:nonzero;"/>
                <path d="M963.468,6549.44L963.468,6527.2L975.049,6527.2L975.049,6568.46L963.468,6568.46L963.468,6563.01C960.605,6567.05 956.911,6569.07 952.386,6569.07C947.861,6569.07 944.065,6567.65 940.997,6564.82C937.929,6561.98 936.395,6557.77 936.395,6552.2L936.395,6527.2L947.976,6527.2L947.976,6549.67C947.976,6556.01 950.302,6559.18 954.955,6559.18C957.256,6559.18 959.25,6558.35 960.937,6556.69C962.625,6555.02 963.468,6552.61 963.468,6549.44Z" style="fill:rgb(10,172,237);fill-rule:nonzero;"/>
                <path d="M1012.64,6537.32C1009.22,6537.32 1006.66,6538.53 1004.97,6540.96C1003.29,6543.39 1002.44,6546.6 1002.44,6550.59L1002.44,6568.46L990.939,6568.46L990.939,6527.2L1002.44,6527.2L1002.44,6532.64C1003.93,6530.95 1005.78,6529.52 1008,6528.35C1010.23,6527.17 1012.49,6526.56 1014.79,6526.51L1014.87,6537.32L1012.64,6537.32Z" style="fill:rgb(10,172,237);fill-rule:nonzero;"/>
                <path d="M1067.67,6558.87C1071.51,6558.87 1074.96,6556.95 1078.03,6553.12L1084.85,6560.79C1079.53,6566.31 1073.78,6569.07 1067.6,6569.07C1061.41,6569.07 1056.18,6567.11 1051.91,6563.2C1047.64,6559.29 1045.51,6554.18 1045.51,6547.86C1045.51,6541.55 1047.67,6536.41 1051.99,6532.45C1056.31,6528.49 1061.43,6526.51 1067.37,6526.51C1070.33,6526.51 1073.34,6527.12 1076.38,6528.35C1079.42,6529.57 1082.09,6531.39 1084.39,6533.79L1078.41,6541.61C1077.08,6540.03 1075.46,6538.8 1073.54,6537.93C1071.62,6537.06 1069.72,6536.63 1067.83,6536.63C1064.81,6536.63 1062.21,6537.61 1060.04,6539.58C1057.87,6541.55 1056.78,6544.29 1056.78,6547.79C1056.78,6551.29 1057.87,6554.01 1060.04,6555.96C1062.21,6557.9 1064.76,6558.87 1067.67,6558.87Z" style="fill:rgb(10,172,237);fill-rule:nonzero;"/>
                <path d="M1106.31,6556.07C1108.23,6558.19 1110.68,6559.25 1113.67,6559.25C1116.66,6559.25 1119.12,6558.19 1121.04,6556.07C1122.95,6553.95 1123.91,6551.2 1123.91,6547.83C1123.91,6544.45 1122.95,6541.69 1121.04,6539.54C1119.12,6537.4 1116.66,6536.32 1113.67,6536.32C1110.68,6536.32 1108.23,6537.4 1106.31,6539.54C1104.39,6541.69 1103.43,6544.45 1103.43,6547.83C1103.43,6551.2 1104.39,6553.95 1106.31,6556.07ZM1129.28,6562.94C1125.14,6567.03 1119.93,6569.07 1113.67,6569.07C1107.41,6569.07 1102.21,6567.03 1098.07,6562.94C1093.92,6558.85 1091.85,6553.81 1091.85,6547.83C1091.85,6541.85 1093.92,6536.8 1098.07,6532.68C1102.21,6528.56 1107.41,6526.51 1113.67,6526.51C1119.93,6526.51 1125.14,6528.56 1129.28,6532.68C1133.42,6536.8 1135.49,6541.85 1135.49,6547.83C1135.49,6553.81 1133.42,6558.85 1129.28,6562.94Z" style="fill:rgb(10,172,237);fill-rule:nonzero;"/>
                <path d="M1172.89,6565.39C1169.9,6567.84 1166.11,6569.07 1161.51,6569.07C1158.44,6569.07 1155.24,6568.52 1151.92,6567.42C1148.6,6566.32 1145.61,6564.7 1142.95,6562.55L1148.01,6555.34C1152.3,6558.67 1156.88,6560.33 1161.74,6560.33C1163.22,6560.33 1164.39,6560.03 1165.26,6559.45C1166.13,6558.86 1166.57,6558.08 1166.57,6557.11C1166.57,6556.14 1165.97,6555.24 1164.77,6554.42C1163.56,6553.61 1161.83,6552.84 1159.55,6552.12C1157.28,6551.41 1155.54,6550.79 1154.34,6550.28C1153.13,6549.77 1151.77,6549.03 1150.23,6548.06C1147.11,6546.11 1145.55,6543.24 1145.55,6539.43C1145.55,6535.62 1147.09,6532.51 1150.16,6530.11C1153.22,6527.71 1157.19,6526.51 1162.04,6526.51C1166.9,6526.51 1171.76,6528.14 1176.62,6531.41L1172.32,6539.08C1168.74,6536.63 1165.17,6535.4 1161.62,6535.4C1158.07,6535.4 1156.29,6536.37 1156.29,6538.32C1156.29,6539.39 1156.85,6540.23 1157.98,6540.85C1159.1,6541.46 1160.97,6542.18 1163.58,6542.99C1166.18,6543.81 1168.04,6544.44 1169.14,6544.87C1170.24,6545.31 1171.55,6545.99 1173.09,6546.91C1175.95,6548.65 1177.38,6551.55 1177.38,6555.61C1177.38,6559.68 1175.89,6562.94 1172.89,6565.39Z" style="fill:rgb(10,172,237);fill-rule:nonzero;"/>
                <path d="M1202.62,6535.48L1202.62,6553.96C1202.62,6555.55 1203.03,6556.79 1203.85,6557.68C1204.67,6558.58 1205.64,6559.02 1206.76,6559.02C1208.91,6559.02 1210.73,6558.05 1212.21,6556.11L1216.5,6564.16C1212.92,6567.44 1209.15,6569.07 1205.19,6569.07C1201.23,6569.07 1197.88,6567.77 1195.14,6565.16C1192.41,6562.55 1191.04,6559 1191.04,6554.5L1191.04,6535.48L1186.21,6535.48L1186.21,6527.2L1191.04,6527.2L1191.04,6514.85L1202.62,6514.85L1202.62,6527.2L1212.59,6527.2L1212.59,6535.48L1202.62,6535.48Z" style="fill:rgb(10,172,237);fill-rule:nonzero;"/>
                <path d="M1260.18,6535.48L1260.18,6553.96C1260.18,6555.55 1260.59,6556.79 1261.41,6557.68C1262.23,6558.58 1263.2,6559.02 1264.32,6559.02C1266.47,6559.02 1268.29,6558.05 1269.77,6556.11L1274.06,6564.16C1270.48,6567.44 1266.71,6569.07 1262.75,6569.07C1258.79,6569.07 1255.44,6567.77 1252.7,6565.16C1249.97,6562.55 1248.6,6559 1248.6,6554.5L1248.6,6535.48L1243.77,6535.48L1243.77,6527.2L1248.6,6527.2L1248.6,6514.85L1260.18,6514.85L1260.18,6527.2L1270.15,6527.2L1270.15,6535.48L1260.18,6535.48Z" style="fill:rgb(10,172,237);fill-rule:nonzero;"/>
                <path d="M1295.12,6556.07C1297.03,6558.19 1299.49,6559.25 1302.48,6559.25C1305.47,6559.25 1307.92,6558.19 1309.84,6556.07C1311.76,6553.95 1312.72,6551.2 1312.72,6547.83C1312.72,6544.45 1311.76,6541.69 1309.84,6539.54C1307.92,6537.4 1305.47,6536.32 1302.48,6536.32C1299.49,6536.32 1297.03,6537.4 1295.12,6539.54C1293.2,6541.69 1292.24,6544.45 1292.24,6547.83C1292.24,6551.2 1293.2,6553.95 1295.12,6556.07ZM1318.09,6562.94C1313.94,6567.03 1308.74,6569.07 1302.48,6569.07C1296.22,6569.07 1291.01,6567.03 1286.87,6562.94C1282.73,6558.85 1280.66,6553.81 1280.66,6547.83C1280.66,6541.85 1282.73,6536.8 1286.87,6532.68C1291.01,6528.56 1296.22,6526.51 1302.48,6526.51C1308.74,6526.51 1313.94,6528.56 1318.09,6532.68C1322.23,6536.8 1324.3,6541.85 1324.3,6547.83C1324.3,6553.81 1322.23,6558.85 1318.09,6562.94Z" style="fill:rgb(10,172,237);fill-rule:nonzero;"/>
                <path d="M1377.86,6537.32C1374.43,6537.32 1371.88,6538.53 1370.19,6540.96C1368.5,6543.39 1367.66,6546.6 1367.66,6550.59L1367.66,6568.46L1356.16,6568.46L1356.16,6527.2L1367.66,6527.2L1367.66,6532.64C1369.14,6530.95 1371,6529.52 1373.22,6528.35C1375.44,6527.17 1377.71,6526.56 1380.01,6526.51L1380.09,6537.32L1377.86,6537.32Z" style="fill:rgb(10,172,237);fill-rule:nonzero;"/>
                <path d="M1427.14,6568.46L1416.33,6568.46L1416.33,6563.47C1413.36,6567.2 1409.69,6569.07 1405.32,6569.07C1400.95,6569.07 1397.28,6567.81 1394.32,6565.28C1391.35,6562.74 1389.87,6559.37 1389.87,6555.15C1389.87,6550.93 1391.4,6547.78 1394.47,6545.68C1397.54,6543.58 1401.73,6542.53 1407.05,6542.53L1415.64,6542.53L1415.64,6542.31C1415.64,6537.91 1413.31,6535.71 1408.66,6535.71C1406.67,6535.71 1404.56,6536.11 1402.33,6536.9C1400.11,6537.69 1398.23,6538.68 1396.69,6539.85L1391.56,6532.41C1396.98,6528.48 1403.16,6526.51 1410.12,6526.51C1415.13,6526.51 1419.22,6527.76 1422.39,6530.26C1425.56,6532.77 1427.14,6536.73 1427.14,6542.15L1427.14,6568.46ZM1415.56,6552.74L1415.56,6550.74L1408.35,6550.74C1403.75,6550.74 1401.45,6552.17 1401.45,6555.04C1401.45,6556.52 1402,6557.66 1403.1,6558.45C1404.2,6559.24 1405.77,6559.64 1407.82,6559.64C1409.86,6559.64 1411.66,6559.01 1413.22,6557.76C1414.78,6556.51 1415.56,6554.83 1415.56,6552.74Z" style="fill:rgb(10,172,237);fill-rule:nonzero;"/>
                <path d="M1452.85,6568.46L1441.35,6568.46L1441.35,6527.2L1452.85,6527.2L1452.85,6568.46ZM1440.35,6517.15C1440.35,6515.26 1441.01,6513.66 1442.31,6512.36C1443.61,6511.05 1445.21,6510.4 1447.1,6510.4C1448.99,6510.4 1450.59,6511.05 1451.89,6512.36C1453.2,6513.66 1453.85,6515.26 1453.85,6517.15C1453.85,6519.04 1453.2,6520.64 1451.89,6521.94C1450.59,6523.25 1448.99,6523.9 1447.1,6523.9C1445.21,6523.9 1443.61,6523.25 1442.31,6521.94C1441.01,6520.64 1440.35,6519.04 1440.35,6517.15Z" style="fill:rgb(10,172,237);fill-rule:nonzero;"/>
                <path d="M1494.97,6565.39C1491.98,6567.84 1488.18,6569.07 1483.58,6569.07C1480.51,6569.07 1477.32,6568.52 1473.99,6567.42C1470.67,6566.32 1467.68,6564.7 1465.02,6562.55L1470.08,6555.34C1474.38,6558.67 1478.95,6560.33 1483.81,6560.33C1485.29,6560.33 1486.47,6560.03 1487.34,6559.45C1488.21,6558.86 1488.64,6558.08 1488.64,6557.11C1488.64,6556.14 1488.04,6555.24 1486.84,6554.42C1485.64,6553.61 1483.9,6552.84 1481.62,6552.12C1479.35,6551.41 1477.61,6550.79 1476.41,6550.28C1475.21,6549.77 1473.84,6549.03 1472.31,6548.06C1469.19,6546.11 1467.63,6543.24 1467.63,6539.43C1467.63,6535.62 1469.16,6532.51 1472.23,6530.11C1475.3,6527.71 1479.26,6526.51 1484.12,6526.51C1488.97,6526.51 1493.83,6528.14 1498.69,6531.41L1494.39,6539.08C1490.81,6536.63 1487.25,6535.4 1483.69,6535.4C1480.14,6535.4 1478.36,6536.37 1478.36,6538.32C1478.36,6539.39 1478.93,6540.23 1480.05,6540.85C1481.18,6541.46 1483.04,6542.18 1485.65,6542.99C1488.26,6543.81 1490.11,6544.44 1491.21,6544.87C1492.31,6545.31 1493.63,6545.99 1495.16,6546.91C1498.02,6548.65 1499.45,6551.55 1499.45,6555.61C1499.45,6559.68 1497.96,6562.94 1494.97,6565.39Z" style="fill:rgb(10,172,237);fill-rule:nonzero;"/>
                <path d="M1546.71,6562.48C1542.06,6566.87 1536.6,6569.07 1530.34,6569.07C1524.08,6569.07 1518.9,6567.14 1514.81,6563.28C1510.72,6559.42 1508.67,6554.24 1508.67,6547.75C1508.67,6541.26 1510.76,6536.09 1514.92,6532.26C1519.09,6528.42 1524.01,6526.51 1529.69,6526.51C1535.36,6526.51 1540.18,6528.22 1544.14,6531.65C1548.11,6535.07 1550.09,6539.77 1550.09,6545.76L1550.09,6551.89L1520.02,6551.89C1520.38,6554.14 1521.56,6555.98 1523.55,6557.41C1525.55,6558.85 1527.8,6559.56 1530.3,6559.56C1534.34,6559.56 1537.66,6558.21 1540.27,6555.5L1546.71,6562.48ZM1535.67,6538.01C1534.09,6536.68 1532.15,6536.02 1529.88,6536.02C1527.6,6536.02 1525.52,6536.71 1523.63,6538.09C1521.74,6539.47 1520.64,6541.33 1520.33,6543.69L1538.43,6543.69C1538.17,6541.23 1537.26,6539.34 1535.67,6538.01Z" style="fill:rgb(10,172,237);fill-rule:nonzero;"/>
                <path d="M1596.67,6573.75L1596.67,6568.15C1590.17,6567.13 1584.19,6564.19 1578.72,6559.33L1585.85,6550.66C1589.84,6554.14 1593.44,6556.37 1596.67,6557.34L1596.67,6545.91C1591.3,6544.53 1587.36,6542.68 1584.86,6540.35C1582.35,6538.02 1581.1,6534.67 1581.1,6530.3C1581.1,6525.93 1582.53,6522.33 1585.39,6519.49C1588.26,6516.65 1592.01,6514.95 1596.67,6514.39L1596.67,6510.63L1604.8,6510.63L1604.8,6514.54C1609.91,6515.26 1615,6517.38 1620.06,6520.91L1613.77,6529.96C1610.55,6527.66 1607.56,6526.12 1604.8,6525.36L1604.8,6536.4C1610.32,6537.83 1614.39,6539.75 1617.03,6542.15C1619.66,6544.56 1620.98,6547.95 1620.98,6552.35C1620.98,6556.75 1619.51,6560.38 1616.57,6563.24C1613.63,6566.11 1609.7,6567.82 1604.8,6568.38L1604.8,6573.75L1596.67,6573.75ZM1608.71,6552.97C1608.71,6551.89 1608.43,6551 1607.86,6550.28C1607.3,6549.57 1606.28,6548.9 1604.8,6548.29L1604.8,6557.72C1607.4,6556.9 1608.71,6555.32 1608.71,6552.97ZM1596.67,6525.05C1594.47,6525.82 1593.37,6527.22 1593.37,6529.27C1593.37,6531.31 1594.47,6532.87 1596.67,6533.95L1596.67,6525.05Z" style="fill:rgb(10,172,237);fill-rule:nonzero;"/>
                <path d="M1630.94,6514.85L1652.64,6514.85L1652.64,6568.46L1641.14,6568.46L1641.14,6525.05L1630.94,6525.05L1630.94,6514.85Z" style="fill:rgb(10,172,237);fill-rule:nonzero;"/>
            </g>
        </g>
    </g>
</svg>
