<?xml version="1.0" encoding="UTF-8" standalone="no"?>
<!DOCTYPE svg PUBLIC "-//W3C//DTD SVG 1.1//EN" "http://www.w3.org/Graphics/SVG/1.1/DTD/svg11.dtd">
<svg width="100%" height="100%" viewBox="0 0 45 45" version="1.1" xmlns="http://www.w3.org/2000/svg" xmlns:xlink="http://www.w3.org/1999/xlink" xml:space="preserve" xmlns:serif="http://www.serif.com/" style="fill-rule:evenodd;clip-rule:evenodd;stroke-linejoin:round;stroke-miterlimit:1.41421;">
    <g transform="matrix(1,0,0,1,-257.568,-50.8453)">
        <g transform="matrix(1.33333,0,0,1.33333,0,0)">
            <g transform="matrix(1,0,0,1,211.469,47.1406)">
                <path d="M0,18.152C5.021,17.439 8.881,13.131 8.881,7.901C8.881,4.726 7.454,1.888 5.202,0L-0.013,5.216L-0.013,18.152L0,18.152Z" style="fill:rgb(35,31,32);fill-rule:nonzero;"/>
            </g>
        </g>
        <g transform="matrix(1.33333,0,0,1.33333,0,0)">
            <g transform="matrix(1,0,0,1,208.546,47.1406)">
                <path d="M0,18.152L0,5.216L-5.217,0C-7.468,1.901 -8.894,4.741 -8.894,7.901C-8.881,13.118 -5.021,17.439 0,18.152" style="fill:rgb(35,31,32);fill-rule:nonzero;"/>
            </g>
        </g>
        <g transform="matrix(1.33333,0,0,1.33333,0,0)">
            <g transform="matrix(1,0,0,1,219.006,68.3704)">
                <path d="M0,-22.321C2.405,-19.916 3.72,-16.727 3.72,-13.329C3.72,-9.93 2.392,-6.742 0,-4.337C-2.405,-1.931 -5.594,-0.616 -8.992,-0.616C-12.391,-0.616 -15.579,-1.945 -17.984,-4.337C-20.389,-6.728 -21.705,-9.93 -21.705,-13.329C-21.705,-16.727 -20.376,-19.916 -17.984,-22.321C-17.775,-22.53 -17.564,-22.726 -17.355,-22.908L-20.263,-25.817C-20.474,-25.622 -20.683,-25.426 -20.893,-25.216C-22.431,-23.678 -23.648,-21.873 -24.501,-19.874C-25.382,-17.804 -25.83,-15.595 -25.83,-13.329C-25.83,-11.063 -25.382,-8.854 -24.501,-6.784C-23.648,-4.785 -22.446,-2.98 -20.893,-1.442C-19.354,0.097 -17.551,1.313 -15.551,2.167C-13.481,3.048 -11.271,3.496 -9.007,3.496C-6.741,3.496 -4.531,3.048 -2.461,2.167C-0.461,1.313 1.342,0.11 2.881,-1.442C4.419,-2.98 5.636,-4.785 6.489,-6.784C7.37,-8.854 7.818,-11.063 7.818,-13.329C7.818,-15.595 7.37,-17.804 6.489,-19.874C5.636,-21.873 4.434,-23.678 2.881,-25.216C2.671,-25.426 2.462,-25.622 2.251,-25.817L-0.657,-22.908C-0.419,-22.726 -0.209,-22.53 0,-22.321" style="fill:rgb(35,31,32);fill-rule:nonzero;"/>
            </g>
        </g>
        <g transform="matrix(1.33333,0,0,1.33333,0,0)">
            <g transform="matrix(1,0,0,1,210.014,48.622)">
                <ellipse cx="0" cy="-5.244" rx="5.245" ry="5.244" style="fill:rgb(35,31,32);"/>
            </g>
        </g>
    </g>
</svg>
