<svg xmlns="http://www.w3.org/2000/svg" viewBox="0 0 176.93 176.93"><defs><style>.cls-1{fill:#fff;}</style></defs><title>Asset 6</title><g id="Layer_2" data-name="Layer 2"><g id="svg_art" data-name="svg art"><path class="cls-1" d="M139.1,39.95q1.08,1.13,2.11,2.3l4.45-3.73q-1.19-1.37-2.45-2.67Z"/><path class="cls-1" d="M134.68,35.72q1.17,1,2.3,2.11l4.11-4.11q-1.31-1.26-2.67-2.45Z"/><path class="cls-1" d="M143.15,44.54q1,1.22,1.9,2.47l4.76-3.33q-1.07-1.46-2.21-2.87Z"/><path class="cls-1" d="M129.92,31.88q1.26.92,2.47,1.9l3.73-4.45q-1.41-1.14-2.87-2.21Z"/><path class="cls-1" d="M116.54,31.81c.75.37,1.5.75,2.24,1.16l2-3.41c-.83-.46-1.68-.9-2.54-1.32Z"/><path class="cls-1" d="M113.87,23.06q1.46.57,2.88,1.2L119.21,19q-1.66-.74-3.35-1.39Z"/><path class="cls-1" d="M119.47,25.53c.93.46,1.86.94,2.77,1.44l2.9-5q-1.59-.88-3.22-1.68Z"/><path class="cls-1" d="M124.84,28.47c.89.54,1.76,1.11,2.63,1.69l3.33-4.76q-1.5-1-3.06-2Z"/><path class="cls-1" d="M155.49,84.11l-3.92.34c.05.83.08,1.67.1,2.52h3.93C155.59,86,155.55,85.06,155.49,84.11Z"/><path class="cls-1" d="M155.24,95.81l-3.92-.34c-.09.84-.19,1.67-.32,2.5l3.88.68C155,97.71,155.13,96.76,155.24,95.81Z"/><path class="cls-1" d="M155.61,90h-3.93c0,.84-.05,1.68-.1,2.52l3.92.34C155.55,91.88,155.59,90.92,155.61,90Z"/><path class="cls-1" d="M154.35,101.61l-3.87-.68c-.17.83-.36,1.64-.55,2.46l3.8,1C153.95,103.47,154.16,102.55,154.35,101.61Z"/><path class="cls-1" d="M152.94,107.3l-3.8-1q-.36,1.21-.76,2.4l3.7,1.35Q152.54,108.67,152.94,107.3Z"/><path class="cls-1" d="M111.5,29.58c.78.31,1.56.63,2.33,1L115.48,27q-1.31-.58-2.64-1.1Z"/><path class="cls-1" d="M150,54.69c.5.91,1,1.83,1.44,2.77L156.67,55q-.8-1.63-1.68-3.22Z"/><path class="cls-1" d="M152.67,60.18q.63,1.43,1.2,2.88l5.46-2q-.66-1.7-1.39-3.35Z"/><path class="cls-1" d="M146.78,49.47c.58.86,1.14,1.74,1.69,2.63l5-2.9q-.94-1.55-2-3.06Z"/><path class="cls-1" d="M95.91,54.89l.63-2.34-.21,0Z"/><path class="cls-1" d="M93.43,49l.47.06.6-3.39-.77-.1Z"/><path class="cls-1" d="M90,31.74c.65,0,1.3,0,2,.08l.3-3.47c-.75,0-1.5-.07-2.25-.09Z"/><path class="cls-1" d="M90,18.32c1,0,2.09.06,3.12.13l.51-5.79q-1.8-.12-3.63-.15Z"/><path class="cls-1" d="M151.05,112.84l-3.7-1.35c-.31.78-.63,1.56-1,2.33l3.56,1.66Q150.53,114.18,151.05,112.84Z"/><path class="cls-1" d="M94.46,37.19l1.49.19.37-2.09c-.56-.08-1.12-.15-1.68-.21Z"/><path class="cls-1" d="M90,25.26c.84,0,1.68.05,2.52.1l.34-3.92c-.95-.06-1.9-.1-2.86-.12Z"/><path class="cls-1" d="M108.07,21.09q1.5.44,3,.94l2-5.46q-1.71-.59-3.46-1.09Z"/><path class="cls-1" d="M93.17,125l.21,0L93,122.56Z"/><path class="cls-1" d="M93,54.37,93.38,52l-.21,0Z"/><path class="cls-1" d="M99.8,32.84c.64.13,1.27.28,1.9.44l.9-3.37c-.73-.18-1.46-.35-2.2-.5Z"/><path class="cls-1" d="M102.13,19.63c1,.2,2,.43,3,.68l1.5-5.61q-1.76-.43-3.54-.79Z"/><path class="cls-1" d="M100.92,26.46c.83.17,1.64.36,2.46.55l1-3.8c-.92-.23-1.85-.44-2.79-.63Z"/><path class="cls-1" d="M106.28,27.79q1.21.36,2.4.76l1.35-3.7q-1.35-.46-2.73-.86Z"/><path class="cls-1" d="M95.47,25.62c.84.09,1.67.19,2.5.32l.68-3.88c-.94-.14-1.89-.26-2.84-.36Z"/><path class="cls-1" d="M96.08,18.7c1,.11,2.07.24,3.1.4l1-5.72c-1.19-.19-2.39-.34-3.6-.47Z"/><path class="cls-1" d="M94.9,32.08c.65.07,1.3.15,1.94.25l.61-3.44c-.74-.11-1.49-.2-2.24-.29Z"/><path class="cls-1" d="M96.33,124.43l.21,0L95.91,122Z"/><path class="cls-1" d="M94,42.55l1,.13.41-2.35-1.23-.16Z"/><path class="cls-1" d="M96.85,49.54l.46.11.89-3.32-.75-.17Z"/><path class="cls-1" d="M98,43.2l1,.23.62-2.3-1.21-.28Z"/><path class="cls-1" d="M99.44,123.62l.2-.07-.83-2.29Z"/><path class="cls-1" d="M98.81,55.67l.83-2.29-.2-.07Z"/><path class="cls-1" d="M102.65,122.44l-1-2.21.83,2.29Z"/><path class="cls-1" d="M101.84,129.6l-1.18-3.23-.45.15.89,3.32Z"/><path class="cls-1" d="M100.92,140.75l-.55-2c-.49.12-1,.24-1.47.34l.37,2.09C99.83,141,100.38,140.89,100.92,140.75Z"/><path class="cls-1" d="M99.6,135.81,99,133.5l-1,.23.41,2.35Z"/><path class="cls-1" d="M98.2,130.6l-.89-3.32-.46.11.6,3.39Z"/><path class="cls-1" d="M105.37,55.77l-1,2.19,1.21-2.1Z"/><path class="cls-1" d="M103.27,39l1.43.46.73-2c-.53-.18-1.07-.35-1.61-.51Z"/><path class="cls-1" d="M148.69,118.2l-3.57-1.66c-.37.75-.76,1.5-1.16,2.24l3.41,2C147.83,119.91,148.26,119.06,148.69,118.2Z"/><path class="cls-1" d="M98.91,37.89c.49.1,1,.22,1.47.34l.55-2.05c-.55-.13-1.09-.27-1.65-.38Z"/><path class="cls-1" d="M104.66,48.36l-1.18,3.23.44.17,1.45-3.12Z"/><path class="cls-1" d="M100.21,50.42l.45.15,1.18-3.23-.74-.24Z"/><path class="cls-1" d="M101.88,44.2l1,.32.81-2.24-1.18-.38Z"/><path class="cls-1" d="M102.65,54.49l-.2-.08-.83,2.28Z"/><path class="cls-1" d="M104.35,119l1,2.19.19-.1Z"/><path class="cls-1" d="M130.46,140.85l-2.53-3c-.65.52-1.31,1-2,1.54l2.26,3.22C129,142,129.72,141.44,130.46,140.85Z"/><path class="cls-1" d="M134.86,137l-2.78-2.78q-.91.87-1.85,1.7l2.53,3Q133.83,138,134.86,137Z"/><path class="cls-1" d="M103.68,134.66l-.81-2.24-1,.32.62,2.3Z"/><path class="cls-1" d="M125.75,144.32l-2.26-3.22c-.7.47-1.4.92-2.12,1.36l2,3.41C124.15,145.37,125,144.85,125.75,144.32Z"/><path class="cls-1" d="M142.59,128.2l-3.22-2.26c-.5.68-1,1.34-1.54,2l3,2.53C141.44,129.72,142,129,142.59,128.2Z"/><path class="cls-1" d="M145.87,123.34l-3.41-2c-.44.72-.89,1.42-1.36,2.12l3.22,2.26C144.85,125,145.37,124.15,145.87,123.34Z"/><path class="cls-1" d="M138.92,132.76l-3-2.53q-.83.94-1.7,1.85l2.78,2.78Q138,133.83,138.92,132.76Z"/><path class="cls-1" d="M121.77,138.64l-2-2.86c-.54.36-1.09.71-1.64,1.05l1.74,3C120.51,139.47,121.14,139.06,121.77,138.64Z"/><path class="cls-1" d="M123.77,132.87c-.51.4-1,.81-1.54,1.2l2,2.85c.6-.45,1.19-.91,1.78-1.38Z"/><path class="cls-1" d="M112.55,143.67l-1.47-3.16c-.6.26-1.2.5-1.8.74l1.19,3.28C111.17,144.26,111.87,144,112.55,143.67Z"/><path class="cls-1" d="M107.65,145.56l-1.19-3.28c-.62.21-1.24.41-1.86.59l.9,3.37Q106.59,145.92,107.65,145.56Z"/><path class="cls-1" d="M109.81,137.8l-.9-1.92c-.46.2-.93.39-1.39.57l.73,2C108.78,138.23,109.3,138,109.81,137.8Z"/><path class="cls-1" d="M105.43,139.47l-.73-2-1.43.46.55,2C104.36,139.82,104.9,139.65,105.43,139.47Z"/><path class="cls-1" d="M113,133.91c-.44.24-.89.46-1.34.69l.9,1.92c.5-.25,1-.5,1.5-.77Z"/><path class="cls-1" d="M116.83,131.59l-1.27.81,1.06,1.84c.48-.3,1-.6,1.42-.91Z"/><path class="cls-1" d="M117,124.82l-.81.64,1.37,2c.33-.25.65-.51,1-.77Z"/><path class="cls-1" d="M117.28,141.36l-1.74-3c-.57.31-1.15.6-1.74.89l1.47,3.16C115.94,142.06,116.62,141.73,117.28,141.36Z"/><path class="cls-1" d="M80.6,124.43,81,122l-.63,2.35Z"/><path class="cls-1" d="M123.19,17.54q1.75.86,3.45,1.8l4.77-8.26q-2.06-1.15-4.19-2.19Z"/><path class="cls-1" d="M110.35,12.58q1.88.54,3.71,1.17l3.26-9q-2.23-.77-4.5-1.42Z"/><path class="cls-1" d="M116.88,14.78q1.82.7,3.59,1.49l4-8.64q-2.15-1-4.36-1.81Z"/><path class="cls-1" d="M129.24,20.84q1.67,1,3.28,2.09L138,15.13q-2-1.32-4-2.54Z"/><path class="cls-1" d="M96.84,9.92q1.94.21,3.86.5l1.65-9.36Q100,.7,97.67.46Z"/><path class="cls-1" d="M103.66,11q1.92.38,3.8.84l2.46-9.19q-2.28-.57-4.61-1Z"/><path class="cls-1" d="M90,9.51q2,0,3.89.17L94.68.2Q92.34,0,90,0Z"/><path class="cls-1" d="M135,24.67q1.57,1.15,3.08,2.37l6.13-7.31q-1.83-1.49-3.74-2.88Z"/><path class="cls-1" d="M145.33,33.72q1.35,1.4,2.63,2.87l7.32-6.14q-1.55-1.78-3.19-3.48Z"/><path class="cls-1" d="M164.26,83.34l-5.79.51c.07,1,.11,2.07.13,3.12h5.81Q164.38,85.14,164.26,83.34Z"/><path class="cls-1" d="M143.21,31.6,150,24.85q-1.7-1.64-3.48-3.19L140.34,29Q141.81,30.25,143.21,31.6Z"/><path class="cls-1" d="M164.42,90h-5.81c0,1-.06,2.09-.13,3.12l5.79.51Q164.39,91.79,164.42,90Z"/><path class="cls-1" d="M157.59,50.29q.94,1.7,1.8,3.45l8.64-4q-1-2.13-2.19-4.19Z"/><path class="cls-1" d="M160.66,56.46q.79,1.77,1.49,3.59l9-3.26q-.85-2.21-1.81-4.36Z"/><path class="cls-1" d="M81.5,40.33l.41,2.35,1-.13-.21-2.37Z"/><path class="cls-1" d="M149.89,38.88q1.22,1.51,2.37,3.08l7.82-5.47q-1.39-1.91-2.88-3.74Z"/><path class="cls-1" d="M154,44.41q1.09,1.61,2.09,3.28l8.25-4.76q-1.22-2-2.54-4Z"/><path class="cls-1" d="M83.51,49l-.3-3.43-.77.1L83,49Z"/><path class="cls-1" d="M71.57,55.77l-.19.1L72.59,58Z"/><path class="cls-1" d="M72.59,119l-1.21,2.09.19.1Z"/><path class="cls-1" d="M73.25,42.28l.81,2.24,1-.32-.62-2.3Z"/><path class="cls-1" d="M74.28,54.49l1,2.21-.83-2.28Z"/><path class="cls-1" d="M71.5,37.46l.73,2L73.66,39l-.55-2C72.57,37.11,72,37.29,71.5,37.46Z"/><path class="cls-1" d="M73.45,125.34l-.44-.17-1.45,3.12.72.29Z"/><path class="cls-1" d="M75.09,47.33l1.18,3.23.45-.15-.89-3.32Z"/><path class="cls-1" d="M72.27,48.36l-.72.29L73,51.77l.44-.17Z"/><path class="cls-1" d="M80.6,52.5l-.21,0L81,54.89Z"/><path class="cls-1" d="M164,96.58l-5.79-.51c-.11,1-.24,2.07-.4,3.1l5.72,1C163.74,99,163.89,97.79,164,96.58Z"/><path class="cls-1" d="M105.38,128.28l-1.45-3.12-.44.17,1.18,3.23Z"/><path class="cls-1" d="M79.48,28.89l.61,3.44c.64-.1,1.29-.17,1.94-.25l-.3-3.47C81,28.69,80.23,28.78,79.48,28.89Z"/><path class="cls-1" d="M80.61,35.28,81,37.38l1.49-.19-.19-2.11C81.73,35.13,81.17,35.2,80.61,35.28Z"/><path class="cls-1" d="M78.55,40.85l-1.21.28.62,2.3,1-.23Z"/><path class="cls-1" d="M77.49,53.32l-.2.07.83,2.29Z"/><path class="cls-1" d="M76,36.18l.55,2.05c.49-.12,1-.24,1.47-.34l-.37-2.09C77.1,35.91,76.56,36,76,36.18Z"/><path class="cls-1" d="M77.49,123.62l.63-2.36-.83,2.29Z"/><path class="cls-1" d="M90,36.86c.5,0,1,0,1.5.06l.18-2.11c-.56,0-1.12,0-1.69-.06Z"/><path class="cls-1" d="M96.32,141.65,96,139.56l-1.49.19.18,2.11C95.2,141.8,95.76,141.73,96.32,141.65Z"/><path class="cls-1" d="M69.28,31.37l1.19,3.28c.62-.21,1.24-.41,1.86-.59l-.9-3.37Q70.35,31,69.28,31.37Z"/><path class="cls-1" d="M95.43,136.6,95,134.25l-1,.13.21,2.37Z"/><path class="cls-1" d="M90,164.42q1.82,0,3.63-.15l-.51-5.79c-1,.07-2.07.11-3.12.13Z"/><path class="cls-1" d="M94.49,131.29l-.6-3.39-.47.06.3,3.43Z"/><path class="cls-1" d="M100.18,163.55l-1-5.72c-1,.16-2.06.28-3.1.4l.51,5.79C97.79,163.89,99,163.74,100.18,163.55Z"/><path class="cls-1" d="M97.45,148l-.61-3.44c-.64.1-1.29.17-1.94.25l.3,3.47C96,148.24,96.71,148.15,97.45,148Z"/><path class="cls-1" d="M98.65,154.88,98,151c-.83.13-1.66.23-2.5.32l.34,3.92C96.77,155.13,97.71,155,98.65,154.88Z"/><path class="cls-1" d="M102.6,147l-.9-3.37c-.63.15-1.26.31-1.9.44l.61,3.43C101.14,147.37,101.87,147.2,102.6,147Z"/><path class="cls-1" d="M90,48.68h.47l.3-3.43-.77,0Z"/><path class="cls-1" d="M90,54.11l.21-2.42H90Z"/><path class="cls-1" d="M90,125.25h.21L90,122.82Z"/><path class="cls-1" d="M90,42.25l1,0,.21-2.37-1.24,0Z"/><path class="cls-1" d="M90,142.19c.56,0,1.13,0,1.69-.06L91.47,140c-.5,0-1,0-1.5.06Z"/><path class="cls-1" d="M90,148.68c.75,0,1.51,0,2.25-.09l-.3-3.47c-.65,0-1.3.06-2,.08Z"/><path class="cls-1" d="M90,131.69l.77,0-.3-3.43H90Z"/><path class="cls-1" d="M90,137.07l1.24,0L91,134.65l-1,0Z"/><path class="cls-1" d="M90,155.61c1,0,1.91-.06,2.86-.12l-.34-3.92c-.83.05-1.67.08-2.52.1Z"/><path class="cls-1" d="M153.5,127.74l-5-2.9c-.54.89-1.11,1.76-1.69,2.63l4.76,3.33Q152.55,129.3,153.5,127.74Z"/><path class="cls-1" d="M145.66,138.42l-4.45-3.73q-1,1.17-2.11,2.3l4.11,4.11Q144.47,139.78,145.66,138.42Z"/><path class="cls-1" d="M149.81,133.25l-4.76-3.33q-.92,1.26-1.91,2.47l4.45,3.73Q148.73,134.71,149.81,133.25Z"/><path class="cls-1" d="M141.09,143.21,137,139.1q-1.13,1.08-2.3,2.11l3.73,4.45Q139.78,144.47,141.09,143.21Z"/><path class="cls-1" d="M159.33,115.85l-5.46-2q-.57,1.46-1.2,2.88l5.26,2.45Q158.67,117.55,159.33,115.85Z"/><path class="cls-1" d="M156.67,121.93l-5.27-2.46c-.46.93-.94,1.86-1.44,2.77l5,2.9Q155.87,123.56,156.67,121.93Z"/><path class="cls-1" d="M161.45,109.57l-5.61-1.5q-.44,1.5-.94,3l5.46,2Q160.94,111.32,161.45,109.57Z"/><path class="cls-1" d="M136.12,147.6l-3.73-4.45q-1.21,1-2.47,1.9l3.33,4.76Q134.71,148.73,136.12,147.6Z"/><path class="cls-1" d="M119.21,157.94l-2.45-5.26q-1.43.63-2.88,1.2l2,5.46Q117.55,158.67,119.21,157.94Z"/><path class="cls-1" d="M113,160.36l-2-5.46q-1.48.5-3,.94l1.5,5.61Q111.32,160.94,113,160.36Z"/><path class="cls-1" d="M113.82,146.39c-.77.34-1.54.66-2.33,1l1.35,3.7q1.34-.52,2.64-1.1Z"/><path class="cls-1" d="M110,152.08l-1.35-3.7q-1.19.4-2.4.76l1,3.8Q108.67,152.54,110,152.08Z"/><path class="cls-1" d="M106.68,162.23l-1.5-5.61c-1,.25-2,.48-3,.68l1,5.72Q104.92,162.67,106.68,162.23Z"/><path class="cls-1" d="M104.4,153.72l-1-3.8c-.81.2-1.63.39-2.46.55l.68,3.87C102.55,154.16,103.47,153.95,104.4,153.72Z"/><path class="cls-1" d="M130.8,151.54l-3.33-4.76c-.86.58-1.74,1.14-2.63,1.69l2.9,5Q129.3,152.55,130.8,151.54Z"/><path class="cls-1" d="M125.14,155l-2.9-5c-.91.5-1.83,1-2.77,1.44l2.46,5.27Q123.56,155.87,125.14,155Z"/><path class="cls-1" d="M118.77,144c-.73.4-1.48.78-2.23,1.16l1.66,3.57c.86-.42,1.7-.86,2.54-1.32Z"/><path class="cls-1" d="M163,103.14l-5.72-1c-.2,1-.43,2-.68,3l5.61,1.5Q162.67,104.92,163,103.14Z"/><path class="cls-1" d="M124.43,96.33,122,95.91l2.34.63Z"/><path class="cls-1" d="M125,93.17,122.56,93l2.39.42Z"/><path class="cls-1" d="M123.55,99.64l.07-.2-2.36-.63Z"/><path class="cls-1" d="M121.26,78.13l2.36-.63-.07-.2Z"/><path class="cls-1" d="M125.25,90h-2.43l2.42.21C125.25,90.11,125.25,90,125.25,90Z"/><path class="cls-1" d="M121.9,66.88l.25.4,3-1.72-.42-.65Z"/><path class="cls-1" d="M122.52,74.48l-.08-.2-2.21,1Z"/><path class="cls-1" d="M123.67,69.88l.22.42L127,68.84l-.35-.69Z"/><path class="cls-1" d="M125.24,86.75l-2.42.21h2.43C125.25,86.9,125.25,86.82,125.24,86.75Z"/><path class="cls-1" d="M128.95,56.46c.31.39.63.78.93,1.18l1.74-1.22c-.34-.45-.69-.89-1-1.33Z"/><path class="cls-1" d="M119,72.59l2.19-1-.1-.19Z"/><path class="cls-1" d="M131.59,60.1c.28.42.55.84.81,1.27l1.84-1.06c-.3-.48-.6-1-.91-1.42Z"/><path class="cls-1" d="M133.91,64c.24.44.46.89.69,1.34l1.92-.9c-.25-.5-.5-1-.77-1.5Z"/><path class="cls-1" d="M124.95,83.56l-2.39.42,2.42-.21Z"/><path class="cls-1" d="M137,85.72l-2.37.21c0,.34,0,.69,0,1h2.38C137.06,86.55,137,86.14,137,85.72Z"/><path class="cls-1" d="M122,81l2.4-.42,0-.21Z"/><path class="cls-1" d="M127.74,64.06l2.06-1.19c-.22-.35-.44-.7-.67-1l-2,1.37Z"/><path class="cls-1" d="M142.19,90h-2.12c0,.5,0,1-.06,1.5l2.11.19C142.16,91.09,142.17,90.53,142.19,90Z"/><path class="cls-1" d="M131.61,120.51l-1.74-1.22c-.3.4-.62.79-.93,1.18l1.62,1.36C130.92,121.4,131.27,121,131.61,120.51Z"/><path class="cls-1" d="M134.24,116.63l-1.84-1.06c-.26.43-.54.85-.81,1.27l1.74,1.22C133.64,117.58,133.94,117.1,134.24,116.63Z"/><path class="cls-1" d="M136.52,112.53l-1.92-.9c-.23.45-.45.9-.69,1.34l1.84,1.06C136,113.54,136.27,113,136.52,112.53Z"/><path class="cls-1" d="M138.44,108.25l-2-.73c-.19.47-.37.93-.57,1.39l1.92.9C138,109.3,138.23,108.78,138.44,108.25Z"/><path class="cls-1" d="M137.07,90h-2.38c0,.35,0,.69,0,1l2.37.21C137,90.8,137.06,90.38,137.07,90Z"/><path class="cls-1" d="M140,103.82l-2-.55c-.14.48-.3,1-.46,1.43l2,.73C139.65,104.9,139.82,104.36,140,103.82Z"/><path class="cls-1" d="M141.86,94.64l-2.11-.19c-.06.5-.12,1-.19,1.49l2.09.37C141.73,95.76,141.8,95.2,141.86,94.64Z"/><path class="cls-1" d="M141.14,99.28,139,98.91c-.1.49-.22,1-.34,1.47l2.05.55C140.89,100.38,141,99.83,141.14,99.28Z"/><path class="cls-1" d="M129.8,114.06l-2.06-1.19-.56.87,2,1.37C129.36,114.76,129.58,114.42,129.8,114.06Z"/><path class="cls-1" d="M127,108.09l-3.12-1.45-.22.42,3,1.72Z"/><path class="cls-1" d="M119.56,108.15l-2.08-1.2,2,1.38Z"/><path class="cls-1" d="M117.59,110.95l.13-.17-2-1.38Z"/><path class="cls-1" d="M115.75,67.53l2-1.38-.13-.17Z"/><path class="cls-1" d="M104.6,34.05c.63.19,1.24.38,1.86.59l1.19-3.28q-1.07-.36-2.15-.68Z"/><path class="cls-1" d="M128.57,104.66l-3.23-1.18c-.06.15-.11.3-.17.44l3.12,1.45C128.38,105.14,128.47,104.9,128.57,104.66Z"/><path class="cls-1" d="M122.52,102.46l-2.28-.83,2.2,1Z"/><path class="cls-1" d="M117.47,70l2.09-1.21-.11-.18Z"/><path class="cls-1" d="M125.14,111.37l-3-1.72-.25.4,2.82,2Z"/><path class="cls-1" d="M125.34,73.45l3.23-1.18c-.1-.24-.19-.48-.29-.72L125.16,73C125.22,73.15,125.28,73.3,125.34,73.45Z"/><path class="cls-1" d="M142.29,70.47c.21.62.41,1.24.59,1.86l3.37-.9q-.32-1.08-.68-2.15Z"/><path class="cls-1" d="M148.38,68.25q.4,1.19.76,2.4l3.8-1q-.4-1.38-.86-2.73Z"/><path class="cls-1" d="M140.51,65.85c.26.6.5,1.2.74,1.8l3.28-1.19c-.28-.7-.56-1.4-.86-2.09Z"/><path class="cls-1" d="M143.65,75.23c.15.63.31,1.26.44,1.9l3.43-.6c-.15-.74-.32-1.47-.5-2.2Z"/><path class="cls-1" d="M135.87,68c.2.46.39.93.57,1.39l2-.73c-.21-.52-.42-1-.64-1.56Z"/><path class="cls-1" d="M137.47,72.22c.16.48.31,1,.46,1.43l2-.55c-.16-.54-.33-1.08-.51-1.61Z"/><path class="cls-1" d="M141.86,82.29c-.06-.56-.13-1.12-.21-1.68l-2.09.37c.07.5.13,1,.19,1.49Z"/><path class="cls-1" d="M138.7,76.56c.12.49.24,1,.34,1.47l2.09-.37c-.11-.55-.25-1.1-.38-1.65Z"/><path class="cls-1" d="M148.33,81.72c-.08-.75-.17-1.5-.29-2.24l-3.44.61c.1.64.17,1.29.25,1.94Z"/><path class="cls-1" d="M156.62,71.76c.25,1,.48,2,.68,3l5.72-1q-.35-1.79-.79-3.54Z"/><path class="cls-1" d="M176.48,79.26q-.24-2.36-.61-4.68l-9.36,1.65q.3,1.92.5,3.86Z"/><path class="cls-1" d="M163.18,62.87q.63,1.84,1.17,3.71l9.21-2.47q-.65-2.28-1.42-4.5Z"/><path class="cls-1" d="M165.13,69.48q.47,1.88.84,3.8l9.37-1.65q-.45-2.33-1-4.61Z"/><path class="cls-1" d="M154.9,65.88q.5,1.47.94,3l5.61-1.5q-.51-1.75-1.09-3.46Z"/><path class="cls-1" d="M149.92,73.55c.2.81.39,1.63.55,2.46l3.87-.68c-.19-.94-.4-1.87-.63-2.79Z"/><path class="cls-1" d="M164,80.35c-.13-1.21-.28-2.41-.47-3.6l-5.72,1c.16,1,.28,2.06.4,3.1Z"/><path class="cls-1" d="M155.24,81.12c-.1-1-.22-1.9-.36-2.84L151,79c.13.83.23,1.66.32,2.5Z"/><path class="cls-1" d="M131.88,110.36l-2.16-1c-.16.31-.31.62-.47.92l2.06,1.19C131.51,111.11,131.69,110.73,131.88,110.36Z"/><path class="cls-1" d="M136.76,94.2,134.38,94c0,.34-.08.69-.13,1l2.35.41C136.66,95,136.71,94.61,136.76,94.2Z"/><path class="cls-1" d="M129.6,101.84c.08-.25.16-.49.24-.74l-3.32-.89-.15.45Z"/><path class="cls-1" d="M126.52,76.72l3.32-.89c-.08-.25-.16-.49-.24-.74l-3.23,1.18Z"/><path class="cls-1" d="M129.25,66.65c.16.3.32.61.47.92l2.16-1c-.19-.37-.37-.74-.57-1.11Z"/><path class="cls-1" d="M131.66,86.19l-3.43.3c0,.16,0,.32,0,.47h3.44C131.68,86.71,131.68,86.45,131.66,86.19Z"/><path class="cls-1" d="M133.63,106.5l-2.24-.81c-.13.32-.25.64-.39,1l2.16,1C133.32,107.27,133.47,106.88,133.63,106.5Z"/><path class="cls-1" d="M136.09,98.39,133.74,98c-.07.34-.15.67-.23,1l2.3.62C135.9,99.19,136,98.79,136.09,98.39Z"/><path class="cls-1" d="M135,102.5l-2.3-.62c-.1.33-.21.66-.32,1l2.24.81C134.79,103.29,134.91,102.89,135,102.5Z"/><path class="cls-1" d="M130.78,97.45l-3.39-.6c0,.15-.07.31-.11.46l3.32.89C130.66,98,130.73,97.7,130.78,97.45Z"/><path class="cls-1" d="M131,70.29c.14.32.26.64.39,1l2.24-.81c-.15-.39-.31-.77-.47-1.15Z"/><path class="cls-1" d="M132.42,74.07c.11.33.22.66.32,1l2.3-.62c-.12-.4-.25-.79-.38-1.18Z"/><path class="cls-1" d="M127.28,79.62c0,.15.07.31.11.46l3.39-.6c-.05-.25-.12-.5-.17-.75Z"/><path class="cls-1" d="M136.76,82.74c0-.41-.1-.82-.16-1.23l-2.35.41c0,.34.09.68.13,1Z"/><path class="cls-1" d="M131.39,93.73l-3.43-.3c0,.16,0,.31-.06.47l3.39.6C131.33,94.24,131.36,94,131.39,93.73Z"/><path class="cls-1" d="M131.69,90h-3.44c0,.16,0,.32,0,.47l3.43.3C131.68,90.48,131.68,90.22,131.69,90Z"/><path class="cls-1" d="M131.39,83.21c0-.26-.06-.51-.1-.77l-3.39.6c0,.16,0,.31.06.47Z"/><path class="cls-1" d="M133.5,78c.08.34.16.67.23,1l2.35-.41c-.08-.41-.19-.81-.28-1.21Z"/><path class="cls-1" d="M121.16,105.37l-2.19-1,2.1,1.21Z"/><path class="cls-1" d="M148.68,90h-3.49c0,.65,0,1.3-.08,2l3.47.3C148.63,91.47,148.66,90.72,148.68,90Z"/><path class="cls-1" d="M134.2,44.85q.87.91,1.7,1.85l3-2.53Q138,43.1,137,42.07Z"/><path class="cls-1" d="M127.42,117.57l-2-1.37c-.21.28-.43.54-.64.81l1.82,1.53C126.9,118.22,127.17,117.9,127.42,117.57Z"/><path class="cls-1" d="M146.39,63.11c.34.77.66,1.54,1,2.33l3.7-1.35q-.52-1.34-1.1-2.64Z"/><path class="cls-1" d="M137.83,49c.52.65,1,1.31,1.54,2l3.22-2.26c-.57-.77-1.15-1.52-1.75-2.26Z"/><path class="cls-1" d="M147.52,100.4l-3.43-.6c-.13.64-.28,1.27-.44,1.9l3.37.9C147.2,101.87,147.37,101.14,147.52,100.4Z"/><path class="cls-1" d="M144,58.16c.4.73.78,1.48,1.16,2.23l3.57-1.66c-.42-.86-.86-1.7-1.32-2.54Z"/><path class="cls-1" d="M141.1,53.44c.47.7.92,1.4,1.36,2.12l3.41-2c-.5-.81-1-1.62-1.54-2.41Z"/><path class="cls-1" d="M148.58,84.71l-3.47.3c0,.65.06,1.3.08,2h3.49C148.66,86.21,148.63,85.46,148.58,84.71Z"/><path class="cls-1" d="M136.92,124.22l-2.85-2c-.39.52-.79,1-1.2,1.54l2.67,2.24C136,125.42,136.47,124.83,136.92,124.22Z"/><path class="cls-1" d="M133.61,128.3l-2.67-2.24c-.43.49-.87,1-1.32,1.43l2.46,2.46Q132.86,129.15,133.61,128.3Z"/><path class="cls-1" d="M130,132.08l-2.46-2.46c-.47.45-.95.89-1.43,1.32l2.24,2.67Q129.15,132.86,130,132.08Z"/><path class="cls-1" d="M146.25,105.5l-3.37-.9c-.19.63-.38,1.24-.59,1.86l3.28,1.19Q145.92,106.58,146.25,105.5Z"/><path class="cls-1" d="M128.64,124.14,127,122.77c-.33.37-.68.74-1,1.1l1.5,1.5C127.89,125,128.27,124.56,128.64,124.14Z"/><path class="cls-1" d="M144.53,110.47l-3.28-1.19c-.24.61-.48,1.21-.74,1.8l3.16,1.47C144,111.87,144.26,111.17,144.53,110.47Z"/><path class="cls-1" d="M139.86,119.87l-3-1.74c-.34.55-.69,1.1-1.05,1.64l2.86,2C139.06,121.14,139.47,120.51,139.86,119.87Z"/><path class="cls-1" d="M142.4,115.27l-3.16-1.47c-.29.58-.58,1.17-.89,1.74l3,1.74C141.73,116.62,142.06,115.94,142.4,115.27Z"/><path class="cls-1" d="M148.33,95.21l-3.47-.3c-.07.65-.15,1.3-.25,1.94l3.44.61C148.15,96.71,148.24,96,148.33,95.21Z"/><path class="cls-1" d="M108.78,126.65l-1.72-3-.42.22,1.45,3.12Z"/><path class="cls-1" d="M108.15,119.56l.18-.11-1.38-2Z"/><path class="cls-1" d="M106.5,133.63l1.15-.47-1-2.16-1,.39Z"/><path class="cls-1" d="M107.53,40.49c.47.19.93.37,1.39.57l.9-1.92c-.52-.22-1-.43-1.56-.64Z"/><path class="cls-1" d="M142.13,85.28l-2.11.19c0,.5,0,1,.06,1.5h2.12C142.17,86.4,142.16,85.84,142.13,85.28Z"/><path class="cls-1" d="M106.95,59.46l1.38-2-.18-.11Z"/><path class="cls-1" d="M107.65,43.78l-1.15-.47-.81,2.24,1,.39Z"/><path class="cls-1" d="M109.28,35.67c.61.24,1.21.48,1.8.74l1.47-3.16c-.69-.3-1.38-.59-2.09-.86Z"/><path class="cls-1" d="M130.23,41q.94.83,1.85,1.7l2.78-2.78q-1-1-2.11-1.93Z"/><path class="cls-1" d="M118.13,40.09c.55.34,1.1.69,1.64,1.05l2-2.86c-.63-.42-1.26-.82-1.9-1.22Z"/><path class="cls-1" d="M121.37,34.47c.72.44,1.42.89,2.12,1.36l2.26-3.22c-.79-.53-1.59-1-2.41-1.54Z"/><path class="cls-1" d="M122.23,42.87c.52.39,1,.79,1.54,1.2L126,41.4c-.59-.47-1.18-.93-1.78-1.38Z"/><path class="cls-1" d="M111.63,42.34c.45.23.9.45,1.34.69L114,41.18c-.49-.27-1-.52-1.5-.77Z"/><path class="cls-1" d="M125.94,37.56c.68.5,1.34,1,2,1.54l2.53-3c-.74-.6-1.49-1.18-2.26-1.75Z"/><path class="cls-1" d="M113.8,37.69c.58.29,1.17.58,1.74.89l1.74-3c-.66-.36-1.33-.7-2-1Z"/><path class="cls-1" d="M116.2,51.47l.81.64,1.53-1.82c-.32-.26-.64-.52-1-.77Z"/><path class="cls-1" d="M115.56,44.53l1.27.81L118,43.61c-.47-.31-.94-.62-1.42-.91Z"/><path class="cls-1" d="M108.09,49.93l-1.45,3.12.42.22,1.72-3Z"/><path class="cls-1" d="M119.29,47.06c.4.3.79.62,1.18.93l1.36-1.62c-.44-.35-.88-.7-1.33-1Z"/><path class="cls-1" d="M120.07,54.74l1.68-1.68-.91-.84L119.32,54Z"/><path class="cls-1" d="M118,61.75l2.63-2.21-.53-.57-2.43,2.43Z"/><path class="cls-1" d="M122.9,57.62l1.82-1.53-.84-.91-1.68,1.68Z"/><path class="cls-1" d="M120.18,64.43l2.82-2-.48-.61-2.63,2.21Z"/><path class="cls-1" d="M112.88,57l2.21-2.63-.61-.48-2,2.82Z"/><path class="cls-1" d="M115.18,59l.34.32L118,56.86l-.57-.53Z"/><path class="cls-1" d="M115.67,63.68l-.15-.15-1.71,1.71Z"/><path class="cls-1" d="M114.06,47.13l-1.19,2.06.87.56,1.37-2Z"/><path class="cls-1" d="M125.38,127.5l-1.5-1.5c-.36.34-.73.69-1.1,1l1.36,1.62C124.56,128.27,125,127.89,125.38,127.5Z"/><path class="cls-1" d="M129.62,49.43c.45.47.89.95,1.32,1.43l2.67-2.24q-.75-.84-1.53-1.66Z"/><path class="cls-1" d="M132.87,53.17c.4.51.81,1,1.2,1.54l2.85-2c-.45-.6-.91-1.19-1.38-1.78Z"/><path class="cls-1" d="M138.35,61.4c.31.57.6,1.15.89,1.74l3.16-1.47c-.34-.67-.67-1.34-1-2Z"/><path class="cls-1" d="M127,54.16l1.62-1.36c-.37-.42-.76-.83-1.14-1.24l-1.5,1.5C126.34,53.42,126.69,53.78,127,54.16Z"/><path class="cls-1" d="M125.46,60.73l2-1.37c-.25-.33-.51-.65-.77-1l-1.82,1.53C125,60.19,125.25,60.45,125.46,60.73Z"/><path class="cls-1" d="M122.77,49.91c.37.33.74.68,1.1,1l1.5-1.5c-.41-.39-.82-.77-1.24-1.14Z"/><path class="cls-1" d="M126.06,46c.49.43,1,.87,1.43,1.32L130,44.85q-.82-.78-1.66-1.53Z"/><path class="cls-1" d="M135.79,57.16c.36.54.71,1.09,1.05,1.64l3-1.74c-.39-.64-.8-1.27-1.22-1.9Z"/><path class="cls-1" d="M120.6,117.39,118,115.18l-.32.34,2.43,2.43Z"/><path class="cls-1" d="M118,120.07l-2.43-2.43-.34.32,2.21,2.63Z"/><path class="cls-1" d="M119.32,122.9l1.53,1.82.91-.84-1.68-1.68Z"/><path class="cls-1" d="M115.67,113.25l-1.85-1.55,1.71,1.71Z"/><path class="cls-1" d="M115.11,129.13l-1.37-2-.87.56,1.19,2.06Z"/><path class="cls-1" d="M124.72,120.85l-1.82-1.53-.7.76,1.68,1.68Z"/><path class="cls-1" d="M123,114.48l-2.82-2-.29.37,2.63,2.21Z"/><path class="cls-1" d="M121.84,130.57l-1.36-1.62c-.39.31-.78.63-1.18.93l1.22,1.74C121,131.27,121.4,130.92,121.84,130.57Z"/><path class="cls-1" d="M109.36,47.22l.92.47,1.19-2.06-1.11-.57Z"/><path class="cls-1" d="M110.95,117.59l-1.55-1.84,1.38,2Z"/><path class="cls-1" d="M109.4,61.18l1.55-1.84-.17-.13Z"/><path class="cls-1" d="M109.65,54.77l.4.25,2-2.82-.65-.42Z"/><path class="cls-1" d="M113.4,61.41l-.15-.15-1.55,1.85Z"/><path class="cls-1" d="M115.09,122.53l-2.21-2.63-.37.29,2,2.82Z"/><path class="cls-1" d="M111.47,131.31l-1.19-2.06-.92.47,1,2.16Z"/><path class="cls-1" d="M113.4,115.53l-1.71-1.71,1.55,1.85Z"/><path class="cls-1" d="M110,121.9l-.4.26,1.72,3,.65-.42Z"/><path class="cls-1" d="M51.55,49.43l1.5,1.5c.36-.34.73-.69,1.1-1L52.8,48.29C52.38,48.66,52,49,51.55,49.43Z"/><path class="cls-1" d="M20.31,105.18c-.25-1-.48-2-.68-3l-5.72,1q.35,1.79.79,3.54Z"/><path class="cls-1" d="M22,111q-.5-1.48-.94-3l-5.61,1.5q.51,1.75,1.09,3.46Z"/><path class="cls-1" d="M19.1,99.17c-.16-1-.28-2.06-.4-3.1l-5.79.51c.13,1.21.28,2.41.47,3.6Z"/><path class="cls-1" d="M24.26,116.75q-.63-1.43-1.2-2.88l-5.46,2q.66,1.7,1.39,3.35Z"/><path class="cls-1" d="M27,122.24c-.5-.91-1-1.83-1.44-2.77l-5.27,2.46q.8,1.63,1.68,3.22Z"/><path class="cls-1" d="M39.1,127.93c-.52-.65-1-1.31-1.54-2l-3.22,2.26c.57.77,1.15,1.52,1.75,2.26Z"/><path class="cls-1" d="M33.79,132.39q-1-1.22-1.91-2.47l-4.76,3.33q1.07,1.46,2.21,2.88Z"/><path class="cls-1" d="M30.15,127.47c-.58-.86-1.14-1.74-1.69-2.63l-5,2.9q.94,1.55,2,3.06Z"/><path class="cls-1" d="M15.48,67.36l5.61,1.5q.44-1.5.94-3l-5.46-2Q16,65.61,15.48,67.36Z"/><path class="cls-1" d="M23.44,49.19l5,2.9c.54-.89,1.11-1.76,1.69-2.63l-4.76-3.33Q24.38,47.64,23.44,49.19Z"/><path class="cls-1" d="M20.26,55l5.27,2.46c.46-.93.94-1.86,1.44-2.77l-5-2.9Q21.06,53.37,20.26,55Z"/><path class="cls-1" d="M17.6,61.08l5.46,2q.57-1.46,1.2-2.88L19,57.73Q18.26,59.38,17.6,61.08Z"/><path class="cls-1" d="M12.51,87h5.81c0-1,.06-2.09.13-3.12l-5.79-.51Q12.55,85.14,12.51,87Z"/><path class="cls-1" d="M27.13,43.68,31.88,47q.92-1.26,1.9-2.47l-4.45-3.73Q28.2,42.22,27.13,43.68Z"/><path class="cls-1" d="M12.91,80.35l5.79.51c.11-1,.24-2.07.4-3.1l-5.72-1C13.2,77.94,13,79.14,12.91,80.35Z"/><path class="cls-1" d="M13.91,73.8l5.72,1c.2-1,.43-2,.68-3l-5.61-1.5Q14.26,72,13.91,73.8Z"/><path class="cls-1" d="M37.83,137q-1.08-1.13-2.11-2.3l-4.45,3.73q1.19,1.37,2.45,2.67Z"/><path class="cls-1" d="M70.66,149.14q-1.21-.36-2.4-.76l-1.35,3.7q1.35.46,2.73.86Z"/><path class="cls-1" d="M77.14,144.09c-.64-.13-1.27-.28-1.9-.44l-.9,3.37c.73.18,1.46.35,2.2.5Z"/><path class="cls-1" d="M81.46,151.32c-.84-.09-1.67-.19-2.5-.32l-.68,3.88c.94.14,1.89.26,2.84.36Z"/><path class="cls-1" d="M80.86,158.23c-1-.11-2.07-.24-3.1-.4l-1,5.72c1.19.19,2.39.34,3.6.47Z"/><path class="cls-1" d="M76,150.48c-.83-.17-1.64-.36-2.46-.55l-1,3.8c.92.23,1.85.44,2.79.63Z"/><path class="cls-1" d="M82.94,134.38l-1-.13-.41,2.35,1.23.16Z"/><path class="cls-1" d="M82,144.85c-.65-.07-1.3-.15-1.94-.25L79.48,148c.74.11,1.49.2,2.24.29Z"/><path class="cls-1" d="M74.81,157.3c-1-.2-2-.43-3-.68l-1.5,5.61q1.76.43,3.54.79Z"/><path class="cls-1" d="M82.47,139.75,81,139.56l-.37,2.09c.56.08,1.12.15,1.68.21Z"/><path class="cls-1" d="M31.27,38.52l4.45,3.73q1-1.17,2.11-2.3l-4.11-4.11Q32.47,37.15,31.27,38.52Z"/><path class="cls-1" d="M52.09,148.47c-.89-.54-1.76-1.11-2.63-1.69l-3.33,4.76q1.5,1,3.06,2Z"/><path class="cls-1" d="M42.25,141.21q-1.17-1-2.3-2.11l-4.11,4.11q1.31,1.26,2.67,2.45Z"/><path class="cls-1" d="M47,145.05q-1.26-.92-2.47-1.91l-3.73,4.45q1.41,1.14,2.87,2.21Z"/><path class="cls-1" d="M60.39,145.12c-.75-.37-1.5-.75-2.23-1.16l-2,3.41c.83.46,1.68.9,2.54,1.32Z"/><path class="cls-1" d="M57.46,151.41c-.93-.46-1.86-.94-2.77-1.44l-2.9,5q1.59.88,3.22,1.68Z"/><path class="cls-1" d="M83.5,128l-.47-.06-.6,3.39.77.1Z"/><path class="cls-1" d="M68.86,155.84q-1.5-.44-3-.94l-2,5.46q1.71.59,3.46,1.09Z"/><path class="cls-1" d="M65.44,147.35c-.78-.31-1.56-.63-2.33-1L61.45,150q1.31.58,2.64,1.1Z"/><path class="cls-1" d="M63.07,153.87q-1.46-.57-2.88-1.2l-2.45,5.26q1.66.74,3.35,1.39Z"/><path class="cls-1" d="M76.72,126.52l-.45-.15-1.18,3.23.74.24Z"/><path class="cls-1" d="M69.41,136.45c-.47-.19-.93-.37-1.39-.57l-.9,1.92c.52.22,1,.43,1.56.64Z"/><path class="cls-1" d="M67.66,141.26c-.61-.24-1.21-.48-1.8-.74l-1.47,3.16c.69.3,1.38.59,2.09.86Z"/><path class="cls-1" d="M65.3,134.6c-.45-.23-.9-.45-1.34-.69l-1.06,1.84c.49.27,1,.52,1.5.77Z"/><path class="cls-1" d="M63.13,139.24c-.58-.29-1.16-.58-1.74-.89l-1.74,3c.66.36,1.33.7,2,1Z"/><path class="cls-1" d="M73.66,137.93l-1.43-.46-.73,2c.53.18,1.07.35,1.61.51Z"/><path class="cls-1" d="M74.28,122.44l.2.08.83-2.29Z"/><path class="cls-1" d="M75.05,132.73l-1-.32-.81,2.24,1.18.38Z"/><path class="cls-1" d="M72.33,142.88c-.63-.19-1.24-.38-1.86-.59l-1.19,3.28q1.07.36,2.15.68Z"/><path class="cls-1" d="M51,139.37c-.68-.5-1.34-1-2-1.54l-2.53,3c.74.6,1.49,1.18,2.26,1.75Z"/><path class="cls-1" d="M46.7,135.9q-.94-.83-1.85-1.7L42.07,137q1,1,2.11,1.93Z"/><path class="cls-1" d="M42.73,132.08q-.87-.91-1.7-1.85l-3,2.53q.94,1.07,1.93,2.11Z"/><path class="cls-1" d="M61.37,132.4l-1.27-.81-1.22,1.74c.47.31.94.62,1.42.91Z"/><path class="cls-1" d="M54.71,134.06c-.52-.39-1-.79-1.54-1.2l-2.24,2.67c.59.47,1.18.93,1.78,1.38Z"/><path class="cls-1" d="M55.56,142.46c-.72-.44-1.42-.89-2.12-1.36l-2.26,3.22c.79.53,1.59,1,2.41,1.54Z"/><path class="cls-1" d="M60.73,125.46l-.81-.64-1.53,1.82c.32.26.64.52,1,.77Z"/><path class="cls-1" d="M58.81,136.84c-.55-.34-1.1-.69-1.64-1.05l-2,2.86c.63.42,1.26.82,1.9,1.22Z"/><path class="cls-1" d="M63.9,16.58l2,5.46q1.48-.5,3-.94l-1.5-5.61Q65.61,16,63.9,16.58Z"/><path class="cls-1" d="M57.73,19l2.45,5.26q1.43-.63,2.88-1.2l-2-5.46Q59.38,18.26,57.73,19Z"/><path class="cls-1" d="M58.16,33c.73-.4,1.48-.78,2.24-1.16l-1.66-3.57c-.86.42-1.7.86-2.54,1.32Z"/><path class="cls-1" d="M63.11,30.54c.77-.34,1.54-.66,2.33-1l-1.35-3.7q-1.34.52-2.64,1.1Z"/><path class="cls-1" d="M35.84,33.72l4.11,4.11q1.13-1.08,2.3-2.11l-3.73-4.45Q37.15,32.47,35.84,33.72Z"/><path class="cls-1" d="M51.79,21.94l2.9,5c.91-.5,1.83-1,2.77-1.44L55,20.26Q53.38,21.06,51.79,21.94Z"/><path class="cls-1" d="M40.81,29.34l3.73,4.45q1.22-1,2.47-1.91l-3.33-4.76Q42.22,28.2,40.81,29.34Z"/><path class="cls-1" d="M66.91,24.85l1.35,3.7q1.19-.4,2.4-.76l-1-3.8Q68.26,24.39,66.91,24.85Z"/><path class="cls-1" d="M46.13,25.39l3.33,4.76c.86-.58,1.74-1.14,2.63-1.69l-2.9-5Q47.64,24.38,46.13,25.39Z"/><path class="cls-1" d="M79,133.74l-1-.23-.62,2.3,1.21.28Z"/><path class="cls-1" d="M79.48,46.15l-.75.17.89,3.32.46-.11Z"/><path class="cls-1" d="M80.08,127.39l-.46-.11-.89,3.32.75.17Z"/><path class="cls-1" d="M78,139c-.49-.1-1-.22-1.47-.34l-.55,2c.55.13,1.09.27,1.65.38Z"/><path class="cls-1" d="M70.25,14.7l1.5,5.61c1-.25,2-.48,3-.68l-1-5.72Q72,14.26,70.25,14.7Z"/><path class="cls-1" d="M78.28,22.06,79,25.93c.83-.13,1.66-.23,2.5-.32l-.34-3.92C80.17,21.8,79.22,21.91,78.28,22.06Z"/><path class="cls-1" d="M76.75,13.38l1,5.72c1-.16,2.06-.28,3.1-.4l-.51-5.79C79.14,13,77.94,13.2,76.75,13.38Z"/><path class="cls-1" d="M72.53,23.21l1,3.8c.81-.2,1.63-.39,2.46-.55l-.68-3.87C74.39,22.77,73.46,23,72.53,23.21Z"/><path class="cls-1" d="M74.33,29.91l.9,3.37c.63-.15,1.26-.31,1.9-.44l-.61-3.43C75.79,29.56,75.06,29.73,74.33,29.91Z"/><path class="cls-1" d="M12.67,93.59l5.79-.51c-.07-1-.11-2.07-.13-3.12H12.51Q12.55,91.79,12.67,93.59Z"/><path class="cls-1" d="M100.7,166.5q-1.92.3-3.86.5l.83,9.47q2.36-.24,4.68-.61Z"/><path class="cls-1" d="M66.58,164.35q-1.88-.54-3.71-1.17l-3.26,9q2.23.77,4.5,1.42Z"/><path class="cls-1" d="M60.05,162.15q-1.82-.7-3.59-1.49l-4,8.64q2.15,1,4.36,1.81Z"/><path class="cls-1" d="M47.69,156.09q-1.67-1-3.28-2.09l-5.47,7.81q2,1.32,4,2.54Z"/><path class="cls-1" d="M53.74,159.39q-1.75-.86-3.45-1.8l-4.77,8.26Q47.58,167,49.71,168Z"/><path class="cls-1" d="M80.09,167q-1.94-.21-3.86-.5l-1.65,9.36q2.32.37,4.68.61Z"/><path class="cls-1" d="M93.85,167.25q-1.93.13-3.89.17v9.51q2.37,0,4.72-.2Z"/><path class="cls-1" d="M87,167.42q-2,0-3.89-.17l-.83,9.48q2.34.16,4.72.2Z"/><path class="cls-1" d="M73.28,166q-1.92-.37-3.8-.84L67,174.33q2.28.57,4.61,1Z"/><path class="cls-1" d="M19.34,126.64q-.94-1.7-1.8-3.45l-8.64,4q1,2.13,2.19,4.19Z"/><path class="cls-1" d="M16.28,120.47q-.79-1.77-1.49-3.59l-9,3.26q.85,2.21,1.81,4.36Z"/><path class="cls-1" d="M13.76,114.06q-.63-1.84-1.17-3.71l-9.21,2.47q.65,2.28,1.42,4.5Z"/><path class="cls-1" d="M42,152.26q-1.57-1.15-3.08-2.37l-6.13,7.31q1.83,1.49,3.74,2.88Z"/><path class="cls-1" d="M22.93,132.52q-1.09-1.61-2.09-3.28L12.59,134q1.22,2,2.54,4Z"/><path class="cls-1" d="M33.72,145.33,27,152.08q1.7,1.64,3.48,3.19L36.59,148Q35.12,146.68,33.72,145.33Z"/><path class="cls-1" d="M31.6,143.21q-1.35-1.4-2.63-2.87l-7.32,6.14q1.55,1.78,3.19,3.48Z"/><path class="cls-1" d="M27,138.05q-1.22-1.51-2.37-3.08l-7.82,5.47q1.39,1.91,2.88,3.74Z"/><path class="cls-1" d="M156.09,129.24q-1,1.67-2.09,3.28l7.81,5.47q1.32-2,2.54-4Z"/><path class="cls-1" d="M11.8,107.46q-.47-1.88-.84-3.8l-9.37,1.65q.45,2.33,1,4.61Z"/><path class="cls-1" d="M166,103.66q-.38,1.92-.84,3.8l9.19,2.46q.57-2.28,1-4.61Z"/><path class="cls-1" d="M164.35,110.35q-.54,1.88-1.17,3.71l9,3.26q.77-2.23,1.42-4.5Z"/><path class="cls-1" d="M159.39,123.19q-.86,1.75-1.8,3.45l8.26,4.77q1.15-2.06,2.19-4.19Z"/><path class="cls-1" d="M162.15,116.88q-.7,1.82-1.49,3.59l8.64,4q1-2.15,1.81-4.36Z"/><path class="cls-1" d="M167,96.84q-.21,1.94-.5,3.86l9.36,1.65q.37-2.32.61-4.68Z"/><path class="cls-1" d="M167.25,83.08q.13,1.93.17,3.89h9.51q0-2.37-.2-4.72Z"/><path class="cls-1" d="M167.42,90q0,2-.17,3.89l9.48.83q.16-2.34.2-4.72Z"/><path class="cls-1" d="M143.21,145.33q-1.4,1.35-2.87,2.63l6.14,7.32q1.78-1.55,3.48-3.19Z"/><path class="cls-1" d="M120.47,160.66q-1.77.79-3.59,1.49l3.26,9q2.21-.85,4.36-1.81Z"/><path class="cls-1" d="M132.52,154q-1.61,1.09-3.28,2.09l4.76,8.25q2-1.22,4-2.54Z"/><path class="cls-1" d="M126.64,157.59q-1.7.94-3.45,1.8l4,8.64q2.13-1,4.19-2.19Z"/><path class="cls-1" d="M114.06,163.18q-1.84.63-3.71,1.17l2.47,9.21q2.28-.65,4.5-1.42Z"/><path class="cls-1" d="M107.46,165.13q-1.88.47-3.8.84l1.65,9.37q2.33-.45,4.61-1Z"/><path class="cls-1" d="M148,140.34q-1.28,1.47-2.63,2.87l6.75,6.75q1.64-1.7,3.19-3.48Z"/><path class="cls-1" d="M152.26,135q-1.15,1.57-2.37,3.08l7.31,6.13q1.49-1.83,2.88-3.74Z"/><path class="cls-1" d="M138.05,149.89q-1.51,1.22-3.08,2.37l5.47,7.82q1.91-1.39,3.74-2.88Z"/><path class="cls-1" d="M87,12.51q-1.82,0-3.63.15l.51,5.79c1-.07,2.07-.11,3.12-.13Z"/><path class="cls-1" d="M87,28.26c-.75,0-1.51,0-2.25.09l.3,3.47c.65,0,1.3-.06,2-.08Z"/><path class="cls-1" d="M87,39.86l-1.24,0,.21,2.37,1,0Z"/><path class="cls-1" d="M87,51.68h-.21L87,54.11Z"/><path class="cls-1" d="M87,45.25l-.77,0,.3,3.43H87Z"/><path class="cls-1" d="M87,34.74c-.56,0-1.13,0-1.69.06l.18,2.11c.5,0,1,0,1.5-.06Z"/><path class="cls-1" d="M87,0q-2.37,0-4.72.2l.83,9.48Q85,9.55,87,9.51Z"/><path class="cls-1" d="M87,21.32c-1,0-1.91.06-2.86.12l.34,3.92c.83-.05,1.67-.08,2.52-.1Z"/><path class="cls-1" d="M87,158.61c-1,0-2.09-.06-3.12-.13l-.51,5.79q1.8.12,3.63.15Z"/><path class="cls-1" d="M87,140.07c-.5,0-1,0-1.5-.06l-.18,2.11c.56,0,1.12,0,1.69.06Z"/><path class="cls-1" d="M87,151.68c-.84,0-1.68-.05-2.52-.1l-.34,3.92c.95.06,1.9.1,2.86.12Z"/><path class="cls-1" d="M83.77,52l-.21,0L84,54.37Z"/><path class="cls-1" d="M83.77,125l.21-2.42-.42,2.39Z"/><path class="cls-1" d="M87,145.19c-.65,0-1.3,0-2-.08l-.3,3.47c.75,0,1.5.07,2.25.09Z"/><path class="cls-1" d="M87,122.82l-.21,2.42H87Z"/><path class="cls-1" d="M87,128.25h-.47l-.3,3.43.77,0Z"/><path class="cls-1" d="M76.23,10.43q1.92-.3,3.86-.5L79.26.46q-2.36.24-4.68.61Z"/><path class="cls-1" d="M87,134.69l-1,0L85.72,137l1.24,0Z"/><path class="cls-1" d="M20.84,47.69q1-1.67,2.09-3.28l-7.81-5.47q-1.32,2-2.54,4Z"/><path class="cls-1" d="M12.58,66.58q.54-1.88,1.17-3.71l-9-3.26Q4,61.84,3.38,64.11Z"/><path class="cls-1" d="M11,73.28q.38-1.92.84-3.8L2.61,67q-.57,2.28-1,4.61Z"/><path class="cls-1" d="M14.78,60.05q.7-1.82,1.49-3.59l-8.64-4q-1,2.15-1.81,4.36Z"/><path class="cls-1" d="M17.54,53.74q.86-1.75,1.8-3.45l-8.26-4.77Q9.94,47.58,8.9,49.71Z"/><path class="cls-1" d="M9.51,87q0-2,.17-3.89L.2,82.25Q0,84.59,0,87Z"/><path class="cls-1" d="M9.92,80.09q.21-1.94.5-3.86L1.07,74.58Q.7,76.9.46,79.26Z"/><path class="cls-1" d="M9.68,93.85Q9.55,91.92,9.51,90H0q0,2.37.2,4.72Z"/><path class="cls-1" d="M10.43,100.7q-.3-1.92-.5-3.86l-9.47.83q.24,2.36.61,4.68Z"/><path class="cls-1" d="M44.41,22.93q1.61-1.09,3.28-2.09l-4.76-8.25q-2,1.22-4,2.54Z"/><path class="cls-1" d="M69.48,11.8q1.88-.47,3.8-.84L71.62,1.59Q69.3,2,67,2.61Z"/><path class="cls-1" d="M56.46,16.28q1.77-.79,3.59-1.49l-3.26-9q-2.21.85-4.36,1.81Z"/><path class="cls-1" d="M50.29,19.34q1.7-.94,3.45-1.8l-4-8.64q-2.13,1-4.19,2.19Z"/><path class="cls-1" d="M62.87,13.76q1.84-.63,3.71-1.17L64.11,3.38Q61.84,4,59.61,4.8Z"/><path class="cls-1" d="M29,36.59q1.28-1.47,2.63-2.87L24.85,27q-1.64,1.7-3.19,3.48Z"/><path class="cls-1" d="M38.88,27q1.51-1.22,3.08-2.37l-5.47-7.82q-1.91,1.39-3.74,2.88Z"/><path class="cls-1" d="M24.67,42q1.15-1.57,2.37-3.08l-7.31-6.13q-1.49,1.83-2.88,3.74Z"/><path class="cls-1" d="M33.72,31.6q1.4-1.35,2.87-2.63l-6.14-7.32Q28.67,23.21,27,24.85Z"/><path class="cls-1" d="M43,113c-.24-.44-.46-.89-.69-1.34l-1.92.9c.25.5.5,1,.77,1.5Z"/><path class="cls-1" d="M44.52,102.87c-.11-.33-.22-.66-.32-1l-2.3.62c.12.4.25.79.38,1.19Z"/><path class="cls-1" d="M50.42,100.21l-3.32.89c.08.25.16.49.24.74l3.23-1.18Z"/><path class="cls-1" d="M47.69,110.28c-.16-.3-.32-.61-.47-.92l-2.16,1c.19.37.37.74.57,1.11Z"/><path class="cls-1" d="M45.94,106.64c-.14-.32-.26-.64-.39-1l-2.24.81c.15.39.31.77.47,1.15Z"/><path class="cls-1" d="M47.33,75.09c-.08.25-.16.49-.24.74l3.32.89.15-.45Z"/><path class="cls-1" d="M42.69,60.31l1.84,1.06c.26-.43.54-.85.81-1.27l-1.74-1.22C43.3,59.35,43,59.83,42.69,60.31Z"/><path class="cls-1" d="M45.32,56.43l1.74,1.22c.3-.4.62-.79.93-1.18l-1.62-1.36C46,55.54,45.66,56,45.32,56.43Z"/><path class="cls-1" d="M47.13,62.87l2.06,1.19.56-.87-2-1.37C47.57,62.17,47.35,62.52,47.13,62.87Z"/><path class="cls-1" d="M54.41,102.46l.08.2,2.2-1Z"/><path class="cls-1" d="M35.83,123.49c-.47-.7-.92-1.4-1.36-2.12l-3.41,2c.5.81,1,1.62,1.54,2.41Z"/><path class="cls-1" d="M40.18,82.74l2.37.21c0-.34.08-.69.13-1l-2.35-.41C40.27,81.91,40.22,82.32,40.18,82.74Z"/><path class="cls-1" d="M40.41,64.4l1.92.9c.23-.45.45-.9.69-1.34L41.18,62.9C40.92,63.39,40.67,63.9,40.41,64.4Z"/><path class="cls-1" d="M43.31,70.43l2.24.81c.13-.32.25-.64.39-1l-2.16-1C43.61,69.66,43.46,70,43.31,70.43Z"/><path class="cls-1" d="M40.85,78.55,43.2,79c.07-.34.16-.67.23-1l-2.3-.62C41,77.74,40.93,78.14,40.85,78.55Z"/><path class="cls-1" d="M42.68,95c0-.34-.09-.68-.13-1l-2.37.21c0,.41.1.82.16,1.23Z"/><path class="cls-1" d="M47.69,66.65l-2.06-1.19c-.2.36-.38.74-.57,1.11l2.16,1C47.37,67.27,47.52,67,47.69,66.65Z"/><path class="cls-1" d="M39.91,91.21,42.28,91c0-.34,0-.69,0-1H39.86C39.88,90.38,39.89,90.8,39.91,91.21Z"/><path class="cls-1" d="M39.86,87h2.38c0-.35,0-.69,0-1l-2.37-.21C39.89,86.14,39.88,86.55,39.86,87Z"/><path class="cls-1" d="M45.34,116.83c-.28-.42-.55-.84-.81-1.27l-1.84,1.06c.3.48.6,1,.91,1.42Z"/><path class="cls-1" d="M48,120.47c-.31-.39-.63-.78-.93-1.18l-1.74,1.22c.34.45.69.89,1,1.33Z"/><path class="cls-1" d="M49.2,112.87l-2.06,1.19c.22.35.44.7.67,1l2-1.37Z"/><path class="cls-1" d="M68.78,119.56l1.2-2.09-1.38,2Z"/><path class="cls-1" d="M53.27,107.06l-.22-.42-3.12,1.45.35.69Z"/><path class="cls-1" d="M55,110l-.25-.4-3,1.72.42.65Z"/><path class="cls-1" d="M51.6,103.48l-3.23,1.18c.1.24.19.48.29.72l3.12-1.45C51.71,103.78,51.65,103.63,51.6,103.48Z"/><path class="cls-1" d="M41.06,108.92c-.2-.46-.39-.93-.57-1.39l-2,.73c.21.52.42,1,.64,1.56Z"/><path class="cls-1" d="M34.81,91.66l2.11-.19c0-.5,0-1-.06-1.5H34.74C34.76,90.53,34.77,91.09,34.81,91.66Z"/><path class="cls-1" d="M35.8,77.66l2.09.37c.1-.49.22-1,.34-1.47l-2-.55C36,76.56,35.91,77.1,35.8,77.66Z"/><path class="cls-1" d="M35.07,82.29l2.11.18c.06-.5.12-1,.19-1.49l-2.09-.37C35.2,81.17,35.14,81.73,35.07,82.29Z"/><path class="cls-1" d="M34.74,87h2.12c0-.5,0-1,.06-1.5l-2.11-.19C34.77,85.84,34.76,86.4,34.74,87Z"/><path class="cls-1" d="M37,73.11l2,.55c.14-.48.3-1,.46-1.43l-2-.73C37.29,72,37.11,72.57,37,73.11Z"/><path class="cls-1" d="M37.38,96c-.07-.5-.13-1-.19-1.49l-2.11.18c.06.56.13,1.12.21,1.68Z"/><path class="cls-1" d="M38.49,68.68l2,.73c.19-.47.37-.93.57-1.39l-1.92-.9C38.91,67.63,38.7,68.16,38.49,68.68Z"/><path class="cls-1" d="M38.23,100.37c-.12-.49-.24-1-.34-1.47l-2.09.37c.11.55.25,1.1.38,1.65Z"/><path class="cls-1" d="M39.46,104.71c-.16-.48-.31-1-.46-1.43l-2,.55c.16.54.33,1.08.51,1.61Z"/><path class="cls-1" d="M41.9,74.44l2.3.62c.1-.33.21-.66.32-1l-2.24-.81C42.15,73.64,42,74,41.9,74.44Z"/><path class="cls-1" d="M61.85,54.41,64.05,57l.37-.29-2-2.82Z"/><path class="cls-1" d="M61.82,47.8l1.37,2,.87-.56-1.19-2.06Z"/><path class="cls-1" d="M55.77,71.56l2.19,1-2.09-1.21Z"/><path class="cls-1" d="M63.53,61.41l1.71,1.71-1.55-1.85Z"/><path class="cls-1" d="M64.91,52.21l2,2.82.4-.25-1.72-3Z"/><path class="cls-1" d="M59,56.86l2.43,2.43.34-.32-2.21-2.63Z"/><path class="cls-1" d="M59.34,66l-.13.17,2,1.38Z"/><path class="cls-1" d="M57.37,68.78,59.46,70l-2-1.38Z"/><path class="cls-1" d="M61.26,63.68l1.85,1.55-1.71-1.71Z"/><path class="cls-1" d="M68.84,49.93l-.69.35,1.72,3,.42-.22Z"/><path class="cls-1" d="M70.3,123.88l-.42-.22-1.72,3,.69.35Z"/><path class="cls-1" d="M68.61,57.49l1.38,2-1.2-2.08Z"/><path class="cls-1" d="M67.53,115.75,66,117.59l.17.13Z"/><path class="cls-1" d="M71.25,131.39l-1-.39-1,2.16,1.15.47Z"/><path class="cls-1" d="M66.15,59.21l-.17.13,1.55,1.85Z"/><path class="cls-1" d="M46.33,78.73c-.06.25-.12.5-.17.75l3.39.6c0-.15.07-.31.11-.46Z"/><path class="cls-1" d="M67.12,39.14l.9,1.92c.46-.2.93-.39,1.39-.57l-.73-2C68.16,38.7,67.63,38.91,67.12,39.14Z"/><path class="cls-1" d="M70.43,43.31l-1.15.47,1,2.16,1-.39Z"/><path class="cls-1" d="M45.25,87h3.44c0-.16,0-.32,0-.47l-3.43-.3C45.26,86.45,45.26,86.71,45.25,87Z"/><path class="cls-1" d="M49,83l-3.39-.6c0,.25-.07.51-.1.77l3.43.3C49,83.35,49,83.19,49,83Z"/><path class="cls-1" d="M48.36,72.27l3.23,1.18c.06-.15.11-.3.17-.44l-3.12-1.45C48.55,71.79,48.46,72,48.36,72.27Z"/><path class="cls-1" d="M49.93,68.84l3.12,1.45.22-.42-3-1.72Z"/><path class="cls-1" d="M51.79,65.56l3,1.72.25-.4-2.82-2Z"/><path class="cls-1" d="M49.65,97.31c0-.15-.07-.31-.11-.46l-3.39.6c.05.25.12.5.17.75Z"/><path class="cls-1" d="M49,93.9c0-.16,0-.31-.06-.47l-3.43.3c0,.26.06.51.1.77Z"/><path class="cls-1" d="M45.27,90.74l3.43-.3c0-.16,0-.32,0-.47H45.25C45.26,90.22,45.26,90.48,45.27,90.74Z"/><path class="cls-1" d="M51.69,90.18,54.11,90H51.68C51.69,90,51.69,90.11,51.69,90.18Z"/><path class="cls-1" d="M53.38,77.29l-.07.2,2.36.63Z"/><path class="cls-1" d="M52,83.77l2.42.21L52,83.56Z"/><path class="cls-1" d="M55.68,98.8l-2.36.63.07.2Z"/><path class="cls-1" d="M51.68,87h2.43l-2.42-.21C51.69,86.82,51.69,86.9,51.68,87Z"/><path class="cls-1" d="M52.5,80.6l2.39.42-2.35-.63Z"/><path class="cls-1" d="M54.41,74.48l2.29.83-2.21-1Z"/><path class="cls-1" d="M54.89,95.91l-2.39.42,0,.21Z"/><path class="cls-1" d="M54.37,93,52,93.17l0,.21Z"/><path class="cls-1" d="M43.43,99c-.08-.34-.16-.67-.23-1l-2.35.41c.08.41.19.81.28,1.21Z"/><path class="cls-1" d="M59.66,35.57l1.74,3c.57-.31,1.15-.6,1.74-.89l-1.47-3.16C61,34.87,60.32,35.21,59.66,35.57Z"/><path class="cls-1" d="M64,43c.44-.24.89-.46,1.34-.69l-.9-1.92c-.5.25-1,.5-1.5.77Z"/><path class="cls-1" d="M53.17,44.06c.51-.41,1-.81,1.54-1.2l-2-2.85c-.6.45-1.19.91-1.78,1.38Z"/><path class="cls-1" d="M64.38,33.26l1.47,3.16c.6-.26,1.2-.5,1.8-.74L66.46,32.4C65.76,32.67,65.07,33,64.38,33.26Z"/><path class="cls-1" d="M59.92,52.11l.81-.64-1.37-2c-.33.25-.65.51-1,.77Z"/><path class="cls-1" d="M66.57,45.06l-1.11.57,1.19,2.06.92-.47Z"/><path class="cls-1" d="M56.86,122.2l-1.68,1.68.91.84,1.53-1.82Z"/><path class="cls-1" d="M55.17,38.29l2,2.86c.54-.36,1.09-.71,1.64-1.05l-1.74-3C56.42,37.47,55.79,37.88,55.17,38.29Z"/><path class="cls-1" d="M60.1,45.34l1.27-.81-1.06-1.84c-.48.3-1,.6-1.42.91Z"/><path class="cls-1" d="M61.26,113.25l.15.15,1.71-1.71Z"/><path class="cls-1" d="M61.75,118l-.34-.32L59,120.07l.57.53Z"/><path class="cls-1" d="M64.05,119.89l-2.21,2.63.61.48,2-2.82Z"/><path class="cls-1" d="M59,115.18l-2.63,2.21.53.57,2.43-2.43Z"/><path class="cls-1" d="M67.28,122.16l-.4-.25-2,2.82.65.42Z"/><path class="cls-1" d="M67.58,129.72l-.92-.47-1.19,2.06,1.11.57Z"/><path class="cls-1" d="M62.87,129.8l1.19-2.06-.87-.56-1.37,2Z"/><path class="cls-1" d="M63.53,115.53l.15.15,1.55-1.85Z"/><path class="cls-1" d="M51.19,32.61l2.26,3.22c.7-.47,1.4-.92,2.12-1.36l-2-3.41C52.78,31.56,52,32.08,51.19,32.61Z"/><path class="cls-1" d="M21.69,81.12l3.92.34c.09-.84.19-1.67.32-2.5l-3.88-.68C21.91,79.22,21.8,80.17,21.69,81.12Z"/><path class="cls-1" d="M25.93,98c-.13-.83-.23-1.66-.32-2.5l-3.92.34c.1,1,.22,1.9.36,2.84Z"/><path class="cls-1" d="M27,103.38c-.2-.81-.39-1.63-.55-2.46l-3.87.68c.19.94.4,1.87.63,2.79Z"/><path class="cls-1" d="M21.32,87h3.93c0-.84.05-1.68.1-2.52l-3.92-.34C21.38,85.06,21.34,86,21.32,87Z"/><path class="cls-1" d="M21.44,92.82l3.92-.34c-.05-.83-.08-1.67-.1-2.52H21.32C21.34,90.92,21.38,91.88,21.44,92.82Z"/><path class="cls-1" d="M46.47,36.08l2.53,3c.65-.52,1.31-1,2-1.54l-2.26-3.22C48,34.9,47.21,35.49,46.47,36.08Z"/><path class="cls-1" d="M28.55,108.68q-.4-1.19-.76-2.4l-3.8,1q.4,1.38.86,2.73Z"/><path class="cls-1" d="M30.54,113.82c-.34-.77-.66-1.54-1-2.33l-3.7,1.35q.52,1.34,1.1,2.64Z"/><path class="cls-1" d="M33,118.77c-.4-.73-.78-1.48-1.16-2.24l-3.57,1.66c.42.86.86,1.7,1.32,2.54Z"/><path class="cls-1" d="M34.34,48.73,37.56,51c.5-.68,1-1.34,1.54-2l-3-2.53C35.49,47.21,34.9,48,34.34,48.73Z"/><path class="cls-1" d="M31.07,53.59l3.41,2c.44-.72.89-1.42,1.36-2.12l-3.22-2.26C32.08,52,31.56,52.78,31.07,53.59Z"/><path class="cls-1" d="M38,44.18l3,2.53q.83-.94,1.7-1.85l-2.78-2.78Q39,43.1,38,44.18Z"/><path class="cls-1" d="M42.07,39.95l2.78,2.78q.91-.87,1.85-1.7l-2.53-3Q43.1,39,42.07,39.95Z"/><path class="cls-1" d="M22.58,75.33l3.87.68c.17-.83.36-1.64.55-2.46l-3.8-1C23,73.46,22.77,74.39,22.58,75.33Z"/><path class="cls-1" d="M24,69.64l3.8,1q.36-1.21.76-2.4l-3.7-1.35Q24.39,68.26,24,69.64Z"/><path class="cls-1" d="M28.25,58.73l3.57,1.66c.37-.75.75-1.5,1.16-2.23l-3.41-2C29.11,57,28.67,57.87,28.25,58.73Z"/><path class="cls-1" d="M58,104.35l-2.19,1,.1.19Z"/><path class="cls-1" d="M25.88,64.09l3.7,1.35c.31-.78.63-1.56,1-2.33L27,61.45Q26.4,62.75,25.88,64.09Z"/><path class="cls-1" d="M43.32,48.63,46,50.87c.43-.49.87-1,1.32-1.43L44.85,47Q44.07,47.79,43.32,48.63Z"/><path class="cls-1" d="M48.29,52.8l1.62,1.36c.33-.37.68-.74,1-1.1l-1.5-1.5C49,52,48.66,52.38,48.29,52.8Z"/><path class="cls-1" d="M47,44.85l2.46,2.46c.47-.45.95-.89,1.43-1.32l-2.24-2.67Q47.78,44.07,47,44.85Z"/><path class="cls-1" d="M37.07,57.06l3,1.74c.34-.55.69-1.1,1.05-1.64l-2.86-2C37.88,55.79,37.47,56.42,37.07,57.06Z"/><path class="cls-1" d="M40,52.71l2.85,2c.39-.52.79-1,1.2-1.54L41.4,50.93C40.93,51.51,40.46,52.1,40,52.71Z"/><path class="cls-1" d="M34.53,61.66l3.16,1.47c.29-.58.58-1.16.89-1.74l-3-1.74C35.21,60.32,34.87,61,34.53,61.66Z"/><path class="cls-1" d="M30.69,71.43l3.37.9c.19-.63.38-1.24.59-1.86l-3.28-1.19Q31,70.35,30.69,71.43Z"/><path class="cls-1" d="M32.4,66.46l3.28,1.19c.24-.61.48-1.21.74-1.8l-3.16-1.47C33,65.07,32.67,65.76,32.4,66.46Z"/><path class="cls-1" d="M52.21,56.09,54,57.62l.7-.76-1.68-1.68Z"/><path class="cls-1" d="M57.62,54l-1.53-1.82-.91.84,1.68,1.68Z"/><path class="cls-1" d="M49.52,59.36l2,1.37c.21-.28.43-.54.64-.81l-1.82-1.53C50,58.71,49.77,59,49.52,59.36Z"/><path class="cls-1" d="M61.18,109.4l-2,1.38.13.17Z"/><path class="cls-1" d="M59.46,106.95l-2.08,1.2.11.18Z"/><path class="cls-1" d="M56.33,59.54,59,61.75l.32-.34L56.86,59Z"/><path class="cls-1" d="M55.1,46.36,56.46,48c.39-.31.78-.63,1.18-.93l-1.22-1.74C56,45.66,55.54,46,55.1,46.36Z"/><path class="cls-1" d="M29.41,76.53l3.43.61c.13-.64.28-1.27.44-1.9l-3.37-.9C29.73,75.06,29.56,75.79,29.41,76.53Z"/><path class="cls-1" d="M53.93,62.45l2.82,2,.29-.37-2.63-2.21Z"/><path class="cls-1" d="M50.87,130.94c-.49-.43-1-.87-1.43-1.32L47,132.08q.82.78,1.66,1.53Z"/><path class="cls-1" d="M49.91,122.77l-1.62,1.36c.37.42.76.83,1.14,1.24l1.5-1.5C50.59,123.51,50.25,123.15,49.91,122.77Z"/><path class="cls-1" d="M57.64,129.87c-.4-.3-.79-.62-1.18-.93l-1.36,1.62c.44.35.88.7,1.33,1Z"/><path class="cls-1" d="M44.07,123.77c-.4-.51-.81-1-1.2-1.54l-2.85,2c.45.6.91,1.19,1.38,1.78Z"/><path class="cls-1" d="M51.47,116.2l-2,1.37c.25.33.51.65.77,1L52.11,117C51.9,116.74,51.68,116.48,51.47,116.2Z"/><path class="cls-1" d="M47.31,127.5c-.45-.47-.89-.95-1.32-1.43l-2.67,2.24q.75.84,1.53,1.66Z"/><path class="cls-1" d="M56.75,112.51l-2.82,2,.48.61L57,112.88Z"/><path class="cls-1" d="M54.16,127c-.37-.33-.74-.68-1.1-1l-1.5,1.5c.41.39.82.77,1.24,1.14Z"/><path class="cls-1" d="M54,119.32l-1.82,1.53.84.91,1.68-1.68Z"/><path class="cls-1" d="M38.58,115.53c-.31-.57-.6-1.15-.89-1.74l-3.16,1.47c.34.67.67,1.35,1,2Z"/><path class="cls-1" d="M32.33,96.84c-.1-.64-.17-1.29-.25-1.94l-3.47.3c.08.75.17,1.5.29,2.24Z"/><path class="cls-1" d="M33.28,101.7c-.15-.63-.31-1.26-.44-1.9l-3.43.61c.15.74.32,1.47.5,2.2Z"/><path class="cls-1" d="M28.35,92.22l3.47-.3c0-.65-.06-1.3-.08-2H28.26C28.28,90.72,28.3,91.47,28.35,92.22Z"/><path class="cls-1" d="M28.26,87h3.49c0-.65,0-1.3.08-2l-3.47-.3C28.3,85.46,28.28,86.21,28.26,87Z"/><path class="cls-1" d="M36.42,111.08c-.26-.6-.5-1.2-.74-1.8l-3.28,1.19c.28.7.56,1.4.86,2.08Z"/><path class="cls-1" d="M28.61,81.72l3.47.3c.07-.65.15-1.3.25-1.94l-3.44-.61C28.78,80.23,28.69,81,28.61,81.72Z"/><path class="cls-1" d="M34.65,106.46c-.21-.62-.41-1.24-.59-1.86l-3.37.9q.32,1.09.68,2.15Z"/><path class="cls-1" d="M41.15,119.77c-.36-.54-.71-1.09-1.05-1.64l-3,1.74c.39.64.8,1.27,1.22,1.9Z"/></g></g></svg>