<svg xmlns="http://www.w3.org/2000/svg" viewBox="0 0 410.91 410.4"><defs><style>.cls-1{fill:#fff;}</style></defs><title>Asset 4</title><g id="Layer_2" data-name="Layer 2"><g id="svg_art" data-name="svg art"><path class="cls-1" d="M205.1,254.05a49.91,49.91,0,0,1-6.24-.39.75.75,0,1,1,.19-1.49,48.21,48.21,0,0,0,47-22.34.75.75,0,0,1,1.27.79,49.81,49.81,0,0,1-38.69,23.31C207.44,254,206.26,254.05,205.1,254.05Zm-11.63-1.41-.18,0a49.69,49.69,0,0,1-36.9-38.94.75.75,0,1,1,1.47-.28,48.19,48.19,0,0,0,35.78,37.76.75.75,0,0,1-.18,1.48Zm55.87-26.57a.75.75,0,0,1-.68-1.07,47.56,47.56,0,0,0,4.62-20.54c0-1.13,0-2.27-.12-3.41A47.76,47.76,0,0,0,242,173.42a.75.75,0,1,1,1.15-1A49.25,49.25,0,0,1,254.66,201c.08,1.17.12,2.35.12,3.51A49.05,49.05,0,0,1,250,225.65.75.75,0,0,1,249.34,226.08ZM156.4,208.77a.75.75,0,0,1-.75-.7v-.18c-.08-1.18-.12-2.36-.12-3.52a49.59,49.59,0,0,1,25.88-43.54.75.75,0,0,1,.72,1.32A48.1,48.1,0,0,0,157,204.37c0,1.12,0,2.27.12,3.41V208a.75.75,0,0,1-.7.8Zm82.31-39.13a.75.75,0,0,1-.51-.2,48.2,48.2,0,0,0-51.12-9.63.75.75,0,1,1-.56-1.39,49.7,49.7,0,0,1,52.71,9.93.75.75,0,0,1-.51,1.3Z"/><path class="cls-1" d="M205.13,264.71a60,60,0,0,1-20.67-3.64.75.75,0,0,1,.51-1.41,58.93,58.93,0,0,0,50.57-4.9.75.75,0,1,1,.78,1.28,60.26,60.26,0,0,1-30.12,8.66Zm-28.7-7.38a.75.75,0,0,1-.36-.09,60,60,0,0,1-30.3-42.38.75.75,0,0,1,1.48-.26,58.5,58.5,0,0,0,29.54,41.33.75.75,0,0,1-.36,1.41Zm66.92-6.49a.75.75,0,0,1-.48-1.33,58.66,58.66,0,0,0,21.08-45.08q0-.52,0-1v-.1a.75.75,0,0,1,.74-.76.74.74,0,0,1,.76.74h-.75l.75.08c0,.37,0,.73,0,1.08a60.16,60.16,0,0,1-21.61,46.23A.75.75,0,0,1,243.34,250.85Zm-97.72-44.44a.75.75,0,0,1-.75-.73v-.2q0-.53,0-1.07a60.15,60.15,0,0,1,21.69-46.29.75.75,0,1,1,1,1.15,58.65,58.65,0,0,0-21.15,45.14q0,.52,0,1v.19a.75.75,0,0,1-.73.77ZM263.81,195a.75.75,0,0,1-.74-.62A58.5,58.5,0,0,0,233.59,153a.75.75,0,0,1,.73-1.31,60,60,0,0,1,30.23,42.43.75.75,0,0,1-.61.87Zm-89.36-40.82a.75.75,0,0,1-.39-1.39,60.43,60.43,0,0,1,51.87-4.94.75.75,0,0,1-.52,1.41A58.93,58.93,0,0,0,174.84,154,.75.75,0,0,1,174.45,154.15Z"/><path class="cls-1" d="M205.06,276.22a71.78,71.78,0,0,1-33-8.08.75.75,0,0,1,.69-1.33A70.53,70.53,0,0,0,214.93,274l.19.73,0,.75A72.7,72.7,0,0,1,205.06,276.22Zm21.5-3.3a.75.75,0,0,1-.23-1.47,69.76,69.76,0,0,0,35-24.78.75.75,0,1,1,1.2.9,71.25,71.25,0,0,1-35.74,25.31A.75.75,0,0,1,226.56,272.92Zm-64.08-11a.75.75,0,0,1-.45-.15,71.26,71.26,0,0,1-25.33-35.72.75.75,0,1,1,1.43-.45,69.76,69.76,0,0,0,24.8,35,.75.75,0,0,1-.45,1.35Zm105.7-24a.75.75,0,0,1-.66-1.1,70.28,70.28,0,0,0,7.93-32.33,71.17,71.17,0,0,0-.69-9.87.78.78,0,0,1,.63-.88.73.73,0,0,1,.85.6v.08a72.62,72.62,0,0,1,.71,10.07,71.78,71.78,0,0,1-8.1,33A.75.75,0,0,1,268.18,237.94ZM134.82,215.17a.75.75,0,0,1-.74-.65l0-.11a72.67,72.67,0,0,1-.71-10.08,71.78,71.78,0,0,1,8.13-33.08.75.75,0,1,1,1.33.69,70.27,70.27,0,0,0-8,32.39,71.17,71.17,0,0,0,.69,9.87l0,.12a.75.75,0,0,1-.64.85ZM272.9,183.79a.75.75,0,0,1-.72-.52,69.76,69.76,0,0,0-24.77-35,.75.75,0,1,1,.9-1.2,71.25,71.25,0,0,1,25.3,35.75.75.75,0,0,1-.72,1ZM148.41,162.43a.75.75,0,0,1-.6-1.2,71.25,71.25,0,0,1,35.76-25.28.75.75,0,0,1,.45,1.43,69.76,69.76,0,0,0-35,24.76A.75.75,0,0,1,148.41,162.43Zm89.54-20.28a.75.75,0,0,1-.35-.08,70.56,70.56,0,0,0-42.23-7.25.76.76,0,0,1-.86-.63.74.74,0,0,1,.62-.85l.11.74-.09-.75a72,72,0,0,1,43.15,7.4.75.75,0,0,1-.35,1.42Z"/><path class="cls-1" d="M200.88,288.32h0a84.42,84.42,0,0,1-36-10.19.75.75,0,0,1,.72-1.32,82.91,82.91,0,0,0,35.31,10,.75.75,0,0,1,0,1.5Zm14.92-.59a.75.75,0,0,1-.1-1.49,83.38,83.38,0,0,0,10.8-2.14,82.39,82.39,0,0,0,23.66-10.52.75.75,0,1,1,.82,1.26,83.93,83.93,0,0,1-24.09,10.72,85,85,0,0,1-11,2.18Zm-63-17.81a.75.75,0,0,1-.47-.17,84.11,84.11,0,0,1-23.12-29.36.75.75,0,1,1,1.36-.64,82.61,82.61,0,0,0,22.71,28.83.75.75,0,0,1-.47,1.33Zm109.44-4.2a.75.75,0,0,1-.52-1.29,83.32,83.32,0,0,0,20.42-30.5.75.75,0,0,1,1.4.54,84.83,84.83,0,0,1-20.79,31.06A.75.75,0,0,1,262.28,265.72Zm-137.5-38.89a.75.75,0,0,1-.72-.56l0-.11a83.62,83.62,0,0,1-1.42-37.35.75.75,0,1,1,1.47.28,82.11,82.11,0,0,0,1.39,36.68l0,.11a.75.75,0,0,1-.53.92ZM287,220.59h-.14a.75.75,0,0,1-.6-.88,82.12,82.12,0,0,0-1.4-36.62.78.78,0,0,1,.52-.95.72.72,0,0,1,.91.49l0,.1A83.61,83.61,0,0,1,287.7,220,.75.75,0,0,1,287,220.59ZM127.44,175.35a.75.75,0,0,1-.7-1,84.83,84.83,0,0,1,20.81-31,.75.75,0,1,1,1,1.09,83.31,83.31,0,0,0-20.44,30.49A.75.75,0,0,1,127.44,175.35Zm153-5.78a.75.75,0,0,1-.68-.43A82.62,82.62,0,0,0,257,140.29a.75.75,0,1,1,.94-1.17,84.12,84.12,0,0,1,23.1,29.37.75.75,0,0,1-.68,1.07Zm-120.61-34.2a.75.75,0,0,1-.41-1.38,83.94,83.94,0,0,1,24-10.68,85,85,0,0,1,11-2.19.75.75,0,0,1,.19,1.49,83.53,83.53,0,0,0-10.85,2.15,82.43,82.43,0,0,0-23.61,10.49A.75.75,0,0,1,159.78,135.36Zm85.32-3.21a.75.75,0,0,1-.36-.09,82.92,82.92,0,0,0-35.31-10,.75.75,0,0,1-.71-.79.74.74,0,0,1,.79-.71,84.43,84.43,0,0,1,35.95,10.22.75.75,0,0,1-.36,1.41Z"/><path class="cls-1" d="M196.6,304.06h-.07a100.27,100.27,0,0,1-29-7,.75.75,0,0,1,.56-1.39,98.78,98.78,0,0,0,28.54,6.88.75.75,0,0,1-.06,1.5Zm22.21-.57a.75.75,0,0,1-.1-1.49,98.53,98.53,0,0,0,28.06-8.32l.4.64.24.71a100,100,0,0,1-28.5,8.45Zm-70.5-17a.74.74,0,0,1-.43-.13,99.31,99.31,0,0,1-21.62-20.51.75.75,0,1,1,1.18-.92,97.81,97.81,0,0,0,21.29,20.2.75.75,0,0,1-.43,1.37Zm117.82-3a.75.75,0,0,1-.46-1.34,97.77,97.77,0,0,0,20.21-21.29.75.75,0,0,1,1.23.86,99.29,99.29,0,0,1-20.52,21.61A.75.75,0,0,1,266.13,283.49ZM115.26,247.22a.75.75,0,0,1-.68-.43l-.05-.12a100,100,0,0,1-8.45-28.57.75.75,0,0,1,1.49-.21A98.53,98.53,0,0,0,115.89,246l.05.11a.75.75,0,0,1-.68,1.07Zm181.83-4.71a.75.75,0,0,1-.69-1,98.79,98.79,0,0,0,6.88-28.54.76.76,0,0,1,.81-.68.75.75,0,0,1,.68.81,100.28,100.28,0,0,1-7,29A.75.75,0,0,1,297.09,242.51Zm-190.82-46h-.07a.75.75,0,0,1-.68-.81,100.29,100.29,0,0,1,7-29,.75.75,0,1,1,1.39.57,98.78,98.78,0,0,0-6.9,28.53A.75.75,0,0,1,106.27,196.53Zm197.2-5a.75.75,0,0,1-.74-.65,98.54,98.54,0,0,0-8.32-28.09l.65-.37.68-.31-.68.31.7-.27a100,100,0,0,1,8.45,28.52.75.75,0,0,1-.64.85ZM123.84,148.26a.75.75,0,0,1-.61-1.18,99.3,99.3,0,0,1,20.53-21.6.75.75,0,1,1,.92,1.18,97.8,97.8,0,0,0-20.22,21.27A.75.75,0,0,1,123.84,148.26Zm159.65-4a.75.75,0,0,1-.59-.29,97.83,97.83,0,0,0-21.28-20.22.75.75,0,1,1,.86-1.23A99.3,99.3,0,0,1,284.08,143a.75.75,0,0,1-.59,1.21Zm-120.28-29a.75.75,0,0,1-.69-.43.74.74,0,0,1,.34-1l0,0a100,100,0,0,1,28.54-8.44.75.75,0,0,1,.21,1.49,98.55,98.55,0,0,0-28.12,8.32A.76.76,0,0,1,163.2,115.24Zm79.31-2a.75.75,0,0,1-.28-.06,98.78,98.78,0,0,0-28.54-6.89.75.75,0,1,1,.13-1.49,100.28,100.28,0,0,1,29,7,.75.75,0,0,1-.28,1.44Z"/><path class="cls-1" d="M201.26,319.45h0a116,116,0,0,1-22.37-3,.75.75,0,0,1,.34-1.46A114.49,114.49,0,0,0,201.28,318a.75.75,0,0,1,0,1.5Zm25.32-1.94a.75.75,0,0,1-.14-1.49,113.25,113.25,0,0,0,21.36-6.29.75.75,0,0,1,.56,1.39,114.77,114.77,0,0,1-21.65,6.37ZM155.11,308a.75.75,0,0,1-.33-.08,114.57,114.57,0,0,1-19.22-11.81.75.75,0,1,1,.91-1.19,113,113,0,0,0,19,11.66.75.75,0,0,1-.33,1.42Zm115.29-8.94a.75.75,0,0,1-.43-1.37c2.8-2,5.56-4.06,8.19-6.27a115.46,115.46,0,0,0,8.76-8.17.75.75,0,1,1,1.08,1,116.94,116.94,0,0,1-8.88,8.27c-2.67,2.24-5.46,4.37-8.3,6.35A.74.74,0,0,1,270.4,299.08ZM117.64,278.77a.75.75,0,0,1-.58-.27l-.07-.08a116,116,0,0,1-12.76-18.62.75.75,0,1,1,1.31-.72,114.51,114.51,0,0,0,12.59,18.37l.08.1a.75.75,0,0,1-.58,1.23ZM303,264.44a.75.75,0,0,1-.64-1.14,113.25,113.25,0,0,0,9.6-20.08.75.75,0,1,1,1.41.51,114.75,114.75,0,0,1-9.73,20.35A.75.75,0,0,1,303,264.44ZM95.21,236.7a.75.75,0,0,1-.72-.54,115.22,115.22,0,0,1-4-22.2.75.75,0,1,1,1.5-.12,113.65,113.65,0,0,0,4,21.91.75.75,0,0,1-.51.93Zm223.38-17.17h-.09a.75.75,0,0,1-.65-.84,114.73,114.73,0,0,0,.9-14.33c0-2.64-.09-5.31-.28-7.93a.75.75,0,1,1,1.5-.1c.19,2.66.28,5.36.28,8a116.33,116.33,0,0,1-.91,14.52A.75.75,0,0,1,318.59,219.54ZM91.92,189.27h-.1a.75.75,0,0,1-.64-.85,115.76,115.76,0,0,1,5.3-21.93.75.75,0,1,1,1.42.49,114.2,114.2,0,0,0-5.23,21.64A.75.75,0,0,1,91.92,189.27Zm222.73-17.12a.75.75,0,0,1-.72-.53A113,113,0,0,0,305.44,151a.75.75,0,1,1,1.32-.71,114.55,114.55,0,0,1,8.61,20.86.75.75,0,0,1-.5.93A.76.76,0,0,1,314.65,172.15ZM108.14,144.58a.75.75,0,0,1-.64-1.15,114.81,114.81,0,0,1,13.79-17.86.75.75,0,1,1,1.09,1,113.22,113.22,0,0,0-13.6,17.63A.75.75,0,0,1,108.14,144.58Zm183.59-14.09a.75.75,0,0,1-.57-.26,114.32,114.32,0,0,0-16.11-15.37.75.75,0,0,1,.92-1.18,115.78,115.78,0,0,1,16.32,15.57.75.75,0,0,1-.57,1.24Zm-150.55-20.1a.75.75,0,0,1-.42-1.37A114.79,114.79,0,0,1,160.6,98.27a.75.75,0,1,1,.58,1.38,113.36,113.36,0,0,0-19.58,10.61A.74.74,0,0,1,141.18,110.38Zm112.71-8.67a.75.75,0,0,1-.32-.07,113.76,113.76,0,0,0-21-7.45.75.75,0,1,1,.36-1.46,115.27,115.27,0,0,1,21.26,7.55.75.75,0,0,1-.32,1.43Zm-68.64-9.16a.75.75,0,0,1-.13-1.49,115.89,115.89,0,0,1,22.5-1.71.75.75,0,1,1,0,1.5,114.13,114.13,0,0,0-22.21,1.69Z"/><path class="cls-1" d="M196.09,336.44H196a133,133,0,0,1-14.72-1.84.75.75,0,0,1,.27-1.48,131.67,131.67,0,0,0,14.56,1.81.75.75,0,0,1,0,1.5Zm26.51-.86a.75.75,0,0,1-.1-1.49,132.25,132.25,0,0,0,14.41-2.75.75.75,0,1,1,.36,1.46,133.49,133.49,0,0,1-14.58,2.78ZM156,327.25a.75.75,0,0,1-.28-.05,131.79,131.79,0,0,1-13.42-6.31.75.75,0,0,1,.71-1.32,130.23,130.23,0,0,0,13.27,6.24.75.75,0,0,1-.28,1.45Zm106.09-3.41a.75.75,0,0,1-.32-1.43,130.59,130.59,0,0,0,12.85-7.07.75.75,0,1,1,.8,1.27,132,132,0,0,1-13,7.15A.75.75,0,0,1,262.06,323.84ZM120.69,306.06a.75.75,0,0,1-.48-.17l-.12-.1a134.3,134.3,0,0,1-10.81-10.15.75.75,0,0,1,1.09-1,132.78,132.78,0,0,0,10.7,10l.11.09a.75.75,0,0,1-.48,1.33Zm175.24-5.63a.75.75,0,0,1-.52-1.29,132.79,132.79,0,0,0,10-10.62l.07-.09a.75.75,0,0,1,1.15,1l-.07.08a134.37,134.37,0,0,1-10.07,10.75A.75.75,0,0,1,295.93,300.43ZM93.54,274.92a.75.75,0,0,1-.64-.35,131.94,131.94,0,0,1-7.14-13,.75.75,0,0,1,1.35-.65,130.59,130.59,0,0,0,7.06,12.86.75.75,0,0,1-.64,1.15Zm227.39-7.19a.75.75,0,0,1-.66-1.11,130.28,130.28,0,0,0,6.25-13.27.75.75,0,0,1,1.39.56,132,132,0,0,1-6.32,13.42A.75.75,0,0,1,320.93,267.73ZM77.47,237a.75.75,0,0,1-.73-.57A133.58,133.58,0,0,1,74,221.87a.75.75,0,1,1,1.49-.2,131.92,131.92,0,0,0,2.74,14.41.75.75,0,0,1-.55.91Zm257.11-8.11h-.14a.75.75,0,0,1-.6-.87,131.68,131.68,0,0,0,1.82-14.56.75.75,0,1,1,1.5.1,133.12,133.12,0,0,1-1.84,14.72A.75.75,0,0,1,334.59,228.9ZM73.88,196h-.05a.75.75,0,0,1-.7-.8A132.86,132.86,0,0,1,75,180.48a.75.75,0,0,1,1.48.27,131.36,131.36,0,0,0-1.83,14.56A.75.75,0,0,1,73.88,196Zm261.68-8.26a.75.75,0,0,1-.74-.65,132.09,132.09,0,0,0-2.75-14.41.75.75,0,0,1,1.46-.36,133.5,133.5,0,0,1,2.78,14.58.75.75,0,0,1-.64.84ZM83.11,155.89a.75.75,0,0,1-.69-1,131.77,131.77,0,0,1,6.33-13.42.75.75,0,0,1,1.32.71,130.46,130.46,0,0,0-6.25,13.27A.75.75,0,0,1,83.11,155.89Zm240.72-7.6a.75.75,0,0,1-.68-.43A130.58,130.58,0,0,0,316.08,135a.75.75,0,1,1,1.27-.8,132,132,0,0,1,7.15,13,.75.75,0,0,1-.68,1.07Zm-218.9-28-.6-.45-.56-.5a134.17,134.17,0,0,1,10.13-10.81.75.75,0,0,1,1,1.08A132.83,132.83,0,0,0,104.93,120.33Zm-.6-.45h0Zm196.1-5.46a.75.75,0,0,1-.54-.23,132.66,132.66,0,0,0-10.65-10l.42-.62.48-.57-.48.57.53-.54A134.25,134.25,0,0,1,301,113.15a.75.75,0,0,1-.54,1.27ZM135.37,93.58a.75.75,0,0,1-.4-1.39A132,132,0,0,1,148,85a.75.75,0,1,1,.65,1.35,130.34,130.34,0,0,0-12.86,7.07A.75.75,0,0,1,135.37,93.58Zm132.36-4.17a.75.75,0,0,1-.36-.09,130.46,130.46,0,0,0-13.27-6.25.75.75,0,1,1,.56-1.39A131.72,131.72,0,0,1,268.09,88a.75.75,0,0,1-.36,1.41Zm-94.47-11.9a.75.75,0,0,1-.18-1.48,133.48,133.48,0,0,1,14.58-2.77.75.75,0,0,1,.2,1.49,131.89,131.89,0,0,0-14.41,2.74Zm55.65-1.77h-.14a131.41,131.41,0,0,0-14.56-1.82.75.75,0,0,1-.7-.8.74.74,0,0,1,.8-.7,132.86,132.86,0,0,1,14.72,1.84.75.75,0,0,1-.13,1.49Z"/><path class="cls-1" d="M192,356.13H192c-3-.26-6.12-.62-9.14-1.07a.75.75,0,0,1,.22-1.48c3,.44,6,.8,9,1.06a.75.75,0,0,1-.06,1.5Zm30.46-.41a.75.75,0,0,1-.08-1.5c3-.34,6-.78,9-1.31a.75.75,0,1,1,.26,1.48c-3,.53-6.07,1-9.1,1.32Zm-69.09-8.1a.74.74,0,0,1-.26,0c-2.87-1-5.75-2.18-8.55-3.39a.75.75,0,1,1,.59-1.38c2.77,1.2,5.62,2.33,8.46,3.36a.75.75,0,0,1-.26,1.46Zm107.46-1.5a.75.75,0,0,1-.28-1.45c2.82-1.11,5.63-2.33,8.37-3.61a.75.75,0,1,1,.64,1.36c-2.76,1.29-5.6,2.52-8.45,3.64A.74.74,0,0,1,260.88,346.12ZM118.32,329.4a.75.75,0,0,1-.43-.14c-2.5-1.75-5-3.6-7.37-5.5a.75.75,0,0,1,.93-1.17c2.37,1.88,4.82,3.71,7.3,5.44a.75.75,0,0,1-.43,1.36Zm177.12-2.54a.75.75,0,0,1-.45-1.35c2.4-1.78,4.77-3.66,7.07-5.59l.08-.07a.75.75,0,0,1,1,1.15l-.08.07c-2.31,1.94-4.72,3.84-7.14,5.64A.75.75,0,0,1,295.44,326.86ZM89.16,302.68a.75.75,0,0,1-.58-.27l-.09-.1c-2-2.35-3.89-4.78-5.71-7.23a.75.75,0,1,1,1.2-.89c1.8,2.43,3.7,4.83,5.65,7.15l.09.11a.75.75,0,0,1-.58,1.23Zm234.72-3.32a.75.75,0,0,1-.59-1.22c1.88-2.37,3.71-4.82,5.45-7.29a.75.75,0,1,1,1.23.86c-1.75,2.5-3.6,5-5.5,7.37A.75.75,0,0,1,323.88,299.36ZM67.78,269.22a.75.75,0,0,1-.68-.43c-1.29-2.77-2.52-5.61-3.64-8.45a.75.75,0,1,1,1.4-.55c1.11,2.81,2.32,5.63,3.6,8.37a.75.75,0,0,1-.68,1.07Zm276.42-3.78a.75.75,0,0,1-.69-1c1.2-2.77,2.33-5.62,3.36-8.46a.75.75,0,0,1,1.41.51c-1,2.87-2.18,5.75-3.39,8.55A.75.75,0,0,1,344.21,265.44Zm-288.31-34a.75.75,0,0,1-.74-.62c-.53-3-1-6.07-1.31-9.11a.75.75,0,0,1,1.49-.17c.34,3,.78,6,1.3,9a.75.75,0,0,1-.61.87ZM355,227.4h-.11a.75.75,0,0,1-.63-.85c.44-3,.8-6,1.06-9a.75.75,0,1,1,1.49.13c-.26,3-.62,6.11-1.07,9.14A.75.75,0,0,1,355,227.4ZM54.2,192h-.07a.75.75,0,0,1-.68-.81c.27-3,.63-6.12,1.08-9.13a.75.75,0,0,1,1.48.22c-.44,3-.8,6-1.07,9A.75.75,0,0,1,54.2,192Zm301.49-4.12a.75.75,0,0,1-.74-.67c-.34-3-.78-6-1.31-9a.75.75,0,1,1,1.48-.26c.53,3,1,6.07,1.32,9.1a.75.75,0,0,1-.66.83Zm-293-34.5a.75.75,0,0,1-.71-1c1-2.87,2.18-5.74,3.4-8.55a.75.75,0,0,1,1.38.6c-1.2,2.77-2.33,5.62-3.36,8.46A.75.75,0,0,1,62.74,153.34Zm283.37-3.87a.75.75,0,0,1-.7-.47c-1.11-2.81-2.33-5.63-3.61-8.37a.75.75,0,1,1,1.36-.64c1.29,2.77,2.52,5.61,3.64,8.45a.75.75,0,0,1-.7,1ZM81,118.26a.75.75,0,0,1-.61-1.18c1.75-2.5,3.6-5,5.5-7.37a.75.75,0,1,1,1.17.93c-1.88,2.37-3.72,4.82-5.45,7.29A.75.75,0,0,1,81,118.26Zm245.88-3.35a.75.75,0,0,1-.6-.3c-1.79-2.41-3.68-4.79-5.61-7.1l.53-.54.58-.48-.58.48.62-.43c2,2.32,3.86,4.74,5.66,7.17a.75.75,0,0,1-.6,1.2Zm-218.63-26-1-1.14c2.35-2,4.77-3.88,7.21-5.7a.75.75,0,1,1,.89,1.2C112.94,85.09,110.54,87,108.23,88.92Zm-.51-.55h0Zm191.64-1.91a.75.75,0,0,1-.47-.16c-2.37-1.88-4.82-3.71-7.29-5.45a.75.75,0,1,1,.86-1.23c2.5,1.75,5,3.6,7.37,5.5a.75.75,0,0,1-.47,1.34ZM141.07,67.82a.75.75,0,0,1-.32-1.43c2.76-1.29,5.61-2.52,8.45-3.64a.75.75,0,0,1,.55,1.39c-2.82,1.11-5.63,2.33-8.37,3.6A.75.75,0,0,1,141.07,67.82Zm124.38-1.7a.75.75,0,0,1-.3-.06c-2.77-1.2-5.62-2.33-8.46-3.36a.75.75,0,1,1,.51-1.41c2.87,1,5.74,2.18,8.55,3.4a.75.75,0,0,1-.3,1.44ZM178.8,55.93a.75.75,0,0,1-.13-1.49c3-.53,6.07-1,9.1-1.32a.75.75,0,1,1,.17,1.49c-3,.34-6,.78-9,1.3Zm48.61-.64h-.11c-3-.44-6-.8-9-1.06a.75.75,0,0,1,.13-1.49c3,.27,6.12.63,9.13,1.07a.75.75,0,0,1-.11,1.49Z"/><path class="cls-1" d="M195.87,382.44h0l-3-.19a.75.75,0,0,1-.7-.8.73.73,0,0,1,.8-.7l3,.18a.75.75,0,0,1,0,1.5Zm45.21-3.4a.75.75,0,0,1-.15-1.48l3-.63a.75.75,0,1,1,.33,1.46l-3,.64Zm-92.7-5.65a.76.76,0,0,1-.24,0l-2.87-1a.75.75,0,1,1,.5-1.41l2.85,1a.75.75,0,0,1-.24,1.46Zm138.27-10.48a.75.75,0,0,1-.35-1.42q1.34-.69,2.67-1.41a.75.75,0,0,1,.71,1.32q-1.34.73-2.7,1.43A.75.75,0,0,1,286.65,362.91Zm-181.54-11a.75.75,0,0,1-.42-.13q-1.25-.85-2.49-1.73a.75.75,0,0,1,.87-1.22q1.23.87,2.47,1.72a.75.75,0,0,1-.42,1.37ZM326.17,335a.75.75,0,0,1-.51-1.3q1.11-1,2.19-2.07a.75.75,0,1,1,1,1.08q-1.09,1.05-2.21,2.09A.74.74,0,0,1,326.17,335ZM69.29,319.42a.75.75,0,0,1-.57-.27l-.13-.15q-1-1.17-1.94-2.35a.75.75,0,1,1,1.17-.94q1,1.17,1.93,2.34l.12.15a.75.75,0,0,1-.57,1.23Zm287.46-21.82a.75.75,0,0,1-.64-1.14q.78-1.29,1.55-2.58a.75.75,0,0,1,1.29.76q-.77,1.31-1.56,2.61A.75.75,0,0,1,356.75,297.61ZM43.38,278.37a.75.75,0,0,1-.68-.44q-.63-1.39-1.23-2.79a.75.75,0,0,1,1.38-.6q.6,1.39,1.22,2.76a.75.75,0,0,1-.68,1.06ZM376,253.29l-.2,0a.75.75,0,0,1-.52-.92q.41-1.45.79-2.91a.75.75,0,1,1,1.45.38q-.39,1.47-.8,2.94A.75.75,0,0,1,376,253.29ZM29.65,232a.75.75,0,0,1-.74-.64q-.23-1.51-.43-3a.75.75,0,1,1,1.49-.2q.2,1.5.43,3a.75.75,0,0,1-.63.85Zm353-26.61h0a.75.75,0,0,1-.75-.75v-.32q0-1.35,0-2.69a.75.75,0,0,1,.74-.76h0a.75.75,0,0,1,.75.74q0,1.36,0,2.72v.33A.75.75,0,0,1,382.66,205.41ZM28.94,183.67h-.09a.75.75,0,0,1-.65-.84q.18-1.51.39-3a.75.75,0,0,1,1.49.21q-.21,1.49-.39,3A.75.75,0,0,1,28.94,183.67ZM376.18,157.5a.75.75,0,0,1-.72-.55q-.4-1.45-.83-2.9a.75.75,0,0,1,1.44-.43q.43,1.46.84,2.93a.75.75,0,0,1-.52.92ZM41.24,136.93a.75.75,0,0,1-.69-1q.58-1.4,1.19-2.8a.75.75,0,0,1,1.38.6q-.6,1.38-1.18,2.77A.75.75,0,0,1,41.24,136.93ZM357,113.14a.75.75,0,0,1-.64-.36q-.78-1.29-1.59-2.57a.75.75,0,0,1,1.27-.8q.82,1.29,1.61,2.59a.75.75,0,0,1-.64,1.14ZM65.72,95.26A.75.75,0,0,1,65.13,94q.94-1.19,1.9-2.36a.75.75,0,0,1,1.16,1q-1,1.17-1.89,2.34A.75.75,0,0,1,65.72,95.26ZM326.5,75.6a.75.75,0,0,1-.51-.2q-1.1-1-2.22-2a.75.75,0,0,1,1-1.11q1.13,1,2.24,2.06a.75.75,0,0,1-.51,1.3ZM100.55,61.74a.75.75,0,0,1-.44-1.36q1.23-.9,2.48-1.78a.75.75,0,0,1,.86,1.23q-1.23.87-2.46,1.76A.74.74,0,0,1,100.55,61.74Zm186.52-14.1a.74.74,0,0,1-.35-.08L284,46.2a.75.75,0,0,1,.67-1.34l2.71,1.38a.75.75,0,0,1-.35,1.42Zm-144-8.84a.75.75,0,0,1-.26-1.45l2.86-1a.75.75,0,0,1,.5,1.41l-2.84,1A.75.75,0,0,1,143.12,38.8Zm98.43-7.37-.15,0-3-.59a.75.75,0,0,1,.28-1.47l3,.6a.75.75,0,0,1-.15,1.48ZM190.3,28.27a.75.75,0,0,1-.06-1.5l3-.23a.75.75,0,1,1,.1,1.5l-3,.22Z"/><path class="cls-1" d="M208.94,410.4a.75.75,0,0,1,0-1.5l1.49,0a.76.76,0,0,1,.77.73.75.75,0,0,1-.73.77l-1.5,0Zm-59.22-7.58-.2,0-1.44-.41a.75.75,0,0,1,.41-1.44l1.43.41a.75.75,0,0,1-.2,1.47Zm119.55-2.61a.75.75,0,0,1-.23-1.46l1.42-.47a.75.75,0,1,1,.48,1.42l-1.43.48A.74.74,0,0,1,269.27,400.21ZM93.93,377.75a.74.74,0,0,1-.41-.12l-1.26-.82a.75.75,0,0,1,.82-1.25l1.25.81a.75.75,0,0,1-.41,1.38Zm230-5.14a.75.75,0,0,1-.44-1.36l1.22-.87a.75.75,0,1,1,.88,1.22l-1.23.88A.75.75,0,0,1,323.88,372.61ZM48.05,337.28a.75.75,0,0,1-.58-.27l-.14-.16-1-1.16a.75.75,0,0,1,1.16-1l1,1.15.14.17a.75.75,0,0,1-.57,1.23ZM368,330.19a.75.75,0,0,1-.59-1.21l.9-1.18a.75.75,0,1,1,1.2.91l-.91,1.19A.75.75,0,0,1,368,330.19ZM16,284.92a.75.75,0,0,1-.69-.46l-.58-1.39a.75.75,0,1,1,1.39-.57l.58,1.38a.75.75,0,0,1-.4,1A.74.74,0,0,1,16,284.92Zm381.63-8.25a.75.75,0,0,1-.7-1l.51-1.4a.75.75,0,1,1,1.41.51l-.52,1.41A.75.75,0,0,1,397.59,276.67Zm-396.7-51a.75.75,0,0,1-.75-.68q-.07-.75-.14-1.5a.75.75,0,0,1,1.49-.14q.07.74.14,1.49a.75.75,0,0,1-.67.82Zm409.19-8.84h0a.75.75,0,0,1-.71-.79q0-.75.08-1.49a.76.76,0,0,1,.79-.71.75.75,0,0,1,.71.79q0,.75-.08,1.5A.75.75,0,0,1,410.08,216.78ZM4,164.51H3.8a.75.75,0,0,1-.59-.88l.3-1.47a.75.75,0,1,1,1.47.31q-.15.73-.3,1.46A.75.75,0,0,1,4,164.51Zm400.48-8.66a.75.75,0,0,1-.73-.57l-.36-1.45a.75.75,0,0,1,1.45-.37l.37,1.46a.75.75,0,0,1-.55.91ZM24.83,107a.75.75,0,0,1-.66-1.11l.72-1.31a.75.75,0,1,1,1.31.73l-.72,1.3A.75.75,0,0,1,24.83,107ZM381,99.32a.75.75,0,0,1-.64-.36l-.78-1.28a.75.75,0,1,1,1.28-.78l.78,1.29a.75.75,0,0,1-.64,1.14ZM61.79,58.26A.75.75,0,0,1,61.27,57l1.08-1a.75.75,0,1,1,1,1.08l-1.07,1A.75.75,0,0,1,61.79,58.26ZM342,52.18a.75.75,0,0,1-.5-.19l-1.11-1a.75.75,0,0,1,1-1.12l1.12,1a.75.75,0,0,1-.5,1.31ZM111.44,22.51a.75.75,0,0,1-.34-1.42l1.34-.68a.75.75,0,1,1,.68,1.34l-1.33.68A.74.74,0,0,1,111.44,22.51Zm179.44-3.88a.75.75,0,0,1-.31-.07l-1.36-.62a.75.75,0,0,1,.62-1.37l1.37.62a.75.75,0,0,1-.31,1.43ZM169.44,3a.75.75,0,0,1-.13-1.49l1.48-.25A.75.75,0,0,1,171,2.75L169.57,3Zm62.66-1.32H232l-1.48-.19A.75.75,0,1,1,230.7,0l1.49.19a.75.75,0,0,1-.1,1.49Z"/><path class="cls-1" d="M205.15,243.52a39.2,39.2,0,0,1-38.75-33.84.75.75,0,1,1,1.49-.2A37.61,37.61,0,0,0,224,236.94a.75.75,0,0,1,.75,1.3A39.08,39.08,0,0,1,205.15,243.52Zm23.43-8a.75.75,0,0,1-.46-1.34,37.61,37.61,0,0,0-4.21-62.37.75.75,0,1,1,.75-1.3A39.11,39.11,0,0,1,229,235.38.75.75,0,0,1,228.57,235.54ZM166.8,205.33a.75.75,0,0,1-.75-.75v-.15a39.12,39.12,0,0,1,54-36.16.75.75,0,1,1-.57,1.39,37.62,37.62,0,0,0-51.95,34.77v.16A.75.75,0,0,1,166.8,205.33Z"/><path class="cls-1" d="M205.15,233.53A29.13,29.13,0,0,1,176.27,208a.75.75,0,0,1,1.49-.18,27.6,27.6,0,0,0,55-3.44.78.78,0,0,1,.75-.78.73.73,0,0,1,.75.72v.06A29.14,29.14,0,0,1,205.15,233.53Zm-28.35-28.24a.75.75,0,0,1-.75-.75v-.11a29.11,29.11,0,0,1,58-3.57.75.75,0,1,1-1.49.18,27.6,27.6,0,0,0-55,3.38v.12A.75.75,0,0,1,176.79,205.29Z"/><path class="cls-1" d="M205.15,222.87a18.43,18.43,0,0,1-18.32-16.3.75.75,0,1,1,1.49-.17,17,17,0,1,0-.11-2,.78.78,0,0,1-.75.79.72.72,0,0,1-.75-.71v-.07a18.44,18.44,0,1,1,18.44,18.44Z"/><path class="cls-1" d="M205.15,212.09a7.67,7.67,0,1,1,7.67-7.67A7.67,7.67,0,0,1,205.15,212.09Zm0-13.83a6.17,6.17,0,1,0,6.17,6.17A6.17,6.17,0,0,0,205.15,198.26Z"/></g></g></svg>