<svg xmlns="http://www.w3.org/2000/svg" viewBox="0 0 202.07 205.01"><defs><style>.cls-1{fill:#fff;}</style></defs><title>Asset 16</title><g id="Layer_2" data-name="Layer 2"><g id="svg_art" data-name="svg art"><rect class="cls-1" x="100.53" y="42.87" width="1" height="119.27"/><rect class="cls-1" x="100.53" y="42.87" width="1" height="119.27" transform="translate(-8.55 9.2) rotate(-5)"/><rect class="cls-1" x="100.53" y="42.87" width="1" height="119.27" transform="translate(-16.26 19.1) rotate(-10)"/><rect class="cls-1" x="100.53" y="42.87" width="1" height="119.27" transform="translate(-23.09 29.64) rotate(-15)"/><rect class="cls-1" x="100.53" y="42.87" width="1" height="119.27" transform="translate(-28.97 40.74) rotate(-20)"/><rect class="cls-1" x="100.53" y="42.87" width="1" height="119.27" transform="translate(-33.85 52.3) rotate(-25)"/><rect class="cls-1" x="100.53" y="42.87" width="1" height="119.27" transform="translate(-37.72 64.25) rotate(-30)"/><rect class="cls-1" x="100.53" y="42.87" width="1" height="119.27" transform="translate(-40.52 76.49) rotate(-35)"/><rect class="cls-1" x="100.53" y="42.87" width="1" height="119.27" transform="matrix(0.77, -0.64, 0.64, 0.77, -42.25, 88.93)"/><rect class="cls-1" x="100.53" y="42.87" width="1" height="119.27" transform="translate(-42.89 101.47) rotate(-45)"/><rect class="cls-1" x="100.53" y="42.87" width="1" height="119.27" transform="translate(-42.43 114.01) rotate(-50)"/><rect class="cls-1" x="100.53" y="42.87" width="1" height="119.27" transform="translate(-40.88 126.47) rotate(-55)"/><rect class="cls-1" x="100.53" y="42.87" width="1" height="119.27" transform="translate(-38.25 138.75) rotate(-60)"/><rect class="cls-1" x="100.53" y="42.87" width="1" height="119.27" transform="translate(-34.57 150.75) rotate(-65)"/><rect class="cls-1" x="100.53" y="42.87" width="1" height="119.27" transform="translate(-29.84 162.39) rotate(-70)"/><rect class="cls-1" x="100.53" y="42.87" width="1" height="119.27" transform="translate(-24.13 173.57) rotate(-75)"/><rect class="cls-1" x="100.53" y="42.87" width="1" height="119.27" transform="translate(-17.46 184.2) rotate(-80)"/><rect class="cls-1" x="100.53" y="42.87" width="1" height="119.27" transform="translate(-9.89 194.22) rotate(-85)"/><rect class="cls-1" x="41.4" y="102" width="119.27" height="1"/><rect class="cls-1" x="41.4" y="102.01" width="119.27" height="1" transform="translate(-8.53 9.17) rotate(-4.99)"/><rect class="cls-1" x="41.4" y="102.01" width="119.27" height="1" transform="translate(-16.29 19.13) rotate(-10.01)"/><rect class="cls-1" x="41.4" y="102.01" width="119.27" height="1" transform="translate(-23.09 29.64) rotate(-15)"/><rect class="cls-1" x="41.4" y="102.01" width="119.27" height="1" transform="translate(-28.96 40.72) rotate(-19.99)"/><rect class="cls-1" x="41.4" y="102" width="119.27" height="1" transform="translate(-33.87 52.33) rotate(-25.01)"/><rect class="cls-1" x="41.4" y="102.01" width="119.27" height="1" transform="translate(-37.71 64.24) rotate(-29.99)"/><rect class="cls-1" x="41.4" y="102" width="119.27" height="1" transform="translate(-40.51 76.44) rotate(-34.98)"/><rect class="cls-1" x="41.4" y="102.01" width="119.27" height="1" transform="translate(-42.25 88.94) rotate(-40.01)"/><rect class="cls-1" x="41.4" y="102.01" width="119.27" height="1" transform="translate(-42.89 101.47) rotate(-45)"/><rect class="cls-1" x="41.4" y="102.01" width="119.27" height="1" transform="translate(-42.43 114) rotate(-49.99)"/><rect class="cls-1" x="41.4" y="102" width="119.27" height="1" transform="translate(-40.87 126.53) rotate(-55.02)"/><rect class="cls-1" x="41.4" y="102" width="119.27" height="1" transform="translate(-38.25 138.76) rotate(-60.01)"/><rect class="cls-1" x="41.4" y="102.01" width="119.27" height="1" transform="translate(-34.58 150.72) rotate(-64.99)"/><rect class="cls-1" x="41.4" y="102.01" width="119.27" height="1" transform="translate(-29.84 162.4) rotate(-70.01)"/><rect class="cls-1" x="41.4" y="102" width="119.27" height="1" transform="translate(-24.13 173.57) rotate(-75)"/><rect class="cls-1" x="41.4" y="102.01" width="119.27" height="1" transform="translate(-17.48 184.17) rotate(-79.99)"/><rect class="cls-1" x="41.4" y="102" width="119.27" height="1" transform="translate(-9.86 194.25) rotate(-85.01)"/><rect class="cls-1" x="100.53" y="16.17" width="1" height="172.67"/><rect class="cls-1" x="100.53" y="16.17" width="1" height="172.67" transform="translate(-16.26 19.1) rotate(-10)"/><rect class="cls-1" x="100.53" y="16.17" width="1" height="172.67" transform="translate(-28.97 40.74) rotate(-20)"/><rect class="cls-1" x="100.53" y="16.17" width="1" height="172.67" transform="translate(-37.72 64.25) rotate(-30)"/><rect class="cls-1" x="100.53" y="16.17" width="1" height="172.67" transform="translate(-42.25 88.93) rotate(-40)"/><rect class="cls-1" x="100.53" y="16.17" width="1" height="172.67" transform="translate(-42.43 114.01) rotate(-50)"/><rect class="cls-1" x="100.53" y="16.17" width="1" height="172.67" transform="translate(-38.25 138.75) rotate(-60)"/><rect class="cls-1" x="100.53" y="16.17" width="1" height="172.67" transform="translate(-29.84 162.39) rotate(-70)"/><rect class="cls-1" x="100.53" y="16.17" width="1" height="172.67" transform="translate(-17.46 184.2) rotate(-80)"/><rect class="cls-1" x="14.7" y="102" width="172.67" height="1"/><rect class="cls-1" x="14.7" y="102.01" width="172.67" height="1" transform="translate(-16.29 19.13) rotate(-10.01)"/><rect class="cls-1" x="14.7" y="102.01" width="172.67" height="1" transform="translate(-28.96 40.72) rotate(-19.99)"/><rect class="cls-1" x="14.7" y="102.01" width="172.67" height="1" transform="translate(-37.71 64.24) rotate(-29.99)"/><rect class="cls-1" x="14.7" y="102.01" width="172.67" height="1" transform="translate(-42.25 88.94) rotate(-40.01)"/><rect class="cls-1" x="14.7" y="102.01" width="172.67" height="1" transform="translate(-42.43 114) rotate(-49.99)"/><rect class="cls-1" x="14.7" y="102.01" width="172.67" height="1" transform="translate(-38.25 138.76) rotate(-60.01)"/><rect class="cls-1" x="14.7" y="102.01" width="172.67" height="1" transform="translate(-29.84 162.4) rotate(-70.01)"/><rect class="cls-1" x="14.7" y="102.01" width="172.67" height="1" transform="translate(-17.48 184.17) rotate(-79.99)"/><rect class="cls-1" x="100.53" width="1" height="205.01"/><rect class="cls-1" x="100.53" width="1" height="205.01" transform="translate(-28.97 40.74) rotate(-20)"/><rect class="cls-1" x="100.53" width="1" height="205.01" transform="translate(-42.25 88.93) rotate(-40)"/><rect class="cls-1" x="100.53" width="1" height="205.01" transform="translate(-38.25 138.75) rotate(-60)"/><rect class="cls-1" x="100.53" width="1" height="205.01" transform="translate(-17.46 184.2) rotate(-80)"/><rect class="cls-1" x="-1.47" y="102.01" width="205.01" height="1" transform="translate(-16.29 19.13) rotate(-10.01)"/><rect class="cls-1" x="-1.47" y="102.01" width="205.01" height="1" transform="translate(-37.71 64.24) rotate(-29.99)"/><rect class="cls-1" x="-1.47" y="102.01" width="205.01" height="1" transform="translate(-42.43 114) rotate(-49.99)"/><rect class="cls-1" x="-1.47" y="102.01" width="205.01" height="1" transform="translate(-29.84 162.4) rotate(-70.01)"/></g></g></svg>