<svg xmlns="http://www.w3.org/2000/svg" viewBox="0 0 24.81 24.83"><defs><style>.cls-1{fill:#fff;}</style></defs><title>Asset 5</title><g id="Layer_2" data-name="Layer 2"><g id="svg_art" data-name="svg art"><circle class="cls-1" cx="12.43" cy="12.41" r="5.71"/><path class="cls-1" d="M12.43,22.18a9.76,9.76,0,1,1,9.76-9.76A9.78,9.78,0,0,1,12.43,22.18Zm0-18.53a8.76,8.76,0,1,0,8.76,8.76A8.77,8.77,0,0,0,12.43,3.65Z"/><path class="cls-1" d="M11.94,24.83a.51.51,0,0,1-.48-.52h0a.49.49,0,0,1,.52-.48h0a.5.5,0,0,1,.49.52h0a.52.52,0,0,1-.51.48h0Zm1.54-.53a.5.5,0,0,1,.43-.56h0a.5.5,0,0,1,.56.43h0a.5.5,0,0,1-.43.56H14A.5.5,0,0,1,13.48,24.3Zm-3.63.27a.51.51,0,0,1-.39-.6h0a.49.49,0,0,1,.59-.38h0a.5.5,0,0,1,.39.59h0a.5.5,0,0,1-.49.4h-.1ZM15.47,24a.5.5,0,0,1,.33-.62h0a.51.51,0,0,1,.63.33h0a.5.5,0,0,1-.33.62h0a.4.4,0,0,1-.15,0h0A.51.51,0,0,1,15.47,24ZM7.83,24a.5.5,0,0,1-.28-.65h0A.5.5,0,0,1,8.2,23h0a.5.5,0,0,1,.28.65h0A.51.51,0,0,1,8,24H8A.57.57,0,0,1,7.83,24Zm9.55-.69a.49.49,0,0,1,.22-.67h0a.49.49,0,0,1,.67.22h0a.5.5,0,0,1-.22.67h0a.47.47,0,0,1-.23.06h0A.49.49,0,0,1,17.38,23.27ZM6,23H6a.49.49,0,0,1-.17-.68h0a.5.5,0,0,1,.69-.17h0a.5.5,0,0,1,.16.69h0a.5.5,0,0,1-.42.24h0A.5.5,0,0,1,6,23Zm13.19-.73a.5.5,0,0,1,.1-.7h0a.5.5,0,0,1,.7.1h0a.5.5,0,0,1-.1.7h0a.49.49,0,0,1-.3.1h0A.51.51,0,0,1,19.14,22.28ZM4.25,21.77h0a.51.51,0,0,1,0-.71h0a.5.5,0,0,1,.71,0h0a.5.5,0,0,1,0,.71H5a.48.48,0,0,1-.37.17h0A.5.5,0,0,1,4.25,21.77ZM20.71,21a.5.5,0,0,1,0-.71h0a.51.51,0,0,1,.71,0h0a.5.5,0,0,1,0,.71h0a.49.49,0,0,1-.36.15h0A.49.49,0,0,1,20.71,21ZM2.79,20.25a.49.49,0,0,1,.07-.7h0a.49.49,0,0,1,.7.07h0a.49.49,0,0,1-.07.7h0a.46.46,0,0,1-.31.11h0A.5.5,0,0,1,2.79,20.25ZM22,19.48a.49.49,0,0,1-.13-.69h0a.5.5,0,0,1,.69-.14h0a.5.5,0,0,1,.13.7h0a.49.49,0,0,1-.41.22h0A.47.47,0,0,1,22,19.48Zm-20.44-1h0a.5.5,0,0,1,.19-.68h0a.5.5,0,0,1,.68.19h0a.49.49,0,0,1-.19.68h0a.55.55,0,0,1-.24.07H2A.51.51,0,0,1,1.6,18.51Zm21.5-.75a.51.51,0,0,1-.25-.67h0a.5.5,0,0,1,.66-.25h0a.51.51,0,0,1,.25.67h0a.52.52,0,0,1-.46.29h0A.45.45,0,0,1,23.1,17.76ZM.73,16.6A.49.49,0,0,1,1,16H1a.5.5,0,0,1,.64.3h0a.51.51,0,0,1-.3.64h0l-.17,0h0A.5.5,0,0,1,.73,16.6Zm23.12-.72a.5.5,0,0,1-.36-.61h0a.5.5,0,0,1,.61-.36h0a.5.5,0,0,1,.36.61h0a.5.5,0,0,1-.49.37h-.12ZM.19,14.56A.5.5,0,0,1,.6,14h0a.49.49,0,0,1,.57.41h0a.5.5,0,0,1-.4.58H.68A.5.5,0,0,1,.19,14.56Zm24.08-.66a.5.5,0,0,1-.46-.54h0a.5.5,0,0,1,.54-.46h0a.5.5,0,0,1,.46.54h0a.52.52,0,0,1-.5.46h0ZM0,12.46v0H0v0H0a.51.51,0,0,1,.5-.5h0a.5.5,0,0,1,.5.5H1v0H1v0H1a.49.49,0,0,1-.5.5h0A.51.51,0,0,1,0,12.46Zm23.8-1a.5.5,0,0,1,.46-.54h0a.5.5,0,0,1,.54.45h0a.5.5,0,0,1-.45.55h0A.52.52,0,0,1,23.8,11.42ZM.59,10.89a.5.5,0,0,1-.41-.57h0a.49.49,0,0,1,.58-.41h0a.5.5,0,0,1,.41.57h0a.51.51,0,0,1-.5.42H.59ZM23.47,9.51h0a.5.5,0,0,1,.35-.61h0a.5.5,0,0,1,.61.36h0a.5.5,0,0,1-.35.61h0l-.13,0h0A.51.51,0,0,1,23.47,9.51ZM1,8.91a.49.49,0,0,1-.3-.63h0A.51.51,0,0,1,1.35,8h0a.5.5,0,0,1,.3.64h0a.5.5,0,0,1-.47.33h0ZM22.83,7.69A.49.49,0,0,1,23.08,7h0a.49.49,0,0,1,.66.25h0a.51.51,0,0,1-.25.66h0a.52.52,0,0,1-.21,0h0A.49.49,0,0,1,22.83,7.69ZM1.77,7a.5.5,0,0,1-.19-.68h0a.51.51,0,0,1,.68-.2h0a.51.51,0,0,1,.19.69h0A.5.5,0,0,1,2,7.1H2A.53.53,0,0,1,1.77,7ZM21.88,6A.49.49,0,0,1,22,5.31h0a.5.5,0,0,1,.7.13h0a.5.5,0,0,1-.14.69h0a.47.47,0,0,1-.28.09h0A.5.5,0,0,1,21.88,6Zm-19-.68a.51.51,0,0,1-.07-.71h0a.49.49,0,0,1,.7-.07h0a.49.49,0,0,1,.07.7h0a.49.49,0,0,1-.38.19h0A.52.52,0,0,1,2.83,5.32ZM20.66,4.5a.5.5,0,0,1,0-.71h0a.51.51,0,0,1,.71,0h0a.5.5,0,0,1,0,.7h0a.54.54,0,0,1-.35.14h0A.51.51,0,0,1,20.66,4.5ZM4.17,3.8a.51.51,0,0,1,0-.71h0a.5.5,0,0,1,.71,0h0a.5.5,0,0,1,0,.7h0A.5.5,0,0,1,4.54,4h0A.51.51,0,0,1,4.17,3.8Zm15-.58a.5.5,0,0,1-.1-.7h0a.5.5,0,0,1,.7-.1h0a.49.49,0,0,1,.1.69h0a.48.48,0,0,1-.4.21h0A.49.49,0,0,1,19.2,3.22ZM5.74,2.53a.5.5,0,0,1,.17-.69h0A.49.49,0,0,1,6.59,2h0a.49.49,0,0,1-.16.69h0a.48.48,0,0,1-.26.07h0A.51.51,0,0,1,5.74,2.53ZM17.55,2.2a.5.5,0,0,1-.22-.67h0A.51.51,0,0,1,18,1.31h0a.5.5,0,0,1,.23.67h0a.5.5,0,0,1-.45.28h0A.49.49,0,0,1,17.55,2.2Zm-10-.66A.49.49,0,0,1,7.78.89h0a.5.5,0,0,1,.65.27h0a.51.51,0,0,1-.27.66h0a.63.63,0,0,1-.19,0H8A.49.49,0,0,1,7.51,1.54Zm8.25-.06a.5.5,0,0,1-.34-.62h0a.51.51,0,0,1,.63-.33h0a.5.5,0,0,1,.33.62h0a.49.49,0,0,1-.48.36h0A.32.32,0,0,1,15.76,1.48ZM9.41.86A.5.5,0,0,1,9.8.27h0a.49.49,0,0,1,.59.38h0a.5.5,0,0,1-.38.6H9.9A.5.5,0,0,1,9.41.86Zm4.45.22a.5.5,0,0,1-.43-.56h0A.49.49,0,0,1,14,.09h0a.49.49,0,0,1,.43.56h0a.49.49,0,0,1-.49.43h-.07ZM11.41.52A.51.51,0,0,1,11.89,0h0a.51.51,0,0,1,.52.48h0a.5.5,0,0,1-.48.52h0A.5.5,0,0,1,11.41.52Z"/></g></g></svg>