<svg xmlns="http://www.w3.org/2000/svg" viewBox="0 0 629.9 630.56"><defs><style>.cls-1{fill:none;}.cls-2{fill:#fff;}</style></defs><title>Asset 7</title><g id="Layer_2" data-name="Layer 2"><g id="svg_art" data-name="svg art"><polygon class="cls-1" points="307.31 328.31 305.88 330.57 308.47 331.4 309.51 326.42 307.31 328.31"/><polygon class="cls-1" points="330.12 338.32 330.38 338.4 330.08 337.02 330.12 338.32"/><polygon class="cls-1" points="325.65 316.32 320.53 316.93 310.75 325.34 309.43 331.71 329.11 338 328.9 331.52 325.65 316.32"/><polygon class="cls-1" points="329.9 331.4 331.47 338.76 400.23 360.74 329.41 316.31 329.9 331.4"/><polygon class="cls-1" points="404.06 361.96 418.45 366.56 525.8 330.24 331.07 315.68 330.4 315.75 404.06 361.96"/><polygon class="cls-1" points="328.4 315.99 326.64 316.2 328.72 325.91 328.4 315.99"/><polygon class="cls-1" points="325.44 315.34 325.42 315.25 322.71 315.05 321.89 315.76 325.44 315.34"/><polygon class="cls-1" points="313.35 307.99 305.69 312.77 312.25 313.27 313.35 307.99"/><polygon class="cls-1" points="311.09 323.74 318.75 317.14 314.02 317.7 311.52 321.65 311.09 323.74"/><polygon class="cls-1" points="309.84 324.81 310 324.06 309.14 325.41 309.84 324.81"/><polygon class="cls-1" points="302.93 330.68 302.7 330.96 303 330.7 302.93 330.68"/><polygon class="cls-1" points="306.54 327.65 309.66 322.73 303.63 329.86 303.89 329.94 306.54 327.65"/><polygon class="cls-1" points="304.12 331.06 299.88 334.7 300.81 336.7 304.34 331.13 304.12 331.06"/><polygon class="cls-1" points="305.32 331.44 301.31 337.78 303.83 343.24 305.76 344.37 308.26 332.38 305.32 331.44"/><polygon class="cls-1" points="322.63 302.24 322.63 302.2 315.69 306.53 318.72 308.42 322.63 302.24"/><polygon class="cls-1" points="299.47 340.68 302.32 342.35 300.67 338.79 299.47 340.68"/><polygon class="cls-1" points="309.22 332.69 306.67 344.91 329.77 358.47 329.14 339.06 309.22 332.69"/><polygon class="cls-1" points="331.71 339.88 336.55 362.45 370.94 382.64 412.65 368.53 403.64 362.88 331.71 339.88"/><polygon class="cls-1" points="413.87 368.12 416.86 367.1 407.47 364.1 413.87 368.12"/><polygon class="cls-1" points="330.15 339.38 330.79 359.06 335.38 361.76 330.62 339.53 330.15 339.38"/><polygon class="cls-1" points="299.1 335.38 298.6 335.81 296.14 338.72 298.61 340.17 300.17 337.71 299.1 335.38"/><polygon class="cls-1" points="312.05 314.25 304.26 313.67 295.98 318.84 311.47 317 312.05 314.25"/><polygon class="cls-1" points="312.26 318.1 312.44 317.89 312.31 317.91 312.26 318.1"/><polygon class="cls-1" points="313.39 316.77 313.57 316.56 314.89 314.47 313.05 314.33 312.52 316.87 313.39 316.77"/><polygon class="cls-1" points="299.3 333.43 301.9 330.35 297.17 328.84 299.3 333.43"/><polygon class="cls-1" points="320.11 315.97 321.3 314.94 316.54 314.59 314.84 316.6 320.11 315.97"/><polygon class="cls-1" points="298.58 334.27 295.88 328.43 285.79 325.2 279.65 329.04 294.68 337.86 297.89 335.1 298.58 334.27"/><polygon class="cls-1" points="292.46 321.03 286.9 324.51 295.31 327.19 292.46 321.03"/><polygon class="cls-1" points="302.6 329.52 310.91 319.7 311.26 318.03 293.99 320.08 293.32 320.5 296.6 327.61 302.6 329.52"/><polygon class="cls-1" points="315.5 313.51 318.18 309.27 314.75 307.12 314.52 307.26 313.26 313.34 315.5 313.51"/><polygon class="cls-1" points="324.06 304.14 327.88 299.63 327.86 298.93 324.64 300.94 323.7 302.43 324.06 304.14"/><polygon class="cls-1" points="253.25 422.46 252.65 414.62 246.16 424.87 253.25 422.46"/><polygon class="cls-1" points="351.39 448.5 332.33 407.27 332.76 420.56 351.39 448.5"/><polygon class="cls-1" points="331.71 418.99 331.25 404.94 328.13 398.18 319.72 401.03 331.71 418.99"/><polygon class="cls-1" points="289.14 356.99 253.54 413.21 254.23 422.13 292.23 409.27 299.8 372.96 289.14 356.99"/><polygon class="cls-1" points="300.09 371.59 304.98 348.12 303.05 343.94 298.94 341.52 289.73 356.06 300.09 371.59"/><polygon class="cls-1" points="293.33 408.9 318.17 400.5 300.58 374.13 293.33 408.9"/><polygon class="cls-1" points="319.15 400.17 327.71 397.27 305.69 349.64 300.87 372.76 319.15 400.17"/><polygon class="cls-1" points="341.95 392.45 335.66 363.09 330.82 360.25 331.96 395.83 341.95 392.45"/><polygon class="cls-1" points="247.07 329.36 256.88 324.49 246.78 325.69 247.07 329.36"/><polygon class="cls-1" points="369.69 383.07 336.83 363.77 342.9 392.13 369.69 383.07"/><polygon class="cls-1" points="329.08 397.86 331.17 402.38 331.01 397.21 329.08 397.86"/><polygon class="cls-1" points="214.13 435.7 244.65 425.37 252.52 412.95 250.91 392.2 214.13 435.7"/><polygon class="cls-1" points="328.66 396.95 330.97 396.16 329.8 359.65 306.46 345.94 306.03 348 328.66 396.95"/><polygon class="cls-1" points="332.25 404.71 354.98 453.87 355.15 454.14 342.16 393.44 332 396.87 332.25 404.71"/><polygon class="cls-1" points="291.99 410.41 254.31 423.16 263.77 545.73 291.99 410.41"/><polygon class="cls-1" points="324.72 312 323.51 306.34 320.7 309.67 324.59 312.11 324.72 312"/><polygon class="cls-1" points="320.05 310.44 317.34 313.65 322.37 314.02 323.8 312.79 320.05 310.44"/><polygon class="cls-1" points="324.69 313.35 323.78 314.13 325.2 314.23 325.06 313.58 324.69 313.35"/><polygon class="cls-1" points="319.03 309.8 318.28 310.98 319.19 309.9 319.03 309.8"/><polygon class="cls-1" points="251.83 391.11 253.41 411.54 288.54 356.08 285.42 351.4 251.83 391.11"/><polygon class="cls-1" points="325.95 312.96 328.36 314.47 328.22 310.31 325.82 312.37 325.95 312.96"/><polygon class="cls-1" points="323.25 305.11 322.93 303.64 319.56 308.95 319.85 309.13 323.25 305.11"/><polygon class="cls-1" points="325.59 311.26 328.18 309.02 327.93 301.12 324.33 305.38 325.59 311.26"/><polygon class="cls-1" points="329.15 298.13 328.84 298.32 328.84 298.49 329.15 298.13"/><polygon class="cls-1" points="162.11 453.3 212.3 436.32 250.81 390.78 249.81 377.81 162.11 453.3"/><polygon class="cls-1" points="273.19 333.07 248.54 348.46 250.65 375.77 283.06 347.87 273.19 333.07"/><polygon class="cls-1" points="289.12 355.15 298.07 341.02 295.48 339.5 286.09 350.6 289.12 355.15"/><polygon class="cls-1" points="250.75 377 251.72 389.69 284.84 350.53 283.62 348.7 250.75 377"/><polygon class="cls-1" points="283.82 347.21 293.88 338.55 278.69 329.63 274.04 332.54 283.82 347.21"/><polygon class="cls-1" points="329.15 308.19 371.7 271.56 331.93 296.39 328.89 299.98 329.15 308.19"/><polygon class="cls-1" points="285.51 349.74 293.79 339.95 284.38 348.05 285.51 349.74"/><polygon class="cls-1" points="305.55 345.41 304.56 344.83 305.33 346.47 305.55 345.41"/><polygon class="cls-1" points="319.56 283.11 321.56 292.45 327.55 289.48 326.31 250.74 319.56 283.11"/><polygon class="cls-1" points="292.73 319.23 293.65 319.12 302.57 313.54 289.66 312.58 292.73 319.23"/><polygon class="cls-1" points="382.27 263.78 384.56 262.35 383.07 263.09 382.27 263.78"/><polygon class="cls-1" points="317.16 294.63 320.63 292.91 319.06 285.53 317.16 294.63"/><polygon class="cls-1" points="325.87 298.99 327.82 297.78 327.76 296.01 325.87 298.99"/><polygon class="cls-1" points="343.52 282.69 334.04 293.89 376.69 267.26 379.46 264.88 343.52 282.69"/><polygon class="cls-1" points="332.86 287.97 328.71 294.51 328.8 297.17 331.26 295.63 341.26 283.8 332.86 287.97"/><polygon class="cls-1" points="237.37 308.67 244.65 311 244.54 309.58 243.8 309.15 237.37 308.67"/><polygon class="cls-1" points="237.2 201.48 241.72 260.12 273.53 280.07 237.2 201.48"/><polygon class="cls-1" points="268.64 318.67 282.07 312.01 259.2 310.3 263.74 317.1 268.64 318.67"/><polygon class="cls-1" points="242.68 285.53 240.76 260.7 215.57 244.9 242.68 285.53"/><polygon class="cls-1" points="257.94 310.21 246.06 309.32 254.03 314 262.21 316.61 257.94 310.21"/><polygon class="cls-1" points="275.85 282.71 288.03 309.06 304.69 300.81 275.85 282.71"/><polygon class="cls-1" points="245.44 308.27 257.23 309.15 243.97 289.27 245.44 308.27"/><polygon class="cls-1" points="316.9 295.87 314.81 305.9 322.4 301.16 320.85 293.92 316.9 295.87"/><polygon class="cls-1" points="315.76 296.44 306.74 300.91 313.89 305.4 315.76 296.44"/><polygon class="cls-1" points="265.74 320.1 267.35 319.31 264.63 318.43 265.74 320.1"/><polygon class="cls-1" points="305.69 301.43 288.45 309.97 289.18 311.54 304 312.65 313.63 306.63 313.68 306.44 305.69 301.43"/><polygon class="cls-1" points="268.72 319.74 266.3 320.94 266.59 321.37 267.95 322.17 274.05 321.44 268.72 319.74"/><polygon class="cls-1" points="269.38 323.01 278.67 328.46 284.54 324.8 276.34 322.18 269.38 323.01"/><polygon class="cls-1" points="327.59 290.58 321.77 293.46 323.3 300.6 323.92 300.21 327.71 294.23 327.59 290.58"/><polygon class="cls-1" points="331.13 288.82 328.57 290.09 328.66 292.73 331.13 288.82"/><polygon class="cls-1" points="285.79 311.29 288.04 311.45 287.55 310.41 285.79 311.29"/><polygon class="cls-1" points="285.65 324.11 291.65 320.36 278.74 321.89 285.65 324.11"/><polygon class="cls-1" points="257.95 316.3 264.61 320.21 263.1 317.94 257.95 316.3"/><polygon class="cls-1" points="259.85 324.14 247.15 330.43 248.46 347.33 272.63 332.24 266.69 323.33 259.85 324.14"/><polygon class="cls-1" points="245.59 310.2 245.68 311.32 249.69 312.61 245.59 310.2"/><polygon class="cls-1" points="273.48 331.71 277.72 329.06 267.86 323.27 273.48 331.71"/><polygon class="cls-1" points="265.88 322.11 264.99 321.59 262.52 322.81 266.07 322.39 265.88 322.11"/><polygon class="cls-1" points="245.76 312.4 246.71 324.69 259.56 323.17 263.96 320.99 253.62 314.91 245.76 312.4"/><polygon class="cls-1" points="276.44 321.16 291.69 319.35 288.52 312.49 284.03 312.16 270.01 319.11 276.44 321.16"/><polygon class="cls-1" points="274.3 281.74 241.82 261.36 243.81 287.23 258.5 309.25 283.83 311.14 287.13 309.5 274.3 281.74"/><path class="cls-2" d="M51.78,141l-.55.84L213.51,243.6l-1.35-2Z"/><polygon class="cls-2" points="304.69 300.81 305.74 300.28 275.08 281.05 275.85 282.71 304.69 300.81"/><polygon class="cls-2" points="240.76 260.7 240.67 259.46 214.22 242.87 215.57 244.9 240.76 260.7"/><polygon class="cls-2" points="319.85 309.13 319.56 308.95 319.03 309.8 319.19 309.9 319.85 309.13"/><path class="cls-2" d="M586.06,477.32l.51-.86L415,368.8l-1.22.41Z"/><polygon class="cls-2" points="325.06 313.58 324.96 313.11 324.69 313.35 325.06 313.58"/><polygon class="cls-2" points="326.24 314.31 328.36 314.47 328.36 314.47 325.95 312.96 326.24 314.31"/><polygon class="cls-2" points="324.59 312.11 320.7 309.67 320.05 310.44 323.8 312.79 324.59 312.11"/><polygon class="cls-2" points="313.89 305.4 306.74 300.91 305.69 301.43 313.68 306.44 313.89 305.4"/><polygon class="cls-2" points="273.53 280.07 241.72 260.12 241.82 261.36 274.3 281.74 273.53 280.07"/><polygon class="cls-2" points="318.72 308.42 315.69 306.53 314.75 307.12 318.18 309.27 318.72 308.42"/><polygon class="cls-2" points="329.4 315.88 329.41 316.31 400.23 360.74 404.06 361.96 330.4 315.75 329.4 315.88"/><polygon class="cls-2" points="403.64 362.88 412.65 368.53 413.87 368.12 407.47 364.1 403.64 362.88"/><polygon class="cls-2" points="249.81 377.81 249.71 376.57 159.59 454.16 162.11 453.3 249.81 377.81"/><path class="cls-2" d="M557.09,113.28l-.65-.76L382.52,262.24l3.61-1.79Z"/><polygon class="cls-2" points="329.15 308.19 329.19 309.47 377.28 268.07 371.7 271.56 329.15 308.19"/><path class="cls-2" d="M77.92,524.46l.66.75L160.09,455l-2.53.85Z"/><polygon class="cls-2" points="294.68 337.86 295.26 338.21 297.89 335.1 294.68 337.86"/><polygon class="cls-2" points="303 330.7 302.7 330.96 299.76 334.43 299.88 334.7 304.12 331.06 303 330.7"/><polygon class="cls-2" points="284.38 348.05 293.79 339.95 294.61 338.98 293.88 338.55 283.82 347.21 284.38 348.05"/><polygon class="cls-2" points="321.89 315.76 322.71 315.05 321.3 314.94 320.11 315.97 321.89 315.76"/><polygon class="cls-2" points="307.31 328.31 309.51 326.42 309.84 324.81 309.14 325.41 307.31 328.31"/><polygon class="cls-2" points="325.82 312.37 328.22 310.31 328.18 309.02 325.59 311.26 325.82 312.37"/><polygon class="cls-2" points="304.89 330.26 306.54 327.65 303.89 329.94 304.89 330.26"/><polygon class="cls-2" points="283.06 347.87 250.65 375.77 250.75 377 283.62 348.7 283.06 347.87"/><polygon class="cls-2" points="379.46 264.88 376.69 267.26 382.27 263.78 383.07 263.09 379.46 264.88"/><polygon class="cls-2" points="310.75 325.34 320.53 316.93 318.75 317.14 311.09 323.74 310.75 325.34"/><polygon class="cls-2" points="299.1 335.38 299.05 335.28 298.6 335.81 299.1 335.38"/><polygon class="cls-2" points="324.96 313.11 324.72 312 324.59 312.11 323.8 312.79 322.37 314.02 323.78 314.13 324.69 313.35 324.96 313.11"/><polygon class="cls-2" points="300.87 372.76 305.69 349.64 304.98 348.12 300.09 371.59 300.87 372.76"/><polygon class="cls-2" points="311.26 318.03 310.91 319.7 312.26 318.1 312.31 317.91 311.26 318.03"/><polygon class="cls-2" points="313.26 313.34 314.52 307.26 313.35 307.99 312.25 313.27 313.26 313.34"/><polygon class="cls-2" points="315.76 296.44 313.89 305.4 313.68 306.44 313.63 306.63 314.81 305.9 316.9 295.87 315.76 296.44"/><polygon class="cls-2" points="306.03 348 306.46 345.94 305.55 345.41 305.33 346.47 306.03 348"/><path class="cls-2" d="M377.32,6.16l-1-.19L327,242.34l.14,4.25Z"/><polygon class="cls-2" points="326.31 250.74 326.18 246.5 319.04 280.7 319.56 283.11 326.31 250.74"/><polygon class="cls-2" points="319.06 285.53 318.54 283.12 316.02 295.19 317.16 294.63 319.06 285.53"/><path class="cls-2" d="M247.4,624.22l1,.21,14.93-71.61-.28-3.57Z"/><polygon class="cls-2" points="308.26 332.38 305.76 344.37 306.67 344.91 309.22 332.69 308.26 332.38"/><polygon class="cls-2" points="312.52 316.87 313.05 314.33 312.05 314.25 311.47 317 312.52 316.87"/><polygon class="cls-2" points="299.8 372.96 292.23 409.27 293.33 408.9 300.58 374.13 299.8 372.96"/><polygon class="cls-2" points="263.77 545.73 264.05 549.31 293.09 410.04 291.99 410.41 263.77 545.73"/><polygon class="cls-2" points="311.09 323.74 311.52 321.65 310 324.06 309.84 324.81 309.51 326.42 308.47 331.4 309.43 331.71 310.75 325.34 311.09 323.74"/><polygon class="cls-2" points="355.2 454.35 355.15 454.14 354.98 453.87 355.2 454.35"/><polygon class="cls-2" points="332.76 420.56 332.82 422.46 354.1 454.37 351.39 448.5 332.76 420.56"/><polygon class="cls-2" points="266.06 321.06 266.59 321.37 266.3 320.94 266.06 321.06"/><path class="cls-2" d="M215.57,244.9l-1.35-2-109-163.35-.76.67L212.15,241.57l1.35,2,29.33,44-.16-2Z"/><polygon class="cls-2" points="264.63 318.43 263.1 317.94 264.61 320.21 265.03 320.45 265.74 320.1 264.63 318.43"/><path class="cls-2" d="M357.69,459.74l93.82,140.64.91-.44L356.66,456.39l.45,2.08Z"/><polygon class="cls-2" points="267.74 323.2 266.69 323.33 272.63 332.24 273.48 331.71 267.86 323.27 267.74 323.2"/><polygon class="cls-2" points="243.97 289.27 257.23 309.15 258.5 309.25 243.81 287.23 243.97 289.27"/><polygon class="cls-2" points="285.42 351.4 288.54 356.08 289.12 355.15 286.09 350.6 285.42 351.4"/><polygon class="cls-2" points="263.74 317.1 259.2 310.3 257.94 310.21 262.21 316.61 263.74 317.1"/><polygon class="cls-2" points="319.72 401.03 318.74 401.36 331.77 420.88 331.71 418.99 319.72 401.03"/><polygon class="cls-2" points="266.31 322.37 265.88 322.11 266.07 322.39 266.31 322.37"/><polygon class="cls-2" points="283.82 347.21 274.04 332.54 273.19 333.07 283.06 347.87 283.62 348.7 284.84 350.53 285.51 349.74 284.38 348.05 283.82 347.21"/><polygon class="cls-2" points="300.09 371.59 289.73 356.06 289.14 356.99 299.8 372.96 300.58 374.13 318.17 400.5 319.15 400.17 300.87 372.76 300.09 371.59"/><polygon class="cls-2" points="418.45 366.56 420.06 367.08 528.36 330.43 525.8 330.24 418.45 366.56"/><polygon class="cls-2" points="328.13 398.18 327.71 397.27 319.15 400.17 318.17 400.5 293.33 408.9 292.23 409.27 254.23 422.13 254.31 423.16 291.99 410.41 293.09 410.04 318.74 401.36 319.72 401.03 328.13 398.18"/><path class="cls-2" d="M629.9,296.07q0-.52-.07-1L528.23,329.42l2.56.19Z"/><polygon class="cls-2" points="330.97 396.16 328.66 396.95 329.08 397.86 331.01 397.21 330.97 396.16"/><polygon class="cls-2" points="214.13 435.7 212.88 437.18 243.8 426.72 244.65 425.37 214.13 435.7"/><polygon class="cls-2" points="342.9 392.13 343.11 393.11 370.82 383.74 369.69 383.07 342.9 392.13"/><polygon class="cls-2" points="332 396.87 342.16 393.44 341.95 392.45 331.96 395.83 332 396.87"/><polygon class="cls-2" points="246.16 424.87 245.31 426.21 253.33 423.49 253.25 422.46 246.16 424.87"/><path class="cls-2" d="M162.11,453.3l-2.53.85L51.88,490.6l.57.86L157.57,455.9l2.53-.85,51-17.24,1.25-1.48Z"/><polygon class="cls-2" points="414.96 368.8 418.46 367.62 416.86 367.1 413.87 368.12 412.65 368.53 370.94 382.64 372.08 383.31 413.74 369.21 414.96 368.8"/><polygon class="cls-2" points="325.82 312.37 325.59 311.26 324.33 305.38 323.51 306.34 324.72 312 324.96 313.11 325.06 313.58 325.2 314.23 326.24 314.31 325.95 312.96 325.82 312.37"/><polygon class="cls-2" points="324.06 304.14 323.7 302.43 322.93 303.64 323.25 305.11 324.06 304.14"/><polygon class="cls-2" points="330.08 337.02 330.38 338.4 331.47 338.76 329.9 331.4 330.08 337.02"/><polygon class="cls-2" points="328.72 325.91 326.64 316.2 325.65 316.32 328.9 331.52 328.72 325.91"/><path class="cls-2" d="M320.63,292.91l.92-.46-2-9.33L319,280.7,260,4.71l-1,.16,59.57,278.24.52,2.42Z"/><polygon class="cls-2" points="325.87 315.29 325.42 315.25 325.44 315.34 325.87 315.29"/><polygon class="cls-2" points="320.85 293.92 322.4 301.16 323.3 300.6 321.77 293.46 320.85 293.92"/><polygon class="cls-2" points="336.83 363.77 335.66 363.09 341.95 392.45 342.16 393.44 355.15 454.14 355.2 454.35 357.1 458.47 356.66 456.39 343.11 393.11 342.9 392.13 336.83 363.77"/><polygon class="cls-2" points="330.62 339.53 335.38 361.76 336.55 362.45 331.71 339.88 330.62 339.53"/><path class="cls-2" d="M391.12,622.13l1-.24-34-159-1.9-4.12Z"/><polygon class="cls-2" points="322.68 302.17 322.63 302.2 322.63 302.24 322.68 302.17"/><path class="cls-2" d="M327.55,289.48l1-.49-1.36-42.41-.14-4.25L319.27,0h-1l7.9,246.5.14,4.25Z"/><polygon class="cls-2" points="328.84 298.49 328.84 298.32 327.86 298.93 327.88 299.63 328.84 298.49"/><path class="cls-2" d="M332.33,407.27l-1.07-2.32.45,14,.06,1.89,6.72,209.68,1-.07-6.67-208-.06-1.89Z"/><polygon class="cls-2" points="329.14 339.06 329.77 358.47 330.79 359.06 330.15 339.38 329.14 339.06"/><polygon class="cls-2" points="328.66 292.73 328.57 290.09 327.59 290.58 327.71 294.23 328.66 292.73"/><polygon class="cls-2" points="327.76 296.01 327.82 297.78 328.8 297.17 328.71 294.51 327.76 296.01"/><polygon class="cls-2" points="328.89 299.98 327.93 301.12 328.18 309.02 328.22 310.31 328.36 314.47 328.36 314.47 329.36 314.55 329.19 309.47 329.15 308.19 328.89 299.98"/><polygon class="cls-2" points="331.01 397.21 331.17 402.38 332.25 404.71 332 396.87 331.96 395.83 330.82 360.25 329.8 359.65 330.97 396.16 331.01 397.21"/><polygon class="cls-2" points="329.9 331.4 329.41 316.31 329.4 315.88 328.4 315.99 328.72 325.91 328.9 331.52 329.11 338 330.12 338.32 330.08 337.02 329.9 331.4"/><polygon class="cls-2" points="276.34 322.18 284.54 324.8 285.65 324.11 278.74 321.89 276.34 322.18"/><path class="cls-2" d="M9.26,235.74c-.08.32-.18.64-.26,1L229,307l4.29.32Z"/><polygon class="cls-2" points="297.17 328.84 301.9 330.35 302.6 329.52 296.6 327.61 297.17 328.84"/><polygon class="cls-2" points="237.37 308.67 233.08 308.35 244.73 312.07 244.65 311 237.37 308.67"/><polygon class="cls-2" points="295.31 327.19 286.9 324.51 285.79 325.2 295.88 328.43 295.31 327.19"/><path class="cls-2" d="M404.06,362l-3.84-1.23-68.75-22-1.1-.35-.26-.08-1-.32-19.68-6.29-1-.31-2.59-.83-.55.87,2.94.94,1,.31,19.92,6.37,1,.32.46.15,1.1.35,71.92,23,3.84,1.23,9.38,3,1.6.51,191.2,61.13.36-.94-190-60.74-1.6-.51Z"/><polygon class="cls-2" points="249.69 312.61 245.68 311.32 245.76 312.4 253.62 314.91 249.69 312.61"/><polygon class="cls-2" points="268.72 319.74 274.05 321.44 276.44 321.16 270.01 319.11 268.72 319.74"/><polygon class="cls-2" points="304.12 331.06 304.34 331.13 304.89 330.26 303.89 329.94 303.63 329.86 302.93 330.68 303 330.7 304.12 331.06"/><polygon class="cls-2" points="264.63 318.43 267.35 319.31 268.64 318.67 263.74 317.1 262.21 316.61 254.03 314 257.95 316.3 263.1 317.94 264.63 318.43"/><polygon class="cls-2" points="243.97 289.27 243.81 287.23 241.82 261.36 241.72 260.12 237.2 201.48 235.99 198.88 240.67 259.46 240.76 260.7 242.68 285.53 242.84 287.57 244.43 308.19 245.44 308.27 243.97 289.27"/><polygon class="cls-2" points="245.76 312.4 245.68 311.32 245.59 310.2 244.54 309.58 244.65 311 244.73 312.07 245.71 324.81 246.71 324.69 245.76 312.4"/><path class="cls-2" d="M254.31,423.16l-.08-1-.69-8.93-.89,1.41.61,7.85.08,1L263,549.24l.28,3.57,5.82,75.33,1,.14-6.1-79-.28-3.57Z"/><polygon class="cls-2" points="250.81 390.78 251.72 389.69 250.75 377 250.65 375.77 248.54 348.46 247.59 349.06 249.71 376.57 249.81 377.81 250.81 390.78"/><path class="cls-2" d="M222.69,13.61l-1,.29L235.77,196l1.2,2.6Z"/><polygon class="cls-2" points="250.91 392.2 252.52 412.95 253.41 411.54 251.83 391.11 250.91 392.2"/><polygon class="cls-2" points="246.78 325.69 245.79 325.81 246.1 329.83 247.07 329.36 246.78 325.69"/><polygon class="cls-2" points="247.15 330.43 246.18 330.91 247.5 347.93 248.46 347.33 247.15 330.43"/><path class="cls-2" d="M628.54,280.33l-.11-1L331,314.67l5.2.39Z"/><polygon class="cls-2" points="321.89 315.76 320.11 315.97 314.84 316.6 314.37 317.15 314.02 317.7 318.75 317.14 320.53 316.93 325.65 316.32 326.64 316.2 328.4 315.99 329.4 315.88 330.4 315.75 331.07 315.68 325.87 315.29 325.44 315.34 321.89 315.76"/><polygon class="cls-2" points="276.44 321.16 274.05 321.44 267.95 322.17 269.38 323.01 276.34 322.18 278.74 321.89 291.65 320.36 292.04 320.12 291.69 319.35 276.44 321.16"/><path class="cls-2" d="M256.88,324.49l2.67-1.32-12.85,1.53-1,.12-244.38,29c0,.33.07.66.11,1l244.34-29,1-.12Z"/><polygon class="cls-2" points="292.89 319.58 293.65 319.12 292.73 319.23 292.89 319.58"/><polygon class="cls-2" points="312.31 317.91 312.44 317.89 313.39 316.77 312.52 316.87 311.47 317 295.98 318.84 293.99 320.08 311.26 318.03 312.31 317.91"/><polygon class="cls-2" points="267.74 323.2 266.31 322.37 266.07 322.39 262.52 322.81 259.85 324.14 266.69 323.33 267.74 323.2"/><polygon class="cls-2" points="300.17 337.71 298.61 340.17 299.47 340.68 300.67 338.79 300.17 337.71"/><path class="cls-2" d="M252.65,414.62l.89-1.41L289.14,357l.59-.92,9.21-14.54-.86-.51-9,14.14-.59.92-35.13,55.46-.89,1.41-7.87,12.42-.85,1.34L145.35,582.17l.45.28.4.25,99.11-156.49.85-1.34Z"/><polygon class="cls-2" points="315.31 314.5 314.89 314.47 313.57 316.56 315.31 314.5"/><polygon class="cls-2" points="318.72 308.42 318.18 309.27 315.5 313.51 316.11 313.55 318.28 310.98 319.03 309.8 319.56 308.95 322.93 303.64 323.7 302.43 324.64 300.94 322.68 302.17 322.63 302.24 318.72 308.42"/><path class="cls-2" d="M484.1,49.16l-.42-.27-.43-.27L332.16,287.19l1.72-.85Z"/><polygon class="cls-2" points="309.14 325.41 310 324.06 311.52 321.65 314.02 317.7 314.37 317.15 309.66 322.73 306.54 327.65 304.89 330.26 304.34 331.13 300.81 336.7 301.31 337.78 305.32 331.44 305.88 330.57 307.31 328.31 309.14 325.41"/><polygon class="cls-2" points="328.71 294.51 332.86 287.97 331.13 288.82 328.66 292.73 327.71 294.23 323.92 300.21 325.87 298.99 327.76 296.01 328.71 294.51"/><polygon class="cls-2" points="287.13 309.5 283.83 311.14 285.79 311.29 287.55 310.41 287.13 309.5"/><polygon class="cls-2" points="268.72 319.74 270.01 319.11 284.03 312.16 282.07 312.01 268.64 318.67 267.35 319.31 265.74 320.1 265.03 320.45 266.06 321.06 266.3 320.94 268.72 319.74"/><polygon class="cls-2" points="288.03 309.06 288.45 309.97 305.69 301.43 306.74 300.91 315.76 296.44 316.9 295.87 320.85 293.92 321.77 293.46 327.59 290.58 328.57 290.09 331.13 288.82 332.86 287.97 341.26 283.8 342.89 281.88 333.89 286.34 332.16 287.19 328.54 288.99 327.55 289.48 321.56 292.45 320.63 292.91 317.16 294.63 316.02 295.19 305.74 300.28 304.69 300.81 288.03 309.06"/><path class="cls-2" d="M589.86,160.63l-.49-.87-187,92.66-8.66,5.41Z"/><polygon class="cls-2" points="379.46 264.88 383.07 263.09 384.56 262.35 393.21 256.95 386.13 260.45 382.52 262.24 345.14 280.76 343.52 282.69 379.46 264.88"/><path class="cls-2" d="M259.85,324.14l2.67-1.32,2.47-1.22-1-.61-4.4,2.18-2.67,1.32-9.82,4.86-1,.48L24.33,439.71l.4.92L246.18,330.91l1-.48Z"/><polygon class="cls-2" points="289.66 312.58 288.52 312.49 291.69 319.35 292.04 320.12 292.89 319.58 292.73 319.23 289.66 312.58"/><path class="cls-2" d="M273.53,280.07l.77,1.66,12.84,27.77.42.91.48,1,1.14.09-.73-1.57-.42-.91-12.18-26.35-.77-1.66L237,198.62l-1.2-2.6L163.06,38.74l-.88.49L236,198.88l1.2,2.6Z"/><path class="cls-2" d="M355.2,454.35l-.22-.48-22.73-49.16-1.07-2.32-2.09-4.52-.42-.91L306,348l-.7-1.52-.76-1.64-1.51-.89,1.93,4.17.7,1.52,22,47.63.42.91,3.13,6.76,1.07,2.32,19.06,41.23,2.71,5.87,2,4.43,1.9,4.12,68.49,148.16.94-.36-69.79-151-.59-1.27Z"/><polygon class="cls-2" points="295.88 328.43 298.58 334.27 299.3 333.43 297.17 328.84 296.6 327.61 293.32 320.5 292.46 321.03 295.31 327.19 295.88 328.43"/><polygon class="cls-2" points="300.81 336.7 299.88 334.7 299.76 334.43 299.05 335.28 299.1 335.38 300.17 337.71 300.67 338.79 302.32 342.35 303.83 343.24 301.31 337.78 300.81 336.7"/><path class="cls-2" d="M331.26,295.63l2.77-1.73,9.48-11.21,1.62-1.92L519.12,75l-.76-.65L342.89,281.88l-1.62,1.92Z"/><path class="cls-2" d="M250.92,392.2l.92-1.09,33.58-39.72.67-.79,9.39-11.11-.87-.51-.82,1-8.28,9.79-.67.79-33.11,39.16-.92,1.09L212.3,436.32,211,437.8,110.64,556.55l.76.65,101.48-120,1.25-1.48Z"/><polygon class="cls-2" points="299.05 335.28 299.76 334.43 302.7 330.96 302.93 330.68 303.63 329.86 309.66 322.73 314.37 317.15 314.84 316.6 316.54 314.59 315.31 314.5 313.57 316.56 313.39 316.77 312.44 317.89 312.26 318.1 310.91 319.7 302.6 329.52 301.9 330.35 299.3 333.43 298.58 334.27 297.89 335.1 295.26 338.21 296.14 338.72 298.6 335.81 299.05 335.28"/><polygon class="cls-2" points="327.88 299.63 324.06 304.14 323.25 305.11 319.85 309.13 319.19 309.9 318.28 310.98 316.11 313.55 317.34 313.65 320.05 310.44 320.7 309.67 323.51 306.34 324.33 305.38 327.93 301.12 328.89 299.98 331.93 296.39 329.15 298.13 328.84 298.49 327.88 299.63"/><path class="cls-2" d="M243.8,309.15l-2-1.15-8.57-.64L229,307,.09,289.92c0,.33-.06.66-.09,1l233.08,17.43,4.29.32Z"/><path class="cls-2" d="M328.36,314.47l-2.12-.16-1-.08-1.42-.11-1.41-.11-5-.38-1.23-.09-.61,0-2.24-.17-1-.08-6.56-.49-1.43.9,7.79.58,1,.08,1.84.14.42,0,1.23.09,4.76.36,1.41.11,2.71.2.45,0,5.2.39L525.8,330.24l2.56.19L629.73,338c0-.33,0-.67.06-1l-99-7.4-2.56-.19-192-14.36-5.2-.39-1.69-.13Z"/><polygon class="cls-2" points="246.06 309.32 257.94 310.21 259.2 310.3 282.07 312.01 284.03 312.16 288.52 312.49 289.66 312.58 302.57 313.54 304 312.65 289.18 311.54 288.04 311.45 285.79 311.29 283.83 311.14 258.5 309.25 257.23 309.15 245.44 308.27 244.43 308.19 244.11 308.17 246.06 309.32"/><path class="cls-2" d="M244.54,309.58l1.05.62,4.11,2.41,3.92,2.3L264,321l1,.61.89.52.43.25,1.43.84.12.07,9.86,5.79,1-.6-9.3-5.46-1.43-.84-1.36-.8-.52-.31-1-.61-.42-.25L258,316.3,254,314l-8-4.68-2-1.15L28.8,181.75l-.42.91L241.85,308l2,1.15Z"/><path class="cls-2" d="M336.54,362.45l-1.17-.69-4.59-2.7-1-.6-23.09-13.56-.91-.53-1.93-1.14-1.51-.89-2.84-1.67-.86-.51-2.47-1.45-.87-.51-.58-.34-15-8.83-1,.6,15.19,8.92.73.43.88.51,2.59,1.52.86.51,4.12,2.42,1.51.89,1,.58.91.53,23.35,13.71,1,.6,4.84,2.84,1.17.69,32.86,19.29,1.14.67L570.47,501l.59-.81-199-116.84-1.14-.67Z"/><path class="cls-2" d="M273.19,333.07l.85-.53,4.65-2.9,1-.6,6.15-3.84,1.11-.69,5.56-3.47.85-.53.67-.42,2-1.24,8.28-5.17,1.43-.9,7.66-4.78,1.17-.73.23-.14.94-.59,6.93-4.33.06,0,2-1.22,3.22-2,1-.61.31-.2,2.77-1.73,39.77-24.84,5.58-3.48,16.42-10.25,8.66-5.41,176.32-110.1-.55-.84L393.21,256.95l-8.66,5.41-2.29,1.43-5.58,3.48L334,293.89l-2.77,1.73-2.46,1.54-1,.61L325.87,299l-2,1.22-.61.38-.9.56-7.59,4.74-1.17.73-9.63,6-1.43.9-8.92,5.57-.75.47-.85.53-.39.24-6,3.75-1.11.69-5.87,3.66-1,.6-4.23,2.64-.85.53-24.18,15.1-1,.6L42.63,475.85l.51.86L247.58,349.06l1-.6Z"/></g></g></svg>