<svg xmlns="http://www.w3.org/2000/svg" viewBox="0 0 61.03 61.03"><defs><style>.cls-1{fill:#fff;}</style></defs><title>Asset 19</title><g id="Layer_2" data-name="Layer 2"><g id="svg_art" data-name="svg art"><path class="cls-1" d="M30.52,0A30.52,30.52,0,1,0,61,30.52,30.52,30.52,0,0,0,30.52,0ZM47.82,19.59a3,3,0,1,1-1.53,3.95A3,3,0,0,1,47.82,19.59Zm-8.66-7.68A3,3,0,1,1,40,16.07,3,3,0,0,1,39.16,11.91Zm-1.67,6.33a3,3,0,1,1-4.1,1.1A3,3,0,0,1,37.49,18.24Zm-6.72-11a3,3,0,0,1,0,6h0a3,3,0,1,1,.09-6ZM23.33,18.25a3,3,0,0,1,3,5.19,2.93,2.93,0,0,1-1.5.41,3,3,0,0,1-1.51-5.6Zm-5.22-7.54a3,3,0,1,1,3.17,5.09,2.94,2.94,0,0,1-1.58.45,3,3,0,0,1-1.59-5.54ZM9.36,20.5a3,3,0,0,1,5.42,2.57,3,3,0,0,1-2.72,1.72,3.06,3.06,0,0,1-1.28-.29A3,3,0,0,1,9.36,20.5Zm.9,15.59a3,3,0,1,1,.38,0Zm6.57,9.82a3,3,0,0,1-1.93.71,3,3,0,0,1-2.3-1.06l0,0h0a3,3,0,0,1,4.59-3.85h0l.05.06A3,3,0,0,1,16.83,45.91Zm2.44-12.35h0a3,3,0,0,1-3-3v-.06a3,3,0,0,1,6-.07v.1h0A3,3,0,0,1,19.27,33.56Zm8,17.26a3,3,0,1,1-2-3.75A3,3,0,0,1,27.31,50.82Zm.17-9.13a3,3,0,1,1-1.11-4.09A3,3,0,0,1,27.48,41.69Zm2.94-8.06a3.12,3.12,0,1,1,3.12-3.12A3.12,3.12,0,0,1,30.43,33.63ZM36.69,53a2.8,2.8,0,0,1-.8.11,3,3,0,1,1,.8-.11Zm.85-10.22a3,3,0,0,1-1.51.41,3,3,0,1,1,1.51-.41Zm1-12.26a3,3,0,1,1,3,3A3,3,0,0,1,38.58,30.5ZM47.84,46a3,3,0,1,1-.24-4.24A3,3,0,0,1,47.84,46Zm2.66-9.34a3.57,3.57,0,0,1-.47,0,3,3,0,1,1,.47,0Z"/></g></g></svg>