<svg xmlns="http://www.w3.org/2000/svg" viewBox="0 0 95.66 96.9"><defs><style>.cls-1{fill:#fff;}</style></defs><title>Asset 1</title><g id="Layer_2" data-name="Layer 2"><g id="svg_art" data-name="svg art"><path class="cls-1" d="M30.35,3c-1.15.43-2.27.9-3.37,1.41V4.6h3.37Z"/><path class="cls-1" d="M37.1,1.07c-1.14.24-2.26.53-3.37.85V4.6H37.1Z"/><path class="cls-1" d="M43.84.13q-1.7.12-3.37.35V4.6h3.37Z"/><path class="cls-1" d="M50.59,4.6V.13C49.47.05,48.35,0,47.22,0V4.6Z"/><path class="cls-1" d="M57.33,1.07C56.22.83,55.1.64,54,.48V4.6h3.37Z"/><path class="cls-1" d="M64.08,3c-1.1-.41-2.23-.77-3.37-1.1V4.6h3.37Z"/><path class="cls-1" d="M67.45,4.6h.39l-.39-.17Z"/><path class="cls-1" d="M7,21.47h3.14V17.3A48.65,48.65,0,0,0,7,21.47Z"/><path class="cls-1" d="M16.86,10.7q-1.76,1.41-3.37,3v7.78h3.37Z"/><path class="cls-1" d="M20.24,21.47h3.37V8h-3l-.36.23Z"/><rect class="cls-1" x="26.98" y="7.98" width="3.37" height="13.49"/><rect class="cls-1" x="33.73" y="7.98" width="3.37" height="13.49"/><rect class="cls-1" x="40.47" y="7.98" width="3.37" height="13.49"/><rect class="cls-1" x="47.22" y="7.98" width="3.37" height="13.49"/><rect class="cls-1" x="53.96" y="7.98" width="3.37" height="13.49"/><rect class="cls-1" x="60.71" y="7.98" width="3.37" height="13.49"/><rect class="cls-1" x="67.45" y="7.98" width="3.37" height="13.49"/><path class="cls-1" d="M77.57,10.7C76.48,9.82,75.36,9,74.2,8.21V21.47h3.37Z"/><path class="cls-1" d="M80.94,21.47h3.37V17.3a48.75,48.75,0,0,0-3.37-3.62Z"/><path class="cls-1" d="M3.37,27.83A48.09,48.09,0,0,0,0,37.61v.72H3.37Z"/><rect class="cls-1" x="6.75" y="24.84" width="3.37" height="13.49"/><rect class="cls-1" x="13.49" y="24.84" width="3.37" height="13.49"/><rect class="cls-1" x="20.24" y="24.84" width="3.37" height="13.49"/><rect class="cls-1" x="26.98" y="24.84" width="3.37" height="13.49"/><rect class="cls-1" x="33.73" y="24.84" width="3.37" height="13.49"/><rect class="cls-1" x="40.47" y="24.84" width="3.37" height="13.49"/><rect class="cls-1" x="47.22" y="24.84" width="3.37" height="13.49"/><rect class="cls-1" x="53.96" y="24.84" width="3.37" height="13.49"/><rect class="cls-1" x="60.71" y="24.84" width="3.37" height="13.49"/><rect class="cls-1" x="67.45" y="24.84" width="3.37" height="13.49"/><rect class="cls-1" x="74.2" y="24.84" width="3.37" height="13.49"/><rect class="cls-1" x="80.94" y="24.84" width="3.37" height="13.49"/><path class="cls-1" d="M87.69,38.33h3.37V27.83q-.72-1.52-1.54-3H87.69Z"/><path class="cls-1" d="M94.43,38.33h.17c-.05-.24-.11-.48-.17-.72Z"/><rect class="cls-1" y="41.7" width="3.37" height="13.49"/><rect class="cls-1" x="6.75" y="41.7" width="3.37" height="13.49"/><rect class="cls-1" x="13.49" y="41.7" width="3.37" height="13.49"/><rect class="cls-1" x="20.24" y="41.7" width="3.37" height="13.49"/><rect class="cls-1" x="26.98" y="41.7" width="3.37" height="13.49"/><rect class="cls-1" x="33.73" y="41.7" width="3.37" height="13.49"/><rect class="cls-1" x="40.47" y="41.7" width="3.37" height="13.49"/><rect class="cls-1" x="47.22" y="41.7" width="3.37" height="13.49"/><rect class="cls-1" x="53.96" y="41.7" width="3.37" height="13.49"/><rect class="cls-1" x="60.71" y="41.7" width="3.37" height="13.49"/><rect class="cls-1" x="67.45" y="41.7" width="3.37" height="13.49"/><rect class="cls-1" x="74.2" y="41.7" width="3.37" height="13.49"/><rect class="cls-1" x="80.94" y="41.7" width="3.37" height="13.49"/><rect class="cls-1" x="87.69" y="41.7" width="3.37" height="13.49"/><path class="cls-1" d="M94.43,55.19h.75a47.88,47.88,0,0,0,0-13.49h-.75Z"/><path class="cls-1" d="M3.37,69.07V58.57H0v.72A48.1,48.1,0,0,0,3.37,69.07Z"/><rect class="cls-1" x="6.75" y="58.57" width="3.37" height="13.49"/><rect class="cls-1" x="13.49" y="58.57" width="3.37" height="13.49"/><rect class="cls-1" x="20.24" y="58.57" width="3.37" height="13.49"/><rect class="cls-1" x="26.98" y="58.57" width="3.37" height="13.49"/><rect class="cls-1" x="33.73" y="58.57" width="3.37" height="13.49"/><rect class="cls-1" x="40.47" y="58.57" width="3.37" height="13.49"/><rect class="cls-1" x="47.22" y="58.57" width="3.37" height="13.49"/><rect class="cls-1" x="53.96" y="58.57" width="3.37" height="13.49"/><rect class="cls-1" x="60.71" y="58.57" width="3.37" height="13.49"/><rect class="cls-1" x="67.45" y="58.57" width="3.37" height="13.49"/><rect class="cls-1" x="74.2" y="58.57" width="3.37" height="13.49"/><rect class="cls-1" x="80.94" y="58.57" width="3.37" height="13.49"/><path class="cls-1" d="M91.06,58.57H87.69V72.06h1.83q.82-1.46,1.54-3Z"/><path class="cls-1" d="M94.43,58.57v.72c.05-.24.11-.48.17-.72Z"/><path class="cls-1" d="M10.12,75.43H7a48.65,48.65,0,0,0,3.14,4.17Z"/><path class="cls-1" d="M16.86,86.2V75.43H13.49v7.78Q15.11,84.78,16.86,86.2Z"/><path class="cls-1" d="M23.61,75.43H20.24V88.69l.36.23h3Z"/><rect class="cls-1" x="26.98" y="75.43" width="3.37" height="13.49"/><rect class="cls-1" x="33.73" y="75.43" width="3.37" height="13.49"/><rect class="cls-1" x="40.47" y="75.43" width="3.37" height="13.49"/><rect class="cls-1" x="47.22" y="75.43" width="3.37" height="13.49"/><rect class="cls-1" x="53.96" y="75.43" width="3.37" height="13.49"/><rect class="cls-1" x="60.71" y="75.43" width="3.37" height="13.49"/><rect class="cls-1" x="67.45" y="75.43" width="3.37" height="13.49"/><path class="cls-1" d="M77.57,75.43H74.2V88.69c1.16-.78,2.28-1.62,3.37-2.49Z"/><path class="cls-1" d="M84.31,75.43H80.94v7.78a48.69,48.69,0,0,0,3.37-3.62Z"/><path class="cls-1" d="M30.35,92.29H27v.17c1.1.51,2.23,1,3.37,1.41Z"/><path class="cls-1" d="M37.1,92.29H33.73V95c1.11.32,2.23.61,3.37.85Z"/><path class="cls-1" d="M43.84,92.29H40.47v4.13q1.67.23,3.37.35Z"/><path class="cls-1" d="M50.59,92.29H47.22v4.6c1.13,0,2.26-.05,3.37-.13Z"/><path class="cls-1" d="M57.33,95.83V92.29H54v4.13C55.1,96.26,56.22,96.07,57.33,95.83Z"/><path class="cls-1" d="M64.08,92.29H60.71V95c1.14-.33,2.27-.69,3.37-1.1Z"/><path class="cls-1" d="M67.45,92.29v.17l.39-.17Z"/></g></g></svg>