<svg xmlns="http://www.w3.org/2000/svg" viewBox="0 0 50.24 50.24"><defs><style>.cls-1{fill:#fff;}</style></defs><title>Asset 14</title><g id="Layer_2" data-name="Layer 2"><g id="svg_art" data-name="svg art"><path class="cls-1" d="M25.12,50.24A25.12,25.12,0,1,1,50.24,25.12,25.15,25.15,0,0,1,25.12,50.24ZM25.12,1A24.12,24.12,0,1,0,49.24,25.12,24.15,24.15,0,0,0,25.12,1Z"/><path class="cls-1" d="M25.12,47.35A22.23,22.23,0,1,1,47.35,25.12,22.25,22.25,0,0,1,25.12,47.35Zm0-43A20.73,20.73,0,1,0,45.85,25.12,20.75,20.75,0,0,0,25.12,4.39Z"/><path class="cls-1" d="M25.12,44.09a19,19,0,1,1,19-19A19,19,0,0,1,25.12,44.09Zm0-35.93a17,17,0,1,0,17,17A17,17,0,0,0,25.12,8.16Z"/><path class="cls-1" d="M25.12,41A15.86,15.86,0,1,1,41,25.12,15.87,15.87,0,0,1,25.12,41Zm0-29.21A13.36,13.36,0,1,0,38.48,25.12,13.37,13.37,0,0,0,25.12,11.77Z"/><path class="cls-1" d="M25.12,37.57A12.45,12.45,0,1,1,37.57,25.12,12.46,12.46,0,0,1,25.12,37.57Zm0-21.9a9.45,9.45,0,1,0,9.45,9.45A9.46,9.46,0,0,0,25.12,15.67Z"/><path class="cls-1" d="M25.12,33.7a8.58,8.58,0,1,1,8.58-8.58A8.59,8.59,0,0,1,25.12,33.7Zm0-13.65a5.08,5.08,0,1,0,5.08,5.08A5.08,5.08,0,0,0,25.12,20Z"/><circle class="cls-1" cx="25.12" cy="25.12" r="4.22"/></g></g></svg>