<svg xmlns="http://www.w3.org/2000/svg" viewBox="0 0 84.39 84.39"><defs><style>.cls-1{fill:#fff;}</style></defs><title>Asset 8</title><g id="Layer_2" data-name="Layer 2"><g id="svg_art" data-name="svg art"><path class="cls-1" d="M24,4.11c-1,.5-2,1-3,1.62L5.73,21c-.58,1-1.12,2-1.62,3Z"/><path class="cls-1" d="M32.23,1.18q-1,.24-1.93.52L1.7,30.3q-.28,1-.52,1.93Z"/><path class="cls-1" d="M38.57.15Q37.78.22,37,.32L.32,37q-.1.79-.17,1.58Z"/><path class="cls-1" d="M44,0,42.63,0,0,42.63Q0,43.32,0,44Z"/><path class="cls-1" d="M48.85.51,47.6.34.34,47.6c.05.42.1.83.17,1.24Z"/><path class="cls-1" d="M53.22,1.45l-1.13-.29L1.17,52.09c.09.38.18.75.29,1.13Z"/><path class="cls-1" d="M57.23,2.75l-1-.38L2.38,56.2q.18.52.38,1Z"/><path class="cls-1" d="M60.93,4.37l-1-.46L3.91,60q.22.48.46,1Z"/><path class="cls-1" d="M64.35,6.27l-.89-.53L5.74,63.46c.17.3.35.59.53.89Z"/><path class="cls-1" d="M67.51,8.42l-.82-.59L7.83,66.69c.2.28.39.55.59.82Z"/><path class="cls-1" d="M70.43,10.82l-.76-.66L10.16,69.67l.66.76Z"/><path class="cls-1" d="M73.1,13.46l-.69-.72L12.73,72.41l.72.69Z"/><path class="cls-1" d="M75.55,16.33l-.62-.79L15.54,74.92l.79.62Z"/><path class="cls-1" d="M77.75,19.45c-.18-.29-.36-.58-.55-.86L18.58,77.19l.86.55Z"/><path class="cls-1" d="M79.69,22.81c-.16-.31-.32-.62-.49-.93L21.89,79.21l.93.49Z"/><path class="cls-1" d="M81.37,26.46c-.14-.34-.27-.67-.41-1L25.45,81l1,.41Z"/><path class="cls-1" d="M82.73,30.41c-.11-.36-.21-.73-.33-1.09L29.32,82.4l1.09.33Z"/><path class="cls-1" d="M83.74,34.71c-.07-.4-.14-.8-.22-1.19l-50,50,1.19.22Z"/><path class="cls-1" d="M84.32,39.45c0-.44-.06-.88-.1-1.31L38.14,84.22l1.31.1Z"/><path class="cls-1" d="M84.33,44.75c0-.49,0-1,.06-1.47L43.28,84.39c.49,0,1,0,1.47-.06Z"/><path class="cls-1" d="M83.52,50.88c.12-.57.22-1.15.32-1.73L49.15,83.84c.58-.1,1.16-.2,1.73-.32Z"/><path class="cls-1" d="M81.11,58.6c.32-.75.61-1.52.88-2.3L56.31,82c.78-.27,1.54-.56,2.3-.88Z"/><path class="cls-1" d="M75.57,68,68,75.57A42.44,42.44,0,0,0,75.57,68Z"/></g></g></svg>