<svg xmlns="http://www.w3.org/2000/svg" viewBox="0 0 467.32 467.32"><defs><style>.cls-1{fill:#fff;}</style></defs><title>Asset 3</title><g id="Layer_2" data-name="Layer 2"><g id="svg_art" data-name="svg art"><path class="cls-1" d="M233.16,294.47v31.16h1V294.47h-1Z"/><path class="cls-1" d="M234.16,172.78v-31.1h-1v31.1h1Z"/><path class="cls-1" d="M241.18,325.33l1-.09-2.72-31-1,.08Z"/><path class="cls-1" d="M226.14,142l-1,.09,2.71,31,1-.08Z"/><path class="cls-1" d="M249.14,324.32l1-.17-5.41-30.68-1,.18Z"/><path class="cls-1" d="M218.18,143l-1,.17,5.4,30.62,1-.18Z"/><path class="cls-1" d="M257,322.63l1-.26-8.06-30.09-1,.27Z"/><path class="cls-1" d="M210.34,144.69l-1,.26,8,30,1-.27Z"/><path class="cls-1" d="M264.65,320.26l.94-.34-10.65-29.26L254,291Z"/><path class="cls-1" d="M202.67,147.06l-.94.34,10.63,29.2.94-.34Z"/><path class="cls-1" d="M195.24,150.09l-.91.42,13.13,28.17.91-.41Z"/><path class="cls-1" d="M272.08,317.23l.91-.42-13.16-28.22-.91.41Z"/><path class="cls-1" d="M188.11,153.76l-.87.5,15.55,26.93.87-.5Z"/><path class="cls-1" d="M279.21,313.56l.87-.5-15.58-27-.87.5Z"/><path class="cls-1" d="M286,309.29l.82-.57L269,283.19l-.81.58Z"/><path class="cls-1" d="M181.31,158l-.82.57,17.84,25.48.81-.58Z"/><path class="cls-1" d="M174.92,162.88l-.77.64,20,23.83c.25-.22.5-.44.76-.65Z"/><path class="cls-1" d="M292.4,304.44l.77-.64-20-23.87c-.25.22-.5.44-.76.65Z"/><path class="cls-1" d="M191,190.26l-22-22-.71.71,22,22Z"/><path class="cls-1" d="M276.31,277l22,22,.71-.71-22-22Z"/><path class="cls-1" d="M163.52,174.16l-.64.77,23.82,20c.21-.26.44-.5.65-.76Z"/><path class="cls-1" d="M303.79,293.16l.64-.77-23.85-20c-.21.26-.44.5-.65.76Z"/><path class="cls-1" d="M158.61,180.5l-.57.82,25.48,17.84.58-.81Z"/><path class="cls-1" d="M308.71,286.82l.57-.82-25.51-17.86-.58.81Z"/><path class="cls-1" d="M154.26,187.24l-.5.87,26.94,15.55.5-.87Z"/><path class="cls-1" d="M313.06,280.08l.5-.87-27-15.57-.5.87Z"/><path class="cls-1" d="M316.8,273l.42-.91L289,258.92c-.14.3-.27.61-.41.91Z"/><path class="cls-1" d="M150.51,194.34l-.42.91,28.19,13.15c.14-.3.27-.61.41-.91Z"/><path class="cls-1" d="M147.4,201.73l-.34.94,29.23,10.64c.11-.31.22-.63.34-.94Z"/><path class="cls-1" d="M319.92,265.59l.34-.94L291,254c-.11.31-.22.63-.34.94Z"/><path class="cls-1" d="M322.37,257.95l.26-1-30.05-8.05c-.08.32-.18.64-.27,1Z"/><path class="cls-1" d="M144.95,209.37l-.26,1,30,8c.08-.32.18-.64.27-1Z"/><path class="cls-1" d="M324.15,250.12l.17-1-30.66-5.41c-.05.33-.12.66-.18,1Z"/><path class="cls-1" d="M143.17,217.2l-.17,1,30.64,5.4c.05-.33.12-.66.18-1Z"/><path class="cls-1" d="M325.24,242.17l.09-1-31-2.71c0,.33,0,.67-.08,1Z"/><path class="cls-1" d="M142.08,225.14l-.09,1,31,2.71c0-.33,0-.67.08-1Z"/><path class="cls-1" d="M294.5,234.16h31.13v-1H294.51c0,.16,0,.31,0,.47S294.51,234,294.5,234.16Z"/><path class="cls-1" d="M172.81,233.16H141.69v1h31.13c0-.18,0-.35,0-.53S172.81,233.32,172.81,233.16Z"/><path class="cls-1" d="M325.33,226.14l-.09-1-31,2.71c0,.33.05.66.08,1Z"/><path class="cls-1" d="M142,241.18l.09,1,31-2.71c0-.33,0-.67-.08-1Z"/><path class="cls-1" d="M143,249.14l.17,1,30.66-5.41c-.06-.33-.12-.65-.18-1Z"/><path class="cls-1" d="M324.32,218.18l-.17-1-30.65,5.4c.06.33.12.65.18,1Z"/><path class="cls-1" d="M322.63,210.34l-.26-1-30.05,8.05c.09.32.19.64.27,1Z"/><path class="cls-1" d="M144.69,257l.26,1L175,249.89c-.09-.32-.19-.64-.27-1Z"/><path class="cls-1" d="M320.26,202.67l-.34-.94-29.22,10.64c.12.31.23.63.34.94Z"/><path class="cls-1" d="M147.06,264.65l.34.94,29.24-10.64c-.12-.31-.23-.63-.34-.94Z"/><path class="cls-1" d="M317.23,195.24l-.42-.91-28.18,13.14c.14.3.27.61.41.91Z"/><path class="cls-1" d="M150.09,272.08l.42.91,28.21-13.15c-.14-.3-.27-.61-.41-.91Z"/><path class="cls-1" d="M153.76,279.21l.5.87,27-15.57-.5-.87Z"/><path class="cls-1" d="M313.56,188.11l-.5-.87-26.94,15.55.5.87Z"/><path class="cls-1" d="M158,286l.57.82L184.12,269l-.58-.81Z"/><path class="cls-1" d="M309.29,181.31l-.57-.82-25.49,17.84.58.81Z"/><path class="cls-1" d="M162.88,292.4l.64.77,23.87-20c-.22-.25-.44-.5-.65-.76Z"/><path class="cls-1" d="M304.44,174.92l-.64-.77-23.83,20c.22.25.44.5.65.76Z"/><path class="cls-1" d="M277.05,191l22-22-.71-.71-22,22Z"/><path class="cls-1" d="M190.3,276.31l-22,22,.71.71,22-22Z"/><path class="cls-1" d="M174.16,303.79l.77.64,20-23.86c-.26-.21-.5-.44-.76-.65Z"/><path class="cls-1" d="M293.16,163.52l-.77-.64-20,23.82c.26.21.5.44.76.65Z"/><path class="cls-1" d="M286.82,158.6,286,158,268.17,183.5l.81.58Z"/><path class="cls-1" d="M180.5,308.71l.82.57,17.87-25.52-.81-.58Z"/><path class="cls-1" d="M280.08,154.26l-.87-.5-15.55,26.93.87.5Z"/><path class="cls-1" d="M187.24,313.06l.87.5,15.58-27-.87-.5Z"/><path class="cls-1" d="M194.34,316.8l.91.42L208.41,289l-.91-.41Z"/><path class="cls-1" d="M273,150.51l-.91-.42-13.14,28.18.91.41Z"/><path class="cls-1" d="M265.59,147.4l-.94-.34L254,176.27l.94.34Z"/><path class="cls-1" d="M201.73,319.91l.94.34L213.32,291l-.94-.34Z"/><path class="cls-1" d="M257.95,144.95l-1-.26-8,30,1,.27Z"/><path class="cls-1" d="M209.37,322.37l1,.26,8.06-30.08-1-.27Z"/><path class="cls-1" d="M217.2,324.15l1,.17,5.41-30.68-1-.18Z"/><path class="cls-1" d="M250.12,143.17l-1-.17-5.4,30.62,1,.18Z"/><path class="cls-1" d="M242.17,142.08l-1-.09-2.71,31,1,.08Z"/><path class="cls-1" d="M225.15,325.24l1,.09,2.72-31-1-.08Z"/><path class="cls-1" d="M233.41,373.63v93.69h.5V373.63h-.5Z"/><path class="cls-1" d="M233.91,93.69V0h-.5V93.69h.5Z"/><path class="cls-1" d="M253.77,466.45l.5,0-8.17-93.33-.5,0Z"/><path class="cls-1" d="M213.54.87l-.5,0,8.17,93.33.5,0Z"/><path class="cls-1" d="M274,463.81l.49-.09-16.27-92.24-.49.08Z"/><path class="cls-1" d="M193.33,3.51l-.49.09L209.1,95.84l.49-.08Z"/><path class="cls-1" d="M173.43,7.9l-.48.13L197.18,98.5l.48-.13Z"/><path class="cls-1" d="M293.89,459.42l.48-.13-24.24-90.47-.48.13Z"/><path class="cls-1" d="M313.34,453.31l.47-.17-32-88-.47.17Z"/><path class="cls-1" d="M154,14l-.47.17,32,88L186,102Z"/><path class="cls-1" d="M135.14,21.79l-.45.21,39.58,84.89.45-.21Z"/><path class="cls-1" d="M332.18,445.53l.45-.21L293,360.43l-.45.21Z"/><path class="cls-1" d="M350.27,436.14l.43-.25-46.84-81.12-.43.25Z"/><path class="cls-1" d="M117,31.18l-.43.25,46.84,81.12.43-.25Z"/><path class="cls-1" d="M367.48,425.2l.41-.29-53.73-76.74-.41.28Z"/><path class="cls-1" d="M99.84,42.11l-.41.29,53.73,76.74.41-.28Z"/><path class="cls-1" d="M383.66,412.81l.38-.32-60.23-71.77-.38.32Z"/><path class="cls-1" d="M83.66,54.5l-.38.32L143.5,126.6l.38-.32Z"/><path class="cls-1" d="M134.86,134.51,68.61,68.26l-.35.35,66.25,66.25Z"/><path class="cls-1" d="M332.45,332.81l66.25,66.25.35-.35-66.25-66.25Z"/><path class="cls-1" d="M412.49,384l.32-.38L341,323.44l-.32.38Z"/><path class="cls-1" d="M54.83,83.27l-.32.38,71.77,60.22.32-.38Z"/><path class="cls-1" d="M424.92,367.88l.29-.41-76.74-53.74-.28.41Z"/><path class="cls-1" d="M42.4,99.43l-.29.41,76.74,53.74.28-.41Z"/><path class="cls-1" d="M31.43,116.61l-.25.43,81.12,46.83.25-.43Z"/><path class="cls-1" d="M435.89,350.7l.25-.43L355,303.44l-.25.43Z"/><path class="cls-1" d="M445.32,332.63l.21-.45L360.64,292.6l-.21.45Z"/><path class="cls-1" d="M22,134.68l-.21.45,84.89,39.58.21-.45Z"/><path class="cls-1" d="M453.14,313.81l.17-.47-88-32-.17.47Z"/><path class="cls-1" d="M14.18,153.51,14,154l88,32,.17-.47Z"/><path class="cls-1" d="M459.29,294.38l.13-.48L369,269.65l-.13.48Z"/><path class="cls-1" d="M8,172.94l-.13.48,90.47,24.24.13-.48Z"/><path class="cls-1" d="M463.72,274.48l.09-.49-92.25-16.27c0,.16-.05.33-.08.49Z"/><path class="cls-1" d="M3.59,192.84l-.09.49L95.76,209.6c0-.16.05-.33.08-.49Z"/><path class="cls-1" d="M.91,213l0,.5,93.33,8.17,0-.5Z"/><path class="cls-1" d="M466.41,254.27l0-.5-93.33-8.17,0,.5Z"/><path class="cls-1" d="M373.63,233.91h93.69v-.5H373.63c0,.08,0,.17,0,.25S373.63,233.83,373.63,233.91Z"/><path class="cls-1" d="M93.69,233.41H0v.5H93.69c0-.08,0-.17,0-.25S93.69,233.49,93.69,233.41Z"/><path class="cls-1" d="M466.45,213.54l0-.5-93.33,8.17,0,.5Z"/><path class="cls-1" d="M.87,253.77l0,.5,93.33-8.17,0-.5Z"/><path class="cls-1" d="M3.51,274l.09.49,92.24-16.27c0-.16-.05-.33-.08-.49Z"/><path class="cls-1" d="M463.81,193.33l-.09-.49L371.48,209.1c0,.16.05.33.08.49Z"/><path class="cls-1" d="M7.9,293.89l.13.48L98.5,270.13l-.13-.48Z"/><path class="cls-1" d="M459.42,173.43l-.13-.48-90.47,24.24.13.48Z"/><path class="cls-1" d="M453.31,154l-.17-.47-88,32,.17.47Z"/><path class="cls-1" d="M14,313.34l.17.47,88-32-.17-.47Z"/><path class="cls-1" d="M21.79,332.18l.21.45L106.89,293l-.21-.45Z"/><path class="cls-1" d="M445.53,135.14l-.21-.45-84.89,39.58.21.45Z"/><path class="cls-1" d="M31.18,350.27l.25.43,81.12-46.84-.25-.43Z"/><path class="cls-1" d="M436.14,117l-.25-.43-81.12,46.84.25.43Z"/><path class="cls-1" d="M42.11,367.48l.29.41,76.74-53.73-.28-.41Z"/><path class="cls-1" d="M425.2,99.84l-.29-.41-76.74,53.73.28.41Z"/><path class="cls-1" d="M412.81,83.66l-.32-.38L340.72,143.5l.32.38Z"/><path class="cls-1" d="M54.5,383.66l.32.38,71.77-60.23-.32-.38Z"/><path class="cls-1" d="M332.81,134.86l66.25-66.25-.35-.35-66.25,66.25Z"/><path class="cls-1" d="M134.51,332.45,68.26,398.7l.35.35,66.25-66.25Z"/><path class="cls-1" d="M83.27,412.49l.38.32L143.88,341l-.38-.32Z"/><path class="cls-1" d="M384,54.83l-.38-.32-60.22,71.77.38.32Z"/><path class="cls-1" d="M367.88,42.4l-.41-.29-53.74,76.74.41.28Z"/><path class="cls-1" d="M99.43,424.92l.41.29,53.74-76.74-.41-.28Z"/><path class="cls-1" d="M116.61,435.89l.43.25L163.88,355l-.43-.25Z"/><path class="cls-1" d="M350.7,31.43l-.43-.25L303.44,112.3l.43.25Z"/><path class="cls-1" d="M134.68,445.32l.45.21,39.58-84.89-.45-.21Z"/><path class="cls-1" d="M332.63,22l-.45-.21L292.6,106.68l.45.21Z"/><path class="cls-1" d="M313.81,14.18l-.47-.17-32,88,.47.17Z"/><path class="cls-1" d="M153.51,453.14l.47.17,32-88-.47-.17Z"/><path class="cls-1" d="M172.94,459.29l.48.13L197.67,369l-.48-.13Z"/><path class="cls-1" d="M294.38,8l-.48-.13L269.65,98.37l.48.13Z"/><path class="cls-1" d="M274.48,3.59,274,3.51,257.72,95.76l.49.08Z"/><path class="cls-1" d="M192.84,463.72l.49.09,16.27-92.25-.49-.08Z"/><path class="cls-1" d="M213,466.41l.5,0,8.17-93.33-.5,0Z"/><path class="cls-1" d="M254.27.91l-.5,0L245.61,94.2l.5,0Z"/><path class="cls-1" d="M275,145.61l15.82-33.92-.44-.21L274.56,145.4Z"/><path class="cls-1" d="M267.17,142.33,280,107.16l-.46-.16-12.8,35.17Z"/><path class="cls-1" d="M259.08,139.77l9.69-36.15-.47-.13-9.69,36.15Z"/><path class="cls-1" d="M242.38,136.8l3.26-37.28-.49,0-3.26,37.28Z"/><path class="cls-1" d="M250.8,137.91l6.5-36.85-.48-.08-6.5,36.85Z"/><path class="cls-1" d="M282.52,149.56l18.71-32.41-.42-.25L282.1,149.31Z"/><path class="cls-1" d="M170.94,159.33l.38-.32-24.05-28.66-.38.32Z"/><path class="cls-1" d="M289.66,154.14l21.46-30.65-.4-.28-21.46,30.65Z"/><path class="cls-1" d="M296.37,159.33l24.05-28.66-.38-.32L296,159Z"/><path class="cls-1" d="M192.32,145.61l.45-.21-15.82-33.92-.45.21Z"/><path class="cls-1" d="M177.66,154.14l.4-.28L156.6,123.21l-.4.28Z"/><path class="cls-1" d="M233.9,136.41V99h-.49v37.42h.49Z"/><path class="cls-1" d="M225.42,136.75l-3.26-37.28-.49,0,3.26,37.28Z"/><path class="cls-1" d="M165,164.73l-26.46-26.46-.35.35,26.46,26.46Z"/><path class="cls-1" d="M200.15,142.33l.46-.17L187.81,107l-.46.16Z"/><path class="cls-1" d="M216.52,137.91l.48-.08L210.51,101l-.48.08Z"/><path class="cls-1" d="M208.24,139.77l.47-.13L199,103.49l-.47.13Z"/><path class="cls-1" d="M184.8,149.56l.42-.25L166.51,116.9l-.42.25Z"/><path class="cls-1" d="M313.48,178.1l30.65-21.46-.28-.4L313.2,177.69Z"/><path class="cls-1" d="M318,185.26l32.41-18.71-.25-.42-32.41,18.71Z"/><path class="cls-1" d="M321.93,192.8,355.85,177l-.21-.44-33.92,15.82Z"/><path class="cls-1" d="M343.82,311.13l.28-.4-30.65-21.46-.28.4Z"/><path class="cls-1" d="M329.49,217l36.85-6.5c0-.16-.05-.32-.08-.48l-36.85,6.5C329.44,216.72,329.47,216.88,329.49,217Z"/><path class="cls-1" d="M325.16,200.65l35.17-12.8-.16-.46L325,200.18Z"/><path class="cls-1" d="M318,282.11l-.25.42,32.41,18.71.25-.42Z"/><path class="cls-1" d="M330.57,225.46l37.28-3.26,0-.49L330.52,225Z"/><path class="cls-1" d="M327.69,208.75l36.15-9.69-.13-.47-36.15,9.69Z"/><path class="cls-1" d="M368.33,233.45H330.91c0,.07,0,.14,0,.21s0,.19,0,.28h37.42c0-.09,0-.19,0-.28S368.33,233.52,368.33,233.45Z"/><path class="cls-1" d="M164.73,302.27l-26.46,26.46.35.35,26.46-26.46Z"/><path class="cls-1" d="M321.91,274.57l-.21.45,33.92,15.82.21-.44Z"/><path class="cls-1" d="M308.33,171.35,337,147.3l-.32-.37L308,171Z"/><path class="cls-1" d="M241.89,330.56l3.26,37.28.49,0-3.26-37.27Z"/><path class="cls-1" d="M330.56,241.92l0,.49,37.28,3.26,0-.49Z"/><path class="cls-1" d="M325.14,266.73l-.17.46L360.15,280l.16-.46Z"/><path class="cls-1" d="M329.48,250.34c0,.16-.05.32-.08.48l36.85,6.5c0-.16.05-.32.08-.48Z"/><path class="cls-1" d="M327.67,258.63l-.13.47,36.15,9.69.13-.47Z"/><path class="cls-1" d="M177.69,313.2l-21.46,30.65.4.28,21.46-30.65Z"/><path class="cls-1" d="M137.82,217c0-.16.05-.32.08-.48L101,210.06c0,.16-.05.32-.08.48Z"/><path class="cls-1" d="M139.63,208.75l.13-.47-36.15-9.69-.13.47Z"/><path class="cls-1" d="M136.75,225.46l0-.49-37.28-3.26,0,.49Z"/><path class="cls-1" d="M154.12,177.69l-30.65-21.46-.28.4,30.65,21.46Z"/><path class="cls-1" d="M142.15,200.65l.16-.46-35.17-12.8-.16.46Z"/><path class="cls-1" d="M149.28,185.26l.25-.42-32.41-18.71-.25.42Z"/><path class="cls-1" d="M145.39,192.8l.21-.45-33.92-15.82-.21.45Z"/><path class="cls-1" d="M136.76,241.92l-37.28,3.26,0,.49,37.28-3.26Z"/><path class="cls-1" d="M136.4,233.66c0-.07,0-.14,0-.21H99c0,.07,0,.14,0,.21s0,.19,0,.28h37.42C136.41,233.84,136.4,233.75,136.4,233.66Z"/><path class="cls-1" d="M159,296l-28.66,24.05.32.37,28.66-24.05Z"/><path class="cls-1" d="M153.87,289.26l-30.65,21.46.28.4,30.65-21.46Z"/><path class="cls-1" d="M149.31,282.11,116.9,300.82l.25.42,32.41-18.71Z"/><path class="cls-1" d="M308.3,296l-.32.37,28.66,24.05.32-.37Z"/><path class="cls-1" d="M139.65,258.63l-36.15,9.69.13.47,36.15-9.69Z"/><path class="cls-1" d="M137.83,250.34,101,256.84c0,.16.05.32.08.48l36.85-6.5C137.89,250.66,137.86,250.5,137.83,250.34Z"/><path class="cls-1" d="M145.41,274.57l-33.92,15.82.21.45L145.62,275Z"/><path class="cls-1" d="M142.18,266.73,107,279.53l.16.46,35.17-12.8Z"/><path class="cls-1" d="M275,321.72l-.45.21,15.82,33.92.45-.21Z"/><path class="cls-1" d="M224.94,330.52l-3.26,37.28.49,0,3.26-37.27Z"/><path class="cls-1" d="M208.25,327.55l-9.69,36.15.47.13,9.69-36.15Z"/><path class="cls-1" d="M216.53,329.41,210,366.26l.48.08,6.5-36.85Z"/><path class="cls-1" d="M233.9,368.33V330.91h-.49v37.42h.49Z"/><path class="cls-1" d="M192.34,321.72l-15.82,33.92.45.21,15.82-33.92Z"/><path class="cls-1" d="M184.83,317.78l-18.71,32.41.42.25L185.25,318Z"/><path class="cls-1" d="M200.17,325l-12.8,35.17.46.16,12.8-35.17Z"/><path class="cls-1" d="M250.79,329.41l-.48.08,6.5,36.85.48-.08Z"/><path class="cls-1" d="M171,308l-24.05,28.66.38.32,24.05-28.66Z"/><path class="cls-1" d="M302.24,302.62l26.46,26.46.35-.35-26.46-26.46Z"/><path class="cls-1" d="M259.06,327.55l-.47.13,9.69,36.15.47-.13Z"/><path class="cls-1" d="M289.63,313.2l-.4.28,21.46,30.65.4-.28Z"/><path class="cls-1" d="M328.73,138.28l-26.46,26.46.35.35,26.46-26.46Z"/><path class="cls-1" d="M296.34,308l-.38.32L320,337l.38-.32Z"/><path class="cls-1" d="M267.15,325l-.46.16,12.8,35.17.46-.16Z"/><path class="cls-1" d="M159,171.35l.32-.38-28.66-24.05-.32.37Z"/><path class="cls-1" d="M282.49,317.78l-.42.25,18.71,32.41.42-.25Z"/></g></g></svg>