<svg xmlns="http://www.w3.org/2000/svg" viewBox="0 0 140.69 141.88"><defs><style>.cls-1{fill:#fff;}</style></defs><title>Asset 17</title><g id="Layer_2" data-name="Layer 2"><g id="svg_art" data-name="svg art"><path class="cls-1" d="M128.93,84.34,136.49,88,131,80.86l2.31-3.81,7.34,3.77-6.4-5.32,3.77-6.22-5-7.19,2.38-12.4-6.8,2.13,5.24-9L124,47.74l4.65-12.66-5.73,1.23,3.44-5.69-11-4.4,2.08-6.31L113,22.7l-.89-7.31-11.2-.16,1.61-7.15-4.46,3.38-1.39-2,.71-2.38-.93-.35-.67,1.44L93.55,4.93l-12.31.93.69-4.65-5.28,5L74,6.41,69.05,0,67,6.84,54.3,1.73l1.7,6L53.15,8,47.5,3.3l.4,5.09-12.67,1,1.43,4.94-8.87-.13,1.65,8.38-7-3.61.38,10.18-5.59-4-.62.78,6.29,5.5,0,1-9.49-4.55L23.63,55.13l-7.24-2.64L9.31,32.79,9.51,50l-6-2.2L7.49,61l-7,1.49L7.17,72,0,78.75l7.34,1.49L2,84.3l4.48,5.18L1.09,92.86l6.54-2L10,93.59,10.16,105,17,101.64l4.43,5.12,1.8,5.92-6.3-.14-.07,1,6.85.75,3.72,12.23L27,114.65l1.39.15,5.23,6-1.94,6.63,6-1.9,2,2.31-1.11,2.37.91.42.92-2,5.74,6.63-3.84-10.68.29-.62.83-.26,9.66,13.8-1.55-7.86,2.51,6.71,3.77-.49.27,3.44,1.07-3.61,1.77-.23-.65,4.37,2.81-4.66,8.25-1.08,1.52,5.26,1.27-5.62,4.87-.64-2.87,8.71,5.26-9,9.4-1.23,1,3.66,1.46-4,7.74-1,4.28-7,6.56.72-3.64-5.52,1.69-2.79,11,.25-7.28-6.37,4.15-6.84,4,.81,1.31,10.81L125,104.15l5.06,1-4.63-3.28.8-4.19,7.64-2.4-6.71-2.45,1.59-8.28ZM9.86,79.73l-.15,0,.15-.11ZM9.79,74,8.48,72.1l1.27-1.21Zm-.11-9.21-.93-3,.89-.19ZM5,49.41l4.51,1.64.11,9.45-1.17.25ZM2.2,63.12l5.58-1.19,2,6.41v1.2L7.9,71.27Zm-.11,15,5.66-5.36,2.07,3,0,2.6L8.41,79.44ZM7.33,88.95,3.45,84.45l5.2-3.95,1.22.25L10,87.3ZM10,88.48V89l-1.78.56Zm-1.3,2L10,90.07l0,2ZM124.73,72.62l4.85,2.49L129,78.18Zm-5.11,25.14-11.1-7.87.9-2.44,10.9,4,.52,4.33Zm1.41-.4.11.92-.55.17-.16-.11ZM67.76,118.11l-.53-1.83,4.76-1.5,2.28.05L72,118.58Zm3.69,1.41-2.22,3.67-1.17-4Zm-10.85-2.2L57.36,117l-.2-2.52,6.9.16-.25,1.71Zm3,.11-.06.21-.45,0Zm-5.35.64-.76.24,0-.32Zm-1.14-4.62L55.73,96l2.55-5.44.5.1,5.84,20.16-.41,2.76Zm-20,1.3-.66-.07.18-.61ZM37,112.84h0v0Zm-.09-3.23L31.48,94.5l5.81-2.87L40,99ZM25.81,83l-.05-1.46.56,1.57Zm.14,1-.1,0V84ZM11.15,69.57l7.7-7.28,2.61,7.25L13.08,75.9Zm1.56,8.57-.33-.47.15-.11ZM38.93,15.33,49.71,31.65v.05l-.86.82L42,29,38,15.31Zm-1.22-1-.43-1.49,1,1.5ZM120.43,64l-1.83-1.53,2.66-7.24,4.81-1.51.19.28Zm6.46-9.09L132,62.32l-1.87,9.75-9-7.45ZM107.72,85.77,97.4,82,97,81.75,99,75.93l2.79-4.61,10.65,5.1L111.08,80Zm1.4-.41-.3.81-.15-.05Zm-23.49,24.1-2.2-7.81,3.2-5.29,4.27.87L87,109Zm1,.74-.42,1.27-.29-1ZM55.18,88.94,54.72,83l1.62-.8,1.82,6.27-.44.95Zm2.09,1.45L55.57,94l-.31-4ZM43,86.47l-1.25-6.37,4.16-1.3-2.29,7.8Zm.27,1.07-.05,0v0Zm-8.8-6.21L32,74.66l6.84-4.29,1.78,9.05Zm.22,3.45-4.78-1,4-1.24Zm-9.9-1,0,.57-6.39,2L16.9,84.13l2.34-1.47Zm-4.37-1.91,4.2-2.63.13,3.51Zm4.3-26.58L24,34l4.11,2,4.83,4.23,1.22,6.22ZM24.51,75.1l-1.87-5.2,1.63-1.23Zm25.4-40.91.9,11.6-4.64-2.22L44.55,38,49,33.73ZM49.79,33l0,0v0Zm62.07,25.14,1.39,1.16,3.67,4.79L115.87,67l-8.76-4.5,2.1-3.47ZM110,57.68l.44-.73.52.43ZM115.66,53,116,55.8l-3.36,1.05-1.2-1.56.2-.34Zm-3.05.39,2.58-4.27.34,2.83Zm3.52,3.45.48,4L114,58.6l-.69-.9Zm.49-4.31,5.59-2.76-1.71,4.65L117,55.49Zm.64,13.61.2,1.65-.68-.35ZM100.07,69.4l-9-4.31,2.43-1.2,8.83-2.77.38.2Zm.78,1.48-.48.79.29-.88Zm-5.74,9.5-7.66-5.43,2-9.07.46-.23,9.8,4.7L98,75.51Zm1.54-.62-.46,1.39L95.92,81ZM92.83,91.32,90.76,89.5l4.38-7.25.61.22Zm.48,1.75,5.39,4.72-4.75-1-1.25-1.9ZM83,94.59l2-8.81,1.12,1,2.68,4.05-2.66,4.41Zm2.57,1.54-2.53,4.18-.74-2.64.48-2.1Zm-9.9-22-.35-1.23,1.2-.59.31.47-.48,1.61Zm.4,1.21,0,.11,0-.13ZM70.69,70l-1.64.51-1-.85,2.54-5.42.84.6Zm.55,3.77-.11.06,0-.14Zm-45.6-17.9,8.72-8.26,1.44,7.31-8,1.72ZM25.92,57l-.47.1-.12-.32ZM34.15,41.3,37,43.77l-2,1.86ZM36,55.9l.45,2.28L35,59.27l-5.47-2Zm.66,3.37.13.65-.67-.24Zm.12-4.56-1.56-7.92,2.49-2.36,7.83,6.85-2.86,2.17Zm9.53-2.76.66.58L45,53Zm-5.5,2.92L37.34,57.5,37,55.69Zm2.3-.49,4.8-1,2.53,8.57-3,1.89-9.55-3.48-.34-1.73Zm8.06-3.91.09,1.15-2.6.56-.47-1.64,1.49-1.13Zm-.66-1.7.5-.38.06.78ZM57,40.94,54,36.27l3.88,2Zm1.69-2.22,2,1-3,2.25Zm-1.44,4.9.21-.16,3.94,6-2.1.45-3.41-1.64Zm20.64,5,5.27,2.71-2.6,8.77L74,56.92Zm-.73-1.5.37-.08-.1.22Zm.6-1.15.39-.24-.08.18ZM105.21,57l1.14-3.46,2.18,1.82Zm4.16-.94.28.24-1.11,1.83-4.14,1.3.36-1.09Zm-5.42,1.56-3.17,1.56L92,54.69l2.48-11,11,9.18ZM103.51,59l-.28.84-.79.25-.55-.28ZM86.87,86.11,85.42,83.9l1.08-4.8,7.68,2.8L90,88.84Zm2.59,3.6-.1.17L89,89.25Zm-15-16.39.1.36L74,73.5Zm-.27-4.65.14.21-.07,0Zm-.12-2,2.23,1.58-1,.31ZM70.72,56.44l1.86.89-.08.55-.86,1.83Zm.74,6.33-.09-.13,0-.07ZM67.3,69,56.35,59.4l3.94-2.47,9.5,6.73Zm.64,1.89-.49.15.19-.41ZM53.55,52.15l.18.12-1.11,3.79-.28-3.65Zm-1.3-.75v-.19l.2.15Zm.87,6.5,1.56,1.36-1.73,1.08-.12-1.48Zm.31-1.06,1.16-4,4.82,3.42-3.85,2.41Zm7.78-.49,3.41-2.14,5.61,8.5v0ZM65.69,54l3.83,1.84L71,61.09l-.26.56ZM69,50.29l-.38-1.36,3.87-.83Zm4.92-1.9-1.18,7.9-2.37-1.14-1.08-3.86Zm-4.75,6.19-2.9-1.39,2.14-1.34Zm3.16,11.3.95,3.31-1.51.47Zm.74-1.13-.37-1.33.78-5.26.16-.34L80.32,61l-1.94,6.55-.91.29Zm6.47,2.48,1.71-5.75,6.58,3.15Zm7.79-1.39-7.5,3.7L79,69l.17-.59ZM78.79,70l-.12.06,0-.12ZM77.29,69l.56.39-.4,1.33-.57.28-1-1.56Zm.28,4.85.83,1.26-1.08-.4Zm.37-1.25.35-1.17,1.43-.71,6.6,4.68-.54,2.4L80,75.66Zm8.78,5.54L87.2,76l6.64,4.71Zm-.17-3.8L80.74,70.2l7.59-3.75Zm-5-13.81,2.6-8.74,6.74,3.46-2,8.81ZM91.78,55.7l7.88,4L93.14,63l-3.22,1Zm9,4.62.31.16L99.33,61Zm-9.68-6.1-6.68-3.43,1.66-5.59,7.41-1.58Zm-4.7-10.11,1.29-4.36L88.87,39l4.37,3.64Zm.44-5L80.55,43l3.69-7.88,3,2.51Zm-.43,1.45-1.13,3.79-5.94,1.27.42-.9ZM85,45.44,83.5,50.32l-5.13-2.64.44-.94ZM74,54.71l1-7,.31-.2.33-.07,1.39.71Zm.18-8L68.34,48l-1.42-5,7.24,3.72Zm-6,4.12-2.92,1.83-.57-.27L63.1,50.11l4.53-1Zm-4.18,2.34.13.2-3.74,2.34-5.44-3.86,4.35-.94Zm-8.72-2.41.45-1.55,2.1,1Zm5.63-.18L62,50.33l.81,1.23ZM55,47.81l-2-1L56,44.64Zm-.29,1L54.1,51l-.33.07-1.63-1.16L52,47.67l.18-.14ZM52.08,62.07l.2,2.58-.57-2,.14-.47Zm-.89-1.17-1.82-6.27,2.28,2,.17,2.14Zm.22,4.35L51,65.1l.18-.63ZM49.14,53.09l2.21-.47.2,2.58ZM47.89,49.5l-.5-1.71,1.43,1Zm-.42,2.13-.34-.3.21-.16ZM50.57,63l-.51,1.74-1.44-.52Zm-4.21,1.46-6.82,4.27-1.43-7.28Zm1.19.43,2.23.81-3.5,11.93-4.69,1.47L39.76,69.8Zm3.17,1.15,1,.38.91,3.13.46,5.93-5.69,1.78ZM53,61.47,55.46,60l11.39,10-.38.82L53.39,66ZM65.76,71.54l-10.53,3.3-1.58-5.45-.18-2.33Zm-.19,1.11-2.38,5.09L57,80.81l-1.45-5Zm1.29-.41.44-.14,2.92,1.06L70,74.36,64.63,77Zm3.06-1,.6-.19-.09.63Zm1.66-.52,1.95-.61.61,2.18-1.4.69-1.41-.51h0Zm3.27,4.09.27,1-1.71-1.5Zm.2-3-.57-2,.38-.12L76,71.43Zm2,3.77,2.3.84L84,83.62l-7.44-6.51Zm3.87,1.41,4.65,1.7-.9,4Zm8.5,14.69,2.19,3.32-.39,1.19-4-.82ZM90,90.8l.26-.43,2.26,2L92,93.86Zm2.32,5.33.27.41-.38-.08Zm11.33-34.35,2.07,1.06L101.37,70l-.39-.19Zm.32-1,.07-.22,3.75-1.17L106.22,62Zm5.56-5.94-2.83-2.35.42-1.26,2.67,3.48Zm-2.77-5.72L101.22,42l8.5-1.81Zm-.38,1.15-.51,1.53-10.4-8.65,4.68-1Zm-11.56-8L96,36.84l3.43,4.47Zm-.93-.43-4.12-3.43,5.07-3.18.41.54Zm-4.93-4.1-.54-.45,2.23-7.52,3.58,4.67Zm-1.38-1.15-2.89-2.41,3.55-7.57,1.66,2.17ZM88,24.74,85.88,22l5.34-4Zm-.48,1-3.66,7.81-6-5L78,28l7.13-5.41ZM83.45,34.5,79,44,75.5,46.21l-.24-.12,2.43-16.37ZM74.32,45.6l-7.77-4-1.16-4.13L76.72,28.9l.08.07Zm-8.61-3.3,1.65,5.87-4.85,1-4.2-6.35,3.42-2.59Zm-3.09-2.71,1.92-1.45.8,2.85Zm-1-.51L59,37.75l2.76-9.4,2.46,8.76Zm-.51-16.8,1.94-1.83L61.8,24.72Zm.15,4.24L58.12,37.28l-5.29-2.72L51,31.83l9.27-8.77Zm-9.13,8.81,4.53,6.86-.24.82L52,46.37l-.17-.08L51,34.72Zm-1.28-1.78v-.18l.17.26Zm0,13.38,0,.27-1.26,1L47,46.24l-.4-1.39Zm-5.26-1.62-3.92-2.78,3.61,1.73Zm-1.4-8.43L42.33,30.3l5.75,3ZM45,43l-3.79-1.82,2.56-2.43Zm1.12,3.87,1,3.29-.68.51-7.91-6.92,1.39-1.31ZM37.7,43.08,33.83,39.7l-.21-1L36.38,40,39,41.84Zm-10.34,22L25.2,66.71l-.31-8.22Zm-1.55-7,1.89-.4L34.06,60l-5.87,4.45Zm9.37,2.32,1.84.67,1.62,8.25-7,4.38-3.1-8.28Zm5.65,20L42,86.26,35.89,85l-1-2.75Zm1.36,6.92.14.71-4.48,2.21L36.3,86.13ZM42.53,89l.17.85L40.5,97.35,38.2,91.19Zm4.57-10.61,6.11-1.92.46,5.91-8.9,4.39-.13,0Zm6.66,5.07.41,5.22-7.78-1.58Zm.36-8.32L54,74.31l.24.83Zm.45.91L56,81.26l-1.42.7-.45-5.74Zm2.69,5.69,5.27-2.6-3.72,7.95Zm6.71-3.31,5.92-2.92L67.5,91.45l-7.93-1.61-.36-1.24Zm3.41,14-2.39,16L59.89,90.92Zm-1.91,22.21h.27l.28,1-.93.29Zm.28-4.46,2.61-17.54,2.45.5Zm2.76-18.53L71,75l1.11-.55,3.39,3L71.08,92.17ZM76,79l4.22,15-8.19-1.66Zm1-.22L84.14,85,82,94.4l-.67-.14Zm4.8,16.57-.06.28-.09-.31Zm0,4.35.5,1.77-1.43,2.37Zm.87,3.09,2,6.94-5.47,1.72,1-4.53Zm2.22,7.9.69,2.44-.31.93-6.68-.15.3-1.34Zm2.84-.89L95,107.55l-3.9,6.68-4.18-.1-.27-.94Zm.39-1.17,3.71-11.24,1.47.3,3.93,6-1.51,2.59Zm9.72-4.05.54.82-1.25.39Zm-.05-1.89L94.73,98,100,99.06ZM93.65,92l3-9.22.24.09,8.81,6.25-5.2,8.92Zm6.84-7.83,6.71,2.45-1,1.64Zm6.07,5.53.75.53-3.17,8.63-2.61-.53Zm.51-.87L108.16,87l.31.11-.8,2.18Zm-4.8-18.41,4.32-7.15,8.93,4.59-2.78,7.58Zm14.15-2.1,1.11.57L114,75.06Zm.67-11.85,3-.93-2.27,6.19-.06,0Zm4.6-2.49,1.6-4.34,2.19,3.16Zm-5.21-2.57L116,47.7l2.75-4.55,3.7,5.34Zm2.24-10.14-1.86-2.69,4-.85Zm-.57.94-2.32,3.84L115,39l.82-.18ZM114.85,38l-.08-.66.41.59Zm.14,9.45-4.05,6.71-.25.12-3.21-4.18,3.37-10.22,3.14-.67ZM110.08,39l-9.53,2-4.23-5.51.33-1.44,11.08-6.95L112,33.32Zm-3.49-15.27,2.87,1.15-1.45.91Zm.57,2.59L97,32.76,99.62,21l5.29,2.12ZM98.9,19.61l-4.68-1.87.48-1.6,5,.07Zm-4.73-5.2-.33.25.69-1.47Zm-.23,4.28,4.74,1.9L95.77,33.5l-.69.44L91,28.62Zm-.65-1.34-.6-.24.24-.51.65-.49h.08Zm-.29,1-2.77,9.31-1.54-2L92.27,18Zm-1.68-1.75-1.27-.51,1.9,0Zm-.93.7-5.12,3.88-4-5.22,6,.09Zm-9.9-2.35-.5-.66.16-1.1L84.68,15Zm-.5,1,4.48,5.84-6.31,4.78,1.58-10.63Zm-.85-2.76-.44-.57.49.2Zm-.2,1.38-.05.36-9.82-.14,4.48-4.24,3.34,1.34Zm-.2,1.36L77,27.41l-.28.21L65.43,18.21,68,15.75ZM65.06,17.18l.43-1.47,1.11,0ZM75.93,28.25,65.1,36.45l-2.79-9.92,2.18-7.45.2-.19ZM64,17.06l-1.68-1.4,2.08,0Zm-.31,1-.13.44-2.8,2.65-1.57-5.58,1.53,0ZM59,14.62,58.79,14l.77.64ZM60,22l-9.34,8.84L49.45,15.48l8.75.13ZM43.42,37.66l-3.22,3-3.31-1.59L33.2,36.49,30.82,24.38l10.3,5.29Zm-10.82,1-1.16-1,1.06.51Zm-4-3.46-4-3.53,6.94,4.92Zm-3.36-1.61-1.35-.65,0-.55Zm-1.06,33.9-1.94,1.47-2.65-7.37,2.93-2.78,1.31-.28Zm-5-6.93-.35-1,1.77-.38Zm2.54,10,2.74,7.62L19,81.6l-4.52-.92-1.15-3.77Zm-4,11.84-1.49.93-1-1.44Zm-1.76,2.29,1.41,2-1,.32-.66-2.17Zm2,2.88,6.48,9.26L20.11,99,16.75,88Zm1-.31L24.9,85.4l.4,10.72Zm6.17-19.3L27.72,66l3.07,8.19L25.6,77.49Zm.52,10.65,5.38-3.38,2.41,6.44L27.92,83.4l-.46-.09ZM28,84.43l7.17,1.46,1.8,4.8-5.8,2.86-3.26-9.09Zm12.65,16.08,4.74,12.67L38.13,113l-.65-1.81Zm5.12,13.68.17.45-.48,1-6.6-.72L38.5,114ZM41.09,98.92l2-6.89,4,20.13-.5,1.06h-.14Zm6.11,15.31h.28l.33,1.69-.38,0-.45-1.2Zm.59-3.61L43.72,89.94l.51-1.73.68-.33,9.33,1.9.47,6.07ZM48,117l.2,1-.38-1Zm.1-4.68,6.75-14.41,1.21,15.56-7.77-.18Zm8,2.15.19,2.43L48.86,116l-.35-1.78Zm.27,3.45.06.74-6.7,2.11-.72-3.66Zm8.26-.66,0-.14,1.55-.49.41,1.41-2.08-.23Zm1.79-3.55-.36-1.25,5.67-19.08,8.78,1.78.73,2.58-2,8.86-3.64,6-3.78,1.19Zm12.11-4-.49,2.17-1,.32Zm-9.7,5.07-1.93.61-.19-.66Zm6.54.15,2,0-.94,4.16-3.35-.37Zm.6-1,.27-.45,1.54-.49-.22,1Zm2.39,1.05,6.57.15-1.57,4.75-6-.65Zm7.62.17h.14l1.44,5.12,0,.05-3.14-.34Zm1.18,0,3.33.08L88.31,119Zm4.47.1,6.4.15-2.14,5.83-7.25-.79v0Zm.58-1,4.17-7.15,2.57-.81,1.55,2.35-2.11,5.75Zm9-4.57,3.2,4.85-4.94-.11Zm-.26-2.2-1-1.5,1.74-.55Zm-1.56-2.37-1-1.47,2.34-4,2.33,2-1,2.59Zm2.77-5.59,1.6.32-.3.81Zm1.73,2.85,1.12,1-1.67.53Zm.37-1,.48-1.31,6.53,1.33L106.17,103Zm.83-2.26,3-8.23,10.94,7.75-.23.38-5.58,1.75Zm4.62-12.58L112,80.42l1.91-3.28,5,2.38,1.31,10.79Zm4.66-10.24,3.37-5.77.95,7.84Zm3.8-10.51.66.87-.46.79Zm-.16-1.85.18-.48,1.69,1.41-.5.86Zm1.48,3.57,1.69,2.21-2.29-1.18Zm.54-.93.62-1.06,9.25,7.69-.17.9-6.47-3.32Zm9.47,14,.28.37-.51.84Zm3.6,4.7-3.71-1.78,1-1.71ZM130.39,80l-.58-.76.7-3.65,2,1ZM133,75.74l-2.28-1.17.13-.65,2.16,1.8Zm3.9-6.42-3.36,5.54L131,72.8l1.79-9.33Zm-2.7-18.17-1.88,9.79-4.85-7,.48-.82Zm-2.81-5.93-4.11,7.05-.78.25L124,48.88Zm-4.29-8.78L123,47.52l-3.67-5.31,2.86-4.73Zm-2.2-5.33-3.31,5.48-5.32,1.14-1.72-2.49-.57-4.72,1.11-3.35Zm-11.22-2.92-.2-1.66.66.26Zm2-6-1.19,3.61-1.11-.45-.19-1.6Zm-2.42,10.52.09.72-.22-.32Zm.34,2.85.32,2.63-2.66.57,1.47-4.46Zm-.63-5.18-.56,1.71-3.79-5.47,2-1.27,1.8.72Zm-.73-6,.07.59-.62-.25Zm-1-8,.84,6.91-1.56,1-4.95-2-4.19-6.05Zm-7.35,5.24-4-1.62.72-3.18ZM101,10.53l-.87,3.84-1.44-2.09ZM99.44,15.2,95,15.14,95,15l2.81-2.13Zm-3.12-4.52,1,1.38L95.51,13.4ZM93.06,6,95.29,9.2l-2.76,5.9L87.47,15l-7.16-2.87.78-5.28Zm-12.54-2-.3,2-2,.15ZM77.08,7.18l3-.23-.72,4.82L77.51,11l-1.9-2.47ZM75.5,7.3,75,7.77l-.31-.4Zm-.61,2,.81,1.05-1.35-.54Zm-.61-.8-1,.9-4-1.59,4.15-.31ZM69.46,2.17,72.78,6.5l-4.7.36Zm-1.76,6,4.83,1.94-4.89,4.63-1.86,0Zm-3,6.52-3.6-.05-2.84-2.36-1-3.61L66.72,8ZM55.81,3.41,65,7.09l-8,.6Zm.46,5.35.68,2.4-2.7-2.25Zm1.15,4.1.49,1.74-8.54-.12L49,9.31,52.82,9ZM51.71,8.1l-2.82.21-.21-2.73ZM49.55,29.59,40.14,15.34l8.31.12ZM48,9.39l.4,5.08-8.9-.13-2.71-4.1Zm-19,5.8L37,15.3l3.78,13.05L30.57,23.13Zm.68,8.61L32,35.65l-8.2-5.81-.35-9.23Zm-14.45,6L23,33.54l.7,18.81Zm8.55,26.41-1.69,1.6-3.51.75-1.75-4.88ZM10.38,38.73,15.17,52l-4.65-1.69Zm.15,12.69,5.07,1.85,2,5.54-7,1.49Zm.12,9.89,7.29-1.56.54,1.51L10.83,68.5l-.1-.33Zm.12,10.44,1.46,4.79-.41.31-1-1.43Zm.06,5.45.18.26-.18.14Zm0,1.64.74-.56,1.47,2.1-2.2-.45Zm0,2.12,2.87.58.86,2.84-3.67,2.3ZM11,87.85l4-2.48.59,1.92L11,88.72Zm.18,15.57L11,94.76l5.28,6.11ZM11,93.21l0-3.45,4.81-1.51L19.2,99.44l-1.95,1Zm6.9,8,1.57-.77,1.21,4ZM20.4,100l4.73-2.34.23.33.46,12.36-3.51-4.06ZM23,108.62l2.85,3.3,0,.82-1.64,0Zm1.76,5.78,1.19.13.16,4.31Zm1.09-29.32,1-.32L30.24,94l-3.95,1.95ZM26.33,97l4.24-2.09,5.85,16.3-.16.55L26.36,97.63ZM28,112.79l-1.09-1.26-.45-12.06L35.87,113Zm.88,1,6.79.15-.18.61-6.58-.72Zm1,1.15,5.33.58-1.22,4.16Zm3.32,11,1.23-4.21,2.6,3Zm1.57-5.35,1.45-5,1.7.19.42.59,2.55,7.1-2.82.89Zm5.44,6.28-1.42-1.64,2.44-.77,0,.13Zm3.23,3.73-2.52-2.91.83-1.78Zm-1.51-7.41-.08,0-1.32-3.68,1.87,2.67Zm1-2L39.21,116l5.77.63Zm.66.94L46,116.74l.69.08,1.63,4.37-4.52,1.42Zm.93,1.33,4.27-1.34L49.4,124l1.8,9.15Zm10.28,11.88L50.36,123.7l-.39-2,6.59-2.07,1.19,15.3Zm4-1.42-1.14-14.58,3.15-1,2.53.28Zm.81.79L62.66,124,61.1,134.5Zm3-.39-.37,0,2.32-15.61L67,119l1.54,5.32Zm1.27-.17,5.13-8.49,2.18,7.53Zm9,1.26-.4-1.38.73-.1Zm.57-2.51-1.25.16-2.48-8.57,2.93-4.85,3.69.41Zm1.06-.14,2.84-12.6,5.87.64-3.73,11.31Zm5.69.38,0-.12h0Zm.71-1.22-.32,0,3.65-11.05,2.91.32Zm1.25-.16L88,121.58l2.55,9.08ZM92,132l-.15-.54.37,0Zm.61-1.65-1,.14L89,121.45l6.6.72Zm7.86-1-6.74.88,2.92-8,7.61.83Zm4.36-7.18L97,121.32l2.17-5.91,6,.14,1.93,2.92Zm5.07.56-4-.44,1.77-2.91Zm-2.24-5.21-1.29-2,2.44.06Zm1.75-2.88-3.71-.08-4-6,1.27-3.46,3-.94,6.42,5.62Zm8.82.2-7.67-.17,2.59-4.27Zm-5.32-6-5.83-5.1,6.29-2,3.41.69Zm4.43-7.29-2-.4,2.77-.87Zm1,.21,1.18-1.94.89-.28,1,.68.27,2.21Zm3.33-7.41-.31-2.56,1.53.56Zm1.63,13.46-.5-4.12L124,104Zm.93-4.85-1.56-.32-.2-1.64,1.88,1.33Zm.33-1.71-2.25-1.59-.08-.69,2.94-.93Zm1.08,2-.43-.09,0-.19Zm-.25-6.32-3.28,1-.24-2,2-3.26,2.2.8Zm5.4-1.7-4.32,1.36.53-2.74Zm-4.55-2.72-1.86-.68,2.91-4.8Zm1.59-8.3-4.41,7.27-2.19-.8L119.94,80l8,3.82Zm.27-1.39-8.3-4-1.13-9.35,4,2,6.09,7.94Z"/></g></g></svg>