<svg xmlns="http://www.w3.org/2000/svg" viewBox="0 0 27.42 27.42"><defs><style>.cls-1{fill:#fff;}</style></defs><title>Asset 11</title><g id="Layer_2" data-name="Layer 2"><g id="svg_art" data-name="svg art"><path class="cls-1" d="M13.71,27.42A13.71,13.71,0,1,1,27.42,13.71,13.73,13.73,0,0,1,13.71,27.42ZM13.71,1A12.71,12.71,0,1,0,26.42,13.71,12.73,12.73,0,0,0,13.71,1Z"/><path class="cls-1" d="M13.71,24.24A10.53,10.53,0,1,1,24.24,13.71,10.54,10.54,0,0,1,13.71,24.24Zm0-20.05a9.53,9.53,0,1,0,9.53,9.53A9.54,9.54,0,0,0,13.71,4.19Z"/><path class="cls-1" d="M13.71,22A8.27,8.27,0,1,1,22,13.71,8.28,8.28,0,0,1,13.71,22Zm0-13.54A5.27,5.27,0,1,0,19,13.71,5.28,5.28,0,0,0,13.71,8.44Z"/><path class="cls-1" d="M13.71,17.84a4.13,4.13,0,1,1,4.13-4.13A4.13,4.13,0,0,1,13.71,17.84Zm0-5.25a1.13,1.13,0,1,0,1.13,1.13A1.13,1.13,0,0,0,13.71,12.59Z"/></g></g></svg>