<svg xmlns="http://www.w3.org/2000/svg" viewBox="0 0 120.31 145.33"><defs><style>.cls-1{fill:#fff;}</style></defs><title>Asset 10</title><g id="Layer_2" data-name="Layer 2"><g id="svg_art" data-name="svg art"><path class="cls-1" d="M19,110.91a6.53,6.53,0,1,0,6.53,6.53A6.53,6.53,0,0,0,19,110.91ZM19,123a5.53,5.53,0,1,1,5.53-5.53A5.53,5.53,0,0,1,19,123Z"/><path class="cls-1" d="M74.71,137.32a4,4,0,1,0,4,4A4,4,0,0,0,74.71,137.32Zm0,7a3,3,0,1,1,3-3A3,3,0,0,1,74.71,144.33Z"/><path class="cls-1" d="M14.11,94.6a3.57,3.57,0,1,0-3.57,3.57A3.57,3.57,0,0,0,14.11,94.6Zm-3.57,2.57a2.57,2.57,0,1,1,2.57-2.57A2.57,2.57,0,0,1,10.54,97.17Z"/><path class="cls-1" d="M116.37,43.58a3.94,3.94,0,1,0-3.94-3.94A3.94,3.94,0,0,0,116.37,43.58Zm0-6.87a2.94,2.94,0,1,1-2.94,2.94A2.94,2.94,0,0,1,116.37,36.71Z"/><path class="cls-1" d="M80.82,9.84A4.92,4.92,0,1,0,75.9,4.92,4.93,4.93,0,0,0,80.82,9.84Zm0-8.84A3.92,3.92,0,1,1,76.9,4.92,3.92,3.92,0,0,1,80.82,1Z"/><path class="cls-1" d="M19,30.16a4.39,4.39,0,1,0-4.39-4.39A4.39,4.39,0,0,0,19,30.16Zm0-7.77a3.39,3.39,0,1,1-3.39,3.39A3.39,3.39,0,0,1,19,22.39Z"/><path class="cls-1" d="M15.86,46.73a4.39,4.39,0,1,0-4.39-4.39A4.39,4.39,0,0,0,15.86,46.73Zm0-7.77a3.39,3.39,0,1,1-3.39,3.39A3.39,3.39,0,0,1,15.86,39Z"/><path class="cls-1" d="M10.29,66.58a5.15,5.15,0,1,0-5.15,5.15A5.15,5.15,0,0,0,10.29,66.58ZM5.15,70.72a4.14,4.14,0,1,1,4.15-4.15A4.15,4.15,0,0,1,5.15,70.72Z"/><path class="cls-1" d="M109.59,110.91a3.51,3.51,0,1,0,3.51,3.51A3.52,3.52,0,0,0,109.59,110.91Zm0,6a2.51,2.51,0,1,1,2.51-2.51A2.52,2.52,0,0,1,109.59,116.94Z"/><path class="cls-1" d="M119.9,63.36A19.94,19.94,0,0,0,101.33,43.5a5.54,5.54,0,1,0-5.91-9.27,7.4,7.4,0,1,0-14-4.73,12.7,12.7,0,0,0-25.27,1.6A9.74,9.74,0,1,0,45.87,43a15.92,15.92,0,0,0-5.68,3.55A8.72,8.72,0,1,0,23.88,48a4.24,4.24,0,0,0-2.23-.64A4.29,4.29,0,1,0,24,55.18a6.1,6.1,0,0,0-1,2.86,5.15,5.15,0,1,0-4.29,8.26A14.71,14.71,0,0,0,26,93.06a6,6,0,1,0,1.71,0,14.61,14.61,0,0,0,5.43-1.25,4.65,4.65,0,0,0-1.11,3,4.7,4.7,0,0,0,4.69,4.69,9.33,9.33,0,1,0,11,12.38,12.63,12.63,0,0,0,24.73,5.14,11.23,11.23,0,1,0,20.41-9.22,9.29,9.29,0,1,0,10.94-14.42,5.27,5.27,0,0,0,3.94-5.27A6.18,6.18,0,1,0,112,79.22,19.89,19.89,0,0,0,119.9,63.36ZM92.69,94.64a4.4,4.4,0,1,1,4.4-4.4A4.41,4.41,0,0,1,92.69,94.64ZM98,91.25a5.28,5.28,0,0,0,1.37,1.38,9.24,9.24,0,0,0-2,.35A5.36,5.36,0,0,0,98,91.25Zm-.13-5.7a5.27,5.27,0,0,0-.66,1.74,5.39,5.39,0,0,0-9.17.23A16.85,16.85,0,0,0,72,70.77a4.67,4.67,0,1,0-5.94-7.19,15.79,15.79,0,0,0,1.06-5.67c0-.07,0-.14,0-.22a7.47,7.47,0,0,0,13.22,2.14A19.84,19.84,0,0,0,100,83.29c.31,0,.62,0,.93,0A5.24,5.24,0,0,0,97.87,85.55Zm-54.59-5a5.89,5.89,0,1,1,5.89,5.89A5.89,5.89,0,0,1,43.28,80.59ZM55.05,94.48a6.41,6.41,0,1,1-6.41-6.41A6.42,6.42,0,0,1,55.05,94.48Zm-4.48-7.14a6.89,6.89,0,0,0,4-2.53,15.41,15.41,0,0,0,0,5.23A7.42,7.42,0,0,0,50.57,87.33Zm4.79.24A15.84,15.84,0,1,1,71.2,103.41,15.86,15.86,0,0,1,55.36,87.57Zm14-16.9A3.69,3.69,0,1,1,73,67,3.69,3.69,0,0,1,69.31,70.66ZM90.56,45.44a2.94,2.94,0,1,1,2.94-2.94A2.94,2.94,0,0,1,90.56,45.44Zm.79-6.79a7.42,7.42,0,0,0,2.24-1.51,5.45,5.45,0,0,0,.07,3A3.93,3.93,0,0,0,91.36,38.65Zm-4.73,3.86a3.9,3.9,0,0,0,.06.61,5.61,5.61,0,1,0-9.8,5.34,7.4,7.4,0,0,0-7,1A3.8,3.8,0,0,0,68.83,44h0A12.73,12.73,0,0,0,81.3,33.87a7.41,7.41,0,0,0,7,5.39A3.93,3.93,0,0,0,86.63,42.51ZM74.3,49a6.48,6.48,0,1,1-6.48,6.48A6.49,6.49,0,0,1,74.3,49Zm2.6-3.71a4.61,4.61,0,1,1,4.61,4.61A4.62,4.62,0,0,1,76.9,45.29Zm-7.3,2a2.82,2.82,0,1,1-2.82-2.82A2.82,2.82,0,0,1,69.6,47.25Zm-2.82,3.82a3.78,3.78,0,0,0,1.9-.53,7.45,7.45,0,0,0-1.83,4.24,15.75,15.75,0,0,0-1.37-4A3.77,3.77,0,0,0,66.78,51.07Zm15,4.2a7.45,7.45,0,0,0-1.72-4.57,5.61,5.61,0,0,0,7-6.52,3.94,3.94,0,0,0,2.66,2.15A20,20,0,0,0,81.77,55.27ZM94.39,41.62A5.57,5.57,0,0,0,97,43.68a19.8,19.8,0,0,0-3,.66,3.74,3.74,0,0,0,.37-2.72ZM99,33.94a4.55,4.55,0,1,1-4.55,4.55A4.55,4.55,0,0,1,99,33.94ZM88.41,25.46a6.4,6.4,0,1,1-6.4,6.4A6.41,6.41,0,0,1,88.41,25.46ZM68.84,19.61A11.71,11.71,0,1,1,57.13,31.33,11.73,11.73,0,0,1,68.84,19.61ZM37.9,33.26A8.75,8.75,0,1,1,46.64,42,8.75,8.75,0,0,1,37.9,33.26Zm18.47.48a12.74,12.74,0,0,0,9.3,9.88A3.81,3.81,0,0,0,63,47.18,15.84,15.84,0,0,0,51.27,42l-.39,0A9.74,9.74,0,0,0,56.36,33.74ZM51.27,43a14.9,14.9,0,1,1-14.9,14.9A14.92,14.92,0,0,1,51.27,43ZM31.78,36.58a7.72,7.72,0,1,1-7.72,7.72A7.73,7.73,0,0,1,31.78,36.58ZM24.06,58.49a5.14,5.14,0,1,1,5.14,5.15A5.15,5.15,0,0,1,24.06,58.49Zm1.32-4.8a4.07,4.07,0,0,0,.43-3,8.73,8.73,0,0,0,2.71,1.74A6.11,6.11,0,0,0,25.38,53.69Zm-3.73,1.22a3.29,3.29,0,1,1,3.29-3.29A3.29,3.29,0,0,1,21.65,54.91Zm-6.82,6.25A4.16,4.16,0,1,1,19,65.32,4.17,4.17,0,0,1,14.83,61.16Zm9.25.73A6.19,6.19,0,0,0,26,63.73a14.61,14.61,0,0,0-2.91.52A5.11,5.11,0,0,0,24.09,61.89ZM13.44,78.4A13.72,13.72,0,1,1,27.16,92.12,13.74,13.74,0,0,1,13.44,78.4ZM31.69,99a5,5,0,1,1-5-5A5,5,0,0,1,31.69,99ZM41.89,78.4A14.74,14.74,0,0,0,31.28,64.27,6.13,6.13,0,0,0,32,53a8.66,8.66,0,0,0,4.78-1.56,15.88,15.88,0,0,0,27.93,15,4.6,4.6,0,0,0-.06.57,4.68,4.68,0,0,0,2.68,4.22A16.89,16.89,0,0,0,56,80.28a6.88,6.88,0,1,0-8.78,6.92,7.42,7.42,0,0,0-6,6.6,4.62,4.62,0,0,0-5.39-3.56A14.7,14.7,0,0,0,41.89,78.4ZM33,94.84a3.69,3.69,0,1,1,3.69,3.69A3.7,3.7,0,0,1,33,94.84Zm5.92,22.09a8.34,8.34,0,1,1,8.34-8.34A8.35,8.35,0,0,1,38.93,116.94Zm0-17.68c-.28,0-.55,0-.82,0a4.68,4.68,0,0,0,3.21-3.74A7.4,7.4,0,0,0,56,94.85,16.93,16.93,0,0,0,62.5,102a12.6,12.6,0,0,0-14.38,8.25,9.29,9.29,0,0,0-9.19-11ZM60,126a11.63,11.63,0,1,1,11.63-11.63A11.65,11.65,0,0,1,60,126Zm22.87-2.58a10.24,10.24,0,1,1,10.24-10.23A10.25,10.25,0,0,1,82.91,123.41Zm0-21.47A11.24,11.24,0,0,0,72,110.41a12.69,12.69,0,0,0-4.92-6.52A16.74,16.74,0,0,0,87.5,91.72a5.41,5.41,0,0,0,5.19,3.92l.4,0a9.24,9.24,0,0,0-1.39,10.59A11.21,11.21,0,0,0,82.91,101.94Zm25.32,0a8.3,8.3,0,1,1-8.3-8.3A8.31,8.31,0,0,1,108.24,101.9Zm-2.18-11.35a4.29,4.29,0,1,1,.51-3.25A4.26,4.26,0,0,1,106.05,90.54Zm12.26-5.26a5.17,5.17,0,1,1-5.17-5.17A5.18,5.18,0,0,1,118.31,85.29Zm-11.35,0c0,.14,0,.27,0,.41a5.31,5.31,0,0,0-4-2.65,19.74,19.74,0,0,0,5.38-1.61A6.14,6.14,0,0,0,107,85.29Zm-7-3A18.93,18.93,0,1,1,118.9,63.36,19,19,0,0,1,100,82.29Z"/></g></g></svg>