<svg xmlns="http://www.w3.org/2000/svg" viewBox="0 0 29.78 30.06"><defs><style>.cls-1{fill:#fff;}</style></defs><title>Asset 2</title><g id="Layer_2" data-name="Layer 2"><g id="svg_art" data-name="svg art"><polygon class="cls-1" points="29.78 12.91 29.6 11.93 17.59 14.04 28.16 7.95 27.66 7.08 17.09 13.18 24.93 3.84 24.17 3.19 16.33 12.54 20.5 1.08 19.56 0.73 15.39 12.2 15.39 0 14.39 0 14.39 12.2 10.22 0.73 9.28 1.08 13.45 12.54 5.61 3.19 4.84 3.84 12.68 13.18 2.12 7.08 1.62 7.95 12.18 14.04 0.17 11.93 0 12.91 12.01 15.03 0 17.15 0.17 18.13 12.18 16.02 1.62 22.11 2.12 22.98 12.68 16.88 4.84 26.22 5.61 26.86 13.45 17.52 9.28 28.98 10.22 29.32 14.39 17.86 14.39 30.06 15.39 30.06 15.39 17.86 19.56 29.32 20.5 28.98 16.33 17.52 24.17 26.86 24.93 26.22 17.09 16.88 27.66 22.98 28.16 22.11 17.59 16.02 29.6 18.13 29.78 17.15 17.77 15.03 29.78 12.91"/></g></g></svg>