<svg id="Layer_1" data-name="Layer 1" xmlns="http://www.w3.org/2000/svg" viewBox="0 0 188 64">
  <defs>
    <style>
      .cls-1 {
        fill: #272425;
      }
    </style>
  </defs>
  <title>Chinese</title>
  <g>
    <path class="cls-1" d="M34.78,37.26a24.3,24.3,0,0,0,1.13,4.5c-6.3,5.49-7.47,6.66-8.1,7.65A18.12,18.12,0,0,0,25,45.59a7.3,7.3,0,0,0,2.38-5V27H23V21.92h9V39.56ZM30.5,19.35a58.6,58.6,0,0,0-6-7.87L28,8.69a58,58,0,0,1,6.25,7.47ZM49.45,45c0,2.16-.36,3.33-1.71,4.09s-3.15.85-5.8.85a15,15,0,0,0-1.44-4.27,34.53,34.53,0,0,0,3.82,0c.54,0,.72-.18.72-.72v-7.2A34.2,34.2,0,0,1,36.4,48.38a29.56,29.56,0,0,0-3-3.46,26.25,26.25,0,0,0,7.79-9.13H34.1V31.37h2.12V13.14h4.09a43.26,43.26,0,0,0,1.13-5l5.22.76c-.58,1.44-1.21,2.92-1.84,4.27h4.63ZM45,17.28h-4.5v2.07H45ZM40.54,23v2.2H45V23Zm0,8.32H45V28.94h-4.5Zm12.24,5.26A50.19,50.19,0,0,0,49.85,26.1l3.87-1.17a47.45,47.45,0,0,1,3.2,10.39ZM64.57,22.32H62V44.46c0,2.47-.45,3.69-1.89,4.5s-3.56.94-6.48.94a19.47,19.47,0,0,0-1.75-4.63c1.94.09,3.78.09,4.46.09s.86-.22.86-.9V22.32H50.53V17.37h6.71V8.46H62v8.91h2.52Z"/>
    <path class="cls-1" d="M80.14,37.26a24.3,24.3,0,0,0,1.13,4.5c-6.3,5.49-7.47,6.66-8.1,7.65a18.12,18.12,0,0,0-2.79-3.82,7.3,7.3,0,0,0,2.38-5V27H68.35V21.92h9V39.56ZM75.87,19.35a58.6,58.6,0,0,0-6-7.87l3.51-2.79a58,58,0,0,1,6.25,7.47ZM94.81,45c0,2.16-.36,3.33-1.71,4.09s-3.15.85-5.8.85a15,15,0,0,0-1.44-4.27,34.53,34.53,0,0,0,3.82,0c.54,0,.72-.18.72-.72v-7.2a34.19,34.19,0,0,1-8.64,10.66,29.56,29.56,0,0,0-3-3.46,26.25,26.25,0,0,0,7.79-9.13H79.46V31.37h2.12V13.14h4.09a43.26,43.26,0,0,0,1.13-5L92,8.87c-.58,1.44-1.21,2.92-1.84,4.27h4.63ZM90.4,17.28H85.9v2.07h4.5ZM85.9,23v2.2h4.5V23Zm0,8.32h4.5V28.94H85.9Zm12.24,5.26A50.19,50.19,0,0,0,95.21,26.1l3.87-1.17a47.45,47.45,0,0,1,3.2,10.39Zm11.79-14.31h-2.52V44.46c0,2.47-.45,3.69-1.89,4.5s-3.56.94-6.48.94a19.47,19.47,0,0,0-1.75-4.63c1.94.09,3.78.09,4.46.09s.86-.22.86-.9V22.32H95.89V17.37h6.71V8.46h4.81v8.91h2.52Z"/>
    <path class="cls-1" d="M127.75,9.86a68.31,68.31,0,0,1-4.28,9.22V50h-5.13V27a43.33,43.33,0,0,1-3,3.64,34.65,34.65,0,0,0-2.88-5.58A47.37,47.37,0,0,0,122.67,8.28Zm15.93,11.25v23c0,2.56-.45,4-2.07,4.95s-3.74,1.08-6.62,1.08a18.28,18.28,0,0,0-1.84-5.4c1.89,0,3.78,0,4.41,0s.81-.18.81-.76V21.11h-5.22A38.32,38.32,0,0,1,128.92,28a37.64,37.64,0,0,0-4.32-3.51c3.42-3.82,6.12-10,7.65-16.2l5.22,1.17a68.33,68.33,0,0,1-2.11,6.7h15.48l.85-.18,3.78.72c-.54,3.64-1.31,7.83-1.94,10.44L149,26.37c.23-1.39.5-3.28.72-5.26Zm-7.47,8.1a46.21,46.21,0,0,1-6.12,15,33.14,33.14,0,0,0-4.59-2.88c2.56-3.15,4.45-8.23,5.49-13.23Zm13.86-1.53A55.64,55.64,0,0,1,155,42.35l-5.13,1.75a56.93,56.93,0,0,0-4.54-14.8Z"/>
    <path class="cls-1" d="M165,43.61a2.84,2.84,0,1,1-5.67,0,2.84,2.84,0,1,1,5.67,0Z"/>
  </g>
</svg>
