<svg id="Layer_1" data-name="Layer 1" xmlns="http://www.w3.org/2000/svg" viewBox="0 0 207 64">
  <defs>
    <style>
      .cls-1 {
        fill: #272425;
      }
    </style>
  </defs>
  <title>Gracias</title>
  <g>
    <path class="cls-1" d="M50.17,29.45V41.05a21.36,21.36,0,0,1-12.24,4.09c-9.31,0-16.56-7-16.56-16S28.7,13.29,38.24,13.29a18.91,18.91,0,0,1,12.1,4.41l-3,3.91A13.69,13.69,0,0,0,38.24,18a11.19,11.19,0,1,0,0,22.36,14.68,14.68,0,0,0,7.25-2.16V29.45Z"/>
    <path class="cls-1" d="M62.9,25.76a8.7,8.7,0,0,1,8.28-4.95v4.95c-4.81-.27-7.87,2.56-8.28,6.66V44.92H57.73V21H62.9Z"/>
    <path class="cls-1" d="M89.23,42c-1.71,2.11-4.46,3.15-7.92,3.15-5.17,0-8.42-3.19-8.42-7.42s3.29-7.15,9-7.2h7.24v-.72c0-3-1.93-4.81-5.71-4.81a12.62,12.62,0,0,0-7.07,2.43l-2.11-3.6a17.53,17.53,0,0,1,10.3-3c6.16,0,9.63,3.15,9.67,8.41l0,15.7H89.23Zm0-5.49v-2.2H82.7c-3.37,0-4.95.9-4.95,3.19s1.75,3.55,4.63,3.55C86.08,41.05,88.91,39.12,89.18,36.51Z"/>
    <path class="cls-1" d="M121.31,24.72l-2.83,3.33a9,9,0,0,0-6.84-2.7c-4.14,0-7.11,3.1-7.11,7.65s3,7.65,7.11,7.65a8.92,8.92,0,0,0,7.06-2.88l2.88,2.88c-2.16,2.83-5.62,4.45-10.17,4.45-7.11,0-12.06-4.9-12.06-12.1s4.95-12.19,12.06-12.19C115.73,20.81,119.1,22.2,121.31,24.72Z"/>
    <path class="cls-1" d="M132.92,14.15a3,3,0,1,1-6,0,3,3,0,1,1,6,0Zm-5.58,30.78V21h5.13V44.92Z"/>
    <path class="cls-1" d="M154.83,42c-1.71,2.11-4.46,3.15-7.92,3.15-5.17,0-8.42-3.19-8.42-7.42s3.29-7.15,9-7.2h7.24v-.72c0-3-1.93-4.81-5.71-4.81A12.62,12.62,0,0,0,142,27.42l-2.11-3.6a17.53,17.53,0,0,1,10.3-3c6.16,0,9.63,3.15,9.67,8.41l0,15.7h-5.08Zm0-5.49v-2.2h-6.48c-3.37,0-4.95.9-4.95,3.19s1.75,3.55,4.63,3.55C151.68,41.05,154.52,39.12,154.79,36.51Z"/>
    <path class="cls-1" d="M182.73,23.19,180.84,27A14.07,14.07,0,0,0,174,24.9c-2,0-3.51.67-3.51,2.38,0,4.41,12.73,2,12.69,10.71,0,4.9-4.36,7.11-9.18,7.11a14.81,14.81,0,0,1-9.63-3.33l1.84-3.69a13,13,0,0,0,8,3c2.21,0,3.92-.76,3.92-2.56,0-4.9-12.6-2.16-12.55-10.8,0-4.86,4.23-6.93,8.82-6.93A15.13,15.13,0,0,1,182.73,23.19Z"/>
    <path class="cls-1" d="M192.63,42.32a2.84,2.84,0,1,1-5.67,0,2.84,2.84,0,1,1,5.67,0Z"/>
  </g>
</svg>
