<svg xmlns="http://www.w3.org/2000/svg" viewBox="0 0 1000 1000">
  <title>thanks_6</title>
  <g>
    <rect x="197.87" y="389.36" width="31.91" height="167.55" style="fill: #1c1a19"/>
    <path d="M263.3,615.43V586.7l8,.53c5.85,0,10.11-2.13,12.77-6.92s4.26-11.16,4.26-19.14V437.24h31.91V555.32c0,19.15-3.19,34-10.11,44.68-6.38,10.64-16.49,16-29.79,16-1.6.53-7.45,0-17-.53" style="fill: #1c1a19"/>
    <path d="M454.79,464.89,402.13,475l-2.66-11.17,11.17-2.66q-9.57-8-9.57-19.15A23.28,23.28,0,0,1,408,425c4.79-4.79,10.64-6.91,18.09-6.91,6.38,0,12.23,2.13,18.62,5.85l-3.19,14.36c-1.06-.53-2.13-1.6-4.26-2.13a19.12,19.12,0,0,0-5.85-1.06c-3.72,0-6.91,1.06-9,3.72a12.55,12.55,0,0,0-3.72,8.51A12.94,12.94,0,0,0,424.47,458l26.06-6.91Zm55.32-75.53V556.91H414.89q-20.74,0-35.11-3.19c-9.57-2.13-17.55-6.38-23.94-13.3s-9.57-16.49-9.57-29.79c0-11.17,2.13-24.47,5.85-41l26.6,1.6-1.06,10.11c-1.6,11.7-2.13,18.62-2.13,21.81,0,16.49,11.7,24.47,35.64,24.47h67V389.36Z" style="fill: #1c1a19"/>
    <path d="M729.79,386.17h24.47v28.72H729.79Zm-17.55-33h22.87v26.6H712.23Zm-19.15,33h24.47v28.72H693.09Zm104.79,81.91A162.84,162.84,0,0,1,800,490.43v66.49H750.53a52.22,52.22,0,0,1-15.43-2.66c-4.79-1.6-9-3.72-11.7-6.38a34.27,34.27,0,0,1-23.94,9H677.66v9.57c0,8-2.66,16-7.45,23.4S658,603.72,647.34,609c-10.64,4.79-23.4,7.45-38.83,7.45-17.55,0-31.38-3.19-41-9-10.11-5.85-17-13.3-20.74-21.81s-5.85-17-5.85-25c0-10.64,3.72-34,10.64-70.21l30.32,1.6q-9.57,51.86-9.57,63.83a29,29,0,0,0,3.72,14.36,32.12,32.12,0,0,0,11.7,12.23c5.32,3.19,12.77,4.79,21.28,4.79A47.2,47.2,0,0,0,629.26,583,36,36,0,0,0,642,572.34c3.19-4.26,4.26-9.57,4.26-14.36v-109h31.91v78.72h11.17a16,16,0,0,0,13.83-7.45C706.38,515.43,708,509,708,501.6V448.94h31.91V501.6a90.67,90.67,0,0,1-2.66,21.81,28.84,28.84,0,0,0,5.85,3.19c2.13,1.06,4.79,1.06,6.91,1.06h18.09v-33c0-10.11,0-18.62-.53-26.06-.53-6.91-1.06-17.55-2.13-30.85l28.19-1.06c1.06,10.64,2.66,20.74,4.26,31.38" style="fill: #1c1a19"/>
    <path d="M172.45,543.08c0,9.58-6.38,16-14.89,16s-14.9-6.91-14.9-16,6.39-15.42,14.9-15.42,14.89,6.38,14.89,15.42" style="fill: #221f20"/>
  </g>
</svg>
