<svg id="Layer_1" data-name="Layer 1" xmlns="http://www.w3.org/2000/svg" viewBox="0 0 188 64">
  <defs>
    <style>
      .cls-1 {
        fill: #272425;
      }
    </style>
  </defs>
  <title>Merci.</title>
  <g>
    <path class="cls-1" d="M60.45,46.1l0-23.53L50.46,42.82H47L37.05,22.57V46.1h-5V14.61h6.3L48.75,35.53,59.1,14.61h6.25V46.1Z"/>
    <path class="cls-1" d="M94.79,36.12H76.7a7.29,7.29,0,0,0,7.42,6,9.31,9.31,0,0,0,6.75-2.79l2.75,2.92a13,13,0,0,1-9.9,4c-7.38,0-12.24-4.9-12.24-12.1S76.47,22,83.58,22C92,22,95.42,27.48,94.79,36.12Zm-4.5-3.78c-.18-3.87-2.74-6.21-6.66-6.21s-6.43,2.38-7,6.21Z"/>
    <path class="cls-1" d="M105.72,26.94A8.7,8.7,0,0,1,114,22v4.95c-4.81-.27-7.87,2.56-8.28,6.66V46.1h-5.17V22.17h5.17Z"/>
    <path class="cls-1" d="M138.35,25.9l-2.83,3.33a9,9,0,0,0-6.84-2.7c-4.14,0-7.11,3.1-7.11,7.65s3,7.65,7.11,7.65A8.92,8.92,0,0,0,135.74,39l2.88,2.88c-2.16,2.83-5.62,4.45-10.17,4.45-7.11,0-12.06-4.9-12.06-12.1S121.34,22,128.45,22C132.77,22,136.14,23.38,138.35,25.9Z"/>
    <path class="cls-1" d="M150,15.33a3,3,0,1,1-6,0,3,3,0,1,1,6,0ZM144.38,46.1V22.17h5.13V46.1Z"/>
    <path class="cls-1" d="M161.43,43.5a2.84,2.84,0,1,1-5.67,0,2.84,2.84,0,1,1,5.67,0Z"/>
  </g>
</svg>
