<svg id="Layer_1" data-name="Layer 1" xmlns="http://www.w3.org/2000/svg" viewBox="0 0 188 64">
  <defs>
    <style>
      .cls-1 {
        fill: #272425;
      }
    </style>
  </defs>
  <title>Arabic</title>
  <g>
    <path class="cls-1" d="M83.62,26A38.21,38.21,0,0,1,84,30.2V42.71H74.73a8.35,8.35,0,0,1-2.86-.49A7.92,7.92,0,0,1,69.65,41a6.37,6.37,0,0,1-4.5,1.66H61v1.8a8,8,0,0,1-1.37,4.39,10.24,10.24,0,0,1-4.3,3.55A16.78,16.78,0,0,1,48,53.87a15,15,0,0,1-7.74-1.71,9.43,9.43,0,0,1-3.92-4.1,11.39,11.39,0,0,1-1.08-4.72q0-3.06,2-13.18l5.71.32q-1.85,9.72-1.84,12a6,6,0,0,0,.67,2.7A5.57,5.57,0,0,0,44,47.41a7.71,7.71,0,0,0,4,.92,8.59,8.59,0,0,0,3.78-.77,5.65,5.65,0,0,0,2.38-2A5,5,0,0,0,55,42.8V22.46h6V37.22h2.07a3,3,0,0,0,2.63-1.37,6.21,6.21,0,0,0,.92-3.53V22.46h6v9.85a17,17,0,0,1-.45,4.1,4,4,0,0,0,1.06.56,3.71,3.71,0,0,0,1.33.25H78V31.05q0-2.88-.09-4.88t-.41-5.78l5.27-.22Q83.24,23,83.62,26ZM64,10.62h4.63V16H64Zm3.6-6.21H71.9v5H67.58Zm3.24,6.21h4.64V16H70.82Z"/>
    <path class="cls-1" d="M119.6,11.21v31.5H101.73a32.13,32.13,0,0,1-6.64-.59,8.32,8.32,0,0,1-4.48-2.47A8,8,0,0,1,88.86,34a33.71,33.71,0,0,1,1.08-7.65l5,.27-.22,1.85q-.41,3.24-.41,4.14,0,4.59,6.66,4.59h12.55v-26ZM109.2,25.38l-9.85,1.93-.5-2.11,2.07-.54A4.6,4.6,0,0,1,99.17,21a4.4,4.4,0,0,1,1.33-3.2,4.56,4.56,0,0,1,3.4-1.35,6.65,6.65,0,0,1,3.51,1.08l-.58,2.7a3.06,3.06,0,0,0-1.89-.63,2.27,2.27,0,0,0-2.34,2.3,2.37,2.37,0,0,0,1.08,2l4.9-1.3Z"/>
    <path class="cls-1" d="M125.35,53.69v-5.4l1.53.09a2.68,2.68,0,0,0,2.43-1.28,6.79,6.79,0,0,0,.81-3.62V20.21h6V42.44q0,5.4-1.87,8.42a6.2,6.2,0,0,1-5.65,3Q128.05,53.87,125.35,53.69Z"/>
    <path class="cls-1" d="M142.81,11.21h6v31.5h-6Z"/>
    <path class="cls-1" d="M161,40.1a2.84,2.84,0,1,1-5.67,0,2.84,2.84,0,1,1,5.67,0Z"/>
  </g>
</svg>
