<?xml version="1.0" encoding="UTF-8" standalone="no"?>
<!DOCTYPE svg PUBLIC "-//W3C//DTD SVG 1.1//EN" "http://www.w3.org/Graphics/SVG/1.1/DTD/svg11.dtd">
<svg width="100%" height="100%" viewBox="0 0 620 50" version="1.1" xmlns="http://www.w3.org/2000/svg" xmlns:xlink="http://www.w3.org/1999/xlink" xml:space="preserve" xmlns:serif="http://www.serif.com/" style="fill-rule:evenodd;clip-rule:evenodd;stroke-linejoin:round;stroke-miterlimit:1.41421;">
    <g transform="matrix(1,0,0,1,-4565.43,-541.301)">
        <g transform="matrix(1,0,0,1,4320,0)">
            <g transform="matrix(1,0,0,1,274.226,563.666)">
                <path d="M0,0.45L0,12.059C-3.195,14.489 -7.92,16.154 -12.24,16.154C-21.555,16.154 -28.799,9.179 -28.799,0.18C-28.799,-8.82 -21.465,-15.704 -11.925,-15.704C-7.425,-15.704 -2.925,-13.994 0.18,-11.295L-2.835,-7.38C-5.265,-9.63 -8.64,-10.98 -11.925,-10.98C-18.359,-10.98 -23.399,-6.075 -23.399,0.18C-23.399,6.48 -18.314,11.385 -11.88,11.385C-9.54,11.385 -6.885,10.575 -4.635,9.225L-4.635,0.45L0,0.45Z" style="fill:rgb(35,31,32);fill-rule:nonzero;"/>
            </g>
        </g>
        <g transform="matrix(1,0,0,1,4320,0)">
            <g transform="matrix(1,0,0,1,286.961,574.645)">
                <path d="M0,-14.219C1.619,-17.459 4.499,-19.169 8.279,-19.169L8.279,-14.219C3.465,-14.489 0.404,-11.654 0,-7.559L0,4.95L-5.175,4.95L-5.175,-18.989L0,-18.989L0,-14.219Z" style="fill:rgb(35,31,32);fill-rule:nonzero;"/>
            </g>
        </g>
        <g transform="matrix(1,0,0,1,4320,0)">
            <g transform="matrix(1,0,0,1,313.24,564.117)">
                <path d="M0,7.064L0,4.859L-6.479,4.859C-9.854,4.859 -11.429,5.759 -11.429,8.054C-11.429,10.214 -9.674,11.609 -6.794,11.609C-3.104,11.609 -0.27,9.674 0,7.064M0.046,12.554C-1.664,14.669 -4.409,15.704 -7.874,15.704C-13.049,15.704 -16.289,12.509 -16.289,8.279C-16.289,3.914 -13.004,1.124 -7.244,1.079L0,1.079L0,0.359C0,-2.656 -1.935,-4.456 -5.714,-4.456C-8.009,-4.456 -10.395,-3.645 -12.779,-2.026L-14.894,-5.625C-11.564,-7.605 -9.134,-8.64 -4.589,-8.64C1.575,-8.64 5.04,-5.49 5.085,-0.226L5.13,15.479L0.046,15.479L0.046,12.554Z" style="fill:rgb(35,31,32);fill-rule:nonzero;"/>
            </g>
        </g>
        <g transform="matrix(1,0,0,1,4320,0)">
            <g transform="matrix(1,0,0,1,345.37,575.861)">
                <path d="M0,-16.469L-2.835,-13.139C-4.5,-14.849 -6.795,-15.884 -9.675,-15.839C-13.814,-15.839 -16.784,-12.734 -16.784,-8.189C-16.784,-3.645 -13.814,-0.54 -9.675,-0.54C-6.66,-0.54 -4.229,-1.53 -2.61,-3.419L0.27,-0.54C-1.89,2.295 -5.354,3.915 -9.899,3.915C-17.01,3.915 -21.959,-0.99 -21.959,-8.189C-21.959,-15.434 -17.01,-20.384 -9.899,-20.384C-5.58,-20.384 -2.205,-18.989 0,-16.469" style="fill:rgb(35,31,32);fill-rule:nonzero;"/>
            </g>
        </g>
        <g transform="matrix(1,0,0,1,4320,0)">
            <g transform="matrix(1,0,0,1,0,-2348.08)">
                <path d="M351.401,2903.73L356.531,2903.73L356.531,2927.67L351.401,2927.67L351.401,2903.73ZM356.98,2896.89C356.98,2898.69 355.676,2900 353.966,2900C352.256,2900 350.951,2898.69 350.951,2896.89C350.951,2895.05 352.256,2893.74 353.966,2893.74C355.676,2893.74 356.98,2895.05 356.98,2896.89" style="fill:rgb(35,31,32);fill-rule:nonzero;"/>
            </g>
        </g>
        <g transform="matrix(1,0,0,1,4320,0)">
            <g transform="matrix(1,0,0,1,378.85,564.117)">
                <path d="M0,7.064L0,4.859L-6.479,4.859C-9.854,4.859 -11.429,5.759 -11.429,8.054C-11.429,10.214 -9.674,11.609 -6.794,11.609C-3.104,11.609 -0.27,9.674 0,7.064M0.046,12.554C-1.664,14.669 -4.409,15.704 -7.874,15.704C-13.049,15.704 -16.289,12.509 -16.289,8.279C-16.289,3.914 -13.004,1.124 -7.244,1.079L0,1.079L0,0.359C0,-2.656 -1.935,-4.456 -5.714,-4.456C-8.009,-4.456 -10.395,-3.645 -12.779,-2.026L-14.894,-5.625C-11.564,-7.605 -9.134,-8.64 -4.589,-8.64C1.575,-8.64 5.04,-5.49 5.085,-0.226L5.13,15.479L0.046,15.479L0.046,12.554Z" style="fill:rgb(35,31,32);fill-rule:nonzero;"/>
            </g>
        </g>
        <g transform="matrix(1,0,0,1,4320,0)">
            <g transform="matrix(1,0,0,1,406.795,577.346)">
                <path d="M0,-19.484L-1.891,-15.659C-4.005,-16.964 -6.66,-17.774 -8.775,-17.774C-10.8,-17.774 -12.285,-17.099 -12.285,-15.389C-12.285,-10.979 0.449,-13.364 0.404,-4.68C0.404,0.225 -3.96,2.43 -8.775,2.43C-12.285,2.43 -16.02,1.26 -18.404,-0.9L-16.56,-4.589C-14.49,-2.744 -11.16,-1.62 -8.55,-1.62C-6.345,-1.62 -4.635,-2.385 -4.635,-4.184C-4.635,-9.089 -17.234,-6.344 -17.189,-14.984C-17.189,-19.844 -12.96,-21.914 -8.37,-21.914C-5.355,-21.914 -2.16,-21.014 0,-19.484" style="fill:rgb(35,31,32);fill-rule:nonzero;"/>
            </g>
        </g>
        <g transform="matrix(1,0,0,1,4320,0)">
            <g transform="matrix(1,0,0,1,416.694,577.076)">
                <path d="M0,-0.09C0,1.665 -1.215,2.925 -2.834,2.925C-4.454,2.925 -5.669,1.665 -5.669,-0.09C-5.669,-1.8 -4.454,-3.015 -2.834,-3.015C-1.215,-3.015 0,-1.8 0,-0.09" style="fill:rgb(35,31,32);fill-rule:nonzero;"/>
            </g>
        </g>
        <g transform="matrix(1,0,0,1,4320,0)">
            <g transform="matrix(1,0,0,1,463.628,548.097)">
                <path d="M0,31.499L-0.045,7.965L-9.989,28.214L-13.454,28.214L-23.398,7.965L-23.398,31.499L-28.394,31.499L-28.394,0L-22.094,0L-11.699,20.925L-1.35,0L4.905,0L4.905,31.499L0,31.499Z" style="fill:rgb(35,31,32);fill-rule:nonzero;"/>
            </g>
        </g>
        <g transform="matrix(1,0,0,1,4320,0)">
            <g transform="matrix(1,0,0,1,493.463,569.425)">
                <path d="M0,-3.599C-0.18,-7.469 -2.744,-9.809 -6.659,-9.809C-10.439,-9.809 -13.094,-7.424 -13.679,-3.599L0,-3.599ZM4.5,0.181L-13.589,0.181C-12.779,3.871 -9.944,6.166 -6.164,6.166C-3.555,6.166 -1.17,5.176 0.585,3.376L3.33,6.3C0.99,8.865 -2.43,10.35 -6.569,10.35C-13.949,10.35 -18.809,5.446 -18.809,-1.754C-18.809,-8.999 -13.814,-13.904 -6.704,-13.949C1.71,-13.949 5.13,-8.459 4.5,0.181" style="fill:rgb(35,31,32);fill-rule:nonzero;"/>
            </g>
        </g>
        <g transform="matrix(1,0,0,1,4320,0)">
            <g transform="matrix(1,0,0,1,508.898,574.645)">
                <path d="M0,-14.219C1.619,-17.459 4.499,-19.169 8.279,-19.169L8.279,-14.219C3.465,-14.489 0.404,-11.654 0,-7.559L0,4.95L-5.175,4.95L-5.175,-18.989L0,-18.989L0,-14.219Z" style="fill:rgb(35,31,32);fill-rule:nonzero;"/>
            </g>
        </g>
        <g transform="matrix(1,0,0,1,4320,0)">
            <g transform="matrix(1,0,0,1,541.522,575.861)">
                <path d="M0,-16.469L-2.835,-13.139C-4.5,-14.849 -6.795,-15.884 -9.675,-15.839C-13.814,-15.839 -16.784,-12.734 -16.784,-8.189C-16.784,-3.645 -13.814,-0.54 -9.675,-0.54C-6.66,-0.54 -4.229,-1.53 -2.61,-3.419L0.27,-0.54C-1.89,2.295 -5.354,3.915 -9.899,3.915C-17.01,3.915 -21.959,-0.99 -21.959,-8.189C-21.959,-15.434 -17.01,-20.384 -9.899,-20.384C-5.58,-20.384 -2.205,-18.989 0,-16.469" style="fill:rgb(35,31,32);fill-rule:nonzero;"/>
            </g>
        </g>
        <g transform="matrix(1,0,0,1,4320,0)">
            <g transform="matrix(1,0,0,1,0,-2348.08)">
                <path d="M547.554,2903.73L552.684,2903.73L552.684,2927.67L547.554,2927.67L547.554,2903.73ZM553.133,2896.89C553.133,2898.69 551.828,2900 550.118,2900C548.408,2900 547.104,2898.69 547.104,2896.89C547.104,2895.05 548.408,2893.74 550.118,2893.74C551.828,2893.74 553.133,2895.05 553.133,2896.89" style="fill:rgb(35,31,32);fill-rule:nonzero;"/>
            </g>
        </g>
        <g transform="matrix(1,0,0,1,4320,0)">
            <g transform="matrix(1,0,0,1,564.607,577.076)">
                <path d="M0,-0.09C0,1.665 -1.215,2.925 -2.834,2.925C-4.454,2.925 -5.669,1.665 -5.669,-0.09C-5.669,-1.8 -4.454,-3.015 -2.834,-3.015C-1.215,-3.015 0,-1.8 0,-0.09" style="fill:rgb(35,31,32);fill-rule:nonzero;"/>
            </g>
        </g>
        <g transform="matrix(1,0,0,1,4320,0)">
            <g transform="matrix(1,0,0,1,0,-2341.28)">
                <path d="M616.357,2888.79L620.993,2888.79L620.993,2894.19L616.357,2894.19L616.357,2888.79ZM613.118,2882.58L617.437,2882.58L617.437,2887.62L613.118,2887.62L613.118,2882.58ZM609.518,2888.79L614.153,2888.79L614.153,2894.19L609.518,2894.19L609.518,2888.79ZM629.16,2904.18C629.415,2906.16 629.543,2907.56 629.543,2908.37L629.543,2920.88L620.272,2920.88C619.283,2920.88 618.33,2920.71 617.415,2920.38C616.5,2920.05 615.758,2919.66 615.187,2919.21C613.987,2920.32 612.488,2920.88 610.687,2920.88L606.548,2920.88L606.548,2922.68C606.548,2924.18 606.09,2925.64 605.176,2927.07C604.26,2928.49 602.827,2929.68 600.878,2930.62C598.928,2931.57 596.482,2932.04 593.543,2932.04C590.272,2932.04 587.692,2931.47 585.803,2930.33C583.913,2929.19 582.607,2927.82 581.888,2926.23C581.168,2924.64 580.808,2923.07 580.808,2921.51C580.808,2919.47 581.468,2915.07 582.788,2908.32L588.503,2908.64C587.272,2915.12 586.658,2919.11 586.658,2920.61C586.658,2921.51 586.883,2922.41 587.333,2923.31C587.783,2924.21 588.525,2924.97 589.561,2925.58C590.596,2926.2 591.923,2926.5 593.543,2926.5C595.013,2926.5 596.272,2926.25 597.323,2925.74C598.373,2925.23 599.168,2924.55 599.708,2923.69C600.248,2922.84 600.518,2921.93 600.518,2920.97L600.518,2900.63L606.548,2900.63L606.548,2915.39L608.618,2915.39C609.758,2915.39 610.635,2914.93 611.25,2914.02C611.865,2913.1 612.173,2911.92 612.173,2910.48L612.173,2900.63L618.203,2900.63L618.203,2910.48C618.203,2912.01 618.053,2913.38 617.753,2914.58C618.022,2914.79 618.375,2914.98 618.811,2915.14C619.245,2915.31 619.687,2915.39 620.138,2915.39L623.513,2915.39L623.513,2909.22C623.513,2907.3 623.482,2905.68 623.423,2904.34C623.362,2903.01 623.228,2901.08 623.018,2898.56L628.283,2898.33C628.612,2900.25 628.905,2902.2 629.16,2904.18" style="fill:rgb(35,31,32);fill-rule:nonzero;"/>
            </g>
        </g>
        <g transform="matrix(1,0,0,1,4320,0)">
            <g transform="matrix(1,0,0,1,654.742,565.421)">
                <path d="M0,-3.15L-9.854,-1.215L-10.35,-3.33L-8.279,-3.87C-9.449,-4.86 -10.034,-6.075 -10.034,-7.515C-10.034,-8.745 -9.593,-9.81 -8.707,-10.71C-7.822,-11.61 -6.689,-12.06 -5.31,-12.06C-4.14,-12.06 -2.97,-11.7 -1.8,-10.98L-2.385,-8.28C-2.564,-8.43 -2.82,-8.572 -3.149,-8.707C-3.48,-8.842 -3.854,-8.91 -4.274,-8.91C-4.965,-8.91 -5.527,-8.685 -5.962,-8.235C-6.397,-7.785 -6.614,-7.245 -6.614,-6.615C-6.614,-5.775 -6.255,-5.1 -5.534,-4.59L-0.63,-5.895L0,-3.15ZM10.396,-17.325L10.396,14.175L-7.47,14.175C-10.08,14.175 -12.292,13.98 -14.107,13.59C-15.923,13.201 -17.415,12.375 -18.585,11.115C-19.755,9.855 -20.34,7.981 -20.34,5.49C-20.34,3.391 -19.979,0.84 -19.26,-2.16L-14.22,-1.89L-14.444,-0.045C-14.715,2.115 -14.85,3.495 -14.85,4.095C-14.85,7.155 -12.63,8.685 -8.189,8.685L4.365,8.685L4.365,-17.325L10.396,-17.325Z" style="fill:rgb(35,31,32);fill-rule:nonzero;"/>
            </g>
        </g>
        <g transform="matrix(1,0,0,1,4320,0)">
            <g transform="matrix(1,0,0,1,670.896,557.276)">
                <path d="M0,33.3L0,27.9L1.53,27.99C2.61,27.99 3.42,27.563 3.96,26.708C4.5,25.852 4.771,24.645 4.771,23.085L4.771,-0.18L10.8,-0.18L10.8,22.05C10.8,25.65 10.177,28.455 8.933,30.465C7.687,32.475 5.806,33.48 3.285,33.48C2.895,33.48 1.8,33.42 0,33.3" style="fill:rgb(35,31,32);fill-rule:nonzero;"/>
            </g>
        </g>
        <g transform="matrix(1,0,0,1,4320,0)">
            <g transform="matrix(1,0,0,1,0,-2345.65)">
                <rect x="688.356" y="2893.74" width="6.03" height="31.5" style="fill:rgb(35,31,32);"/>
            </g>
        </g>
        <g transform="matrix(1,0,0,1,4320,0)">
            <g transform="matrix(1,0,0,1,706.535,577.076)">
                <path d="M0,-0.09C0,1.665 -1.215,2.925 -2.834,2.925C-4.454,2.925 -5.669,1.665 -5.669,-0.09C-5.669,-1.8 -4.454,-3.015 -2.834,-3.015C-1.215,-3.015 0,-1.8 0,-0.09" style="fill:rgb(35,31,32);fill-rule:nonzero;"/>
            </g>
        </g>
        <g transform="matrix(1,0,0,1,4320,0)">
            <g transform="matrix(1,0,0,1,764.313,569.067)">
                <path d="M0,-13.365L-2.52,-13.365L-2.52,8.774C-2.52,11.249 -2.97,12.464 -4.409,13.274C-5.85,14.084 -7.965,14.219 -10.89,14.219C-11.159,12.959 -11.924,10.844 -12.645,9.584C-10.709,9.674 -8.864,9.674 -8.189,9.674C-7.56,9.629 -7.334,9.449 -7.334,8.774L-7.334,-13.365L-14.039,-13.365L-14.039,-18.315L-7.334,-18.315L-7.334,-27.224L-2.52,-27.224L-2.52,-18.315L0,-18.315L0,-13.365ZM-11.789,0.945C-12.104,-1.71 -13.364,-6.165 -14.714,-9.585L-10.845,-10.755C-9.404,-7.47 -8.055,-3.105 -7.649,-0.36L-11.789,0.945ZM-24.028,-4.32L-19.529,-4.32L-19.529,-6.75L-24.028,-6.75L-24.028,-4.32ZM-24.028,-10.44L-19.529,-10.44L-19.529,-12.645L-24.028,-12.645L-24.028,-10.44ZM-19.529,-18.405L-24.028,-18.405L-24.028,-16.335L-19.529,-16.335L-19.529,-18.405ZM-15.119,9.269C-15.119,11.429 -15.479,12.599 -16.829,13.364C-18.089,14.084 -19.979,14.219 -22.634,14.219C-22.813,13.004 -23.443,11.069 -24.073,9.944C-22.454,10.034 -20.789,9.989 -20.249,9.944C-19.709,9.944 -19.529,9.764 -19.529,9.224L-19.529,2.024C-21.779,6.254 -24.884,10.124 -28.169,12.689C-28.754,11.879 -30.283,10.034 -31.184,9.224C-28.124,7.064 -25.289,3.734 -23.398,0.09L-30.464,0.09L-30.464,-4.32L-28.349,-4.32L-28.349,-22.544L-24.254,-22.544C-23.759,-24.254 -23.354,-26.144 -23.129,-27.584L-17.909,-26.819C-18.494,-25.379 -19.124,-23.895 -19.754,-22.544L-15.119,-22.544L-15.119,9.269ZM-34.063,-16.335C-35.233,-18.45 -37.979,-21.78 -40.093,-24.209L-36.583,-26.999C-34.423,-24.75 -31.589,-21.554 -30.328,-19.53L-34.063,-16.335ZM-29.788,1.574C-29.608,2.925 -29.068,5.039 -28.663,6.074C-34.963,11.564 -36.133,12.734 -36.764,13.724C-37.258,12.644 -38.743,10.709 -39.553,9.899C-38.653,9.089 -37.168,7.154 -37.168,4.904L-37.168,-8.64L-41.578,-8.64L-41.578,-13.77L-32.533,-13.77L-32.533,3.869L-29.788,1.574Z" style="fill:rgb(35,31,32);fill-rule:nonzero;"/>
            </g>
        </g>
        <g transform="matrix(1,0,0,1,4320,0)">
            <g transform="matrix(1,0,0,1,809.674,569.067)">
                <path d="M0,-13.365L-2.52,-13.365L-2.52,8.774C-2.52,11.249 -2.97,12.464 -4.409,13.274C-5.85,14.084 -7.965,14.219 -10.89,14.219C-11.159,12.959 -11.924,10.844 -12.645,9.584C-10.709,9.674 -8.864,9.674 -8.189,9.674C-7.56,9.629 -7.334,9.449 -7.334,8.774L-7.334,-13.365L-14.039,-13.365L-14.039,-18.315L-7.334,-18.315L-7.334,-27.224L-2.52,-27.224L-2.52,-18.315L0,-18.315L0,-13.365ZM-11.789,0.945C-12.104,-1.71 -13.364,-6.165 -14.714,-9.585L-10.845,-10.755C-9.404,-7.47 -8.055,-3.105 -7.649,-0.36L-11.789,0.945ZM-24.028,-4.32L-19.529,-4.32L-19.529,-6.75L-24.028,-6.75L-24.028,-4.32ZM-24.028,-10.44L-19.529,-10.44L-19.529,-12.645L-24.028,-12.645L-24.028,-10.44ZM-19.529,-18.405L-24.028,-18.405L-24.028,-16.335L-19.529,-16.335L-19.529,-18.405ZM-15.119,9.269C-15.119,11.429 -15.479,12.599 -16.829,13.364C-18.089,14.084 -19.979,14.219 -22.634,14.219C-22.813,13.004 -23.443,11.069 -24.073,9.944C-22.454,10.034 -20.789,9.989 -20.249,9.944C-19.709,9.944 -19.529,9.764 -19.529,9.224L-19.529,2.024C-21.778,6.254 -24.884,10.124 -28.169,12.689C-28.754,11.879 -30.283,10.034 -31.184,9.224C-28.124,7.064 -25.289,3.734 -23.398,0.09L-30.464,0.09L-30.464,-4.32L-28.349,-4.32L-28.349,-22.544L-24.254,-22.544C-23.759,-24.254 -23.354,-26.144 -23.129,-27.584L-17.909,-26.819C-18.494,-25.379 -19.124,-23.895 -19.754,-22.544L-15.119,-22.544L-15.119,9.269ZM-34.063,-16.335C-35.233,-18.45 -37.979,-21.78 -40.093,-24.209L-36.583,-26.999C-34.423,-24.75 -31.589,-21.554 -30.328,-19.53L-34.063,-16.335ZM-29.788,1.574C-29.608,2.925 -29.068,5.039 -28.663,6.074C-34.963,11.564 -36.133,12.734 -36.764,13.724C-37.258,12.644 -38.743,10.709 -39.553,9.899C-38.653,9.089 -37.168,7.154 -37.168,4.904L-37.168,-8.64L-41.578,-8.64L-41.578,-13.77L-32.533,-13.77L-32.533,3.869L-29.788,1.574Z" style="fill:rgb(35,31,32);fill-rule:nonzero;"/>
            </g>
        </g>
        <g transform="matrix(1,0,0,1,4320,0)">
            <g transform="matrix(1,0,0,1,849.813,564.162)">
                <path d="M0,-3.105C2.34,1.53 4.275,7.514 4.905,11.564L-0.225,13.319C-0.72,9.314 -2.609,3.15 -4.77,-1.485L0,-3.105ZM-13.859,-1.575C-15.164,4.14 -17.459,9.809 -19.979,13.454C-21.014,12.599 -23.264,11.249 -24.568,10.574C-22.004,7.425 -20.114,2.34 -19.079,-2.655L-13.859,-1.575ZM-6.39,-9.675L-6.39,13.364C-6.39,15.929 -6.84,17.414 -8.459,18.314C-10.034,19.169 -12.194,19.394 -15.074,19.394C-15.299,17.819 -16.109,15.434 -16.919,13.994C-15.029,14.039 -13.14,14.039 -12.509,14.039C-11.924,14.039 -11.699,13.859 -11.699,13.274L-11.699,-9.675L-16.919,-9.675C-18.179,-7.065 -19.664,-4.68 -21.148,-2.79C-22.094,-3.735 -24.254,-5.49 -25.469,-6.3C-22.049,-10.125 -19.349,-16.334 -17.819,-22.499L-12.6,-21.329C-13.185,-19.034 -13.904,-16.83 -14.714,-14.625L0.766,-14.625L1.62,-14.805L5.4,-14.085C4.86,-10.44 4.095,-6.255 3.465,-3.645L-1.08,-4.41C-0.854,-5.805 -0.585,-7.695 -0.359,-9.675L-6.39,-9.675ZM-22.318,-20.924C-23.489,-17.82 -24.929,-14.67 -26.594,-11.7L-26.594,19.259L-31.724,19.259L-31.724,-3.735C-32.714,-2.385 -33.748,-1.17 -34.738,-0.09C-35.233,-1.44 -36.719,-4.365 -37.618,-5.67C-33.568,-9.72 -29.653,-16.11 -27.403,-22.499L-22.318,-20.924Z" style="fill:rgb(35,31,32);fill-rule:nonzero;"/>
            </g>
        </g>
        <g transform="matrix(1,0,0,1,4320,0)">
            <g transform="matrix(1,0,0,1,864.755,577.076)">
                <path d="M0,-0.09C0,1.665 -1.215,2.925 -2.834,2.925C-4.454,2.925 -5.669,1.665 -5.669,-0.09C-5.669,-1.8 -4.454,-3.015 -2.834,-3.015C-1.215,-3.015 0,-1.8 0,-0.09" style="fill:rgb(35,31,32);fill-rule:nonzero;"/>
            </g>
        </g>
    </g>
</svg>
