<svg version="1.1" id="Layer_1" xmlns="http://www.w3.org/2000/svg" xmlns:xlink="http://www.w3.org/1999/xlink" x="0px" y="0px" viewBox="0 0 188 64" style="enable-background:new 0 0 188 64;" xml:space="preserve"><style type="text/css">.st0{fill:#221F20;}.st1{fill:#1C1A1A;}</style><!-- Arabic --><title>شكر.</title><g><path class="st0" d="M42.7,40.1c0,1.8-1.2,3-2.8,3c-1.6,0-2.8-1.3-2.8-3c0-1.7,1.2-2.9,2.8-2.9C41.5,37.2,42.7,38.4,42.7,40.1z"/></g><g><rect x="125.9" y="10.6" class="st1" width="4.6" height="5.4"/><rect x="132.8" y="10.6" class="st1" width="4.6" height="5.4"/><rect x="129.5" y="4.4" class="st1" width="4.3" height="5"/><polygon class="st1" points="72.8,12 62.4,14 62.4,17.1 72.8,15.1  "/><rect x="48.2" y="11.2" class="st1" width="6" height="31.5"/><polygon class="st1" points="72.8,7.2 62.4,9.3 62.4,12.4 72.8,10.4  "/><path class="st1" d="M145.6,26c-0.3-2-0.5-3.9-0.9-5.9l-5.3,0.2c0.2,2.5,0.3,4.4,0.4,5.8c0.1,1.3,0.1,3,0.1,4.9v6.2h-3.4c-0.4,0-0.9-0.1-1.3-0.2c-0.4-0.2-0.8-0.4-1.1-0.6c0.3-1.2,0.4-2.6,0.4-4.1v-9.9h-6v9.9c0,1.4-0.3,2.6-0.9,3.5c-0.6,0.9-1.5,1.4-2.6,1.4H123V22.4h-6v14.8h-6.9h-6v-5.5c0-1.4-0.2-2.9-0.7-4.5c-0.4-1.6-1.3-3.1-2.6-4.4c-1.3-1.3-3.1-1.9-5.5-1.9h-8.9l0.8-1.6c1.4-2.6,2.8-5,4.4-7.2l-4.5-2.5c-0.9,1-1.9,2.2-2.9,3.5c-1,1.4-1.8,2.6-2.4,3.8l-2.7,5.3l3.1,4.2h12.1c1,0,1.9,0.5,2.6,1.5c0.7,1,1.1,2.3,1.1,3.8v5.5H78h-7.4v-17h-6v23.3c0,1.6-0.3,2.8-0.8,3.6c-0.5,0.9-1.4,1.3-2.4,1.3l-1.5-0.1v5.4c1.8,0.1,2.9,0.2,3.3,0.2c2.5,0,4.4-1,5.6-2.9c1.2-1.9,1.9-4.7,1.9-8.2H78h32h17.1c1.8,0,3.3-0.6,4.5-1.7c0.6,0.4,1.3,0.8,2.2,1.2c0.9,0.3,1.9,0.5,2.9,0.5h9.3V30.2C146,29.4,145.8,28,145.6,26z"/></g></svg>
