<?xml version="1.0" standalone="no"?>
<!DOCTYPE svg PUBLIC "-//W3C//DTD SVG 20010904//EN"
 "http://www.w3.org/TR/2001/REC-SVG-20010904/DTD/svg10.dtd">
<svg version="1.0" xmlns="http://www.w3.org/2000/svg"
 width="2000.000000pt" height="2000.000000pt" viewBox="0 0 2000.000000 2000.000000"
 preserveAspectRatio="xMidYMid meet">
<metadata>
Created by potrace 1.11, written by Peter Selinger 2001-2013
</metadata>
<g transform="translate(0.000000,2000.000000) scale(0.100000,-0.100000)"
fill="#000000" stroke="none">
<path d="M9937 19454 c-1 -1 -54 -4 -117 -8 -271 -13 -543 -66 -815 -157 -126
-43 -171 -60 -220 -87 -16 -9 -31 -15 -33 -13 -2 1 -49 -20 -105 -47 -402
-196 -781 -500 -1055 -845 -295 -371 -501 -798 -601 -1242 -79 -350 -97 -754
-50 -1090 5 -38 12 -86 15 -105 16 -119 79 -366 129 -507 114 -324 290 -642
504 -911 100 -125 292 -324 395 -410 45 -37 83 -69 86 -72 34 -35 232 -171
366 -252 252 -152 632 -301 898 -354 291 -57 400 -68 666 -68 166 -1 352 9
381 18 8 3 34 7 59 10 25 3 56 8 70 11 14 3 45 8 70 11 25 3 48 8 51 10 3 2
21 6 40 9 102 17 395 111 537 172 364 156 678 369 963 653 152 152 189 194
292 330 299 398 507 881 581 1355 32 207 39 292 39 490 1 136 -10 362 -18 375
-1 3 -6 32 -9 65 -9 75 -39 229 -67 337 -151 593 -482 1134 -945 1548 -28 25
-65 56 -83 70 -18 14 -44 35 -59 48 -145 121 -485 324 -667 399 -17 7 -62 25
-101 41 -155 64 -444 146 -591 167 -21 4 -45 8 -53 10 -8 2 -42 7 -75 11 -33
3 -73 8 -90 10 -63 8 -383 22 -388 18z"/>
<path d="M3785 16703 c-211 -199 -410 -402 -560 -568 -50 -55 -92 -102 -95
-105 -3 -3 -30 -34 -60 -70 -30 -36 -57 -67 -61 -70 -31 -28 -302 -377 -450
-580 -103 -142 -337 -498 -407 -621 -11 -19 -52 -90 -92 -159 -121 -210 -282
-524 -376 -733 -25 -56 -54 -120 -64 -142 -10 -22 -30 -69 -45 -105 -14 -36
-32 -78 -39 -95 -8 -16 -30 -73 -50 -125 -20 -52 -50 -129 -66 -170 -97 -252
-259 -795 -325 -1090 -27 -120 -56 -258 -61 -288 -3 -20 -12 -68 -20 -107 -8
-38 -17 -86 -20 -105 -3 -19 -7 -46 -10 -60 -8 -47 -18 -112 -30 -195 -3 -27
-8 -58 -10 -69 -2 -10 -6 -44 -9 -75 -4 -31 -8 -67 -11 -81 -2 -14 -6 -50 -10
-80 -3 -30 -7 -71 -9 -90 -2 -19 -7 -73 -10 -120 -4 -47 -8 -101 -10 -120 -13
-131 -20 -364 -20 -675 0 -366 7 -571 29 -805 4 -36 9 -90 12 -120 3 -30 7
-66 9 -80 2 -14 6 -54 10 -90 4 -36 8 -76 10 -90 2 -14 9 -61 15 -105 6 -44
12 -91 15 -105 2 -14 11 -70 20 -125 9 -55 22 -131 30 -170 8 -38 16 -81 19
-95 34 -190 144 -636 205 -835 56 -183 101 -319 133 -410 53 -146 127 -343
143 -380 7 -16 48 -113 91 -215 111 -263 401 -838 494 -980 5 -8 17 -28 26
-45 92 -165 455 -711 527 -789 9 -11 17 -23 17 -27 0 -4 6 -14 13 -21 7 -7 44
-53 82 -103 90 -118 138 -178 151 -190 6 -5 17 -19 25 -31 8 -12 39 -49 69
-84 30 -35 89 -102 130 -149 245 -282 686 -714 959 -941 30 -25 71 -59 90 -76
132 -112 404 -318 586 -443 44 -30 85 -59 90 -63 46 -39 410 -266 605 -377 80
-45 152 -86 160 -91 8 -6 146 -75 305 -154 237 -118 446 -214 600 -275 11 -5
38 -16 60 -26 82 -36 431 -161 615 -220 305 -99 774 -220 1010 -261 14 -3 70
-13 125 -23 55 -11 134 -25 175 -31 41 -7 84 -14 95 -16 11 -2 45 -7 75 -10
30 -3 57 -7 60 -9 3 -2 37 -6 75 -10 39 -3 81 -8 95 -10 14 -2 48 -7 75 -10
28 -3 66 -7 85 -10 37 -4 158 -15 250 -21 379 -27 1068 -26 1350 1 19 2 71 6
115 9 44 4 103 9 130 12 28 4 61 7 75 9 14 1 48 5 75 8 28 4 74 9 104 13 30 3
63 8 75 10 12 2 41 6 66 9 44 5 365 59 406 69 12 2 37 7 56 10 114 18 479 106
708 171 270 76 691 217 865 290 111 47 258 107 265 110 82 29 724 342 764 374
6 4 40 23 76 42 36 18 76 41 90 50 14 9 88 53 165 99 121 71 513 328 600 393
16 12 72 53 125 92 52 38 97 72 100 75 3 3 32 25 65 50 33 24 69 52 80 61 229
190 287 239 326 273 25 23 85 77 135 120 186 166 592 583 769 790 28 32 55 63
60 70 6 6 42 49 80 96 38 47 72 87 75 90 3 3 21 25 40 50 19 25 39 50 45 57
60 72 275 371 388 541 571 860 985 1778 1237 2742 7 25 14 52 15 60 2 8 17 71
34 140 17 69 34 137 36 152 3 16 12 56 19 90 8 35 17 80 20 102 4 21 8 41 10
45 2 3 7 24 10 46 4 22 15 90 26 150 10 61 21 130 25 155 3 25 8 56 10 70 2
14 7 45 10 70 3 25 8 56 10 70 3 14 7 52 10 85 3 33 7 70 9 82 3 12 7 53 10
90 4 37 9 97 12 133 3 36 8 83 9 105 27 317 27 1048 1 1355 -2 25 -7 83 -10
130 -4 47 -9 99 -11 115 -2 17 -7 57 -10 90 -3 33 -8 74 -10 90 -3 17 -7 53
-10 80 -5 43 -32 226 -50 345 -30 186 -107 545 -166 770 -16 63 -32 124 -34
136 -16 73 -134 451 -187 599 -44 123 -124 334 -143 380 -7 17 -48 113 -91
215 -43 102 -140 309 -215 460 -306 613 -649 1145 -1074 1669 -164 202 -153
189 -364 425 -95 106 -591 596 -604 596 -7 0 -371 -359 -810 -798 l-798 -798
98 -89 c216 -198 434 -425 647 -675 207 -243 501 -659 652 -923 21 -38 44 -76
49 -85 63 -106 185 -340 250 -482 108 -236 115 -251 115 -258 1 -4 9 -25 20
-47 11 -22 19 -44 20 -48 0 -5 7 -23 15 -40 79 -173 274 -806 319 -1037 2 -14
9 -47 15 -75 27 -128 69 -377 86 -510 24 -186 25 -195 31 -280 3 -44 7 -90 9
-102 23 -141 23 -782 0 -1048 -13 -146 -16 -182 -21 -224 -2 -25 -7 -64 -10
-86 -4 -22 -8 -54 -10 -72 -4 -45 -20 -153 -29 -203 -3 -14 -7 -41 -10 -60 -3
-19 -10 -57 -15 -85 -5 -27 -11 -61 -14 -75 -8 -48 -47 -225 -56 -255 -5 -16
-12 -43 -14 -60 -27 -155 -232 -785 -320 -980 -8 -16 -26 -59 -41 -95 -85
-201 -254 -539 -353 -705 -91 -152 -222 -360 -290 -460 -69 -101 -277 -383
-292 -395 -3 -3 -24 -27 -45 -55 -22 -27 -44 -55 -50 -61 -5 -6 -28 -32 -50
-59 -356 -430 -922 -934 -1420 -1265 -162 -107 -515 -320 -532 -320 -2 0 -18
-9 -34 -21 -16 -11 -29 -18 -29 -15 0 4 -17 -4 -37 -17 -39 -23 -197 -102
-327 -162 -207 -95 -507 -213 -711 -278 -182 -59 -525 -155 -620 -173 -24 -4
-110 -22 -145 -30 -14 -3 -36 -7 -50 -10 -14 -2 -47 -9 -75 -14 -120 -23 -306
-51 -425 -64 -36 -4 -76 -9 -90 -11 -23 -3 -106 -11 -215 -20 -210 -18 -684
-23 -888 -11 -151 10 -312 23 -387 32 -268 32 -443 60 -727 118 -279 57 -872
240 -1083 334 -25 11 -85 37 -135 57 -343 143 -719 344 -1065 570 -110 71
-343 235 -396 278 -11 9 -66 53 -124 98 -919 728 -1645 1699 -2098 2809 -62
150 -192 525 -228 657 -100 366 -178 741 -213 1038 -6 50 -13 108 -16 130 -3
22 -7 76 -11 120 -3 44 -7 91 -9 104 -22 133 -23 821 -1 1046 3 22 7 72 10
110 9 92 30 273 41 345 2 14 7 45 10 70 9 65 33 200 57 315 11 55 22 111 25
124 2 13 11 51 19 85 8 34 16 68 19 77 55 238 225 762 295 914 5 11 25 58 44
105 186 457 503 1011 825 1440 78 104 271 344 317 395 11 12 57 63 104 115
106 119 345 359 468 470 l93 84 -798 798 c-439 439 -802 798 -808 798 -5 0
-41 -30 -80 -67z"/>
<path d="M6270 14212 c-221 -197 -532 -528 -693 -737 -448 -579 -750 -1159
-960 -1840 -22 -71 -74 -255 -82 -295 -2 -8 -13 -60 -25 -114 -12 -55 -23
-102 -24 -105 -2 -3 -7 -28 -10 -56 -4 -27 -11 -68 -16 -90 -5 -22 -16 -92
-25 -155 -22 -161 -23 -168 -30 -235 -3 -33 -8 -78 -10 -100 -23 -199 -23
-776 0 -975 3 -19 7 -60 10 -90 6 -57 23 -196 30 -240 2 -14 7 -45 10 -70 3
-25 8 -52 10 -60 2 -8 7 -35 10 -60 3 -25 10 -58 15 -75 4 -16 11 -48 15 -70
8 -53 51 -228 82 -340 14 -49 26 -97 28 -105 18 -80 168 -492 226 -618 16 -35
29 -67 29 -70 0 -21 220 -448 285 -553 6 -9 18 -32 29 -50 63 -113 316 -478
422 -609 452 -557 975 -1010 1564 -1356 301 -176 737 -376 1025 -469 86 -28
241 -77 255 -81 241 -65 560 -135 675 -148 27 -4 57 -9 67 -12 16 -5 17 199
17 3503 l0 3508 -1417 1418 c-779 779 -1421 1417 -1427 1417 -5 -1 -44 -31
-85 -68z"/>
<path d="M12218 12863 l-1418 -1418 3 -3505 c2 -3498 2 -3505 22 -3503 39 4
188 29 290 49 209 39 528 129 785 219 465 165 1000 447 1400 740 57 42 281
215 290 225 3 3 52 45 110 95 58 49 177 162 266 250 141 140 193 197 330 354
55 63 218 273 281 361 315 442 580 958 751 1465 47 139 109 352 128 435 4 19
9 40 11 45 6 23 52 233 58 265 3 19 12 71 20 115 15 86 21 122 30 200 3 28 8
61 10 75 2 14 7 54 10 90 3 36 8 83 10 105 23 222 23 819 0 956 -2 13 -6 56
-10 94 -6 66 -30 251 -39 305 -2 14 -10 59 -16 100 -7 41 -19 104 -27 140 -8
36 -17 74 -19 85 -8 40 -17 83 -39 175 -2 8 -13 49 -25 90 -11 41 -27 98 -35
125 -29 105 -124 382 -154 450 -5 11 -15 36 -22 55 -7 19 -27 68 -46 108 -18
41 -33 77 -33 81 0 14 -190 391 -230 456 -22 36 -40 67 -40 70 0 2 -27 49 -61
102 -33 54 -66 107 -72 117 -87 142 -360 510 -462 622 -5 6 -39 44 -74 85
-145 166 -532 538 -561 539 -3 0 -643 -638 -1422 -1417z"/>
</g>
</svg>
